<?xml version="1.0" standalone="no"?>
<!DOCTYPE svg PUBLIC "-//W3C//DTD SVG 1.1//EN" "http://www.w3.org/Graphics/SVG/1.1/DTD/svg11.dtd" >
<svg xmlns="http://www.w3.org/2000/svg" xmlns:xlink="http://www.w3.org/1999/xlink" version="1.1">
<metadata>
Created by FontForge 20170731 at Wed Feb 13 11:40:49 2019
 By Aleksey,,,
Copyright (c) 2019 by Svet Simov. All rights reserved.
</metadata>
<defs>
<font id="Noah-Regular" horiz-adv-x="0" >
  <font-face 
    font-family="Noah"
    font-weight="400"
    font-stretch="normal"
    units-per-em="1000"
    panose-1="0 0 5 0 0 0 0 0 0 0"
    ascent="800"
    descent="-200"
    x-height="442"
    cap-height="680"
    bbox="-341 -294 1195 949"
    underline-thickness="50"
    underline-position="-150"
    unicode-range="U+0020-FB02"
  />
<missing-glyph horiz-adv-x="466" 
d="M382 -220h-295v932h295v-932zM157 650v-31h60v-35h-61v-30h154v30h-61v35h61v31h-153zM156 529v-97h154v32h-61v65h-93zM217 464h-31v34h31v-34zM156 407v-31h61v-34h-61v-31h93v65h61v31h-154zM280 351v-61h-124v-32h154v93h-30zM217 238v-53h32v22h31v-44h-94v75h-30
v-106h154v106h-93zM156 76v-105h154v105h-154zM280 2h-94v44h94v-44zM156 -50v-31h65l-65 -44v-31h154v31h-95l66 44h29v31h-154z" />
    <glyph glyph-name="fi" unicode="fi" horiz-adv-x="552" 
d="M474 0h-61v388h-242v-388h-61v388h-92v54h92v111q0 81 42.5 128.5t126.5 47.5q54 0 97.5 -18t83.5 -54l-31 -42q-33 28 -66.5 42.5t-75.5 14.5q-55 0 -85.5 -29t-30.5 -90v-111h303v-442z" />
    <glyph glyph-name="fl" unicode="fl" horiz-adv-x="545" 
d="M467 717v-717h-61v631q-32 22 -61.5 31.5t-63.5 9.5q-53 0 -81.5 -29t-28.5 -85v-116h145v-54h-145v-388h-61v388h-92v54h92v116q0 76 41.5 123.5t122.5 47.5q38 0 71 -10.5t66 -34.5l7 33h49z" />
    <glyph glyph-name="f_f" unicode="ff" horiz-adv-x="656" 
d="M523 645.5q-24 -26.5 -24 -76.5v-127h145v-54h-145v-388h-61v388h-267v-388h-61v388h-92v54h92v127q0 69 37 114.5t108 45.5q56 0 103 -23l-19 -50q-35 16 -77 16q-43 0 -67 -26.5t-24 -76.5v-127h267v127q0 70 36.5 115t106.5 45q34 0 60.5 -9.5t53.5 -29.5l-27 -44
q-21 14 -39 20t-41 6q-41 0 -65 -26.5z" />
    <glyph glyph-name="f_f_i" unicode="ffi" horiz-adv-x="882" 
d="M804 0h-61v388h-244v-388h-61v388h-267v-388h-61v388h-92v54h92v127q0 69 37 114.5t108 45.5q28 0 52 -5t51 -18l-19 -50q-35 16 -76 16q-43 0 -67.5 -26.5t-24.5 -76.5v-127h267v111q0 81 43 128.5t127 47.5q50 0 92 -18t81 -54l-33 -40q-33 27 -64 41t-69 14
q-116 0 -116 -119v-111h305v-442z" />
    <glyph glyph-name="f_f_l" unicode="ffl" horiz-adv-x="882" 
d="M804 717v-717h-61v630q-33 22 -64.5 32t-69.5 10q-53 0 -81.5 -29.5t-28.5 -88.5v-112h140v-54h-140v-388h-61v388h-267v-388h-61v388h-92v54h92v127q0 69 37 114.5t108 45.5q56 0 103 -23l-19 -50q-36 16 -77 16q-43 0 -67 -26.5t-24 -76.5v-127h267v114q0 77 41.5 125
t122.5 48q83 0 146 -46l7 34h49z" />
    <glyph glyph-name=".notdef" horiz-adv-x="466" 
d="M382 -220h-295v932h295v-932zM157 650v-31h60v-35h-61v-30h154v30h-61v35h61v31h-153zM156 529v-97h154v32h-61v65h-93zM217 464h-31v34h31v-34zM156 407v-31h61v-34h-61v-31h93v65h61v31h-154zM280 351v-61h-124v-32h154v93h-30zM217 238v-53h32v22h31v-44h-94v75h-30
v-106h154v106h-93zM156 76v-105h154v105h-154zM280 2h-94v44h94v-44zM156 -50v-31h65l-65 -44v-31h154v31h-95l66 44h29v31h-154z" />
    <glyph glyph-name=".null" 
 />
    <glyph glyph-name="nonmarkingreturn" horiz-adv-x="333" 
 />
    <glyph glyph-name="space" unicode=" " horiz-adv-x="228" 
 />
    <glyph glyph-name="exclam" unicode="!" horiz-adv-x="262" 
d="M96 680h71l-6 -518h-60zM98 2q-14 12 -14 34q0 23 14 35t33 12q20 0 34 -12t14 -35q0 -22 -14 -34t-34 -12q-19 0 -33 12z" />
    <glyph glyph-name="quotedbl" unicode="&#x22;" horiz-adv-x="323" 
d="M53 680h67l-16 -199h-51v199zM203 680h66l-15 -199h-51v199z" />
    <glyph glyph-name="numbersign" unicode="#" horiz-adv-x="521" 
d="M129 201h-96v53h103l22 150h-98v53h106l34 223h53l-33 -223h127l32 223h54l-32 -223h87v-53h-95l-23 -150h90v-53h-98l-29 -201h-54l30 201h-127l-30 -201h-53zM317 254l22 150h-127l-22 -150h127z" />
    <glyph glyph-name="dollar" unicode="$" horiz-adv-x="555" 
d="M456 286q49 -44 49 -118q0 -72 -52 -120.5t-135 -55.5v-86h-66v87q-55 5 -106 26t-93 55l37 47q34 -28 76 -45.5t86 -22.5v270q-84 34 -130 74t-46 107q0 69 49 113t127 52v86h66v-87q84 -8 156 -59l-30 -53q-58 43 -126 52v-243q89 -35 138 -79zM170 442q29 -27 82 -50
v218q-49 -6 -80 -31t-31 -70q0 -40 29 -67zM406.5 88.5q33.5 30.5 33.5 76.5q0 47 -31 76t-91 54v-244q55 7 88.5 37.5z" />
    <glyph glyph-name="percent" unicode="%" horiz-adv-x="766" 
d="M112 416q-33 22 -49 56t-16 70t16 70t49 56t81 22t81 -21.5t49 -55.5t16 -71q0 -36 -16 -70t-49 -56t-81 -22t-81 22zM554 680h56l-391 -680h-57zM263 471.5q24 30.5 24 70.5t-23.5 70.5t-70.5 30.5q-46 0 -70 -30.5t-24 -70.5t24 -70.5t70 -30.5t70 30.5zM492 12
q-33 22 -49 56t-16 70t16 70t49 56t81 22t81 -21.5t49 -55.5t16 -71q0 -36 -16 -70t-49 -56t-81 -22t-81 22zM643 67.5q24 30.5 24 70.5t-24 70.5t-70 30.5t-70 -30.5t-24 -70.5t24 -70.5t70 -30.5t70 30.5z" />
    <glyph glyph-name="ampersand" unicode="&#x26;" horiz-adv-x="642" 
d="M148 13q-46 23 -70 61.5t-24 83.5q0 61 37.5 116t112.5 95q-41 47 -60 84.5t-19 76.5q0 43 22 79.5t62.5 58.5t92.5 22q46 0 81.5 -19.5t55 -52t19.5 -71.5q0 -60 -43 -106t-119 -86l168 -174q26 42 40 92.5t16 96.5h59q-1 -59 -19.5 -121.5t-52.5 -113.5l122 -135h-75
l-83 90q-40 -45 -95 -72.5t-120 -27.5q-62 0 -108 23zM358 467q35 33 35 77q0 36 -26 61t-68 25q-49 0 -79 -28.5t-30 -69.5q0 -32 15.5 -62t51.5 -71q66 35 101 68zM352.5 73.5q44.5 23.5 77.5 60.5l-187 192q-60 -30 -92 -75t-32 -90q0 -46 37 -78.5t100 -32.5
q52 0 96.5 23.5z" />
    <glyph glyph-name="quotesingle" unicode="'" horiz-adv-x="173" 
d="M53 680h67l-16 -199h-51v199z" />
    <glyph glyph-name="parenleft" unicode="(" horiz-adv-x="309" 
d="M120.5 19.5q-41.5 127.5 -41.5 266.5t41.5 266.5t111.5 211.5l40 -37q-62 -74 -98 -192t-36 -249t36 -249t98 -192l-40 -37q-70 84 -111.5 211.5z" />
    <glyph glyph-name="parenright" unicode=")" horiz-adv-x="309" 
d="M188.5 552.5q41.5 -127.5 41.5 -266.5t-41.5 -266.5t-111.5 -211.5l-39 37q62 74 97.5 192.5t35.5 248.5t-35.5 248.5t-97.5 192.5l39 37q70 -84 111.5 -211.5z" />
    <glyph glyph-name="asterisk" unicode="*" horiz-adv-x="364" 
d="M65 413l89 106l-127 35l16 43l120 -44l-4 127h46l-4 -127l121 44l15 -43l-127 -35l88 -106l-36 -28l-80 113l-80 -113z" />
    <glyph glyph-name="plus" unicode="+" horiz-adv-x="522" 
d="M232 313h-160v55h160v161h57v-161h160v-55h-160v-160h-57v160z" />
    <glyph glyph-name="comma" unicode="," horiz-adv-x="255" 
d="M161.5 68q13.5 -15 13.5 -46q0 -79 -70 -143l-20 19q24 26 36.5 47t15.5 46q-3 -1 -10 -1q-21 0 -34 12.5t-13 33.5q0 23 14 35t33 12q21 0 34.5 -15z" />
    <glyph glyph-name="hyphen" unicode="-" horiz-adv-x="391" 
d="M67 255h256v-53h-256v53z" />
    <glyph glyph-name="period" unicode="." horiz-adv-x="254" 
d="M94 2q-14 12 -14 34q0 23 13.5 35t33.5 12q19 0 33 -12t14 -35q0 -22 -14 -34t-33 -12t-33 12z" />
    <glyph glyph-name="slash" unicode="/" horiz-adv-x="395" 
d="M36 -10l262 700h61l-262 -700h-61z" />
    <glyph glyph-name="zero" unicode="0" horiz-adv-x="583" 
d="M167 31.5q-52 41.5 -80 118.5t-28 181t28 180.5t80 118t124 41.5t124.5 -41.5t80.5 -118.5t28 -180q0 -104 -28 -181t-80.5 -118.5t-124.5 -41.5t-124 41.5zM413.5 126.5q44.5 75.5 44.5 204.5t-44.5 204.5t-122.5 75.5t-122 -75.5t-44 -204.5t44 -204.5t122 -75.5
t122.5 75.5z" />
    <glyph glyph-name="one" unicode="1" horiz-adv-x="339" 
d="M239 671v-671h-64v533q0 24 2 36q-20 -13 -25 -16l-102 -64l-29 51l201 131h17z" />
    <glyph glyph-name="two" unicode="2" horiz-adv-x="466" 
d="M429 59v-59h-396v18l247 329q37 49 52.5 82t15.5 65q0 52 -30.5 84.5t-83.5 32.5q-80 0 -137 -81l-48 37q79 104 186 104q53 0 93.5 -22.5t62.5 -62t22 -88.5q0 -46 -18.5 -86t-69.5 -109l-146 -192l-41 -53q22 1 66 1h225z" />
    <glyph glyph-name="three" unicode="3" horiz-adv-x="522" 
d="M121 17.5q-53 27.5 -88 75.5l46 37q67 -79 156 -79q76 0 121.5 39t45.5 99q0 68 -48 99.5t-116 31.5h-85v60h76q68 0 103.5 35t35.5 83q0 49 -35 81t-92 32q-44 0 -79.5 -18t-67.5 -50l-40 38q77 90 189 90q57 0 100.5 -22t67.5 -60.5t24 -85.5q0 -45 -25.5 -86.5
t-73.5 -62.5q66 -18 99 -65.5t33 -103.5q0 -55 -28.5 -99.5t-81.5 -70t-123 -25.5q-61 0 -114 27.5z" />
    <glyph glyph-name="four" unicode="4" horiz-adv-x="520" 
d="M493 202v-58h-78v-144h-62v144h-334v16l379 511h17v-469h78zM354 450q0 45 2 72q-22 -28 -20 -26q-5 -8 -11 -15.5t-11 -15.5l-155 -211q-22 -30 -41 -52h73h163v248z" />
    <glyph glyph-name="five" unicode="5" horiz-adv-x="481" 
d="M333 381q51 -24 80 -70t29 -109q0 -62 -29 -110.5t-80 -75.5t-114 -27q-61 0 -109.5 24t-81.5 68l44 40q51 -71 151 -71q67 0 110.5 42t43.5 110q0 77 -50 112t-126 35q-62 0 -117 -20l-11 11l42 321h305v-59h-252l-27 -205q42 8 76 8q65 0 116 -24z" />
    <glyph glyph-name="six" unicode="6" horiz-adv-x="525" 
d="M379.5 385.5q45.5 -23.5 73 -70t27.5 -112.5q0 -61 -26 -109.5t-73.5 -76t-108.5 -27.5q-68 0 -116.5 32.5t-73 89t-24.5 127.5v14q0 183 82.5 291.5t261.5 126.5l8 -58q-126 -10 -198 -80t-86 -190q52 66 153 66q55 0 100.5 -23.5zM373.5 93q40.5 42 40.5 110
q0 71 -40.5 109.5t-102.5 38.5q-64 0 -105.5 -39t-41.5 -111q0 -64 40.5 -107t105.5 -43q63 0 103.5 42z" />
    <glyph glyph-name="seven" unicode="7" horiz-adv-x="438" 
d="M419 661v-16l-256 -645h-68l215 540q11 29 26 62h-73h-240v59h396z" />
    <glyph glyph-name="eight" unicode="8" horiz-adv-x="552" 
d="M114.5 43q-60.5 52 -60.5 140q0 64 35.5 110t93.5 60q-49 16 -79 53t-30 94q0 50 25.5 89t71.5 60.5t106 21.5q90 0 145 -47t55 -124q0 -54 -29.5 -92t-75.5 -55q52 -13 89 -60.5t37 -110.5q0 -89 -60.5 -140t-161.5 -51t-161.5 52zM375 415q37 32 37 84q0 50 -37.5 81
t-97.5 31q-61 0 -99.5 -31.5t-38.5 -80.5q0 -54 38 -85t100 -31q61 0 98 32zM388 87.5q43 35.5 43 95.5q0 64 -42.5 101.5t-114.5 37.5q-68 0 -111 -38.5t-43 -100.5q0 -59 44 -95t112 -36q69 0 112 35.5z" />
    <glyph glyph-name="nine" unicode="9" horiz-adv-x="529" 
d="M416 599.5q55 -71.5 55 -183.5q0 -188 -82 -298t-263 -128l-8 58q128 10 199.5 79.5t85.5 190.5q-52 -66 -153 -66q-55 0 -100.5 23.5t-73 70t-27.5 112.5q0 61 26 109.5t73.5 76t108.5 27.5q104 0 159 -71.5zM363.5 349q41.5 39 41.5 110q0 65 -40.5 108t-106.5 43
q-62 0 -102.5 -42t-40.5 -110q0 -71 40.5 -109.5t102.5 -38.5q64 0 105.5 39z" />
    <glyph glyph-name="colon" unicode=":" horiz-adv-x="254" 
d="M93.5 363q-13.5 12 -13.5 35t13.5 34.5t33.5 11.5q19 0 33 -12t14 -34q0 -23 -14 -35t-33 -12q-20 0 -33.5 12zM94 2q-14 12 -14 34q0 23 13.5 35t33.5 12q19 0 33 -12t14 -35q0 -22 -14 -34t-33 -12t-33 12z" />
    <glyph glyph-name="semicolon" unicode=";" horiz-adv-x="255" 
d="M93.5 364q-13.5 12 -13.5 35q0 22 14 34t33 12t33 -12t14 -34q0 -23 -13.5 -35t-33.5 -12t-33.5 12zM161.5 68.5q13.5 -14.5 13.5 -45.5q0 -80 -70 -144l-20 19q24 26 36.5 47t14.5 46q-3 -1 -9 -1q-21 0 -34 12.5t-13 33.5q0 23 13.5 35t33.5 12q21 0 34.5 -14.5z" />
    <glyph glyph-name="less" unicode="&#x3c;" horiz-adv-x="430" 
d="M45 324v52l323 150v-62l-257 -114l257 -114v-62z" />
    <glyph glyph-name="equal" unicode="=" horiz-adv-x="504" 
d="M74 461h356v-55h-356v55zM74 274h356v-55h-356v55z" />
    <glyph glyph-name="greater" unicode="&#x3e;" horiz-adv-x="430" 
d="M62 236l257 114l-257 114v62l323 -150v-52l-323 -150v62z" />
    <glyph glyph-name="question" unicode="?" horiz-adv-x="478" 
d="M172 207q0 48 12 83t29.5 59t47.5 56q6 6 32 33.5t37.5 52t11.5 49.5q0 37 -29 64t-80 27q-43 0 -75.5 -15t-61.5 -47l-40 45q39 40 81.5 58t98.5 18q53 0 92 -21t59 -55t20 -70q0 -34 -12.5 -63t-32.5 -53t-61 -69q-35 -38 -52 -70t-17 -85q0 -18 3 -41h-61q-2 16 -2 44
zM173 2q-14 12 -14 34q0 23 14 35t33 12q20 0 34 -12t14 -35q0 -22 -14 -34t-34 -12q-19 0 -33 12z" />
    <glyph glyph-name="at" unicode="@" horiz-adv-x="841" 
d="M218 -101q-75 43 -118 121t-43 178q0 120 52.5 220t145.5 157.5t209 57.5q86 0 159 -35.5t117 -106.5t44 -173q0 -67 -19.5 -124.5t-57.5 -92.5t-93 -35q-32 0 -53.5 16.5t-28.5 43.5q-19 -31 -56.5 -50.5t-83.5 -19.5q-65 0 -101 42.5t-36 105.5t25.5 115t73.5 82.5
t113 30.5q36 0 64 -8.5t63 -29.5l-19 -212q-3 -33 8.5 -50.5t35.5 -17.5q55 0 84 59.5t29 140.5q0 91 -36.5 151t-97.5 89t-137 29q-99 0 -179.5 -50.5t-126.5 -138.5t-46 -194q0 -88 36 -155t99 -103.5t143 -36.5q72 0 152 32l20 -45q-86 -36 -173 -36q-93 0 -168 43z
M483 137q35 35 44 97l13 132q-19 10 -36 14.5t-42 4.5q-43 0 -78 -24t-54.5 -64.5t-19.5 -88.5q0 -45 23.5 -75.5t64.5 -30.5q50 0 85 35z" />
    <glyph glyph-name="A" unicode="A" horiz-adv-x="682" 
d="M668 2v-2h-69l-72 156h-372l-72 -156h-69v2l316 683h22zM303 478l-120 -262h317l-121 262q-26 60 -38 91q-12 -31 -38 -91z" />
    <glyph glyph-name="B" unicode="B" horiz-adv-x="633" 
d="M548 292q31 -46 31 -103q0 -55 -27 -98t-74 -67t-106 -24h-272v680h254q54 0 98 -22.5t70 -62.5t26 -91q0 -47 -22 -84t-60 -60q51 -22 82 -68zM166 384h186q61 0 96 31.5t35 88.5q0 53 -37.5 84.5t-95.5 31.5h-184v-236zM472.5 96q40.5 36 40.5 97q0 58 -39 94.5
t-100 36.5h-208v-264h203q63 0 103.5 36z" />
    <glyph glyph-name="C" unicode="C" horiz-adv-x="699" 
d="M223.5 35.5q-78.5 47.5 -122.5 128t-44 177.5q0 100 44 180t123 125.5t178 45.5q78 0 139 -27.5t117 -83.5l-39 -40q-43 44 -95 67t-122 23q-81 0 -144.5 -38t-99 -104t-35.5 -148q0 -80 35.5 -147t99 -106t144.5 -39q69 0 126 30t96 83l47 -37q-44 -63 -113 -100
t-156 -37q-100 0 -178.5 47.5z" />
    <glyph glyph-name="D" unicode="D" horiz-adv-x="722" 
d="M100 680h218q101 0 180 -44t123 -121.5t44 -175.5t-43 -175t-121.5 -120.5t-181.5 -43.5h-219v680zM319 60q83 0 147 36.5t99 100t35 142.5t-35 143t-99.5 101t-147.5 37h-152v-560h153z" />
    <glyph glyph-name="E" unicode="E" horiz-adv-x="559" 
d="M515 60v-60h-415v680h406v-60h-340v-242h299v-59h-299v-259h349z" />
    <glyph glyph-name="F" unicode="F" horiz-adv-x="545" 
d="M100 680h409v-60h-343v-259h308v-60h-308v-301h-66v680z" />
    <glyph glyph-name="G" unicode="G" horiz-adv-x="736" 
d="M679 361v-241q-47 -64 -117.5 -98t-155.5 -34q-100 0 -179.5 46t-124.5 126.5t-45 180.5q0 97 42.5 177t121 127t181.5 47q153 0 258 -117l-43 -41q-88 97 -215 97q-84 0 -147 -38t-97.5 -104t-34.5 -148q0 -84 36 -150.5t101.5 -104t150.5 -37.5q63 0 115.5 23t89.5 67
v162h-215v60h278z" />
    <glyph glyph-name="H" unicode="H" horiz-adv-x="744" 
d="M100 680h66v-307h413v307h65v-680h-65v313h-413v-313h-66v680z" />
    <glyph glyph-name="I" unicode="I" horiz-adv-x="266" 
d="M100 680h66v-680h-66v680z" />
    <glyph glyph-name="J" unicode="J" horiz-adv-x="507" 
d="M18 50l33 53q67 -54 153 -54q70 0 107.5 42t37.5 121v468h65v-469q0 -108 -54 -165.5t-156 -57.5t-186 62z" />
    <glyph glyph-name="K" unicode="K" horiz-adv-x="583" 
d="M573 3v-3h-83l-324 321v-321h-66v680h66v-321l307 321h81v-3l-322 -335z" />
    <glyph glyph-name="L" unicode="L" horiz-adv-x="524" 
d="M100 680h66v-620h328v-60h-394v680z" />
    <glyph glyph-name="M" unicode="M" horiz-adv-x="862" 
d="M803 0h-64l-66 469q-6 42 -7 67l-37 -61l-190 -307h-15l-191 309l-35 57q-1 -12 -9 -65l-65 -469h-65l97 686h20l213 -346q25 -40 42 -72q14 27 42 73l214 345h19z" />
    <glyph glyph-name="N" unicode="N" horiz-adv-x="764" 
d="M664 680v-685h-29l-423 498q-15 18 -49 56q3 -31 3 -65v-484h-66v685h28l422 -496l50 -57q-2 25 -2 71v477h66z" />
    <glyph glyph-name="O" unicode="O" horiz-adv-x="803" 
d="M224.5 35.5q-78.5 47.5 -123 128.5t-44.5 177q0 100 44 180t122.5 125.5t177.5 45.5q100 0 178.5 -45.5t122.5 -125.5t44 -180q0 -97 -44 -177.5t-122.5 -128t-178.5 -47.5q-98 0 -176.5 47.5zM546.5 88q63.5 39 98.5 106t35 147q0 83 -35 149t-98.5 103.5t-145.5 37.5
q-81 0 -144.5 -37.5t-98.5 -103.5t-35 -149q0 -80 35.5 -147t98.5 -106t144 -39q82 0 145.5 39z" />
    <glyph glyph-name="P" unicode="P" horiz-adv-x="598" 
d="M100 680h251q67 0 115.5 -30.5t73.5 -78.5t25 -98t-24 -96t-73.5 -75t-120.5 -29h-181v-273h-66v680zM346 333q50 0 84.5 20t51.5 52t17 69q0 39 -18.5 72.5t-52.5 53.5t-78 20h-184v-287h180z" />
    <glyph glyph-name="Q" unicode="Q" horiz-adv-x="803" 
d="M709.5 177.5q-36.5 -75.5 -101.5 -123.5l136 -97l-34 -50l-160 113q-67 -32 -149 -32q-98 0 -176.5 47.5t-123 128.5t-44.5 177q0 100 44 180t122.5 125.5t177.5 45.5q100 0 178.5 -45.5t122.5 -125.5t44 -180q0 -88 -36.5 -163.5zM158.5 194q35.5 -67 98.5 -106t144 -39
q82 0 145.5 39t98.5 106t35 147q0 83 -35 149t-98.5 103.5t-145.5 37.5q-81 0 -144.5 -37.5t-98.5 -103.5t-35 -149q0 -80 35.5 -147z" />
    <glyph glyph-name="R" unicode="R" horiz-adv-x="625" 
d="M587 3v-3h-76l-191 282h-154v-282h-66v680h257q60 0 109.5 -26.5t78.5 -72t29 -101.5q0 -77 -49 -129.5t-132 -65.5zM354 342q71 0 112.5 38t41.5 99q0 39 -19.5 71.5t-53.5 51t-78 18.5h-191v-278h188z" />
    <glyph glyph-name="S" unicode="S" horiz-adv-x="567" 
d="M163 10q-61 22 -106 60l34 52q39 -35 90.5 -54t109.5 -19q67 0 113 34t46 92q0 40 -22 67t-56.5 44.5t-88.5 36.5q-95 33 -151 77.5t-56 121.5q0 52 28.5 90.5t76 59t103.5 20.5q58 0 108 -16t98 -52l-30 -50q-41 29 -83 43t-90 14q-59 0 -101.5 -28t-42.5 -78
q0 -39 22.5 -65t55 -42t86.5 -35q100 -36 154.5 -81t54.5 -124q0 -58 -30 -101t-81 -66t-114 -23q-67 0 -128 22z" />
    <glyph glyph-name="T" unicode="T" horiz-adv-x="530" 
d="M507 620h-209v-620h-66v620h-209v60h484v-60z" />
    <glyph glyph-name="U" unicode="U" horiz-adv-x="704" 
d="M220.5 16.5q-59.5 28.5 -94 83.5t-34.5 133v447h66v-446q0 -91 53 -138.5t142 -47.5q88 0 140.5 47.5t52.5 138.5v446h66v-447q0 -77 -34.5 -132.5t-93.5 -84t-131 -28.5q-73 0 -132.5 28.5z" />
    <glyph glyph-name="V" unicode="V" horiz-adv-x="682" 
d="M668 680v-2l-316 -683h-22l-316 683v2h69l221 -480q28 -61 37 -86q11 29 38 89l218 477h71z" />
    <glyph glyph-name="W" unicode="W" horiz-adv-x="964" 
d="M942 680v-3l-235 -682h-20l-179 441q-11 25 -27 77q-19 -60 -26 -77l-179 -441h-20l-234 682v3h68l150 -445q20 -57 32 -104q17 60 35 103l164 410h19l158 -390q26 -65 44 -124q11 42 37 117l145 433h68z" />
    <glyph glyph-name="X" unicode="X" horiz-adv-x="618" 
d="M20 2l251 351l-230 325v2h76l126 -177q38 -54 67 -101q36 58 67 103l124 175h75v-2l-229 -325l251 -351v-2h-76l-146 207q-47 66 -66 98q-33 -52 -67 -99l-147 -206h-76v2z" />
    <glyph glyph-name="Y" unicode="Y" horiz-adv-x="625" 
d="M602 680v-3l-257 -372v-305h-65v305l-257 372v3h76l155 -226q37 -55 59 -95q23 43 58 95l155 226h76z" />
    <glyph glyph-name="Z" unicode="Z" horiz-adv-x="573" 
d="M44 20l340 534l12 20l31 47q-23 -1 -70 -1h-296v60h462v-20l-342 -539q-33 -51 -41 -62q23 1 63 1h330v-60h-489v20z" />
    <glyph glyph-name="bracketleft" unicode="[" horiz-adv-x="266" 
d="M78 759h153v-53h-95v-840h95v-53h-153v946z" />
    <glyph glyph-name="backslash" unicode="\" horiz-adv-x="395" 
d="M36 690h61l262 -700h-61z" />
    <glyph glyph-name="bracketright" unicode="]" horiz-adv-x="266" 
d="M35 -187v53h95v840h-95v53h153v-946h-153z" />
    <glyph glyph-name="asciicircum" unicode="^" horiz-adv-x="463" 
d="M206 680h46l164 -328h-61l-126 259l-121 -259h-61z" />
    <glyph glyph-name="underscore" unicode="_" horiz-adv-x="497" 
d="M52 -25h392v-50h-392v50z" />
    <glyph glyph-name="grave" unicode="`" horiz-adv-x="252" 
d="M43 638l42 48l131 -113l-31 -36z" />
    <glyph glyph-name="a" unicode="a" horiz-adv-x="479" 
d="M361.5 407.5q45.5 -39.5 45.5 -113.5v-294h-45l-11 80q-25 -41 -67.5 -64.5t-99.5 -23.5q-65 0 -103 33t-38 90q0 73 61 114.5t160 41.5q50 0 81 -4v30q0 46 -30 69.5t-82 23.5q-67 0 -146 -37l-21 52q90 42 173 42q77 0 122.5 -39.5zM302.5 94.5q40.5 45.5 42.5 121.5
q-32 4 -72 4q-79 0 -122.5 -26.5t-43.5 -74.5q0 -33 23 -51.5t64 -18.5q68 0 108.5 45.5z" />
    <glyph glyph-name="b" unicode="b" horiz-adv-x="576" 
d="M422.5 421.5q50.5 -29.5 79 -81.5t28.5 -117q0 -67 -28 -120t-78.5 -83t-115.5 -30q-56 0 -101 23t-73 64l-9 -77h-47v717h61v-230q0 -44 -2 -122q27 41 72 63.5t99 22.5q64 0 114.5 -29.5zM423 96.5q46 48.5 46 124.5t-46 124.5t-119 48.5q-49 0 -87.5 -22.5
t-59.5 -61.5t-21 -89q0 -76 46 -124.5t122 -48.5q73 0 119 48.5z" />
    <glyph glyph-name="c" unicode="c" horiz-adv-x="460" 
d="M158.5 16.5q-50.5 27.5 -81.5 80t-31 125.5q0 71 31 123t82.5 79.5t112.5 27.5q47 0 85.5 -15t72.5 -45l-35 -42q-27 24 -56 34.5t-67 10.5q-46 0 -83.5 -21.5t-59 -61t-21.5 -90.5q0 -52 21.5 -92t58.5 -62t83 -22q43 0 73 13t59 40l34 -44q-36 -34 -75.5 -50t-95.5 -16
q-57 0 -107.5 27.5z" />
    <glyph glyph-name="d" unicode="d" horiz-adv-x="576" 
d="M498 717v-717h-47l-9 79q-28 -42 -72.5 -65.5t-101.5 -23.5q-65 0 -115.5 30t-78.5 83t-28 120q0 65 28.5 117t79 81.5t114.5 29.5q54 0 99 -22.5t72 -61.5q-2 76 -2 120v230h61zM393.5 96.5q45.5 48.5 45.5 124.5t-46.5 124.5t-120.5 48.5q-73 0 -119 -48.5t-46 -124.5
t46 -124.5t119 -48.5q76 0 121.5 48.5z" />
    <glyph glyph-name="e" unicode="e" horiz-adv-x="505" 
d="M412.5 395q52.5 -58 52.5 -156q0 -20 -3 -43h-354q7 -69 54 -109.5t111 -40.5q45 0 76.5 13.5t58.5 40.5l35 -44q-70 -67 -169 -67q-66 0 -118 29.5t-81 82.5t-29 121q0 64 28.5 116.5t79.5 83.5t115 31q91 0 143.5 -58zM163 356q-44 -40 -54 -106h296q-2 69 -39 107.5
t-98 38.5t-105 -40z" />
    <glyph glyph-name="f" unicode="f" horiz-adv-x="328" 
d="M110 388h-92v54h92v127q0 70 36.5 115t106.5 45q34 0 60.5 -9.5t53.5 -29.5l-28 -44q-20 13 -38 19.5t-41 6.5q-41 0 -65 -26.5t-24 -76.5v-127h145v-54h-145v-388h-61v388z" />
    <glyph glyph-name="g" unicode="g" horiz-adv-x="576" 
d="M498 442v-471q0 -65 -29.5 -110.5t-79 -68t-109.5 -22.5q-119 0 -200 79l38 43q67 -65 159 -65q71 0 115.5 37t44.5 108q0 68 1 100q-29 -39 -74.5 -59.5t-95.5 -20.5q-66 0 -116.5 30.5t-78 83t-27.5 115.5q0 64 27 116.5t76.5 83t115.5 30.5q55 0 100 -21t74 -61l14 73
h45zM395 98q44 49 44 123t-43.5 123.5t-123.5 49.5q-76 0 -120 -49t-44 -123q0 -75 44.5 -124t118.5 -49q80 0 124 49z" />
    <glyph glyph-name="h" unicode="h" horiz-adv-x="522" 
d="M410 404q40 -47 40 -134v-270h-61v272q0 58 -25 90t-79 32q-68 0 -107 -50.5t-39 -125.5v-218h-61v717h61v-286q0 -43 -1 -69q21 41 60 65t93 24q79 0 119 -47z" />
    <glyph glyph-name="i" unicode="i" horiz-adv-x="217" 
d="M76 571q-13 13 -13 31q0 20 12.5 33t33.5 13t33.5 -13t12.5 -33q0 -19 -13 -31.5t-33 -12.5t-33 13zM78 442h61v-442h-61v442z" />
    <glyph glyph-name="j" unicode="j" horiz-adv-x="220" 
d="M79.5 571q-12.5 13 -12.5 31q0 20 12.5 33t32.5 13q21 0 33.5 -13t12.5 -34q0 -18 -13 -30.5t-33 -12.5t-32.5 13zM-39 -176q49 4 75 20t36 46t10 80v472h61v-469q0 -69 -15.5 -111.5t-53.5 -65t-105 -26.5z" />
    <glyph glyph-name="k" unicode="k" horiz-adv-x="434" 
d="M424 5v-5h-76l-209 205v-205h-61v717h61v-469l191 194h74v-3l-210 -211z" />
    <glyph glyph-name="l" unicode="l" horiz-adv-x="218" 
d="M78 717h61l1 -717h-61z" />
    <glyph glyph-name="m" unicode="m" horiz-adv-x="800" 
d="M688 404.5q40 -46.5 40 -127.5v-277h-61v280q0 53 -26 83.5t-72 30.5q-43 0 -73.5 -23t-46 -60.5t-15.5 -80.5v-230h-61v281q0 49 -25 81t-73 32q-64 0 -100 -48.5t-36 -115.5v-230h-61v442h46l14 -76q22 41 59 63t85 22q50 0 85.5 -23.5t51.5 -65.5q23 42 61.5 65.5
t92.5 23.5q75 0 115 -46.5z" />
    <glyph glyph-name="n" unicode="n" horiz-adv-x="522" 
d="M410 404q40 -47 40 -134v-270h-61v271q0 123 -102 123q-66 0 -107 -43.5t-41 -112.5v-238h-61v442h46l14 -75q21 37 61 60.5t94 23.5q77 0 117 -47z" />
    <glyph glyph-name="o" unicode="o" horiz-adv-x="550" 
d="M156 18.5q-52 29.5 -81 82.5t-29 120t29 120t81 82.5t118 29.5q67 0 119 -29.5t81.5 -82.5t29.5 -120t-29.5 -120t-81.5 -82.5t-119 -29.5q-66 0 -118 29.5zM395 95q47 49 47 126t-46.5 126t-121.5 49q-48 0 -86 -22.5t-59 -62.5t-21 -90q0 -77 46.5 -126t119.5 -49
q74 0 121 49z" />
    <glyph glyph-name="p" unicode="p" horiz-adv-x="575" 
d="M422 421.5q50 -29.5 78 -81.5t28 -117q0 -67 -28 -120t-78 -83t-113 -30q-54 0 -99 22.5t-73 60.5q2 -68 2 -119v-174h-61v662h46l13 -74q29 39 73.5 61t99.5 22q62 0 112 -29.5zM389 69q37 22 57.5 61.5t20.5 89.5t-20.5 90t-57.5 62t-84 22q-74 0 -121.5 -47.5
t-47.5 -123.5q0 -52 21.5 -92t60 -62t87.5 -22q47 0 84 22z" />
    <glyph glyph-name="q" unicode="q" horiz-adv-x="575" 
d="M497 442v-662h-61v174q0 54 2 124q-27 -41 -72 -64.5t-100 -23.5q-64 0 -114 30t-78 83t-28 120q0 65 28 117t78 81.5t113 29.5q111 0 172 -85l14 76h46zM357 69q38 22 59.5 62t21.5 92q0 76 -47 123.5t-121 47.5q-47 0 -84 -22t-57.5 -62t-20.5 -90t20.5 -89.5
t57.5 -61.5t84 -22q49 0 87 22z" />
    <glyph glyph-name="r" unicode="r" horiz-adv-x="350" 
d="M337 436l-18 -54q-31 11 -59 11q-55 0 -88 -36.5t-33 -100.5v-256h-61v442h46l12 -65q40 74 129 74q39 0 72 -15z" />
    <glyph glyph-name="s" unicode="s" horiz-adv-x="396" 
d="M43 41l31 48q56 -40 130 -40q40 0 64.5 18.5t24.5 48.5q0 29 -26 47.5t-76 38.5q-63 25 -97.5 54.5t-34.5 78.5q0 53 41.5 82.5t101.5 29.5q72 0 134 -40l-27 -44q-50 28 -104 28q-37 0 -61 -13.5t-24 -42.5q0 -27 23.5 -44.5t69.5 -35.5q69 -26 105 -57t36 -82
q0 -55 -42 -89.5t-108 -34.5q-89 0 -161 49z" />
    <glyph glyph-name="t" unicode="t" horiz-adv-x="359" 
d="M139.5 25q-30.5 33 -30.5 100v263l-86 4v50h86v147h61v-147h158v-54h-158v-263q0 -40 15.5 -57.5t46.5 -17.5q45 0 87 30l27 -46q-55 -42 -120 -42q-56 0 -86.5 33z" />
    <glyph glyph-name="u" unicode="u" horiz-adv-x="519" 
d="M441 442v-442h-47l-13 77q-20 -38 -58.5 -61.5t-89.5 -23.5q-80 0 -120.5 48.5t-40.5 132.5v269h61v-270q0 -123 107 -123q64 0 102 50t38 123v220h61z" />
    <glyph glyph-name="v" unicode="v" horiz-adv-x="464" 
d="M449 442v-2l-206 -445h-22l-207 445v2h66l128 -283q15 -33 24 -63q9 30 24 63l127 283h66z" />
    <glyph glyph-name="w" unicode="w" horiz-adv-x="665" 
d="M644 442v-2l-155 -445h-19l-137 306l-139 -306h-18l-155 445v2h62l92 -265q7 -21 17 -56q7 21 22 54l111 243h15l110 -242q13 -26 23 -56q12 41 18 58l91 264h62z" />
    <glyph glyph-name="x" unicode="x" horiz-adv-x="450" 
d="M26 2l164 231l-148 207v2h70l78 -111q17 -23 35 -54q12 21 36 55l79 110h68v-2l-148 -207l164 -231v-2h-70l-91 129q-20 27 -38 59q-25 -41 -39 -60l-92 -128h-68v2z" />
    <glyph glyph-name="y" unicode="y" horiz-adv-x="461" 
d="M447 442v-2l-272 -660h-64v2l98 230l-193 428v2h64l127 -283q21 -47 32 -82q12 36 30 82l115 283h63z" />
    <glyph glyph-name="z" unicode="z" horiz-adv-x="415" 
d="M374 56v-56h-331v19l208 323q13 22 29 45q-24 -1 -54 -1h-172v56h317v-18l-196 -303q-30 -47 -44 -66q29 1 74 1h169z" />
    <glyph glyph-name="braceleft" unicode="{" horiz-adv-x="315" 
d="M171.5 -161q-32.5 32 -32.5 101v224q0 48 -16.5 71.5t-64.5 23.5v54q48 0 64.5 23.5t16.5 71.5v224q0 69 32.5 101t108.5 29v-54q-50 2 -66.5 -14.5t-16.5 -61.5v-230q0 -46 -16.5 -74t-50.5 -42q34 -14 50.5 -42t16.5 -74v-230q0 -45 16.5 -61.5t66.5 -14.5v-54
q-76 -3 -108.5 29z" />
    <glyph glyph-name="bar" unicode="|" horiz-adv-x="231" 
d="M86 739h60v-905h-60v905z" />
    <glyph glyph-name="braceright" unicode="}" horiz-adv-x="315" 
d="M35 -136q50 -2 67 14.5t17 61.5v230q0 46 16 74.5t50 41.5q-34 13 -50 41.5t-16 74.5v230q0 45 -17 61.5t-67 14.5v54q76 3 108.5 -29t32.5 -101v-224q0 -48 16.5 -71.5t64.5 -23.5v-54q-48 0 -64.5 -23.5t-16.5 -71.5v-224q0 -69 -32.5 -101t-108.5 -29v54z" />
    <glyph glyph-name="asciitilde" unicode="~" horiz-adv-x="571" 
d="M74 313q19 43 47.5 66.5t73.5 23.5q27 0 50.5 -9.5t50.5 -26.5q30 -20 48 -29t37 -9q45 0 68 67l48 -25q-17 -45 -44 -70.5t-72 -25.5q-26 0 -49 9.5t-49 26.5q-33 20 -50.5 28t-37.5 8q-30 0 -47 -15t-29 -46z" />
    <glyph glyph-name="uni00A0" unicode="&#xa0;" horiz-adv-x="228" 
 />
    <glyph glyph-name="exclamdown" unicode="&#xa1;" horiz-adv-x="259" 
d="M163 398q14 -12 14 -34q0 -23 -14 -35t-34 -12q-19 0 -33 12t-14 35q0 22 14 34t33 12q20 0 34 -12zM159 238l7 -518h-72l6 518h59z" />
    <glyph glyph-name="cent" unicode="&#xa2;" horiz-adv-x="468" 
d="M289 76v-82h-52v83q-53 6 -95 35t-66 77.5t-24 110.5q0 63 24 112t66 78.5t95 35.5v84h52v-83q80 -9 132 -72l-41 -38q-44 55 -115 55q-42 0 -76.5 -21t-54.5 -60t-20 -91q0 -75 42.5 -121.5t108.5 -46.5q40 0 69.5 14.5t56.5 44.5l39 -40q-54 -66 -141 -75z" />
    <glyph glyph-name="sterling" unicode="&#xa3;" horiz-adv-x="483" 
d="M451 60v-60h-400l-12 29q62 59 98 125t36 122q0 8 -1 12h-108v56h91l-20 37q-22 36 -33.5 65t-11.5 66q0 45 23.5 81.5t64 56.5t89.5 20q93 0 161 -61l-37 -43q-50 44 -118 44q-51 0 -84.5 -28t-33.5 -73q0 -25 9 -47.5t28 -56.5q24 -41 31 -61h150v-56h-138q1 -5 1 -14
q0 -54 -26 -110t-69 -104h310z" />
    <glyph glyph-name="currency" unicode="&#xa4;" horiz-adv-x="528" 
d="M53 171l63 64q-34 48 -34 115t34 115l-63 64l32 33l63 -63q48 40 116 40t116 -40l63 63l32 -33l-63 -64q35 -49 35 -115t-35 -115l63 -64l-32 -33l-63 63q-49 -41 -116 -41t-116 41l-63 -63zM356 251q35 39 35 99t-35 99t-92 39t-92 -38.5t-35 -99.5t35 -99.5t92 -38.5
t92 39z" />
    <glyph glyph-name="yen" unicode="&#xa5;" horiz-adv-x="597" 
d="M265 172h-162v53h162v64h-162v54h137l-219 318h73l204 -304l205 304h73l-220 -318h138v-54h-163v-64h163v-53h-163v-172h-66v172z" />
    <glyph glyph-name="brokenbar" unicode="&#xa6;" horiz-adv-x="231" 
d="M86 739h60v-386h-60v386zM86 238h60v-404h-60v404z" />
    <glyph glyph-name="section" unicode="&#xa7;" horiz-adv-x="528" 
d="M160 -33q-47 17 -84 49l34 46q62 -57 150 -57q118 0 118 90q0 39 -31 62t-92 46q-63 24 -98 40.5t-62.5 45.5t-27.5 71q0 34 18 62t50 44q-40 36 -40 90q0 65 48 99.5t120 34.5q86 0 157 -47l-27 -44q-56 38 -128 38q-51 0 -82 -20.5t-31 -59.5q0 -35 31.5 -57t90.5 -45
q82 -32 134 -68t52 -93q0 -31 -16 -58.5t-45 -47.5q38 -38 38 -91q0 -71 -48.5 -109t-129.5 -38q-52 0 -99 17zM392 246.5q11 18.5 11 39.5q0 29 -23 51t-50 34t-76 31q-54 22 -79 35q-22 -13 -36.5 -31.5t-14.5 -39.5q0 -27 24 -48t49.5 -32t77.5 -30q54 -20 87 -40
q19 12 30 30.5z" />
    <glyph glyph-name="dieresis" unicode="&#xa8;" horiz-adv-x="382" 
d="M75 573.5q-12 12.5 -12 29.5q0 18 11.5 31.5t32.5 13.5q20 0 32 -13t12 -30t-12 -30.5t-32 -13.5t-32 12.5zM247.5 574q-11.5 13 -11.5 30t11.5 30.5t31.5 13.5t32 -13.5t12 -30.5t-12 -30t-32 -13t-31.5 13z" />
    <glyph glyph-name="copyright" unicode="&#xa9;" horiz-adv-x="790" 
d="M218.5 42.5q-76.5 45.5 -119 124t-42.5 173.5t42 173.5t119 123.5t177 45t177 -45t119 -123.5t42 -173.5t-42.5 -173.5t-119 -124t-176.5 -45.5t-176.5 45.5zM545 88q65 38 100 104t35 148t-35 148t-100 103.5t-150 37.5q-84 0 -149 -37.5t-100.5 -103.5t-35.5 -148
t35.5 -148t100.5 -104t149 -38q85 0 150 38zM322 177.5q-41 20.5 -66.5 62t-25.5 100.5q0 56 24 97.5t64.5 63t88.5 21.5q38 0 68 -12.5t55 -38.5l-28 -33q-21 19 -44 28t-52 9q-55 0 -90 -37.5t-35 -97.5q0 -61 36 -98t92 -37q58 0 100 44l28 -35q-53 -57 -128 -57
q-46 0 -87 20.5z" />
    <glyph glyph-name="ordfeminine" unicode="&#xaa;" horiz-adv-x="314" 
d="M74.5 468.5q-20.5 19.5 -20.5 52.5q0 40 35.5 61.5t85.5 21.5q17 0 33 -3v24q0 22 -13.5 33t-38.5 11q-39 0 -74 -20l-17 36q45 25 92 25q42 0 67.5 -21t25.5 -64v-170h-31l-8 37q-9 -17 -31 -30t-51 -13q-34 0 -54.5 19.5zM188 508.5q20 22.5 20 57.5q-14 3 -30 3
q-33 0 -57 -12t-24 -36q0 -35 41 -35q30 0 50 22.5zM57 390h193v-40h-193v40z" />
    <glyph glyph-name="guillemotleft" unicode="&#xab;" horiz-adv-x="399" 
d="M36 245l119 188l45 -26l-93 -162l95 -168l-45 -26zM180 245l119 188l45 -26l-93 -162l95 -168l-45 -26z" />
    <glyph glyph-name="logicalnot" unicode="&#xac;" horiz-adv-x="543" 
d="M418 341h-350v54h405v-199h-55v145z" />
    <glyph glyph-name="registered" unicode="&#xae;" horiz-adv-x="556" 
d="M165.5 266.5q-50.5 29.5 -79.5 81t-29 115.5q0 63 29 114t79.5 80.5t112.5 29.5t112.5 -29.5t79.5 -80.5t29 -114q0 -64 -29 -115.5t-79.5 -81t-112.5 -29.5t-112.5 29.5zM369 303q41 24 64.5 66t23.5 94q0 51 -23.5 92.5t-64.5 65t-91 23.5t-90.5 -23.5t-64 -65
t-23.5 -92.5q0 -52 23.5 -94t64 -66t90.5 -24t91 24zM204 573h92q30 0 49.5 -18t19.5 -46q0 -26 -16.5 -43t-41.5 -20l64 -90h-39l-62 90h-34v-90h-32v217zM293 475q18 0 29 9.5t11 24.5t-11 25t-29 10h-57v-69h57z" />
    <glyph glyph-name="macron" unicode="&#xaf;" horiz-adv-x="379" 
d="M63 613h257v-53h-257v53z" />
    <glyph glyph-name="degree" unicode="&#xb0;" horiz-adv-x="360" 
d="M83.5 461.5q-39.5 34.5 -39.5 96.5t39.5 96.5t96.5 34.5t96.5 -34.5t39.5 -96.5t-39.5 -96.5t-96.5 -34.5t-96.5 34.5zM238.5 495.5q23.5 22.5 23.5 62.5t-23.5 62.5t-58.5 22.5t-58.5 -22.5t-23.5 -62.5t23.5 -62.5t58.5 -22.5t58.5 22.5z" />
    <glyph glyph-name="plusminus" unicode="&#xb1;" horiz-adv-x="488" 
d="M216 389h-144v55h144v144h57v-144h143v-55h-143v-145h-57v145zM72 163h344v-54h-344v54z" />
    <glyph glyph-name="acute" unicode="&#xb4;" horiz-adv-x="267" 
d="M49 573l132 113l40 -47l-141 -102z" />
    <glyph glyph-name="uni00B5" unicode="&#xb5;" horiz-adv-x="526" 
d="M448 442v-442h-51l-9 81q-21 -39 -56.5 -62.5t-85.5 -23.5q-78 0 -112 53q4 -76 4 -179v-83h-60v656h61v-242q0 -148 110 -148q65 0 101.5 51t36.5 122v217h61z" />
    <glyph glyph-name="paragraph" unicode="&#xb6;" horiz-adv-x="600" 
d="M230 312q-85 1 -135.5 52t-50.5 132q0 82 50.5 133t135.5 51h270v-771h-60v717h-150v-717h-60v403z" />
    <glyph glyph-name="periodcentered" unicode="&#xb7;" horiz-adv-x="254" 
d="M93.5 315.5q-13.5 11.5 -13.5 34.5t13.5 34.5t33.5 11.5q19 0 33 -12t14 -34t-14 -34t-33 -12q-20 0 -33.5 11.5z" />
    <glyph glyph-name="cedilla" unicode="&#xb8;" horiz-adv-x="290" 
d="M47 -185l21 39q32 -21 72 -21q25 0 40 9.5t15 28.5q0 25 -29.5 36t-71.5 10l35 80h49l-22 -51q41 -4 65.5 -24t24.5 -54q0 -37 -28 -58t-73 -21q-55 0 -98 26z" />
    <glyph glyph-name="ordmasculine" unicode="&#xba;" horiz-adv-x="324" 
d="M81.5 489q-27.5 38 -27.5 92q0 53 27.5 91t80.5 38q54 0 81 -38t27 -91q0 -54 -27 -92t-81 -38q-53 0 -80.5 38zM209.5 520q16.5 27 16.5 61q0 35 -16.5 61.5t-47.5 26.5q-32 0 -47.5 -27t-15.5 -61q0 -35 15.5 -61.5t47.5 -26.5q31 0 47.5 27zM68 390h192v-40h-192v40z
" />
    <glyph glyph-name="guillemotright" unicode="&#xbb;" horiz-adv-x="399" 
d="M52 77l96 168l-94 162l45 26l119 -188l-121 -194zM196 77l96 168l-94 162l45 26l119 -188l-121 -194z" />
    <glyph glyph-name="onequarter" unicode="&#xbc;" horiz-adv-x="630" 
d="M104 598l-43 -41l-29 29l104 99h10v-288h-42v201zM441 680h49l-352 -680h-50zM495 52h-140v9l173 227h10v-198h38v-38h-38v-52h-43v52zM496 90v95l-71 -95h71z" />
    <glyph glyph-name="onehalf" unicode="&#xbd;" horiz-adv-x="649" 
d="M104 598l-43 -41l-29 29l104 99h10v-288h-42v201zM441 680h49l-352 -680h-50zM604 40v-40h-188v9l109 145q15 20 20 32.5t5 25.5q0 19 -10.5 30t-30.5 11q-30 0 -50 -38l-35 16q10 29 32.5 45.5t53.5 16.5q37 0 60.5 -23t23.5 -58q0 -20 -6.5 -39t-25.5 -44l-68 -89h110z
" />
    <glyph glyph-name="threequarters" unicode="&#xbe;" horiz-adv-x="714" 
d="M50 423l26 29q12 -12 28.5 -18.5t34.5 -6.5q27 0 43 14t16 38t-16.5 35.5t-41.5 11.5h-35v39h30q22 0 36 11t14 32q0 19 -13 30t-31 11q-32 0 -51 -19l-29 28q33 32 83 32q33 0 58.5 -21t25.5 -55q0 -22 -10 -39t-29 -27q23 -6 38 -26t15 -45q0 -41 -28 -65.5t-74 -24.5
q-58 0 -90 36zM525 680h49l-352 -680h-50zM579 52h-140v9l173 227h10v-198h38v-38h-38v-52h-43v52zM580 90v95l-71 -95h71z" />
    <glyph glyph-name="questiondown" unicode="&#xbf;" horiz-adv-x="421" 
d="M281 398q14 -12 14 -34q0 -23 -14 -35t-33 -12q-20 0 -34 12t-14 35q0 22 14 34t34 12q19 0 33 -12zM282 193q0 -48 -12 -83t-29.5 -59t-47.5 -56q-6 -6 -32 -33.5t-37.5 -52t-11.5 -49.5q0 -37 29 -64t80 -27q43 0 75.5 15t61.5 47l40 -45q-39 -40 -81.5 -58t-98.5 -18
q-53 0 -92 21t-59 55t-20 70q0 34 12.5 63t32.5 53t61 69q35 38 52 70t17 85q0 19 -3 41h61q2 -16 2 -44z" />
    <glyph glyph-name="Agrave" unicode="&#xc0;" horiz-adv-x="682" 
d="M668 2v-2h-69l-72 156h-372l-72 -156h-69v2l316 683h22zM303 478l-120 -262h317l-121 262q-26 60 -38 91q-12 -31 -38 -91zM234 863l42 48l131 -113l-31 -35z" />
    <glyph glyph-name="Aacute" unicode="&#xc1;" horiz-adv-x="682" 
d="M668 2v-2h-69l-72 156h-372l-72 -156h-69v2l316 683h22zM303 478l-120 -262h317l-121 262q-26 60 -38 91q-12 -31 -38 -91zM256 798l132 113l40 -47l-141 -101z" />
    <glyph glyph-name="Acircumflex" unicode="&#xc2;" horiz-adv-x="682" 
d="M668 2v-2h-69l-72 156h-372l-72 -156h-69v2l316 683h22zM303 478l-120 -262h317l-121 262q-26 60 -38 91q-12 -31 -38 -91zM203 787l130 102h14l129 -103l-26 -34l-109 76l-111 -76z" />
    <glyph glyph-name="Atilde" unicode="&#xc3;" horiz-adv-x="682" 
d="M668 2v-2h-69l-72 156h-372l-72 -156h-69v2l316 683h22zM303 478l-120 -262h317l-121 262q-26 60 -38 91q-12 -31 -38 -91zM204 802q27 70 78 70q28 0 70 -21q13 -7 24.5 -11.5t19.5 -4.5q24 0 38 35l43 -24q-27 -68 -77 -68q-28 0 -63 19q-32 17 -49 17q-14 0 -24 -8.5
t-17 -28.5z" />
    <glyph glyph-name="Adieresis" unicode="&#xc4;" horiz-adv-x="682" 
d="M668 2v-2h-69l-72 156h-372l-72 -156h-69v2l316 683h22zM303 478l-120 -262h317l-121 262q-26 60 -38 91q-12 -31 -38 -91zM212.5 795q-12.5 13 -12.5 31t12 32t33 14t33.5 -13.5t12.5 -30.5q0 -18 -12.5 -32t-33.5 -14q-20 0 -32.5 13zM402.5 795.5
q-12.5 13.5 -12.5 31.5q0 17 12.5 31t33.5 14t33 -14t12 -31q0 -18 -12 -31.5t-33 -13.5t-33.5 13.5z" />
    <glyph glyph-name="Aring" unicode="&#xc5;" horiz-adv-x="682" 
d="M668 2v-2h-69l-72 156h-372l-72 -156h-69v2l316 683h22zM303 478l-120 -262h317l-121 262q-26 60 -38 91q-12 -31 -38 -91zM266.5 755q-31.5 26 -31.5 72t30.5 72t73.5 26t74.5 -26t31.5 -72q0 -45 -31 -71.5t-73 -26.5q-43 0 -74.5 26zM382 784.5q17 15.5 17 42.5
q0 28 -17.5 43.5t-42.5 15.5q-24 0 -41 -16t-17 -43t17.5 -42.5t41.5 -15.5q25 0 42 15.5z" />
    <glyph glyph-name="AE" unicode="&#xc6;" horiz-adv-x="859" 
d="M815 60v-60h-373v157h-264l-102 -157h-72v3l441 677h360v-60h-300v-240h264v-59h-264v-261h310zM442 216v251v101q-9 -17 -38 -63l-187 -289h225z" />
    <glyph glyph-name="Ccedilla" unicode="&#xc7;" horiz-adv-x="699" 
d="M571 32q-60 -36 -136 -43l-18 -41q41 -4 66.5 -24.5t25.5 -55.5q0 -38 -29 -60t-75 -22q-61 0 -101 27l21 41q32 -22 75 -22q26 0 41 9.5t15 28.5q0 27 -30.5 38t-73.5 9l31 71q-95 5 -169.5 53t-115.5 127t-41 173q0 100 44 180t123 125.5t178 45.5q78 0 139 -27.5
t117 -83.5l-39 -40q-43 44 -95 67t-122 23q-81 0 -144.5 -38t-99 -104t-35.5 -148q0 -80 35.5 -147t99 -106t144.5 -39q69 0 126 30t96 83l47 -37q-40 -57 -100 -93z" />
    <glyph glyph-name="Egrave" unicode="&#xc8;" horiz-adv-x="559" 
d="M515 60v-60h-415v680h406v-60h-340v-242h299v-59h-299v-259h349zM198 863l42 48l131 -113l-31 -35z" />
    <glyph glyph-name="Eacute" unicode="&#xc9;" horiz-adv-x="559" 
d="M515 60v-60h-415v680h406v-60h-340v-242h299v-59h-299v-259h349zM220 798l132 113l40 -47l-141 -101z" />
    <glyph glyph-name="Ecircumflex" unicode="&#xca;" horiz-adv-x="559" 
d="M515 60v-60h-415v680h406v-60h-340v-242h299v-59h-299v-259h349zM167 787l130 102h14l129 -103l-26 -34l-109 76l-111 -76z" />
    <glyph glyph-name="Edieresis" unicode="&#xcb;" horiz-adv-x="559" 
d="M515 60v-60h-415v680h406v-60h-340v-242h299v-59h-299v-259h349zM176.5 795q-12.5 13 -12.5 31t12 32t33 14t33.5 -13.5t12.5 -30.5q0 -18 -12.5 -32t-33.5 -14q-20 0 -32.5 13zM366.5 795.5q-12.5 13.5 -12.5 31.5q0 17 12.5 31t33.5 14t33 -14t12 -31q0 -18 -12 -31.5
t-33 -13.5t-33.5 13.5z" />
    <glyph glyph-name="Igrave" unicode="&#xcc;" horiz-adv-x="266" 
d="M100 680h66v-680h-66v680zM26 863l42 48l131 -113l-31 -35z" />
    <glyph glyph-name="Iacute" unicode="&#xcd;" horiz-adv-x="266" 
d="M100 680h66v-680h-66v680zM48 798l132 113l40 -47l-141 -101z" />
    <glyph glyph-name="Icircumflex" unicode="&#xce;" horiz-adv-x="266" 
d="M100 680h66v-680h-66v680zM-5 787l130 102h14l129 -103l-26 -34l-109 76l-111 -76z" />
    <glyph glyph-name="Idieresis" unicode="&#xcf;" horiz-adv-x="266" 
d="M100 680h66v-680h-66v680zM4.5 795q-12.5 13 -12.5 31t12 32t33 14t33.5 -13.5t12.5 -30.5q0 -18 -12.5 -32t-33.5 -14q-20 0 -32.5 13zM194.5 795.5q-12.5 13.5 -12.5 31.5q0 17 12.5 31t33.5 14t33 -14t12 -31q0 -18 -12 -31.5t-33 -13.5t-33.5 13.5z" />
    <glyph glyph-name="Eth" unicode="&#xd0;" horiz-adv-x="725" 
d="M501 636q79 -44 123 -121.5t44 -175.5t-43 -175t-121.5 -120.5t-181.5 -43.5h-220v324h-75v49h75v307h219q101 0 180 -44zM468.5 96.5q63.5 36.5 98.5 100t35 142.5t-35 143t-99 101t-147 37h-153v-247h187v-49h-187v-264h154q83 0 146.5 36.5z" />
    <glyph glyph-name="Ntilde" unicode="&#xd1;" horiz-adv-x="764" 
d="M664 680v-685h-29l-423 498q-15 18 -49 56q3 -31 3 -65v-484h-66v685h28l422 -496l50 -57q-2 25 -2 71v477h66zM247 802q27 70 78 70q28 0 70 -21q13 -7 24.5 -11.5t19.5 -4.5q24 0 38 35l43 -24q-27 -68 -77 -68q-28 0 -63 19q-32 17 -49 17q-14 0 -24 -8.5t-17 -28.5z
" />
    <glyph glyph-name="Ograve" unicode="&#xd2;" horiz-adv-x="803" 
d="M224.5 35.5q-78.5 47.5 -123 128.5t-44.5 177q0 100 44 180t122.5 125.5t177.5 45.5q100 0 178.5 -45.5t122.5 -125.5t44 -180q0 -97 -44 -177.5t-122.5 -128t-178.5 -47.5q-98 0 -176.5 47.5zM546.5 88q63.5 39 98.5 106t35 147q0 83 -35 149t-98.5 103.5t-145.5 37.5
q-81 0 -144.5 -37.5t-98.5 -103.5t-35 -149q0 -80 35.5 -147t98.5 -106t144 -39q82 0 145.5 39zM295 863l42 48l131 -113l-31 -35z" />
    <glyph glyph-name="Oacute" unicode="&#xd3;" horiz-adv-x="803" 
d="M224.5 35.5q-78.5 47.5 -123 128.5t-44.5 177q0 100 44 180t122.5 125.5t177.5 45.5q100 0 178.5 -45.5t122.5 -125.5t44 -180q0 -97 -44 -177.5t-122.5 -128t-178.5 -47.5q-98 0 -176.5 47.5zM546.5 88q63.5 39 98.5 106t35 147q0 83 -35 149t-98.5 103.5t-145.5 37.5
q-81 0 -144.5 -37.5t-98.5 -103.5t-35 -149q0 -80 35.5 -147t98.5 -106t144 -39q82 0 145.5 39zM316 798l132 113l40 -47l-141 -101z" />
    <glyph glyph-name="Ocircumflex" unicode="&#xd4;" horiz-adv-x="803" 
d="M224.5 35.5q-78.5 47.5 -123 128.5t-44.5 177q0 100 44 180t122.5 125.5t177.5 45.5q100 0 178.5 -45.5t122.5 -125.5t44 -180q0 -97 -44 -177.5t-122.5 -128t-178.5 -47.5q-98 0 -176.5 47.5zM546.5 88q63.5 39 98.5 106t35 147q0 83 -35 149t-98.5 103.5t-145.5 37.5
q-81 0 -144.5 -37.5t-98.5 -103.5t-35 -149q0 -80 35.5 -147t98.5 -106t144 -39q82 0 145.5 39zM264 787l130 102h14l129 -103l-26 -34l-109 76l-111 -76z" />
    <glyph glyph-name="Otilde" unicode="&#xd5;" horiz-adv-x="803" 
d="M224.5 35.5q-78.5 47.5 -123 128.5t-44.5 177q0 100 44 180t122.5 125.5t177.5 45.5q100 0 178.5 -45.5t122.5 -125.5t44 -180q0 -97 -44 -177.5t-122.5 -128t-178.5 -47.5q-98 0 -176.5 47.5zM546.5 88q63.5 39 98.5 106t35 147q0 83 -35 149t-98.5 103.5t-145.5 37.5
q-81 0 -144.5 -37.5t-98.5 -103.5t-35 -149q0 -80 35.5 -147t98.5 -106t144 -39q82 0 145.5 39zM264 802q27 70 78 70q28 0 70 -21q13 -7 24.5 -11.5t19.5 -4.5q24 0 38 35l43 -24q-27 -68 -77 -68q-28 0 -63 19q-32 17 -49 17q-14 0 -24 -8.5t-17 -28.5z" />
    <glyph glyph-name="Odieresis" unicode="&#xd6;" horiz-adv-x="803" 
d="M224.5 35.5q-78.5 47.5 -123 128.5t-44.5 177q0 100 44 180t122.5 125.5t177.5 45.5q100 0 178.5 -45.5t122.5 -125.5t44 -180q0 -97 -44 -177.5t-122.5 -128t-178.5 -47.5q-98 0 -176.5 47.5zM546.5 88q63.5 39 98.5 106t35 147q0 83 -35 149t-98.5 103.5t-145.5 37.5
q-81 0 -144.5 -37.5t-98.5 -103.5t-35 -149q0 -80 35.5 -147t98.5 -106t144 -39q82 0 145.5 39zM272.5 795q-12.5 13 -12.5 31t12 32t33 14t33.5 -13.5t12.5 -30.5q0 -18 -12.5 -32t-33.5 -14q-20 0 -32.5 13zM462.5 795.5q-12.5 13.5 -12.5 31.5q0 17 12.5 31t33.5 14
t33 -14t12 -31q0 -18 -12 -31.5t-33 -13.5t-33.5 13.5z" />
    <glyph glyph-name="multiply" unicode="&#xd7;" horiz-adv-x="496" 
d="M84 216l125 124l-125 124l39 39l125 -125l126 125l38 -38l-125 -125l125 -125l-38 -38l-126 125l-125 -125z" />
    <glyph glyph-name="Oslash" unicode="&#xd8;" horiz-adv-x="803" 
d="M714 497q32 -71 32 -156q0 -97 -44 -177.5t-122.5 -128t-178.5 -47.5q-99 0 -180 49l-58 -83l-42 29l59 84q-58 49 -90.5 120.5t-32.5 153.5q0 100 44 180t122.5 125.5t177.5 45.5q101 0 182 -47l67 97l42 -28l-68 -98q58 -48 90 -119zM147.5 216.5
q24.5 -57.5 68.5 -97.5l331 474q-65 38 -146 38t-144.5 -37.5t-98.5 -103.5t-35 -149q0 -67 24.5 -124.5zM546.5 88q63.5 39 98.5 106t35 147q0 69 -24 126.5t-69 96.5l-331 -475q63 -40 145 -40t145.5 39z" />
    <glyph glyph-name="Ugrave" unicode="&#xd9;" horiz-adv-x="704" 
d="M220.5 16.5q-59.5 28.5 -94 83.5t-34.5 133v447h66v-446q0 -91 53 -138.5t142 -47.5q88 0 140.5 47.5t52.5 138.5v446h66v-447q0 -77 -34.5 -132.5t-93.5 -84t-131 -28.5q-73 0 -132.5 28.5zM247 863l42 48l131 -113l-31 -35z" />
    <glyph glyph-name="Uacute" unicode="&#xda;" horiz-adv-x="704" 
d="M220.5 16.5q-59.5 28.5 -94 83.5t-34.5 133v447h66v-446q0 -91 53 -138.5t142 -47.5q88 0 140.5 47.5t52.5 138.5v446h66v-447q0 -77 -34.5 -132.5t-93.5 -84t-131 -28.5q-73 0 -132.5 28.5zM269 798l132 113l40 -47l-141 -101z" />
    <glyph glyph-name="Ucircumflex" unicode="&#xdb;" horiz-adv-x="704" 
d="M220.5 16.5q-59.5 28.5 -94 83.5t-34.5 133v447h66v-446q0 -91 53 -138.5t142 -47.5q88 0 140.5 47.5t52.5 138.5v446h66v-447q0 -77 -34.5 -132.5t-93.5 -84t-131 -28.5q-73 0 -132.5 28.5zM216 787l130 102h14l129 -103l-26 -34l-109 76l-111 -76z" />
    <glyph glyph-name="Udieresis" unicode="&#xdc;" horiz-adv-x="704" 
d="M220.5 16.5q-59.5 28.5 -94 83.5t-34.5 133v447h66v-446q0 -91 53 -138.5t142 -47.5q88 0 140.5 47.5t52.5 138.5v446h66v-447q0 -77 -34.5 -132.5t-93.5 -84t-131 -28.5q-73 0 -132.5 28.5zM225.5 795q-12.5 13 -12.5 31t12 32t33 14t33.5 -13.5t12.5 -30.5
q0 -18 -12.5 -32t-33.5 -14q-20 0 -32.5 13zM415.5 795.5q-12.5 13.5 -12.5 31.5q0 17 12.5 31t33.5 14t33 -14t12 -31q0 -18 -12 -31.5t-33 -13.5t-33.5 13.5z" />
    <glyph glyph-name="Yacute" unicode="&#xdd;" horiz-adv-x="625" 
d="M602 680v-3l-257 -372v-305h-65v305l-257 372v3h76l155 -226q37 -55 59 -95q23 43 58 95l155 226h76zM227 798l132 113l40 -47l-141 -101z" />
    <glyph glyph-name="Thorn" unicode="&#xde;" horiz-adv-x="591" 
d="M100 680h66v-124h177q67 0 115.5 -30.5t73.5 -78.5t25 -100t-24.5 -98.5t-73.5 -75.5t-120 -29h-173v-144h-66v680zM338 205q74 0 113.5 41.5t40.5 101.5q0 41 -18.5 74.5t-53 53.5t-78.5 20h-176v-291h172z" />
    <glyph glyph-name="germandbls" unicode="&#xdf;" horiz-adv-x="509" 
d="M207 12l13 54q36 -17 78 -17q52 0 86.5 23t34.5 62q0 28 -15.5 47t-47.5 44q-38 31 -57.5 56.5t-19.5 66.5q0 37 12 60.5t35 49.5q23 27 34.5 49.5t11.5 58.5q0 48 -29 75t-80 27q-62 0 -93 -42.5t-31 -118.5v-507h-61v509q0 105 47.5 160.5t136.5 55.5q78 0 125 -44.5
t47 -114.5q0 -48 -14.5 -77t-40.5 -58q-20 -23 -29.5 -40t-9.5 -41q0 -25 14.5 -42.5t45.5 -42.5q40 -31 60 -57.5t20 -70.5q0 -67 -51 -105t-127 -38q-48 0 -95 18z" />
    <glyph glyph-name="agrave" unicode="&#xe0;" horiz-adv-x="479" 
d="M361.5 407.5q45.5 -39.5 45.5 -113.5v-294h-45l-11 80q-25 -41 -67.5 -64.5t-99.5 -23.5q-65 0 -103 33t-38 90q0 73 61 114.5t160 41.5q50 0 81 -4v30q0 46 -30 69.5t-82 23.5q-67 0 -146 -37l-21 52q90 42 173 42q77 0 122.5 -39.5zM302.5 94.5q40.5 45.5 42.5 121.5
q-32 4 -72 4q-79 0 -122.5 -26.5t-43.5 -74.5q0 -33 23 -51.5t64 -18.5q68 0 108.5 45.5zM137 638l42 48l131 -113l-31 -36z" />
    <glyph glyph-name="aacute" unicode="&#xe1;" horiz-adv-x="479" 
d="M361.5 407.5q45.5 -39.5 45.5 -113.5v-294h-45l-11 80q-25 -41 -67.5 -64.5t-99.5 -23.5q-65 0 -103 33t-38 90q0 73 61 114.5t160 41.5q50 0 81 -4v30q0 46 -30 69.5t-82 23.5q-67 0 -146 -37l-21 52q90 42 173 42q77 0 122.5 -39.5zM302.5 94.5q40.5 45.5 42.5 121.5
q-32 4 -72 4q-79 0 -122.5 -26.5t-43.5 -74.5q0 -33 23 -51.5t64 -18.5q68 0 108.5 45.5zM149 573l132 113l40 -47l-141 -102z" />
    <glyph glyph-name="acircumflex" unicode="&#xe2;" horiz-adv-x="479" 
d="M361.5 407.5q45.5 -39.5 45.5 -113.5v-294h-45l-11 80q-25 -41 -67.5 -64.5t-99.5 -23.5q-65 0 -103 33t-38 90q0 73 61 114.5t160 41.5q50 0 81 -4v30q0 46 -30 69.5t-82 23.5q-67 0 -146 -37l-21 52q90 42 173 42q77 0 122.5 -39.5zM302.5 94.5q40.5 45.5 42.5 121.5
q-32 4 -72 4q-79 0 -122.5 -26.5t-43.5 -74.5q0 -33 23 -51.5t64 -18.5q68 0 108.5 45.5zM108 559l118 102h14l116 -103l-26 -34l-96 76l-98 -76z" />
    <glyph glyph-name="atilde" unicode="&#xe3;" horiz-adv-x="479" 
d="M361.5 407.5q45.5 -39.5 45.5 -113.5v-294h-45l-11 80q-25 -41 -67.5 -64.5t-99.5 -23.5q-65 0 -103 33t-38 90q0 73 61 114.5t160 41.5q50 0 81 -4v30q0 46 -30 69.5t-82 23.5q-67 0 -146 -37l-21 52q90 42 173 42q77 0 122.5 -39.5zM302.5 94.5q40.5 45.5 42.5 121.5
q-32 4 -72 4q-79 0 -122.5 -26.5t-43.5 -74.5q0 -33 23 -51.5t64 -18.5q68 0 108.5 45.5zM102 577q27 69 75 69q30 0 66 -21q30 -16 43 -16q23 0 36 35l43 -24q-26 -66 -75 -66q-26 0 -59 18q-34 18 -48 18q-25 0 -38 -37z" />
    <glyph glyph-name="adieresis" unicode="&#xe4;" horiz-adv-x="479" 
d="M361.5 407.5q45.5 -39.5 45.5 -113.5v-294h-45l-11 80q-25 -41 -67.5 -64.5t-99.5 -23.5q-65 0 -103 33t-38 90q0 73 61 114.5t160 41.5q50 0 81 -4v30q0 46 -30 69.5t-82 23.5q-67 0 -146 -37l-21 52q90 42 173 42q77 0 122.5 -39.5zM302.5 94.5q40.5 45.5 42.5 121.5
q-32 4 -72 4q-79 0 -122.5 -26.5t-43.5 -74.5q0 -33 23 -51.5t64 -18.5q68 0 108.5 45.5zM115 573.5q-12 12.5 -12 29.5q0 18 11.5 31.5t32.5 13.5q20 0 32 -13t12 -30t-12 -30.5t-32 -13.5t-32 12.5zM287.5 574q-11.5 13 -11.5 30t11.5 30.5t31.5 13.5t32 -13.5t12 -30.5
t-12 -30t-32 -13t-31.5 13z" />
    <glyph glyph-name="aring" unicode="&#xe5;" horiz-adv-x="479" 
d="M361.5 407.5q45.5 -39.5 45.5 -113.5v-294h-45l-11 80q-25 -41 -67.5 -64.5t-99.5 -23.5q-65 0 -103 33t-38 90q0 73 61 114.5t160 41.5q50 0 81 -4v30q0 46 -30 69.5t-82 23.5q-67 0 -146 -37l-21 52q90 42 173 42q77 0 122.5 -39.5zM302.5 94.5q40.5 45.5 42.5 121.5
q-32 4 -72 4q-79 0 -122.5 -26.5t-43.5 -74.5q0 -33 23 -51.5t64 -18.5q68 0 108.5 45.5zM160 531.5q-31 25.5 -31 70.5t30.5 70.5t73.5 25.5q42 0 72.5 -25.5t30.5 -70.5t-30 -70.5t-72 -25.5q-43 0 -74 25.5zM273.5 561q16.5 15 16.5 41q0 27 -16.5 42t-40.5 15t-41 -15.5
t-17 -41.5t17.5 -41t40.5 -15q24 0 40.5 15z" />
    <glyph glyph-name="ae" unicode="&#xe6;" horiz-adv-x="754" 
d="M667.5 388.5q46.5 -58.5 46.5 -150.5q0 -11 -2 -35h-325q5 -72 45 -114t103 -42q36 0 66 12t58 40l34 -42q-32 -32 -73 -49.5t-84 -17.5q-62 0 -107.5 29t-69.5 81q-28 -55 -72 -81.5t-105 -26.5q-60 0 -99.5 34t-39.5 92q0 74 63 110.5t157 36.5q36 0 69 -4v36
q0 93 -104 93q-34 0 -72.5 -10.5t-69.5 -26.5l-20 52q88 42 167 42q53 0 89.5 -21t48.5 -66q22 41 63.5 64t100.5 23q86 0 132.5 -58.5zM654 257q-2 61 -34 97t-88 36q-61 0 -98 -35t-46 -98h266zM291 92q40 43 41 117q-29 4 -64 4q-71 0 -116 -21.5t-45 -71.5q0 -33 22 -52
t61 -19q61 0 101 43z" />
    <glyph glyph-name="ccedilla" unicode="&#xe7;" horiz-adv-x="460" 
d="M333.5 -78q24.5 -20 24.5 -54q0 -37 -28 -58t-73 -21q-55 0 -98 26l21 39q32 -21 72 -21q25 0 40 9.5t15 28.5q0 25 -29.5 36t-71.5 10l32 74q-52 6 -95.5 35t-70 79t-26.5 117q0 71 31 123t82.5 79.5t112.5 27.5q47 0 85.5 -15t72.5 -45l-35 -42q-27 24 -56 34.5
t-67 10.5q-46 0 -83.5 -21.5t-59 -61t-21.5 -90.5q0 -52 21.5 -92t58.5 -62t83 -22q43 0 73 13t59 40l34 -44q-33 -31 -68 -47t-82 -18l-19 -44q41 -4 65.5 -24z" />
    <glyph glyph-name="egrave" unicode="&#xe8;" horiz-adv-x="505" 
d="M412.5 395q52.5 -58 52.5 -156q0 -20 -3 -43h-354q7 -69 54 -109.5t111 -40.5q45 0 76.5 13.5t58.5 40.5l35 -44q-70 -67 -169 -67q-66 0 -118 29.5t-81 82.5t-29 121q0 64 28.5 116.5t79.5 83.5t115 31q91 0 143.5 -58zM163 356q-44 -40 -54 -106h296q-2 69 -39 107.5
t-98 38.5t-105 -40zM163 638l42 48l131 -113l-31 -36z" />
    <glyph glyph-name="eacute" unicode="&#xe9;" horiz-adv-x="505" 
d="M412.5 395q52.5 -58 52.5 -156q0 -20 -3 -43h-354q7 -69 54 -109.5t111 -40.5q45 0 76.5 13.5t58.5 40.5l35 -44q-70 -67 -169 -67q-66 0 -118 29.5t-81 82.5t-29 121q0 64 28.5 116.5t79.5 83.5t115 31q91 0 143.5 -58zM163 356q-44 -40 -54 -106h296q-2 69 -39 107.5
t-98 38.5t-105 -40zM174 573l132 113l40 -47l-141 -102z" />
    <glyph glyph-name="ecircumflex" unicode="&#xea;" horiz-adv-x="505" 
d="M412.5 395q52.5 -58 52.5 -156q0 -20 -3 -43h-354q7 -69 54 -109.5t111 -40.5q45 0 76.5 13.5t58.5 40.5l35 -44q-70 -67 -169 -67q-66 0 -118 29.5t-81 82.5t-29 121q0 64 28.5 116.5t79.5 83.5t115 31q91 0 143.5 -58zM163 356q-44 -40 -54 -106h296q-2 69 -39 107.5
t-98 38.5t-105 -40zM133 559l118 102h14l116 -103l-26 -34l-96 76l-98 -76z" />
    <glyph glyph-name="edieresis" unicode="&#xeb;" horiz-adv-x="505" 
d="M412.5 395q52.5 -58 52.5 -156q0 -20 -3 -43h-354q7 -69 54 -109.5t111 -40.5q45 0 76.5 13.5t58.5 40.5l35 -44q-70 -67 -169 -67q-66 0 -118 29.5t-81 82.5t-29 121q0 64 28.5 116.5t79.5 83.5t115 31q91 0 143.5 -58zM163 356q-44 -40 -54 -106h296q-2 69 -39 107.5
t-98 38.5t-105 -40zM141 573.5q-12 12.5 -12 29.5q0 18 11.5 31.5t32.5 13.5q20 0 32 -13t12 -30t-12 -30.5t-32 -13.5t-32 12.5zM313.5 574q-11.5 13 -11.5 30t11.5 30.5t31.5 13.5t32 -13.5t12 -30.5t-12 -30t-32 -13t-31.5 13z" />
    <glyph glyph-name="igrave" unicode="&#xec;" horiz-adv-x="217" 
d="M78 442h61v-442h-61v442zM12 638l42 48l131 -113l-31 -36z" />
    <glyph glyph-name="iacute" unicode="&#xed;" horiz-adv-x="217" 
d="M78 442h61v-442h-61v442zM24 580l132 113l40 -47l-141 -102z" />
    <glyph glyph-name="icircumflex" unicode="&#xee;" horiz-adv-x="217" 
d="M78 442h61v-442h-61v442zM-17 566l118 102h14l116 -103l-26 -34l-96 76l-98 -76z" />
    <glyph glyph-name="idieresis" unicode="&#xef;" horiz-adv-x="217" 
d="M78 442h61v-442h-61v442zM2.5 570.5q-12.5 12.5 -12.5 32.5q0 19 12.5 32.5t32.5 13.5q19 0 31.5 -13.5t12.5 -32.5t-12.5 -32t-31.5 -13q-20 0 -32.5 12.5zM149.5 571q-12.5 13 -12.5 32t12.5 32.5t31.5 13.5q20 0 32.5 -13.5t12.5 -32.5t-12.5 -32t-32.5 -13
q-19 0 -31.5 13z" />
    <glyph glyph-name="eth" unicode="&#xf0;" horiz-adv-x="522" 
d="M471 240q0 -72 -24.5 -129t-72.5 -89.5t-115 -32.5q-56 0 -104.5 25t-78.5 74.5t-30 120.5q0 64 27 114.5t74 78t104 27.5q46 0 83 -15.5t68 -51.5q-30 118 -112 200l-93 -67l-34 45l84 60q-57 45 -124 71l26 50q81 -33 147 -86l71 51l35 -44l-64 -46q133 -138 133 -356z
M371 97.5q38 51.5 38 126.5q0 45 -20.5 79t-55 52.5t-76.5 18.5q-65 0 -107.5 -45t-42.5 -118t40.5 -119t109.5 -46q76 0 114 51.5z" />
    <glyph glyph-name="ntilde" unicode="&#xf1;" horiz-adv-x="522" 
d="M410 404q40 -47 40 -134v-270h-61v271q0 123 -102 123q-66 0 -107 -43.5t-41 -112.5v-238h-61v442h46l14 -75q21 37 61 60.5t94 23.5q77 0 117 -47zM128 577q27 69 75 69q30 0 66 -21q30 -16 43 -16q23 0 36 35l43 -24q-26 -66 -75 -66q-26 0 -59 18q-34 18 -48 18
q-25 0 -38 -37z" />
    <glyph glyph-name="ograve" unicode="&#xf2;" horiz-adv-x="550" 
d="M156 18.5q-52 29.5 -81 82.5t-29 120t29 120t81 82.5t118 29.5q67 0 119 -29.5t81.5 -82.5t29.5 -120t-29.5 -120t-81.5 -82.5t-119 -29.5q-66 0 -118 29.5zM395 95q47 49 47 126t-46.5 126t-121.5 49q-48 0 -86 -22.5t-59 -62.5t-21 -90q0 -77 46.5 -126t119.5 -49
q74 0 121 49zM178 638l42 48l131 -113l-31 -36z" />
    <glyph glyph-name="oacute" unicode="&#xf3;" horiz-adv-x="550" 
d="M156 18.5q-52 29.5 -81 82.5t-29 120t29 120t81 82.5t118 29.5q67 0 119 -29.5t81.5 -82.5t29.5 -120t-29.5 -120t-81.5 -82.5t-119 -29.5q-66 0 -118 29.5zM395 95q47 49 47 126t-46.5 126t-121.5 49q-48 0 -86 -22.5t-59 -62.5t-21 -90q0 -77 46.5 -126t119.5 -49
q74 0 121 49zM190 573l132 113l40 -47l-141 -102z" />
    <glyph glyph-name="ocircumflex" unicode="&#xf4;" horiz-adv-x="550" 
d="M156 18.5q-52 29.5 -81 82.5t-29 120t29 120t81 82.5t118 29.5q67 0 119 -29.5t81.5 -82.5t29.5 -120t-29.5 -120t-81.5 -82.5t-119 -29.5q-66 0 -118 29.5zM395 95q47 49 47 126t-46.5 126t-121.5 49q-48 0 -86 -22.5t-59 -62.5t-21 -90q0 -77 46.5 -126t119.5 -49
q74 0 121 49zM149 559l118 102h14l116 -103l-26 -34l-96 76l-98 -76z" />
    <glyph glyph-name="otilde" unicode="&#xf5;" horiz-adv-x="550" 
d="M156 18.5q-52 29.5 -81 82.5t-29 120t29 120t81 82.5t118 29.5q67 0 119 -29.5t81.5 -82.5t29.5 -120t-29.5 -120t-81.5 -82.5t-119 -29.5q-66 0 -118 29.5zM395 95q47 49 47 126t-46.5 126t-121.5 49q-48 0 -86 -22.5t-59 -62.5t-21 -90q0 -77 46.5 -126t119.5 -49
q74 0 121 49zM142 577q27 69 75 69q30 0 66 -21q30 -16 43 -16q23 0 36 35l43 -24q-26 -66 -75 -66q-26 0 -59 18q-34 18 -48 18q-25 0 -38 -37z" />
    <glyph glyph-name="odieresis" unicode="&#xf6;" horiz-adv-x="550" 
d="M156 18.5q-52 29.5 -81 82.5t-29 120t29 120t81 82.5t118 29.5q67 0 119 -29.5t81.5 -82.5t29.5 -120t-29.5 -120t-81.5 -82.5t-119 -29.5q-66 0 -118 29.5zM395 95q47 49 47 126t-46.5 126t-121.5 49q-48 0 -86 -22.5t-59 -62.5t-21 -90q0 -77 46.5 -126t119.5 -49
q74 0 121 49zM156 573.5q-12 12.5 -12 29.5q0 18 11.5 31.5t32.5 13.5q20 0 32 -13t12 -30t-12 -30.5t-32 -13.5t-32 12.5zM328.5 574q-11.5 13 -11.5 30t11.5 30.5t31.5 13.5t32 -13.5t12 -30.5t-12 -30t-32 -13t-31.5 13z" />
    <glyph glyph-name="divide" unicode="&#xf7;" horiz-adv-x="556" 
d="M242.5 466.5q-12.5 13.5 -12.5 33.5t12.5 33.5t35.5 13.5t35.5 -13.5t12.5 -33.5t-12.5 -33.5t-35.5 -13.5t-35.5 13.5zM74 368h408v-55h-408v55zM242.5 147.5q-12.5 13.5 -12.5 33.5t12.5 33.5t35.5 13.5t35.5 -13.5t12.5 -33.5t-12.5 -33.5t-35.5 -13.5t-35.5 13.5z
" />
    <glyph glyph-name="oslash" unicode="&#xf8;" horiz-adv-x="550" 
d="M483.5 323.5q20.5 -46.5 20.5 -102.5q0 -67 -29.5 -120t-81.5 -82.5t-119 -29.5q-64 0 -112 27l-38 -56l-38 26l38 55q-37 31 -57.5 77.5t-20.5 102.5q0 67 29 120t81 82.5t118 29.5q64 0 113 -26l39 55l37 -26l-37 -55q37 -31 57.5 -77.5zM121.5 147.5
q13.5 -33.5 37.5 -57.5l196 287q-36 19 -81 19q-48 0 -86 -22.5t-59 -62.5t-21 -90q0 -40 13.5 -73.5zM395 95q47 49 47 126q0 40 -13.5 74t-38.5 57l-196 -287q36 -19 80 -19q74 0 121 49z" />
    <glyph glyph-name="ugrave" unicode="&#xf9;" horiz-adv-x="519" 
d="M441 442v-442h-47l-13 77q-20 -38 -58.5 -61.5t-89.5 -23.5q-80 0 -120.5 48.5t-40.5 132.5v269h61v-270q0 -123 107 -123q64 0 102 50t38 123v220h61zM162 638l42 48l131 -113l-31 -36z" />
    <glyph glyph-name="uacute" unicode="&#xfa;" horiz-adv-x="519" 
d="M441 442v-442h-47l-13 77q-20 -38 -58.5 -61.5t-89.5 -23.5q-80 0 -120.5 48.5t-40.5 132.5v269h61v-270q0 -123 107 -123q64 0 102 50t38 123v220h61zM173 573l132 113l40 -47l-141 -102z" />
    <glyph glyph-name="ucircumflex" unicode="&#xfb;" horiz-adv-x="519" 
d="M441 442v-442h-47l-13 77q-20 -38 -58.5 -61.5t-89.5 -23.5q-80 0 -120.5 48.5t-40.5 132.5v269h61v-270q0 -123 107 -123q64 0 102 50t38 123v220h61zM133 559l118 102h14l116 -103l-26 -34l-96 76l-98 -76z" />
    <glyph glyph-name="udieresis" unicode="&#xfc;" horiz-adv-x="519" 
d="M441 442v-442h-47l-13 77q-20 -38 -58.5 -61.5t-89.5 -23.5q-80 0 -120.5 48.5t-40.5 132.5v269h61v-270q0 -123 107 -123q64 0 102 50t38 123v220h61zM140 573.5q-12 12.5 -12 29.5q0 18 11.5 31.5t32.5 13.5q20 0 32 -13t12 -30t-12 -30.5t-32 -13.5t-32 12.5z
M312.5 574q-11.5 13 -11.5 30t11.5 30.5t31.5 13.5t32 -13.5t12 -30.5t-12 -30t-32 -13t-31.5 13z" />
    <glyph glyph-name="yacute" unicode="&#xfd;" horiz-adv-x="461" 
d="M447 442v-2l-272 -660h-64v2l98 230l-193 428v2h64l127 -283q21 -47 32 -82q12 36 30 82l115 283h63zM146 573l132 113l40 -47l-141 -102z" />
    <glyph glyph-name="thorn" unicode="&#xfe;" horiz-adv-x="575" 
d="M422 421q50 -30 78 -82.5t28 -117.5t-28 -117.5t-78 -83t-112 -30.5q-53 0 -99 23t-75 63q3 -52 3 -122v-174h-61v937h61v-230q0 -67 -4 -124q28 42 73.5 65t101.5 23q62 0 112 -30zM422 96q45 49 45 125t-45 124.5t-118 48.5q-76 0 -122 -48.5t-46 -124.5t46.5 -125
t122.5 -49q72 0 117 49z" />
    <glyph glyph-name="ydieresis" unicode="&#xff;" horiz-adv-x="461" 
d="M447 442v-2l-272 -660h-64v2l98 230l-193 428v2h64l127 -283q21 -47 32 -82q12 36 30 82l115 283h63zM112 573.5q-12 12.5 -12 29.5q0 18 11.5 31.5t32.5 13.5q20 0 32 -13t12 -30t-12 -30.5t-32 -13.5t-32 12.5zM284.5 574q-11.5 13 -11.5 30t11.5 30.5t31.5 13.5
t32 -13.5t12 -30.5t-12 -30t-32 -13t-31.5 13z" />
    <glyph glyph-name="Amacron" unicode="&#x100;" horiz-adv-x="682" 
d="M668 2v-2h-69l-72 156h-372l-72 -156h-69v2l316 683h22zM303 478l-120 -262h317l-121 262q-26 60 -38 91q-12 -31 -38 -91zM205 839h265v-54h-265v54z" />
    <glyph glyph-name="amacron" unicode="&#x101;" horiz-adv-x="479" 
d="M361.5 407.5q45.5 -39.5 45.5 -113.5v-294h-45l-11 80q-25 -41 -67.5 -64.5t-99.5 -23.5q-65 0 -103 33t-38 90q0 73 61 114.5t160 41.5q50 0 81 -4v30q0 46 -30 69.5t-82 23.5q-67 0 -146 -37l-21 52q90 42 173 42q77 0 122.5 -39.5zM302.5 94.5q40.5 45.5 42.5 121.5
q-32 4 -72 4q-79 0 -122.5 -26.5t-43.5 -74.5q0 -33 23 -51.5t64 -18.5q68 0 108.5 45.5zM105 613h257v-53h-257v53z" />
    <glyph glyph-name="Abreve" unicode="&#x102;" horiz-adv-x="682" 
d="M668 2v-2h-69l-72 156h-372l-72 -156h-69v2l316 683h22zM303 478l-120 -262h317l-121 262q-26 60 -38 91q-12 -31 -38 -91zM258 780.5q-35 27.5 -46 78.5l46 12q7 -30 30.5 -47.5t52.5 -17.5t52.5 17.5t30.5 47.5l46 -12q-11 -51 -46 -78.5t-83 -27.5t-83 27.5z" />
    <glyph glyph-name="abreve" unicode="&#x103;" horiz-adv-x="479" 
d="M361.5 407.5q45.5 -39.5 45.5 -113.5v-294h-45l-11 80q-25 -41 -67.5 -64.5t-99.5 -23.5q-65 0 -103 33t-38 90q0 73 61 114.5t160 41.5q50 0 81 -4v30q0 46 -30 69.5t-82 23.5q-67 0 -146 -37l-21 52q90 42 173 42q77 0 122.5 -39.5zM302.5 94.5q40.5 45.5 42.5 121.5
q-32 4 -72 4q-79 0 -122.5 -26.5t-43.5 -74.5q0 -33 23 -51.5t64 -18.5q68 0 108.5 45.5zM156 555.5q-33 27.5 -44 78.5l46 11q7 -30 29 -47t49 -17q25 0 46 17.5t27 46.5l46 -11q-10 -51 -43 -78.5t-78 -27.5t-78 27.5z" />
    <glyph glyph-name="Aogonek" unicode="&#x104;" horiz-adv-x="682" 
d="M691 -192q-36 -24 -81 -24t-69.5 22t-24.5 59q0 34 21 67.5t61 68.5l-71 155h-372l-72 -156h-69v2l316 683h22l316 -683v-2q-88 -71 -88 -123q0 -17 10.5 -26.5t31.5 -9.5q26 0 50 17zM303 478l-120 -262h317l-121 262q-26 60 -38 91q-12 -31 -38 -91z" />
    <glyph glyph-name="aogonek" unicode="&#x105;" horiz-adv-x="479" 
d="M429 -189q-34 -24 -81 -24q-43 0 -66.5 22.5t-23.5 56.5q0 37 26 75t75 81l-8 58q-25 -41 -67.5 -64.5t-99.5 -23.5q-65 0 -103 33t-38 90q0 73 61 114.5t160 41.5q50 0 81 -4v30q0 46 -30 69.5t-82 23.5q-67 0 -146 -37l-21 52q90 42 173 42q77 0 122.5 -39.5
t45.5 -113.5v-294q-88 -71 -88 -123q0 -36 42 -36q25 0 50 17zM302.5 94.5q40.5 45.5 42.5 121.5q-32 4 -72 4q-79 0 -122.5 -26.5t-43.5 -74.5q0 -33 23 -51.5t64 -18.5q68 0 108.5 45.5z" />
    <glyph glyph-name="Cacute" unicode="&#x106;" horiz-adv-x="699" 
d="M223.5 35.5q-78.5 47.5 -122.5 128t-44 177.5q0 100 44 180t123 125.5t178 45.5q78 0 139 -27.5t117 -83.5l-39 -40q-43 44 -95 67t-122 23q-81 0 -144.5 -38t-99 -104t-35.5 -148q0 -80 35.5 -147t99 -106t144.5 -39q69 0 126 30t96 83l47 -37q-44 -63 -113 -100
t-156 -37q-100 0 -178.5 47.5zM318 798l132 113l40 -47l-141 -101z" />
    <glyph glyph-name="cacute" unicode="&#x107;" horiz-adv-x="460" 
d="M158.5 16.5q-50.5 27.5 -81.5 80t-31 125.5q0 71 31 123t82.5 79.5t112.5 27.5q47 0 85.5 -15t72.5 -45l-35 -42q-27 24 -56 34.5t-67 10.5q-46 0 -83.5 -21.5t-59 -61t-21.5 -90.5q0 -52 21.5 -92t58.5 -62t83 -22q43 0 73 13t59 40l34 -44q-36 -34 -75.5 -50t-95.5 -16
q-57 0 -107.5 27.5zM186 573l132 113l40 -47l-141 -102z" />
    <glyph glyph-name="Ccircumflex" unicode="&#x108;" horiz-adv-x="699" 
d="M223.5 35.5q-78.5 47.5 -122.5 128t-44 177.5q0 100 44 180t123 125.5t178 45.5q78 0 139 -27.5t117 -83.5l-39 -40q-43 44 -95 67t-122 23q-81 0 -144.5 -38t-99 -104t-35.5 -148q0 -80 35.5 -147t99 -106t144.5 -39q69 0 126 30t96 83l47 -37q-44 -63 -113 -100
t-156 -37q-100 0 -178.5 47.5zM265 787l130 102h14l129 -103l-26 -34l-109 76l-111 -76z" />
    <glyph glyph-name="ccircumflex" unicode="&#x109;" horiz-adv-x="460" 
d="M158.5 16.5q-50.5 27.5 -81.5 80t-31 125.5q0 71 31 123t82.5 79.5t112.5 27.5q47 0 85.5 -15t72.5 -45l-35 -42q-27 24 -56 34.5t-67 10.5q-46 0 -83.5 -21.5t-59 -61t-21.5 -90.5q0 -52 21.5 -92t58.5 -62t83 -22q43 0 73 13t59 40l34 -44q-36 -34 -75.5 -50t-95.5 -16
q-57 0 -107.5 27.5zM145 559l118 102h14l116 -103l-26 -34l-96 76l-98 -76z" />
    <glyph glyph-name="Cdotaccent" unicode="&#x10a;" horiz-adv-x="699" 
d="M223.5 35.5q-78.5 47.5 -122.5 128t-44 177.5q0 100 44 180t123 125.5t178 45.5q78 0 139 -27.5t117 -83.5l-39 -40q-43 44 -95 67t-122 23q-81 0 -144.5 -38t-99 -104t-35.5 -148q0 -80 35.5 -147t99 -106t144.5 -39q69 0 126 30t96 83l47 -37q-44 -63 -113 -100
t-156 -37q-100 0 -178.5 47.5zM368.5 793.5q-12.5 13.5 -12.5 32.5q0 20 12 34t35 14t35.5 -14.5t12.5 -34.5q0 -18 -13 -31.5t-35 -13.5t-34.5 13.5z" />
    <glyph glyph-name="cdotaccent" unicode="&#x10b;" horiz-adv-x="460" 
d="M158.5 16.5q-50.5 27.5 -81.5 80t-31 125.5q0 71 31 123t82.5 79.5t112.5 27.5q47 0 85.5 -15t72.5 -45l-35 -42q-27 24 -56 34.5t-67 10.5q-46 0 -83.5 -21.5t-59 -61t-21.5 -90.5q0 -52 21.5 -92t58.5 -62t83 -22q43 0 73 13t59 40l34 -44q-36 -34 -75.5 -50t-95.5 -16
q-57 0 -107.5 27.5zM237 569.5q-13 13.5 -13 32.5q0 21 13 34.5t34 13.5t34.5 -14t13.5 -35q0 -19 -13.5 -32t-34.5 -13t-34 13.5z" />
    <glyph glyph-name="Ccaron" unicode="&#x10c;" horiz-adv-x="699" 
d="M223.5 35.5q-78.5 47.5 -122.5 128t-44 177.5q0 100 44 180t123 125.5t178 45.5q78 0 139 -27.5t117 -83.5l-39 -40q-43 44 -95 67t-122 23q-81 0 -144.5 -38t-99 -104t-35.5 -148q0 -80 35.5 -147t99 -106t144.5 -39q69 0 126 30t96 83l47 -37q-44 -63 -113 -100
t-156 -37q-100 0 -178.5 47.5zM267 859l26 33l109 -76l110 76l28 -34l-130 -103h-15z" />
    <glyph glyph-name="ccaron" unicode="&#x10d;" horiz-adv-x="460" 
d="M158.5 16.5q-50.5 27.5 -81.5 80t-31 125.5q0 71 31 123t82.5 79.5t112.5 27.5q47 0 85.5 -15t72.5 -45l-35 -42q-27 24 -56 34.5t-67 10.5q-46 0 -83.5 -21.5t-59 -61t-21.5 -90.5q0 -52 21.5 -92t58.5 -62t83 -22q43 0 73 13t59 40l34 -44q-36 -34 -75.5 -50t-95.5 -16
q-57 0 -107.5 27.5zM147 633l26 34l97 -76l98 76l27 -35l-117 -102h-15z" />
    <glyph glyph-name="Dcaron" unicode="&#x10e;" horiz-adv-x="722" 
d="M100 680h218q101 0 180 -44t123 -121.5t44 -175.5t-43 -175t-121.5 -120.5t-181.5 -43.5h-219v680zM319 60q83 0 147 36.5t99 100t35 142.5t-35 143t-99.5 101t-147.5 37h-152v-560h153zM195 859l26 33l109 -76l110 76l28 -34l-130 -103h-15z" />
    <glyph glyph-name="dcaron" unicode="&#x10f;" horiz-adv-x="577" 
d="M437 717h61v-717h-47l-9 78q-28 -42 -72.5 -65t-101.5 -23q-65 0 -115.5 30t-78.5 83t-28 120q0 65 28.5 117t79 81.5t114.5 29.5q54 0 99 -22.5t72 -61.5q-2 76 -2 120v230zM636 717q-9 -97 -43 -163h-47q23 88 23 163h67zM393.5 96.5q45.5 48.5 45.5 124.5t-46.5 124.5
t-120.5 48.5q-73 0 -119 -48.5t-46 -124.5t46 -124.5t119 -48.5q76 0 121.5 48.5z" />
    <glyph glyph-name="Dcroat" unicode="&#x110;" horiz-adv-x="725" 
d="M501 636q79 -44 123 -121.5t44 -175.5t-43 -175t-121.5 -120.5t-181.5 -43.5h-220v324h-75v49h75v307h219q101 0 180 -44zM468.5 96.5q63.5 36.5 98.5 100t35 142.5t-35 143t-99 101t-147 37h-153v-247h187v-49h-187v-264h154q83 0 146.5 36.5z" />
    <glyph glyph-name="dcroat" unicode="&#x111;" horiz-adv-x="576" 
d="M560 553h-62v-553h-47l-9 78q-28 -42 -73 -65t-101 -23q-65 0 -115.5 30t-78.5 83t-28 120q0 65 28.5 117t79 81.5t114.5 29.5q54 0 99 -22.5t72 -61.5q-2 76 -2 120v66h-152v46h152v118h61v-118h62v-46zM393.5 96.5q45.5 48.5 45.5 124.5t-46.5 124.5t-120.5 48.5
q-73 0 -119 -48.5t-46 -124.5t46 -124.5t119 -48.5q76 0 121.5 48.5z" />
    <glyph glyph-name="Emacron" unicode="&#x112;" horiz-adv-x="559" 
d="M515 60v-60h-415v680h406v-60h-340v-242h299v-59h-299v-259h349zM169 839h265v-54h-265v54z" />
    <glyph glyph-name="emacron" unicode="&#x113;" horiz-adv-x="505" 
d="M412.5 395q52.5 -58 52.5 -156q0 -20 -3 -43h-354q7 -69 54 -109.5t111 -40.5q45 0 76.5 13.5t58.5 40.5l35 -44q-70 -67 -169 -67q-66 0 -118 29.5t-81 82.5t-29 121q0 64 28.5 116.5t79.5 83.5t115 31q91 0 143.5 -58zM163 356q-44 -40 -54 -106h296q-2 69 -39 107.5
t-98 38.5t-105 -40zM131 613h257v-53h-257v53z" />
    <glyph glyph-name="Ebreve" unicode="&#x114;" horiz-adv-x="559" 
d="M515 60v-60h-415v680h406v-60h-340v-242h299v-59h-299v-259h349zM222 780.5q-35 27.5 -46 78.5l46 12q7 -30 30.5 -47.5t52.5 -17.5t52.5 17.5t30.5 47.5l46 -12q-11 -51 -46 -78.5t-83 -27.5t-83 27.5z" />
    <glyph glyph-name="ebreve" unicode="&#x115;" horiz-adv-x="505" 
d="M412.5 395q52.5 -58 52.5 -156q0 -20 -3 -43h-354q7 -69 54 -109.5t111 -40.5q45 0 76.5 13.5t58.5 40.5l35 -44q-70 -67 -169 -67q-66 0 -118 29.5t-81 82.5t-29 121q0 64 28.5 116.5t79.5 83.5t115 31q91 0 143.5 -58zM163 356q-44 -40 -54 -106h296q-2 69 -39 107.5
t-98 38.5t-105 -40zM182 555.5q-33 27.5 -44 78.5l46 11q7 -30 29 -47t49 -17q25 0 46 17.5t27 46.5l46 -11q-10 -51 -43 -78.5t-78 -27.5t-78 27.5z" />
    <glyph glyph-name="Edotaccent" unicode="&#x116;" horiz-adv-x="559" 
d="M515 60v-60h-415v680h406v-60h-340v-242h299v-59h-299v-259h349zM270.5 793.5q-12.5 13.5 -12.5 32.5q0 20 12 34t35 14t35.5 -14.5t12.5 -34.5q0 -18 -13 -31.5t-35 -13.5t-34.5 13.5z" />
    <glyph glyph-name="edotaccent" unicode="&#x117;" horiz-adv-x="505" 
d="M412.5 395q52.5 -58 52.5 -156q0 -20 -3 -43h-354q7 -69 54 -109.5t111 -40.5q45 0 76.5 13.5t58.5 40.5l35 -44q-70 -67 -169 -67q-66 0 -118 29.5t-81 82.5t-29 121q0 64 28.5 116.5t79.5 83.5t115 31q91 0 143.5 -58zM163 356q-44 -40 -54 -106h296q-2 69 -39 107.5
t-98 38.5t-105 -40zM225 569.5q-13 13.5 -13 32.5q0 21 13 34.5t34 13.5t34.5 -14t13.5 -35q0 -19 -13.5 -32t-34.5 -13t-34 13.5z" />
    <glyph glyph-name="Eogonek" unicode="&#x118;" horiz-adv-x="559" 
d="M528 -192q-34 -24 -81 -24q-45 0 -69 22t-24 59q0 34 22 66.5t65 68.5h-341v680h406v-60h-340v-242h299v-59h-299v-259h349v-60q-98 -73 -98 -123q0 -36 43 -36q25 0 49 17z" />
    <glyph glyph-name="eogonek" unicode="&#x119;" horiz-adv-x="504" 
d="M410.5 394.5q52.5 -57.5 52.5 -156.5q0 -27 -2 -42h-353q7 -69 53.5 -109t112.5 -40q44 0 75.5 12.5t58.5 39.5l33 -42l-10 -10q-67 -63 -92.5 -101.5t-25.5 -68.5q0 -36 42 -36q25 0 50 17l18 -47q-34 -24 -81 -24q-43 0 -66.5 21.5t-23.5 57.5q0 31 19 63t55 66
q-27 -5 -53 -5q-68 0 -119.5 29.5t-79.5 82t-28 120.5q0 63 27.5 116t77.5 83.5t113 30.5q94 0 146.5 -57.5zM160.5 355q-42.5 -40 -51.5 -105h294q0 70 -37 107.5t-102 37.5q-61 0 -103.5 -40z" />
    <glyph glyph-name="Ecaron" unicode="&#x11a;" horiz-adv-x="559" 
d="M515 60v-60h-415v680h406v-60h-340v-242h299v-59h-299v-259h349zM169 859l26 33l109 -76l110 76l28 -34l-130 -103h-15z" />
    <glyph glyph-name="ecaron" unicode="&#x11b;" horiz-adv-x="505" 
d="M412.5 395q52.5 -58 52.5 -156q0 -20 -3 -43h-354q7 -69 54 -109.5t111 -40.5q45 0 76.5 13.5t58.5 40.5l35 -44q-70 -67 -169 -67q-66 0 -118 29.5t-81 82.5t-29 121q0 64 28.5 116.5t79.5 83.5t115 31q91 0 143.5 -58zM163 356q-44 -40 -54 -106h296q-2 69 -39 107.5
t-98 38.5t-105 -40zM135 633l26 34l97 -76l98 76l27 -35l-117 -102h-15z" />
    <glyph glyph-name="Gcircumflex" unicode="&#x11c;" horiz-adv-x="736" 
d="M679 361v-241q-47 -64 -117.5 -98t-155.5 -34q-100 0 -179.5 46t-124.5 126.5t-45 180.5q0 97 42.5 177t121 127t181.5 47q153 0 258 -117l-43 -41q-88 97 -215 97q-84 0 -147 -38t-97.5 -104t-34.5 -148q0 -84 36 -150.5t101.5 -104t150.5 -37.5q63 0 115.5 23t89.5 67
v162h-215v60h278zM265 787l130 102h14l129 -103l-26 -34l-109 76l-111 -76z" />
    <glyph glyph-name="gcircumflex" unicode="&#x11d;" horiz-adv-x="576" 
d="M498 442v-471q0 -65 -29.5 -110.5t-79 -68t-109.5 -22.5q-119 0 -200 79l38 43q67 -65 159 -65q71 0 115.5 37t44.5 108q0 68 1 100q-29 -39 -74.5 -59.5t-95.5 -20.5q-66 0 -116.5 30.5t-78 83t-27.5 115.5q0 64 27 116.5t76.5 83t115.5 30.5q55 0 100 -21t74 -61l14 73
h45zM395 98q44 49 44 123t-43.5 123.5t-123.5 49.5q-76 0 -120 -49t-44 -123q0 -75 44.5 -124t118.5 -49q80 0 124 49zM149 559l118 102h14l116 -103l-26 -34l-96 76l-98 -76z" />
    <glyph glyph-name="Gbreve" unicode="&#x11e;" horiz-adv-x="736" 
d="M679 361v-241q-47 -64 -117.5 -98t-155.5 -34q-100 0 -179.5 46t-124.5 126.5t-45 180.5q0 97 42.5 177t121 127t181.5 47q153 0 258 -117l-43 -41q-88 97 -215 97q-84 0 -147 -38t-97.5 -104t-34.5 -148q0 -84 36 -150.5t101.5 -104t150.5 -37.5q63 0 115.5 23t89.5 67
v162h-215v60h278zM320 780.5q-35 27.5 -46 78.5l46 12q7 -30 30.5 -47.5t52.5 -17.5t52.5 17.5t30.5 47.5l46 -12q-11 -51 -46 -78.5t-83 -27.5t-83 27.5z" />
    <glyph glyph-name="gbreve" unicode="&#x11f;" horiz-adv-x="576" 
d="M498 442v-471q0 -65 -29.5 -110.5t-79 -68t-109.5 -22.5q-119 0 -200 79l38 43q67 -65 159 -65q71 0 115.5 37t44.5 108q0 68 1 100q-29 -39 -74.5 -59.5t-95.5 -20.5q-66 0 -116.5 30.5t-78 83t-27.5 115.5q0 64 27 116.5t76.5 83t115.5 30.5q55 0 100 -21t74 -61l14 73
h45zM395 98q44 49 44 123t-43.5 123.5t-123.5 49.5q-76 0 -120 -49t-44 -123q0 -75 44.5 -124t118.5 -49q80 0 124 49zM197 555.5q-33 27.5 -44 78.5l46 11q7 -30 29 -47t49 -17q25 0 46 17.5t27 46.5l46 -11q-10 -51 -43 -78.5t-78 -27.5t-78 27.5z" />
    <glyph glyph-name="Gdotaccent" unicode="&#x120;" horiz-adv-x="736" 
d="M679 361v-241q-47 -64 -117.5 -98t-155.5 -34q-100 0 -179.5 46t-124.5 126.5t-45 180.5q0 97 42.5 177t121 127t181.5 47q153 0 258 -117l-43 -41q-88 97 -215 97q-84 0 -147 -38t-97.5 -104t-34.5 -148q0 -84 36 -150.5t101.5 -104t150.5 -37.5q63 0 115.5 23t89.5 67
v162h-215v60h278zM368.5 793.5q-12.5 13.5 -12.5 32.5q0 20 12 34t35 14t35.5 -14.5t12.5 -34.5q0 -18 -13 -31.5t-35 -13.5t-34.5 13.5z" />
    <glyph glyph-name="gdotaccent" unicode="&#x121;" horiz-adv-x="576" 
d="M498 442v-471q0 -65 -29.5 -110.5t-79 -68t-109.5 -22.5q-119 0 -200 79l38 43q67 -65 159 -65q71 0 115.5 37t44.5 108q0 68 1 100q-29 -39 -74.5 -59.5t-95.5 -20.5q-66 0 -116.5 30.5t-78 83t-27.5 115.5q0 64 27 116.5t76.5 83t115.5 30.5q55 0 100 -21t74 -61l14 73
h45zM395 98q44 49 44 123t-43.5 123.5t-123.5 49.5q-76 0 -120 -49t-44 -123q0 -75 44.5 -124t118.5 -49q80 0 124 49zM240 569.5q-13 13.5 -13 32.5q0 21 13 34.5t34 13.5t34.5 -14t13.5 -35q0 -19 -13.5 -32t-34.5 -13t-34 13.5z" />
    <glyph glyph-name="uni0122" unicode="&#x122;" horiz-adv-x="736" 
d="M679 361v-241q-47 -64 -117.5 -98t-155.5 -34q-100 0 -179.5 46t-124.5 126.5t-45 180.5q0 97 42.5 177t121 127t181.5 47q153 0 258 -117l-43 -41q-88 97 -215 97q-84 0 -147 -38t-97.5 -104t-34.5 -148q0 -84 36 -150.5t101.5 -104t150.5 -37.5q63 0 115.5 23t89.5 67
v162h-215v60h278zM382 -105h67q-9 -104 -50 -171h-48q31 86 31 171z" />
    <glyph glyph-name="uni0123" unicode="&#x123;" horiz-adv-x="576" 
d="M498 442v-471q0 -65 -29.5 -110.5t-79 -68t-109.5 -22.5q-119 0 -200 79l38 43q67 -65 159 -65q71 0 115.5 37t44.5 108q0 68 1 100q-29 -39 -74.5 -59.5t-95.5 -20.5q-66 0 -116.5 30.5t-78 83t-27.5 115.5q0 64 27 116.5t76.5 83t115.5 30.5q55 0 100 -21t74 -61l14 73
h45zM395 98q44 49 44 123t-43.5 123.5t-123.5 49.5q-76 0 -120 -49t-44 -123q0 -75 44.5 -124t118.5 -49q80 0 124 49zM288 712h48q-32 -83 -32 -171h-67q9 102 51 171z" />
    <glyph glyph-name="Hcircumflex" unicode="&#x124;" horiz-adv-x="744" 
d="M100 680h66v-307h413v307h65v-680h-65v313h-413v-313h-66v680zM234 787l130 102h14l129 -103l-26 -34l-109 76l-111 -76z" />
    <glyph glyph-name="hcircumflex" unicode="&#x125;" horiz-adv-x="522" 
d="M410 404q40 -47 40 -134v-270h-61v272q0 58 -25 90t-79 32q-68 0 -107 -50.5t-39 -125.5v-218h-61v717h61v-286q0 -43 -1 -69q21 41 60 65t93 24q79 0 119 -47zM-29 824l130 102h14l129 -103l-26 -34l-109 76l-111 -76z" />
    <glyph glyph-name="Hbar" unicode="&#x126;" horiz-adv-x="744" 
d="M703 519h-59v-519h-65v313h-413v-313h-66v519h-59v45h59v116h66v-116h413v116h65v-116h59v-45zM579 519h-413v-146h413v146z" />
    <glyph glyph-name="hbar" unicode="&#x127;" horiz-adv-x="522" 
d="M410 402q40 -47 40 -128v-274h-61v276q0 55 -25.5 85.5t-78.5 30.5q-69 0 -107.5 -50.5t-38.5 -125.5v-216h-61v553h-66v46h66v118h61v-118h171v-46h-171v-124q0 -43 -1 -67q20 39 59.5 63t95.5 24q77 0 117 -47z" />
    <glyph glyph-name="Itilde" unicode="&#x128;" horiz-adv-x="266" 
d="M100 680h66v-680h-66v680zM-4 802q27 70 78 70q28 0 70 -21q13 -7 24.5 -11.5t19.5 -4.5q24 0 38 35l43 -24q-27 -68 -77 -68q-28 0 -63 19q-32 17 -49 17q-14 0 -24 -8.5t-17 -28.5z" />
    <glyph glyph-name="itilde" unicode="&#x129;" horiz-adv-x="217" 
d="M78 442h61v-442h-61v442zM-23 584q27 69 75 69q30 0 66 -21q30 -16 43 -16q23 0 36 35l43 -24q-26 -66 -75 -66q-26 0 -59 18q-34 18 -48 18q-25 0 -38 -37z" />
    <glyph glyph-name="Imacron" unicode="&#x12a;" horiz-adv-x="266" 
d="M100 680h66v-680h-66v680zM-3 839h265v-54h-265v54z" />
    <glyph glyph-name="imacron" unicode="&#x12b;" horiz-adv-x="217" 
d="M78 442h61v-442h-61v442zM8 613h200v-54h-200v54z" />
    <glyph glyph-name="Ibreve" unicode="&#x12c;" horiz-adv-x="266" 
d="M100 680h66v-680h-66v680zM50 780.5q-35 27.5 -46 78.5l46 12q7 -30 30.5 -47.5t52.5 -17.5t52.5 17.5t30.5 47.5l46 -12q-11 -51 -46 -78.5t-83 -27.5t-83 27.5z" />
    <glyph glyph-name="ibreve" unicode="&#x12d;" horiz-adv-x="217" 
d="M78 442h61v-442h-61v442zM31 555.5q-33 27.5 -44 78.5l46 11q7 -30 29 -47t49 -17q25 0 46 17.5t27 46.5l46 -11q-10 -51 -43 -78.5t-78 -27.5t-78 27.5z" />
    <glyph glyph-name="Iogonek" unicode="&#x12e;" horiz-adv-x="266" 
d="M214 -192q-34 -24 -81 -24q-45 0 -70 22.5t-25 60.5q0 34 15.5 67.5t46.5 72.5v673h66v-680q-63 -73 -63 -123q0 -17 11 -26.5t32 -9.5q24 0 50 17z" />
    <glyph glyph-name="iogonek" unicode="&#x12f;" horiz-adv-x="217" 
d="M74.5 570q-12.5 13 -12.5 32q0 21 12.5 34t33.5 13q22 0 35 -13.5t13 -34.5q0 -19 -13.5 -31.5t-34.5 -12.5t-33.5 13zM193 -189q-36 -24 -81 -24q-44 0 -67 21t-23 57q0 57 56 136v441h61v-442q-57 -72 -57 -121q0 -38 42 -38q26 0 50 17z" />
    <glyph glyph-name="Idotaccent" unicode="&#x130;" horiz-adv-x="266" 
d="M100 680h66v-680h-66v680zM98.5 793.5q-12.5 13.5 -12.5 32.5q0 20 12 34t35 14t35.5 -14.5t12.5 -34.5q0 -18 -13 -31.5t-35 -13.5t-34.5 13.5z" />
    <glyph glyph-name="dotlessi" unicode="&#x131;" horiz-adv-x="217" 
d="M78 442h61v-442h-61v442z" />
    <glyph glyph-name="IJ" unicode="&#x132;" horiz-adv-x="774" 
d="M100 680h66v-680h-66v680zM284 50l33 53q67 -54 153 -54q70 0 107.5 42t37.5 121v468h65v-469q0 -108 -54 -165.5t-156 -57.5t-186 62z" />
    <glyph glyph-name="ij" unicode="&#x133;" horiz-adv-x="437" 
d="M76 571q-13 13 -13 31q0 20 12.5 33t33.5 13t33.5 -13t12.5 -33q0 -19 -13 -31.5t-33 -12.5t-33 13zM78 442h61v-442h-61v442zM296.5 571q-12.5 13 -12.5 31q0 20 12.5 33t32.5 13q21 0 33.5 -13t12.5 -34q0 -18 -13 -30.5t-33 -12.5t-32.5 13zM178 -176q49 4 75 20
t36 46t10 80v472h61v-469q0 -69 -15.5 -111.5t-53.5 -65t-105 -26.5z" />
    <glyph glyph-name="Jcircumflex" unicode="&#x134;" horiz-adv-x="508" 
d="M18 50l33 53q67 -54 153 -54q70 0 107.5 42t37.5 121v468h65v-469q0 -108 -54 -165.5t-156 -57.5t-186 62zM243 787l130 102h14l129 -103l-26 -34l-109 76l-111 -76z" />
    <glyph glyph-name="jcircumflex" unicode="&#x135;" horiz-adv-x="221" 
d="M-39 -176q49 4 75 20t36 46t10 80v472h61v-469q0 -69 -15.5 -111.5t-53.5 -65t-105 -26.5zM-14 559l118 102h14l116 -103l-26 -34l-96 76l-98 -76z" />
    <glyph glyph-name="uni0136" unicode="&#x136;" horiz-adv-x="583" 
d="M573 3v-3h-83l-324 321v-321h-66v680h66v-321l307 321h81v-3l-322 -335zM287 -105h67q-9 -104 -50 -171h-48q31 86 31 171z" />
    <glyph glyph-name="uni0137" unicode="&#x137;" horiz-adv-x="434" 
d="M424 5v-5h-76l-209 205v-205h-61v717h61v-469l191 194h74v-3l-210 -211zM212 -105h67q-9 -104 -50 -171h-48q31 86 31 171z" />
    <glyph glyph-name="kgreenlandic" unicode="&#x138;" horiz-adv-x="434" 
d="M424 5v-5h-76l-209 205v-205h-61v442h61v-194l191 194h74v-3l-210 -211z" />
    <glyph glyph-name="Lacute" unicode="&#x139;" horiz-adv-x="524" 
d="M100 680h66v-620h328v-60h-394v680zM52 798l132 113l40 -47l-141 -101z" />
    <glyph glyph-name="lacute" unicode="&#x13a;" horiz-adv-x="218" 
d="M78 717h61l1 -717h-61zM25 835l132 113l40 -47l-141 -101z" />
    <glyph glyph-name="uni013B" unicode="&#x13b;" horiz-adv-x="524" 
d="M100 680h66v-620h328v-60h-394v680zM262 -105h67q-9 -104 -50 -171h-48q31 86 31 171z" />
    <glyph glyph-name="uni013C" unicode="&#x13c;" horiz-adv-x="218" 
d="M78 717h61l1 -717h-61zM80 -105h67q-9 -104 -50 -171h-48q31 86 31 171z" />
    <glyph glyph-name="Lcaron" unicode="&#x13d;" horiz-adv-x="524" 
d="M100 680h66v-620h328v-60h-394v680zM346 680h67q-9 -100 -51 -159h-47q31 76 31 159z" />
    <glyph glyph-name="lcaron" unicode="&#x13e;" horiz-adv-x="219" 
d="M78 717h61v-717h-61v717zM211 717h67q-9 -97 -43 -163h-47q23 88 23 163z" />
    <glyph glyph-name="Ldot" unicode="&#x13f;" horiz-adv-x="524" 
d="M100 680h66v-620h328v-60h-394v680zM350 312q-14 12 -14 35t14 35.5t34 12.5t34 -12.5t14 -35.5t-14 -35t-34 -12t-34 12z" />
    <glyph glyph-name="ldot" unicode="&#x140;" horiz-adv-x="332" 
d="M78 717h61v-717h-61v717zM229 315q-14 12 -14 35t14 35t34 12t33.5 -12t13.5 -35t-13.5 -35t-33.5 -12t-34 12z" />
    <glyph glyph-name="Lslash" unicode="&#x141;" horiz-adv-x="527" 
d="M498 60v-60h-394v288l-63 -21l-18 49l81 28v336h66v-314l144 49l18 -49l-162 -55v-251h328z" />
    <glyph glyph-name="lslash" unicode="&#x142;" horiz-adv-x="257" 
d="M159 340v-340h-61v316l-70 -27l-17 45l87 33v350h61v-327l70 27l16 -44z" />
    <glyph glyph-name="Nacute" unicode="&#x143;" horiz-adv-x="764" 
d="M664 680v-685h-29l-423 498q-15 18 -49 56q3 -31 3 -65v-484h-66v685h28l422 -496l50 -57q-2 25 -2 71v477h66zM300 798l132 113l40 -47l-141 -101z" />
    <glyph glyph-name="nacute" unicode="&#x144;" horiz-adv-x="522" 
d="M410 404q40 -47 40 -134v-270h-61v271q0 123 -102 123q-66 0 -107 -43.5t-41 -112.5v-238h-61v442h46l14 -75q21 37 61 60.5t94 23.5q77 0 117 -47zM175 573l132 113l40 -47l-141 -102z" />
    <glyph glyph-name="uni0145" unicode="&#x145;" horiz-adv-x="764" 
d="M664 680v-685h-29l-423 498q-15 18 -49 56q3 -31 3 -65v-484h-66v685h28l422 -496l50 -57q-2 25 -2 71v477h66zM349 -105h67q-9 -104 -50 -171h-48q31 86 31 171z" />
    <glyph glyph-name="uni0146" unicode="&#x146;" horiz-adv-x="522" 
d="M410 404q40 -47 40 -134v-270h-61v271q0 123 -102 123q-66 0 -107 -43.5t-41 -112.5v-238h-61v442h46l14 -75q21 37 61 60.5t94 23.5q77 0 117 -47zM237 -105h67q-9 -104 -50 -171h-48q31 86 31 171z" />
    <glyph glyph-name="Ncaron" unicode="&#x147;" horiz-adv-x="764" 
d="M664 680v-685h-29l-423 498q-15 18 -49 56q3 -31 3 -65v-484h-66v685h28l422 -496l50 -57q-2 25 -2 71v477h66zM248 859l26 33l109 -76l110 76l28 -34l-130 -103h-15z" />
    <glyph glyph-name="ncaron" unicode="&#x148;" horiz-adv-x="522" 
d="M410 404q40 -47 40 -134v-270h-61v271q0 123 -102 123q-66 0 -107 -43.5t-41 -112.5v-238h-61v442h46l14 -75q21 37 61 60.5t94 23.5q77 0 117 -47zM136 633l26 34l97 -76l98 76l27 -35l-117 -102h-15z" />
    <glyph glyph-name="napostrophe" unicode="&#x149;" horiz-adv-x="522" 
d="M15 641h66q-9 -102 -50 -171h-48q31 85 32 171zM78 442h46l14 -82q19 40 58.5 65.5t94.5 25.5q78 0 118.5 -47t40.5 -133v-271h-61v272q0 122 -103 122q-69 0 -108 -50.5t-39 -125.5v-218h-61v442z" />
    <glyph glyph-name="Eng" unicode="&#x14a;" horiz-adv-x="765" 
d="M665 680v-688q0 -104 -51.5 -160.5t-145.5 -55.5l-9 59q68 0 104 41t36 117v44l-398 466l-37 46q2 -21 2 -55v-494h-66v685h28l427 -503l15 -18q14 -16 31 -37q-2 22 -2 57v496h66z" />
    <glyph glyph-name="eng" unicode="&#x14b;" horiz-adv-x="522" 
d="M285 -167q57 1 80.5 28.5t23.5 88.5v321q0 123 -102 123q-66 0 -107 -43.5t-41 -112.5v-238h-61v442h46l13 -77q21 38 61.5 62t94.5 24q77 0 117 -46.5t40 -134.5v-321q0 -83 -40.5 -126.5t-118.5 -43.5z" />
    <glyph glyph-name="Omacron" unicode="&#x14c;" horiz-adv-x="803" 
d="M224.5 35.5q-78.5 47.5 -123 128.5t-44.5 177q0 100 44 180t122.5 125.5t177.5 45.5q100 0 178.5 -45.5t122.5 -125.5t44 -180q0 -97 -44 -177.5t-122.5 -128t-178.5 -47.5q-98 0 -176.5 47.5zM546.5 88q63.5 39 98.5 106t35 147q0 83 -35 149t-98.5 103.5t-145.5 37.5
q-81 0 -144.5 -37.5t-98.5 -103.5t-35 -149q0 -80 35.5 -147t98.5 -106t144 -39q82 0 145.5 39zM266 839h265v-54h-265v54z" />
    <glyph glyph-name="omacron" unicode="&#x14d;" horiz-adv-x="550" 
d="M156 18.5q-52 29.5 -81 82.5t-29 120t29 120t81 82.5t118 29.5q67 0 119 -29.5t81.5 -82.5t29.5 -120t-29.5 -120t-81.5 -82.5t-119 -29.5q-66 0 -118 29.5zM395 95q47 49 47 126t-46.5 126t-121.5 49q-48 0 -86 -22.5t-59 -62.5t-21 -90q0 -77 46.5 -126t119.5 -49
q74 0 121 49zM146 613h257v-53h-257v53z" />
    <glyph glyph-name="Obreve" unicode="&#x14e;" horiz-adv-x="803" 
d="M224.5 35.5q-78.5 47.5 -123 128.5t-44.5 177q0 100 44 180t122.5 125.5t177.5 45.5q100 0 178.5 -45.5t122.5 -125.5t44 -180q0 -97 -44 -177.5t-122.5 -128t-178.5 -47.5q-98 0 -176.5 47.5zM546.5 88q63.5 39 98.5 106t35 147q0 83 -35 149t-98.5 103.5t-145.5 37.5
q-81 0 -144.5 -37.5t-98.5 -103.5t-35 -149q0 -80 35.5 -147t98.5 -106t144 -39q82 0 145.5 39zM319 780.5q-35 27.5 -46 78.5l46 12q7 -30 30.5 -47.5t52.5 -17.5t52.5 17.5t30.5 47.5l46 -12q-11 -51 -46 -78.5t-83 -27.5t-83 27.5z" />
    <glyph glyph-name="obreve" unicode="&#x14f;" horiz-adv-x="550" 
d="M156 18.5q-52 29.5 -81 82.5t-29 120t29 120t81 82.5t118 29.5q67 0 119 -29.5t81.5 -82.5t29.5 -120t-29.5 -120t-81.5 -82.5t-119 -29.5q-66 0 -118 29.5zM395 95q47 49 47 126t-46.5 126t-121.5 49q-48 0 -86 -22.5t-59 -62.5t-21 -90q0 -77 46.5 -126t119.5 -49
q74 0 121 49zM197 555.5q-33 27.5 -44 78.5l46 11q7 -30 29 -47t49 -17q25 0 46 17.5t27 46.5l46 -11q-10 -51 -43 -78.5t-78 -27.5t-78 27.5z" />
    <glyph glyph-name="Ohungarumlaut" unicode="&#x150;" horiz-adv-x="803" 
d="M224.5 35.5q-78.5 47.5 -123 128.5t-44.5 177q0 100 44 180t122.5 125.5t177.5 45.5q100 0 178.5 -45.5t122.5 -125.5t44 -180q0 -97 -44 -177.5t-122.5 -128t-178.5 -47.5q-98 0 -176.5 47.5zM546.5 88q63.5 39 98.5 106t35 147q0 83 -35 149t-98.5 103.5t-145.5 37.5
q-81 0 -144.5 -37.5t-98.5 -103.5t-35 -149q0 -80 35.5 -147t98.5 -106t144 -39q82 0 145.5 39zM269 778l97 139l52 -35l-110 -131zM430 778l97 139l52 -35l-110 -131z" />
    <glyph glyph-name="ohungarumlaut" unicode="&#x151;" horiz-adv-x="550" 
d="M156 18.5q-52 29.5 -81 82.5t-29 120t29 120t81 82.5t118 29.5q67 0 119 -29.5t81.5 -82.5t29.5 -120t-29.5 -120t-81.5 -82.5t-119 -29.5q-66 0 -118 29.5zM395 95q47 49 47 126t-46.5 126t-121.5 49q-48 0 -86 -22.5t-59 -62.5t-21 -90q0 -77 46.5 -126t119.5 -49
q74 0 121 49zM142 553l97 139l52 -35l-110 -131zM303 553l97 139l52 -35l-110 -131z" />
    <glyph glyph-name="OE" unicode="&#x152;" horiz-adv-x="900" 
d="M856 60v-60h-368q-40 -12 -87 -12q-99 0 -177.5 47t-122.5 127.5t-44 177.5q0 98 43.5 178.5t122 127t178.5 46.5q47 0 87 -12h359v-60h-297v-242h264v-59h-264v-259h306zM488 617q-42 14 -87 14q-83 0 -146 -38.5t-97.5 -105t-34.5 -147.5t35 -147.5t98.5 -105
t144.5 -38.5q45 0 87 14v554z" />
    <glyph glyph-name="oe" unicode="&#x153;" horiz-adv-x="878" 
d="M784 394.5q54 -57.5 54 -159.5q0 -11 -2 -39h-347q7 -70 49 -109.5t107 -39.5q42 0 74 12.5t64 39.5l33 -43q-75 -66 -168 -66q-66 0 -116 31t-72 85q-24 -55 -73.5 -85.5t-118.5 -30.5q-65 0 -115.5 30t-78.5 83t-28 120q0 66 28 118t78.5 81t115.5 29q69 0 118.5 -30.5
t73.5 -85.5q20 52 67.5 84.5t109.5 32.5q93 0 147 -57.5zM388.5 95.5q43.5 48.5 43.5 127.5q0 77 -44 124.5t-117 47.5q-75 0 -119.5 -47.5t-44.5 -124.5q0 -79 44.5 -127.5t119.5 -48.5q74 0 117.5 48.5zM536 356q-40 -39 -47 -106h290q0 67 -37.5 106t-102.5 39
q-63 0 -103 -39z" />
    <glyph glyph-name="Racute" unicode="&#x154;" horiz-adv-x="625" 
d="M587 3v-3h-76l-191 282h-154v-282h-66v680h257q60 0 109.5 -26.5t78.5 -72t29 -101.5q0 -77 -49 -129.5t-132 -65.5zM354 342q71 0 112.5 38t41.5 99q0 39 -19.5 71.5t-53.5 51t-78 18.5h-191v-278h188zM224 798l132 113l40 -47l-141 -101z" />
    <glyph glyph-name="racute" unicode="&#x155;" horiz-adv-x="350" 
d="M337 436l-18 -54q-31 11 -59 11q-55 0 -88 -36.5t-33 -100.5v-256h-61v442h46l12 -65q40 74 129 74q39 0 72 -15zM114 573l132 113l40 -47l-141 -102z" />
    <glyph glyph-name="uni0156" unicode="&#x156;" horiz-adv-x="625" 
d="M587 3v-3h-76l-191 282h-154v-282h-66v680h257q60 0 109.5 -26.5t78.5 -72t29 -101.5q0 -77 -49 -129.5t-132 -65.5zM354 342q71 0 112.5 38t41.5 99q0 39 -19.5 71.5t-53.5 51t-78 18.5h-191v-278h188zM290 -105h67q-9 -104 -50 -171h-48q31 86 31 171z" />
    <glyph glyph-name="uni0157" unicode="&#x157;" horiz-adv-x="350" 
d="M337 436l-18 -54q-31 11 -59 11q-55 0 -88 -36.5t-33 -100.5v-256h-61v442h46l12 -65q40 74 129 74q39 0 72 -15zM72 -105h67q-9 -104 -50 -171h-48q31 86 31 171z" />
    <glyph glyph-name="Rcaron" unicode="&#x158;" horiz-adv-x="625" 
d="M587 3v-3h-76l-191 282h-154v-282h-66v680h257q60 0 109.5 -26.5t78.5 -72t29 -101.5q0 -77 -49 -129.5t-132 -65.5zM354 342q71 0 112.5 38t41.5 99q0 39 -19.5 71.5t-53.5 51t-78 18.5h-191v-278h188zM174 859l26 33l109 -76l110 76l28 -34l-130 -103h-15z" />
    <glyph glyph-name="rcaron" unicode="&#x159;" horiz-adv-x="350" 
d="M337 436l-18 -54q-31 11 -59 11q-55 0 -88 -36.5t-33 -100.5v-256h-61v442h46l12 -65q40 74 129 74q39 0 72 -15zM75 633l26 34l97 -76l98 76l27 -35l-117 -102h-15z" />
    <glyph glyph-name="Sacute" unicode="&#x15a;" horiz-adv-x="567" 
d="M163 10q-61 22 -106 60l34 52q39 -35 90.5 -54t109.5 -19q67 0 113 34t46 92q0 40 -22 67t-56.5 44.5t-88.5 36.5q-95 33 -151 77.5t-56 121.5q0 52 28.5 90.5t76 59t103.5 20.5q58 0 108 -16t98 -52l-30 -50q-41 29 -83 43t-90 14q-59 0 -101.5 -28t-42.5 -78
q0 -39 22.5 -65t55 -42t86.5 -35q100 -36 154.5 -81t54.5 -124q0 -58 -30 -101t-81 -66t-114 -23q-67 0 -128 22zM205 798l132 113l40 -47l-141 -101z" />
    <glyph glyph-name="sacute" unicode="&#x15b;" horiz-adv-x="396" 
d="M43 41l31 48q56 -40 130 -40q40 0 64.5 18.5t24.5 48.5q0 29 -26 47.5t-76 38.5q-63 25 -97.5 54.5t-34.5 78.5q0 53 41.5 82.5t101.5 29.5q72 0 134 -40l-27 -44q-50 28 -104 28q-37 0 -61 -13.5t-24 -42.5q0 -27 23.5 -44.5t69.5 -35.5q69 -26 105 -57t36 -82
q0 -55 -42 -89.5t-108 -34.5q-89 0 -161 49zM112 573l132 113l40 -47l-141 -102z" />
    <glyph glyph-name="Scircumflex" unicode="&#x15c;" horiz-adv-x="567" 
d="M163 10q-61 22 -106 60l34 52q39 -35 90.5 -54t109.5 -19q67 0 113 34t46 92q0 40 -22 67t-56.5 44.5t-88.5 36.5q-95 33 -151 77.5t-56 121.5q0 52 28.5 90.5t76 59t103.5 20.5q58 0 108 -16t98 -52l-30 -50q-41 29 -83 43t-90 14q-59 0 -101.5 -28t-42.5 -78
q0 -39 22.5 -65t55 -42t86.5 -35q100 -36 154.5 -81t54.5 -124q0 -58 -30 -101t-81 -66t-114 -23q-67 0 -128 22zM153 787l130 102h14l129 -103l-26 -34l-109 76l-111 -76z" />
    <glyph glyph-name="scircumflex" unicode="&#x15d;" horiz-adv-x="396" 
d="M43 41l31 48q56 -40 130 -40q40 0 64.5 18.5t24.5 48.5q0 29 -26 47.5t-76 38.5q-63 25 -97.5 54.5t-34.5 78.5q0 53 41.5 82.5t101.5 29.5q72 0 134 -40l-27 -44q-50 28 -104 28q-37 0 -61 -13.5t-24 -42.5q0 -27 23.5 -44.5t69.5 -35.5q69 -26 105 -57t36 -82
q0 -55 -42 -89.5t-108 -34.5q-89 0 -161 49zM72 559l118 102h14l116 -103l-26 -34l-96 76l-98 -76z" />
    <glyph glyph-name="Scedilla" unicode="&#x15e;" horiz-adv-x="567" 
d="M463.5 50q-52.5 -50 -135.5 -60l-19 -42q41 -4 66.5 -24.5t25.5 -55.5q0 -38 -29 -60t-75 -22q-61 0 -101 27l21 41q32 -22 75 -22q26 0 41 9.5t15 28.5q0 27 -30.5 38t-73.5 9l31 71q-63 3 -119.5 24.5t-98.5 57.5l34 52q39 -35 90.5 -54t109.5 -19q67 0 113 34t46 92
q0 40 -22 67t-56.5 44.5t-88.5 36.5q-95 33 -151 77.5t-56 121.5q0 52 28.5 90.5t76 59t103.5 20.5q58 0 108 -16t98 -52l-30 -50q-41 29 -83 43t-90 14q-59 0 -101.5 -28t-42.5 -78q0 -39 22.5 -65t55 -42t86.5 -35q100 -36 154.5 -81t54.5 -124q0 -78 -52.5 -128z" />
    <glyph glyph-name="scedilla" unicode="&#x15f;" horiz-adv-x="396" 
d="M320 34q-34 -33 -89 -40l-21 -48q41 -4 65.5 -24t24.5 -54q0 -37 -28 -58t-73 -21q-55 0 -98 26l21 39q32 -21 72 -21q25 0 40 9.5t15 28.5q0 25 -29.5 36t-71.5 10l33 76q-74 4 -138 48l31 48q56 -40 130 -40q40 0 64.5 18.5t24.5 48.5q0 29 -26 47.5t-76 38.5
q-63 25 -97.5 54.5t-34.5 78.5q0 53 41.5 82.5t101.5 29.5q72 0 134 -40l-27 -44q-50 28 -104 28q-37 0 -61 -13.5t-24 -42.5q0 -27 23.5 -44.5t69.5 -35.5q69 -26 105 -57t36 -82q0 -49 -34 -82z" />
    <glyph glyph-name="Scaron" unicode="&#x160;" horiz-adv-x="567" 
d="M163 10q-61 22 -106 60l34 52q39 -35 90.5 -54t109.5 -19q67 0 113 34t46 92q0 40 -22 67t-56.5 44.5t-88.5 36.5q-95 33 -151 77.5t-56 121.5q0 52 28.5 90.5t76 59t103.5 20.5q58 0 108 -16t98 -52l-30 -50q-41 29 -83 43t-90 14q-59 0 -101.5 -28t-42.5 -78
q0 -39 22.5 -65t55 -42t86.5 -35q100 -36 154.5 -81t54.5 -124q0 -58 -30 -101t-81 -66t-114 -23q-67 0 -128 22zM155 859l26 33l109 -76l110 76l28 -34l-130 -103h-15z" />
    <glyph glyph-name="scaron" unicode="&#x161;" horiz-adv-x="396" 
d="M43 41l31 48q56 -40 130 -40q40 0 64.5 18.5t24.5 48.5q0 29 -26 47.5t-76 38.5q-63 25 -97.5 54.5t-34.5 78.5q0 53 41.5 82.5t101.5 29.5q72 0 134 -40l-27 -44q-50 28 -104 28q-37 0 -61 -13.5t-24 -42.5q0 -27 23.5 -44.5t69.5 -35.5q69 -26 105 -57t36 -82
q0 -55 -42 -89.5t-108 -34.5q-89 0 -161 49zM74 633l26 34l97 -76l98 76l27 -35l-117 -102h-15z" />
    <glyph glyph-name="uni0162" unicode="&#x162;" horiz-adv-x="530" 
d="M292 0l-23 -52q41 -4 67 -25t26 -54q0 -39 -30 -61t-76 -22q-60 0 -101 27l22 41q31 -22 74 -22q56 0 56 39q0 26 -30.5 37t-72.5 9l36 83h-8v620h-209v60h484v-60h-209v-620h-6z" />
    <glyph glyph-name="uni0163" unicode="&#x163;" horiz-adv-x="359" 
d="M291.5 -78q24.5 -20 24.5 -54q0 -37 -28.5 -58t-72.5 -21q-55 0 -98 26l21 39q32 -21 72 -21q25 0 40 9.5t15 28.5q0 25 -29.5 36t-71.5 10l34 77q-43 8 -66 41t-23 90v263l-86 4v50h86v147h61v-147h158v-54h-158v-263q0 -40 15.5 -57.5t46.5 -17.5q45 0 87 30l27 -46
q-47 -35 -100 -41l-20 -47q41 -4 65.5 -24z" />
    <glyph glyph-name="Tcaron" unicode="&#x164;" horiz-adv-x="530" 
d="M507 620h-209v-620h-66v620h-209v60h484v-60zM129 859l26 33l109 -76l110 76l28 -34l-130 -103h-15z" />
    <glyph glyph-name="tcaron" unicode="&#x165;" horiz-adv-x="353" 
d="M256 677h62q-6 -94 -44 -155h-45q27 79 27 155zM139 25.5q-30 33.5 -30 99.5v261l-86 4v52h86v147h61v-147h158v-56h-158v-261q0 -40 15.5 -58t44.5 -18q42 2 83 31l28 -46q-57 -42 -119 -42q-53 0 -83 33.5z" />
    <glyph glyph-name="Tbar" unicode="&#x166;" horiz-adv-x="530" 
d="M298 620v-260h134v-46h-134v-314h-66v314h-134v46h134v260h-209v60h484v-60h-209z" />
    <glyph glyph-name="tbar" unicode="&#x167;" horiz-adv-x="353" 
d="M341 34q-57 -42 -119 -42q-53 0 -83 33.5t-30 99.5v80h-50v46h50v135l-86 4v52h86v147h61v-147h158v-56h-158v-135h113v-46h-113v-80q0 -40 15.5 -57.5t44.5 -17.5q41 0 83 30z" />
    <glyph glyph-name="Utilde" unicode="&#x168;" horiz-adv-x="704" 
d="M220.5 16.5q-59.5 28.5 -94 83.5t-34.5 133v447h66v-446q0 -91 53 -138.5t142 -47.5q88 0 140.5 47.5t52.5 138.5v446h66v-447q0 -77 -34.5 -132.5t-93.5 -84t-131 -28.5q-73 0 -132.5 28.5zM217 802q27 70 78 70q28 0 70 -21q13 -7 24.5 -11.5t19.5 -4.5q24 0 38 35
l43 -24q-27 -68 -77 -68q-28 0 -63 19q-32 17 -49 17q-14 0 -24 -8.5t-17 -28.5z" />
    <glyph glyph-name="utilde" unicode="&#x169;" horiz-adv-x="519" 
d="M441 442v-442h-47l-13 77q-20 -38 -58.5 -61.5t-89.5 -23.5q-80 0 -120.5 48.5t-40.5 132.5v269h61v-270q0 -123 107 -123q64 0 102 50t38 123v220h61zM126 577q27 69 75 69q30 0 66 -21q30 -16 43 -16q23 0 36 35l43 -24q-26 -66 -75 -66q-26 0 -59 18q-34 18 -48 18
q-25 0 -38 -37z" />
    <glyph glyph-name="Umacron" unicode="&#x16a;" horiz-adv-x="704" 
d="M220.5 16.5q-59.5 28.5 -94 83.5t-34.5 133v447h66v-446q0 -91 53 -138.5t142 -47.5q88 0 140.5 47.5t52.5 138.5v446h66v-447q0 -77 -34.5 -132.5t-93.5 -84t-131 -28.5q-73 0 -132.5 28.5zM218 839h265v-54h-265v54z" />
    <glyph glyph-name="umacron" unicode="&#x16b;" horiz-adv-x="519" 
d="M441 442v-442h-47l-13 77q-20 -38 -58.5 -61.5t-89.5 -23.5q-80 0 -120.5 48.5t-40.5 132.5v269h61v-270q0 -123 107 -123q64 0 102 50t38 123v220h61zM130 613h257v-53h-257v53z" />
    <glyph glyph-name="Ubreve" unicode="&#x16c;" horiz-adv-x="704" 
d="M220.5 16.5q-59.5 28.5 -94 83.5t-34.5 133v447h66v-446q0 -91 53 -138.5t142 -47.5q88 0 140.5 47.5t52.5 138.5v446h66v-447q0 -77 -34.5 -132.5t-93.5 -84t-131 -28.5q-73 0 -132.5 28.5zM271 780.5q-35 27.5 -46 78.5l46 12q7 -30 30.5 -47.5t52.5 -17.5t52.5 17.5
t30.5 47.5l46 -12q-11 -51 -46 -78.5t-83 -27.5t-83 27.5z" />
    <glyph glyph-name="ubreve" unicode="&#x16d;" horiz-adv-x="519" 
d="M441 442v-442h-47l-13 77q-20 -38 -58.5 -61.5t-89.5 -23.5q-80 0 -120.5 48.5t-40.5 132.5v269h61v-270q0 -123 107 -123q64 0 102 50t38 123v220h61zM181 555.5q-33 27.5 -44 78.5l46 11q7 -30 29 -47t49 -17q25 0 46 17.5t27 46.5l46 -11q-10 -51 -43 -78.5t-78 -27.5
t-78 27.5z" />
    <glyph glyph-name="Uring" unicode="&#x16e;" horiz-adv-x="704" 
d="M220.5 16.5q-59.5 28.5 -94 83.5t-34.5 133v447h66v-446q0 -91 53 -138.5t142 -47.5q88 0 140.5 47.5t52.5 138.5v446h66v-447q0 -77 -34.5 -132.5t-93.5 -84t-131 -28.5q-73 0 -132.5 28.5zM279.5 755q-31.5 26 -31.5 72t30.5 72t73.5 26t74.5 -26t31.5 -72
q0 -45 -31 -71.5t-73 -26.5q-43 0 -74.5 26zM395 784.5q17 15.5 17 42.5q0 28 -17.5 43.5t-42.5 15.5q-24 0 -41 -16t-17 -43t17.5 -42.5t41.5 -15.5q25 0 42 15.5z" />
    <glyph glyph-name="uring" unicode="&#x16f;" horiz-adv-x="519" 
d="M441 442v-442h-47l-13 77q-20 -38 -58.5 -61.5t-89.5 -23.5q-80 0 -120.5 48.5t-40.5 132.5v269h61v-270q0 -123 107 -123q64 0 102 50t38 123v220h61zM185 531.5q-31 25.5 -31 70.5t30.5 70.5t73.5 25.5q42 0 72.5 -25.5t30.5 -70.5t-30 -70.5t-72 -25.5q-43 0 -74 25.5
zM298.5 561q16.5 15 16.5 41q0 27 -16.5 42t-40.5 15t-41 -15.5t-17 -41.5t17.5 -41t40.5 -15q24 0 40.5 15z" />
    <glyph glyph-name="Uhungarumlaut" unicode="&#x170;" horiz-adv-x="704" 
d="M220.5 16.5q-59.5 28.5 -94 83.5t-34.5 133v447h66v-446q0 -91 53 -138.5t142 -47.5q88 0 140.5 47.5t52.5 138.5v446h66v-447q0 -77 -34.5 -132.5t-93.5 -84t-131 -28.5q-73 0 -132.5 28.5zM221 778l97 139l52 -35l-110 -131zM382 778l97 139l52 -35l-110 -131z" />
    <glyph glyph-name="uhungarumlaut" unicode="&#x171;" horiz-adv-x="519" 
d="M441 442v-442h-47l-13 77q-20 -38 -58.5 -61.5t-89.5 -23.5q-80 0 -120.5 48.5t-40.5 132.5v269h61v-270q0 -123 107 -123q64 0 102 50t38 123v220h61zM126 553l97 139l52 -35l-110 -131zM287 553l97 139l52 -35l-110 -131z" />
    <glyph glyph-name="Uogonek" unicode="&#x172;" horiz-adv-x="704" 
d="M612 680v-447q0 -65 -25 -115t-69 -82q-68 -59 -93.5 -94.5t-25.5 -64.5q0 -17 11 -26.5t32 -9.5q25 0 49 17l19 -50q-34 -24 -81 -24q-45 0 -70 22.5t-25 59.5q0 57 66 125q-22 -3 -47 -3q-73 0 -132.5 28.5t-94 83.5t-34.5 133v447h66v-446q0 -91 53 -138.5t142 -47.5
q88 0 140.5 47.5t52.5 138.5v446h66z" />
    <glyph glyph-name="uogonek" unicode="&#x173;" horiz-adv-x="519" 
d="M464 -189q-34 -24 -81 -24q-43 0 -66.5 22.5t-23.5 56.5q0 36 25.5 73.5t72.5 79.5l-10 58q-20 -38 -58.5 -61.5t-89.5 -23.5q-80 0 -120.5 48.5t-40.5 132.5v269h61v-270q0 -123 107 -123q64 0 102 50t38 123v220h61v-441l1 -1q-88 -71 -88 -123q0 -36 42 -36
q25 0 50 17z" />
    <glyph glyph-name="Wcircumflex" unicode="&#x174;" horiz-adv-x="964" 
d="M942 680v-3l-235 -682h-20l-179 441q-11 25 -27 77q-19 -60 -26 -77l-179 -441h-20l-234 682v3h68l150 -445q20 -57 32 -104q17 60 35 103l164 410h19l158 -390q26 -65 44 -124q11 42 37 117l145 433h68zM344 787l130 102h14l129 -103l-26 -34l-109 76l-111 -76z" />
    <glyph glyph-name="wcircumflex" unicode="&#x175;" horiz-adv-x="665" 
d="M644 442v-2l-155 -445h-19l-137 306l-139 -306h-18l-155 445v2h62l92 -265q7 -21 17 -56q7 21 22 54l111 243h15l110 -242q13 -26 23 -56q12 41 18 58l91 264h62zM207 559l118 102h14l116 -103l-26 -34l-96 76l-98 -76z" />
    <glyph glyph-name="Ycircumflex" unicode="&#x176;" horiz-adv-x="625" 
d="M602 680v-3l-257 -372v-305h-65v305l-257 372v3h76l155 -226q37 -55 59 -95q23 43 58 95l155 226h76zM175 787l130 102h14l129 -103l-26 -34l-109 76l-111 -76z" />
    <glyph glyph-name="ycircumflex" unicode="&#x177;" horiz-adv-x="461" 
d="M447 442v-2l-272 -660h-64v2l98 230l-193 428v2h64l127 -283q21 -47 32 -82q12 36 30 82l115 283h63zM105 559l118 102h14l116 -103l-26 -34l-96 76l-98 -76z" />
    <glyph glyph-name="Ydieresis" unicode="&#x178;" horiz-adv-x="625" 
d="M602 680v-3l-257 -372v-305h-65v305l-257 372v3h76l155 -226q37 -55 59 -95q23 43 58 95l155 226h76zM183.5 795q-12.5 13 -12.5 31t12 32t33 14t33.5 -13.5t12.5 -30.5q0 -18 -12.5 -32t-33.5 -14q-20 0 -32.5 13zM373.5 795.5q-12.5 13.5 -12.5 31.5q0 17 12.5 31
t33.5 14t33 -14t12 -31q0 -18 -12 -31.5t-33 -13.5t-33.5 13.5z" />
    <glyph glyph-name="Zacute" unicode="&#x179;" horiz-adv-x="573" 
d="M44 20l340 534l12 20l31 47q-23 -1 -70 -1h-296v60h462v-20l-342 -539q-33 -51 -41 -62q23 1 63 1h330v-60h-489v20zM205 798l132 113l40 -47l-141 -101z" />
    <glyph glyph-name="zacute" unicode="&#x17a;" horiz-adv-x="415" 
d="M374 56v-56h-331v19l208 323q13 22 29 45q-24 -1 -54 -1h-172v56h317v-18l-196 -303q-30 -47 -44 -66q29 1 74 1h169zM126 573l132 113l40 -47l-141 -102z" />
    <glyph glyph-name="Zdotaccent" unicode="&#x17b;" horiz-adv-x="573" 
d="M44 20l340 534l12 20l31 47q-23 -1 -70 -1h-296v60h462v-20l-342 -539q-33 -51 -41 -62q23 1 63 1h330v-60h-489v20zM256.5 793.5q-12.5 13.5 -12.5 32.5q0 20 12 34t35 14t35.5 -14.5t12.5 -34.5q0 -18 -13 -31.5t-35 -13.5t-34.5 13.5z" />
    <glyph glyph-name="zdotaccent" unicode="&#x17c;" horiz-adv-x="415" 
d="M374 56v-56h-331v19l208 323q13 22 29 45q-24 -1 -54 -1h-172v56h317v-18l-196 -303q-30 -47 -44 -66q29 1 74 1h169zM177 569.5q-13 13.5 -13 32.5q0 21 13 34.5t34 13.5t34.5 -14t13.5 -35q0 -19 -13.5 -32t-34.5 -13t-34 13.5z" />
    <glyph glyph-name="Zcaron" unicode="&#x17d;" horiz-adv-x="573" 
d="M44 20l340 534l12 20l31 47q-23 -1 -70 -1h-296v60h462v-20l-342 -539q-33 -51 -41 -62q23 1 63 1h330v-60h-489v20zM155 859l26 33l109 -76l110 76l28 -34l-130 -103h-15z" />
    <glyph glyph-name="zcaron" unicode="&#x17e;" horiz-adv-x="415" 
d="M374 56v-56h-331v19l208 323q13 22 29 45q-24 -1 -54 -1h-172v56h317v-18l-196 -303q-30 -47 -44 -66q29 1 74 1h169zM87 633l26 34l97 -76l98 76l27 -35l-117 -102h-15z" />
    <glyph glyph-name="florin" unicode="&#x192;" horiz-adv-x="464" 
d="M282 509l-11 -109h129l-6 -60h-129l-36 -344q-9 -84 -50 -125t-108 -41q-58 0 -95 33l27 51q30 -24 67 -24q82 0 92 106l35 344l-122 3l5 57h123l11 110q8 80 50 123t108 43q60 0 95 -34l-27 -50q-29 23 -67 23q-81 0 -91 -106z" />
    <glyph glyph-name="AEacute" unicode="&#x1fc;" horiz-adv-x="859" 
d="M815 60v-60h-373v157h-264l-102 -157h-72v3l441 677h360v-60h-300v-240h264v-59h-264v-261h310zM442 216v251v101q-9 -17 -38 -63l-187 -289h225zM470 798l132 113l40 -47l-141 -101z" />
    <glyph glyph-name="aeacute" unicode="&#x1fd;" horiz-adv-x="754" 
d="M667.5 388.5q46.5 -58.5 46.5 -150.5q0 -11 -2 -35h-325q5 -72 45 -114t103 -42q36 0 66 12t58 40l34 -42q-32 -32 -73 -49.5t-84 -17.5q-62 0 -107.5 29t-69.5 81q-28 -55 -72 -81.5t-105 -26.5q-60 0 -99.5 34t-39.5 92q0 74 63 110.5t157 36.5q36 0 69 -4v36
q0 93 -104 93q-34 0 -72.5 -10.5t-69.5 -26.5l-20 52q88 42 167 42q53 0 89.5 -21t48.5 -66q22 41 63.5 64t100.5 23q86 0 132.5 -58.5zM654 257q-2 61 -34 97t-88 36q-61 0 -98 -35t-46 -98h266zM291 92q40 43 41 117q-29 4 -64 4q-71 0 -116 -21.5t-45 -71.5q0 -33 22 -52
t61 -19q61 0 101 43zM288 573l132 113l40 -47l-141 -102z" />
    <glyph glyph-name="Oslashacute" unicode="&#x1fe;" horiz-adv-x="803" 
d="M714 497q32 -71 32 -156q0 -97 -44 -177.5t-122.5 -128t-178.5 -47.5q-99 0 -180 49l-58 -83l-42 29l59 84q-58 49 -90.5 120.5t-32.5 153.5q0 100 44 180t122.5 125.5t177.5 45.5q101 0 182 -47l67 97l42 -28l-68 -98q58 -48 90 -119zM147.5 216.5
q24.5 -57.5 68.5 -97.5l331 474q-65 38 -146 38t-144.5 -37.5t-98.5 -103.5t-35 -149q0 -67 24.5 -124.5zM546.5 88q63.5 39 98.5 106t35 147q0 69 -24 126.5t-69 96.5l-331 -475q63 -40 145 -40t145.5 39zM316 798l132 113l40 -47l-141 -101z" />
    <glyph glyph-name="oslashacute" unicode="&#x1ff;" horiz-adv-x="550" 
d="M483.5 323.5q20.5 -46.5 20.5 -102.5q0 -67 -29.5 -120t-81.5 -82.5t-119 -29.5q-64 0 -112 27l-38 -56l-38 26l38 55q-37 31 -57.5 77.5t-20.5 102.5q0 67 29 120t81 82.5t118 29.5q64 0 113 -26l39 55l37 -26l-37 -55q37 -31 57.5 -77.5zM121.5 147.5
q13.5 -33.5 37.5 -57.5l196 287q-36 19 -81 19q-48 0 -86 -22.5t-59 -62.5t-21 -90q0 -40 13.5 -73.5zM395 95q47 49 47 126q0 40 -13.5 74t-38.5 57l-196 -287q36 -19 80 -19q74 0 121 49zM190 573l132 113l40 -47l-141 -102z" />
    <glyph glyph-name="uni0218" unicode="&#x218;" horiz-adv-x="567" 
d="M163 10q-61 22 -106 60l34 52q39 -35 90.5 -54t109.5 -19q67 0 113 34t46 92q0 40 -22 67t-56.5 44.5t-88.5 36.5q-95 33 -151 77.5t-56 121.5q0 52 28.5 90.5t76 59t103.5 20.5q58 0 108 -16t98 -52l-30 -50q-41 29 -83 43t-90 14q-59 0 -101.5 -28t-42.5 -78
q0 -39 22.5 -65t55 -42t86.5 -35q100 -36 154.5 -81t54.5 -124q0 -58 -30 -101t-81 -66t-114 -23q-67 0 -128 22zM261 -105h67q-9 -104 -50 -171h-48q31 86 31 171z" />
    <glyph glyph-name="uni0219" unicode="&#x219;" horiz-adv-x="396" 
d="M43 41l31 48q56 -40 130 -40q40 0 64.5 18.5t24.5 48.5q0 29 -26 47.5t-76 38.5q-63 25 -97.5 54.5t-34.5 78.5q0 53 41.5 82.5t101.5 29.5q72 0 134 -40l-27 -44q-50 28 -104 28q-37 0 -61 -13.5t-24 -42.5q0 -27 23.5 -44.5t69.5 -35.5q69 -26 105 -57t36 -82
q0 -55 -42 -89.5t-108 -34.5q-89 0 -161 49zM172 -105h67q-9 -104 -50 -171h-48q31 86 31 171z" />
    <glyph glyph-name="uni021A" unicode="&#x21a;" horiz-adv-x="530" 
d="M507 620h-209v-620h-66v620h-209v60h484v-60zM232 -105h67q-9 -104 -50 -171h-48q31 86 31 171z" />
    <glyph glyph-name="uni021B" unicode="&#x21b;" horiz-adv-x="359" 
d="M139.5 25q-30.5 33 -30.5 100v263l-86 4v50h86v147h61v-147h158v-54h-158v-263q0 -40 15.5 -57.5t46.5 -17.5q45 0 87 30l27 -46q-55 -42 -120 -42q-56 0 -86.5 33zM189 -105h67q-9 -104 -50 -171h-48q31 86 31 171z" />
    <glyph glyph-name="uni0237" unicode="&#x237;" horiz-adv-x="221" 
d="M-39 -176q49 4 75 20t36 46t10 80v472h61v-469q0 -69 -15.5 -111.5t-53.5 -65t-105 -26.5z" />
    <glyph glyph-name="circumflex" unicode="&#x2c6;" horiz-adv-x="353" 
d="M55 559l118 102h14l116 -103l-26 -34l-96 76l-98 -76z" />
    <glyph glyph-name="caron" unicode="&#x2c7;" horiz-adv-x="353" 
d="M56 633l26 34l97 -76l98 76l27 -35l-117 -102h-15z" />
    <glyph glyph-name="breve" unicode="&#x2d8;" horiz-adv-x="352" 
d="M100 555.5q-33 27.5 -44 78.5l46 11q7 -30 29 -47t49 -17q25 0 46 17.5t27 46.5l46 -11q-10 -51 -43 -78.5t-78 -27.5t-78 27.5z" />
    <glyph glyph-name="dotaccent" unicode="&#x2d9;" horiz-adv-x="202" 
d="M67 569.5q-13 13.5 -13 32.5q0 21 13 34.5t34 13.5t34.5 -14t13.5 -35q0 -19 -13.5 -32t-34.5 -13t-34 13.5z" />
    <glyph glyph-name="ring" unicode="&#x2da;" horiz-adv-x="283" 
d="M71 531.5q-31 25.5 -31 70.5t30.5 70.5t73.5 25.5q42 0 72.5 -25.5t30.5 -70.5t-30 -70.5t-72 -25.5q-43 0 -74 25.5zM184.5 561q16.5 15 16.5 41q0 27 -16.5 42t-40.5 15t-41 -15.5t-17 -41.5t17.5 -41t40.5 -15q24 0 40.5 15z" />
    <glyph glyph-name="ogonek" unicode="&#x2db;" horiz-adv-x="241" 
d="M66.5 -190.5q-23.5 22.5 -23.5 56.5q0 38 27.5 77t79.5 84l42 -27q-88 -71 -88 -123q0 -36 42 -36q25 0 50 17l18 -47q-35 -24 -81 -24q-43 0 -66.5 22.5z" />
    <glyph glyph-name="tilde" unicode="&#x2dc;" horiz-adv-x="356" 
d="M48 577q27 69 75 69q30 0 66 -21q30 -16 43 -16q23 0 36 35l43 -24q-26 -66 -75 -66q-26 0 -59 18q-34 18 -48 18q-25 0 -38 -37z" />
    <glyph glyph-name="hungarumlaut" unicode="&#x2dd;" horiz-adv-x="377" 
d="M39 553l97 139l52 -35l-110 -131zM200 553l97 139l52 -35l-110 -131z" />
    <glyph glyph-name="gravecomb" unicode="&#x300;" 
d="M-213 638l42 48l131 -113l-31 -36z" />
    <glyph glyph-name="acutecomb" unicode="&#x301;" 
d="M-221 573l132 113l40 -47l-141 -102z" />
    <glyph glyph-name="uni0302" unicode="&#x302;" 
d="M-301 559l118 102h14l116 -103l-26 -34l-96 76l-98 -76z" />
    <glyph glyph-name="tildecomb" unicode="&#x303;" 
d="M-311 577q27 69 75 69q30 0 66 -21q30 -16 43 -16q23 0 36 35l43 -24q-26 -66 -75 -66q-26 0 -59 18q-34 18 -48 18q-25 0 -38 -37z" />
    <glyph glyph-name="uni0304" unicode="&#x304;" 
d="M-320 613h257v-53h-257v53z" />
    <glyph glyph-name="uni0306" unicode="&#x306;" 
d="M-255 555.5q-33 27.5 -44 78.5l46 11q7 -30 29 -47t49 -17q25 0 46 17.5t27 46.5l46 -11q-10 -51 -43 -78.5t-78 -27.5t-78 27.5z" />
    <glyph glyph-name="uni0307" unicode="&#x307;" 
d="M-139 569.5q-13 13.5 -13 32.5q0 21 13 34.5t34 13.5t34.5 -14t13.5 -35q0 -19 -13.5 -32t-34.5 -13t-34 13.5z" />
    <glyph glyph-name="uni0308" unicode="&#x308;" 
d="M-310 573.5q-12 12.5 -12 29.5q0 18 11.5 31.5t32.5 13.5q20 0 32 -13t12 -30t-12 -30.5t-32 -13.5t-32 12.5zM-137.5 574q-11.5 13 -11.5 30t11.5 30.5t31.5 13.5t32 -13.5t12 -30.5t-12 -30t-32 -13t-31.5 13z" />
    <glyph glyph-name="uni030A" unicode="&#x30a;" 
d="M-216 531.5q-31 25.5 -31 70.5t30.5 70.5t73.5 25.5q42 0 72.5 -25.5t30.5 -70.5t-30 -70.5t-72 -25.5q-43 0 -74 25.5zM-102.5 561q16.5 15 16.5 41q0 27 -16.5 42t-40.5 15t-41 -15.5t-17 -41.5t17.5 -41t40.5 -15q24 0 40.5 15z" />
    <glyph glyph-name="uni030B" unicode="&#x30b;" 
d="M-341 553l97 139l52 -35l-110 -131zM-180 553l97 139l52 -35l-110 -131z" />
    <glyph glyph-name="uni030C" unicode="&#x30c;" 
d="M-301 633l26 34l97 -76l98 76l27 -35l-117 -102h-15z" />
    <glyph glyph-name="uni0312" unicode="&#x312;" 
d="M-96 712h48q-32 -83 -32 -171h-67q9 102 51 171z" />
    <glyph glyph-name="uni0326" unicode="&#x326;" 
d="M-116 -105h67q-9 -104 -50 -171h-48q31 86 31 171z" />
    <glyph glyph-name="uni0327" unicode="&#x327;" 
d="M-247 -185l21 39q32 -21 72 -21q25 0 40 9.5t15 28.5q0 25 -29.5 36t-71.5 10l35 80h49l-22 -51q41 -4 65.5 -24t24.5 -54q0 -37 -28 -58t-73 -21q-55 0 -98 26z" />
    <glyph glyph-name="uni0328" unicode="&#x328;" 
d="M-178.5 -190.5q-23.5 22.5 -23.5 56.5q0 38 27.5 77t79.5 84l42 -27q-88 -71 -88 -123q0 -36 42 -36q25 0 50 17l18 -47q-35 -24 -81 -24q-43 0 -66.5 22.5z" />
    <glyph glyph-name="pi" unicode="&#x3c0;" horiz-adv-x="594" 
d="M117 385h-89v57h544v-57h-89v-387h-61v387h-244v-387h-61v387z" />
    <glyph glyph-name="uni0400" unicode="&#x400;" horiz-adv-x="559" 
d="M515 60v-60h-415v680h406v-60h-340v-242h299v-59h-299v-259h349zM198 863l42 48l131 -113l-31 -35z" />
    <glyph glyph-name="uni0401" unicode="&#x401;" horiz-adv-x="559" 
d="M515 60v-60h-415v680h406v-60h-340v-242h299v-59h-299v-259h349zM176.5 795q-12.5 13 -12.5 31t12 32t33 14t33.5 -13.5t12.5 -30.5q0 -18 -12.5 -32t-33.5 -14q-20 0 -32.5 13zM366.5 795.5q-12.5 13.5 -12.5 31.5q0 17 12.5 31t33.5 14t33 -14t12 -31q0 -18 -12 -31.5
t-33 -13.5t-33.5 13.5z" />
    <glyph glyph-name="uni0402" unicode="&#x402;" horiz-adv-x="697" 
d="M579.5 368q54.5 -54 54.5 -160q0 -39 -16 -84t-52 -82t-92 -52l-17 55q112 40 112 172q0 73 -35.5 108.5t-109.5 35.5q-76 0 -138 -26v-335h-66v620h-197v60h490v-60h-227v-223q64 25 137 25q102 0 156.5 -54z" />
    <glyph glyph-name="uni0403" unicode="&#x403;" horiz-adv-x="524" 
d="M100 680h404v-60h-338v-620h-66v680zM229 798l132 113l40 -47l-141 -101z" />
    <glyph glyph-name="uni0404" unicode="&#x404;" horiz-adv-x="701" 
d="M673 115q-54 -58 -119 -91.5t-152 -33.5q-99 0 -178 47t-123 127.5t-44 176.5q0 99 44 179t123 125t178 45q81 0 142.5 -28t112.5 -82l-40 -39q-48 46 -96.5 67.5t-115.5 21.5q-78 0 -139.5 -33.5t-98.5 -92.5t-43 -134h314v-60h-314q7 -73 44 -132.5t97.5 -93.5
t136.5 -34q131 0 232 108z" />
    <glyph glyph-name="uni0405" unicode="&#x405;" horiz-adv-x="567" 
d="M163 10q-61 22 -106 60l34 52q39 -35 90.5 -54t109.5 -19q67 0 113 34t46 92q0 40 -22 67t-56.5 44.5t-88.5 36.5q-95 33 -151 77.5t-56 121.5q0 52 28.5 90.5t76 59t103.5 20.5q58 0 108 -16t98 -52l-30 -50q-41 29 -83 43t-90 14q-59 0 -101.5 -28t-42.5 -78
q0 -39 22.5 -65t55 -42t86.5 -35q100 -36 154.5 -81t54.5 -124q0 -58 -30 -101t-81 -66t-114 -23q-67 0 -128 22z" />
    <glyph glyph-name="uni0406" unicode="&#x406;" horiz-adv-x="266" 
d="M100 680h66v-680h-66v680z" />
    <glyph glyph-name="uni0407" unicode="&#x407;" horiz-adv-x="266" 
d="M100 680h66v-680h-66v680zM4.5 786q-12.5 13 -12.5 31t12 32t33 14t33.5 -13.5t12.5 -30.5q0 -18 -12.5 -32t-33.5 -14q-20 0 -32.5 13zM194.5 786.5q-12.5 13.5 -12.5 31.5q0 17 12.5 31t33.5 14t33 -14t12 -31q0 -18 -12 -31.5t-33 -13.5t-33.5 13.5z" />
    <glyph glyph-name="uni0408" unicode="&#x408;" horiz-adv-x="507" 
d="M18 50l33 53q67 -54 153 -54q70 0 107.5 42t37.5 121v468h65v-469q0 -108 -54 -165.5t-156 -57.5t-186 62z" />
    <glyph glyph-name="uni0409" unicode="&#x409;" horiz-adv-x="983" 
d="M845.5 373q48.5 -26 76 -71.5t27.5 -101.5t-28 -101.5t-76.5 -72t-107.5 -26.5h-226v620h-233l-33 -297q-18 -166 -73 -246.5t-154 -81.5l-4 57q67 0 108.5 71t58.5 219l38 338h357v-281h161q60 0 108.5 -26zM842.5 98q40.5 38 40.5 102t-40.5 101.5t-105.5 37.5h-161
v-279h161q65 0 105.5 38z" />
    <glyph glyph-name="uni040A" unicode="&#x40a;" horiz-adv-x="1004" 
d="M868 358q48 -25 75 -69t27 -98t-27 -97.5t-75 -68.5t-108 -25h-228v322h-366v-322h-66v680h66v-297h366v297h66v-297h162q60 0 108 -25zM834 77.5q33 17.5 52 47.5t19 66q0 56 -41 93.5t-104 37.5h-162v-262h162q41 0 74 17.5z" />
    <glyph glyph-name="uni040B" unicode="&#x40b;" horiz-adv-x="699" 
d="M575 374.5q52 -48.5 52 -131.5v-243h-66v244q0 55 -35.5 87t-99.5 32q-72 0 -140 -27v-336h-66v620h-197v60h490v-60h-227v-219q69 22 145 22q92 0 144 -48.5z" />
    <glyph glyph-name="uni040C" unicode="&#x40c;" horiz-adv-x="583" 
d="M573 3v-3h-83l-324 321v-321h-66v680h66v-321l307 321h81v-3l-322 -335zM256 798l132 113l40 -47l-141 -101z" />
    <glyph glyph-name="uni040D" unicode="&#x40d;" horiz-adv-x="764" 
d="M664 685v-685h-66v460q0 45 3 91q-31 -40 -74 -88l-407 -468h-20v685h66v-451q0 -50 -3 -100q41 51 81 95l400 461h20zM294 863l42 48l131 -113l-31 -35z" />
    <glyph glyph-name="uni040E" unicode="&#x40e;" horiz-adv-x="612" 
d="M600 680l-228 -483q-37 -78 -70.5 -119.5t-77 -60.5t-112.5 -22l-4 58q70 1 108.5 28t72.5 87l-278 512h70l242 -442l208 442h69zM163 831l41 29q17 -27 44.5 -43t61.5 -16t61.5 16t45.5 43l39 -29q-43 -82 -146 -82t-147 82z" />
    <glyph glyph-name="uni040F" unicode="&#x40f;" horiz-adv-x="713" 
d="M613 0h-224v-152h-66v152h-223v680h66v-620h381v620h66v-680z" />
    <glyph glyph-name="uni0410" unicode="&#x410;" horiz-adv-x="682" 
d="M668 2v-2h-69l-72 156h-372l-72 -156h-69v2l316 683h22zM303 478l-120 -262h317l-121 262q-26 60 -38 91q-12 -31 -38 -91z" />
    <glyph glyph-name="uni0411" unicode="&#x411;" horiz-adv-x="626" 
d="M100 680h414v-60h-348v-221h188q63 0 113.5 -26t78.5 -71.5t28 -101.5t-28.5 -102t-78.5 -72t-113 -26h-254v680zM354 60q70 0 112.5 37.5t42.5 102.5q0 64 -42.5 101t-112.5 37h-188v-278h188z" />
    <glyph glyph-name="uni0412" unicode="&#x412;" horiz-adv-x="633" 
d="M548 292q31 -46 31 -103q0 -55 -27 -98t-74 -67t-106 -24h-272v680h254q54 0 98 -22.5t70 -62.5t26 -91q0 -47 -22 -84t-60 -60q51 -22 82 -68zM166 384h186q61 0 96 31.5t35 88.5q0 53 -37.5 84.5t-95.5 31.5h-184v-236zM472.5 96q40.5 36 40.5 97q0 58 -39 94.5
t-100 36.5h-208v-264h203q63 0 103.5 36z" />
    <glyph glyph-name="uni0413" unicode="&#x413;" horiz-adv-x="524" 
d="M100 680h404v-60h-338v-620h-66v680z" />
    <glyph glyph-name="uni0414" unicode="&#x414;" horiz-adv-x="693" 
d="M665 60v-212h-66v152h-529v-152h-65v212h78q61 118 78 282l36 338h386v-620h82zM155 60h363v560h-263l-31 -294q-16 -148 -69 -266z" />
    <glyph glyph-name="uni0415" unicode="&#x415;" horiz-adv-x="559" 
d="M515 60v-60h-415v680h406v-60h-340v-242h299v-59h-299v-259h349z" />
    <glyph glyph-name="uni0416" unicode="&#x416;" horiz-adv-x="827" 
d="M817 3v-3h-79l-292 315v-315h-65v315l-292 -315h-79v3l313 339l-304 336v2h77l285 -315v315h65v-315l285 315h76v-3l-303 -335z" />
    <glyph glyph-name="uni0417" unicode="&#x417;" horiz-adv-x="561" 
d="M31 84l35 45q38 -36 91 -57t117 -21q73 0 120.5 38.5t47.5 102.5q0 61 -43 96.5t-112 35.5h-98v60h96q58 0 91 34t33 87q0 57 -42 91t-112 34q-93 0 -167 -62l-33 46q87 76 199 76q64 0 114.5 -24t78.5 -65.5t28 -92.5q0 -49 -25 -89.5t-67 -59.5q59 -19 92 -64.5
t33 -105.5q0 -55 -29 -100t-82.5 -71.5t-122.5 -26.5q-148 0 -243 93z" />
    <glyph glyph-name="uni0418" unicode="&#x418;" horiz-adv-x="764" 
d="M664 685v-685h-66v460q0 45 3 91q-31 -40 -74 -88l-407 -468h-20v685h66v-451q0 -50 -3 -100q41 51 81 95l400 461h20z" />
    <glyph glyph-name="uni0419" unicode="&#x419;" horiz-adv-x="764" 
d="M664 685v-685h-66v460q0 45 3 91q-31 -40 -74 -88l-407 -468h-20v685h66v-451q0 -50 -3 -100q41 51 81 95l400 461h20zM254 831l41 29q17 -27 44.5 -43t61.5 -16t61.5 16t45.5 43l39 -29q-43 -82 -146 -82t-147 82z" />
    <glyph glyph-name="uni041A" unicode="&#x41a;" horiz-adv-x="583" 
d="M573 3v-3h-83l-324 321v-321h-66v680h66v-321l307 321h81v-3l-322 -335z" />
    <glyph glyph-name="uni041B" unicode="&#x41b;" horiz-adv-x="707" 
d="M14 51q51 4 84 31.5t53 85t31 154.5l40 358h385v-680h-66v620h-264l-33 -300q-12 -111 -38 -180t-70.5 -104.5t-113.5 -40.5z" />
    <glyph glyph-name="uni041C" unicode="&#x41c;" horiz-adv-x="862" 
d="M803 0h-64l-66 469q-6 42 -7 67l-37 -61l-190 -307h-15l-191 309l-35 57q-1 -12 -9 -65l-65 -469h-65l97 686h20l213 -346q25 -40 42 -72q14 27 42 73l214 345h19z" />
    <glyph glyph-name="uni041D" unicode="&#x41d;" horiz-adv-x="744" 
d="M100 680h66v-307h413v307h65v-680h-65v313h-413v-313h-66v680z" />
    <glyph glyph-name="uni041E" unicode="&#x41e;" horiz-adv-x="803" 
d="M224.5 35.5q-78.5 47.5 -123 128.5t-44.5 177q0 100 44 180t122.5 125.5t177.5 45.5q100 0 178.5 -45.5t122.5 -125.5t44 -180q0 -97 -44 -177.5t-122.5 -128t-178.5 -47.5q-98 0 -176.5 47.5zM546.5 88q63.5 39 98.5 106t35 147q0 83 -35 149t-98.5 103.5t-145.5 37.5
q-81 0 -144.5 -37.5t-98.5 -103.5t-35 -149q0 -80 35.5 -147t98.5 -106t144 -39q82 0 145.5 39z" />
    <glyph glyph-name="uni041F" unicode="&#x41f;" horiz-adv-x="716" 
d="M100 680h516v-680h-66v620h-384v-620h-66v680z" />
    <glyph glyph-name="uni0420" unicode="&#x420;" horiz-adv-x="598" 
d="M100 680h251q67 0 115.5 -30.5t73.5 -78.5t25 -98t-24 -96t-73.5 -75t-120.5 -29h-181v-273h-66v680zM346 333q50 0 84.5 20t51.5 52t17 69q0 39 -18.5 72.5t-52.5 53.5t-78 20h-184v-287h180z" />
    <glyph glyph-name="uni0421" unicode="&#x421;" horiz-adv-x="699" 
d="M223.5 35.5q-78.5 47.5 -122.5 128t-44 177.5q0 100 44 180t123 125.5t178 45.5q78 0 139 -27.5t117 -83.5l-39 -40q-43 44 -95 67t-122 23q-81 0 -144.5 -38t-99 -104t-35.5 -148q0 -80 35.5 -147t99 -106t144.5 -39q69 0 126 30t96 83l47 -37q-44 -63 -113 -100
t-156 -37q-100 0 -178.5 47.5z" />
    <glyph glyph-name="uni0422" unicode="&#x422;" horiz-adv-x="530" 
d="M507 620h-209v-620h-66v620h-209v60h484v-60z" />
    <glyph glyph-name="uni0423" unicode="&#x423;" horiz-adv-x="612" 
d="M600 680l-228 -483q-37 -78 -70.5 -119.5t-77 -60.5t-112.5 -22l-4 58q70 1 108.5 28t72.5 87l-278 512h70l242 -442l208 442h69z" />
    <glyph glyph-name="uni0424" unicode="&#x424;" horiz-adv-x="821" 
d="M734 201q-40 -66 -115.5 -105.5t-176.5 -44.5v-103h-63v103q-100 5 -175.5 44.5t-116 105.5t-40.5 149t40.5 149t115.5 105.5t176 44.5v103h63v-103q102 -5 177 -44.5t115 -105t40 -149.5q0 -83 -40 -149zM584.5 147q60.5 31 92.5 83.5t32 119.5t-32 119.5t-92.5 83.5
t-143.5 36v-478q83 5 143.5 36zM184 183q71 -65 196 -72v478q-125 -7 -196 -72t-71 -167t71 -167z" />
    <glyph glyph-name="uni0425" unicode="&#x425;" horiz-adv-x="618" 
d="M20 2l251 351l-230 325v2h76l126 -177q38 -54 67 -101q36 58 67 103l124 175h75v-2l-229 -325l251 -351v-2h-76l-146 207q-47 66 -66 98q-33 -52 -67 -99l-147 -206h-76v2z" />
    <glyph glyph-name="uni0426" unicode="&#x426;" horiz-adv-x="731" 
d="M703 60v-212h-66v152h-537v680h66v-620h381v620h66v-620h90z" />
    <glyph glyph-name="uni0427" unicode="&#x427;" horiz-adv-x="644" 
d="M544 680v-680h-65v287q-91 -34 -179 -34q-241 0 -241 218v209h66v-206q0 -87 43 -124t131 -37q90 0 180 39v328h65z" />
    <glyph glyph-name="uni0428" unicode="&#x428;" horiz-adv-x="1014" 
d="M914 680v-680h-814v680h66v-620h308v620h66v-620h308v620h66z" />
    <glyph glyph-name="uni0429" unicode="&#x429;" horiz-adv-x="1032" 
d="M1004 60v-212h-66v152h-838v680h66v-620h308v620h66v-620h308v620h66v-620h90z" />
    <glyph glyph-name="uni042A" unicode="&#x42a;" horiz-adv-x="709" 
d="M571.5 373q48.5 -26 76 -71.5t27.5 -101.5t-28 -101.5t-76.5 -72t-107.5 -26.5h-254v620h-187v60h252v-281h189q60 0 108.5 -26zM568 98q41 38 41 102t-40.5 101.5t-105.5 37.5h-189v-279h189q64 0 105 38z" />
    <glyph glyph-name="uni042B" unicode="&#x42b;" horiz-adv-x="862" 
d="M100 680h66v-281h188q60 0 108.5 -26t76 -71.5t27.5 -101.5t-28 -101.5t-76.5 -72t-107.5 -26.5h-254v680zM696 680h66v-680h-66v680zM354 60q65 0 105.5 38t40.5 102t-40.5 101.5t-105.5 37.5h-188v-279h188z" />
    <glyph glyph-name="uni042C" unicode="&#x42c;" horiz-adv-x="600" 
d="M462.5 373q48.5 -26 76 -71.5t27.5 -101.5t-28 -101.5t-76.5 -72t-107.5 -26.5h-254v680h66v-281h188q60 0 108.5 -26zM459.5 98q40.5 38 40.5 102t-40.5 101.5t-105.5 37.5h-188v-279h188q65 0 105.5 38z" />
    <glyph glyph-name="uni042D" unicode="&#x42d;" horiz-adv-x="701" 
d="M477 645q79 -45 123 -125t44 -179q0 -96 -44 -176.5t-123 -127.5t-178 -47q-86 0 -151.5 33.5t-119.5 91.5l39 43q101 -108 232 -108q76 0 136.5 34t97.5 93.5t44 132.5h-326v60h326q-6 75 -43 134t-97.5 92.5t-137.5 33.5q-68 0 -118 -21.5t-97 -66.5l-38 40
q47 50 111 79t142 29q99 0 178 -45z" />
    <glyph glyph-name="uni042E" unicode="&#x42e;" horiz-adv-x="1034" 
d="M811.5 645q78.5 -45 122 -124.5t43.5 -179.5q0 -96 -44 -176.5t-122.5 -127.5t-177.5 -47q-94 0 -170 42.5t-121.5 116t-52.5 163.5h-123v-312h-66v680h66v-308h123q7 92 52.5 164.5t121.5 113t170 40.5q100 0 178.5 -45zM777.5 89q63.5 39 98.5 105.5t35 146.5
q0 83 -35 149t-98 103t-145 37t-145.5 -37.5t-98.5 -103t-35 -148.5q0 -80 35.5 -146.5t99 -105.5t144.5 -39t144.5 39z" />
    <glyph glyph-name="uni042F" unicode="&#x42f;" horiz-adv-x="634" 
d="M534 680v-680h-66v283h-171l-195 -283h-75v3l195 285q-77 14 -123 67t-46 127q0 57 27.5 102t78 70.5t115.5 25.5h260zM468 620h-194q-70 0 -112 -37.5t-42 -100.5t42 -100.5t112 -37.5h194v276z" />
    <glyph glyph-name="uni0430" unicode="&#x430;" horiz-adv-x="479" 
d="M361.5 407.5q45.5 -39.5 45.5 -113.5v-294h-45l-11 80q-25 -41 -67.5 -64.5t-99.5 -23.5q-65 0 -103 33t-38 90q0 73 61 114.5t160 41.5q50 0 81 -4v30q0 46 -30 69.5t-82 23.5q-67 0 -146 -37l-21 52q90 42 173 42q77 0 122.5 -39.5zM302.5 94.5q40.5 45.5 42.5 121.5
q-32 4 -72 4q-79 0 -122.5 -26.5t-43.5 -74.5q0 -33 23 -51.5t64 -18.5q68 0 108.5 45.5z" />
    <glyph glyph-name="uni0431" unicode="&#x431;" horiz-adv-x="559" 
d="M406 420.5q49 -26.5 79 -77.5t30 -122q0 -74 -30 -125.5t-81 -78t-115 -26.5q-65 0 -116 30t-80.5 91.5t-29.5 152.5v58q0 89 31.5 167t98.5 123q35 23 66 35.5t74 25.5q37 11 59 19.5t45 23.5l25 -55q-27 -17 -54 -27.5t-63 -20.5q-39 -12 -65.5 -22.5t-53.5 -27.5
q-44 -27 -70.5 -82t-32.5 -127q32 47 78 69.5t99 22.5q57 0 106 -26.5zM410.5 96.5q43.5 48.5 43.5 124.5q0 73 -44 121t-118 48q-47 0 -84.5 -22t-58.5 -61t-21 -87q0 -79 45 -125.5t116 -46.5q78 0 121.5 48.5z" />
    <glyph glyph-name="uni0432" unicode="&#x432;" horiz-adv-x="474" 
d="M406 189q22 -27 22 -68q0 -57 -39 -89t-104 -32h-207v442h190q64 0 101.5 -32t37.5 -85q0 -69 -61 -98q38 -11 60 -38zM139 387v-135h128q39 0 59 19t20 49q0 29 -20 48t-59 19h-128zM346 74.5q21 19.5 21 51.5t-21 51.5t-62 19.5h-145v-142h145q41 0 62 19.5z" />
    <glyph glyph-name="uni0433" unicode="&#x433;" horiz-adv-x="388" 
d="M78 442h286v-56h-225v-386h-61v442z" />
    <glyph glyph-name="uni0434" unicode="&#x434;" horiz-adv-x="515" 
d="M494 56v-173h-59v117h-359v-117h-59v173h58q20 32 28.5 65t13.5 84l23 237h291v-386h63zM176 195q-5 -48 -12 -79t-22 -60h228v329h-175z" />
    <glyph glyph-name="uni0435" unicode="&#x435;" horiz-adv-x="505" 
d="M412.5 395q52.5 -58 52.5 -156q0 -20 -3 -43h-354q7 -69 54 -109.5t111 -40.5q45 0 76.5 13.5t58.5 40.5l35 -44q-70 -67 -169 -67q-66 0 -118 29.5t-81 82.5t-29 121q0 64 28.5 116.5t79.5 83.5t115 31q91 0 143.5 -58zM163 356q-44 -40 -54 -106h296q-2 69 -39 107.5
t-98 38.5t-105 -40z" />
    <glyph glyph-name="uni0436" unicode="&#x436;" horiz-adv-x="608" 
d="M598 5v-5h-71l-192 208v-208h-61v209l-193 -209h-71v5l208 225l-186 209v3h73l169 -195v195h61v-195l168 195h73v-3l-186 -209z" />
    <glyph glyph-name="uni0437" unicode="&#x437;" horiz-adv-x="412" 
d="M28 43l28 49q62 -43 140 -43q54 0 81.5 22.5t27.5 57.5q0 33 -23 53t-69 20h-92v56h89q35 0 54.5 17.5t19.5 46.5t-23.5 48.5t-70.5 19.5q-59 0 -118 -32l-23 50q72 39 145 39q65 0 108 -32.5t43 -89.5q0 -30 -16 -55t-45 -36q40 -11 61 -40.5t21 -67.5q0 -62 -46.5 -98
t-122.5 -36q-93 0 -169 51z" />
    <glyph glyph-name="uni0438" unicode="&#x438;" horiz-adv-x="527" 
d="M449 442v-442h-61v270q0 34 1 51q-22 -28 -42 -50l-247 -271h-22v442h61v-262q0 -21 -2 -59q16 20 50 58l240 263h22z" />
    <glyph glyph-name="uni0439" unicode="&#x439;" horiz-adv-x="527" 
d="M449 442v-442h-61v270q0 34 1 51q-22 -28 -42 -50l-247 -271h-22v442h61v-262q0 -21 -2 -59q16 20 50 58l240 263h22zM192.5 553q-32.5 18 -52.5 54l37 28q15 -24 39 -37.5t51 -13.5t50.5 13.5t39.5 37.5l36 -28q-19 -36 -51.5 -54t-74.5 -18t-74.5 18z" />
    <glyph glyph-name="uni043A" unicode="&#x43a;" horiz-adv-x="434" 
d="M424 5v-5h-76l-209 205v-205h-61v442h61v-194l191 194h74v-3l-210 -211z" />
    <glyph glyph-name="uni043B" unicode="&#x43b;" horiz-adv-x="508" 
d="M8 49q60 6 85.5 44t31.5 116l19 233h286v-442h-61v385h-170l-14 -171q-6 -74 -24 -119.5t-53 -69t-93 -31.5z" />
    <glyph glyph-name="uni043C" unicode="&#x43c;" horiz-adv-x="618" 
d="M560 0h-61l-25 261q-4 39 -5 54q-12 -19 -25 -34l-15 -20l-113 -149h-15l-108 142q-32 42 -46 62q-1 -17 -5 -61l-24 -255h-60l41 442h19l163 -210q25 -33 28 -38q3 5 28 38l162 210h19z" />
    <glyph glyph-name="uni043D" unicode="&#x43d;" horiz-adv-x="524" 
d="M446 442v-442h-61v195h-246v-195h-61v442h61v-191h246v191h61z" />
    <glyph glyph-name="uni043E" unicode="&#x43e;" horiz-adv-x="550" 
d="M156 18.5q-52 29.5 -81 82.5t-29 120t29 120t81 82.5t118 29.5q67 0 119 -29.5t81.5 -82.5t29.5 -120t-29.5 -120t-81.5 -82.5t-119 -29.5q-66 0 -118 29.5zM395 95q47 49 47 126t-46.5 126t-121.5 49q-48 0 -86 -22.5t-59 -62.5t-21 -90q0 -77 46.5 -126t119.5 -49
q74 0 121 49z" />
    <glyph glyph-name="uni043F" unicode="&#x43f;" horiz-adv-x="523" 
d="M78 442h367v-442h-61v386h-245v-386h-61v442z" />
    <glyph glyph-name="uni0440" unicode="&#x440;" horiz-adv-x="575" 
d="M422 421.5q50 -29.5 78 -81.5t28 -117q0 -67 -28 -120t-78 -83t-113 -30q-54 0 -99 22.5t-73 60.5q2 -68 2 -119v-174h-61v662h46l13 -74q29 39 73.5 61t99.5 22q62 0 112 -29.5zM389 69q37 22 57.5 61.5t20.5 89.5t-20.5 90t-57.5 62t-84 22q-74 0 -121.5 -47.5
t-47.5 -123.5q0 -52 21.5 -92t60 -62t87.5 -22q47 0 84 22z" />
    <glyph glyph-name="uni0441" unicode="&#x441;" horiz-adv-x="460" 
d="M158.5 16.5q-50.5 27.5 -81.5 80t-31 125.5q0 71 31 123t82.5 79.5t112.5 27.5q47 0 85.5 -15t72.5 -45l-35 -42q-27 24 -56 34.5t-67 10.5q-46 0 -83.5 -21.5t-59 -61t-21.5 -90.5q0 -52 21.5 -92t58.5 -62t83 -22q43 0 73 13t59 40l34 -44q-36 -34 -75.5 -50t-95.5 -16
q-57 0 -107.5 27.5z" />
    <glyph glyph-name="uni0442" unicode="&#x442;" horiz-adv-x="384" 
d="M161 386h-141v56h344v-56h-142v-386h-61v386z" />
    <glyph glyph-name="uni0443" unicode="&#x443;" horiz-adv-x="461" 
d="M447 442v-2l-189 -462q-25 -61 -49.5 -100t-60.5 -64.5t-90 -36.5l-12 51q44 8 72 29.5t46.5 52.5t39.5 83l6 14l-194 433v2h64l106 -242q29 -65 53 -131q18 55 48 131l96 242h64z" />
    <glyph glyph-name="uni0444" unicode="&#x444;" horiz-adv-x="628" 
d="M552.5 106.5q-29.5 -50.5 -83 -80.5t-125.5 -34v-212h-60v212q-111 7 -174.5 69t-63.5 160t63.5 160.5t174.5 69.5v245h60v-245q72 -4 125.5 -34.5t83 -81t29.5 -114.5t-29.5 -114.5zM155 100.5q47 -45.5 130 -51.5v345q-83 -6 -130 -52t-47 -121t47 -120.5zM473.5 100.5
q47.5 45.5 47.5 120.5t-47.5 121t-130.5 52v-345q83 6 130.5 51.5z" />
    <glyph glyph-name="uni0445" unicode="&#x445;" horiz-adv-x="450" 
d="M26 2l164 231l-148 207v2h70l78 -111q17 -23 35 -54q12 21 36 55l79 110h68v-2l-148 -207l164 -231v-2h-70l-91 129q-20 27 -38 59q-25 -41 -39 -60l-92 -128h-68v2z" />
    <glyph glyph-name="uni0446" unicode="&#x446;" horiz-adv-x="528" 
d="M507 56v-173h-59v117h-370v442h61v-386h243v386h61v-386h64z" />
    <glyph glyph-name="uni0447" unicode="&#x447;" horiz-adv-x="461" 
d="M383 442v-442h-61v175q-57 -27 -119 -27q-80 0 -122 38.5t-42 115.5v140h61v-141q0 -51 27 -73.5t83 -22.5q34 0 60.5 6t51.5 20v211h61z" />
    <glyph glyph-name="uni0448" unicode="&#x448;" horiz-adv-x="726" 
d="M648 442v-442h-570v442h61v-386h193v386h61v-386h194v386h61z" />
    <glyph glyph-name="uni0449" unicode="&#x449;" horiz-adv-x="733" 
d="M711 56v-173h-59v117h-574v442h61v-386h193v386h61v-386h194v386h61v-386h63z" />
    <glyph glyph-name="uni044A" unicode="&#x44a;" horiz-adv-x="515" 
d="M438.5 246q43.5 -37 43.5 -104t-43.5 -104.5t-119.5 -37.5h-184v386h-121v56h182v-159h123q76 0 119.5 -37zM394.5 78q26.5 22 26.5 64t-26.5 64t-75.5 22h-123v-172h123q49 0 75.5 22z" />
    <glyph glyph-name="uni044B" unicode="&#x44b;" horiz-adv-x="650" 
d="M381.5 246.5q43.5 -37.5 43.5 -104.5t-43.5 -104.5t-119.5 -37.5h-184v442h61v-158h123q76 0 119.5 -37.5zM572 442v-442h-61v442h61zM338 78q26 22 26 64t-26 64t-76 22h-123v-172h123q50 0 76 22z" />
    <glyph glyph-name="uni044C" unicode="&#x44c;" horiz-adv-x="458" 
d="M381.5 246.5q43.5 -37.5 43.5 -104.5t-43.5 -104.5t-119.5 -37.5h-184v442h61v-158h123q76 0 119.5 -37.5zM338 78q26 22 26 64t-26 64t-76 22h-123v-172h123q50 0 76 22z" />
    <glyph glyph-name="uni044D" unicode="&#x44d;" horiz-adv-x="464" 
d="M305.5 423.5q51.5 -27.5 82 -79t30.5 -120.5t-29.5 -122.5t-81.5 -82.5t-116 -29q-98 0 -168 72l37 44q29 -30 60.5 -44.5t70.5 -14.5q67 0 111 42t52 108h-209v56h209q-10 63 -55 102t-106 39q-37 0 -67 -13t-58 -39l-38 40q67 69 163 69q61 0 112.5 -27.5z" />
    <glyph glyph-name="uni044E" unicode="&#x44e;" horiz-adv-x="738" 
d="M581 422.5q52 -29.5 81.5 -82t29.5 -119.5t-29.5 -119.5t-81.5 -82t-118 -29.5q-62 0 -111.5 26t-80 72.5t-36.5 106.5h-96v-195h-61v442h61v-191h97q6 59 36.5 104.5t80 71t110.5 25.5q66 0 118 -29.5zM583.5 95.5q46.5 48.5 46.5 125.5q0 76 -46.5 125t-120.5 49
t-120.5 -49t-46.5 -125q0 -77 46.5 -125.5t120.5 -48.5t120.5 48.5z" />
    <glyph glyph-name="uni044F" unicode="&#x44f;" horiz-adv-x="478" 
d="M400 442v-442h-61v170h-111l-127 -170h-70v5l131 172q-47 12 -73 45t-26 82q0 65 42 101.5t114 36.5h181zM339 223v164h-119q-49 0 -72.5 -22t-23.5 -61q0 -38 23.5 -59.5t72.5 -21.5h119z" />
    <glyph glyph-name="uni0450" unicode="&#x450;" horiz-adv-x="505" 
d="M412.5 395q52.5 -58 52.5 -156q0 -20 -3 -43h-354q7 -69 54 -109.5t111 -40.5q45 0 76.5 13.5t58.5 40.5l35 -44q-70 -67 -169 -67q-66 0 -118 29.5t-81 82.5t-29 121q0 64 28.5 116.5t79.5 83.5t115 31q91 0 143.5 -58zM163 356q-44 -40 -54 -106h296q-2 69 -39 107.5
t-98 38.5t-105 -40zM163 638l42 48l131 -113l-31 -36z" />
    <glyph glyph-name="uni0451" unicode="&#x451;" horiz-adv-x="505" 
d="M412.5 395q52.5 -58 52.5 -156q0 -20 -3 -43h-354q7 -69 54 -109.5t111 -40.5q45 0 76.5 13.5t58.5 40.5l35 -44q-70 -67 -169 -67q-66 0 -118 29.5t-81 82.5t-29 121q0 64 28.5 116.5t79.5 83.5t115 31q91 0 143.5 -58zM163 356q-44 -40 -54 -106h296q-2 69 -39 107.5
t-98 38.5t-105 -40zM141 573.5q-12 12.5 -12 29.5q0 18 11.5 31.5t32.5 13.5q20 0 32 -13t12 -30t-12 -30.5t-32 -13.5t-32 12.5zM313.5 574q-11.5 13 -11.5 30t11.5 30.5t31.5 13.5t32 -13.5t12 -30.5t-12 -30t-32 -13t-31.5 13z" />
    <glyph glyph-name="uni0452" unicode="&#x452;" horiz-adv-x="522" 
d="M410 398q40 -47 40 -131v-326q0 -85 -41 -128t-121 -43l-2 54q57 1 80 29.5t23 95.5v323q0 52 -26 84t-78 32q-68 0 -107 -51t-39 -126v-211h-61v553h-66v38h66v105h61v-105h166v-38h-166v-129q0 -43 -1 -68q19 39 59 64t94 25q79 0 119 -47z" />
    <glyph glyph-name="uni0453" unicode="&#x453;" horiz-adv-x="388" 
d="M78 442h286v-56h-225v-386h-61v442zM143 573l132 113l40 -47l-141 -102z" />
    <glyph glyph-name="uni0454" unicode="&#x454;" horiz-adv-x="458" 
d="M435 55q-35 -33 -74.5 -49t-94.5 -16q-57 0 -107.5 27.5t-81.5 80t-31 124.5q0 70 31 122t82.5 79.5t112.5 27.5q44 0 80 -14.5t69 -45.5l-36 -42q-25 24 -53 35t-62 11q-61 0 -105.5 -39t-54.5 -103h206v-56h-207q8 -68 53 -109t109 -41q42 0 72 13t58 39z" />
    <glyph glyph-name="uni0455" unicode="&#x455;" horiz-adv-x="396" 
d="M43 41l31 48q56 -40 130 -40q40 0 64.5 18.5t24.5 48.5q0 29 -26 47.5t-76 38.5q-63 25 -97.5 54.5t-34.5 78.5q0 53 41.5 82.5t101.5 29.5q72 0 134 -40l-27 -44q-50 28 -104 28q-37 0 -61 -13.5t-24 -42.5q0 -27 23.5 -44.5t69.5 -35.5q69 -26 105 -57t36 -82
q0 -55 -42 -89.5t-108 -34.5q-89 0 -161 49z" />
    <glyph glyph-name="uni0456" unicode="&#x456;" horiz-adv-x="217" 
d="M76 571q-13 13 -13 31q0 20 12.5 33t33.5 13t33.5 -13t12.5 -33q0 -19 -13 -31.5t-33 -12.5t-33 13zM78 442h61v-442h-61v442z" />
    <glyph glyph-name="uni0457" unicode="&#x457;" horiz-adv-x="217" 
d="M78 442h61v-442h-61v442zM2.5 570.5q-12.5 12.5 -12.5 32.5q0 19 12.5 32.5t32.5 13.5q19 0 31.5 -13.5t12.5 -32.5t-12.5 -32t-31.5 -13q-20 0 -32.5 12.5zM149.5 571q-12.5 13 -12.5 32t12.5 32.5t31.5 13.5q20 0 32.5 -13.5t12.5 -32.5t-12.5 -32t-32.5 -13
q-19 0 -31.5 13z" />
    <glyph glyph-name="uni0458" unicode="&#x458;" horiz-adv-x="220" 
d="M79.5 571q-12.5 13 -12.5 31q0 20 12.5 33t32.5 13q21 0 33.5 -13t12.5 -34q0 -18 -13 -30.5t-33 -12.5t-32.5 13zM-39 -176q49 4 75 20t36 46t10 80v472h61v-469q0 -69 -15.5 -111.5t-53.5 -65t-105 -26.5z" />
    <glyph glyph-name="uni0459" unicode="&#x459;" horiz-adv-x="716" 
d="M642 229.5q41 -34.5 41 -97.5q0 -62 -41 -97t-110 -35h-174v385h-156l-15 -184q-15 -192 -172 -207l-7 51q53 4 83.5 47.5t37.5 123.5l19 226h271v-178h113q69 0 110 -34.5zM598 75.5q24 19.5 24 56.5t-24 56.5t-67 19.5h-112v-152h112q43 0 67 19.5z" />
    <glyph glyph-name="uni045A" unicode="&#x45a;" horiz-adv-x="725" 
d="M650.5 229.5q40.5 -34.5 40.5 -97.5q0 -61 -41 -96t-110 -36h-173v208h-228v-208h-61v442h61v-178h228v178h61v-178h112q70 0 110.5 -34.5zM606.5 75q23.5 19 23.5 57t-23.5 57t-66.5 19h-112v-152h112q43 0 66.5 19z" />
    <glyph glyph-name="uni045B" unicode="&#x45b;" horiz-adv-x="522" 
d="M410 397.5q40 -47.5 40 -130.5v-267h-61v272q0 52 -25 84t-78 32q-69 0 -108 -51t-39 -126v-211h-61v553h-66v38h66v105h61v-105h171v-38h-171v-129q0 -43 -1 -68q19 39 59 64t94 25q79 0 119 -47.5z" />
    <glyph glyph-name="uni045C" unicode="&#x45c;" horiz-adv-x="434" 
d="M424 5v-5h-76l-209 205v-205h-61v442h61v-194l191 194h74v-3l-210 -211zM175 573l132 113l40 -47l-141 -102z" />
    <glyph glyph-name="uni045D" unicode="&#x45d;" horiz-adv-x="527" 
d="M449 442v-442h-61v270q0 34 1 51q-22 -28 -42 -50l-247 -271h-22v442h61v-262q0 -21 -2 -59q16 20 50 58l240 263h22zM162 645l42 48l131 -113l-31 -36z" />
    <glyph glyph-name="uni045E" unicode="&#x45e;" horiz-adv-x="461" 
d="M447 442v-2l-189 -462q-25 -61 -49.5 -100t-60.5 -64.5t-90 -36.5l-12 51q44 8 72 29.5t46.5 52.5t39.5 83l6 14l-194 433v2h64l106 -242q29 -65 53 -131q18 55 48 131l96 242h64zM157.5 553q-32.5 18 -52.5 54l37 28q15 -24 39 -37.5t51 -13.5t50.5 13.5t39.5 37.5
l36 -28q-19 -36 -51.5 -54t-74.5 -18t-74.5 18z" />
    <glyph glyph-name="uni045F" unicode="&#x45f;" horiz-adv-x="521" 
d="M443 0h-153v-117h-59v117h-153v442h61v-386h243v386h61v-442z" />
    <glyph glyph-name="uni0490" unicode="&#x490;" horiz-adv-x="523" 
d="M100 680h342v152h60v-212h-336v-620h-66v680z" />
    <glyph glyph-name="uni0491" unicode="&#x491;" horiz-adv-x="388" 
d="M78 442h229v113h57v-169h-225v-386h-61v442z" />
    <glyph glyph-name="Wgrave" unicode="&#x1e80;" horiz-adv-x="964" 
d="M942 680v-3l-235 -682h-20l-179 441q-11 25 -27 77q-19 -60 -26 -77l-179 -441h-20l-234 682v3h68l150 -445q20 -57 32 -104q17 60 35 103l164 410h19l158 -390q26 -65 44 -124q11 42 37 117l145 433h68zM375 863l42 48l131 -113l-31 -35z" />
    <glyph glyph-name="wgrave" unicode="&#x1e81;" horiz-adv-x="665" 
d="M644 442v-2l-155 -445h-19l-137 306l-139 -306h-18l-155 445v2h62l92 -265q7 -21 17 -56q7 21 22 54l111 243h15l110 -242q13 -26 23 -56q12 41 18 58l91 264h62zM236 638l42 48l131 -113l-31 -36z" />
    <glyph glyph-name="Wacute" unicode="&#x1e82;" horiz-adv-x="964" 
d="M942 680v-3l-235 -682h-20l-179 441q-11 25 -27 77q-19 -60 -26 -77l-179 -441h-20l-234 682v3h68l150 -445q20 -57 32 -104q17 60 35 103l164 410h19l158 -390q26 -65 44 -124q11 42 37 117l145 433h68zM396 798l132 113l40 -47l-141 -101z" />
    <glyph glyph-name="wacute" unicode="&#x1e83;" horiz-adv-x="665" 
d="M644 442v-2l-155 -445h-19l-137 306l-139 -306h-18l-155 445v2h62l92 -265q7 -21 17 -56q7 21 22 54l111 243h15l110 -242q13 -26 23 -56q12 41 18 58l91 264h62zM248 573l132 113l40 -47l-141 -102z" />
    <glyph glyph-name="Wdieresis" unicode="&#x1e84;" horiz-adv-x="964" 
d="M942 680v-3l-235 -682h-20l-179 441q-11 25 -27 77q-19 -60 -26 -77l-179 -441h-20l-234 682v3h68l150 -445q20 -57 32 -104q17 60 35 103l164 410h19l158 -390q26 -65 44 -124q11 42 37 117l145 433h68zM352.5 795q-12.5 13 -12.5 31t12 32t33 14t33.5 -13.5t12.5 -30.5
q0 -18 -12.5 -32t-33.5 -14q-20 0 -32.5 13zM542.5 795.5q-12.5 13.5 -12.5 31.5q0 17 12.5 31t33.5 14t33 -14t12 -31q0 -18 -12 -31.5t-33 -13.5t-33.5 13.5z" />
    <glyph glyph-name="wdieresis" unicode="&#x1e85;" horiz-adv-x="665" 
d="M644 442v-2l-155 -445h-19l-137 306l-139 -306h-18l-155 445v2h62l92 -265q7 -21 17 -56q7 21 22 54l111 243h15l110 -242q13 -26 23 -56q12 41 18 58l91 264h62zM214 573.5q-12 12.5 -12 29.5q0 18 11.5 31.5t32.5 13.5q20 0 32 -13t12 -30t-12 -30.5t-32 -13.5
t-32 12.5zM386.5 574q-11.5 13 -11.5 30t11.5 30.5t31.5 13.5t32 -13.5t12 -30.5t-12 -30t-32 -13t-31.5 13z" />
    <glyph glyph-name="uni1E9E" unicode="&#x1e9e;" horiz-adv-x="664" 
d="M511.5 391.5q49.5 -26.5 76.5 -74t27 -107.5q0 -61 -27 -109t-76 -74.5t-111 -26.5h-133v60h125q70 0 113 41t43 109q0 67 -43 108t-113 41h-80v47l147 214h-138q-76 0 -117.5 -48.5t-41.5 -135.5v-436h-66v436q0 119 58.5 181.5t170.5 62.5h236v-20l-168 -242h4
q64 0 113.5 -26.5z" />
    <glyph glyph-name="Ygrave" unicode="&#x1ef2;" horiz-adv-x="625" 
d="M602 680v-3l-257 -372v-305h-65v305l-257 372v3h76l155 -226q37 -55 59 -95q23 43 58 95l155 226h76zM206 863l42 48l131 -113l-31 -35z" />
    <glyph glyph-name="ygrave" unicode="&#x1ef3;" horiz-adv-x="461" 
d="M447 442v-2l-272 -660h-64v2l98 230l-193 428v2h64l127 -283q21 -47 32 -82q12 36 30 82l115 283h63zM134 638l42 48l131 -113l-31 -36z" />
    <glyph glyph-name="endash" unicode="&#x2013;" horiz-adv-x="532" 
d="M67 254h397v-50h-397v50z" />
    <glyph glyph-name="emdash" unicode="&#x2014;" horiz-adv-x="697" 
d="M67 254h562v-50h-562v50z" />
    <glyph glyph-name="quoteleft" unicode="&#x2018;" horiz-adv-x="185" 
d="M125 563.5q13 -12.5 13 -32.5q0 -22 -13.5 -33.5t-32.5 -11.5q-18 0 -32 14.5t-14 45.5q0 39 21 77t54 66l19 -21q-49 -44 -57 -93q3 1 9 1q20 0 33 -12.5z" />
    <glyph glyph-name="quoteright" unicode="&#x2019;" horiz-adv-x="185" 
d="M129 670q14 -15 14 -46q0 -39 -21 -76.5t-54 -65.5l-18 21q48 44 56 93q-3 -1 -9 -1q-20 0 -32.5 12.5t-12.5 32.5q0 22 13 33.5t32 11.5q18 0 32 -15z" />
    <glyph glyph-name="quotesinglbase" unicode="&#x201a;" horiz-adv-x="251" 
d="M158.5 66.5q13.5 -14.5 13.5 -46.5q0 -37 -20.5 -73.5t-54.5 -64.5l-17 19q48 43 55 91q-3 -1 -9 -1q-20 0 -32.5 12.5t-12.5 32.5q0 22 13 33.5t32 11.5t32.5 -14.5z" />
    <glyph glyph-name="quotedblleft" unicode="&#x201c;" horiz-adv-x="323" 
d="M83 575q3 1 9 1q20 0 33 -12.5t13 -32.5q0 -22 -13.5 -33.5t-32.5 -11.5q-18 0 -32 14.5t-14 45.5q0 39 21 77t54 66l19 -20q-49 -45 -57 -94zM263 563.5q13 -12.5 13 -32.5q0 -22 -13.5 -33.5t-32.5 -11.5q-18 0 -32 14.5t-14 45.5q0 39 21 77t54 66l19 -20
q-49 -45 -57 -94q3 1 9 1q20 0 33 -12.5z" />
    <glyph glyph-name="quotedblright" unicode="&#x201d;" horiz-adv-x="323" 
d="M129 670.5q14 -14.5 14 -45.5q0 -39 -21 -77t-54 -66l-18 21q48 44 56 93q-3 -1 -8 -1q-20 0 -33 12.5t-13 32.5q0 22 13.5 33.5t31.5 11.5t32 -14.5zM267 670.5q14 -14.5 14 -45.5q0 -39 -21 -77t-54 -66l-18 21q50 45 57 93q-3 -1 -10 -1q-20 0 -32.5 12.5t-12.5 32.5
q0 22 13.5 33.5t31.5 11.5t32 -14.5z" />
    <glyph glyph-name="quotedblbase" unicode="&#x201e;" horiz-adv-x="390" 
d="M158.5 66.5q13.5 -14.5 13.5 -46.5q0 -37 -20.5 -73.5t-54.5 -64.5l-17 19q48 43 55 91q-3 -1 -9 -1q-20 0 -32.5 12.5t-12.5 32.5q0 22 13 33.5t32 11.5t32.5 -14.5zM297.5 66.5q13.5 -14.5 13.5 -46.5q0 -37 -20.5 -73.5t-54.5 -64.5l-17 19q48 43 55 91q-3 -1 -9 -1
q-20 0 -32.5 12.5t-12.5 32.5q0 22 13 33.5t32 11.5t32.5 -14.5z" />
    <glyph glyph-name="dagger" unicode="&#x2020;" horiz-adv-x="594" 
d="M267 309h-204v55h204v317h60v-317h204v-55h-204v-603h-60v603z" />
    <glyph glyph-name="daggerdbl" unicode="&#x2021;" horiz-adv-x="594" 
d="M267 23h-204v55h204v231h-204v55h204v317h60v-317h204v-55h-204v-231h204v-55h-204v-317h-60v317z" />
    <glyph glyph-name="bullet" unicode="&#x2022;" horiz-adv-x="310" 
d="M102 295q-22 19 -22 55t22 55t53 19t53 -19t22 -55t-22 -55t-53 -19t-53 19z" />
    <glyph glyph-name="ellipsis" unicode="&#x2026;" horiz-adv-x="640" 
d="M94 2q-14 12 -14 34q0 23 13.5 35t33.5 12q19 0 33 -12t14 -35q0 -22 -14 -34t-33 -12t-33 12zM287 2q-14 12 -14 34q0 23 13.5 35t33.5 12t33.5 -12t13.5 -35q0 -22 -14 -34t-33 -12t-33 12zM480 2q-14 12 -14 34q0 23 14 35t33 12q20 0 33.5 -12t13.5 -35
q0 -22 -14 -34t-33 -12t-33 12z" />
    <glyph glyph-name="perthousand" unicode="&#x2030;" horiz-adv-x="1115" 
d="M112 416q-33 22 -49 56t-16 70t16 70t49 56t81 22t81 -21.5t49 -55.5t16 -71q0 -36 -16 -70t-49 -56t-81 -22t-81 22zM554 680h56l-391 -680h-57zM263 471.5q24 30.5 24 70.5t-23.5 70.5t-70.5 30.5q-46 0 -70 -30.5t-24 -70.5t24 -70.5t70 -30.5t70 30.5zM492 12
q-33 22 -49 56t-16 70t16 70t49 56t81 22t81 -21.5t49 -55.5t16 -71q0 -36 -16 -70t-49 -56t-81 -22t-81 22zM841 12q-33 22 -49 56t-16 70t16 70t49 56t81 22t81 -21.5t49 -55.5t16 -71q0 -36 -16 -70t-49 -56t-81 -22t-81 22zM643 67.5q24 30.5 24 70.5t-24 70.5t-70 30.5
t-70 -30.5t-24 -70.5t24 -70.5t70 -30.5t70 30.5zM992 67.5q24 30.5 24 70.5t-24 70.5t-70 30.5t-70 -30.5t-24 -70.5t24 -70.5t70 -30.5t70 30.5z" />
    <glyph glyph-name="guilsinglleft" unicode="&#x2039;" horiz-adv-x="255" 
d="M36 245l119 188l45 -26l-93 -162l95 -168l-45 -26z" />
    <glyph glyph-name="guilsinglright" unicode="&#x203a;" horiz-adv-x="255" 
d="M52 77l96 168l-94 162l45 26l119 -188l-121 -194z" />
    <glyph glyph-name="fraction" unicode="&#x2044;" horiz-adv-x="153" 
d="M230 680h49l-352 -680h-50z" />
    <glyph glyph-name="Euro" unicode="&#x20ac;" horiz-adv-x="588" 
d="M276 22.5q-68 32.5 -109.5 90.5t-55.5 132h-80v54h73q-1 11 -1 34q0 27 2 41h-74v53h83q28 112 108 177.5t200 65.5q38 0 67 -5.5t57 -17.5l-19 -55q-23 9 -47 13.5t-57 4.5q-93 0 -154 -47t-87 -136h244l-17 -53h-237q-3 -21 -3 -44q0 -21 1 -31h215l-19 -54h-188
q19 -87 85 -141t170 -54q60 0 104 22l19 -56q-60 -26 -123 -26q-89 0 -157 32.5z" />
    <glyph glyph-name="uni20BD" unicode="&#x20bd;" horiz-adv-x="607" 
d="M192 263v-67h263v-56h-263v-140h-65v140h-89v56h89v67h-89v56h89v342h231q69 0 117.5 -28t72.5 -73t24 -96q0 -52 -24 -98t-75 -74.5t-128 -28.5h-153zM192 319h152q85 0 123.5 41t38.5 104q0 60 -40 98.5t-109 38.5h-165v-282z" />
    <glyph glyph-name="uni2113" unicode="&#x2113;" horiz-adv-x="458" 
d="M153 33q-33 43 -33 116v24l-73 -34l-21 41q60 27 94 45v269q0 90 39.5 143t114.5 53q48 0 79.5 -24.5t46 -61.5t14.5 -74q0 -111 -63 -188.5t-175 -139.5v-53q0 -45 20 -77t61 -32q26 0 50.5 10.5t43.5 29.5l31 -41q-25 -24 -57 -36.5t-68 -12.5q-71 0 -104 43z
M312 374.5q49 66.5 49 157.5q0 38 -22 72t-64 34q-47 0 -73 -38t-26 -108v-236q87 52 136 118.5z" />
    <glyph glyph-name="uni2116" unicode="&#x2116;" horiz-adv-x="1067" 
d="M798.5 461.5q-39.5 34.5 -39.5 96.5t39.5 96.5t96.5 34.5t96.5 -34.5t39.5 -96.5t-39.5 -96.5t-96.5 -34.5t-96.5 34.5zM598 680h66v-685h-29l-423 498q-15 18 -49 56q3 -31 3 -65v-484h-66v685h28l422 -496l50 -57q-2 25 -2 71v477zM836 620.5q-24 -22.5 -24 -62.5
t24 -62.5t59 -22.5t58.5 22.5t23.5 62.5t-23.5 62.5t-58.5 22.5t-59 -22.5zM767 358h255v-43h-255v43z" />
    <glyph glyph-name="uni2117" unicode="&#x2117;" horiz-adv-x="790" 
d="M218.5 42.5q-76.5 45.5 -119 124t-42.5 173.5t42 173.5t119 123.5t177 45t177 -45t119 -123.5t42 -173.5t-42.5 -173.5t-119 -124t-176.5 -45.5t-176.5 45.5zM545 88q65 38 100 104t35 148t-35 148t-100 103.5t-150 37.5q-84 0 -149 -37.5t-100.5 -103.5t-35.5 -148
t35.5 -148t100.5 -104t149 -38q85 0 150 38zM285 529h146q37 0 63.5 -17t40 -43.5t13.5 -54.5q0 -48 -30.5 -82t-88.5 -34h-98v-140h-46v371zM419 341q42 0 62 21t20 54q0 31 -21 50.5t-59 19.5h-90v-145h88z" />
    <glyph glyph-name="trademark" unicode="&#x2122;" horiz-adv-x="681" 
d="M146 638h-93v42h233v-42h-94v-236h-46v236zM347 680h8l109 -150l109 150h9l38 -278h-46l-22 177l-84 -116h-8l-84 116l-22 -177h-46z" />
    <glyph glyph-name="uni2126" unicode="&#x2126;" horiz-adv-x="799" 
d="M74 60h126q-71 43 -109.5 116t-38.5 164q0 97 44 177t122.5 126.5t177.5 46.5q100 0 178.5 -46.5t122.5 -126.5t44 -177q0 -91 -38.5 -164t-109.5 -116h127v-60h-252v59q95 23 151 100t56 181q0 81 -35 147t-98.5 104.5t-145.5 38.5t-145 -38.5t-98 -104.5t-35 -147
q0 -104 56 -181t150 -100v-59h-250v60z" />
    <glyph glyph-name="estimated" unicode="&#x212e;" horiz-adv-x="796" 
d="M222.5 37.5q-78.5 47.5 -122 130t-43.5 183.5q0 99 44 181.5t122.5 130t178.5 47.5t175.5 -47.5t116.5 -129.5t41 -182l-1 -24h-556v-170q38 -53 96 -82t128 -29q67 0 127.5 33t101.5 89l45 -34q-50 -69 -120.5 -106.5t-153.5 -37.5q-101 0 -179.5 47.5zM618 377v174
q-37 50 -92.5 77t-123.5 27q-70 0 -128 -28.5t-96 -80.5v-169h440z" />
    <glyph glyph-name="uni2153" unicode="&#x2153;" horiz-adv-x="659" 
d="M104 598l-43 -41l-29 29l104 99h10v-288h-42v201zM441 680h49l-352 -680h-50zM414 26l26 29q12 -12 28.5 -18.5t34.5 -6.5q27 0 43 14t16 38t-16.5 35.5t-41.5 11.5h-35v39h30q22 0 36 11t14 32q0 19 -13 30t-31 11q-32 0 -51 -19l-29 28q33 32 83 32q33 0 58.5 -21
t25.5 -55q0 -22 -10 -39t-29 -27q23 -6 38 -26t15 -45q0 -41 -28 -65.5t-74 -24.5q-58 0 -90 36z" />
    <glyph glyph-name="uni2154" unicode="&#x2154;" horiz-adv-x="733" 
d="M240 437v-40h-188v9l109 145q15 20 20 32.5t5 25.5q0 19 -10.5 30t-30.5 11q-30 0 -50 -38l-35 16q10 29 32.5 45.5t53.5 16.5q37 0 60.5 -23t23.5 -58q0 -20 -6.5 -39t-25.5 -44l-68 -89h110zM515 680h49l-352 -680h-50zM488 26l26 29q12 -12 28.5 -18.5t34.5 -6.5
q27 0 43 14t16 38t-16.5 35.5t-41.5 11.5h-35v39h30q22 0 36 11t14 32q0 19 -13 30t-31 11q-32 0 -51 -19l-29 28q33 32 83 32q33 0 58.5 -21t25.5 -55q0 -22 -10 -39t-29 -27q23 -6 38 -26t15 -45q0 -41 -28 -65.5t-74 -24.5q-58 0 -90 36z" />
    <glyph glyph-name="oneeighth" unicode="&#x215b;" horiz-adv-x="668" 
d="M104 598l-43 -41l-29 29l104 99h10v-288h-42v201zM441 680h49l-352 -680h-50zM444.5 13q-28.5 23 -28.5 67q0 23 12.5 43t34.5 30q-33 24 -33 63q0 35 25.5 56t61.5 21q35 0 59.5 -20.5t24.5 -54.5q0 -21 -9.5 -37.5t-24.5 -25.5q23 -12 35.5 -31.5t12.5 -43.5
q0 -44 -28 -67t-71 -23t-71.5 23zM546 185q11 12 11 27q0 19 -11.5 30.5t-28.5 11.5q-19 0 -30.5 -11.5t-11.5 -30.5q0 -16 11.5 -27.5t30.5 -11.5q18 0 29 12zM556 44q15 14 15 37q0 22 -15.5 37.5t-40.5 15.5t-40 -15t-15 -38t15.5 -37t40.5 -14t40 14z" />
    <glyph glyph-name="threeeighths" unicode="&#x215c;" horiz-adv-x="752" 
d="M50 423l26 29q12 -12 28.5 -18.5t34.5 -6.5q27 0 43 14t16 38t-16.5 35.5t-41.5 11.5h-35v39h30q22 0 36 11t14 32q0 19 -13 30t-31 11q-32 0 -51 -19l-29 28q33 32 83 32q33 0 58.5 -21t25.5 -55q0 -22 -10 -39t-29 -27q23 -6 38 -26t15 -45q0 -41 -28 -65.5t-74 -24.5
q-58 0 -90 36zM525 680h49l-352 -680h-50zM528.5 13q-28.5 23 -28.5 67q0 23 12.5 43t34.5 30q-33 24 -33 63q0 35 25.5 56t61.5 21q35 0 59.5 -20.5t24.5 -54.5q0 -21 -9.5 -37.5t-24.5 -25.5q23 -12 35.5 -31.5t12.5 -43.5q0 -44 -28 -67t-71 -23t-71.5 23zM630 185
q11 12 11 27q0 19 -11.5 30.5t-28.5 11.5q-19 0 -30.5 -11.5t-11.5 -30.5q0 -16 11.5 -27.5t30.5 -11.5q18 0 29 12zM640 44q15 14 15 37q0 22 -15.5 37.5t-40.5 15.5t-40 -15t-15 -38t15.5 -37t40.5 -14t40 14z" />
    <glyph glyph-name="fiveeighths" unicode="&#x215d;" horiz-adv-x="751" 
d="M52 427l33 27q19 -26 56 -26q26 0 41 15.5t15 40.5q0 27 -19 41.5t-49 14.5q-23 0 -50 -8l-7 6l17 142h138v-42h-102l-7 -65q12 3 25 3q41 0 69.5 -24t28.5 -68t-27.5 -70.5t-72.5 -26.5q-56 0 -89 40zM524 680h49l-352 -680h-50zM527.5 13q-28.5 23 -28.5 67
q0 23 12.5 43t34.5 30q-33 24 -33 63q0 35 25.5 56t61.5 21q35 0 59.5 -20.5t24.5 -54.5q0 -21 -9.5 -37.5t-24.5 -25.5q23 -12 35.5 -31.5t12.5 -43.5q0 -44 -28 -67t-71 -23t-71.5 23zM629 185q11 12 11 27q0 19 -11.5 30.5t-28.5 11.5q-19 0 -30.5 -11.5t-11.5 -30.5
q0 -16 11.5 -27.5t30.5 -11.5q18 0 29 12zM639 44q15 14 15 37q0 22 -15.5 37.5t-40.5 15.5t-40 -15t-15 -38t15.5 -37t40.5 -14t40 14z" />
    <glyph glyph-name="seveneighths" unicode="&#x215e;" horiz-adv-x="687" 
d="M171 638h-119v42h177v-9l-114 -274h-44zM460 680h49l-352 -680h-50zM463.5 13q-28.5 23 -28.5 67q0 23 12.5 43t34.5 30q-33 24 -33 63q0 35 25.5 56t61.5 21q35 0 59.5 -20.5t24.5 -54.5q0 -21 -9.5 -37.5t-24.5 -25.5q23 -12 35.5 -31.5t12.5 -43.5q0 -44 -28 -67
t-71 -23t-71.5 23zM565 185q11 12 11 27q0 19 -11.5 30.5t-28.5 11.5q-19 0 -30.5 -11.5t-11.5 -30.5q0 -16 11.5 -27.5t30.5 -11.5q18 0 29 12zM575 44q15 14 15 37q0 22 -15.5 37.5t-40.5 15.5t-40 -15t-15 -38t15.5 -37t40.5 -14t40 14z" />
    <glyph glyph-name="arrowleft" unicode="&#x2190;" horiz-adv-x="612" 
d="M172 301q-33 0 -53 1q26 -22 40 -38l130 -129l-41 -42l-237 238l238 238l40 -41l-126 -126q-5 -6 -44 -42l53 1h420v-60h-420z" />
    <glyph glyph-name="arrowup" unicode="&#x2191;" horiz-adv-x="511" 
d="M225 474q0 33 1 53q-13 -16 -37 -40l-130 -130l-41 41l238 238l238 -239l-41 -40l-127 126l-42 44q2 -38 2 -53v-420h-61v420z" />
    <glyph glyph-name="arrowright" unicode="&#x2192;" horiz-adv-x="612" 
d="M440 405h53q-16 13 -40 37l-130 129l41 42l237 -238l-238 -238l-40 41l126 127l20 19l24 23q-40 -2 -53 -2h-420v60h420z" />
    <glyph glyph-name="arrowdown" unicode="&#x2193;" horiz-adv-x="511" 
d="M286 234q0 -33 -1 -53q16 20 38 40l129 130l42 -41l-238 -238l-238 239l41 40l126 -126l42 -44q-1 20 -1 53v420h60v-420z" />
    <glyph glyph-name="arrowboth" unicode="&#x2194;" horiz-adv-x="796" 
d="M11 355l238 238l40 -41l-126 -127q-20 -20 -44 -41l53 1h452q33 0 53 -1q-16 13 -40 37l-130 130l41 41l238 -237l-239 -238l-40 41l126 126q47 43 44 41l-53 -1h-452q-33 0 -53 1q16 -13 40 -37l130 -130l-41 -41z" />
    <glyph glyph-name="arrowupdn" unicode="&#x2195;" horiz-adv-x="511" 
d="M256 742l238 -238l-41 -40l-127 126q-22 22 -41 45q1 -21 1 -55v-451q0 -33 -1 -53q16 20 38 40l129 130l42 -41l-238 -238l-238 239l41 40l126 -126q20 -20 41 -44q-1 18 -1 53v452q0 33 1 53q-6 -8 -37 -41l-130 -130l-41 41z" />
    <glyph glyph-name="uni2196" unicode="&#x2196;" horiz-adv-x="468" 
d="M115 403q-20 18 -37 38q1 -21 1 -55l1 -183l-59 -1v337l338 -1l-1 -57h-179q-38 0 -61 1q25 -21 39 -37l297 -297l-43 -42z" />
    <glyph glyph-name="uni2197" unicode="&#x2197;" horiz-adv-x="468" 
d="M311 450l38 37q-20 -2 -55 -2l-183 -1v59h336l-1 -337h-57v179l1 61q-20 -23 -36 -39l-297 -297l-43 43z" />
    <glyph glyph-name="uni2198" unicode="&#x2198;" horiz-adv-x="468" 
d="M353 270q20 -18 37 -38q-1 21 -1 55l-1 184h59v-336h-338l1 57l179 1q16 0 60 -2q-27 25 -38 37l-297 297l43 42z" />
    <glyph glyph-name="uni2199" unicode="&#x2199;" horiz-adv-x="468" 
d="M157 228l-38 -37q20 2 55 2h183l1 -58h-337l1 337l57 -1v-178l-1 -61l36 39l297 297l43 -43z" />
    <glyph glyph-name="partialdiff" unicode="&#x2202;" horiz-adv-x="510" 
d="M151 13.5q-47 23.5 -76 69.5t-29 110q0 71 29 122t77 78t102 27q84 0 134 -59q-30 103 -101 178.5t-167 114.5l26 51q150 -64 234 -188.5t84 -283.5q0 -65 -24.5 -120.5t-72 -89t-115.5 -33.5q-54 0 -101 23.5zM364 100.5q38 53.5 38 130.5q-1 58 -40.5 95t-99.5 37
q-41 0 -76.5 -18.5t-57 -56.5t-21.5 -92q0 -65 40.5 -107t105.5 -42q73 0 111 53.5z" />
    <glyph glyph-name="emptyset" unicode="&#x2205;" horiz-adv-x="808" 
d="M725.5 479q24.5 -64 24.5 -138q0 -96 -44 -176.5t-122.5 -127.5t-178.5 -47q-131 0 -227 82l-72 -79h-46l94 102q-45 48 -70 111.5t-25 134.5q0 99 44 179t123 125t179 45q67 0 124 -20t101 -57l67 73h47l-89 -96q46 -47 70.5 -111zM127 225q20 -55 58 -96l414 450
q-38 32 -87.5 49t-106.5 17q-88 0 -155.5 -39t-105 -108t-37.5 -157q0 -61 20 -116zM560 75.5q68 40.5 105.5 110.5t37.5 155q0 64 -20.5 119t-58.5 96l-415 -451q39 -34 89 -52t107 -18q87 0 155 40.5z" />
    <glyph glyph-name="uni2206" unicode="&#x2206;" horiz-adv-x="688" 
d="M14 3l320 682h19l321 -682v-3h-660v3zM574 60l-231 496l-233 -496h464z" />
    <glyph glyph-name="product" unicode="&#x220f;" horiz-adv-x="728" 
d="M100 680h528v-680h-66v620h-396v-620h-66v680z" />
    <glyph glyph-name="summation" unicode="&#x2211;" horiz-adv-x="562" 
d="M44 21l221 319l-221 319v21h486v-59h-388l198 -281l-198 -281h388v-59h-486v21z" />
    <glyph glyph-name="minus" unicode="&#x2212;" horiz-adv-x="544" 
d="M74 368h396v-55h-396v55z" />
    <glyph glyph-name="radical" unicode="&#x221a;" horiz-adv-x="557" 
d="M583 722l-312 -722h-19l-160 351h-82v56h118l131 -294l260 609h64z" />
    <glyph glyph-name="infinity" unicode="&#x221e;" horiz-adv-x="713" 
d="M134 228.5q-32 16.5 -52 48t-20 73.5t20 73.5t52 48t65 16.5q48 0 84.5 -25.5t73.5 -71.5q36 46 72.5 71.5t84.5 25.5q33 0 65 -16.5t52 -48t20 -73.5t-20 -73.5t-52 -48t-65 -16.5q-48 0 -84.5 25.5t-72.5 71.5q-37 -46 -73.5 -71.5t-84.5 -25.5q-33 0 -65 16.5z
M264 286.5q28 20.5 62 63.5q-34 43 -62 63.5t-61 20.5q-31 0 -57 -22.5t-26 -61.5t26 -61.5t57 -22.5q33 0 61 20.5zM567 288.5q26 22.5 26 61.5t-26 61.5t-57 22.5q-33 0 -61 -20.5t-62 -63.5q34 -43 62 -63.5t61 -20.5q31 0 57 22.5z" />
    <glyph glyph-name="integral" unicode="&#x222b;" horiz-adv-x="462" 
d="M11 -143l24 43q42 -28 80 -28q83 0 83 104v556q0 77 40.5 117.5t102.5 40.5q54 0 104 -39l-25 -43q-42 28 -79 28q-83 0 -83 -104v-556q0 -77 -40.5 -117.5t-102.5 -40.5q-55 0 -104 39z" />
    <glyph glyph-name="approxequal" unicode="&#x2248;" horiz-adv-x="581" 
d="M74 386q19 43 47.5 66.5t73.5 23.5q26 0 49.5 -9.5t51.5 -27.5q5 -3 23.5 -14.5t33.5 -17t28 -5.5q26 0 41.5 18t26.5 49l48 -25q-34 -96 -116 -96q-26 0 -48.5 9t-49.5 26q-31 19 -49 28t-39 9q-30 0 -47 -15t-29 -46zM84 215q19 43 47.5 66t73.5 23q27 0 51 -9.5
t50 -26.5q30 -19 48 -28t37 -9q26 0 41.5 18t27.5 49l47 -25q-16 -45 -43.5 -70.5t-72.5 -25.5q-25 0 -48.5 9t-48.5 26q-28 18 -48 27t-41 9q-30 0 -46.5 -14.5t-29.5 -46.5z" />
    <glyph glyph-name="notequal" unicode="&#x2260;" horiz-adv-x="525" 
d="M315 407l-76 -132h202v-55h-234l-66 -113l-35 22l53 91h-74v55h106l77 132h-183v55h215l65 112l36 -20l-54 -92h94v-55h-126z" />
    <glyph glyph-name="lessequal" unicode="&#x2264;" horiz-adv-x="430" 
d="M45 374v54l323 151v-64l-257 -114l257 -114v-64zM45 109v54h323v-54h-323z" />
    <glyph glyph-name="greaterequal" unicode="&#x2265;" horiz-adv-x="430" 
d="M62 287l257 114l-257 114v64l323 -151v-54l-323 -151v64zM62 163h323v-54h-323v54z" />
    <glyph glyph-name="lozenge" unicode="&#x25ca;" horiz-adv-x="547" 
d="M36 340l231 340h13l232 -340l-232 -340h-13zM441 340l-167 241l-168 -241l168 -242z" />
    <glyph glyph-name="i.loclTRK" horiz-adv-x="217" 
d="M74.5 575.5q-12.5 12.5 -12.5 31.5q0 20 12.5 33t33.5 13t33.5 -13t12.5 -34q0 -18 -12.5 -30.5t-33.5 -12.5t-33.5 12.5zM78 442h61v-442h-61v442z" />
    <glyph glyph-name="germandbls.calt" horiz-adv-x="664" 
d="M511.5 391.5q49.5 -26.5 76.5 -74t27 -107.5q0 -61 -27 -109t-76 -74.5t-111 -26.5h-133v60h125q70 0 113 41t43 109q0 67 -43 108t-113 41h-80v47l147 214h-138q-76 0 -117.5 -48.5t-41.5 -135.5v-436h-66v436q0 119 58.5 181.5t170.5 62.5h236v-20l-168 -242h4
q64 0 113.5 -26.5z" />
    <glyph glyph-name="a.ss01" horiz-adv-x="576" 
d="M498 442v-442h-47l-9 76q-30 -41 -75 -63.5t-101 -22.5q-64 0 -114.5 30t-78 82t-27.5 118t28 118.5t78.5 82.5t115.5 30q52 0 95.5 -21t74.5 -62l13 74h47zM393.5 96q46.5 48 46.5 124q0 77 -46 125.5t-122 48.5q-74 0 -119.5 -48.5t-45.5 -125.5q0 -76 46 -124t119 -48
q75 0 121.5 48z" />
    <glyph glyph-name="aacute.ss01" horiz-adv-x="576" 
d="M498 442v-442h-47l-9 76q-30 -41 -75 -63.5t-101 -22.5q-64 0 -114.5 30t-78 82t-27.5 118t28 118.5t78.5 82.5t115.5 30q52 0 95.5 -21t74.5 -62l13 74h47zM393.5 96q46.5 48 46.5 124q0 77 -46 125.5t-122 48.5q-74 0 -119.5 -48.5t-45.5 -125.5q0 -76 46 -124t119 -48
q75 0 121.5 48zM192 573l132 113l40 -47l-141 -102z" />
    <glyph glyph-name="abreve.ss01" horiz-adv-x="576" 
d="M498 442v-442h-47l-9 76q-30 -41 -75 -63.5t-101 -22.5q-64 0 -114.5 30t-78 82t-27.5 118t28 118.5t78.5 82.5t115.5 30q52 0 95.5 -21t74.5 -62l13 74h47zM393.5 96q46.5 48 46.5 124q0 77 -46 125.5t-122 48.5q-74 0 -119.5 -48.5t-45.5 -125.5q0 -76 46 -124t119 -48
q75 0 121.5 48zM199 555.5q-33 27.5 -44 78.5l46 11q7 -30 29 -47t49 -17q25 0 46 17.5t27 46.5l46 -11q-10 -51 -43 -78.5t-78 -27.5t-78 27.5z" />
    <glyph glyph-name="acircumflex.ss01" horiz-adv-x="576" 
d="M498 442v-442h-47l-9 76q-30 -41 -75 -63.5t-101 -22.5q-64 0 -114.5 30t-78 82t-27.5 118t28 118.5t78.5 82.5t115.5 30q52 0 95.5 -21t74.5 -62l13 74h47zM393.5 96q46.5 48 46.5 124q0 77 -46 125.5t-122 48.5q-74 0 -119.5 -48.5t-45.5 -125.5q0 -76 46 -124t119 -48
q75 0 121.5 48zM151 559l118 102h14l116 -103l-26 -34l-96 76l-98 -76z" />
    <glyph glyph-name="adieresis.ss01" horiz-adv-x="576" 
d="M498 442v-442h-47l-9 76q-30 -41 -75 -63.5t-101 -22.5q-64 0 -114.5 30t-78 82t-27.5 118t28 118.5t78.5 82.5t115.5 30q52 0 95.5 -21t74.5 -62l13 74h47zM393.5 96q46.5 48 46.5 124q0 77 -46 125.5t-122 48.5q-74 0 -119.5 -48.5t-45.5 -125.5q0 -76 46 -124t119 -48
q75 0 121.5 48zM158 573.5q-12 12.5 -12 29.5q0 18 11.5 31.5t32.5 13.5q20 0 32 -13t12 -30t-12 -30.5t-32 -13.5t-32 12.5zM330.5 574q-11.5 13 -11.5 30t11.5 30.5t31.5 13.5t32 -13.5t12 -30.5t-12 -30t-32 -13t-31.5 13z" />
    <glyph glyph-name="agrave.ss01" horiz-adv-x="576" 
d="M498 442v-442h-47l-9 76q-30 -41 -75 -63.5t-101 -22.5q-64 0 -114.5 30t-78 82t-27.5 118t28 118.5t78.5 82.5t115.5 30q52 0 95.5 -21t74.5 -62l13 74h47zM393.5 96q46.5 48 46.5 124q0 77 -46 125.5t-122 48.5q-74 0 -119.5 -48.5t-45.5 -125.5q0 -76 46 -124t119 -48
q75 0 121.5 48zM180 638l42 48l131 -113l-31 -36z" />
    <glyph glyph-name="amacron.ss01" horiz-adv-x="576" 
d="M498 442v-442h-47l-9 76q-30 -41 -75 -63.5t-101 -22.5q-64 0 -114.5 30t-78 82t-27.5 118t28 118.5t78.5 82.5t115.5 30q52 0 95.5 -21t74.5 -62l13 74h47zM393.5 96q46.5 48 46.5 124q0 77 -46 125.5t-122 48.5q-74 0 -119.5 -48.5t-45.5 -125.5q0 -76 46 -124t119 -48
q75 0 121.5 48zM148 613h257v-53h-257v53z" />
    <glyph glyph-name="aogonek.ss01" horiz-adv-x="576" 
d="M520 -189q-34 -24 -81 -24q-43 0 -66.5 22.5t-23.5 56.5q0 37 26 74t74 80l-7 56q-30 -41 -75 -63.5t-101 -22.5q-64 0 -114.5 30t-78 82t-27.5 118t28 118.5t78.5 82.5t115.5 30q52 0 95.5 -21t74.5 -62l13 74h47v-442q-88 -71 -88 -123q0 -36 42 -36q24 0 50 17z
M393.5 96q46.5 48 46.5 124q0 77 -46 125.5t-122 48.5q-74 0 -119.5 -48.5t-45.5 -125.5q0 -76 46 -124t119 -48q75 0 121.5 48z" />
    <glyph glyph-name="atilde.ss01" horiz-adv-x="576" 
d="M498 442v-442h-47l-9 76q-30 -41 -75 -63.5t-101 -22.5q-64 0 -114.5 30t-78 82t-27.5 118t28 118.5t78.5 82.5t115.5 30q52 0 95.5 -21t74.5 -62l13 74h47zM393.5 96q46.5 48 46.5 124q0 77 -46 125.5t-122 48.5q-74 0 -119.5 -48.5t-45.5 -125.5q0 -76 46 -124t119 -48
q75 0 121.5 48zM145 577q27 69 75 69q30 0 66 -21q30 -16 43 -16q23 0 36 35l43 -24q-26 -66 -75 -66q-26 0 -59 18q-34 18 -48 18q-25 0 -38 -37z" />
    <glyph glyph-name="ae.ss01" horiz-adv-x="856" 
d="M781 99l33 -40q-66 -67 -166 -67q-114 0 -162 80l-6 -72h-47l-6 71q-26 -37 -70 -58t-95 -21q-64 0 -113.5 30t-76 82t-26.5 116t26.5 116.5t75.5 83t115 30.5q51 0 92.5 -19.5t68.5 -56.5l8 68h47l9 -71q25 39 65.5 60t96.5 21q72 0 120 -39t48 -107q0 -67 -50.5 -96
t-142.5 -29q-76 0 -137 8q8 -67 51.5 -104t107.5 -37q83 0 134 51zM538 354q-43 -41 -50 -112q67 -9 140 -9q64 0 97.5 17.5t33.5 60.5q0 39 -31.5 61.5t-81.5 22.5q-65 0 -108 -41zM385 97.5q40 49.5 40 122.5q0 75 -40 124t-119 49q-72 0 -115.5 -48.5t-43.5 -124.5
t44 -124t115 -48q79 0 119 49.5z" />
    <glyph glyph-name="aeacute.ss01" horiz-adv-x="856" 
d="M781 99l33 -40q-66 -67 -166 -67q-114 0 -162 80l-6 -72h-47l-6 71q-26 -37 -70 -58t-95 -21q-64 0 -113.5 30t-76 82t-26.5 116t26.5 116.5t75.5 83t115 30.5q51 0 92.5 -19.5t68.5 -56.5l8 68h47l9 -71q25 39 65.5 60t96.5 21q72 0 120 -39t48 -107q0 -67 -50.5 -96
t-142.5 -29q-76 0 -137 8q8 -67 51.5 -104t107.5 -37q83 0 134 51zM538 354q-43 -41 -50 -112q67 -9 140 -9q64 0 97.5 17.5t33.5 60.5q0 39 -31.5 61.5t-81.5 22.5q-65 0 -108 -41zM385 97.5q40 49.5 40 122.5q0 75 -40 124t-119 49q-72 0 -115.5 -48.5t-43.5 -124.5
t44 -124t115 -48q79 0 119 49.5zM371 573l132 113l40 -47l-141 -102z" />
    <glyph glyph-name="e.ss01" horiz-adv-x="482" 
d="M349 59q32 13 58 40l34 -42q-66 -68 -168 -68q-69 0 -120 30t-79 82.5t-28 118.5q0 64 27 117t78 84.5t120 31.5q49 0 88.5 -19t62 -52.5t22.5 -75.5q0 -65 -50.5 -95t-137.5 -30t-147 9q9 -66 54.5 -105t110.5 -39q43 0 75 13zM158 353.5q-43 -42.5 -50 -111.5
q66 -9 142 -9q68 0 101.5 17t33.5 59q0 38 -32.5 62.5t-82.5 24.5q-69 0 -112 -42.5z" />
    <glyph glyph-name="eacute.ss01" horiz-adv-x="482" 
d="M349 59q32 13 58 40l34 -42q-66 -68 -168 -68q-69 0 -120 30t-79 82.5t-28 118.5q0 64 27 117t78 84.5t120 31.5q49 0 88.5 -19t62 -52.5t22.5 -75.5q0 -65 -50.5 -95t-137.5 -30t-147 9q9 -66 54.5 -105t110.5 -39q43 0 75 13zM158 353.5q-43 -42.5 -50 -111.5
q66 -9 142 -9q68 0 101.5 17t33.5 59q0 38 -32.5 62.5t-82.5 24.5q-69 0 -112 -42.5zM179 573l132 113l40 -47l-141 -102z" />
    <glyph glyph-name="ebreve.ss01" horiz-adv-x="482" 
d="M349 59q32 13 58 40l34 -42q-66 -68 -168 -68q-69 0 -120 30t-79 82.5t-28 118.5q0 64 27 117t78 84.5t120 31.5q49 0 88.5 -19t62 -52.5t22.5 -75.5q0 -65 -50.5 -95t-137.5 -30t-147 9q9 -66 54.5 -105t110.5 -39q43 0 75 13zM158 353.5q-43 -42.5 -50 -111.5
q66 -9 142 -9q68 0 101.5 17t33.5 59q0 38 -32.5 62.5t-82.5 24.5q-69 0 -112 -42.5zM186 555.5q-33 27.5 -44 78.5l46 11q7 -30 29 -47t49 -17q25 0 46 17.5t27 46.5l46 -11q-10 -51 -43 -78.5t-78 -27.5t-78 27.5z" />
    <glyph glyph-name="ecaron.ss01" horiz-adv-x="482" 
d="M349 59q32 13 58 40l34 -42q-66 -68 -168 -68q-69 0 -120 30t-79 82.5t-28 118.5q0 64 27 117t78 84.5t120 31.5q49 0 88.5 -19t62 -52.5t22.5 -75.5q0 -65 -50.5 -95t-137.5 -30t-147 9q9 -66 54.5 -105t110.5 -39q43 0 75 13zM158 353.5q-43 -42.5 -50 -111.5
q66 -9 142 -9q68 0 101.5 17t33.5 59q0 38 -32.5 62.5t-82.5 24.5q-69 0 -112 -42.5zM140 633l26 34l97 -76l98 76l27 -35l-117 -102h-15z" />
    <glyph glyph-name="ecircumflex.ss01" horiz-adv-x="482" 
d="M349 59q32 13 58 40l34 -42q-66 -68 -168 -68q-69 0 -120 30t-79 82.5t-28 118.5q0 64 27 117t78 84.5t120 31.5q49 0 88.5 -19t62 -52.5t22.5 -75.5q0 -65 -50.5 -95t-137.5 -30t-147 9q9 -66 54.5 -105t110.5 -39q43 0 75 13zM158 353.5q-43 -42.5 -50 -111.5
q66 -9 142 -9q68 0 101.5 17t33.5 59q0 38 -32.5 62.5t-82.5 24.5q-69 0 -112 -42.5zM138 559l118 102h14l116 -103l-26 -34l-96 76l-98 -76z" />
    <glyph glyph-name="edieresis.ss01" horiz-adv-x="482" 
d="M349 59q32 13 58 40l34 -42q-66 -68 -168 -68q-69 0 -120 30t-79 82.5t-28 118.5q0 64 27 117t78 84.5t120 31.5q49 0 88.5 -19t62 -52.5t22.5 -75.5q0 -65 -50.5 -95t-137.5 -30t-147 9q9 -66 54.5 -105t110.5 -39q43 0 75 13zM158 353.5q-43 -42.5 -50 -111.5
q66 -9 142 -9q68 0 101.5 17t33.5 59q0 38 -32.5 62.5t-82.5 24.5q-69 0 -112 -42.5zM145 573.5q-12 12.5 -12 29.5q0 18 11.5 31.5t32.5 13.5q20 0 32 -13t12 -30t-12 -30.5t-32 -13.5t-32 12.5zM317.5 574q-11.5 13 -11.5 30t11.5 30.5t31.5 13.5t32 -13.5t12 -30.5
t-12 -30t-32 -13t-31.5 13z" />
    <glyph glyph-name="edotaccent.ss01" horiz-adv-x="482" 
d="M349 59q32 13 58 40l34 -42q-66 -68 -168 -68q-69 0 -120 30t-79 82.5t-28 118.5q0 64 27 117t78 84.5t120 31.5q49 0 88.5 -19t62 -52.5t22.5 -75.5q0 -65 -50.5 -95t-137.5 -30t-147 9q9 -66 54.5 -105t110.5 -39q43 0 75 13zM158 353.5q-43 -42.5 -50 -111.5
q66 -9 142 -9q68 0 101.5 17t33.5 59q0 38 -32.5 62.5t-82.5 24.5q-69 0 -112 -42.5zM230 569.5q-13 13.5 -13 32.5q0 21 13 34.5t34 13.5t34.5 -14t13.5 -35q0 -19 -13.5 -32t-34.5 -13t-34 13.5z" />
    <glyph glyph-name="egrave.ss01" horiz-adv-x="482" 
d="M349 59q32 13 58 40l34 -42q-66 -68 -168 -68q-69 0 -120 30t-79 82.5t-28 118.5q0 64 27 117t78 84.5t120 31.5q49 0 88.5 -19t62 -52.5t22.5 -75.5q0 -65 -50.5 -95t-137.5 -30t-147 9q9 -66 54.5 -105t110.5 -39q43 0 75 13zM158 353.5q-43 -42.5 -50 -111.5
q66 -9 142 -9q68 0 101.5 17t33.5 59q0 38 -32.5 62.5t-82.5 24.5q-69 0 -112 -42.5zM167 638l42 48l131 -113l-31 -36z" />
    <glyph glyph-name="emacron.ss01" horiz-adv-x="482" 
d="M349 59q32 13 58 40l34 -42q-66 -68 -168 -68q-69 0 -120 30t-79 82.5t-28 118.5q0 64 27 117t78 84.5t120 31.5q49 0 88.5 -19t62 -52.5t22.5 -75.5q0 -65 -50.5 -95t-137.5 -30t-147 9q9 -66 54.5 -105t110.5 -39q43 0 75 13zM158 353.5q-43 -42.5 -50 -111.5
q66 -9 142 -9q68 0 101.5 17t33.5 59q0 38 -32.5 62.5t-82.5 24.5q-69 0 -112 -42.5zM135 613h257v-53h-257v53z" />
    <glyph glyph-name="eogonek.ss01" horiz-adv-x="483" 
d="M435 49q-65 -66 -90 -105t-25 -69q0 -17 10.5 -26.5t31.5 -9.5q26 0 50 17l18 -47q-37 -24 -81 -24q-43 0 -66.5 21.5t-23.5 57.5q0 31 18.5 63.5t53.5 68.5q-27 -6 -57 -6q-68 0 -119.5 30t-79.5 82t-28 118q0 63 27 116t78 84.5t120 31.5q49 0 88.5 -19t62 -52
t22.5 -74q0 -66 -50.5 -96t-137.5 -30t-147 9q9 -66 54.5 -104.5t110.5 -38.5q81 0 132 51l39 -38zM159 352.5q-43 -42.5 -50 -110.5q66 -9 142 -9q68 0 101.5 17t33.5 59q0 38 -32.5 62t-82.5 24q-69 0 -112 -42.5z" />
    <glyph glyph-name="g.ss01" horiz-adv-x="456" 
d="M409 2q36 -27 36 -81q0 -43 -28 -77.5t-75 -54t-104 -19.5q-66 0 -111 20.5t-67 54t-22 73.5q0 30 12.5 59t35.5 49q-27 27 -27 68q0 48 40 80q-40 46 -40 110q0 46 21.5 84t61.5 60.5t93 22.5q44 0 101 -5q13 -1 44.5 -3t56.5 -2v-44l-77 -2q25 -22 38 -50.5t13 -60.5
q0 -46 -21 -84t-61 -60.5t-94 -22.5q-56 0 -97 25q-20 -16 -20 -42q0 -24 20 -40.5t58 -19.5l115 -7q62 -4 98 -31zM150.5 363q-30.5 -32 -30.5 -79t30.5 -78.5t84.5 -31.5q55 0 85 31.5t30 78.5t-30 79t-85 32q-54 0 -84.5 -32zM339.5 -147.5q44.5 26.5 44.5 66.5
q0 26 -20.5 41t-58.5 17l-107 7q-36 2 -65 13q-18 -14 -26 -32.5t-8 -44.5q0 -39 35 -66.5t104 -27.5q57 0 101.5 26.5z" />
    <glyph glyph-name="gbreve.ss01" horiz-adv-x="456" 
d="M409 2q36 -27 36 -81q0 -43 -28 -77.5t-75 -54t-104 -19.5q-66 0 -111 20.5t-67 54t-22 73.5q0 30 12.5 59t35.5 49q-27 27 -27 68q0 48 40 80q-40 46 -40 110q0 46 21.5 84t61.5 60.5t93 22.5q44 0 101 -5q13 -1 44.5 -3t56.5 -2v-44l-77 -2q25 -22 38 -50.5t13 -60.5
q0 -46 -21 -84t-61 -60.5t-94 -22.5q-56 0 -97 25q-20 -16 -20 -42q0 -24 20 -40.5t58 -19.5l115 -7q62 -4 98 -31zM150.5 363q-30.5 -32 -30.5 -79t30.5 -78.5t84.5 -31.5q55 0 85 31.5t30 78.5t-30 79t-85 32q-54 0 -84.5 -32zM339.5 -147.5q44.5 26.5 44.5 66.5
q0 26 -20.5 41t-58.5 17l-107 7q-36 2 -65 13q-18 -14 -26 -32.5t-8 -44.5q0 -39 35 -66.5t104 -27.5q57 0 101.5 26.5zM158 555.5q-33 27.5 -44 78.5l46 11q7 -30 29 -47t49 -17q25 0 46 17.5t27 46.5l46 -11q-10 -51 -43 -78.5t-78 -27.5t-78 27.5z" />
    <glyph glyph-name="gcircumflex.ss01" horiz-adv-x="456" 
d="M409 2q36 -27 36 -81q0 -43 -28 -77.5t-75 -54t-104 -19.5q-66 0 -111 20.5t-67 54t-22 73.5q0 30 12.5 59t35.5 49q-27 27 -27 68q0 48 40 80q-40 46 -40 110q0 46 21.5 84t61.5 60.5t93 22.5q44 0 101 -5q13 -1 44.5 -3t56.5 -2v-44l-77 -2q25 -22 38 -50.5t13 -60.5
q0 -46 -21 -84t-61 -60.5t-94 -22.5q-56 0 -97 25q-20 -16 -20 -42q0 -24 20 -40.5t58 -19.5l115 -7q62 -4 98 -31zM150.5 363q-30.5 -32 -30.5 -79t30.5 -78.5t84.5 -31.5q55 0 85 31.5t30 78.5t-30 79t-85 32q-54 0 -84.5 -32zM339.5 -147.5q44.5 26.5 44.5 66.5
q0 26 -20.5 41t-58.5 17l-107 7q-36 2 -65 13q-18 -14 -26 -32.5t-8 -44.5q0 -39 35 -66.5t104 -27.5q57 0 101.5 26.5zM109 559l118 102h14l116 -103l-26 -34l-96 76l-98 -76z" />
    <glyph glyph-name="uni0123.ss01" horiz-adv-x="456" 
d="M409 2q36 -27 36 -81q0 -43 -28 -77.5t-75 -54t-104 -19.5q-66 0 -111 20.5t-67 54t-22 73.5q0 30 12.5 59t35.5 49q-27 27 -27 68q0 48 40 80q-40 46 -40 110q0 46 21.5 84t61.5 60.5t93 22.5q44 0 101 -5q13 -1 44.5 -3t56.5 -2v-44l-77 -2q25 -22 38 -50.5t13 -60.5
q0 -46 -21 -84t-61 -60.5t-94 -22.5q-56 0 -97 25q-20 -16 -20 -42q0 -24 20 -40.5t58 -19.5l115 -7q62 -4 98 -31zM150.5 363q-30.5 -32 -30.5 -79t30.5 -78.5t84.5 -31.5q55 0 85 31.5t30 78.5t-30 79t-85 32q-54 0 -84.5 -32zM339.5 -147.5q44.5 26.5 44.5 66.5
q0 26 -20.5 41t-58.5 17l-107 7q-36 2 -65 13q-18 -14 -26 -32.5t-8 -44.5q0 -39 35 -66.5t104 -27.5q57 0 101.5 26.5zM249 712h48q-32 -83 -32 -171h-67q9 102 51 171z" />
    <glyph glyph-name="gdotaccent.ss01" horiz-adv-x="456" 
d="M409 2q36 -27 36 -81q0 -43 -28 -77.5t-75 -54t-104 -19.5q-66 0 -111 20.5t-67 54t-22 73.5q0 30 12.5 59t35.5 49q-27 27 -27 68q0 48 40 80q-40 46 -40 110q0 46 21.5 84t61.5 60.5t93 22.5q44 0 101 -5q13 -1 44.5 -3t56.5 -2v-44l-77 -2q25 -22 38 -50.5t13 -60.5
q0 -46 -21 -84t-61 -60.5t-94 -22.5q-56 0 -97 25q-20 -16 -20 -42q0 -24 20 -40.5t58 -19.5l115 -7q62 -4 98 -31zM150.5 363q-30.5 -32 -30.5 -79t30.5 -78.5t84.5 -31.5q55 0 85 31.5t30 78.5t-30 79t-85 32q-54 0 -84.5 -32zM339.5 -147.5q44.5 26.5 44.5 66.5
q0 26 -20.5 41t-58.5 17l-107 7q-36 2 -65 13q-18 -14 -26 -32.5t-8 -44.5q0 -39 35 -66.5t104 -27.5q57 0 101.5 26.5zM201 569.5q-13 13.5 -13 32.5q0 21 13 34.5t34 13.5t34.5 -14t13.5 -35q0 -19 -13.5 -32t-34.5 -13t-34 13.5z" />
    <glyph glyph-name="y.ss01" horiz-adv-x="520" 
d="M442 442v-477q0 -65 -27.5 -109t-71 -65t-92.5 -21q-58 0 -101 19.5t-76 59.5l40 41q27 -32 60 -47.5t77 -15.5q54 0 92 36t38 104v108q-21 -38 -58.5 -60.5t-91.5 -22.5q-76 0 -117.5 48t-41.5 129v273h61v-278q0 -52 26.5 -83.5t79.5 -31.5q65 0 103.5 49t38.5 127v217
h61z" />
    <glyph glyph-name="yacute.ss01" horiz-adv-x="520" 
d="M442 442v-477q0 -65 -27.5 -109t-71 -65t-92.5 -21q-58 0 -101 19.5t-76 59.5l40 41q27 -32 60 -47.5t77 -15.5q54 0 92 36t38 104v108q-21 -38 -58.5 -60.5t-91.5 -22.5q-76 0 -117.5 48t-41.5 129v273h61v-278q0 -52 26.5 -83.5t79.5 -31.5q65 0 103.5 49t38.5 127v217
h61zM171 573l132 113l40 -47l-141 -102z" />
    <glyph glyph-name="ycircumflex.ss01" horiz-adv-x="520" 
d="M442 442v-477q0 -65 -27.5 -109t-71 -65t-92.5 -21q-58 0 -101 19.5t-76 59.5l40 41q27 -32 60 -47.5t77 -15.5q54 0 92 36t38 104v108q-21 -38 -58.5 -60.5t-91.5 -22.5q-76 0 -117.5 48t-41.5 129v273h61v-278q0 -52 26.5 -83.5t79.5 -31.5q65 0 103.5 49t38.5 127v217
h61zM130 559l118 102h14l116 -103l-26 -34l-96 76l-98 -76z" />
    <glyph glyph-name="ydieresis.ss01" horiz-adv-x="520" 
d="M442 442v-477q0 -65 -27.5 -109t-71 -65t-92.5 -21q-58 0 -101 19.5t-76 59.5l40 41q27 -32 60 -47.5t77 -15.5q54 0 92 36t38 104v108q-21 -38 -58.5 -60.5t-91.5 -22.5q-76 0 -117.5 48t-41.5 129v273h61v-278q0 -52 26.5 -83.5t79.5 -31.5q65 0 103.5 49t38.5 127v217
h61zM137 573.5q-12 12.5 -12 29.5q0 18 11.5 31.5t32.5 13.5q20 0 32 -13t12 -30t-12 -30.5t-32 -13.5t-32 12.5zM309.5 574q-11.5 13 -11.5 30t11.5 30.5t31.5 13.5t32 -13.5t12 -30.5t-12 -30t-32 -13t-31.5 13z" />
    <glyph glyph-name="ygrave.ss01" horiz-adv-x="520" 
d="M442 442v-477q0 -65 -27.5 -109t-71 -65t-92.5 -21q-58 0 -101 19.5t-76 59.5l40 41q27 -32 60 -47.5t77 -15.5q54 0 92 36t38 104v108q-21 -38 -58.5 -60.5t-91.5 -22.5q-76 0 -117.5 48t-41.5 129v273h61v-278q0 -52 26.5 -83.5t79.5 -31.5q65 0 103.5 49t38.5 127v217
h61zM159 638l42 48l131 -113l-31 -36z" />
    <glyph glyph-name="f_b" horiz-adv-x="904" 
d="M750.5 421.5q50.5 -29.5 79 -81.5t28.5 -117q0 -67 -28 -120t-78.5 -83t-115.5 -30q-57 0 -101.5 23.5t-72.5 65.5l-9 -79h-47v631q-32 21 -60 31t-65 10q-53 0 -81.5 -29.5t-28.5 -88.5v-112h145v-54h-145v-388h-61v388h-92v54h92v114q0 77 41.5 125t122.5 48
q41 0 73.5 -11t63.5 -34l7 33h49v-230q0 -44 -2 -120q27 39 72 61.5t99 22.5q64 0 114.5 -29.5zM751 96.5q46 48.5 46 124.5t-46 124.5t-119 48.5q-74 0 -120.5 -48.5t-46.5 -124.5t45.5 -124.5t121.5 -48.5q73 0 119 48.5z" />
    <glyph glyph-name="f_f_b" horiz-adv-x="1241" 
d="M1087.5 421.5q50.5 -29.5 79 -81.5t28.5 -117q0 -67 -28 -120t-78.5 -83t-115.5 -30q-57 0 -102 24t-72 67l-9 -81h-47v630q-34 22 -64 32t-70 10q-53 0 -81.5 -29.5t-28.5 -88.5v-112h141v-54h-141v-388h-61v388h-267v-388h-61v388h-92v54h92v127q0 69 37 114.5
t108 45.5q56 0 103 -23l-19 -50q-35 16 -77 16q-43 0 -67 -26.5t-24 -76.5v-127h267v114q0 77 41.5 125t122.5 48q43 0 77.5 -11t68.5 -34l7 33h49v-230q0 -43 -2 -123q27 41 72 64t99 23q64 0 114.5 -29.5zM1088 96.5q46 48.5 46 124.5t-46 124.5t-119 48.5
q-74 0 -120.5 -48.5t-46.5 -124.5t45.5 -124.5t121.5 -48.5q73 0 119 48.5z" />
    <glyph glyph-name="f_f_h" horiz-adv-x="1187" 
d="M1072.5 403q43.5 -48 43.5 -128v-275h-61v278q0 52 -28 84t-81 32q-65 0 -103.5 -50.5t-38.5 -125.5v-218h-61v626q-36 24 -65.5 35t-68.5 11q-53 0 -81.5 -29.5t-28.5 -88.5v-112h141v-54h-141v-388h-61v388h-267v-388h-61v388h-92v54h92v127q0 69 37 114.5t108 45.5
q56 0 103 -23l-19 -50q-36 16 -77 16q-43 0 -67 -26.5t-24 -76.5v-127h267v114q0 77 41.5 125t122.5 48q43 0 78 -12t68 -37l8 37h48v-286q0 -44 -1 -68q20 39 59 63.5t90 24.5q77 0 120.5 -48z" />
    <glyph glyph-name="f_f_j" horiz-adv-x="882" 
d="M804 -27q0 -69 -15.5 -111.5t-53 -65t-104.5 -26.5l-8 54q49 4 75 20t35.5 45.5t9.5 80.5v418h-244v-388h-61v388h-267v-388h-61v388h-92v54h92v127q0 69 37 114.5t108 45.5q29 0 53 -5.5t50 -17.5l-19 -50q-35 16 -77 16q-43 0 -67 -26.5t-24 -76.5v-127h267v111
q0 81 43 128.5t127 47.5q50 0 91 -18t82 -54l-33 -40q-33 28 -64 41.5t-69 13.5q-116 0 -116 -119v-111h305v-469z" />
    <glyph glyph-name="f_f_k" horiz-adv-x="1099" 
d="M1089 5v-5h-76l-208 209h-1v-209h-61v630q-33 22 -64.5 32t-69.5 10q-53 0 -81.5 -29.5t-28.5 -88.5v-112h140v-54h-140v-388h-61v388h-267v-388h-61v388h-92v54h92v127q0 69 37 114.5t108 45.5q56 0 103 -23l-19 -50q-35 16 -77 16q-43 0 -67 -26.5t-24 -76.5v-127h267
v114q0 77 41.5 125t122.5 48q83 0 146 -46l7 34h49v-469h2l189 194h74v-3l-206 -209z" />
    <glyph glyph-name="f_h" horiz-adv-x="850" 
d="M735 403q43 -48 43 -128v-275h-61v278q0 52 -27.5 84t-80.5 32q-65 0 -103.5 -50.5t-38.5 -125.5v-218h-61v631q-32 21 -60 31t-65 10q-53 0 -81.5 -29.5t-28.5 -88.5v-112h144v-54h-144v-388h-61v388h-92v54h92v114q0 77 41.5 125t122.5 48q41 0 73.5 -11t63.5 -34l7 33
h49v-282q0 -47 -1 -72q20 40 58.5 64t90.5 24q77 0 120 -48z" />
    <glyph glyph-name="f_j" horiz-adv-x="552" 
d="M474 -27q0 -69 -15.5 -111.5t-53 -65t-104.5 -26.5l-8 54q49 4 75 20t35.5 45.5t9.5 80.5v418h-242v-388h-61v388h-92v54h92v111q0 81 42.5 128.5t126.5 47.5q54 0 97.5 -18t83.5 -54l-31 -42q-33 28 -66.5 42.5t-75.5 14.5q-55 0 -85.5 -29t-30.5 -90v-111h303v-469z
" />
    <glyph glyph-name="f_k" horiz-adv-x="762" 
d="M752 5v-5h-76l-209 205v-205h-61v631q-31 21 -59.5 31t-65.5 10q-53 0 -81.5 -29.5t-28.5 -88.5v-112h145v-54h-145v-388h-61v388h-92v54h92v114q0 77 41 125t123 48q41 0 74 -11t63 -34l7 33h49v-469l191 194h74v-3l-210 -211z" />
    <glyph glyph-name="uni0414.loclBGR" horiz-adv-x="736" 
d="M726 60v-212h-65v152h-586v-152h-65v212h69l278 620h22l278 -620h69zM348 511l-199 -451h436l-197 451q-17 39 -20 51q-3 -12 -20 -51z" />
    <glyph glyph-name="uni041B.loclBGR" horiz-adv-x="682" 
d="M668 2v-2h-70l-234 509q-16 36 -23 63q-9 -29 -24 -63l-234 -509h-69v2l316 683h22z" />
    <glyph glyph-name="uni0424.loclBGR" horiz-adv-x="871" 
d="M773 165q-41 -79 -119.5 -126t-185.5 -49v-102h-65v102q-102 2 -181 49t-122 126.5t-43 174.5q0 96 41 174.5t119 125.5t186 50v102h65v-102q102 -2 181 -49t122 -126.5t43 -174.5q0 -96 -41 -175zM620.5 91q63.5 39 95.5 103.5t32 145.5q0 78 -33.5 143.5t-97.5 105
t-150 41.5v-580q90 2 153.5 41zM156.5 196q33.5 -66 97.5 -105.5t151 -40.5v580q-91 -3 -154.5 -41.5t-95.5 -103t-32 -145.5q0 -78 33.5 -144z" />
    <glyph glyph-name="uni0414.ss02" horiz-adv-x="736" 
d="M726 60v-212h-65v152h-586v-152h-65v212h69l278 620h22l278 -620h69zM348 511l-199 -451h436l-197 451q-17 39 -20 51q-3 -12 -20 -51z" />
    <glyph glyph-name="uni041B.ss02" horiz-adv-x="682" 
d="M668 2v-2h-70l-234 509q-16 36 -23 63q-9 -29 -24 -63l-234 -509h-69v2l316 683h22z" />
    <glyph glyph-name="uni0424.ss02" horiz-adv-x="871" 
d="M773 165q-41 -79 -119.5 -126t-185.5 -49v-102h-65v102q-102 2 -181 49t-122 126.5t-43 174.5q0 96 41 174.5t119 125.5t186 50v102h65v-102q102 -2 181 -49t122 -126.5t43 -174.5q0 -96 -41 -175zM620.5 91q63.5 39 95.5 103.5t32 145.5q0 78 -33.5 143.5t-97.5 105
t-150 41.5v-580q90 2 153.5 41zM156.5 196q33.5 -66 97.5 -105.5t151 -40.5v580q-91 -3 -154.5 -41.5t-95.5 -103t-32 -145.5q0 -78 33.5 -144z" />
    <glyph glyph-name="uni0414.ss03" horiz-adv-x="736" 
d="M726 60v-212h-65v152h-586v-152h-65v212h69l278 620h22l278 -620h69zM348 511l-199 -451h436l-197 451q-17 39 -20 51q-3 -12 -20 -51z" />
    <glyph glyph-name="uni041B.ss03" horiz-adv-x="682" 
d="M668 2v-2h-70l-234 509q-16 36 -23 63q-9 -29 -24 -63l-234 -509h-69v2l316 683h22z" />
    <glyph glyph-name="uni0424.ss03" horiz-adv-x="871" 
d="M773 165q-41 -79 -119.5 -126t-185.5 -49v-102h-65v102q-102 2 -181 49t-122 126.5t-43 174.5q0 96 41 174.5t119 125.5t186 50v102h65v-102q102 -2 181 -49t122 -126.5t43 -174.5q0 -96 -41 -175zM620.5 91q63.5 39 95.5 103.5t32 145.5q0 78 -33.5 143.5t-97.5 105
t-150 41.5v-580q90 2 153.5 41zM156.5 196q33.5 -66 97.5 -105.5t151 -40.5v580q-91 -3 -154.5 -41.5t-95.5 -103t-32 -145.5q0 -78 33.5 -144z" />
    <glyph glyph-name="uni0432.loclBGR" horiz-adv-x="554" 
d="M470 321q38 -50 38 -121q0 -63 -28 -110.5t-78.5 -73.5t-117.5 -26q-98 0 -156.5 68.5t-58.5 199.5v144q0 149 63.5 226.5t172.5 77.5q78 0 122.5 -41.5t44.5 -109.5q0 -106 -107 -170q67 -14 105 -64zM179 582.5q-46 -64.5 -46 -181.5v-48l109 34q84 26 124.5 66.5
t40.5 96.5q0 45 -27 71t-77 26q-78 0 -124 -64.5zM399.5 89q42.5 41 42.5 110q0 61 -36 100t-96 39q-40 0 -78 -12l-99 -31v-40q0 -104 41 -155.5t114 -51.5q69 0 111.5 41z" />
    <glyph glyph-name="uni0433.loclBGR" horiz-adv-x="388" 
d="M85 20q-43 30 -43 91q0 52 34.5 85.5t101.5 54.5q56 19 76.5 36.5t20.5 44.5q0 29 -23 43.5t-57 14.5q-57 0 -108 -31l-25 50q29 18 64.5 28t71.5 10q60 0 98.5 -29.5t38.5 -83.5q0 -51 -32 -81.5t-105 -53.5q-47 -15 -70.5 -35t-23.5 -51q0 -34 26 -50t65 -16
q65 0 121 41l30 -48q-67 -50 -154 -50q-64 0 -107 30z" />
    <glyph glyph-name="uni0434.loclBGR" horiz-adv-x="576" 
d="M498 442v-471q0 -65 -29.5 -110.5t-79 -68t-109.5 -22.5q-119 0 -200 79l38 43q67 -65 159 -65q71 0 115.5 37t44.5 108q0 68 1 100q-29 -39 -74.5 -59.5t-95.5 -20.5q-66 0 -116.5 30.5t-78 83t-27.5 115.5q0 64 27 116.5t76.5 83t115.5 30.5q55 0 100 -21t74 -61l14 73
h45zM395 98q44 49 44 123t-43.5 123.5t-123.5 49.5q-76 0 -120 -49t-44 -123q0 -75 44.5 -124t118.5 -49q80 0 124 49z" />
    <glyph glyph-name="uni0436.loclBGR" horiz-adv-x="608" 
d="M598 5v-5h-71l-192 208v-208h-61v209l-193 -209h-71v5l208 225l-186 209v3h73l169 -195v449h61v-449l168 195h73v-3l-186 -209z" />
    <glyph glyph-name="uni0437.loclBGR" horiz-adv-x="401" 
d="M-7 -175l28 48q32 -25 66 -36t76 -11q74 0 116.5 37t42.5 102t-41.5 100.5t-111.5 35.5h-75v56h76q52 0 86 34t34 88q0 53 -32.5 82.5t-90.5 29.5q-32 0 -59 -8t-62 -27l-25 48q39 22 75 32.5t75 10.5q82 0 131 -44.5t49 -121.5q0 -50 -22.5 -88.5t-62.5 -59.5
q52 -15 84.5 -61t32.5 -109q0 -90 -58.5 -141.5t-160.5 -51.5q-101 0 -171 55z" />
    <glyph glyph-name="uni0438.loclBGR" horiz-adv-x="519" 
d="M441 442v-442h-47l-13 77q-20 -38 -58.5 -61.5t-89.5 -23.5q-80 0 -120.5 48.5t-40.5 132.5v269h61v-270q0 -123 107 -123q64 0 102 50t38 123v220h61z" />
    <glyph glyph-name="uni0439.loclBGR" horiz-adv-x="519" 
d="M441 442v-442h-47l-13 77q-20 -38 -58.5 -61.5t-89.5 -23.5q-80 0 -120.5 48.5t-40.5 132.5v269h61v-270q0 -123 107 -123q64 0 102 50t38 123v220h61zM183.5 553q-32.5 18 -52.5 54l37 28q15 -24 39 -37.5t51 -13.5t50.5 13.5t39.5 37.5l36 -28q-19 -36 -51.5 -54
t-74.5 -18t-74.5 18z" />
    <glyph glyph-name="uni045D.loclBGR" horiz-adv-x="522" 
d="M441 442v-442h-47l-13 77q-20 -38 -58.5 -61.5t-89.5 -23.5q-80 0 -120.5 48.5t-40.5 132.5v269h61v-270q0 -123 107 -123q64 0 102 50t38 123v220h61zM152 645l42 48l131 -113l-31 -36z" />
    <glyph glyph-name="uni043A.loclBGR" horiz-adv-x="434" 
d="M424 4v-4h-76l-209 207v-207h-61v696h61v-447l191 193h74v-3l-209 -209z" />
    <glyph glyph-name="uni043B.loclBGR" horiz-adv-x="460" 
d="M446 2v-2h-66l-126 282q-17 41 -24 63q-7 -27 -24 -63l-126 -282h-66v2l205 444h22z" />
    <glyph glyph-name="uni043F.loclBGR" horiz-adv-x="522" 
d="M410 404q40 -47 40 -134v-270h-61v271q0 123 -102 123q-66 0 -107 -43.5t-41 -112.5v-238h-61v442h46l14 -75q21 37 61 60.5t94 23.5q77 0 117 -47z" />
    <glyph glyph-name="uni0442.loclBGR" horiz-adv-x="800" 
d="M688 404.5q40 -46.5 40 -127.5v-277h-61v280q0 53 -26 83.5t-72 30.5q-43 0 -73.5 -23t-46 -60.5t-15.5 -80.5v-230h-61v281q0 49 -25 81t-73 32q-64 0 -100 -48.5t-36 -115.5v-230h-61v442h46l14 -76q22 41 59 63t85 22q50 0 85.5 -23.5t51.5 -65.5q23 42 61.5 65.5
t92.5 23.5q75 0 115 -46.5z" />
    <glyph glyph-name="uni0446.loclBGR" horiz-adv-x="527" 
d="M506 56v-173h-59v120q-55 12 -62 76q-49 -87 -154 -87q-77 0 -118 48t-41 131v271h61v-275q0 -54 25.5 -86t78.5 -32q67 0 105.5 49.5t38.5 122.5v221h61v-336q0 -27 12 -38.5t40 -11.5h12z" />
    <glyph glyph-name="uni0448.loclBGR" horiz-adv-x="798" 
d="M720 442v-442h-47l-13 78q-22 -40 -59.5 -62.5t-84.5 -22.5q-50 0 -85.5 24t-51.5 67q-22 -43 -60.5 -67t-90.5 -24q-74 0 -115 46t-41 128v275h61v-279q0 -53 26 -83t72 -30q42 0 72.5 24t46 63t15.5 83v222h61v-279q0 -48 25 -80.5t73 -32.5q42 0 72.5 24t46.5 63
t16 83v222h61z" />
    <glyph glyph-name="uni0449.loclBGR" horiz-adv-x="805" 
d="M784 57v-174h-59v121q-54 14 -62 73q-23 -39 -59.5 -61.5t-84.5 -22.5q-52 0 -87.5 23.5t-52.5 67.5q-21 -43 -59 -67t-92 -24q-75 0 -115.5 46.5t-40.5 126.5v276h61v-279q0 -51 25.5 -82t72.5 -31q42 0 72.5 24t46 63t15.5 83v222h61v-279q0 -48 25 -80.5t73 -32.5
q42 0 72.5 24t46.5 63t16 83v222h61v-335q0 -27 12 -38.5t40 -11.5h12z" />
    <glyph glyph-name="uni044C.loclBGR" horiz-adv-x="468" 
d="M386 271q48 -44 48 -117q0 -74 -48.5 -118t-130.5 -44q-86 0 -134.5 45t-48.5 125v280h61v-173q24 22 56.5 34t71.5 12q77 0 125 -44zM340.5 75.5q32.5 29.5 32.5 78.5q0 48 -32.5 76.5t-85.5 28.5q-57 0 -91 -28t-34 -75q0 -52 33 -81t92 -29q53 0 85.5 29.5z" />
    <glyph glyph-name="uni044A.loclBGR" horiz-adv-x="526" 
d="M443.5 271.5q48.5 -43.5 48.5 -116.5q0 -75 -49 -119t-130 -44q-86 0 -134.5 45.5t-48.5 122.5v226h-120v56h181v-172q47 45 127 45q77 0 125.5 -43.5zM398 76q33 29 33 79q0 48 -33 76t-86 28q-55 0 -88.5 -26.5t-33.5 -77.5t33 -79.5t90 -28.5q52 0 85 29z" />
    <glyph glyph-name="uni044B.loclBGR" horiz-adv-x="669" 
d="M386 271q48 -44 48 -117q0 -74 -48.5 -118t-130.5 -44q-86 0 -134.5 45t-48.5 125v280h61v-173q24 22 56.5 34t71.5 12q77 0 125 -44zM340.5 75.5q32.5 29.5 32.5 78.5q0 48 -32.5 76.5t-85.5 28.5q-57 0 -91 -28t-34 -75q0 -52 33 -81t92 -29q53 0 85.5 29.5zM530 442
h61v-442h-61v442z" />
    <glyph glyph-name="uni0430.ss01" horiz-adv-x="576" 
d="M498 442v-442h-47l-9 76q-30 -41 -75 -63.5t-101 -22.5q-64 0 -114.5 30t-78 82t-27.5 118t28 118.5t78.5 82.5t115.5 30q52 0 95.5 -21t74.5 -62l13 74h47zM393.5 96q46.5 48 46.5 124q0 77 -46 125.5t-122 48.5q-74 0 -119.5 -48.5t-45.5 -125.5q0 -76 46 -124t119 -48
q75 0 121.5 48z" />
    <glyph glyph-name="uni0435.ss01" horiz-adv-x="482" 
d="M349 59q32 13 58 40l34 -42q-66 -68 -168 -68q-69 0 -120 30t-79 82.5t-28 118.5q0 64 27 117t78 84.5t120 31.5q49 0 88.5 -19t62 -52.5t22.5 -75.5q0 -65 -50.5 -95t-137.5 -30t-147 9q9 -66 54.5 -105t110.5 -39q43 0 75 13zM158 353.5q-43 -42.5 -50 -111.5
q66 -9 142 -9q68 0 101.5 17t33.5 59q0 38 -32.5 62.5t-82.5 24.5q-69 0 -112 -42.5z" />
    <glyph glyph-name="uni0443.ss01" horiz-adv-x="520" 
d="M442 442v-477q0 -65 -27.5 -109t-71 -65t-92.5 -21q-58 0 -101 19.5t-76 59.5l40 41q27 -32 60 -47.5t77 -15.5q54 0 92 36t38 104v108q-21 -38 -58.5 -60.5t-91.5 -22.5q-76 0 -117.5 48t-41.5 129v273h61v-278q0 -52 26.5 -83.5t79.5 -31.5q65 0 103.5 49t38.5 127v217
h61z" />
    <glyph glyph-name="uni0432.ss02" horiz-adv-x="554" 
d="M470 321q38 -50 38 -121q0 -63 -28 -110.5t-78.5 -73.5t-117.5 -26q-98 0 -156.5 68.5t-58.5 199.5v144q0 149 63.5 226.5t172.5 77.5q78 0 122.5 -41.5t44.5 -109.5q0 -106 -107 -170q67 -14 105 -64zM179 582.5q-46 -64.5 -46 -181.5v-48l109 34q84 26 124.5 66.5
t40.5 96.5q0 45 -27 71t-77 26q-78 0 -124 -64.5zM399.5 89q42.5 41 42.5 110q0 61 -36 100t-96 39q-40 0 -78 -12l-99 -31v-40q0 -104 41 -155.5t114 -51.5q69 0 111.5 41z" />
    <glyph glyph-name="uni0433.ss02" horiz-adv-x="388" 
d="M85 20q-43 30 -43 91q0 52 34.5 85.5t101.5 54.5q56 19 76.5 36.5t20.5 44.5q0 29 -23 43.5t-57 14.5q-57 0 -108 -31l-25 50q29 18 64.5 28t71.5 10q60 0 98.5 -29.5t38.5 -83.5q0 -51 -32 -81.5t-105 -53.5q-47 -15 -70.5 -35t-23.5 -51q0 -34 26 -50t65 -16
q65 0 121 41l30 -48q-67 -50 -154 -50q-64 0 -107 30z" />
    <glyph glyph-name="uni0434.ss02" horiz-adv-x="576" 
d="M498 442v-471q0 -65 -29.5 -110.5t-79 -68t-109.5 -22.5q-119 0 -200 79l38 43q67 -65 159 -65q71 0 115.5 37t44.5 108q0 68 1 100q-29 -39 -74.5 -59.5t-95.5 -20.5q-66 0 -116.5 30.5t-78 83t-27.5 115.5q0 64 27 116.5t76.5 83t115.5 30.5q55 0 100 -21t74 -61l14 73
h45zM395 98q44 49 44 123t-43.5 123.5t-123.5 49.5q-76 0 -120 -49t-44 -123q0 -75 44.5 -124t118.5 -49q80 0 124 49z" />
    <glyph glyph-name="uni0436.ss02" horiz-adv-x="608" 
d="M598 5v-5h-71l-192 208v-208h-61v209l-193 -209h-71v5l208 225l-186 209v3h73l169 -195v449h61v-449l168 195h73v-3l-186 -209z" />
    <glyph glyph-name="uni0437.ss02" horiz-adv-x="401" 
d="M-7 -175l28 48q32 -25 66 -36t76 -11q74 0 116.5 37t42.5 102t-41.5 100.5t-111.5 35.5h-75v56h76q52 0 86 34t34 88q0 53 -32.5 82.5t-90.5 29.5q-32 0 -59 -8t-62 -27l-25 48q39 22 75 32.5t75 10.5q82 0 131 -44.5t49 -121.5q0 -50 -22.5 -88.5t-62.5 -59.5
q52 -15 84.5 -61t32.5 -109q0 -90 -58.5 -141.5t-160.5 -51.5q-101 0 -171 55z" />
    <glyph glyph-name="uni0438.ss02" horiz-adv-x="519" 
d="M441 442v-442h-47l-13 77q-20 -38 -58.5 -61.5t-89.5 -23.5q-80 0 -120.5 48.5t-40.5 132.5v269h61v-270q0 -123 107 -123q64 0 102 50t38 123v220h61z" />
    <glyph glyph-name="uni0439.ss02" horiz-adv-x="519" 
d="M441 442v-442h-47l-13 77q-20 -38 -58.5 -61.5t-89.5 -23.5q-80 0 -120.5 48.5t-40.5 132.5v269h61v-270q0 -123 107 -123q64 0 102 50t38 123v220h61zM183.5 553q-32.5 18 -52.5 54l37 28q15 -24 39 -37.5t51 -13.5t50.5 13.5t39.5 37.5l36 -28q-19 -36 -51.5 -54
t-74.5 -18t-74.5 18z" />
    <glyph glyph-name="uni045D.ss02" horiz-adv-x="519" 
d="M441 442v-442h-47l-13 77q-20 -38 -58.5 -61.5t-89.5 -23.5q-80 0 -120.5 48.5t-40.5 132.5v269h61v-270q0 -123 107 -123q64 0 102 50t38 123v220h61zM162 638l42 48l131 -113l-31 -36z" />
    <glyph glyph-name="uni043A.ss02" horiz-adv-x="434" 
d="M424 4v-4h-76l-209 207v-207h-61v696h61v-447l191 193h74v-3l-209 -209z" />
    <glyph glyph-name="uni043B.ss02" horiz-adv-x="460" 
d="M446 2v-2h-66l-126 282q-17 41 -24 63q-7 -27 -24 -63l-126 -282h-66v2l205 444h22z" />
    <glyph glyph-name="uni043F.ss02" horiz-adv-x="522" 
d="M410 404q40 -47 40 -134v-270h-61v271q0 123 -102 123q-66 0 -107 -43.5t-41 -112.5v-238h-61v442h46l14 -75q21 37 61 60.5t94 23.5q77 0 117 -47z" />
    <glyph glyph-name="uni0442.ss02" horiz-adv-x="800" 
d="M688 404.5q40 -46.5 40 -127.5v-277h-61v280q0 53 -26 83.5t-72 30.5q-43 0 -73.5 -23t-46 -60.5t-15.5 -80.5v-230h-61v281q0 49 -25 81t-73 32q-64 0 -100 -48.5t-36 -115.5v-230h-61v442h46l14 -76q22 41 59 63t85 22q50 0 85.5 -23.5t51.5 -65.5q23 42 61.5 65.5
t92.5 23.5q75 0 115 -46.5z" />
    <glyph glyph-name="uni0446.ss02" horiz-adv-x="527" 
d="M506 56v-173h-59v120q-55 12 -62 76q-49 -87 -154 -87q-77 0 -118 48t-41 131v271h61v-275q0 -54 25.5 -86t78.5 -32q67 0 105.5 49.5t38.5 122.5v221h61v-336q0 -27 12 -38.5t40 -11.5h12z" />
    <glyph glyph-name="uni0448.ss02" horiz-adv-x="798" 
d="M720 442v-442h-47l-13 78q-22 -40 -59.5 -62.5t-84.5 -22.5q-50 0 -85.5 24t-51.5 67q-22 -43 -60.5 -67t-90.5 -24q-74 0 -115 46t-41 128v275h61v-279q0 -53 26 -83t72 -30q42 0 72.5 24t46 63t15.5 83v222h61v-279q0 -48 25 -80.5t73 -32.5q42 0 72.5 24t46.5 63
t16 83v222h61z" />
    <glyph glyph-name="uni0449.ss02" horiz-adv-x="805" 
d="M784 57v-174h-59v121q-54 14 -62 73q-23 -39 -59.5 -61.5t-84.5 -22.5q-52 0 -87.5 23.5t-52.5 67.5q-21 -43 -59 -67t-92 -24q-75 0 -115.5 46.5t-40.5 126.5v276h61v-279q0 -51 25.5 -82t72.5 -31q42 0 72.5 24t46 63t15.5 83v222h61v-279q0 -48 25 -80.5t73 -32.5
q42 0 72.5 24t46.5 63t16 83v222h61v-335q0 -27 12 -38.5t40 -11.5h12z" />
    <glyph glyph-name="uni044C.ss02" horiz-adv-x="468" 
d="M386 271q48 -44 48 -117q0 -74 -48.5 -118t-130.5 -44q-86 0 -134.5 45t-48.5 125v280h61v-173q24 22 56.5 34t71.5 12q77 0 125 -44zM340.5 75.5q32.5 29.5 32.5 78.5q0 48 -32.5 76.5t-85.5 28.5q-57 0 -91 -28t-34 -75q0 -52 33 -81t92 -29q53 0 85.5 29.5z" />
    <glyph glyph-name="uni044A.ss02" horiz-adv-x="526" 
d="M443.5 271.5q48.5 -43.5 48.5 -116.5q0 -75 -49 -119t-130 -44q-86 0 -134.5 45.5t-48.5 122.5v226h-120v56h181v-172q47 45 127 45q77 0 125.5 -43.5zM398 76q33 29 33 79q0 48 -33 76t-86 28q-55 0 -88.5 -26.5t-33.5 -77.5t33 -79.5t90 -28.5q52 0 85 29z" />
    <glyph glyph-name="uni044B.ss02" horiz-adv-x="669" 
d="M386 271q48 -44 48 -117q0 -74 -48.5 -118t-130.5 -44q-86 0 -134.5 45t-48.5 125v280h61v-173q24 22 56.5 34t71.5 12q77 0 125 -44zM340.5 75.5q32.5 29.5 32.5 78.5q0 48 -32.5 76.5t-85.5 28.5q-57 0 -91 -28t-34 -75q0 -52 33 -81t92 -29q53 0 85.5 29.5zM530 442
h61v-442h-61v442z" />
    <glyph glyph-name="uni0430.ss03" horiz-adv-x="576" 
d="M498 442v-442h-47l-9 76q-30 -41 -75 -63.5t-101 -22.5q-64 0 -114.5 30t-78 82t-27.5 118t28 118.5t78.5 82.5t115.5 30q52 0 95.5 -21t74.5 -62l13 74h47zM393.5 96q46.5 48 46.5 124q0 77 -46 125.5t-122 48.5q-74 0 -119.5 -48.5t-45.5 -125.5q0 -76 46 -124t119 -48
q75 0 121.5 48z" />
    <glyph glyph-name="uni0432.ss03" horiz-adv-x="554" 
d="M470 321q38 -50 38 -121q0 -63 -28 -110.5t-78.5 -73.5t-117.5 -26q-98 0 -156.5 68.5t-58.5 199.5v144q0 149 63.5 226.5t172.5 77.5q78 0 122.5 -41.5t44.5 -109.5q0 -106 -107 -170q67 -14 105 -64zM179 582.5q-46 -64.5 -46 -181.5v-48l109 34q84 26 124.5 66.5
t40.5 96.5q0 45 -27 71t-77 26q-78 0 -124 -64.5zM399.5 89q42.5 41 42.5 110q0 61 -36 100t-96 39q-40 0 -78 -12l-99 -31v-40q0 -104 41 -155.5t114 -51.5q69 0 111.5 41z" />
    <glyph glyph-name="uni0433.ss03" horiz-adv-x="388" 
d="M85 20q-43 30 -43 91q0 52 34.5 85.5t101.5 54.5q56 19 76.5 36.5t20.5 44.5q0 29 -23 43.5t-57 14.5q-57 0 -108 -31l-25 50q29 18 64.5 28t71.5 10q60 0 98.5 -29.5t38.5 -83.5q0 -51 -32 -81.5t-105 -53.5q-47 -15 -70.5 -35t-23.5 -51q0 -34 26 -50t65 -16
q65 0 121 41l30 -48q-67 -50 -154 -50q-64 0 -107 30z" />
    <glyph glyph-name="uni0434.ss03" horiz-adv-x="576" 
d="M498 442v-471q0 -65 -29.5 -110.5t-79 -68t-109.5 -22.5q-119 0 -200 79l38 43q67 -65 159 -65q71 0 115.5 37t44.5 108q0 68 1 100q-29 -39 -74.5 -59.5t-95.5 -20.5q-66 0 -116.5 30.5t-78 83t-27.5 115.5q0 64 27 116.5t76.5 83t115.5 30.5q55 0 100 -21t74 -61l14 73
h45zM395 98q44 49 44 123t-43.5 123.5t-123.5 49.5q-76 0 -120 -49t-44 -123q0 -75 44.5 -124t118.5 -49q80 0 124 49z" />
    <glyph glyph-name="uni0435.ss03" horiz-adv-x="482" 
d="M349 59q32 13 58 40l34 -42q-66 -68 -168 -68q-69 0 -120 30t-79 82.5t-28 118.5q0 64 27 117t78 84.5t120 31.5q49 0 88.5 -19t62 -52.5t22.5 -75.5q0 -65 -50.5 -95t-137.5 -30t-147 9q9 -66 54.5 -105t110.5 -39q43 0 75 13zM158 353.5q-43 -42.5 -50 -111.5
q66 -9 142 -9q68 0 101.5 17t33.5 59q0 38 -32.5 62.5t-82.5 24.5q-69 0 -112 -42.5z" />
    <glyph glyph-name="uni0436.ss03" horiz-adv-x="608" 
d="M598 5v-5h-71l-192 208v-208h-61v209l-193 -209h-71v5l208 225l-186 209v3h73l169 -195v449h61v-449l168 195h73v-3l-186 -209z" />
    <glyph glyph-name="uni0437.ss03" horiz-adv-x="401" 
d="M-7 -175l28 48q32 -25 66 -36t76 -11q74 0 116.5 37t42.5 102t-41.5 100.5t-111.5 35.5h-75v56h76q52 0 86 34t34 88q0 53 -32.5 82.5t-90.5 29.5q-32 0 -59 -8t-62 -27l-25 48q39 22 75 32.5t75 10.5q82 0 131 -44.5t49 -121.5q0 -50 -22.5 -88.5t-62.5 -59.5
q52 -15 84.5 -61t32.5 -109q0 -90 -58.5 -141.5t-160.5 -51.5q-101 0 -171 55z" />
    <glyph glyph-name="uni0438.ss03" horiz-adv-x="519" 
d="M441 442v-442h-47l-13 77q-20 -38 -58.5 -61.5t-89.5 -23.5q-80 0 -120.5 48.5t-40.5 132.5v269h61v-270q0 -123 107 -123q64 0 102 50t38 123v220h61z" />
    <glyph glyph-name="uni0439.ss03" horiz-adv-x="519" 
d="M441 442v-442h-47l-13 77q-20 -38 -58.5 -61.5t-89.5 -23.5q-80 0 -120.5 48.5t-40.5 132.5v269h61v-270q0 -123 107 -123q64 0 102 50t38 123v220h61zM183.5 553q-32.5 18 -52.5 54l37 28q15 -24 39 -37.5t51 -13.5t50.5 13.5t39.5 37.5l36 -28q-19 -36 -51.5 -54
t-74.5 -18t-74.5 18z" />
    <glyph glyph-name="uni045D.ss03" horiz-adv-x="522" 
d="M441 442v-442h-47l-13 77q-20 -38 -58.5 -61.5t-89.5 -23.5q-80 0 -120.5 48.5t-40.5 132.5v269h61v-270q0 -123 107 -123q64 0 102 50t38 123v220h61zM152 645l42 48l131 -113l-31 -36z" />
    <glyph glyph-name="uni043A.ss03" horiz-adv-x="434" 
d="M424 4v-4h-76l-209 207v-207h-61v696h61v-447l191 193h74v-3l-209 -209z" />
    <glyph glyph-name="uni043B.ss03" horiz-adv-x="460" 
d="M446 2v-2h-66l-126 282q-17 41 -24 63q-7 -27 -24 -63l-126 -282h-66v2l205 444h22z" />
    <glyph glyph-name="uni043F.ss03" horiz-adv-x="522" 
d="M410 404q40 -47 40 -134v-270h-61v271q0 123 -102 123q-66 0 -107 -43.5t-41 -112.5v-238h-61v442h46l14 -75q21 37 61 60.5t94 23.5q77 0 117 -47z" />
    <glyph glyph-name="uni0442.ss03" horiz-adv-x="800" 
d="M688 404.5q40 -46.5 40 -127.5v-277h-61v280q0 53 -26 83.5t-72 30.5q-43 0 -73.5 -23t-46 -60.5t-15.5 -80.5v-230h-61v281q0 49 -25 81t-73 32q-64 0 -100 -48.5t-36 -115.5v-230h-61v442h46l14 -76q22 41 59 63t85 22q50 0 85.5 -23.5t51.5 -65.5q23 42 61.5 65.5
t92.5 23.5q75 0 115 -46.5z" />
    <glyph glyph-name="uni0443.ss03" horiz-adv-x="520" 
d="M442 442v-477q0 -65 -27.5 -109t-71 -65t-92.5 -21q-58 0 -101 19.5t-76 59.5l40 41q27 -32 60 -47.5t77 -15.5q54 0 92 36t38 104v108q-21 -38 -58.5 -60.5t-91.5 -22.5q-76 0 -117.5 48t-41.5 129v273h61v-278q0 -52 26.5 -83.5t79.5 -31.5q65 0 103.5 49t38.5 127v217
h61z" />
    <glyph glyph-name="uni0446.ss03" horiz-adv-x="527" 
d="M506 56v-173h-59v120q-55 12 -62 76q-49 -87 -154 -87q-77 0 -118 48t-41 131v271h61v-275q0 -54 25.5 -86t78.5 -32q67 0 105.5 49.5t38.5 122.5v221h61v-336q0 -27 12 -38.5t40 -11.5h12z" />
    <glyph glyph-name="uni0448.ss03" horiz-adv-x="798" 
d="M720 442v-442h-47l-13 78q-22 -40 -59.5 -62.5t-84.5 -22.5q-50 0 -85.5 24t-51.5 67q-22 -43 -60.5 -67t-90.5 -24q-74 0 -115 46t-41 128v275h61v-279q0 -53 26 -83t72 -30q42 0 72.5 24t46 63t15.5 83v222h61v-279q0 -48 25 -80.5t73 -32.5q42 0 72.5 24t46.5 63
t16 83v222h61z" />
    <glyph glyph-name="uni0449.ss03" horiz-adv-x="805" 
d="M784 57v-174h-59v121q-54 14 -62 73q-23 -39 -59.5 -61.5t-84.5 -22.5q-52 0 -87.5 23.5t-52.5 67.5q-21 -43 -59 -67t-92 -24q-75 0 -115.5 46.5t-40.5 126.5v276h61v-279q0 -51 25.5 -82t72.5 -31q42 0 72.5 24t46 63t15.5 83v222h61v-279q0 -48 25 -80.5t73 -32.5
q42 0 72.5 24t46.5 63t16 83v222h61v-335q0 -27 12 -38.5t40 -11.5h12z" />
    <glyph glyph-name="uni044C.ss03" horiz-adv-x="468" 
d="M386 271q48 -44 48 -117q0 -74 -48.5 -118t-130.5 -44q-86 0 -134.5 45t-48.5 125v280h61v-173q24 22 56.5 34t71.5 12q77 0 125 -44zM340.5 75.5q32.5 29.5 32.5 78.5q0 48 -32.5 76.5t-85.5 28.5q-57 0 -91 -28t-34 -75q0 -52 33 -81t92 -29q53 0 85.5 29.5z" />
    <glyph glyph-name="uni044A.ss03" horiz-adv-x="526" 
d="M443.5 271.5q48.5 -43.5 48.5 -116.5q0 -75 -49 -119t-130 -44q-86 0 -134.5 45.5t-48.5 122.5v226h-120v56h181v-172q47 45 127 45q77 0 125.5 -43.5zM398 76q33 29 33 79q0 48 -33 76t-86 28q-55 0 -88.5 -26.5t-33.5 -77.5t33 -79.5t90 -28.5q52 0 85 29z" />
    <glyph glyph-name="uni044B.ss03" horiz-adv-x="669" 
d="M386 271q48 -44 48 -117q0 -74 -48.5 -118t-130.5 -44q-86 0 -134.5 45t-48.5 125v280h61v-173q24 22 56.5 34t71.5 12q77 0 125 -44zM340.5 75.5q32.5 29.5 32.5 78.5q0 48 -32.5 76.5t-85.5 28.5q-57 0 -91 -28t-34 -75q0 -52 33 -81t92 -29q53 0 85.5 29.5zM530 442
h61v-442h-61v442z" />
    <glyph glyph-name="zero.sinf" horiz-adv-x="323" 
d="M78.5 -23.5q-26.5 46.5 -26.5 105.5t26.5 105t83.5 46t83 -46t26 -105q0 -60 -26 -106t-83 -46t-83.5 46.5zM211.5 4.5q15.5 32.5 15.5 77.5t-15.5 77.5t-49.5 32.5q-35 0 -50 -32.5t-15 -77.5q0 -46 15 -78t50 -32q34 0 49.5 32.5z" />
    <glyph glyph-name="one.sinf" horiz-adv-x="211" 
d="M104 141l-43 -41l-29 29l104 99h10v-288h-42v201z" />
    <glyph glyph-name="two.sinf" horiz-adv-x="285" 
d="M240 -20v-40h-188v9l109 145q15 20 20 32.5t5 25.5q0 19 -10.5 30t-30.5 11q-30 0 -50 -38l-35 16q10 29 32.5 45.5t53.5 16.5q37 0 60.5 -23t23.5 -58q0 -20 -6.5 -39t-25.5 -44l-68 -89h110z" />
    <glyph glyph-name="three.sinf" horiz-adv-x="295" 
d="M50 -34l26 29q12 -12 28.5 -18.5t34.5 -6.5q27 0 43 14t16 38t-16.5 35.5t-41.5 11.5h-35v39h30q22 0 36 11t14 32q0 19 -13 30t-31 11q-32 0 -51 -19l-29 28q33 32 83 32q33 0 58.5 -21t25.5 -55q0 -22 -10 -39t-29 -27q23 -6 38 -26t15 -45q0 -41 -28 -65.5t-74 -24.5
q-58 0 -90 36z" />
    <glyph glyph-name="four.sinf" horiz-adv-x="316" 
d="M181 -8h-140v9l173 227h10v-198h38v-38h-38v-52h-43v52zM182 30v95l-71 -95h71z" />
    <glyph glyph-name="five.sinf" horiz-adv-x="294" 
d="M52 -30l33 27q19 -26 56 -26q26 0 41 15.5t15 40.5q0 27 -19 41.5t-49 14.5q-23 0 -50 -8l-7 6l17 142h138v-42h-102l-7 -65q12 3 25 3q41 0 69.5 -24t28.5 -68t-27.5 -70.5t-72.5 -26.5q-56 0 -89 40z" />
    <glyph glyph-name="six.sinf" horiz-adv-x="301" 
d="M223.5 94q25.5 -24 25.5 -68q0 -41 -26.5 -68.5t-69.5 -27.5q-50 0 -75 33.5t-25 84.5v12q0 77 40 125t115 48l7 -41q-46 2 -74.5 -20.5t-39.5 -75.5q22 22 59 22q38 0 63.5 -24zM191.5 -13q13.5 15 13.5 38q0 25 -14.5 38.5t-38.5 13.5t-38.5 -14t-14.5 -38
q0 -23 14.5 -38t39.5 -15t38.5 15z" />
    <glyph glyph-name="seven.sinf" horiz-adv-x="282" 
d="M171 181h-119v42h177v-9l-114 -274h-44z" />
    <glyph glyph-name="eight.sinf" horiz-adv-x="304" 
d="M80.5 -47q-28.5 23 -28.5 67q0 23 12.5 43t34.5 30q-33 24 -33 63q0 35 25.5 56t61.5 21q35 0 59.5 -20.5t24.5 -54.5q0 -21 -9.5 -37.5t-24.5 -25.5q23 -12 35.5 -31.5t12.5 -43.5q0 -44 -28 -67t-71 -23t-71.5 23zM182 125q11 12 11 27q0 19 -11.5 30.5t-28.5 11.5
q-19 0 -30.5 -11.5t-11.5 -30.5q0 -16 11.5 -27.5t30.5 -11.5q18 0 29 12zM192 -16q15 14 15 37q0 22 -15.5 37.5t-40.5 15.5t-40 -15t-15 -38t15.5 -37t40.5 -14t40 14z" />
    <glyph glyph-name="nine.sinf" horiz-adv-x="300" 
d="M223 199.5q25 -33.5 25 -84.5v-12q0 -77 -40 -125t-114 -48l-8 42q45 -2 74 20t41 74q-22 -21 -59 -21q-39 0 -64.5 24t-25.5 68q0 41 26.5 68.5t69.5 27.5q50 0 75 -33.5zM188 100q15 14 15 38q0 23 -14.5 38t-40.5 15q-25 0 -38.5 -15t-13.5 -38q0 -25 14.5 -38.5
t38.5 -13.5t39 14z" />
    <glyph glyph-name="zero.tf" horiz-adv-x="554" 
d="M151.5 31.5q-53.5 41.5 -82.5 118.5t-29 181q0 103 29 180t82.5 118.5t125.5 41.5t125.5 -41.5t82.5 -118.5t29 -180q0 -104 -29 -181t-82.5 -118.5t-125.5 -41.5t-125.5 41.5zM367.5 85.5q38.5 34.5 59.5 97.5t21 148q0 84 -21 147.5t-59.5 98t-90.5 34.5t-90.5 -34.5
t-59.5 -98t-21 -147.5q0 -85 21 -148t59.5 -97.5t90.5 -34.5t90.5 34.5z" />
    <glyph glyph-name="one.tf" horiz-adv-x="554" 
d="M493 58v-58h-392v58h173v445q0 40 3 68l-42 -27l-162 -99l-28 47l276 179h17v-613h155z" />
    <glyph glyph-name="two.tf" horiz-adv-x="554" 
d="M468 59v-59h-407v18l262 329q37 47 52.5 80.5t15.5 66.5q0 52 -32 84.5t-91 32.5q-46 0 -81 -21t-63 -60l-47 37q38 50 84.5 77t107.5 27q88 0 137.5 -48t49.5 -125q0 -48 -17.5 -89.5t-68.5 -105.5l-161 -201q-2 -3 -35 -44q18 1 53 1h241z" />
    <glyph glyph-name="three.tf" horiz-adv-x="554" 
d="M143 11.5q-52 21.5 -92 66.5l45 41q61 -68 165 -68q68 0 111 39t43 100q0 68 -48.5 99t-124.5 31h-68v60h68q68 0 103.5 35t35.5 84t-35.5 80.5t-92.5 31.5q-85 0 -135 -64l-41 44q35 39 79.5 59.5t96.5 20.5q57 0 101.5 -22t69 -61t24.5 -88q0 -44 -26 -85t-76 -61
q67 -15 101 -63.5t34 -104.5q0 -57 -28 -101.5t-78 -69.5t-114 -25q-66 0 -118 21.5z" />
    <glyph glyph-name="four.tf" horiz-adv-x="554" 
d="M506 202v-58h-77v-144h-62v144h-331v16l376 511h17v-469h77zM368 450q0 42 2 68l-40 -55l-153 -211q-33 -43 -39 -50h70h160v248z" />
    <glyph glyph-name="five.tf" horiz-adv-x="554" 
d="M422 348.5q65 -52.5 65 -147.5q0 -59 -28.5 -107t-80.5 -75.5t-118 -27.5q-125 0 -200 90l45 41q54 -70 155 -70q47 0 84 19.5t57.5 53.5t20.5 76q0 73 -49.5 108t-128.5 35q-58 0 -127 -18l-12 12l33 323h319v-59h-263l-21 -208q38 7 79 7q105 0 170 -52.5z" />
    <glyph glyph-name="six.tf" horiz-adv-x="554" 
d="M399.5 385.5q47.5 -23.5 75.5 -70t28 -112.5q0 -61 -26.5 -109.5t-75 -76t-111.5 -27.5q-108 0 -164 69t-56 181v15q0 180 83 289t264 127l9 -58q-129 -10 -202 -80t-87 -191q53 67 158 67q57 0 104.5 -23.5zM396 93q42 42 42 110q0 70 -42 109t-108 39t-109.5 -39.5
t-43.5 -109.5q0 -65 42 -108t112 -43q65 0 107 42z" />
    <glyph glyph-name="seven.tf" horiz-adv-x="554" 
d="M498 661v-16l-280 -645h-67l233 536q14 33 30 66h-71h-297v59h452z" />
    <glyph glyph-name="eight.tf" horiz-adv-x="554" 
d="M115.5 43q-60.5 52 -60.5 140q0 64 35.5 110t93.5 60q-49 16 -79 53t-30 94q0 50 25.5 89t72 60.5t106.5 21.5q90 0 144.5 -47t54.5 -124q0 -54 -29.5 -92t-74.5 -55q51 -13 88 -60.5t37 -110.5q0 -89 -60.5 -140t-161.5 -51t-161.5 52zM376.5 414.5q36.5 31.5 36.5 84.5
q0 50 -37.5 81t-96.5 31q-61 0 -99.5 -31t-38.5 -81q0 -54 37.5 -85t100.5 -31q61 0 97.5 31.5zM389.5 87q43.5 35 43.5 96q0 64 -43 101.5t-115 37.5q-68 0 -111 -38.5t-43 -100.5q0 -59 44 -95t112 -36q69 0 112.5 35z" />
    <glyph glyph-name="nine.tf" horiz-adv-x="554" 
d="M426 602.5q56 -68.5 56 -181.5v-15q0 -180 -83 -289t-265 -127l-9 58q130 10 202.5 80t87.5 191q-53 -67 -158 -67q-57 0 -105 23.5t-76 70t-28 112.5q0 61 26.5 109.5t75 76t112.5 27.5q108 0 164 -68.5zM372.5 349.5q43.5 39.5 43.5 109.5q0 65 -42 108t-111 43
q-66 0 -107.5 -42t-41.5 -110q0 -70 41.5 -109t107.5 -39t109.5 39.5z" />
    <glyph glyph-name="zero.dnom" horiz-adv-x="323" 
d="M78.5 36.5q-26.5 46.5 -26.5 105.5t26.5 105t83.5 46t83 -46t26 -105q0 -60 -26 -106t-83 -46t-83.5 46.5zM211.5 64.5q15.5 32.5 15.5 77.5t-15.5 77.5t-49.5 32.5q-35 0 -50 -32.5t-15 -77.5q0 -46 15 -78t50 -32q34 0 49.5 32.5z" />
    <glyph glyph-name="one.dnom" horiz-adv-x="211" 
d="M104 201l-43 -41l-29 29l104 99h10v-288h-42v201z" />
    <glyph glyph-name="two.dnom" horiz-adv-x="285" 
d="M240 40v-40h-188v9l109 145q15 20 20 32.5t5 25.5q0 19 -10.5 30t-30.5 11q-30 0 -50 -38l-35 16q10 29 32.5 45.5t53.5 16.5q37 0 60.5 -23t23.5 -58q0 -20 -6.5 -39t-25.5 -44l-68 -89h110z" />
    <glyph glyph-name="three.dnom" horiz-adv-x="295" 
d="M50 26l26 29q12 -12 28.5 -18.5t34.5 -6.5q27 0 43 14t16 38t-16.5 35.5t-41.5 11.5h-35v39h30q22 0 36 11t14 32q0 19 -13 30t-31 11q-32 0 -51 -19l-29 28q33 32 83 32q33 0 58.5 -21t25.5 -55q0 -22 -10 -39t-29 -27q23 -6 38 -26t15 -45q0 -41 -28 -65.5t-74 -24.5
q-58 0 -90 36z" />
    <glyph glyph-name="four.dnom" horiz-adv-x="316" 
d="M181 52h-140v9l173 227h10v-198h38v-38h-38v-52h-43v52zM182 90v95l-71 -95h71z" />
    <glyph glyph-name="five.dnom" horiz-adv-x="294" 
d="M52 30l33 27q19 -26 56 -26q26 0 41 15.5t15 40.5q0 27 -19 41.5t-49 14.5q-23 0 -50 -8l-7 6l17 142h138v-42h-102l-7 -65q12 3 25 3q41 0 69.5 -24t28.5 -68t-27.5 -70.5t-72.5 -26.5q-56 0 -89 40z" />
    <glyph glyph-name="six.dnom" horiz-adv-x="301" 
d="M223.5 154q25.5 -24 25.5 -68q0 -41 -26.5 -68.5t-69.5 -27.5q-50 0 -75 33.5t-25 84.5v12q0 77 40 125t115 48l7 -41q-46 2 -74.5 -20.5t-39.5 -75.5q22 22 59 22q38 0 63.5 -24zM191.5 47q13.5 15 13.5 38q0 25 -14.5 38.5t-38.5 13.5t-38.5 -14t-14.5 -38
q0 -23 14.5 -38t39.5 -15t38.5 15z" />
    <glyph glyph-name="seven.dnom" horiz-adv-x="282" 
d="M171 241h-119v42h177v-9l-114 -274h-44z" />
    <glyph glyph-name="eight.dnom" horiz-adv-x="304" 
d="M80.5 13q-28.5 23 -28.5 67q0 23 12.5 43t34.5 30q-33 24 -33 63q0 35 25.5 56t61.5 21q35 0 59.5 -20.5t24.5 -54.5q0 -21 -9.5 -37.5t-24.5 -25.5q23 -12 35.5 -31.5t12.5 -43.5q0 -44 -28 -67t-71 -23t-71.5 23zM182 185q11 12 11 27q0 19 -11.5 30.5t-28.5 11.5
q-19 0 -30.5 -11.5t-11.5 -30.5q0 -16 11.5 -27.5t30.5 -11.5q18 0 29 12zM192 44q15 14 15 37q0 22 -15.5 37.5t-40.5 15.5t-40 -15t-15 -38t15.5 -37t40.5 -14t40 14z" />
    <glyph glyph-name="nine.dnom" horiz-adv-x="300" 
d="M223 259.5q25 -33.5 25 -84.5v-12q0 -77 -40 -125t-114 -48l-8 42q45 -2 74 20t41 74q-22 -21 -59 -21q-39 0 -64.5 24t-25.5 68q0 41 26.5 68.5t69.5 27.5q50 0 75 -33.5zM188 160q15 14 15 38q0 23 -14.5 38t-40.5 15q-25 0 -38.5 -15t-13.5 -38q0 -25 14.5 -38.5
t38.5 -13.5t39 14z" />
    <glyph glyph-name="zero.numr" horiz-adv-x="323" 
d="M78.5 433.5q-26.5 46.5 -26.5 105.5t26.5 105t83.5 46t83 -46t26 -105q0 -60 -26 -106t-83 -46t-83.5 46.5zM211.5 461.5q15.5 32.5 15.5 77.5t-15.5 77.5t-49.5 32.5q-35 0 -50 -32.5t-15 -77.5q0 -46 15 -78t50 -32q34 0 49.5 32.5z" />
    <glyph glyph-name="one.numr" horiz-adv-x="211" 
d="M104 598l-43 -41l-29 29l104 99h10v-288h-42v201z" />
    <glyph glyph-name="two.numr" horiz-adv-x="285" 
d="M240 437v-40h-188v9l109 145q15 20 20 32.5t5 25.5q0 19 -10.5 30t-30.5 11q-30 0 -50 -38l-35 16q10 29 32.5 45.5t53.5 16.5q37 0 60.5 -23t23.5 -58q0 -20 -6.5 -39t-25.5 -44l-68 -89h110z" />
    <glyph glyph-name="three.numr" horiz-adv-x="295" 
d="M50 423l26 29q12 -12 28.5 -18.5t34.5 -6.5q27 0 43 14t16 38t-16.5 35.5t-41.5 11.5h-35v39h30q22 0 36 11t14 32q0 19 -13 30t-31 11q-32 0 -51 -19l-29 28q33 32 83 32q33 0 58.5 -21t25.5 -55q0 -22 -10 -39t-29 -27q23 -6 38 -26t15 -45q0 -41 -28 -65.5t-74 -24.5
q-58 0 -90 36z" />
    <glyph glyph-name="four.numr" horiz-adv-x="316" 
d="M181 449h-140v9l173 227h10v-198h38v-38h-38v-52h-43v52zM182 487v95l-71 -95h71z" />
    <glyph glyph-name="five.numr" horiz-adv-x="294" 
d="M52 427l33 27q19 -26 56 -26q26 0 41 15.5t15 40.5q0 27 -19 41.5t-49 14.5q-23 0 -50 -8l-7 6l17 142h138v-42h-102l-7 -65q12 3 25 3q41 0 69.5 -24t28.5 -68t-27.5 -70.5t-72.5 -26.5q-56 0 -89 40z" />
    <glyph glyph-name="six.numr" horiz-adv-x="301" 
d="M223.5 551q25.5 -24 25.5 -68q0 -41 -26.5 -68.5t-69.5 -27.5q-50 0 -75 33.5t-25 84.5v12q0 77 40 125t115 48l7 -41q-46 2 -74.5 -20.5t-39.5 -75.5q22 22 59 22q38 0 63.5 -24zM191.5 444q13.5 15 13.5 38q0 25 -14.5 38.5t-38.5 13.5t-38.5 -14t-14.5 -38
q0 -23 14.5 -38t39.5 -15t38.5 15z" />
    <glyph glyph-name="seven.numr" horiz-adv-x="282" 
d="M171 638h-119v42h177v-9l-114 -274h-44z" />
    <glyph glyph-name="eight.numr" horiz-adv-x="304" 
d="M80.5 410q-28.5 23 -28.5 67q0 23 12.5 43t34.5 30q-33 24 -33 63q0 35 25.5 56t61.5 21q35 0 59.5 -20.5t24.5 -54.5q0 -21 -9.5 -37.5t-24.5 -25.5q23 -12 35.5 -31.5t12.5 -43.5q0 -44 -28 -67t-71 -23t-71.5 23zM182 582q11 12 11 27q0 19 -11.5 30.5t-28.5 11.5
q-19 0 -30.5 -11.5t-11.5 -30.5q0 -16 11.5 -27.5t30.5 -11.5q18 0 29 12zM192 441q15 14 15 37q0 22 -15.5 37.5t-40.5 15.5t-40 -15t-15 -38t15.5 -37t40.5 -14t40 14z" />
    <glyph glyph-name="nine.numr" horiz-adv-x="300" 
d="M223 656.5q25 -33.5 25 -84.5v-12q0 -77 -40 -125t-114 -48l-8 42q45 -2 74 20t41 74q-22 -21 -59 -21q-39 0 -64.5 24t-25.5 68q0 41 26.5 68.5t69.5 27.5q50 0 75 -33.5zM188 557q15 14 15 38q0 23 -14.5 38t-40.5 15q-25 0 -38.5 -15t-13.5 -38q0 -25 14.5 -38.5
t38.5 -13.5t39 14z" />
    <glyph glyph-name="zero.sups" horiz-adv-x="323" 
d="M78.5 433.5q-26.5 46.5 -26.5 105.5t26.5 105t83.5 46t83 -46t26 -105q0 -60 -26 -106t-83 -46t-83.5 46.5zM211.5 461.5q15.5 32.5 15.5 77.5t-15.5 77.5t-49.5 32.5q-35 0 -50 -32.5t-15 -77.5q0 -46 15 -78t50 -32q34 0 49.5 32.5z" />
    <glyph glyph-name="one.sups" horiz-adv-x="211" 
d="M104 598l-43 -41l-29 29l104 99h10v-288h-42v201z" />
    <glyph glyph-name="two.sups" horiz-adv-x="285" 
d="M240 437v-40h-188v9l109 145q15 20 20 32.5t5 25.5q0 19 -10.5 30t-30.5 11q-30 0 -50 -38l-35 16q10 29 32.5 45.5t53.5 16.5q37 0 60.5 -23t23.5 -58q0 -20 -6.5 -39t-25.5 -44l-68 -89h110z" />
    <glyph glyph-name="three.sups" horiz-adv-x="295" 
d="M50 423l26 29q12 -12 28.5 -18.5t34.5 -6.5q27 0 43 14t16 38t-16.5 35.5t-41.5 11.5h-35v39h30q22 0 36 11t14 32q0 19 -13 30t-31 11q-32 0 -51 -19l-29 28q33 32 83 32q33 0 58.5 -21t25.5 -55q0 -22 -10 -39t-29 -27q23 -6 38 -26t15 -45q0 -41 -28 -65.5t-74 -24.5
q-58 0 -90 36z" />
    <glyph glyph-name="four.sups" horiz-adv-x="316" 
d="M181 449h-140v9l173 227h10v-198h38v-38h-38v-52h-43v52zM182 487v95l-71 -95h71z" />
    <glyph glyph-name="five.sups" horiz-adv-x="294" 
d="M52 427l33 27q19 -26 56 -26q26 0 41 15.5t15 40.5q0 27 -19 41.5t-49 14.5q-23 0 -50 -8l-7 6l17 142h138v-42h-102l-7 -65q12 3 25 3q41 0 69.5 -24t28.5 -68t-27.5 -70.5t-72.5 -26.5q-56 0 -89 40z" />
    <glyph glyph-name="six.sups" horiz-adv-x="301" 
d="M223.5 551q25.5 -24 25.5 -68q0 -41 -26.5 -68.5t-69.5 -27.5q-50 0 -75 33.5t-25 84.5v12q0 77 40 125t115 48l7 -41q-46 2 -74.5 -20.5t-39.5 -75.5q22 22 59 22q38 0 63.5 -24zM191.5 444q13.5 15 13.5 38q0 25 -14.5 38.5t-38.5 13.5t-38.5 -14t-14.5 -38
q0 -23 14.5 -38t39.5 -15t38.5 15z" />
    <glyph glyph-name="seven.sups" horiz-adv-x="282" 
d="M171 638h-119v42h177v-9l-114 -274h-44z" />
    <glyph glyph-name="eight.sups" horiz-adv-x="304" 
d="M80.5 410q-28.5 23 -28.5 67q0 23 12.5 43t34.5 30q-33 24 -33 63q0 35 25.5 56t61.5 21q35 0 59.5 -20.5t24.5 -54.5q0 -21 -9.5 -37.5t-24.5 -25.5q23 -12 35.5 -31.5t12.5 -43.5q0 -44 -28 -67t-71 -23t-71.5 23zM182 582q11 12 11 27q0 19 -11.5 30.5t-28.5 11.5
q-19 0 -30.5 -11.5t-11.5 -30.5q0 -16 11.5 -27.5t30.5 -11.5q18 0 29 12zM192 441q15 14 15 37q0 22 -15.5 37.5t-40.5 15.5t-40 -15t-15 -38t15.5 -37t40.5 -14t40 14z" />
    </font>
</defs>
</svg>
