<?xml version="1.0" standalone="no"?>
<!DOCTYPE svg PUBLIC "-//W3C//DTD SVG 1.1//EN" "http://www.w3.org/Graphics/SVG/1.1/DTD/svg11.dtd" >
<svg xmlns="http://www.w3.org/2000/svg" xmlns:xlink="http://www.w3.org/1999/xlink" version="1.1">
<metadata>
Created by FontForge 20170731 at Wed Feb 13 11:35:54 2019
 By Aleksey,,,
Copyright (c) 2018 by Svet Simov. All rights reserved.
</metadata>
<defs>
<font id="Noah-BoldItalic" horiz-adv-x="0" >
  <font-face 
    font-family="Noah"
    font-weight="700"
    font-style="italic"
    font-stretch="normal"
    units-per-em="1000"
    panose-1="0 0 8 0 0 0 0 0 0 0"
    ascent="800"
    descent="-200"
    x-height="446"
    cap-height="680"
    bbox="-353 -294 1229 966"
    underline-thickness="50"
    underline-position="-150"
    slope="-10"
    unicode-range="U+0020-FB01"
  />
<missing-glyph horiz-adv-x="464" 
d="M380 -214h-294v927h294v-927zM156 651v-31h60v-34h-61v-31h154v31h-61v34h61v31h-153zM155 531v-96h154v31h-61v65h-93zM216 466h-31v34h31v-34zM155 410v-31h61v-34h-61v-31h93v65h61v31h-154zM278 354v-61h-123v-31h154v92h-31zM216 241v-52h32v22h30v-44h-93v74h-30
v-105h154v105h-93zM155 81v-105h154v105h-154zM278 7h-93v43h93v-43zM155 -45v-31h65l-65 -43v-31h154v31h-95l65 43h30v31h-154z" />
    <glyph glyph-name="fi" unicode="fi" horiz-adv-x="590" 
d="M487 0h-109l62 354h-211l-62 -354h-109l62 354h-81l16 92h82l19 110q31 177 212 177q64 0 111 -17t93 -51l-51 -75q-59 46 -142 46q-99 0 -117 -97l-16 -93h320z" />
    <glyph glyph-name="f_f" unicode="ff" horiz-adv-x="683" 
d="M634 613.5q-22 -22.5 -28 -61.5l-19 -106h122l-16 -92h-122l-63 -354h-109l63 354h-233l-62 -354h-109l62 354h-81l16 92h81l21 118q14 82 60.5 125.5t121.5 43.5q34 0 60.5 -7t54.5 -23l-40 -79q-15 7 -28 9.5t-31 2.5q-39 0 -62 -22.5t-29 -62.5l-18 -105h232l21 119
q14 81 60.5 124.5t121.5 43.5q36 0 64 -9t60 -31l-47 -77q-16 11 -30.5 15.5t-33.5 4.5q-38 0 -60 -22.5z" />
    <glyph glyph-name="f_f_i" unicode="ffi" horiz-adv-x="933" 
d="M830 0h-110l63 354h-213l-62 -354h-109l63 354h-233l-62 -354h-109l62 354h-81l16 92h81l21 118q14 82 60.5 125.5t121.5 43.5q34 0 60.5 -7t54.5 -23l-40 -79q-15 7 -28 9.5t-31 2.5q-39 0 -62 -22.5t-29 -62.5l-18 -105h232l19 108q31 179 216 179q59 0 103 -16t87 -52
l-51 -73q-27 23 -56.5 33.5t-66.5 10.5q-58 0 -87.5 -25t-38.5 -72l-16 -93h321z" />
    <glyph glyph-name="f_f_l" unicode="ffl" horiz-adv-x="929" 
d="M953 720l-127 -720h-109l107 607q-21 15 -46 22t-59 7q-48 0 -77 -24.5t-37 -68.5l-17 -97h123l-16 -92h-123l-63 -354h-109l62 354h-233l-62 -354h-109l62 354h-81l16 92h81l21 118q14 82 60.5 125.5t121.5 43.5q34 0 60.5 -7t54.5 -23l-40 -79q-15 7 -28 9.5t-31 2.5
q-39 0 -62 -22.5t-29 -62.5l-18 -105h232l20 112q15 86 66 130.5t137 44.5q84 0 145 -48l16 35h91z" />
    <glyph glyph-name="f_l" unicode="fl" horiz-adv-x="582" 
d="M606 720l-127 -720h-109l106 607q-21 15 -45.5 22t-57.5 7q-46 0 -74 -24.5t-36 -68.5l-17 -97h123l-16 -92h-123l-63 -354h-109l62 354h-81l16 92h81l20 112q15 86 65 130.5t133 44.5q45 0 79.5 -12t63.5 -36l16 35h93z" />
    <glyph glyph-name=".notdef" horiz-adv-x="464" 
d="M380 -214h-294v927h294v-927zM156 651v-31h60v-34h-61v-31h154v31h-61v34h61v31h-153zM155 531v-96h154v31h-61v65h-93zM216 466h-31v34h31v-34zM155 410v-31h61v-34h-61v-31h93v65h61v31h-154zM278 354v-61h-123v-31h154v92h-31zM216 241v-52h32v22h30v-44h-93v74h-30
v-105h154v105h-93zM155 81v-105h154v105h-154zM278 7h-93v43h93v-43zM155 -45v-31h65l-65 -43v-31h154v31h-95l65 43h30v31h-154z" />
    <glyph glyph-name=".null" 
 />
    <glyph glyph-name="nonmarkingreturn" horiz-adv-x="333" 
 />
    <glyph glyph-name="space" unicode=" " horiz-adv-x="240" 
 />
    <glyph glyph-name="exclam" unicode="!" horiz-adv-x="275" 
d="M155 680h125l-100 -492h-99zM56.5 4.5q-18.5 16.5 -18.5 45.5q0 36 22 56t53 20q28 0 46.5 -16.5t18.5 -45.5q0 -36 -22 -56t-52 -20q-29 0 -47.5 16.5z" />
    <glyph glyph-name="quotedbl" unicode="&#x22;" horiz-adv-x="357" 
d="M124 680h105l-60 -226h-85zM290 680h105l-60 -226h-85z" />
    <glyph glyph-name="numbersign" unicode="#" horiz-adv-x="558" 
d="M105 180h-83l15 86h95l41 126h-86l15 86h99l65 202h95l-66 -202h108l65 202h94l-65 -202h77l-15 -86h-90l-41 -126h80l-15 -86h-92l-59 -180h-94l58 180h-107l-59 -180h-94zM334 266l41 126h-107l-41 -126h107z" />
    <glyph glyph-name="dollar" unicode="$" horiz-adv-x="543" 
d="M199 -10q-113 12 -192 86l68 81q35 -33 78.5 -50t88.5 -17q61 0 106 27.5t45 67.5q0 37 -32 62t-95 52q-76 32 -118 74.5t-42 106.5q0 51 28 92.5t77.5 67t111.5 31.5l16 91h84l-17 -93q83 -13 155 -68l-59 -83q-31 26 -69 39.5t-77 13.5q-56 0 -94 -23t-38 -62
q0 -37 28 -59.5t88 -49.5q82 -35 126.5 -75.5t44.5 -105.5q0 -83 -63.5 -139t-164.5 -67l-16 -91h-84z" />
    <glyph glyph-name="percent" unicode="%" horiz-adv-x="771" 
d="M122 423q-36 38 -36 95q0 42 21 82.5t61 66t93 25.5q65 0 101 -39t36 -95q0 -43 -20.5 -83t-60 -65t-93.5 -25q-66 0 -102 38zM613 680h101l-507 -680h-102zM291.5 490q23.5 30 23.5 65q0 26 -14 44t-44 18q-42 0 -65 -30.5t-23 -66.5q0 -25 13.5 -42.5t43.5 -17.5
q42 0 65.5 30zM450 26.5q-36 38.5 -36 94.5q0 42 21 82.5t61 66t93 25.5q65 0 101 -39t36 -95q0 -43 -21 -83t-60.5 -65t-93.5 -25q-65 0 -101 38.5zM619.5 93q22.5 30 22.5 66q0 25 -14 43t-43 18q-42 0 -65 -29.5t-23 -65.5q0 -26 13.5 -44t43.5 -18q43 0 65.5 30z" />
    <glyph glyph-name="ampersand" unicode="&#x26;" horiz-adv-x="633" 
d="M119.5 9.5q-43.5 21.5 -66 57.5t-22.5 79q0 65 46.5 122t124.5 101q-48 78 -48 133t29 98.5t78.5 67.5t110.5 24q47 0 83 -19.5t55.5 -51.5t19.5 -70q0 -64 -50.5 -113t-138.5 -96l104 -133q53 73 70 148h99q-28 -127 -110 -224l92 -122l-96 -26l-63 83q-98 -80 -215 -80
q-59 0 -102.5 21.5zM389 476.5q37 30.5 37 66.5q0 24 -17 39t-48 15q-45 0 -74 -27t-29 -73q0 -37 32 -83q62 32 99 62.5zM378 143l-119 149q-51 -23 -83.5 -58t-32.5 -74q0 -31 24 -53t64 -22q79 0 147 58z" />
    <glyph glyph-name="quotesingle" unicode="'" horiz-adv-x="191" 
d="M124 680h105l-60 -226h-85z" />
    <glyph glyph-name="parenleft" unicode="(" horiz-adv-x="321" 
d="M92 -38q-24 92 -24 195q0 71 12 141q23 134 85.5 256.5t150.5 210.5l62 -54q-75 -85 -129 -196t-71 -226q-11 -72 -11 -139q0 -86 16.5 -163t45.5 -131l-71 -49q-42 63 -66 155z" />
    <glyph glyph-name="parenright" unicode=")" horiz-adv-x="321" 
d="M251.5 610q23.5 -92 23.5 -195q0 -70 -12 -141q-23 -134 -85.5 -256.5t-150.5 -210.5l-62 54q75 85 129 196t72 226q10 66 10 137q0 88 -16 165t-46 131l72 49q42 -63 65.5 -155z" />
    <glyph glyph-name="asterisk" unicode="*" horiz-adv-x="353" 
d="M86 420l92 94l-103 29l33 66l98 -40l15 111h72l-25 -111l112 41l11 -68l-115 -29l63 -93l-59 -43l-54 101l-87 -101z" />
    <glyph glyph-name="plus" unicode="+" horiz-adv-x="533" 
d="M234 294h-159l16 89h159l28 159h90l-28 -159h158l-16 -89h-158l-28 -158h-90z" />
    <glyph glyph-name="comma" unicode="," horiz-adv-x="267" 
d="M155.5 109q18.5 -17 18.5 -48q0 -16 -4 -29q-13 -52 -47.5 -98t-86.5 -81l-24 29q33 25 53.5 50t31.5 56h-5q-24 0 -41 17.5t-17 45.5q0 9 1 14q6 29 26.5 45t47.5 16q28 0 46.5 -17z" />
    <glyph glyph-name="hyphen" unicode="-" horiz-adv-x="389" 
d="M63 273h281l-17 -93h-280z" />
    <glyph glyph-name="period" unicode="." horiz-adv-x="267" 
d="M52.5 4.5q-18.5 16.5 -18.5 45.5q0 36 22 56t53 20q28 0 46.5 -16.5t18.5 -45.5q0 -36 -22 -56t-52 -20q-29 0 -47.5 16.5z" />
    <glyph glyph-name="slash" unicode="/" horiz-adv-x="399" 
d="M370 692h85l-383 -704h-86z" />
    <glyph glyph-name="zero" unicode="0" horiz-adv-x="583" 
d="M110.5 54q-52.5 66 -52.5 182q0 41 10 103q29 160 103 247t194 87q91 0 144 -66.5t53 -182.5q0 -47 -9 -101q-28 -158 -103.5 -246.5t-193.5 -88.5q-93 0 -145.5 66zM372.5 154.5q45.5 64.5 65.5 177.5q9 51 9 95q0 68 -22.5 106t-67.5 38q-63 0 -109 -64.5t-66 -176.5
q-9 -51 -9 -94q0 -68 23 -107t68 -39q63 0 108.5 64.5z" />
    <glyph glyph-name="one" unicode="1" horiz-adv-x="370" 
d="M365 666l-117 -666h-117l83 460q10 49 12 55l-25 -13l-89 -44l-41 83l229 125h65z" />
    <glyph glyph-name="two" unicode="2" horiz-adv-x="490" 
d="M186 98q40 2 61 2l188 1l-17 -101h-425l8 45l317 336q61 64 61 119q0 30 -18.5 48.5t-52.5 18.5q-36 0 -69 -20.5t-67 -58.5l-74 70q49 57 103 86t119 29q78 0 126.5 -45.5t48.5 -117.5q0 -12 -4 -38q-12 -72 -85 -147l-176 -184q-37 -37 -44 -43z" />
    <glyph glyph-name="three" unicode="3" horiz-adv-x="541" 
d="M3 88l78 70q28 -37 62 -52.5t79 -15.5q41 0 76 16.5t56 45.5t21 65q0 41 -30 60t-72 19h-105l17 96h78q42 0 72.5 16.5t46 42t15.5 52.5q0 30 -22.5 49.5t-58.5 19.5q-43 0 -78 -15t-76 -48l-58 71q59 49 114 71t114 22q52 0 93 -19.5t63.5 -54.5t22.5 -79q0 -16 -3 -33
q-8 -41 -37 -79.5t-76 -61.5q45 -14 69.5 -51t24.5 -86q0 -17 -3 -35q-16 -84 -89 -135t-179 -51q-135 0 -215 100z" />
    <glyph glyph-name="four" unicode="4" horiz-adv-x="542" 
d="M444 220h77l-17 -95h-77l-21 -125h-108l21 125h-320l10 61l447 482h67zM369 395q10 53 14 70q-19 -25 -45 -51l-139 -152q-22 -26 -44 -45q22 2 56 2h127z" />
    <glyph glyph-name="five" unicode="5" horiz-adv-x="491" 
d="M258 560l-44 -145q26 2 43 2q93 0 147.5 -45.5t54.5 -129.5q0 -20 -5 -50q-16 -94 -88 -149.5t-176 -55.5q-65 0 -117 23t-83 64l70 77q18 -28 50.5 -43t76.5 -15q59 0 101 30t52 86q2 9 2 25q0 47 -35 72t-92 25q-54 0 -114 -21l-17 13l98 338h333l-18 -101h-239z" />
    <glyph glyph-name="six" unicode="6" horiz-adv-x="535" 
d="M450.5 364.5q48.5 -47.5 48.5 -125.5q0 -22 -4 -42q-17 -95 -83 -152t-160 -57q-98 0 -150 58.5t-52 156.5q0 38 7 74l3 14q33 171 140.5 274t290.5 108l7 -102q-112 2 -190.5 -53.5t-117.5 -154.5q32 25 65 37t71 12q76 0 124.5 -47.5zM386 224q0 42 -24.5 67.5
t-70.5 25.5q-53 -1 -86.5 -31t-42.5 -78q-2 -16 -2 -23q0 -43 26.5 -69t70.5 -26q49 0 83.5 29.5t43.5 80.5q2 16 2 24z" />
    <glyph glyph-name="seven" unicode="7" horiz-adv-x="451" 
d="M512 661l-8 -43l-339 -618h-124l287 520q7 13 13 23t11 18q-17 -1 -50 -1h-225l18 101h417z" />
    <glyph glyph-name="eight" unicode="8" horiz-adv-x="567" 
d="M93 32q-56 43 -56 117q0 18 3 36q11 58 51 103t97 62q-33 14 -53 47t-20 74q0 18 2 27q14 80 81 128t164 48q86 0 137 -41.5t51 -107.5q0 -63 -36 -108t-88 -67q40 -19 64 -55.5t24 -85.5q0 -17 -3 -35q-16 -88 -86 -136.5t-180 -48.5q-96 0 -152 43zM402 428
q34 31 34 79q0 33 -24.5 52t-66.5 19q-53 0 -86.5 -29.5t-33.5 -78.5q0 -34 24 -53.5t67 -19.5q52 0 86 31zM359.5 124q39.5 34 39.5 92q0 40 -27 63t-76 23q-54 0 -92 -31t-46 -79q-2 -14 -2 -20q0 -40 28.5 -61t77.5 -21q58 0 97.5 34z" />
    <glyph glyph-name="nine" unicode="9" horiz-adv-x="537" 
d="M472.5 615q52.5 -59 52.5 -157q0 -37 -7 -72l-3 -14q-34 -171 -142.5 -274.5t-289.5 -106.5l-7 96q113 4 190.5 57t115.5 147q-31 -23 -62.5 -33t-70.5 -10q-48 0 -87.5 22t-62 62.5t-22.5 93.5q0 24 4 45q17 92 82.5 147.5t159.5 55.5q97 0 149.5 -59zM370.5 375
q33.5 31 42.5 81q2 16 2 22q0 42 -27.5 68.5t-69.5 26.5q-50 -1 -83 -29t-43 -79q-2 -16 -2 -24q0 -42 24.5 -69.5t68.5 -27.5q54 0 87.5 31z" />
    <glyph glyph-name="colon" unicode=":" horiz-adv-x="265" 
d="M109.5 327.5q-18.5 16.5 -18.5 45.5q0 34 21.5 53.5t51.5 19.5q29 0 47 -16.5t18 -45.5q0 -34 -21.5 -53.5t-51.5 -19.5q-28 0 -46.5 16.5zM52.5 4.5q-18.5 16.5 -18.5 45.5q0 33 22 53.5t51 20.5q28 0 46.5 -17t18.5 -46q0 -8 -1 -13q-6 -28 -26 -44t-46 -16
q-28 0 -46.5 16.5z" />
    <glyph glyph-name="semicolon" unicode=";" horiz-adv-x="269" 
d="M212.5 430.5q18.5 -16.5 18.5 -42.5q0 -35 -22 -56t-52 -21q-28 0 -46.5 16.5t-18.5 43.5q0 35 22 55.5t52 20.5q28 0 46.5 -16.5zM156 107.5q18 -17.5 18 -48.5q0 -12 -3 -27q-24 -104 -133 -179l-25 29q33 26 54 51t32 55h-6q-24 0 -41 16.5t-17 43.5q0 35 22 56t53 21
q28 0 46 -17.5z" />
    <glyph glyph-name="less" unicode="&#x3c;" horiz-adv-x="430" 
d="M52 305l16 91l366 150l-19 -108l-239 -93l207 -92l-18 -99z" />
    <glyph glyph-name="equal" unicode="=" horiz-adv-x="500" 
d="M108 480h374l-15 -90h-374zM74 290h374l-15 -90h-374z" />
    <glyph glyph-name="greater" unicode="&#x3e;" horiz-adv-x="430" 
d="M60 264l239 92l-207 93l18 97l312 -151l-16 -91l-365 -150z" />
    <glyph glyph-name="question" unicode="?" horiz-adv-x="490" 
d="M173 284.5q16 39.5 38.5 66t58.5 55.5l16 13q37 29 56.5 51t24.5 50q1 4 1 12q0 25 -17.5 42.5t-53.5 17.5q-32 -1 -65 -17t-63 -45l-57 80q43 40 94 61t107 21q53 0 92.5 -20.5t61 -54.5t21.5 -75q0 -9 -2 -25q-7 -43 -33.5 -73.5t-79.5 -72.5q-18 -14 -27 -22
q-43 -36 -65 -70.5t-26 -90.5h-103q5 57 21 96.5zM131.5 4.5q-18.5 16.5 -18.5 45.5q0 36 22 56t53 20q28 0 47 -16.5t19 -44.5q0 -36 -22.5 -56.5t-52.5 -20.5q-29 0 -47.5 16.5z" />
    <glyph glyph-name="at" unicode="@" horiz-adv-x="831" 
d="M168 -112q-63 33 -97 94t-34 144q0 134 65.5 251t178 186.5t246.5 69.5q78 0 141.5 -28.5t101 -85.5t37.5 -139q0 -79 -28.5 -152.5t-79.5 -120t-115 -46.5q-39 0 -60 17.5t-23 43.5q-21 -29 -59 -48.5t-83 -19.5q-57 0 -88.5 34.5t-31.5 90.5q0 66 35.5 124.5t94.5 93.5
t128 35q35 0 65.5 -9t62.5 -29l-56 -205q-4 -13 -4 -28q0 -31 30 -31q38 0 68.5 39t48 96.5t17.5 109.5q0 93 -57.5 138.5t-154.5 45.5q-109 0 -201.5 -60t-146.5 -159t-54 -210q0 -97 54.5 -149t156.5 -52q79 0 155 31l21 -68q-94 -37 -187 -37q-84 0 -147 33zM457 154.5
q37 33.5 53 93.5l27 102q-29 13 -57 13q-45 0 -82.5 -26t-59 -67t-21.5 -85q0 -30 15 -47t44 -17q44 0 81 33.5z" />
    <glyph glyph-name="A" unicode="A" horiz-adv-x="688" 
d="M645 3v-3h-118l-34 123h-321l-78 -123h-127v3l440 681h37zM328 372l-98 -156h239l-44 155q-21 79 -29 118q-30 -57 -68 -117z" />
    <glyph glyph-name="B" unicode="B" horiz-adv-x="624" 
d="M164 680h255q80 0 130.5 -41t50.5 -112q0 -16 -3 -34q-17 -101 -109 -145q39 -14 61.5 -48.5t22.5 -81.5q0 -17 -3 -37q-15 -87 -78.5 -134t-164.5 -47h-282zM363 396q49 0 84 32.5t35 82.5q0 36 -25 54t-69 18h-124l-33 -187h132zM320 97q54 0 90.5 28t45.5 78
q2 14 2 20q0 38 -26 58t-68 20h-150l-36 -204h142z" />
    <glyph glyph-name="C" unicode="C" horiz-adv-x="693" 
d="M204.5 25q-68.5 38 -105 104.5t-36.5 150.5q0 35 6 71q17 98 72.5 176t140.5 122t185 44q80 0 139.5 -27t109.5 -78l-68 -74q-36 37 -79 55t-101 18q-69 0 -128.5 -31.5t-99.5 -88t-52 -127.5q-5 -28 -5 -51q0 -56 22.5 -100t66 -69.5t103.5 -25.5q65 0 116 24.5t98 73.5
l64 -78q-123 -127 -288 -127q-92 0 -160.5 38z" />
    <glyph glyph-name="D" unicode="D" horiz-adv-x="718" 
d="M164 680h243q86 0 152 -36t102 -100t36 -146q0 -32 -6 -67q-18 -100 -70.5 -175t-137 -115.5t-192.5 -40.5h-247zM301 102q68 0 125.5 30.5t96.5 85.5t52 126q4 21 4 48q0 81 -50 133.5t-143 52.5h-123l-84 -476h122z" />
    <glyph glyph-name="E" unicode="E" horiz-adv-x="560" 
d="M264 576l-32 -181h273l-17 -99h-274l-34 -192h320l-18 -104h-438l120 680h431l-18 -104h-313z" />
    <glyph glyph-name="F" unicode="F" horiz-adv-x="545" 
d="M262 572l-35 -197h273l-19 -107h-273l-47 -268h-117l120 680h428l-19 -108h-311z" />
    <glyph glyph-name="G" unicode="G" horiz-adv-x="731" 
d="M420 380h288l-50 -280q-125 -113 -290 -113q-96 0 -164.5 38t-104 104.5t-35.5 151.5q0 36 6 73q17 99 73.5 176t141 120t184.5 43q78 0 136 -25.5t110 -77.5l-67 -76q-39 39 -80 56.5t-103 17.5q-68 0 -127.5 -31t-100 -86t-52.5 -123q-5 -33 -5 -57q0 -90 52 -144.5
t148 -54.5q55 0 101.5 15.5t80.5 45.5l23 130h-183z" />
    <glyph glyph-name="H" unicode="H" horiz-adv-x="736" 
d="M733 680l-119 -680h-118l50 288h-334l-50 -288h-118l119 680h118l-50 -283h334l50 283h118z" />
    <glyph glyph-name="I" unicode="I" horiz-adv-x="285" 
d="M163 680h118l-119 -680h-118z" />
    <glyph glyph-name="J" unicode="J" horiz-adv-x="498" 
d="M-22 52l67 87q24 -22 55.5 -34.5t65.5 -12.5q61 0 96 33t46 101l80 454h117l-82 -470q-40 -223 -261 -223q-107 0 -184 65z" />
    <glyph glyph-name="K" unicode="K" horiz-adv-x="612" 
d="M662 677l-336 -340l241 -334v-3h-133l-219 303l-53 -303h-118l119 680h118l-52 -298l296 298h137v-3z" />
    <glyph glyph-name="L" unicode="L" horiz-adv-x="521" 
d="M164 680h117l-100 -572h296l-19 -108h-414z" />
    <glyph glyph-name="M" unicode="M" horiz-adv-x="855" 
d="M792 684l-20 -684h-116l12 347q2 55 5 86l-56 -69l-189 -227h-24l-104 222l-37 83q-16 -61 -25 -88l-113 -354h-121l222 684h35l137 -294q10 -21 39 -85q20 28 48 59q6 9 20 25l247 295h40z" />
    <glyph glyph-name="N" unicode="N" horiz-adv-x="750" 
d="M747 680l-121 -684h-35l-291 388l-17 22l-42 56q-7 -58 -16 -109l-63 -353h-118l120 684h35l292 -381l18 -24q36 -50 40 -56l15 93l65 364h118z" />
    <glyph glyph-name="O" unicode="O" horiz-adv-x="799" 
d="M207.5 23.5q-69.5 36.5 -107.5 102.5t-38 151q0 28 7 72q17 99 72 177t141.5 122.5t193.5 44.5q88 0 156.5 -37.5t107 -104t38.5 -152.5q0 -32 -6 -68q-17 -98 -72 -176t-140 -123t-189 -45q-94 0 -163.5 36.5zM506.5 125.5q58.5 31.5 97 87.5t50.5 126q4 23 4 50
q0 57 -23 101.5t-66 70t-102 25.5q-71 0 -130.5 -31.5t-98.5 -87t-52 -126.5q-5 -30 -5 -52q0 -87 52.5 -141t144.5 -54q70 0 128.5 31.5z" />
    <glyph glyph-name="P" unicode="P" horiz-adv-x="596" 
d="M523.5 656.5q43.5 -23.5 67 -65t23.5 -94.5q0 -24 -4 -44q-10 -56 -42 -102.5t-86.5 -74.5t-128.5 -28h-148l-44 -248h-117l120 680h256q60 0 103.5 -23.5zM472 555q-26 23 -74 23h-135l-40 -229h121q49 0 84 20.5t52.5 53t17.5 67.5q0 42 -26 65z" />
    <glyph glyph-name="Q" unicode="Q" horiz-adv-x="805" 
d="M716.5 180q-41.5 -69 -104.5 -115l103 -94l-79 -79l-131 117q-64 -22 -134 -22q-91 0 -161 38t-108.5 105t-38.5 151q0 34 6 68q17 98 72.5 176.5t142 123t192.5 44.5q88 0 157 -37.5t107 -104.5t38 -153q0 -32 -6 -67q-14 -82 -55.5 -151zM506.5 125.5
q58.5 31.5 97 87.5t50.5 126q4 23 4 50q0 57 -23 101.5t-66 70t-102 25.5q-70 0 -129.5 -32t-99.5 -87.5t-52 -125.5q-4 -23 -4 -49q0 -57 24 -102t68 -70.5t104 -25.5q70 0 128.5 31.5z" />
    <glyph glyph-name="R" unicode="R" horiz-adv-x="628" 
d="M558.5 337q-48.5 -48 -126.5 -67l131 -267v-3h-127l-122 259h-107l-46 -259h-117l120 680h262q56 0 101.5 -22t71 -63t25.5 -94q0 -23 -4 -42q-13 -74 -61.5 -122zM509 488q0 41 -28 66t-76 25h-142l-39 -222h133q59 0 100 29t50 81q2 14 2 21z" />
    <glyph glyph-name="S" unicode="S" horiz-adv-x="573" 
d="M128 12.5q-64 25.5 -114 69.5l65 84q37 -35 85 -54t102 -19q59 0 99 27.5t40 69.5q0 35 -29 59t-95 54q-79 37 -122 81t-43 110q0 62 32 107t86.5 68t121.5 23q121 0 222 -77l-60 -81q-75 55 -159 55q-54 0 -89.5 -23t-35.5 -65q0 -35 28 -58.5t88 -51.5
q85 -39 130.5 -85t45.5 -111q0 -62 -34.5 -109t-94.5 -73t-134 -26q-71 0 -135 25.5z" />
    <glyph glyph-name="T" unicode="T" horiz-adv-x="542" 
d="M584 572h-193l-100 -572h-118l101 572h-193l19 108h503z" />
    <glyph glyph-name="U" unicode="U" horiz-adv-x="692" 
d="M187 12q-54 25 -84.5 71.5t-30.5 108.5q0 24 4 44l78 444h118l-78 -444q-3 -18 -3 -33q0 -53 34.5 -81t94.5 -28q78 0 125 40t59 111l77 435h118l-80 -452q-20 -118 -99 -179.5t-210 -61.5q-69 0 -123 25z" />
    <glyph glyph-name="V" unicode="V" horiz-adv-x="693" 
d="M766 680v-3l-441 -681h-36l-201 682v2h121l112 -402q12 -40 17 -63q8 16 37 62l257 403h134z" />
    <glyph glyph-name="W" unicode="W" horiz-adv-x="966" 
d="M1032 680v-2l-360 -682h-34l-98 346q-17 63 -21 84q-19 -35 -50 -83l-220 -347h-35l-119 682v2h117l61 -361l12 -81q30 49 50 80l204 322h28l88 -317q11 -37 22 -81q12 25 41 81l187 357h127z" />
    <glyph glyph-name="X" unicode="X" horiz-adv-x="646" 
d="M-27 2l304 357l-164 319v2h128l93 -183q17 -37 23 -53q17 22 41 51l159 185h142v-2l-283 -325l179 -351v-2h-127l-94 184q-28 55 -38 82q-32 -46 -55 -71l-167 -195h-141v2z" />
    <glyph glyph-name="Y" unicode="Y" horiz-adv-x="647" 
d="M279 302l-184 378h122l99 -204l9 -20q16 -36 23 -55q24 37 57 74l172 205h136l-317 -378l-53 -302h-118z" />
    <glyph glyph-name="Z" unicode="Z" horiz-adv-x="564" 
d="M215 143q-5 -8 -29 -36q16 1 49 1h282l-19 -108h-504l4 35l390 505q12 16 27 33q-14 -1 -42 -1h-266l19 108h483l-5 -35z" />
    <glyph glyph-name="bracketleft" unicode="[" horiz-adv-x="276" 
d="M159 759h180l-16 -90h-81l-136 -766h82l-15 -90h-180z" />
    <glyph glyph-name="backslash" unicode="\" horiz-adv-x="398" 
d="M110 692h75l145 -704h-76z" />
    <glyph glyph-name="bracketright" unicode="]" horiz-adv-x="276" 
d="M139 -187h-180l16 90h81l136 766h-82l15 90h180z" />
    <glyph glyph-name="asciicircum" unicode="^" horiz-adv-x="483" 
d="M282 700h83l113 -344h-107l-63 211l-137 -211h-119z" />
    <glyph glyph-name="underscore" unicode="_" horiz-adv-x="492" 
d="M-1 -25h407l-15 -84h-407z" />
    <glyph glyph-name="grave" unicode="`" horiz-adv-x="294" 
d="M118 622l69 70l124 -124l-49 -47z" />
    <glyph glyph-name="a" unicode="a" horiz-adv-x="573" 
d="M548 446l-79 -446h-82l-3 60q-67 -71 -166 -71q-84 0 -133 53t-49 138q0 31 5 55q18 100 84 161t158 61q50 0 89.5 -21t62.5 -60l33 70h80zM351.5 123q40.5 39 51.5 98q3 18 3 34q0 48 -28.5 77.5t-80.5 29.5q-55 0 -95.5 -37.5t-51.5 -97.5q-4 -24 -4 -35
q0 -49 29 -78.5t78 -29.5q58 0 98.5 39z" />
    <glyph glyph-name="b" unicode="b" horiz-adv-x="572" 
d="M488 405q49 -52 49 -137q0 -24 -5 -56q-18 -102 -82.5 -162.5t-162.5 -60.5q-52 0 -93 21.5t-63 59.5l-30 -70h-76l127 720h109l-47 -268q-8 -38 -13 -51q32 28 71 42t81 14q86 0 135 -52zM426 255q0 50 -28 78t-78 28q-58 0 -99 -38.5t-51 -97.5q-3 -16 -3 -31
q0 -49 28.5 -79.5t80.5 -30.5q56 0 96 37t51 99q3 18 3 35z" />
    <glyph glyph-name="c" unicode="c" horiz-adv-x="463" 
d="M134.5 10.5q-45.5 23.5 -73 68t-27.5 106.5q0 20 5 50q13 70 51 120t93.5 76.5t119.5 26.5q49 0 86.5 -15t72.5 -49l-62 -71q-21 21 -44 30.5t-52 9.5q-55 0 -100 -37.5t-56 -101.5q-3 -15 -3 -30q0 -49 29.5 -80t79.5 -31q35 0 62 10t57 34l45 -77q-45 -35 -89.5 -49
t-95.5 -14q-53 0 -98.5 23.5z" />
    <glyph glyph-name="d" unicode="d" horiz-adv-x="572" 
d="M596 720l-127 -720h-76l-7 63q-31 -36 -75 -55t-94 -19q-52 0 -93.5 24t-65 68t-23.5 102q0 22 5 52q11 62 43.5 112.5t84 80t115.5 29.5q49 0 87 -19t61 -54q1 34 8 71l47 265h110zM351 122.5q40 38.5 51 99.5q3 18 3 33q0 48 -28 77t-79 29q-56 0 -97.5 -37t-51.5 -97
q-3 -16 -3 -32q0 -52 29 -81.5t76 -29.5q60 0 100 38.5z" />
    <glyph glyph-name="e" unicode="e" horiz-adv-x="479" 
d="M383 203q-74 -40 -184 -40q-31 0 -54 3q7 -43 37.5 -66t78.5 -23q35 0 64 8t59 26l33 -76q-82 -47 -178 -47q-60 0 -106 24.5t-72 69t-26 100.5q0 76 34.5 139.5t94.5 100t135 36.5q73 0 115.5 -35.5t42.5 -95.5q0 -84 -74 -124zM191 240q69 0 117 18.5t48 60.5
q0 24 -16.5 36.5t-44.5 12.5q-54 0 -94 -36t-53 -90q22 -2 43 -2z" />
    <glyph glyph-name="f" unicode="f" horiz-adv-x="341" 
d="M293.5 614q-22.5 -22 -29.5 -61l-19 -107h124l-16 -92h-124l-62 -354h-109l62 354h-81l16 92h81l21 120q14 80 60.5 123.5t121.5 43.5q37 0 64.5 -9t59.5 -31l-47 -77q-16 12 -30 16t-33 4q-37 0 -59.5 -22z" />
    <glyph glyph-name="g" unicode="g" horiz-adv-x="571" 
d="M545 446l-82 -472q-18 -103 -88 -154.5t-172 -51.5q-117 0 -195 73l52 80q61 -55 139 -55q63 0 104 30.5t52 87.5q7 36 15 66q-65 -58 -154 -58q-84 0 -132.5 51.5t-48.5 135.5q0 22 5 54q18 101 84 162.5t161 61.5q51 0 90.5 -20t62.5 -58l34 67h73zM405 255
q0 47 -27.5 76.5t-79.5 29.5q-57 0 -97.5 -37t-51.5 -101q-3 -18 -3 -33q0 -49 28.5 -77t75.5 -28q60 0 100 38.5t52 101.5q3 15 3 30z" />
    <glyph glyph-name="h" unicode="h" horiz-adv-x="525" 
d="M152 720h109l-43 -245q-6 -35 -19 -86q64 69 149 69q66 0 99.5 -35t33.5 -98q0 -25 -4 -48l-49 -277h-110l49 275q2 16 2 22q0 30 -16.5 46.5t-48.5 16.5q-50 0 -84.5 -37.5t-44.5 -92.5l-40 -230h-110z" />
    <glyph glyph-name="i" unicode="i" horiz-adv-x="238" 
d="M137.5 555q-16.5 17 -16.5 42q0 29 19 51t50 22q29 0 45.5 -17t16.5 -43q0 -29 -20 -50.5t-50 -21.5q-28 0 -44.5 17zM104 446h109l-79 -446h-109z" />
    <glyph glyph-name="j" unicode="j" horiz-adv-x="247" 
d="M147.5 555q-16.5 17 -16.5 42q0 29 19 51t50 22q29 0 45.5 -17t16.5 -43q0 -29 -20 -50.5t-50 -21.5q-28 0 -44.5 17zM-114 -141q53 2 82 15.5t42.5 41t22.5 78.5l79 452h110l-82 -463q-14 -81 -42.5 -127.5t-79 -67t-133.5 -20.5z" />
    <glyph glyph-name="k" unicode="k" horiz-adv-x="467" 
d="M483 443l-214 -216l151 -224v-3h-118l-133 195l-34 -195h-110l127 720h109l-78 -445l169 171h131v-3z" />
    <glyph glyph-name="l" unicode="l" horiz-adv-x="237" 
d="M152 720h109l-127 -720h-109z" />
    <glyph glyph-name="m" unicode="m" horiz-adv-x="793" 
d="M714 423q35 -35 35 -97q0 -23 -4 -43l-50 -283h-108l49 278q2 16 2 21q0 30 -16.5 45.5t-45.5 15.5q-47 0 -79.5 -37.5t-41.5 -90.5l-41 -232h-108l48 278q2 14 2 22q0 27 -14.5 43.5t-42.5 16.5q-49 0 -82.5 -37.5t-42.5 -89.5l-40 -233h-109l78 446h73l10 -71
q28 39 67.5 61t84.5 22q47 0 77.5 -21t41.5 -59q63 80 160 80q62 0 97 -35z" />
    <glyph glyph-name="n" unicode="n" horiz-adv-x="525" 
d="M446 424.5q35 -33.5 35 -97.5q0 -20 -5 -50l-49 -277h-109l48 272q2 9 2 25q0 63 -65 63q-51 0 -85 -36.5t-44 -94.5l-40 -229h-110l79 446h73l10 -72q30 38 71 61t90 23q64 0 99 -33.5z" />
    <glyph glyph-name="o" unicode="o" horiz-adv-x="553" 
d="M134 13q-47 25 -73 69.5t-26 102.5q0 25 4 46q12 67 48.5 118.5t94 80t129.5 28.5q62 0 109 -25t73 -70t26 -103q0 -25 -4 -45q-18 -103 -90.5 -165t-181.5 -62q-62 0 -109 25zM353.5 122.5q41.5 38.5 52.5 101.5q3 15 3 30q0 49 -28.5 78.5t-78.5 29.5
q-61 0 -102.5 -39.5t-51.5 -100.5q-3 -16 -3 -31q0 -48 28.5 -77.5t77.5 -29.5q61 0 102.5 38.5z" />
    <glyph glyph-name="p" unicode="p" horiz-adv-x="571" 
d="M486 404q50 -53 50 -139q0 -23 -5 -53q-18 -99 -82 -161t-159 -62q-50 0 -89 20t-62 55q-2 -44 -7 -73l-37 -211h-109l117 666h74l8 -61q33 36 76 54t91 18q84 0 134 -53zM425 252q0 50 -28.5 79.5t-78.5 29.5q-59 0 -99 -38t-50 -95q-3 -18 -3 -34q0 -50 28.5 -80
t79.5 -30q55 0 96 37t52 97q3 18 3 34z" />
    <glyph glyph-name="q" unicode="q" horiz-adv-x="572" 
d="M547 446l-117 -666h-110l39 217q6 30 11 46q-30 -26 -69 -40t-81 -14q-83 0 -133.5 53t-50.5 140q0 31 5 56q19 100 85 159.5t159 59.5q53 0 92.5 -22t62.5 -60l34 71h73zM407 254q0 48 -27.5 77.5t-79.5 29.5q-57 0 -98 -36.5t-52 -97.5q-4 -17 -4 -37q0 -50 29.5 -78
t80.5 -28q58 0 97.5 39t50.5 98q3 17 3 33z" />
    <glyph glyph-name="r" unicode="r" horiz-adv-x="371" 
d="M401 437l-40 -92q-24 10 -55 10q-48 0 -84.5 -32.5t-48.5 -99.5l-39 -223h-109l78 446h74l10 -66q26 37 60.5 56t72.5 19q46 0 81 -18z" />
    <glyph glyph-name="s" unicode="s" horiz-adv-x="400" 
d="M74.5 4q-42.5 14 -73.5 38l46 76q24 -19 55 -29.5t61 -10.5q34 0 56.5 13.5t22.5 36.5q0 18 -15.5 32.5t-52.5 30.5q-53 24 -81 54t-28 75q0 61 46 97t118 36q83 0 151 -45l-42 -71q-51 30 -102 30q-31 0 -47.5 -11.5t-16.5 -30.5q0 -18 16 -31t51 -30q60 -27 86.5 -57.5
t26.5 -72.5q0 -68 -52 -106t-134 -38q-49 0 -91.5 14z" />
    <glyph glyph-name="t" unicode="t" horiz-adv-x="371" 
d="M112.5 19.5q-33.5 29.5 -33.5 84.5q0 17 3 36l37 214l-81 5l15 87h82l28 143h107l-25 -143h138l-16 -92h-138l-36 -209q-2 -14 -2 -19q0 -36 40 -36q34 0 74 24l27 -86q-61 -38 -131 -38q-55 0 -88.5 29.5z" />
    <glyph glyph-name="u" unicode="u" horiz-adv-x="523" 
d="M499 446l-79 -446h-76l-9 67q-28 -36 -67.5 -56t-86.5 -20q-63 0 -99.5 36.5t-36.5 99.5q0 22 4 41l49 278h109l-48 -274q-2 -14 -2 -21q0 -28 16 -45t47 -17q52 0 85.5 36t43.5 94l40 227h110z" />
    <glyph glyph-name="v" unicode="v" horiz-adv-x="495" 
d="M46 443v3h113l58 -213q9 -36 13 -71q10 21 38 71l136 213h123v-3l-296 -447h-45z" />
    <glyph glyph-name="w" unicode="w" horiz-adv-x="685" 
d="M711 446v-3l-251 -447h-33l-80 247l-167 -247h-34l-94 447v3h109l43 -215l6 -39l24 37l128 192h23l61 -193l11 -33q3 8 17 33l118 218h119z" />
    <glyph glyph-name="x" unicode="x" horiz-adv-x="464" 
d="M478 443l-176 -213l109 -228v-2h-117l-50 107q-11 28 -20 58q-21 -35 -39 -59l-85 -106h-125v2l191 233l-98 208v3h114l41 -91q13 -27 20 -56q16 26 40 57l71 90h124v-3z" />
    <glyph glyph-name="y" unicode="y" horiz-adv-x="490" 
d="M520 446v-3l-374 -663h-118v2l142 239l-122 422v3h111l66 -249q8 -34 12 -57q10 23 28 57l134 249h121z" />
    <glyph glyph-name="z" unicode="z" horiz-adv-x="421" 
d="M197 130l-31 -37q20 1 50 1h150l-16 -94h-355l5 31l226 289q10 14 26 33q-16 -1 -43 -1h-145l17 94h343l-5 -31z" />
    <glyph glyph-name="braceleft" unicode="{" horiz-adv-x="327" 
d="M202 -191q-59 0 -91.5 28.5t-32.5 81.5q0 16 3 36l35 200q3 17 3 31q0 29 -16 42.5t-54 12.5l16 90q47 -1 68.5 22t30.5 72l35 201q13 75 51.5 106t103.5 31q27 0 41 -2l-16 -89q-41 2 -60 -14t-26 -55l-36 -203q-10 -56 -30 -80.5t-65 -34.5q28 -8 42 -30.5t14 -56.5
q0 -17 -3 -35l-35 -203q-2 -16 -2 -20q0 -24 15.5 -32.5t49.5 -6.5l-16 -91q-9 -1 -25 -1z" />
    <glyph glyph-name="bar" unicode="|" horiz-adv-x="231" 
d="M157 739h99l-159 -905h-99z" />
    <glyph glyph-name="braceright" unicode="}" horiz-adv-x="327" 
d="M146 764q59 0 93 -28.5t34 -81.5q0 -10 -4 -36l-35 -200q-3 -18 -3 -31q0 -29 16 -42.5t54 -12.5l-16 -90q-47 0 -68.5 -23t-30.5 -72l-35 -200q-13 -75 -51.5 -106.5t-103.5 -31.5q-27 0 -41 2l15 90q42 -3 61 13t26 56l36 202q10 56 30 81t65 35q-56 16 -56 86
q0 17 3 36l35 202q2 16 2 21q0 24 -15.5 32.5t-49.5 6.5l16 91q8 1 23 1z" />
    <glyph glyph-name="asciitilde" unicode="~" horiz-adv-x="564" 
d="M398 260q-44 0 -95 33q-31 18 -47.5 25.5t-35.5 7.5q-26 0 -43 -14t-35 -44l-70 47q26 54 60 82.5t83 28.5q44 0 98 -35q26 -16 44 -24t36 -8q24 0 40.5 17.5t29.5 44.5l72 -45q-21 -50 -52.5 -81t-71.5 -34z" />
    <glyph glyph-name="uni00A0" unicode="&#xa0;" horiz-adv-x="240" 
 />
    <glyph glyph-name="exclamdown" unicode="&#xa1;" horiz-adv-x="274" 
d="M209.5 395.5q18.5 -16.5 18.5 -45.5q0 -36 -22 -56t-53 -20q-28 0 -46.5 16.5t-18.5 45.5q0 36 22 56t52 20q29 0 47.5 -16.5zM111 -280h-125l100 492h99z" />
    <glyph glyph-name="cent" unicode="&#xa2;" horiz-adv-x="452" 
d="M410 132q-58 -50 -139 -58l-15 -82h-74l15 86q-66 14 -104.5 64t-38.5 123q0 26 4 47q17 91 76.5 148.5t141.5 69.5l15 81h75l-15 -83q64 -10 106 -63l-58 -68q-30 39 -83 39t-95.5 -34.5t-53.5 -97.5q-3 -16 -3 -31q0 -47 26.5 -75.5t72.5 -28.5q31 0 57 11t52 33z" />
    <glyph glyph-name="sterling" unicode="&#xa3;" horiz-adv-x="491" 
d="M275.5 543.5q-29.5 -28.5 -29.5 -76.5q0 -19 4 -36.5t12 -45.5l9 -30h151l-15 -77h-128q-4 -46 -31.5 -92.5t-69.5 -84.5l269 1l-18 -102h-408l-18 68q65 43 111.5 100t52.5 110h-99l14 77h75q-3 11 -8 25q-10 34 -14.5 53t-4.5 43q0 55 26.5 100t74.5 71.5t109 26.5
q115 0 180 -73l-69 -66q-20 19 -43 28t-55 9q-48 0 -77.5 -28.5z" />
    <glyph glyph-name="currency" unicode="&#xa4;" horiz-adv-x="535" 
d="M39 185l75 64q-13 33 -13 71q0 19 3 38q9 55 46 99l-55 63l60 53l51 -61q49 32 110 32q63 0 101 -33l71 62l53 -57l-75 -65q13 -32 13 -68q0 -22 -4 -41q-9 -55 -43 -99l53 -62l-60 -54l-52 61q-51 -33 -110 -33t-101 33l-71 -61zM344 274.5q31 28.5 39 75.5q2 16 2 24
q0 37 -19.5 58.5t-54.5 21.5q-44 0 -75.5 -28.5t-39.5 -75.5q-2 -16 -2 -23q0 -37 20 -59t55 -22q44 0 75 28.5z" />
    <glyph glyph-name="yen" unicode="&#xa5;" horiz-adv-x="604" 
d="M229 160h-153l13 74h154l9 55h-153l13 73h124l-148 299h123l116 -253l203 253h141l-255 -299h121l-14 -73h-153l-9 -55h153l-13 -74h-153l-28 -160h-118z" />
    <glyph glyph-name="brokenbar" unicode="&#xa6;" horiz-adv-x="231" 
d="M157 739h99l-68 -386h-99zM69 238h99l-72 -404h-99z" />
    <glyph glyph-name="section" unicode="&#xa7;" horiz-adv-x="533" 
d="M117 -40.5q-51 17.5 -86 50.5l61 80q25 -25 59 -38.5t70 -13.5q39 0 65.5 12.5t34.5 38.5q3 9 3 16q0 22 -20.5 40.5t-67.5 39.5q-73 31 -115 67t-42 88q0 24 8 45q16 50 73 79q-24 32 -24 72q0 23 9 50q19 54 73.5 80t122.5 26q48 0 91 -13.5t77 -38.5l-56 -79
q-23 18 -53.5 28.5t-60.5 10.5q-35 0 -60 -11.5t-31 -33.5q-2 -10 -2 -15q0 -24 22 -42t68 -37q69 -27 112 -61.5t43 -85.5q0 -29 -18 -65q-17 -34 -60 -69q21 -29 21 -67q0 -27 -10 -57q-18 -54 -71 -83.5t-124 -30.5q-61 0 -112 17.5zM376 274q9 15 9 28q0 25 -25 42
t-67 34q-43 19 -61 31q-22 -9 -34 -24t-12 -34q0 -24 22 -44t66 -39q40 -17 66 -33q22 14 36 39z" />
    <glyph glyph-name="dieresis" unicode="&#xa8;" horiz-adv-x="439" 
d="M146.5 559q-15.5 16 -15.5 39t18 42.5t44 19.5t41 -16t15 -39q0 -25 -17 -43.5t-44 -18.5q-26 0 -41.5 16zM340.5 559q-15.5 16 -15.5 39l1 11q3 20 20 35.5t40 15.5q26 0 41 -16t15 -39q0 -24 -17.5 -43t-43.5 -19q-25 0 -40.5 16z" />
    <glyph glyph-name="copyright" unicode="&#xa9;" horiz-adv-x="776" 
d="M204 34q-67 37 -104 102t-37 147q0 32 6 65q16 94 71.5 170t139 120t182.5 44q86 0 152 -37t103 -102t37 -146q0 -32 -6 -65q-16 -94 -71 -170.5t-138 -120.5t-182 -44q-86 0 -153 37zM510 94q70 36 116.5 99.5t60.5 143.5q5 32 5 57q0 65 -27.5 116.5t-80 80.5
t-122.5 29q-83 0 -153.5 -36t-117 -99t-60.5 -142q-5 -25 -5 -58q0 -66 28 -117.5t80 -80.5t123 -29q83 0 153 36zM275 194q-47 39 -47 112q0 21 4 40q15 81 74 130.5t137 49.5q72 0 121 -50l-52 -58q-29 30 -72 30q-46 0 -78 -29.5t-41 -78.5q-2 -8 -2 -24q0 -38 22.5 -60
t59.5 -22q50 0 94 37l34 -61q-70 -55 -140 -55q-67 0 -114 39z" />
    <glyph glyph-name="ordfeminine" unicode="&#xaa;" horiz-adv-x="307" 
d="M112.5 467q-20.5 19 -20.5 48q0 47 41 70t96 23q10 0 28 -2l2 15q2 15 -7 23t-26 8q-40 0 -80 -20l-19 52q57 28 107 28q42 0 68 -22t26 -60q0 -6 -2 -20l-27 -155h-54l-2 33q-11 -17 -31 -28.5t-48 -11.5q-31 0 -51.5 19zM228 516.5q19 17.5 24 47.5q-5 1 -16 1
q-30 0 -54 -10.5t-24 -32.5q0 -11 8 -17t20 -6q23 0 42 17.5zM78 404h212l-11 -61h-212z" />
    <glyph glyph-name="guillemotleft" unicode="&#xab;" horiz-adv-x="456" 
d="M30 245l151 197l77 -49l-110 -156l74 -156l-86 -36zM209 242l157 200l78 -49l-117 -156l60 -156l-85 -36z" />
    <glyph glyph-name="logicalnot" unicode="&#xac;" horiz-adv-x="534" 
d="M401 323h-328l17 94h418l-39 -225h-91z" />
    <glyph glyph-name="registered" unicode="&#xae;" horiz-adv-x="541" 
d="M136 287q-51 50 -51 132q0 24 4 45q18 99 87.5 161t173.5 62q88 0 139.5 -48.5t51.5 -129.5q0 -26 -4 -47q-18 -101 -89.5 -163t-174.5 -62q-86 0 -137 50zM413 336q57 50 72 132q3 20 3 37q0 60 -37.5 96t-103.5 36q-81 0 -136.5 -49.5t-69.5 -131.5q-4 -26 -4 -38
q0 -61 36.5 -96.5t102.5 -35.5q80 0 137 50zM249 573h101q29 0 46 -15.5t17 -41.5q0 -29 -17 -48t-45 -25l42 -87h-58l-36 83h-24l-15 -83h-50zM327 477q15 0 24.5 8t11.5 20t-4.5 20t-21.5 8h-46l-10 -56h46z" />
    <glyph glyph-name="macron" unicode="&#xaf;" horiz-adv-x="401" 
d="M133 626h275l-15 -79h-274z" />
    <glyph glyph-name="degree" unicode="&#xb0;" horiz-adv-x="353" 
d="M126.5 450q-35.5 33 -35.5 86q0 44 21 80t58 56t82 20q57 0 92.5 -33t35.5 -86q0 -44 -21 -80t-58 -56t-82 -20q-57 0 -92.5 33zM271 505q20 17 27 49q2 10 2 15q0 24 -15 38t-38 14q-28 0 -48 -16.5t-26 -48.5q-2 -10 -2 -16q0 -24 15 -38t37 -14q28 0 48 17z" />
    <glyph glyph-name="plusminus" unicode="&#xb1;" horiz-adv-x="487" 
d="M229 382h-142l15 86h142l25 139h86l-25 -139h141l-15 -86h-141l-24 -139h-86zM57 177h358l-15 -85h-357z" />
    <glyph glyph-name="acute" unicode="&#xb4;" horiz-adv-x="307" 
d="M115 575l159 119l51 -78l-171 -95z" />
    <glyph glyph-name="uni00B5" unicode="&#xb5;" horiz-adv-x="528" 
d="M503 444l-79 -444h-83l2 68q-52 -74 -134 -74q-51 0 -81 29q-1 -55 -15 -129l-19 -108h-107l116 658h109l-44 -248q-3 -18 -3 -35q0 -71 62 -71q51 0 83.5 37.5t41.5 90.5l40 226h111z" />
    <glyph glyph-name="paragraph" unicode="&#xb6;" horiz-adv-x="627" 
d="M247 283q-78 1 -124.5 48t-46.5 120q0 20 3 39q15 84 75.5 137t155.5 53h314l-137 -778h-98l121 684h-115l-120 -684h-98z" />
    <glyph glyph-name="periodcentered" unicode="&#xb7;" horiz-adv-x="268" 
d="M105.5 297.5q-18.5 16.5 -18.5 45.5q0 36 22 56t52 20q29 0 47.5 -16.5t18.5 -45.5q0 -36 -22 -56t-53 -20q-28 0 -46.5 16.5z" />
    <glyph glyph-name="cedilla" unicode="&#xb8;" horiz-adv-x="331" 
d="M-20 -192l33 57q25 -19 64 -19q22 0 38 8t19 25q4 20 -20 29.5t-63 7.5l48 86h73l-33 -52q34 -5 55.5 -25t21.5 -50q0 -46 -36 -71t-92 -25q-63 0 -108 29z" />
    <glyph glyph-name="ordmasculine" unicode="&#xba;" horiz-adv-x="318" 
d="M131.5 478q-27.5 29 -27.5 78q0 17 3 33q10 56 46 89.5t85 33.5q48 0 75.5 -29t27.5 -78q0 -15 -3 -32q-10 -56 -45 -90t-86 -34q-48 0 -75.5 29zM249 530q16 18 22 49q2 8 2 24q0 22 -10 34.5t-28 12.5q-26 0 -44.5 -25.5t-18.5 -65.5q0 -22 10 -34.5t28 -12.5
q23 0 39 18zM86 404h214l-11 -61h-214z" />
    <glyph glyph-name="guillemotright" unicode="&#xbb;" horiz-adv-x="457" 
d="M20 95l118 160l-60 151l86 36l92 -193l-159 -204zM205 95l112 160l-73 151l86 36l105 -197l-152 -200z" />
    <glyph glyph-name="onequarter" unicode="&#xbc;" horiz-adv-x="629" 
d="M165 576l-43 -33l-33 41l119 99h38l-50 -286h-64zM515 680h80l-471 -680h-81zM459 46h-132l4 28l200 212h29l-33 -189h34l-9 -51h-34l-8 -46h-59zM468 97l13 66l-63 -66h50z" />
    <glyph glyph-name="onehalf" unicode="&#xbd;" horiz-adv-x="652" 
d="M165 576l-43 -33l-33 41l119 99h38l-50 -286h-64zM515 680h80l-471 -680h-81zM590 166.5q-10 -20.5 -31 -41.5l-67 -68h92l-9 -57h-203l3 24l132 132q15 15 21.5 26.5t6.5 24.5q0 11 -6.5 18t-18.5 7q-14 0 -26 -9.5t-20 -26.5l-53 28q35 70 106 70q36 0 59.5 -24
t23.5 -59q0 -24 -10 -44.5z" />
    <glyph glyph-name="threequarters" unicode="&#xbe;" horiz-adv-x="690" 
d="M119 396q-25 10 -40 28l34 44q23 -23 57 -23q22 0 36.5 9.5t18.5 25.5q1 3 1 8q0 13 -9 21.5t-26 8.5h-38l10 51h23q18 0 31 8t16 24q3 14 -5.5 22t-23.5 8q-26 0 -49 -18l-32 48q41 29 92 29q34 0 59 -20.5t25 -51.5q0 -25 -13.5 -45t-39.5 -29q17 -5 30.5 -22.5
t13.5 -40.5q0 -9 -1 -13q-7 -39 -37.5 -60.5t-76.5 -21.5q-31 0 -56 10zM576 680h80l-471 -680h-81zM520 46h-132l4 28l200 212h29l-33 -189h34l-9 -51h-34l-8 -46h-59zM529 97l13 66l-63 -66h50z" />
    <glyph glyph-name="questiondown" unicode="&#xbf;" horiz-adv-x="446" 
d="M336.5 395.5q18.5 -16.5 18.5 -45.5q0 -36 -22 -56t-53 -20q-28 0 -47 16.5t-19 44.5q0 36 22.5 56.5t52.5 20.5q29 0 47.5 -16.5zM295 115.5q-16 -39.5 -38.5 -66t-58.5 -55.5l-16 -13q-37 -29 -56.5 -51t-24.5 -50q-1 -4 -1 -12q0 -25 17.5 -42.5t53.5 -17.5
q32 1 65 17t63 45l57 -80q-43 -40 -94.5 -61t-107.5 -21q-52 0 -91.5 20.5t-61 54.5t-21.5 75q0 9 2 25q7 43 32.5 72.5t78.5 72.5l28 23q43 36 65.5 70t26.5 91h103q-5 -57 -21 -96.5z" />
    <glyph glyph-name="Agrave" unicode="&#xc0;" horiz-adv-x="688" 
d="M645 3v-3h-118l-34 123h-321l-78 -123h-127v3l440 681h37zM328 372l-98 -156h239l-44 155q-21 79 -29 118q-30 -57 -68 -117zM330 851l72 73l129 -129l-51 -49z" />
    <glyph glyph-name="Aacute" unicode="&#xc1;" horiz-adv-x="688" 
d="M645 3v-3h-118l-34 123h-321l-78 -123h-127v3l440 681h37zM328 372l-98 -156h239l-44 155q-21 79 -29 118q-30 -57 -68 -117zM349 801l167 125l55 -82l-181 -100z" />
    <glyph glyph-name="Acircumflex" unicode="&#xc2;" horiz-adv-x="688" 
d="M645 3v-3h-118l-34 123h-321l-78 -123h-127v3l440 681h37zM328 372l-98 -156h239l-44 155q-21 79 -29 118q-30 -57 -68 -117zM298 790l159 110h18l123 -112l-46 -50l-97 68l-117 -68z" />
    <glyph glyph-name="Atilde" unicode="&#xc3;" horiz-adv-x="688" 
d="M645 3v-3h-118l-34 123h-321l-78 -123h-127v3l440 681h37zM328 372l-98 -156h239l-44 155q-21 79 -29 118q-30 -57 -68 -117zM292 803q34 79 99 79q29 0 65 -17q28 -13 44 -13q14 0 25 8.5t23 27.5l63 -44q-39 -77 -99 -77q-28 0 -60 16q-32 14 -47 14q-29 0 -50 -37z
" />
    <glyph glyph-name="Adieresis" unicode="&#xc4;" horiz-adv-x="688" 
d="M645 3v-3h-118l-34 123h-321l-78 -123h-127v3l440 681h37zM328 372l-98 -156h239l-44 155q-21 79 -29 118q-30 -57 -68 -117zM310.5 782q-16.5 17 -16.5 40q0 7 1 11q5 22 22 37.5t41 15.5q26 0 42 -16.5t16 -40.5t-18 -44t-45 -20q-26 0 -42.5 17zM507.5 782
q-15.5 17 -15.5 41q0 7 1 11q3 21 21 36.5t41 15.5q26 0 41.5 -16.5t15.5 -39.5q0 -25 -17.5 -45t-44.5 -20t-42.5 17z" />
    <glyph glyph-name="Aring" unicode="&#xc5;" horiz-adv-x="688" 
d="M645 3v-3h-118l-34 123h-321l-78 -123h-127v3l440 681h37zM328 372l-98 -156h239l-44 155q-21 79 -29 118q-30 -57 -68 -117zM366.5 748.5q-29.5 26.5 -29.5 68.5q0 52 37.5 87t91.5 35q46 0 75.5 -27t29.5 -70q0 -51 -37 -85.5t-91 -34.5q-47 0 -76.5 26.5zM487.5 799.5
q16.5 16.5 16.5 40.5q0 17 -11.5 28t-30.5 11q-24 0 -41 -16t-17 -40q0 -18 11.5 -29t30.5 -11q25 0 41.5 16.5z" />
    <glyph glyph-name="AE" unicode="&#xc6;" horiz-adv-x="885" 
d="M616 576l-32 -180h248l-17 -99h-248l-34 -193h292l-18 -104h-403l22 125h-234l-103 -125h-135v3l566 677h397l-18 -104h-283zM496 504q-26 -37 -69 -90l-163 -198h178l32 182q8 46 22 106z" />
    <glyph glyph-name="Ccedilla" unicode="&#xc7;" horiz-adv-x="693" 
d="M491 118.5q51 24.5 98 73.5l64 -78q-108 -113 -252 -125l-26 -41q33 -4 55.5 -23.5t22.5 -51.5q0 -12 -5 -29q-13 -35 -47 -53.5t-83 -18.5q-67 0 -111 30l33 59q28 -20 65 -20q23 0 39.5 8.5t20.5 24.5q1 3 1 9q0 18 -24 25.5t-60 6.5l39 74q-80 9 -138.5 48.5
t-89 102.5t-30.5 140q0 35 6 71q17 98 72.5 176t140.5 122t185 44q80 0 139.5 -27t109.5 -78l-68 -74q-36 37 -79 55t-101 18q-69 0 -128.5 -31.5t-99.5 -88t-52 -127.5q-5 -28 -5 -51q0 -56 22.5 -100t66 -69.5t103.5 -25.5q65 0 116 24.5z" />
    <glyph glyph-name="Egrave" unicode="&#xc8;" horiz-adv-x="560" 
d="M264 576l-32 -181h273l-17 -99h-274l-34 -192h320l-18 -104h-438l120 680h431l-18 -104h-313zM276 851l72 73l129 -129l-51 -49z" />
    <glyph glyph-name="Eacute" unicode="&#xc9;" horiz-adv-x="560" 
d="M264 576l-32 -181h273l-17 -99h-274l-34 -192h320l-18 -104h-438l120 680h431l-18 -104h-313zM295 801l167 125l55 -82l-181 -100z" />
    <glyph glyph-name="Ecircumflex" unicode="&#xca;" horiz-adv-x="560" 
d="M264 576l-32 -181h273l-17 -99h-274l-34 -192h320l-18 -104h-438l120 680h431l-18 -104h-313zM244 790l159 110h18l123 -112l-46 -50l-97 68l-117 -68z" />
    <glyph glyph-name="Edieresis" unicode="&#xcb;" horiz-adv-x="560" 
d="M264 576l-32 -181h273l-17 -99h-274l-34 -192h320l-18 -104h-438l120 680h431l-18 -104h-313zM256.5 782q-16.5 17 -16.5 40q0 7 1 11q5 22 22 37.5t41 15.5q26 0 42 -16.5t16 -40.5t-18 -44t-45 -20q-26 0 -42.5 17zM453.5 782q-15.5 17 -15.5 41q0 7 1 11q3 21 21 36.5
t41 15.5q26 0 41.5 -16.5t15.5 -39.5q0 -25 -17.5 -45t-44.5 -20t-42.5 17z" />
    <glyph glyph-name="Igrave" unicode="&#xcc;" horiz-adv-x="285" 
d="M163 680h118l-119 -680h-118zM124 851l72 73l129 -129l-51 -49z" />
    <glyph glyph-name="Iacute" unicode="&#xcd;" horiz-adv-x="285" 
d="M163 680h118l-119 -680h-118zM143 801l167 125l55 -82l-181 -100z" />
    <glyph glyph-name="Icircumflex" unicode="&#xce;" horiz-adv-x="285" 
d="M163 680h118l-119 -680h-118zM92 790l159 110h18l123 -112l-46 -50l-97 68l-117 -68z" />
    <glyph glyph-name="Idieresis" unicode="&#xcf;" horiz-adv-x="285" 
d="M163 680h118l-119 -680h-118zM104.5 782q-16.5 17 -16.5 40q0 7 1 11q5 22 22 37.5t41 15.5q26 0 42 -16.5t16 -40.5t-18 -44t-45 -20q-26 0 -42.5 17zM301.5 782q-15.5 17 -15.5 41q0 7 1 11q3 21 21 36.5t41 15.5q26 0 41.5 -16.5t15.5 -39.5q0 -25 -17.5 -45
t-44.5 -20t-42.5 17z" />
    <glyph glyph-name="Eth" unicode="&#xd0;" horiz-adv-x="723" 
d="M563 644q66 -36 102.5 -100.5t36.5 -146.5q0 -31 -6 -66q-18 -100 -71 -175t-137 -115.5t-192 -40.5h-245l54 304h-64l15 83h63l52 293h240q86 0 152 -36zM584 393q0 81 -50.5 133t-142.5 52h-120l-34 -191h171l-15 -83h-171l-36 -202h120q68 0 125.5 30.5t96.5 85.5
t51 126q5 28 5 49z" />
    <glyph glyph-name="Ntilde" unicode="&#xd1;" horiz-adv-x="750" 
d="M747 680l-121 -684h-35l-291 388l-17 22l-42 56q-7 -58 -16 -109l-63 -353h-118l120 684h35l292 -381l18 -24q36 -50 40 -56l15 93l65 364h118zM316 803q34 79 99 79q29 0 65 -17q28 -13 44 -13q14 0 25 8.5t23 27.5l63 -44q-39 -77 -99 -77q-28 0 -60 16q-32 14 -47 14
q-29 0 -50 -37z" />
    <glyph glyph-name="Ograve" unicode="&#xd2;" horiz-adv-x="799" 
d="M207.5 23.5q-69.5 36.5 -107.5 102.5t-38 151q0 28 7 72q17 99 72 177t141.5 122.5t193.5 44.5q88 0 156.5 -37.5t107 -104t38.5 -152.5q0 -32 -6 -68q-17 -98 -72 -176t-140 -123t-189 -45q-94 0 -163.5 36.5zM506.5 125.5q58.5 31.5 97 87.5t50.5 126q4 23 4 50
q0 57 -23 101.5t-66 70t-102 25.5q-71 0 -130.5 -31.5t-98.5 -87t-52 -126.5q-5 -30 -5 -52q0 -87 52.5 -141t144.5 -54q70 0 128.5 31.5zM381 851l72 73l129 -129l-51 -49z" />
    <glyph glyph-name="Oacute" unicode="&#xd3;" horiz-adv-x="799" 
d="M207.5 23.5q-69.5 36.5 -107.5 102.5t-38 151q0 28 7 72q17 99 72 177t141.5 122.5t193.5 44.5q88 0 156.5 -37.5t107 -104t38.5 -152.5q0 -32 -6 -68q-17 -98 -72 -176t-140 -123t-189 -45q-94 0 -163.5 36.5zM506.5 125.5q58.5 31.5 97 87.5t50.5 126q4 23 4 50
q0 57 -23 101.5t-66 70t-102 25.5q-71 0 -130.5 -31.5t-98.5 -87t-52 -126.5q-5 -30 -5 -52q0 -87 52.5 -141t144.5 -54q70 0 128.5 31.5zM400 801l167 125l55 -82l-181 -100z" />
    <glyph glyph-name="Ocircumflex" unicode="&#xd4;" horiz-adv-x="799" 
d="M207.5 23.5q-69.5 36.5 -107.5 102.5t-38 151q0 28 7 72q17 99 72 177t141.5 122.5t193.5 44.5q88 0 156.5 -37.5t107 -104t38.5 -152.5q0 -32 -6 -68q-17 -98 -72 -176t-140 -123t-189 -45q-94 0 -163.5 36.5zM506.5 125.5q58.5 31.5 97 87.5t50.5 126q4 23 4 50
q0 57 -23 101.5t-66 70t-102 25.5q-71 0 -130.5 -31.5t-98.5 -87t-52 -126.5q-5 -30 -5 -52q0 -87 52.5 -141t144.5 -54q70 0 128.5 31.5zM349 790l159 110h18l123 -112l-46 -50l-97 68l-117 -68z" />
    <glyph glyph-name="Otilde" unicode="&#xd5;" horiz-adv-x="799" 
d="M207.5 23.5q-69.5 36.5 -107.5 102.5t-38 151q0 28 7 72q17 99 72 177t141.5 122.5t193.5 44.5q88 0 156.5 -37.5t107 -104t38.5 -152.5q0 -32 -6 -68q-17 -98 -72 -176t-140 -123t-189 -45q-94 0 -163.5 36.5zM506.5 125.5q58.5 31.5 97 87.5t50.5 126q4 23 4 50
q0 57 -23 101.5t-66 70t-102 25.5q-71 0 -130.5 -31.5t-98.5 -87t-52 -126.5q-5 -30 -5 -52q0 -87 52.5 -141t144.5 -54q70 0 128.5 31.5zM343 803q34 79 99 79q29 0 65 -17q28 -13 44 -13q14 0 25 8.5t23 27.5l63 -44q-39 -77 -99 -77q-28 0 -60 16q-32 14 -47 14
q-29 0 -50 -37z" />
    <glyph glyph-name="Odieresis" unicode="&#xd6;" horiz-adv-x="799" 
d="M207.5 23.5q-69.5 36.5 -107.5 102.5t-38 151q0 28 7 72q17 99 72 177t141.5 122.5t193.5 44.5q88 0 156.5 -37.5t107 -104t38.5 -152.5q0 -32 -6 -68q-17 -98 -72 -176t-140 -123t-189 -45q-94 0 -163.5 36.5zM506.5 125.5q58.5 31.5 97 87.5t50.5 126q4 23 4 50
q0 57 -23 101.5t-66 70t-102 25.5q-71 0 -130.5 -31.5t-98.5 -87t-52 -126.5q-5 -30 -5 -52q0 -87 52.5 -141t144.5 -54q70 0 128.5 31.5zM361.5 782q-16.5 17 -16.5 40q0 7 1 11q5 22 22 37.5t41 15.5q26 0 42 -16.5t16 -40.5t-18 -44t-45 -20q-26 0 -42.5 17zM558.5 782
q-15.5 17 -15.5 41q0 7 1 11q3 21 21 36.5t41 15.5q26 0 41.5 -16.5t15.5 -39.5q0 -25 -17.5 -45t-44.5 -20t-42.5 17z" />
    <glyph glyph-name="multiply" unicode="&#xd7;" horiz-adv-x="487" 
d="M70 228l132 115l-91 112l66 60l94 -113l129 113l59 -63l-133 -115l92 -112l-67 -60l-93 113l-130 -113z" />
    <glyph glyph-name="Oslash" unicode="&#xd8;" horiz-adv-x="799" 
d="M755.5 518.5q22.5 -54.5 22.5 -119.5q0 -32 -6 -68q-17 -97 -72 -175t-140 -123t-189 -45q-107 0 -183 48l-83 -94l-55 44l83 95q-70 76 -70 197q0 34 6 71q17 99 72 177t141.5 122t193.5 44q90 0 158 -38l78 89l56 -43l-77 -87q42 -40 64.5 -94.5zM180 289
q0 -70 34 -119l346 396q-40 20 -93 20q-71 0 -130.5 -31.5t-99 -87t-52.5 -126.5q-5 -30 -5 -52zM659 389q0 84 -47 137l-350 -402q49 -30 116 -30q71 0 129.5 31.5t97 87.5t50.5 126q4 23 4 50z" />
    <glyph glyph-name="Ugrave" unicode="&#xd9;" horiz-adv-x="692" 
d="M187 12q-54 25 -84.5 71.5t-30.5 108.5q0 24 4 44l78 444h118l-78 -444q-3 -18 -3 -33q0 -53 34.5 -81t94.5 -28q78 0 125 40t59 111l77 435h118l-80 -452q-20 -118 -99 -179.5t-210 -61.5q-69 0 -123 25zM324 851l72 73l129 -129l-51 -49z" />
    <glyph glyph-name="Uacute" unicode="&#xda;" horiz-adv-x="692" 
d="M187 12q-54 25 -84.5 71.5t-30.5 108.5q0 24 4 44l78 444h118l-78 -444q-3 -18 -3 -33q0 -53 34.5 -81t94.5 -28q78 0 125 40t59 111l77 435h118l-80 -452q-20 -118 -99 -179.5t-210 -61.5q-69 0 -123 25zM343 801l167 125l55 -82l-181 -100z" />
    <glyph glyph-name="Ucircumflex" unicode="&#xdb;" horiz-adv-x="692" 
d="M187 12q-54 25 -84.5 71.5t-30.5 108.5q0 24 4 44l78 444h118l-78 -444q-3 -18 -3 -33q0 -53 34.5 -81t94.5 -28q78 0 125 40t59 111l77 435h118l-80 -452q-20 -118 -99 -179.5t-210 -61.5q-69 0 -123 25zM292 790l159 110h18l123 -112l-46 -50l-97 68l-117 -68z" />
    <glyph glyph-name="Udieresis" unicode="&#xdc;" horiz-adv-x="692" 
d="M187 12q-54 25 -84.5 71.5t-30.5 108.5q0 24 4 44l78 444h118l-78 -444q-3 -18 -3 -33q0 -53 34.5 -81t94.5 -28q78 0 125 40t59 111l77 435h118l-80 -452q-20 -118 -99 -179.5t-210 -61.5q-69 0 -123 25zM305.5 782q-16.5 17 -16.5 40q0 7 1 11q5 22 22 37.5t41 15.5
q26 0 42 -16.5t16 -40.5t-18 -44t-45 -20q-26 0 -42.5 17zM502.5 782q-15.5 17 -15.5 41q0 7 1 11q3 21 21 36.5t41 15.5q26 0 41.5 -16.5t15.5 -39.5q0 -25 -17.5 -45t-44.5 -20t-42.5 17z" />
    <glyph glyph-name="Yacute" unicode="&#xdd;" horiz-adv-x="647" 
d="M279 302l-184 378h122l99 -204l9 -20q16 -36 23 -55q24 37 57 74l172 205h136l-317 -378l-53 -302h-118zM316 801l167 125l55 -82l-181 -100z" />
    <glyph glyph-name="Thorn" unicode="&#xde;" horiz-adv-x="593" 
d="M164 680h119l-20 -114h135q61 0 104.5 -25t66 -67t22.5 -93q0 -17 -3 -37q-17 -96 -84.5 -155t-185.5 -59h-132l-23 -130h-119zM318 232q75 0 115.5 40.5t40.5 97.5q0 43 -26.5 68.5t-74.5 25.5h-128l-41 -232h114z" />
    <glyph glyph-name="germandbls" unicode="&#xdf;" horiz-adv-x="528" 
d="M186 19l34 86q27 -15 67 -15q41 0 69.5 20.5t28.5 57.5q0 23 -11 40.5t-33 41.5q-25 28 -37.5 49.5t-12.5 51.5q0 7 2 23q6 34 21.5 56.5t42.5 48.5q23 24 35 41t16 40q1 4 1 13q0 27 -18 42.5t-47 15.5q-56 0 -84.5 -38.5t-39.5 -102.5l-86 -490h-109l87 497
q19 110 78 171.5t161 61.5q74 0 121.5 -38.5t47.5 -102.5q0 -15 -3 -30q-7 -40 -24.5 -65t-47.5 -54q-23 -23 -34.5 -38t-14.5 -35q-1 -3 -1 -10q0 -17 9.5 -32t28.5 -37q28 -30 43.5 -57.5t15.5 -66.5q0 -15 -3 -33q-11 -67 -64 -102.5t-125 -35.5q-61 0 -114 26z" />
    <glyph glyph-name="agrave" unicode="&#xe0;" horiz-adv-x="573" 
d="M548 446l-79 -446h-82l-3 60q-67 -71 -166 -71q-84 0 -133 53t-49 138q0 31 5 55q18 100 84 161t158 61q50 0 89.5 -21t62.5 -60l33 70h80zM351.5 123q40.5 39 51.5 98q3 18 3 34q0 48 -28.5 77.5t-80.5 29.5q-55 0 -95.5 -37.5t-51.5 -97.5q-4 -24 -4 -35
q0 -49 29 -78.5t78 -29.5q58 0 98.5 39zM227 621l69 70l124 -124l-49 -47z" />
    <glyph glyph-name="aacute" unicode="&#xe1;" horiz-adv-x="573" 
d="M548 446l-79 -446h-82l-3 60q-67 -71 -166 -71q-84 0 -133 53t-49 138q0 31 5 55q18 100 84 161t158 61q50 0 89.5 -21t62.5 -60l33 70h80zM351.5 123q40.5 39 51.5 98q3 18 3 34q0 48 -28.5 77.5t-80.5 29.5q-55 0 -95.5 -37.5t-51.5 -97.5q-4 -24 -4 -35
q0 -49 29 -78.5t78 -29.5q58 0 98.5 39zM249 574l159 119l51 -78l-171 -95z" />
    <glyph glyph-name="acircumflex" unicode="&#xe2;" horiz-adv-x="573" 
d="M548 446l-79 -446h-82l-3 60q-67 -71 -166 -71q-84 0 -133 53t-49 138q0 31 5 55q18 100 84 161t158 61q50 0 89.5 -21t62.5 -60l33 70h80zM351.5 123q40.5 39 51.5 98q3 18 3 34q0 48 -28.5 77.5t-80.5 29.5q-55 0 -95.5 -37.5t-51.5 -97.5q-4 -24 -4 -35
q0 -49 29 -78.5t78 -29.5q58 0 98.5 39zM199 564l152 106h18l118 -108l-44 -48l-93 67l-113 -67z" />
    <glyph glyph-name="atilde" unicode="&#xe3;" horiz-adv-x="573" 
d="M548 446l-79 -446h-82l-3 60q-67 -71 -166 -71q-84 0 -133 53t-49 138q0 31 5 55q18 100 84 161t158 61q50 0 89.5 -21t62.5 -60l33 70h80zM351.5 123q40.5 39 51.5 98q3 18 3 34q0 48 -28.5 77.5t-80.5 29.5q-55 0 -95.5 -37.5t-51.5 -97.5q-4 -24 -4 -35
q0 -49 29 -78.5t78 -29.5q58 0 98.5 39zM200 572q32 75 91 75q25 0 61 -16q28 -11 39 -11q12 0 22.5 7.5t21.5 24.5l56 -38q-35 -72 -89 -72q-23 0 -57 16q-28 12 -42 12t-25 -8t-22 -26z" />
    <glyph glyph-name="adieresis" unicode="&#xe4;" horiz-adv-x="573" 
d="M548 446l-79 -446h-82l-3 60q-67 -71 -166 -71q-84 0 -133 53t-49 138q0 31 5 55q18 100 84 161t158 61q50 0 89.5 -21t62.5 -60l33 70h80zM351.5 123q40.5 39 51.5 98q3 18 3 34q0 48 -28.5 77.5t-80.5 29.5q-55 0 -95.5 -37.5t-51.5 -97.5q-4 -24 -4 -35
q0 -49 29 -78.5t78 -29.5q58 0 98.5 39zM209.5 558q-15.5 16 -15.5 39t18 42.5t44 19.5t41 -16t15 -39q0 -25 -17 -43.5t-44 -18.5q-26 0 -41.5 16zM403.5 558q-15.5 16 -15.5 39l1 11q3 20 20 35.5t40 15.5q26 0 41 -16t15 -39q0 -24 -17.5 -43t-43.5 -19q-25 0 -40.5 16z
" />
    <glyph glyph-name="aring" unicode="&#xe5;" horiz-adv-x="573" 
d="M548 446l-79 -446h-82l-3 60q-67 -71 -166 -71q-84 0 -133 53t-49 138q0 31 5 55q18 100 84 161t158 61q50 0 89.5 -21t62.5 -60l33 70h80zM351.5 123q40.5 39 51.5 98q3 18 3 34q0 48 -28.5 77.5t-80.5 29.5q-55 0 -95.5 -37.5t-51.5 -97.5q-4 -24 -4 -35
q0 -49 29 -78.5t78 -29.5q58 0 98.5 39zM266 524.5q-28 25.5 -28 66.5q0 49 36 82t86 33q44 0 72 -26t28 -66q0 -49 -35.5 -82t-86.5 -33q-44 0 -72 25.5zM377.5 569q15.5 13 19.5 34q3 20 -8.5 33.5t-31.5 13.5q-24 0 -40 -16t-16 -39q0 -17 11 -28t29 -11q21 0 36.5 13z
" />
    <glyph glyph-name="ae" unicode="&#xe6;" horiz-adv-x="827" 
d="M733 208.5q-74 -45.5 -194 -45.5q-15 0 -49 2q6 -43 34.5 -66t78.5 -23q39 0 69.5 8.5t62.5 26.5l32 -70q-81 -52 -174 -52q-48 0 -84.5 19t-55.5 54l-18 -62h-74l3 57q-34 -33 -76 -50.5t-85 -17.5q-76 0 -121.5 48.5t-45.5 134.5q0 81 31.5 146.5t87.5 102.5t125 37
q95 0 140 -71l20 59h72l-1 -57q61 67 157 67q64 0 101.5 -33.5t37.5 -87.5q0 -81 -74 -126.5zM538 239q75 0 122 21t48 60q0 50 -63 50q-56 0 -96 -35.5t-54 -93.5q30 -2 43 -2zM320.5 107q33.5 23 52 62t18.5 86q0 50 -25.5 78.5t-72.5 28.5q-42 0 -75.5 -22t-52.5 -61.5
t-19 -88.5t26 -77.5t73 -28.5q42 0 75.5 23z" />
    <glyph glyph-name="ccedilla" unicode="&#xe7;" horiz-adv-x="463" 
d="M271 -11l-25 -39q34 -5 55.5 -25t21.5 -50q0 -46 -36 -71t-92 -25q-63 0 -108 29l33 57q25 -19 64 -19q22 0 38 8t19 25q4 20 -20 29.5t-63 7.5l41 74q-71 10 -117.5 62t-46.5 133q0 27 4 50q13 70 51 120t93.5 76.5t119.5 26.5q49 0 86.5 -15t72.5 -49l-62 -71
q-21 21 -44 30.5t-52 9.5q-55 0 -100 -37.5t-56 -101.5q-3 -15 -3 -30q0 -49 29.5 -80t79.5 -31q35 0 62 10t57 34l45 -77q-68 -53 -147 -61z" />
    <glyph glyph-name="egrave" unicode="&#xe8;" horiz-adv-x="479" 
d="M383 203q-74 -40 -184 -40q-31 0 -54 3q7 -43 37.5 -66t78.5 -23q35 0 64 8t59 26l33 -76q-82 -47 -178 -47q-60 0 -106 24.5t-72 69t-26 100.5q0 76 34.5 139.5t94.5 100t135 36.5q73 0 115.5 -35.5t42.5 -95.5q0 -84 -74 -124zM191 240q69 0 117 18.5t48 60.5
q0 24 -16.5 36.5t-44.5 12.5q-54 0 -94 -36t-53 -90q22 -2 43 -2zM198 622l69 70l124 -124l-49 -47z" />
    <glyph glyph-name="eacute" unicode="&#xe9;" horiz-adv-x="479" 
d="M383 203q-74 -40 -184 -40q-31 0 -54 3q7 -43 37.5 -66t78.5 -23q35 0 64 8t59 26l33 -76q-82 -47 -178 -47q-60 0 -106 24.5t-72 69t-26 100.5q0 76 34.5 139.5t94.5 100t135 36.5q73 0 115.5 -35.5t42.5 -95.5q0 -84 -74 -124zM191 240q69 0 117 18.5t48 60.5
q0 24 -16.5 36.5t-44.5 12.5q-54 0 -94 -36t-53 -90q22 -2 43 -2zM220 575l159 119l51 -78l-171 -95z" />
    <glyph glyph-name="ecircumflex" unicode="&#xea;" horiz-adv-x="479" 
d="M383 203q-74 -40 -184 -40q-31 0 -54 3q7 -43 37.5 -66t78.5 -23q35 0 64 8t59 26l33 -76q-82 -47 -178 -47q-60 0 -106 24.5t-72 69t-26 100.5q0 76 34.5 139.5t94.5 100t135 36.5q73 0 115.5 -35.5t42.5 -95.5q0 -84 -74 -124zM191 240q69 0 117 18.5t48 60.5
q0 24 -16.5 36.5t-44.5 12.5q-54 0 -94 -36t-53 -90q22 -2 43 -2zM170 565l152 106h18l118 -108l-44 -48l-93 67l-113 -67z" />
    <glyph glyph-name="edieresis" unicode="&#xeb;" horiz-adv-x="479" 
d="M383 203q-74 -40 -184 -40q-31 0 -54 3q7 -43 37.5 -66t78.5 -23q35 0 64 8t59 26l33 -76q-82 -47 -178 -47q-60 0 -106 24.5t-72 69t-26 100.5q0 76 34.5 139.5t94.5 100t135 36.5q73 0 115.5 -35.5t42.5 -95.5q0 -84 -74 -124zM191 240q69 0 117 18.5t48 60.5
q0 24 -16.5 36.5t-44.5 12.5q-54 0 -94 -36t-53 -90q22 -2 43 -2zM180.5 559q-15.5 16 -15.5 39t18 42.5t44 19.5t41 -16t15 -39q0 -25 -17 -43.5t-44 -18.5q-26 0 -41.5 16zM374.5 559q-15.5 16 -15.5 39l1 11q3 20 20 35.5t40 15.5q26 0 41 -16t15 -39q0 -24 -17.5 -43
t-43.5 -19q-25 0 -40.5 16z" />
    <glyph glyph-name="igrave" unicode="&#xec;" horiz-adv-x="237" 
d="M103 446h109l-78 -446h-109zM63 622l69 70l124 -124l-49 -47z" />
    <glyph glyph-name="iacute" unicode="&#xed;" horiz-adv-x="237" 
d="M103 446h109l-78 -446h-109zM85 575l159 119l51 -78l-171 -95z" />
    <glyph glyph-name="icircumflex" unicode="&#xee;" horiz-adv-x="237" 
d="M103 446h109l-78 -446h-109zM35 565l152 106h18l118 -108l-44 -48l-93 67l-113 -67z" />
    <glyph glyph-name="idieresis" unicode="&#xef;" horiz-adv-x="237" 
d="M103 446h109l-78 -446h-109zM61.5 556.5q-14.5 14.5 -14.5 36.5q0 27 18 46t45 19q24 0 38 -14.5t14 -35.5v-4q0 -6 -1 -9q-4 -23 -20 -38t-40 -15q-25 0 -39.5 14.5zM222 557q-14 15 -14 36q0 26 17.5 45.5t44.5 19.5q24 0 38 -15t14 -36v-4q0 -6 -1 -9
q-4 -22 -20.5 -37t-40.5 -15t-38 15z" />
    <glyph glyph-name="eth" unicode="&#xf0;" horiz-adv-x="516" 
d="M488 337q0 -48 -9 -99q-19 -113 -86.5 -182t-168.5 -69q-55 0 -98 22.5t-67.5 64t-24.5 96.5q0 26 4 47q16 94 78 148.5t145 54.5t128 -57q-9 107 -64 177l-96 -62l-39 63l81 52q-41 32 -92 52l49 81q72 -30 128 -79l86 55l39 -62l-74 -48q81 -107 81 -255zM370 243
q0 39 -26 63t-67 24q-37 0 -68 -20t-49.5 -56t-18.5 -80q0 -42 23 -67t64 -25q56 0 93 41t47 101q2 12 2 19z" />
    <glyph glyph-name="ntilde" unicode="&#xf1;" horiz-adv-x="525" 
d="M446 424.5q35 -33.5 35 -97.5q0 -20 -5 -50l-49 -277h-109l48 272q2 9 2 25q0 63 -65 63q-51 0 -85 -36.5t-44 -94.5l-40 -229h-110l79 446h73l10 -72q30 38 71 61t90 23q64 0 99 -33.5zM172 573q32 75 91 75q25 0 61 -16q28 -11 39 -11q12 0 22.5 7.5t21.5 24.5l56 -38
q-35 -72 -89 -72q-23 0 -57 16q-28 12 -42 12t-25 -8t-22 -26z" />
    <glyph glyph-name="ograve" unicode="&#xf2;" horiz-adv-x="553" 
d="M134 13q-47 25 -73 69.5t-26 102.5q0 25 4 46q12 67 48.5 118.5t94 80t129.5 28.5q62 0 109 -25t73 -70t26 -103q0 -25 -4 -45q-18 -103 -90.5 -165t-181.5 -62q-62 0 -109 25zM353.5 122.5q41.5 38.5 52.5 101.5q3 15 3 30q0 49 -28.5 78.5t-78.5 29.5
q-61 0 -102.5 -39.5t-51.5 -100.5q-3 -16 -3 -31q0 -48 28.5 -77.5t77.5 -29.5q61 0 102.5 38.5zM218 622l69 70l124 -124l-49 -47z" />
    <glyph glyph-name="oacute" unicode="&#xf3;" horiz-adv-x="553" 
d="M134 13q-47 25 -73 69.5t-26 102.5q0 25 4 46q12 67 48.5 118.5t94 80t129.5 28.5q62 0 109 -25t73 -70t26 -103q0 -25 -4 -45q-18 -103 -90.5 -165t-181.5 -62q-62 0 -109 25zM353.5 122.5q41.5 38.5 52.5 101.5q3 15 3 30q0 49 -28.5 78.5t-78.5 29.5
q-61 0 -102.5 -39.5t-51.5 -100.5q-3 -16 -3 -31q0 -48 28.5 -77.5t77.5 -29.5q61 0 102.5 38.5zM239 575l159 119l51 -78l-171 -95z" />
    <glyph glyph-name="ocircumflex" unicode="&#xf4;" horiz-adv-x="553" 
d="M134 13q-47 25 -73 69.5t-26 102.5q0 25 4 46q12 67 48.5 118.5t94 80t129.5 28.5q62 0 109 -25t73 -70t26 -103q0 -25 -4 -45q-18 -103 -90.5 -165t-181.5 -62q-62 0 -109 25zM353.5 122.5q41.5 38.5 52.5 101.5q3 15 3 30q0 49 -28.5 78.5t-78.5 29.5
q-61 0 -102.5 -39.5t-51.5 -100.5q-3 -16 -3 -31q0 -48 28.5 -77.5t77.5 -29.5q61 0 102.5 38.5zM190 565l152 106h18l118 -108l-44 -48l-93 67l-113 -67z" />
    <glyph glyph-name="otilde" unicode="&#xf5;" horiz-adv-x="553" 
d="M134 13q-47 25 -73 69.5t-26 102.5q0 25 4 46q12 67 48.5 118.5t94 80t129.5 28.5q62 0 109 -25t73 -70t26 -103q0 -25 -4 -45q-18 -103 -90.5 -165t-181.5 -62q-62 0 -109 25zM353.5 122.5q41.5 38.5 52.5 101.5q3 15 3 30q0 49 -28.5 78.5t-78.5 29.5
q-61 0 -102.5 -39.5t-51.5 -100.5q-3 -16 -3 -31q0 -48 28.5 -77.5t77.5 -29.5q61 0 102.5 38.5zM191 573q32 75 91 75q25 0 61 -16q28 -11 39 -11q12 0 22.5 7.5t21.5 24.5l56 -38q-35 -72 -89 -72q-23 0 -57 16q-28 12 -42 12t-25 -8t-22 -26z" />
    <glyph glyph-name="odieresis" unicode="&#xf6;" horiz-adv-x="553" 
d="M134 13q-47 25 -73 69.5t-26 102.5q0 25 4 46q12 67 48.5 118.5t94 80t129.5 28.5q62 0 109 -25t73 -70t26 -103q0 -25 -4 -45q-18 -103 -90.5 -165t-181.5 -62q-62 0 -109 25zM353.5 122.5q41.5 38.5 52.5 101.5q3 15 3 30q0 49 -28.5 78.5t-78.5 29.5
q-61 0 -102.5 -39.5t-51.5 -100.5q-3 -16 -3 -31q0 -48 28.5 -77.5t77.5 -29.5q61 0 102.5 38.5zM200.5 559q-15.5 16 -15.5 39t18 42.5t44 19.5t41 -16t15 -39q0 -25 -17 -43.5t-44 -18.5q-26 0 -41.5 16zM394.5 559q-15.5 16 -15.5 39l1 11q3 20 20 35.5t40 15.5
q26 0 41 -16t15 -39q0 -24 -17.5 -43t-43.5 -19q-25 0 -40.5 16z" />
    <glyph glyph-name="divide" unicode="&#xf7;" horiz-adv-x="536" 
d="M268 478q-18 16 -18 45q0 36 22 56.5t52 20.5q29 0 47.5 -17t18.5 -46q0 -35 -22 -55t-53 -20q-29 0 -47 16zM90 395h417l-17 -94h-417zM204.5 117.5q-18.5 16.5 -18.5 45.5q0 36 22.5 56.5t52.5 20.5q29 0 47 -17t18 -46q0 -34 -22 -55t-52 -21q-29 0 -47.5 16.5z" />
    <glyph glyph-name="oslash" unicode="&#xf8;" horiz-adv-x="553" 
d="M504.5 341q14.5 -36 14.5 -79q0 -26 -4 -47q-18 -102 -91 -164.5t-181 -62.5q-62 0 -113 27l-45 -53l-37 30l44 51q-57 54 -57 141q0 26 4 47q12 66 48.5 117.5t94.5 80.5t130 29q63 0 112 -27l43 50l39 -28l-43 -50q27 -26 41.5 -62zM144 191q0 -38 19 -67l194 226
q-23 12 -54 12q-60 0 -102.5 -39.5t-53.5 -100.5q-3 -16 -3 -31zM409 253q0 42 -19 68l-194 -226q24 -12 55 -12q60 0 102 38.5t54 102.5q2 10 2 29z" />
    <glyph glyph-name="ugrave" unicode="&#xf9;" horiz-adv-x="523" 
d="M499 446l-79 -446h-76l-9 67q-28 -36 -67.5 -56t-86.5 -20q-63 0 -99.5 36.5t-36.5 99.5q0 22 4 41l49 278h109l-48 -274q-2 -14 -2 -21q0 -28 16 -45t47 -17q52 0 85.5 36t43.5 94l40 227h110zM201 622l69 70l124 -124l-49 -47z" />
    <glyph glyph-name="uacute" unicode="&#xfa;" horiz-adv-x="523" 
d="M499 446l-79 -446h-76l-9 67q-28 -36 -67.5 -56t-86.5 -20q-63 0 -99.5 36.5t-36.5 99.5q0 22 4 41l49 278h109l-48 -274q-2 -14 -2 -21q0 -28 16 -45t47 -17q52 0 85.5 36t43.5 94l40 227h110zM223 575l159 119l51 -78l-171 -95z" />
    <glyph glyph-name="ucircumflex" unicode="&#xfb;" horiz-adv-x="523" 
d="M499 446l-79 -446h-76l-9 67q-28 -36 -67.5 -56t-86.5 -20q-63 0 -99.5 36.5t-36.5 99.5q0 22 4 41l49 278h109l-48 -274q-2 -14 -2 -21q0 -28 16 -45t47 -17q52 0 85.5 36t43.5 94l40 227h110zM173 565l152 106h18l118 -108l-44 -48l-93 67l-113 -67z" />
    <glyph glyph-name="udieresis" unicode="&#xfc;" horiz-adv-x="523" 
d="M499 446l-79 -446h-76l-9 67q-28 -36 -67.5 -56t-86.5 -20q-63 0 -99.5 36.5t-36.5 99.5q0 22 4 41l49 278h109l-48 -274q-2 -14 -2 -21q0 -28 16 -45t47 -17q52 0 85.5 36t43.5 94l40 227h110zM183.5 559q-15.5 16 -15.5 39t18 42.5t44 19.5t41 -16t15 -39
q0 -25 -17 -43.5t-44 -18.5q-26 0 -41.5 16zM377.5 559q-15.5 16 -15.5 39l1 11q3 20 20 35.5t40 15.5q26 0 41 -16t15 -39q0 -24 -17.5 -43t-43.5 -19q-25 0 -40.5 16z" />
    <glyph glyph-name="yacute" unicode="&#xfd;" horiz-adv-x="490" 
d="M520 446v-3l-374 -663h-118v2l142 239l-122 422v3h111l66 -249q8 -34 12 -57q10 23 28 57l134 249h121zM200 575l159 119l51 -78l-171 -95z" />
    <glyph glyph-name="thorn" unicode="&#xfe;" horiz-adv-x="572" 
d="M449.5 432.5q41.5 -24.5 64.5 -68t23 -99.5q0 -22 -5 -50q-19 -103 -83.5 -164.5t-161.5 -61.5q-47 0 -85.5 20t-61.5 56q-1 -35 -8 -73l-37 -212h-109l166 940h109l-49 -279q-4 -22 -10 -41q63 57 153 57q53 0 94.5 -24.5zM425 255q0 48 -28.5 77.5t-77.5 29.5
q-59 0 -99.5 -39t-51.5 -99q-3 -16 -3 -31q0 -48 27.5 -78.5t76.5 -30.5q59 0 100 37.5t53 101.5q3 17 3 32z" />
    <glyph glyph-name="ydieresis" unicode="&#xff;" horiz-adv-x="490" 
d="M520 446v-3l-374 -663h-118v2l142 239l-122 422v3h111l66 -249q8 -34 12 -57q10 23 28 57l134 249h121zM161.5 559q-15.5 16 -15.5 39t18 42.5t44 19.5t41 -16t15 -39q0 -25 -17 -43.5t-44 -18.5q-26 0 -41.5 16zM355.5 559q-15.5 16 -15.5 39l1 11q3 20 20 35.5t40 15.5
q26 0 41 -16t15 -39q0 -24 -17.5 -43t-43.5 -19q-25 0 -40.5 16z" />
    <glyph glyph-name="Amacron" unicode="&#x100;" horiz-adv-x="688" 
d="M645 3v-3h-118l-34 123h-321l-78 -123h-127v3l440 681h37zM328 372l-98 -156h239l-44 155q-21 79 -29 118q-30 -57 -68 -117zM316 855h285l-16 -84h-284z" />
    <glyph glyph-name="amacron" unicode="&#x101;" horiz-adv-x="573" 
d="M548 446l-79 -446h-82l-3 60q-67 -71 -166 -71q-84 0 -133 53t-49 138q0 31 5 55q18 100 84 161t158 61q50 0 89.5 -21t62.5 -60l33 70h80zM351.5 123q40.5 39 51.5 98q3 18 3 34q0 48 -28.5 77.5t-80.5 29.5q-55 0 -95.5 -37.5t-51.5 -97.5q-4 -24 -4 -35
q0 -49 29 -78.5t78 -29.5q58 0 98.5 39zM215 625h275l-15 -79h-274z" />
    <glyph glyph-name="Abreve" unicode="&#x102;" horiz-adv-x="688" 
d="M645 3v-3h-118l-34 123h-321l-78 -123h-127v3l440 681h37zM328 372l-98 -156h239l-44 155q-21 79 -29 118q-30 -57 -68 -117zM351 772q-37 30 -42 83l61 28q7 -30 25.5 -44.5t46.5 -14.5q34 0 59 16.5t36 42.5l62 -28q-16 -55 -60 -84t-97 -29q-54 0 -91 30z" />
    <glyph glyph-name="abreve" unicode="&#x103;" horiz-adv-x="573" 
d="M548 446l-79 -446h-82l-3 60q-67 -71 -166 -71q-84 0 -133 53t-49 138q0 31 5 55q18 100 84 161t158 61q50 0 89.5 -21t62.5 -60l33 70h80zM351.5 123q40.5 39 51.5 98q3 18 3 34q0 48 -28.5 77.5t-80.5 29.5q-55 0 -95.5 -37.5t-51.5 -97.5q-4 -24 -4 -35
q0 -49 29 -78.5t78 -29.5q58 0 98.5 39zM255.5 548q-35.5 29 -39.5 80l59 26q11 -57 69 -57q33 0 57.5 16t34.5 41l59 -26q-16 -54 -57.5 -81.5t-93.5 -27.5q-53 0 -88.5 29z" />
    <glyph glyph-name="Aogonek" unicode="&#x104;" horiz-adv-x="688" 
d="M645 3v-3h-8q-42 -27 -70 -58.5t-28 -53.5q0 -23 27 -23q21 0 43 13l18 -77q-42 -26 -96 -26q-47 0 -73 23t-26 61q0 70 93 147l-32 117h-321l-78 -123h-127v3l440 681h37zM328 372l-98 -156h239l-44 155q-21 79 -29 118q-30 -57 -68 -117z" />
    <glyph glyph-name="aogonek" unicode="&#x105;" horiz-adv-x="573" 
d="M398.5 -60.5q-27.5 -30.5 -27.5 -52.5q0 -23 24 -23q23 0 42 13l16 -71q-40 -26 -91 -26q-41 0 -64 21t-23 55q0 9 1 14q4 36 32 71t78 72l-2 47q-67 -71 -166 -71q-84 0 -133 53t-49 138q0 31 5 55q18 100 84 161t158 61q50 0 89.5 -21t62.5 -60l33 70h80l-79 -446
q-43 -30 -70.5 -60.5zM351.5 123q40.5 39 51.5 98q3 18 3 34q0 48 -28.5 77.5t-80.5 29.5q-55 0 -95.5 -37.5t-51.5 -97.5q-4 -24 -4 -35q0 -49 29 -78.5t78 -29.5q58 0 98.5 39z" />
    <glyph glyph-name="Cacute" unicode="&#x106;" horiz-adv-x="693" 
d="M204.5 25q-68.5 38 -105 104.5t-36.5 150.5q0 35 6 71q17 98 72.5 176t140.5 122t185 44q80 0 139.5 -27t109.5 -78l-68 -74q-36 37 -79 55t-101 18q-69 0 -128.5 -31.5t-99.5 -88t-52 -127.5q-5 -28 -5 -51q0 -56 22.5 -100t66 -69.5t103.5 -25.5q65 0 116 24.5t98 73.5
l64 -78q-123 -127 -288 -127q-92 0 -160.5 38zM379 801l167 125l55 -82l-181 -100z" />
    <glyph glyph-name="cacute" unicode="&#x107;" horiz-adv-x="463" 
d="M134.5 10.5q-45.5 23.5 -73 68t-27.5 106.5q0 20 5 50q13 70 51 120t93.5 76.5t119.5 26.5q49 0 86.5 -15t72.5 -49l-62 -71q-21 21 -44 30.5t-52 9.5q-55 0 -100 -37.5t-56 -101.5q-3 -15 -3 -30q0 -49 29.5 -80t79.5 -31q35 0 62 10t57 34l45 -77q-45 -35 -89.5 -49
t-95.5 -14q-53 0 -98.5 23.5zM222 575l159 119l51 -78l-171 -95z" />
    <glyph glyph-name="Ccircumflex" unicode="&#x108;" horiz-adv-x="693" 
d="M204.5 25q-68.5 38 -105 104.5t-36.5 150.5q0 35 6 71q17 98 72.5 176t140.5 122t185 44q80 0 139.5 -27t109.5 -78l-68 -74q-36 37 -79 55t-101 18q-69 0 -128.5 -31.5t-99.5 -88t-52 -127.5q-5 -28 -5 -51q0 -56 22.5 -100t66 -69.5t103.5 -25.5q65 0 116 24.5t98 73.5
l64 -78q-123 -127 -288 -127q-92 0 -160.5 38zM328 790l159 110h18l123 -112l-46 -50l-97 68l-117 -68z" />
    <glyph glyph-name="ccircumflex" unicode="&#x109;" horiz-adv-x="463" 
d="M134.5 10.5q-45.5 23.5 -73 68t-27.5 106.5q0 20 5 50q13 70 51 120t93.5 76.5t119.5 26.5q49 0 86.5 -15t72.5 -49l-62 -71q-21 21 -44 30.5t-52 9.5q-55 0 -100 -37.5t-56 -101.5q-3 -15 -3 -30q0 -49 29.5 -80t79.5 -31q35 0 62 10t57 34l45 -77q-45 -35 -89.5 -49
t-95.5 -14q-53 0 -98.5 23.5zM172 565l152 106h18l118 -108l-44 -48l-93 67l-113 -67z" />
    <glyph glyph-name="Cdotaccent" unicode="&#x10a;" horiz-adv-x="693" 
d="M204.5 25q-68.5 38 -105 104.5t-36.5 150.5q0 35 6 71q17 98 72.5 176t140.5 122t185 44q80 0 139.5 -27t109.5 -78l-68 -74q-36 37 -79 55t-101 18q-69 0 -128.5 -31.5t-99.5 -88t-52 -127.5q-5 -28 -5 -51q0 -56 22.5 -100t66 -69.5t103.5 -25.5q65 0 116 24.5t98 73.5
l64 -78q-123 -127 -288 -127q-92 0 -160.5 38zM436 778q-17 17 -17 43q0 28 20 49.5t50 21.5t46.5 -17t16.5 -44t-20.5 -48.5t-50.5 -21.5q-28 0 -45 17z" />
    <glyph glyph-name="cdotaccent" unicode="&#x10b;" horiz-adv-x="463" 
d="M134.5 10.5q-45.5 23.5 -73 68t-27.5 106.5q0 20 5 50q13 70 51 120t93.5 76.5t119.5 26.5q49 0 86.5 -15t72.5 -49l-62 -71q-21 21 -44 30.5t-52 9.5q-55 0 -100 -37.5t-56 -101.5q-3 -15 -3 -30q0 -49 29.5 -80t79.5 -31q35 0 62 10t57 34l45 -77q-45 -35 -89.5 -49
t-95.5 -14q-53 0 -98.5 23.5zM275 553.5q-16 16.5 -16 41.5q0 27 19 48t48 21q28 0 44 -17t16 -43q0 -27 -19 -47t-49 -20q-27 0 -43 16.5z" />
    <glyph glyph-name="Ccaron" unicode="&#x10c;" horiz-adv-x="693" 
d="M204.5 25q-68.5 38 -105 104.5t-36.5 150.5q0 35 6 71q17 98 72.5 176t140.5 122t185 44q80 0 139.5 -27t109.5 -78l-68 -74q-36 37 -79 55t-101 18q-69 0 -128.5 -31.5t-99.5 -88t-52 -127.5q-5 -28 -5 -51q0 -56 22.5 -100t66 -69.5t103.5 -25.5q65 0 116 24.5t98 73.5
l64 -78q-123 -127 -288 -127q-92 0 -160.5 38zM341 853l46 49l92 -69l118 69l42 -49l-159 -112h-18z" />
    <glyph glyph-name="ccaron" unicode="&#x10d;" horiz-adv-x="463" 
d="M134.5 10.5q-45.5 23.5 -73 68t-27.5 106.5q0 20 5 50q13 70 51 120t93.5 76.5t119.5 26.5q49 0 86.5 -15t72.5 -49l-62 -71q-21 21 -44 30.5t-52 9.5q-55 0 -100 -37.5t-56 -101.5q-3 -15 -3 -30q0 -49 29.5 -80t79.5 -31q35 0 62 10t57 34l45 -77q-45 -35 -89.5 -49
t-95.5 -14q-53 0 -98.5 23.5zM184 627l44 47l89 -67l115 67l40 -47l-154 -108h-17z" />
    <glyph glyph-name="Dcaron" unicode="&#x10e;" horiz-adv-x="718" 
d="M164 680h243q86 0 152 -36t102 -100t36 -146q0 -32 -6 -67q-18 -100 -70.5 -175t-137 -115.5t-192.5 -40.5h-247zM301 102q68 0 125.5 30.5t96.5 85.5t52 126q4 21 4 48q0 81 -50 133.5t-143 52.5h-123l-84 -476h122zM290 853l46 49l92 -69l118 69l42 -49l-159 -112h-18z
" />
    <glyph glyph-name="dcaron" unicode="&#x10f;" horiz-adv-x="591" 
d="M486 720h110l-127 -720h-76l-7 63q-31 -36 -75 -55t-94 -19q-52 0 -93.5 24t-65 68t-23.5 102q0 22 5 52q11 62 43.5 112.5t84 80t115.5 29.5q49 0 87 -19t61 -54q1 34 8 71zM769 720q-14 -60 -34 -104t-48 -80h-76q41 92 55 184h103zM351 122.5q40 38.5 51 99.5
q3 18 3 33q0 48 -28 77t-79 29q-56 0 -97.5 -37t-51.5 -97q-3 -16 -3 -32q0 -52 29 -81.5t76 -29.5q60 0 100 38.5z" />
    <glyph glyph-name="Dcroat" unicode="&#x110;" horiz-adv-x="723" 
d="M563 644q66 -36 102.5 -100.5t36.5 -146.5q0 -31 -6 -66q-18 -100 -71 -175t-137 -115.5t-192 -40.5h-245l54 304h-64l15 83h63l52 293h240q86 0 152 -36zM584 393q0 81 -50.5 133t-142.5 52h-120l-34 -191h171l-15 -83h-171l-36 -202h120q68 0 125.5 30.5t96.5 85.5
t51 126q5 28 5 49z" />
    <glyph glyph-name="dcroat" unicode="&#x111;" horiz-adv-x="572" 
d="M619 538h-55l-95 -538h-76l-7 63q-32 -36 -76 -55t-93 -19q-53 0 -94.5 23.5t-64.5 66.5t-23 100q0 22 5 54q11 60 43 110t83.5 79.5t116.5 29.5q48 0 86 -17.5t61 -50.5q1 33 8 66l16 88h-151l12 67h151l20 115h110l-20 -115h54zM351 121.5q40 37.5 51 98.5q3 17 3 31
q0 48 -28 77.5t-80 29.5q-56 0 -97 -36.5t-51 -95.5q-3 -16 -3 -33q0 -50 29 -79.5t76 -29.5q60 0 100 37.5z" />
    <glyph glyph-name="Emacron" unicode="&#x112;" horiz-adv-x="560" 
d="M264 576l-32 -181h273l-17 -99h-274l-34 -192h320l-18 -104h-438l120 680h431l-18 -104h-313zM262 855h285l-16 -84h-284z" />
    <glyph glyph-name="emacron" unicode="&#x113;" horiz-adv-x="479" 
d="M383 203q-74 -40 -184 -40q-31 0 -54 3q7 -43 37.5 -66t78.5 -23q35 0 64 8t59 26l33 -76q-82 -47 -178 -47q-60 0 -106 24.5t-72 69t-26 100.5q0 76 34.5 139.5t94.5 100t135 36.5q73 0 115.5 -35.5t42.5 -95.5q0 -84 -74 -124zM191 240q69 0 117 18.5t48 60.5
q0 24 -16.5 36.5t-44.5 12.5q-54 0 -94 -36t-53 -90q22 -2 43 -2zM186 626h275l-15 -79h-274z" />
    <glyph glyph-name="Ebreve" unicode="&#x114;" horiz-adv-x="560" 
d="M264 576l-32 -181h273l-17 -99h-274l-34 -192h320l-18 -104h-438l120 680h431l-18 -104h-313zM297 772q-37 30 -42 83l61 28q7 -30 25.5 -44.5t46.5 -14.5q34 0 59 16.5t36 42.5l62 -28q-16 -55 -60 -84t-97 -29q-54 0 -91 30z" />
    <glyph glyph-name="ebreve" unicode="&#x115;" horiz-adv-x="479" 
d="M383 203q-74 -40 -184 -40q-31 0 -54 3q7 -43 37.5 -66t78.5 -23q35 0 64 8t59 26l33 -76q-82 -47 -178 -47q-60 0 -106 24.5t-72 69t-26 100.5q0 76 34.5 139.5t94.5 100t135 36.5q73 0 115.5 -35.5t42.5 -95.5q0 -84 -74 -124zM191 240q69 0 117 18.5t48 60.5
q0 24 -16.5 36.5t-44.5 12.5q-54 0 -94 -36t-53 -90q22 -2 43 -2zM226.5 549q-35.5 29 -39.5 80l59 26q11 -57 69 -57q33 0 57.5 16t34.5 41l59 -26q-16 -54 -57.5 -81.5t-93.5 -27.5q-53 0 -88.5 29z" />
    <glyph glyph-name="Edotaccent" unicode="&#x116;" horiz-adv-x="560" 
d="M264 576l-32 -181h273l-17 -99h-274l-34 -192h320l-18 -104h-438l120 680h431l-18 -104h-313zM352 778q-17 17 -17 43q0 28 20 49.5t50 21.5t46.5 -17t16.5 -44t-20.5 -48.5t-50.5 -21.5q-28 0 -45 17z" />
    <glyph glyph-name="edotaccent" unicode="&#x117;" horiz-adv-x="479" 
d="M383 203q-74 -40 -184 -40q-31 0 -54 3q7 -43 37.5 -66t78.5 -23q35 0 64 8t59 26l33 -76q-82 -47 -178 -47q-60 0 -106 24.5t-72 69t-26 100.5q0 76 34.5 139.5t94.5 100t135 36.5q73 0 115.5 -35.5t42.5 -95.5q0 -84 -74 -124zM191 240q69 0 117 18.5t48 60.5
q0 24 -16.5 36.5t-44.5 12.5q-54 0 -94 -36t-53 -90q22 -2 43 -2zM273 553.5q-16 16.5 -16 41.5q0 27 19 48t48 21q28 0 44 -17t16 -43q0 -27 -19 -47t-49 -20q-27 0 -43 16.5z" />
    <glyph glyph-name="Eogonek" unicode="&#x118;" horiz-adv-x="560" 
d="M264 576l-32 -181h273l-17 -99h-274l-34 -192h320l-18 -104q-42 -27 -70 -58.5t-28 -53.5q0 -23 27 -23q21 0 43 13l18 -77q-42 -26 -96 -26q-47 0 -73 23t-26 61q0 68 86 141h-319l120 680h431l-18 -104h-313z" />
    <glyph glyph-name="eogonek" unicode="&#x119;" horiz-adv-x="479" 
d="M383 203q-74 -40 -184 -40q-31 0 -54 3q7 -43 37.5 -66t78.5 -23q35 0 64.5 7.5t59.5 25.5l32 -75q-65 -39 -106 -78t-41 -71q0 -11 7 -17.5t20 -6.5q21 0 45 15l20 -70q-40 -25 -89 -25q-43 0 -68 22t-25 57q0 30 18 63.5t50 63.5h-9q-60 0 -106 24.5t-72 69t-26 100.5
q0 76 34.5 139.5t94.5 100t135 36.5q73 0 115.5 -35.5t42.5 -95.5q0 -84 -74 -124zM191 240q69 0 117 18.5t48 60.5q0 24 -16.5 36.5t-44.5 12.5q-54 0 -94 -36t-53 -90q22 -2 43 -2z" />
    <glyph glyph-name="Ecaron" unicode="&#x11a;" horiz-adv-x="560" 
d="M264 576l-32 -181h273l-17 -99h-274l-34 -192h320l-18 -104h-438l120 680h431l-18 -104h-313zM257 853l46 49l92 -69l118 69l42 -49l-159 -112h-18z" />
    <glyph glyph-name="ecaron" unicode="&#x11b;" horiz-adv-x="479" 
d="M383 203q-74 -40 -184 -40q-31 0 -54 3q7 -43 37.5 -66t78.5 -23q35 0 64 8t59 26l33 -76q-82 -47 -178 -47q-60 0 -106 24.5t-72 69t-26 100.5q0 76 34.5 139.5t94.5 100t135 36.5q73 0 115.5 -35.5t42.5 -95.5q0 -84 -74 -124zM191 240q69 0 117 18.5t48 60.5
q0 24 -16.5 36.5t-44.5 12.5q-54 0 -94 -36t-53 -90q22 -2 43 -2zM182 627l44 47l89 -67l115 67l40 -47l-154 -108h-17z" />
    <glyph glyph-name="Gcircumflex" unicode="&#x11c;" horiz-adv-x="731" 
d="M420 380h288l-50 -280q-125 -113 -290 -113q-96 0 -164.5 38t-104 104.5t-35.5 151.5q0 36 6 73q17 99 73.5 176t141 120t184.5 43q78 0 136 -25.5t110 -77.5l-67 -76q-39 39 -80 56.5t-103 17.5q-68 0 -127.5 -31t-100 -86t-52.5 -123q-5 -33 -5 -57q0 -90 52 -144.5
t148 -54.5q55 0 101.5 15.5t80.5 45.5l23 130h-183zM324 790l159 110h18l123 -112l-46 -50l-97 68l-117 -68z" />
    <glyph glyph-name="gcircumflex" unicode="&#x11d;" horiz-adv-x="571" 
d="M545 446l-82 -472q-18 -103 -88 -154.5t-172 -51.5q-117 0 -195 73l52 80q61 -55 139 -55q63 0 104 30.5t52 87.5q7 36 15 66q-65 -58 -154 -58q-84 0 -132.5 51.5t-48.5 135.5q0 22 5 54q18 101 84 162.5t161 61.5q51 0 90.5 -20t62.5 -58l34 67h73zM405 255
q0 47 -27.5 76.5t-79.5 29.5q-57 0 -97.5 -37t-51.5 -101q-3 -18 -3 -33q0 -49 28.5 -77t75.5 -28q60 0 100 38.5t52 101.5q3 15 3 30zM192 565l152 106h18l118 -108l-44 -48l-93 67l-113 -67z" />
    <glyph glyph-name="Gbreve" unicode="&#x11e;" horiz-adv-x="731" 
d="M420 380h288l-50 -280q-125 -113 -290 -113q-96 0 -164.5 38t-104 104.5t-35.5 151.5q0 36 6 73q17 99 73.5 176t141 120t184.5 43q78 0 136 -25.5t110 -77.5l-67 -76q-39 39 -80 56.5t-103 17.5q-68 0 -127.5 -31t-100 -86t-52.5 -123q-5 -33 -5 -57q0 -90 52 -144.5
t148 -54.5q55 0 101.5 15.5t80.5 45.5l23 130h-183zM377 772q-37 30 -42 83l61 28q7 -30 25.5 -44.5t46.5 -14.5q34 0 59 16.5t36 42.5l62 -28q-16 -55 -60 -84t-97 -29q-54 0 -91 30z" />
    <glyph glyph-name="gbreve" unicode="&#x11f;" horiz-adv-x="571" 
d="M545 446l-82 -472q-18 -103 -88 -154.5t-172 -51.5q-117 0 -195 73l52 80q61 -55 139 -55q63 0 104 30.5t52 87.5q7 36 15 66q-65 -58 -154 -58q-84 0 -132.5 51.5t-48.5 135.5q0 22 5 54q18 101 84 162.5t161 61.5q51 0 90.5 -20t62.5 -58l34 67h73zM405 255
q0 47 -27.5 76.5t-79.5 29.5q-57 0 -97.5 -37t-51.5 -101q-3 -18 -3 -33q0 -49 28.5 -77t75.5 -28q60 0 100 38.5t52 101.5q3 15 3 30zM248.5 549q-35.5 29 -39.5 80l59 26q11 -57 69 -57q33 0 57.5 16t34.5 41l59 -26q-16 -54 -57.5 -81.5t-93.5 -27.5q-53 0 -88.5 29z" />
    <glyph glyph-name="Gdotaccent" unicode="&#x120;" horiz-adv-x="731" 
d="M420 380h288l-50 -280q-125 -113 -290 -113q-96 0 -164.5 38t-104 104.5t-35.5 151.5q0 36 6 73q17 99 73.5 176t141 120t184.5 43q78 0 136 -25.5t110 -77.5l-67 -76q-39 39 -80 56.5t-103 17.5q-68 0 -127.5 -31t-100 -86t-52.5 -123q-5 -33 -5 -57q0 -90 52 -144.5
t148 -54.5q55 0 101.5 15.5t80.5 45.5l23 130h-183zM432 778q-17 17 -17 43q0 28 20 49.5t50 21.5t46.5 -17t16.5 -44t-20.5 -48.5t-50.5 -21.5q-28 0 -45 17z" />
    <glyph glyph-name="gdotaccent" unicode="&#x121;" horiz-adv-x="571" 
d="M545 446l-82 -472q-18 -103 -88 -154.5t-172 -51.5q-117 0 -195 73l52 80q61 -55 139 -55q63 0 104 30.5t52 87.5q7 36 15 66q-65 -58 -154 -58q-84 0 -132.5 51.5t-48.5 135.5q0 22 5 54q18 101 84 162.5t161 61.5q51 0 90.5 -20t62.5 -58l34 67h73zM405 255
q0 47 -27.5 76.5t-79.5 29.5q-57 0 -97.5 -37t-51.5 -101q-3 -18 -3 -33q0 -49 28.5 -77t75.5 -28q60 0 100 38.5t52 101.5q3 15 3 30zM294 553.5q-16 16.5 -16 41.5q0 27 19 48t48 21q28 0 44 -17t16 -43q0 -27 -19 -47t-49 -20q-27 0 -43 16.5z" />
    <glyph glyph-name="uni0122" unicode="&#x122;" horiz-adv-x="731" 
d="M420 380h288l-50 -280q-125 -113 -290 -113q-96 0 -164.5 38t-104 104.5t-35.5 151.5q0 36 6 73q17 99 73.5 176t141 120t184.5 43q78 0 136 -25.5t110 -77.5l-67 -76q-39 39 -80 56.5t-103 17.5q-68 0 -127.5 -31t-100 -86t-52.5 -123q-5 -33 -5 -57q0 -90 52 -144.5
t148 -54.5q55 0 101.5 15.5t80.5 45.5l23 130h-183zM311 -95h102q-29 -122 -89 -192h-75q43 93 62 192z" />
    <glyph glyph-name="uni0123" unicode="&#x123;" horiz-adv-x="571" 
d="M545 446l-82 -472q-18 -103 -88 -154.5t-172 -51.5q-117 0 -195 73l52 80q61 -55 139 -55q63 0 104 30.5t52 87.5q7 36 15 66q-65 -58 -154 -58q-84 0 -132.5 51.5t-48.5 135.5q0 22 5 54q18 101 84 162.5t161 61.5q51 0 90.5 -20t62.5 -58l34 67h73zM405 255
q0 47 -27.5 76.5t-79.5 29.5q-57 0 -97.5 -37t-51.5 -101q-3 -18 -3 -33q0 -49 28.5 -77t75.5 -28q60 0 100 38.5t52 101.5q3 15 3 30zM366 718h73q-44 -99 -61 -188h-100q29 119 88 188z" />
    <glyph glyph-name="Hcircumflex" unicode="&#x124;" horiz-adv-x="736" 
d="M733 680l-119 -680h-118l50 288h-334l-50 -288h-118l119 680h118l-50 -283h334l50 283h118zM311 790l159 110h18l123 -112l-46 -50l-97 68l-117 -68z" />
    <glyph glyph-name="hcircumflex" unicode="&#x125;" horiz-adv-x="525" 
d="M152 720h109l-43 -245q-6 -35 -19 -86q64 69 149 69q66 0 99.5 -35t33.5 -98q0 -25 -4 -48l-49 -277h-110l49 275q2 16 2 22q0 30 -16.5 46.5t-48.5 16.5q-50 0 -84.5 -37.5t-44.5 -92.5l-40 -230h-110zM75 830l159 110h18l123 -112l-46 -50l-97 68l-117 -68z" />
    <glyph glyph-name="Hbar" unicode="&#x126;" horiz-adv-x="748" 
d="M771 519h-60l-92 -519h-117l50 288h-334l-50 -288h-118l91 519h-60l11 64h60l17 97h118l-17 -97h334l17 97h118l-17 -97h61zM593 519h-334l-22 -122h334z" />
    <glyph glyph-name="hbar" unicode="&#x127;" horiz-adv-x="526" 
d="M446 415q34 -35 34 -98q0 -25 -4 -48l-48 -269h-109l47 267q2 8 2 23q0 30 -16.5 46t-48.5 16q-50 0 -84.5 -37.5t-44.5 -91.5l-39 -223h-109l94 538h-55l11 67h56l20 115h110l-20 -115h154l-11 -67h-155l-12 -66q-6 -35 -19 -90q61 68 148 68q65 0 99 -35z" />
    <glyph glyph-name="Itilde" unicode="&#x128;" horiz-adv-x="285" 
d="M163 680h118l-119 -680h-118zM86 803q34 79 99 79q29 0 65 -17q28 -13 44 -13q14 0 25 8.5t23 27.5l63 -44q-39 -77 -99 -77q-28 0 -60 16q-32 14 -47 14q-29 0 -50 -37z" />
    <glyph glyph-name="itilde" unicode="&#x129;" horiz-adv-x="237" 
d="M103 446h109l-78 -446h-109zM36 573q32 75 91 75q25 0 61 -16q28 -11 39 -11q12 0 22.5 7.5t21.5 24.5l56 -38q-35 -72 -89 -72q-23 0 -57 16q-28 12 -42 12t-25 -8t-22 -26z" />
    <glyph glyph-name="Imacron" unicode="&#x12a;" horiz-adv-x="285" 
d="M163 680h118l-119 -680h-118zM109 855h285l-16 -84h-284z" />
    <glyph glyph-name="imacron" unicode="&#x12b;" horiz-adv-x="237" 
d="M103 446h109l-78 -446h-109zM78 624h220l-14 -81h-220z" />
    <glyph glyph-name="Ibreve" unicode="&#x12c;" horiz-adv-x="285" 
d="M163 680h118l-119 -680h-118zM145 772q-37 30 -42 83l61 28q7 -30 25.5 -44.5t46.5 -14.5q34 0 59 16.5t36 42.5l62 -28q-16 -55 -60 -84t-97 -29q-54 0 -91 30z" />
    <glyph glyph-name="ibreve" unicode="&#x12d;" horiz-adv-x="237" 
d="M103 446h109l-78 -446h-109zM91.5 549q-35.5 29 -39.5 80l59 26q11 -57 69 -57q33 0 57.5 16t34.5 41l59 -26q-16 -54 -57.5 -81.5t-93.5 -27.5q-53 0 -88.5 29z" />
    <glyph glyph-name="Iogonek" unicode="&#x12e;" horiz-adv-x="285" 
d="M153 -123l15 -77q-46 -26 -98 -26q-47 0 -73 22.5t-26 59.5q0 66 78 144h-5l119 680h118l-119 -680q-34 -29 -57 -59.5t-24 -51.5q0 -25 29 -25q22 0 43 13z" />
    <glyph glyph-name="iogonek" unicode="&#x12f;" horiz-adv-x="238" 
d="M235.5 652.5q16.5 -17.5 16.5 -43.5q0 -28 -20 -49.5t-50 -21.5q-29 0 -45.5 17t-16.5 43q0 29 20 50.5t50 21.5q29 0 45.5 -17.5zM80.5 -59.5q-23.5 -33.5 -23.5 -56.5q0 -22 27 -22q19 0 45 15l19 -69q-40 -26 -91 -26q-44 0 -69 20t-25 57q0 32 20 68.5t54 72.5h-12
l79 446h109l-79 -446q-30 -26 -53.5 -59.5z" />
    <glyph glyph-name="Idotaccent" unicode="&#x130;" horiz-adv-x="285" 
d="M163 680h118l-119 -680h-118zM200 778q-17 17 -17 43q0 28 20 49.5t50 21.5t46.5 -17t16.5 -44t-20.5 -48.5t-50.5 -21.5q-28 0 -45 17z" />
    <glyph glyph-name="dotlessi" unicode="&#x131;" horiz-adv-x="237" 
d="M103 446h109l-78 -446h-109z" />
    <glyph glyph-name="IJ" unicode="&#x132;" horiz-adv-x="783" 
d="M163 680h118l-119 -680h-118zM263 52l67 87q24 -22 55.5 -34.5t65.5 -12.5q61 0 96 33t46 101l80 454h117l-82 -470q-40 -223 -261 -223q-107 0 -184 65z" />
    <glyph glyph-name="ij" unicode="&#x133;" horiz-adv-x="485" 
d="M137.5 555q-16.5 17 -16.5 42q0 29 19 51t50 22q29 0 45.5 -17t16.5 -43q0 -29 -20 -50.5t-50 -21.5q-28 0 -44.5 17zM104 446h109l-79 -446h-109zM385.5 555q-16.5 17 -16.5 42q0 29 19 51t50 22q29 0 45.5 -17t16.5 -43q0 -29 -20 -50.5t-50 -21.5q-28 0 -44.5 17z
M124 -141q53 2 82 15.5t42.5 41t22.5 78.5l79 452h110l-82 -463q-14 -81 -42.5 -127.5t-79 -67t-133.5 -20.5z" />
    <glyph glyph-name="Jcircumflex" unicode="&#x134;" horiz-adv-x="498" 
d="M-22 52l67 87q24 -22 55.5 -34.5t65.5 -12.5q61 0 96 33t46 101l80 454h117l-82 -470q-40 -223 -261 -223q-107 0 -184 65zM313 790l159 110h18l123 -112l-46 -50l-97 68l-117 -68z" />
    <glyph glyph-name="jcircumflex" unicode="&#x135;" horiz-adv-x="247" 
d="M-113 -141q53 2 82 15.5t42.5 41t22.5 78.5l79 452h110l-82 -463q-14 -81 -42.5 -127.5t-79 -67t-133.5 -20.5zM46 565l152 106h18l118 -108l-44 -48l-93 67l-113 -67z" />
    <glyph glyph-name="uni0136" unicode="&#x136;" horiz-adv-x="612" 
d="M662 677l-336 -340l241 -334v-3h-133l-219 303l-53 -303h-118l119 680h118l-52 -298l296 298h137v-3zM224 -95h102q-29 -122 -89 -192h-75q43 93 62 192z" />
    <glyph glyph-name="uni0137" unicode="&#x137;" horiz-adv-x="467" 
d="M483 443l-214 -216l151 -224v-3h-118l-133 195l-34 -195h-110l127 720h109l-78 -445l169 171h131v-3zM151 -91h99q-30 -120 -87 -189h-73q43 97 61 189z" />
    <glyph glyph-name="kgreenlandic" unicode="&#x138;" horiz-adv-x="465" 
d="M482 441l-214 -214l151 -221v-6h-118l-132 195l-35 -195h-109l78 446h110l-30 -171l169 171h130v-5z" />
    <glyph glyph-name="Lacute" unicode="&#x139;" horiz-adv-x="521" 
d="M164 680h117l-100 -572h296l-19 -108h-414zM144 801l167 125l55 -82l-181 -100z" />
    <glyph glyph-name="lacute" unicode="&#x13a;" horiz-adv-x="237" 
d="M152 720h109l-127 -720h-109zM126 841l167 125l55 -82l-181 -100z" />
    <glyph glyph-name="uni013B" unicode="&#x13b;" horiz-adv-x="521" 
d="M164 680h117l-100 -572h296l-19 -108h-414zM185 -95h102q-29 -122 -89 -192h-75q43 93 62 192z" />
    <glyph glyph-name="uni013C" unicode="&#x13c;" horiz-adv-x="237" 
d="M152 720h109l-127 -720h-109zM15 -91h99q-30 -120 -87 -189h-73q43 97 61 189z" />
    <glyph glyph-name="Lcaron" unicode="&#x13d;" horiz-adv-x="521" 
d="M164 680h117l-100 -572h296l-19 -108h-414zM432 680h101q-26 -107 -86 -179h-75q42 92 60 179z" />
    <glyph glyph-name="lcaron" unicode="&#x13e;" horiz-adv-x="250" 
d="M152 720h109l-127 -720h-109zM325 720h103q-27 -113 -82 -184h-76q41 92 55 184z" />
    <glyph glyph-name="Ldot" unicode="&#x13f;" horiz-adv-x="521" 
d="M164 680h117l-100 -572h296l-19 -108h-414zM363.5 320.5q-17.5 16.5 -17.5 43.5q0 34 21.5 54t50.5 20q28 0 45.5 -16.5t17.5 -43.5q0 -34 -21 -54t-51 -20q-28 0 -45.5 16.5z" />
    <glyph glyph-name="ldot" unicode="&#x140;" horiz-adv-x="371" 
d="M152 720h109l-127 -720h-109zM263.5 300q-17.5 16 -17.5 44q0 33 21 52.5t50 19.5q27 0 45 -16t18 -42q0 -34 -21 -54t-51 -20q-27 0 -44.5 16z" />
    <glyph glyph-name="Lslash" unicode="&#x141;" horiz-adv-x="528" 
d="M483 108l-19 -108h-413l47 269l-55 -18l-21 84l93 30l55 315h117l-48 -275l135 44l20 -84l-172 -56l-35 -201h296z" />
    <glyph glyph-name="lslash" unicode="&#x142;" horiz-adv-x="297" 
d="M220 328l-57 -328h-110l51 290l-66 -22l-10 73l90 29l62 350h109l-55 -312l68 22l10 -72z" />
    <glyph glyph-name="Nacute" unicode="&#x143;" horiz-adv-x="750" 
d="M747 680l-121 -684h-35l-291 388l-17 22l-42 56q-7 -58 -16 -109l-63 -353h-118l120 684h35l292 -381l18 -24q36 -50 40 -56l15 93l65 364h118zM373 801l167 125l55 -82l-181 -100z" />
    <glyph glyph-name="nacute" unicode="&#x144;" horiz-adv-x="525" 
d="M446 424.5q35 -33.5 35 -97.5q0 -20 -5 -50l-49 -277h-109l48 272q2 9 2 25q0 63 -65 63q-51 0 -85 -36.5t-44 -94.5l-40 -229h-110l79 446h73l10 -72q30 38 71 61t90 23q64 0 99 -33.5zM221 575l159 119l51 -78l-171 -95z" />
    <glyph glyph-name="uni0145" unicode="&#x145;" horiz-adv-x="750" 
d="M747 680l-121 -684h-35l-291 388l-17 22l-42 56q-7 -58 -16 -109l-63 -353h-118l120 684h35l292 -381l18 -24q36 -50 40 -56l15 93l65 364h118zM285 -95h102q-29 -122 -89 -192h-75q43 93 62 192z" />
    <glyph glyph-name="uni0146" unicode="&#x146;" horiz-adv-x="525" 
d="M446 424.5q35 -33.5 35 -97.5q0 -20 -5 -50l-49 -277h-109l48 272q2 9 2 25q0 63 -65 63q-51 0 -85 -36.5t-44 -94.5l-40 -229h-110l79 446h73l10 -72q30 38 71 61t90 23q64 0 99 -33.5zM168 -91h99q-30 -120 -87 -189h-73q43 97 61 189z" />
    <glyph glyph-name="Ncaron" unicode="&#x147;" horiz-adv-x="750" 
d="M747 680l-121 -684h-35l-291 388l-17 22l-42 56q-7 -58 -16 -109l-63 -353h-118l120 684h35l292 -381l18 -24q36 -50 40 -56l15 93l65 364h118zM335 853l46 49l92 -69l118 69l42 -49l-159 -112h-18z" />
    <glyph glyph-name="ncaron" unicode="&#x148;" horiz-adv-x="525" 
d="M446 424.5q35 -33.5 35 -97.5q0 -20 -5 -50l-49 -277h-109l48 272q2 9 2 25q0 63 -65 63q-51 0 -85 -36.5t-44 -94.5l-40 -229h-110l79 446h73l10 -72q30 38 71 61t90 23q64 0 99 -33.5zM183 627l44 47l89 -67l115 67l40 -47l-154 -108h-17z" />
    <glyph glyph-name="napostrophe" unicode="&#x149;" horiz-adv-x="569" 
d="M80 650h102q-31 -122 -89 -192h-75q43 96 62 192zM147 446h88l-1 -70q27 38 67.5 60t89.5 22q64 0 99 -33.5t35 -97.5q0 -20 -5 -50l-49 -277h-109l48 272q2 18 2 24q0 64 -65 64q-50 0 -84.5 -37t-44.5 -94l-41 -229h-109z" />
    <glyph glyph-name="Eng" unicode="&#x14a;" horiz-adv-x="750" 
d="M748 680l-120 -680q-21 -114 -85 -169t-172 -57l-6 106q119 1 147 132l13 68l-227 309q-39 50 -57 75q-4 -43 -12 -86l-67 -378h-118l120 684h34l297 -386q40 -50 56 -75q5 42 14 92l64 365h119z" />
    <glyph glyph-name="eng" unicode="&#x14b;" horiz-adv-x="525" 
d="M446.5 424q34.5 -34 34.5 -98q0 -20 -5 -50l-59 -327q-15 -86 -64.5 -129t-127.5 -43l-8 99q41 0 64 23t31 71l54 306q2 16 2 22q0 29 -16 45.5t-47 16.5q-53 0 -87.5 -37t-43.5 -94l-40 -229h-110l79 446h73l10 -71q31 38 72 60.5t89 22.5q65 0 99.5 -34z" />
    <glyph glyph-name="Omacron" unicode="&#x14c;" horiz-adv-x="799" 
d="M207.5 23.5q-69.5 36.5 -107.5 102.5t-38 151q0 28 7 72q17 99 72 177t141.5 122.5t193.5 44.5q88 0 156.5 -37.5t107 -104t38.5 -152.5q0 -32 -6 -68q-17 -98 -72 -176t-140 -123t-189 -45q-94 0 -163.5 36.5zM506.5 125.5q58.5 31.5 97 87.5t50.5 126q4 23 4 50
q0 57 -23 101.5t-66 70t-102 25.5q-71 0 -130.5 -31.5t-98.5 -87t-52 -126.5q-5 -30 -5 -52q0 -87 52.5 -141t144.5 -54q70 0 128.5 31.5zM366 855h285l-16 -84h-284z" />
    <glyph glyph-name="omacron" unicode="&#x14d;" horiz-adv-x="553" 
d="M134 13q-47 25 -73 69.5t-26 102.5q0 25 4 46q12 67 48.5 118.5t94 80t129.5 28.5q62 0 109 -25t73 -70t26 -103q0 -25 -4 -45q-18 -103 -90.5 -165t-181.5 -62q-62 0 -109 25zM353.5 122.5q41.5 38.5 52.5 101.5q3 15 3 30q0 49 -28.5 78.5t-78.5 29.5
q-61 0 -102.5 -39.5t-51.5 -100.5q-3 -16 -3 -31q0 -48 28.5 -77.5t77.5 -29.5q61 0 102.5 38.5zM206 626h275l-15 -79h-274z" />
    <glyph glyph-name="Obreve" unicode="&#x14e;" horiz-adv-x="799" 
d="M207.5 23.5q-69.5 36.5 -107.5 102.5t-38 151q0 28 7 72q17 99 72 177t141.5 122.5t193.5 44.5q88 0 156.5 -37.5t107 -104t38.5 -152.5q0 -32 -6 -68q-17 -98 -72 -176t-140 -123t-189 -45q-94 0 -163.5 36.5zM506.5 125.5q58.5 31.5 97 87.5t50.5 126q4 23 4 50
q0 57 -23 101.5t-66 70t-102 25.5q-71 0 -130.5 -31.5t-98.5 -87t-52 -126.5q-5 -30 -5 -52q0 -87 52.5 -141t144.5 -54q70 0 128.5 31.5zM402 772q-37 30 -42 83l61 28q7 -30 25.5 -44.5t46.5 -14.5q34 0 59 16.5t36 42.5l62 -28q-16 -55 -60 -84t-97 -29q-54 0 -91 30z
" />
    <glyph glyph-name="obreve" unicode="&#x14f;" horiz-adv-x="553" 
d="M134 13q-47 25 -73 69.5t-26 102.5q0 25 4 46q12 67 48.5 118.5t94 80t129.5 28.5q62 0 109 -25t73 -70t26 -103q0 -25 -4 -45q-18 -103 -90.5 -165t-181.5 -62q-62 0 -109 25zM353.5 122.5q41.5 38.5 52.5 101.5q3 15 3 30q0 49 -28.5 78.5t-78.5 29.5
q-61 0 -102.5 -39.5t-51.5 -100.5q-3 -16 -3 -31q0 -48 28.5 -77.5t77.5 -29.5q61 0 102.5 38.5zM246.5 549q-35.5 29 -39.5 80l59 26q11 -57 69 -57q33 0 57.5 16t34.5 41l59 -26q-16 -54 -57.5 -81.5t-93.5 -27.5q-53 0 -88.5 29z" />
    <glyph glyph-name="Ohungarumlaut" unicode="&#x150;" horiz-adv-x="799" 
d="M207.5 23.5q-69.5 36.5 -107.5 102.5t-38 151q0 28 7 72q17 99 72 177t141.5 122.5t193.5 44.5q88 0 156.5 -37.5t107 -104t38.5 -152.5q0 -32 -6 -68q-17 -98 -72 -176t-140 -123t-189 -45q-94 0 -163.5 36.5zM506.5 125.5q58.5 31.5 97 87.5t50.5 126q4 23 4 50
q0 57 -23 101.5t-66 70t-102 25.5q-71 0 -130.5 -31.5t-98.5 -87t-52 -126.5q-5 -30 -5 -52q0 -87 52.5 -141t144.5 -54q70 0 128.5 31.5zM343 775l122 151l71 -48l-135 -141zM509 778l126 148l70 -52l-140 -137z" />
    <glyph glyph-name="ohungarumlaut" unicode="&#x151;" horiz-adv-x="553" 
d="M134 13q-47 25 -73 69.5t-26 102.5q0 25 4 46q12 67 48.5 118.5t94 80t129.5 28.5q62 0 109 -25t73 -70t26 -103q0 -25 -4 -45q-18 -103 -90.5 -165t-181.5 -62q-62 0 -109 25zM353.5 122.5q41.5 38.5 52.5 101.5q3 15 3 30q0 49 -28.5 78.5t-78.5 29.5
q-61 0 -102.5 -39.5t-51.5 -100.5q-3 -16 -3 -31q0 -48 28.5 -77.5t77.5 -29.5q61 0 102.5 38.5zM181 549l110 149l70 -47l-124 -139zM343 552l124 145l68 -50l-137 -135z" />
    <glyph glyph-name="OE" unicode="&#x152;" horiz-adv-x="920" 
d="M206.5 25.5q-67.5 38.5 -105 106.5t-37.5 154q0 33 6 69q17 97 74.5 174t143 120.5t183.5 43.5q55 0 100 -13h384l-18 -104h-277l-32 -176h244l-18 -103h-244l-33 -193h282l-18 -104h-388q-50 -13 -93 -13q-86 0 -153.5 38.5zM465 108l84 466q-36 14 -78 14
q-67 0 -128 -31.5t-103 -86t-53 -120.5q-5 -32 -5 -54q0 -60 24 -106.5t68.5 -72t102.5 -25.5q40 0 88 16z" />
    <glyph glyph-name="oe" unicode="&#x153;" horiz-adv-x="807" 
d="M484 166q9 -89 111 -89q59 0 116 33l33 -74q-35 -22 -78 -35t-88 -13q-55 0 -96 21.5t-64 62.5q-70 -84 -183 -84q-89 0 -144 53t-55 142q0 80 33.5 142.5t93 97.5t132.5 35q56 0 97.5 -23t63.5 -68q34 43 80.5 66.5t101.5 24.5q70 0 111.5 -36t41.5 -96
q0 -82 -72 -121.5t-177 -40.5q-26 -1 -58 2zM539 333.5q-36 -35.5 -50 -91.5q28 -2 45 -2q68 1 112.5 20t44.5 60q0 24 -18 36.5t-45 12.5q-53 0 -89 -35.5zM326.5 108.5q33.5 24.5 51.5 64t18 83.5q0 49 -24.5 77.5t-73.5 28.5q-45 0 -80 -24t-54 -63.5t-19 -83.5
q0 -52 28 -79.5t75 -27.5q45 0 78.5 24.5z" />
    <glyph glyph-name="Racute" unicode="&#x154;" horiz-adv-x="628" 
d="M558.5 337q-48.5 -48 -126.5 -67l131 -267v-3h-127l-122 259h-107l-46 -259h-117l120 680h262q56 0 101.5 -22t71 -63t25.5 -94q0 -23 -4 -42q-13 -74 -61.5 -122zM509 488q0 41 -28 66t-76 25h-142l-39 -222h133q59 0 100 29t50 81q2 14 2 21zM282 801l167 125l55 -82
l-181 -100z" />
    <glyph glyph-name="racute" unicode="&#x155;" horiz-adv-x="371" 
d="M401 437l-40 -92q-24 10 -55 10q-48 0 -84.5 -32.5t-48.5 -99.5l-39 -223h-109l78 446h74l10 -66q26 37 60.5 56t72.5 19q46 0 81 -18zM167 576l159 119l51 -78l-171 -95z" />
    <glyph glyph-name="uni0156" unicode="&#x156;" horiz-adv-x="628" 
d="M558.5 337q-48.5 -48 -126.5 -67l131 -267v-3h-127l-122 259h-107l-46 -259h-117l120 680h262q56 0 101.5 -22t71 -63t25.5 -94q0 -23 -4 -42q-13 -74 -61.5 -122zM509 488q0 41 -28 66t-76 25h-142l-39 -222h133q59 0 100 29t50 81q2 14 2 21zM233 -95h102
q-29 -122 -89 -192h-75q43 93 62 192z" />
    <glyph glyph-name="uni0157" unicode="&#x157;" horiz-adv-x="371" 
d="M401 437l-40 -92q-24 10 -55 10q-48 0 -84.5 -32.5t-48.5 -99.5l-39 -223h-109l78 446h74l10 -66q26 37 60.5 56t72.5 19q46 0 81 -18zM10 -91h99q-30 -120 -87 -189h-73q43 97 61 189z" />
    <glyph glyph-name="Rcaron" unicode="&#x158;" horiz-adv-x="628" 
d="M558.5 337q-48.5 -48 -126.5 -67l131 -267v-3h-127l-122 259h-107l-46 -259h-117l120 680h262q56 0 101.5 -22t71 -63t25.5 -94q0 -23 -4 -42q-13 -74 -61.5 -122zM509 488q0 41 -28 66t-76 25h-142l-39 -222h133q59 0 100 29t50 81q2 14 2 21zM244 853l46 49l92 -69
l118 69l42 -49l-159 -112h-18z" />
    <glyph glyph-name="rcaron" unicode="&#x159;" horiz-adv-x="371" 
d="M401 437l-40 -92q-24 10 -55 10q-48 0 -84.5 -32.5t-48.5 -99.5l-39 -223h-109l78 446h74l10 -66q26 37 60.5 56t72.5 19q46 0 81 -18zM129 628l44 47l89 -67l115 67l40 -47l-154 -108h-17z" />
    <glyph glyph-name="Sacute" unicode="&#x15a;" horiz-adv-x="573" 
d="M128 12.5q-64 25.5 -114 69.5l65 84q37 -35 85 -54t102 -19q59 0 99 27.5t40 69.5q0 35 -29 59t-95 54q-79 37 -122 81t-43 110q0 62 32 107t86.5 68t121.5 23q121 0 222 -77l-60 -81q-75 55 -159 55q-54 0 -89.5 -23t-35.5 -65q0 -35 28 -58.5t88 -51.5
q85 -39 130.5 -85t45.5 -111q0 -62 -34.5 -109t-94.5 -73t-134 -26q-71 0 -135 25.5zM283 801l167 125l55 -82l-181 -100z" />
    <glyph glyph-name="sacute" unicode="&#x15b;" horiz-adv-x="400" 
d="M74.5 4q-42.5 14 -73.5 38l46 76q24 -19 55 -29.5t61 -10.5q34 0 56.5 13.5t22.5 36.5q0 18 -15.5 32.5t-52.5 30.5q-53 24 -81 54t-28 75q0 61 46 97t118 36q83 0 151 -45l-42 -71q-51 30 -102 30q-31 0 -47.5 -11.5t-16.5 -30.5q0 -18 16 -31t51 -30q60 -27 86.5 -57.5
t26.5 -72.5q0 -68 -52 -106t-134 -38q-49 0 -91.5 14zM166 575l159 119l51 -78l-171 -95z" />
    <glyph glyph-name="Scircumflex" unicode="&#x15c;" horiz-adv-x="573" 
d="M128 12.5q-64 25.5 -114 69.5l65 84q37 -35 85 -54t102 -19q59 0 99 27.5t40 69.5q0 35 -29 59t-95 54q-79 37 -122 81t-43 110q0 62 32 107t86.5 68t121.5 23q121 0 222 -77l-60 -81q-75 55 -159 55q-54 0 -89.5 -23t-35.5 -65q0 -35 28 -58.5t88 -51.5
q85 -39 130.5 -85t45.5 -111q0 -62 -34.5 -109t-94.5 -73t-134 -26q-71 0 -135 25.5zM232 790l159 110h18l123 -112l-46 -50l-97 68l-117 -68z" />
    <glyph glyph-name="scircumflex" unicode="&#x15d;" horiz-adv-x="400" 
d="M74.5 4q-42.5 14 -73.5 38l46 76q24 -19 55 -29.5t61 -10.5q34 0 56.5 13.5t22.5 36.5q0 18 -15.5 32.5t-52.5 30.5q-53 24 -81 54t-28 75q0 61 46 97t118 36q83 0 151 -45l-42 -71q-51 30 -102 30q-31 0 -47.5 -11.5t-16.5 -30.5q0 -18 16 -31t51 -30q60 -27 86.5 -57.5
t26.5 -72.5q0 -68 -52 -106t-134 -38q-49 0 -91.5 14zM116 565l152 106h18l118 -108l-44 -48l-93 67l-113 -67z" />
    <glyph glyph-name="Scedilla" unicode="&#x15e;" horiz-adv-x="573" 
d="M480.5 306q45.5 -46 45.5 -111q0 -57 -29.5 -102t-81 -72t-117.5 -33l-26 -40q33 -4 55.5 -23.5t22.5 -51.5q0 -12 -5 -29q-13 -35 -47 -53.5t-83 -18.5q-67 0 -111 30l33 59q28 -20 65 -20q23 0 39.5 8.5t20.5 24.5q1 3 1 9q0 18 -24 25.5t-60 6.5l39 75q-58 7 -110 31
t-94 61l65 84q37 -35 85 -54t102 -19q59 0 99 27.5t40 69.5q0 35 -29 59t-95 54q-79 37 -122 81t-43 110q0 62 32 107t86.5 68t121.5 23q121 0 222 -77l-60 -81q-75 55 -159 55q-54 0 -89.5 -23t-35.5 -65q0 -35 28 -58.5t88 -51.5q85 -39 130.5 -85z" />
    <glyph glyph-name="scedilla" unicode="&#x15f;" horiz-adv-x="400" 
d="M325.5 206.5q26.5 -30.5 26.5 -72.5q0 -59 -40.5 -96t-107.5 -46l-27 -42q34 -5 55.5 -25t21.5 -50q0 -46 -36 -71t-92 -25q-63 0 -108 29l33 57q25 -19 64 -19q22 0 38 8t19 25q4 20 -20 29.5t-63 7.5l42 76q-78 9 -130 50l46 76q24 -19 55 -29.5t61 -10.5
q34 0 56.5 13.5t22.5 36.5q0 18 -15.5 32.5t-52.5 30.5q-53 24 -81 54t-28 75q0 61 46 97t118 36q83 0 151 -45l-42 -71q-51 30 -102 30q-31 0 -47.5 -11.5t-16.5 -30.5q0 -18 16 -31t51 -30q60 -27 86.5 -57.5z" />
    <glyph glyph-name="Scaron" unicode="&#x160;" horiz-adv-x="573" 
d="M128 12.5q-64 25.5 -114 69.5l65 84q37 -35 85 -54t102 -19q59 0 99 27.5t40 69.5q0 35 -29 59t-95 54q-79 37 -122 81t-43 110q0 62 32 107t86.5 68t121.5 23q121 0 222 -77l-60 -81q-75 55 -159 55q-54 0 -89.5 -23t-35.5 -65q0 -35 28 -58.5t88 -51.5
q85 -39 130.5 -85t45.5 -111q0 -62 -34.5 -109t-94.5 -73t-134 -26q-71 0 -135 25.5zM245 853l46 49l92 -69l118 69l42 -49l-159 -112h-18z" />
    <glyph glyph-name="scaron" unicode="&#x161;" horiz-adv-x="400" 
d="M74.5 4q-42.5 14 -73.5 38l46 76q24 -19 55 -29.5t61 -10.5q34 0 56.5 13.5t22.5 36.5q0 18 -15.5 32.5t-52.5 30.5q-53 24 -81 54t-28 75q0 61 46 97t118 36q83 0 151 -45l-42 -71q-51 30 -102 30q-31 0 -47.5 -11.5t-16.5 -30.5q0 -18 16 -31t51 -30q60 -27 86.5 -57.5
t26.5 -72.5q0 -68 -52 -106t-134 -38q-49 0 -91.5 14zM128 627l44 47l89 -67l115 67l40 -47l-154 -108h-17z" />
    <glyph glyph-name="uni0162" unicode="&#x162;" horiz-adv-x="542" 
d="M274 0l-33 -52q33 -4 56 -23.5t23 -50.5q0 -14 -6 -30q-13 -35 -47 -53.5t-83 -18.5q-67 0 -111 30l33 59q28 -20 65 -20q22 0 38.5 8.5t21.5 24.5q1 3 1 9q0 18 -24 25.5t-60 6.5l45 85h-20l101 572h-193l19 108h503l-19 -108h-193l-100 -572h-17z" />
    <glyph glyph-name="uni0163" unicode="&#x163;" horiz-adv-x="371" 
d="M193 145q-2 -14 -2 -19q0 -36 40 -36q34 0 74 24l27 -86q-52 -32 -111 -37l-25 -40q34 -5 55.5 -25t21.5 -50q0 -46 -36 -71t-92 -25q-63 0 -108 29l33 57q25 -19 64 -19q22 0 38 8t19 25q4 20 -20 29.5t-63 7.5l45 80q-35 11 -54.5 38t-19.5 69q0 17 3 36l37 214l-81 5
l15 87h82l28 143h107l-25 -143h138l-16 -92h-138z" />
    <glyph glyph-name="Tcaron" unicode="&#x164;" horiz-adv-x="542" 
d="M584 572h-193l-100 -572h-118l101 572h-193l19 108h503zM234 853l46 49l92 -69l118 69l42 -49l-159 -112h-18z" />
    <glyph glyph-name="tcaron" unicode="&#x165;" horiz-adv-x="376" 
d="M369 685h96q-26 -108 -78 -172h-72q40 90 54 172zM108 19.5q-33 29.5 -33 84.5q0 17 3 36l37 214l-77 5l15 87h78l28 143h107l-25 -143h138l-17 -92h-137l-37 -209q-2 -12 -2 -17q0 -38 41 -38q35 0 73 24l28 -86q-61 -38 -132 -38q-55 0 -88 29.5z" />
    <glyph glyph-name="Tbar" unicode="&#x166;" horiz-adv-x="542" 
d="M391 572l-37 -208h119l-14 -81h-119l-50 -283h-117l50 283h-120l14 81h120l37 208h-193l19 108h503l-19 -108h-193z" />
    <glyph glyph-name="tbar" unicode="&#x167;" horiz-adv-x="367" 
d="M225 359l-17 -98h102l-12 -64h-100l-10 -56q-2 -14 -2 -19q0 -36 37 -36q38 0 78 24l27 -83q-61 -37 -133 -37q-55 0 -87.5 29t-32.5 85q0 18 3 37l10 56h-45l11 64h44l17 98l-76 6l14 81h78l28 144h107l-26 -144h139l-16 -87h-138z" />
    <glyph glyph-name="Utilde" unicode="&#x168;" horiz-adv-x="692" 
d="M187 12q-54 25 -84.5 71.5t-30.5 108.5q0 24 4 44l78 444h118l-78 -444q-3 -18 -3 -33q0 -53 34.5 -81t94.5 -28q78 0 125 40t59 111l77 435h118l-80 -452q-20 -118 -99 -179.5t-210 -61.5q-69 0 -123 25zM286 803q34 79 99 79q29 0 65 -17q28 -13 44 -13q14 0 25 8.5
t23 27.5l63 -44q-39 -77 -99 -77q-28 0 -60 16q-32 14 -47 14q-29 0 -50 -37z" />
    <glyph glyph-name="utilde" unicode="&#x169;" horiz-adv-x="523" 
d="M499 446l-79 -446h-76l-9 67q-28 -36 -67.5 -56t-86.5 -20q-63 0 -99.5 36.5t-36.5 99.5q0 22 4 41l49 278h109l-48 -274q-2 -14 -2 -21q0 -28 16 -45t47 -17q52 0 85.5 36t43.5 94l40 227h110zM175 573q32 75 91 75q25 0 61 -16q28 -11 39 -11q12 0 22.5 7.5t21.5 24.5
l56 -38q-35 -72 -89 -72q-23 0 -57 16q-28 12 -42 12t-25 -8t-22 -26z" />
    <glyph glyph-name="Umacron" unicode="&#x16a;" horiz-adv-x="692" 
d="M187 12q-54 25 -84.5 71.5t-30.5 108.5q0 24 4 44l78 444h118l-78 -444q-3 -18 -3 -33q0 -53 34.5 -81t94.5 -28q78 0 125 40t59 111l77 435h118l-80 -452q-20 -118 -99 -179.5t-210 -61.5q-69 0 -123 25zM310 855h285l-16 -84h-284z" />
    <glyph glyph-name="umacron" unicode="&#x16b;" horiz-adv-x="523" 
d="M499 446l-79 -446h-76l-9 67q-28 -36 -67.5 -56t-86.5 -20q-63 0 -99.5 36.5t-36.5 99.5q0 22 4 41l49 278h109l-48 -274q-2 -14 -2 -21q0 -28 16 -45t47 -17q52 0 85.5 36t43.5 94l40 227h110zM190 626h275l-15 -79h-274z" />
    <glyph glyph-name="Ubreve" unicode="&#x16c;" horiz-adv-x="692" 
d="M187 12q-54 25 -84.5 71.5t-30.5 108.5q0 24 4 44l78 444h118l-78 -444q-3 -18 -3 -33q0 -53 34.5 -81t94.5 -28q78 0 125 40t59 111l77 435h118l-80 -452q-20 -118 -99 -179.5t-210 -61.5q-69 0 -123 25zM345 772q-37 30 -42 83l61 28q7 -30 25.5 -44.5t46.5 -14.5
q34 0 59 16.5t36 42.5l62 -28q-16 -55 -60 -84t-97 -29q-54 0 -91 30z" />
    <glyph glyph-name="ubreve" unicode="&#x16d;" horiz-adv-x="523" 
d="M499 446l-79 -446h-76l-9 67q-28 -36 -67.5 -56t-86.5 -20q-63 0 -99.5 36.5t-36.5 99.5q0 22 4 41l49 278h109l-48 -274q-2 -14 -2 -21q0 -28 16 -45t47 -17q52 0 85.5 36t43.5 94l40 227h110zM230.5 549q-35.5 29 -39.5 80l59 26q11 -57 69 -57q33 0 57.5 16t34.5 41
l59 -26q-16 -54 -57.5 -81.5t-93.5 -27.5q-53 0 -88.5 29z" />
    <glyph glyph-name="Uring" unicode="&#x16e;" horiz-adv-x="692" 
d="M187 12q-54 25 -84.5 71.5t-30.5 108.5q0 24 4 44l78 444h118l-78 -444q-3 -18 -3 -33q0 -53 34.5 -81t94.5 -28q78 0 125 40t59 111l77 435h118l-80 -452q-20 -118 -99 -179.5t-210 -61.5q-69 0 -123 25zM361.5 748.5q-29.5 26.5 -29.5 68.5q0 52 37.5 87t91.5 35
q46 0 75.5 -27t29.5 -70q0 -51 -37 -85.5t-91 -34.5q-47 0 -76.5 26.5zM482.5 799.5q16.5 16.5 16.5 40.5q0 17 -11.5 28t-30.5 11q-24 0 -41 -16t-17 -40q0 -18 11.5 -29t30.5 -11q25 0 41.5 16.5z" />
    <glyph glyph-name="uring" unicode="&#x16f;" horiz-adv-x="523" 
d="M499 446l-79 -446h-76l-9 67q-28 -36 -67.5 -56t-86.5 -20q-63 0 -99.5 36.5t-36.5 99.5q0 22 4 41l49 278h109l-48 -274q-2 -14 -2 -21q0 -28 16 -45t47 -17q52 0 85.5 36t43.5 94l40 227h110zM241 525.5q-28 25.5 -28 66.5q0 49 36 82t86 33q44 0 72 -26t28 -66
q0 -49 -35.5 -82t-86.5 -33q-44 0 -72 25.5zM352.5 570q15.5 13 19.5 34q3 20 -8.5 33.5t-31.5 13.5q-24 0 -40 -16t-16 -39q0 -17 11 -28t29 -11q21 0 36.5 13z" />
    <glyph glyph-name="Uhungarumlaut" unicode="&#x170;" horiz-adv-x="692" 
d="M187 12q-54 25 -84.5 71.5t-30.5 108.5q0 24 4 44l78 444h118l-78 -444q-3 -18 -3 -33q0 -53 34.5 -81t94.5 -28q78 0 125 40t59 111l77 435h118l-80 -452q-20 -118 -99 -179.5t-210 -61.5q-69 0 -123 25zM286 775l122 151l71 -48l-135 -141zM452 778l126 148l70 -52
l-140 -137z" />
    <glyph glyph-name="uhungarumlaut" unicode="&#x171;" horiz-adv-x="523" 
d="M499 446l-79 -446h-76l-9 67q-28 -36 -67.5 -56t-86.5 -20q-63 0 -99.5 36.5t-36.5 99.5q0 22 4 41l49 278h109l-48 -274q-2 -14 -2 -21q0 -28 16 -45t47 -17q52 0 85.5 36t43.5 94l40 227h110zM165 549l110 149l70 -47l-124 -139zM327 552l124 145l68 -50l-137 -135z
" />
    <glyph glyph-name="Uogonek" unicode="&#x172;" horiz-adv-x="692" 
d="M699 680l-80 -452q-23 -131 -115 -191q-54 -35 -95 -76.5t-46 -71.5q-3 -28 28 -28q23 0 46 16l16 -79q-43 -26 -96 -26q-48 0 -74 22t-26 59q0 66 72 134h-17q-69 0 -123.5 25t-85.5 71t-31 108q0 24 4 45l78 444h118l-78 -444q-3 -18 -3 -33q0 -53 34.5 -81t94.5 -28
q78 0 125 40t59 111l77 435h118z" />
    <glyph glyph-name="uogonek" unicode="&#x173;" horiz-adv-x="523" 
d="M349.5 -60.5q-27.5 -30.5 -27.5 -52.5q0 -23 24 -23q22 0 42 13l16 -71q-40 -26 -91 -26q-41 0 -64 21t-23 55q0 9 1 14q4 37 33 72.5t82 73.5l-7 51q-28 -36 -67.5 -56t-86.5 -20q-63 0 -99.5 36.5t-36.5 99.5q0 22 4 41l49 278h109l-48 -274q-2 -14 -2 -21
q0 -28 16 -45t47 -17q52 0 85.5 36t43.5 94l40 227h110l-79 -446q-43 -30 -70.5 -60.5z" />
    <glyph glyph-name="Wcircumflex" unicode="&#x174;" horiz-adv-x="966" 
d="M1032 680v-2l-360 -682h-34l-98 346q-17 63 -21 84q-19 -35 -50 -83l-220 -347h-35l-119 682v2h117l61 -361l12 -81q30 49 50 80l204 322h28l88 -317q11 -37 22 -81q12 25 41 81l187 357h127zM432 790l159 110h18l123 -112l-46 -50l-97 68l-117 -68z" />
    <glyph glyph-name="wcircumflex" unicode="&#x175;" horiz-adv-x="685" 
d="M711 446v-3l-251 -447h-33l-80 247l-167 -247h-34l-94 447v3h109l43 -215l6 -39l24 37l128 192h23l61 -193l11 -33q3 8 17 33l118 218h119zM256 565l152 106h18l118 -108l-44 -48l-93 67l-113 -67z" />
    <glyph glyph-name="Ycircumflex" unicode="&#x176;" horiz-adv-x="647" 
d="M279 302l-184 378h122l99 -204l9 -20q16 -36 23 -55q24 37 57 74l172 205h136l-317 -378l-53 -302h-118zM265 790l159 110h18l123 -112l-46 -50l-97 68l-117 -68z" />
    <glyph glyph-name="ycircumflex" unicode="&#x177;" horiz-adv-x="490" 
d="M520 446v-3l-374 -663h-118v2l142 239l-122 422v3h111l66 -249q8 -34 12 -57q10 23 28 57l134 249h121zM151 565l152 106h18l118 -108l-44 -48l-93 67l-113 -67z" />
    <glyph glyph-name="Ydieresis" unicode="&#x178;" horiz-adv-x="647" 
d="M279 302l-184 378h122l99 -204l9 -20q16 -36 23 -55q24 37 57 74l172 205h136l-317 -378l-53 -302h-118zM278.5 782q-16.5 17 -16.5 40q0 7 1 11q5 22 22 37.5t41 15.5q26 0 42 -16.5t16 -40.5t-18 -44t-45 -20q-26 0 -42.5 17zM475.5 782q-15.5 17 -15.5 41q0 7 1 11
q3 21 21 36.5t41 15.5q26 0 41.5 -16.5t15.5 -39.5q0 -25 -17.5 -45t-44.5 -20t-42.5 17z" />
    <glyph glyph-name="Zacute" unicode="&#x179;" horiz-adv-x="564" 
d="M215 143q-5 -8 -29 -36q16 1 49 1h282l-19 -108h-504l4 35l390 505q12 16 27 33q-14 -1 -42 -1h-266l19 108h483l-5 -35zM285 801l167 125l55 -82l-181 -100z" />
    <glyph glyph-name="zacute" unicode="&#x17a;" horiz-adv-x="421" 
d="M197 130l-31 -37q20 1 50 1h150l-16 -94h-355l5 31l226 289q10 14 26 33q-16 -1 -43 -1h-145l17 94h343l-5 -31zM181 575l159 119l51 -78l-171 -95z" />
    <glyph glyph-name="Zdotaccent" unicode="&#x17b;" horiz-adv-x="564" 
d="M215 143q-5 -8 -29 -36q16 1 49 1h282l-19 -108h-504l4 35l390 505q12 16 27 33q-14 -1 -42 -1h-266l19 108h483l-5 -35zM343 778q-17 17 -17 43q0 28 20 49.5t50 21.5t46.5 -17t16.5 -44t-20.5 -48.5t-50.5 -21.5q-28 0 -45 17z" />
    <glyph glyph-name="zdotaccent" unicode="&#x17c;" horiz-adv-x="421" 
d="M197 130l-31 -37q20 1 50 1h150l-16 -94h-355l5 31l226 289q10 14 26 33q-16 -1 -43 -1h-145l17 94h343l-5 -31zM234 553.5q-16 16.5 -16 41.5q0 27 19 48t48 21q28 0 44 -17t16 -43q0 -27 -19 -47t-49 -20q-27 0 -43 16.5z" />
    <glyph glyph-name="Zcaron" unicode="&#x17d;" horiz-adv-x="564" 
d="M215 143q-5 -8 -29 -36q16 1 49 1h282l-19 -108h-504l4 35l390 505q12 16 27 33q-14 -1 -42 -1h-266l19 108h483l-5 -35zM247 853l46 49l92 -69l118 69l42 -49l-159 -112h-18z" />
    <glyph glyph-name="zcaron" unicode="&#x17e;" horiz-adv-x="421" 
d="M197 130l-31 -37q20 1 50 1h150l-16 -94h-355l5 31l226 289q10 14 26 33q-16 -1 -43 -1h-145l17 94h343l-5 -31zM143 627l44 47l89 -67l115 67l40 -47l-154 -108h-17z" />
    <glyph glyph-name="florin" unicode="&#x192;" horiz-adv-x="484" 
d="M517 661.5q30 -11.5 53 -30.5l-55 -84q-19 19 -53 19q-37 0 -63.5 -24t-39.5 -71l-19 -71h121l-29 -102h-120l-80 -292q-27 -96 -79.5 -137t-126.5 -41q-66 0 -117 42l55 85q25 -20 57 -20q35 0 60.5 24t38.5 71l73 268l-109 3l27 99h110l26 95q25 92 79 135t128 43
q33 0 63 -11.5z" />
    <glyph glyph-name="AEacute" unicode="&#x1fc;" horiz-adv-x="885" 
d="M616 576l-32 -180h248l-17 -99h-248l-34 -193h292l-18 -104h-403l22 125h-234l-103 -125h-135v3l566 677h397l-18 -104h-283zM496 504q-26 -37 -69 -90l-163 -198h178l32 182q8 46 22 106zM568 801l167 125l55 -82l-181 -100z" />
    <glyph glyph-name="aeacute" unicode="&#x1fd;" horiz-adv-x="827" 
d="M733 208.5q-74 -45.5 -194 -45.5q-15 0 -49 2q6 -43 34.5 -66t78.5 -23q39 0 69.5 8.5t62.5 26.5l32 -70q-81 -52 -174 -52q-48 0 -84.5 19t-55.5 54l-18 -62h-74l3 57q-34 -33 -76 -50.5t-85 -17.5q-76 0 -121.5 48.5t-45.5 134.5q0 81 31.5 146.5t87.5 102.5t125 37
q95 0 140 -71l20 59h72l-1 -57q61 67 157 67q64 0 101.5 -33.5t37.5 -87.5q0 -81 -74 -126.5zM538 239q75 0 122 21t48 60q0 50 -63 50q-56 0 -96 -35.5t-54 -93.5q30 -2 43 -2zM320.5 107q33.5 23 52 62t18.5 86q0 50 -25.5 78.5t-72.5 28.5q-42 0 -75.5 -22t-52.5 -61.5
t-19 -88.5t26 -77.5t73 -28.5q42 0 75.5 23zM399 575l159 119l51 -78l-171 -95z" />
    <glyph glyph-name="Oslashacute" unicode="&#x1fe;" horiz-adv-x="799" 
d="M755.5 518.5q22.5 -54.5 22.5 -119.5q0 -32 -6 -68q-17 -97 -72 -175t-140 -123t-189 -45q-107 0 -183 48l-83 -94l-55 44l83 95q-70 76 -70 197q0 34 6 71q17 99 72 177t141.5 122t193.5 44q90 0 158 -38l78 89l56 -43l-77 -87q42 -40 64.5 -94.5zM180 289
q0 -70 34 -119l346 396q-40 20 -93 20q-71 0 -130.5 -31.5t-99 -87t-52.5 -126.5q-5 -30 -5 -52zM659 389q0 84 -47 137l-350 -402q49 -30 116 -30q71 0 129.5 31.5t97 87.5t50.5 126q4 23 4 50zM395 801l167 125l55 -82l-181 -100z" />
    <glyph glyph-name="oslashacute" unicode="&#x1ff;" horiz-adv-x="553" 
d="M504.5 341q14.5 -36 14.5 -79q0 -26 -4 -47q-18 -102 -91 -164.5t-181 -62.5q-62 0 -113 27l-45 -53l-37 30l44 51q-57 54 -57 141q0 26 4 47q12 66 48.5 117.5t94.5 80.5t130 29q63 0 112 -27l43 50l39 -28l-43 -50q27 -26 41.5 -62zM144 191q0 -38 19 -67l194 226
q-23 12 -54 12q-60 0 -102.5 -39.5t-53.5 -100.5q-3 -16 -3 -31zM409 253q0 42 -19 68l-194 -226q24 -12 55 -12q60 0 102 38.5t54 102.5q2 10 2 29zM236 575l159 119l51 -78l-171 -95z" />
    <glyph glyph-name="uni0218" unicode="&#x218;" horiz-adv-x="573" 
d="M128 12.5q-64 25.5 -114 69.5l65 84q37 -35 85 -54t102 -19q59 0 99 27.5t40 69.5q0 35 -29 59t-95 54q-79 37 -122 81t-43 110q0 62 32 107t86.5 68t121.5 23q121 0 222 -77l-60 -81q-75 55 -159 55q-54 0 -89.5 -23t-35.5 -65q0 -35 28 -58.5t88 -51.5
q85 -39 130.5 -85t45.5 -111q0 -62 -34.5 -109t-94.5 -73t-134 -26q-71 0 -135 25.5zM195 -95h102q-29 -122 -89 -192h-75q43 93 62 192z" />
    <glyph glyph-name="uni0219" unicode="&#x219;" horiz-adv-x="400" 
d="M74.5 4q-42.5 14 -73.5 38l46 76q24 -19 55 -29.5t61 -10.5q34 0 56.5 13.5t22.5 36.5q0 18 -15.5 32.5t-52.5 30.5q-53 24 -81 54t-28 75q0 61 46 97t118 36q83 0 151 -45l-42 -71q-51 30 -102 30q-31 0 -47.5 -11.5t-16.5 -30.5q0 -18 16 -31t51 -30q60 -27 86.5 -57.5
t26.5 -72.5q0 -68 -52 -106t-134 -38q-49 0 -91.5 14zM104 -91h99q-30 -120 -87 -189h-73q43 97 61 189z" />
    <glyph glyph-name="uni021A" unicode="&#x21a;" horiz-adv-x="542" 
d="M584 572h-193l-100 -572h-118l101 572h-193l19 108h503zM171 -95h102q-29 -122 -89 -192h-75q43 93 62 192z" />
    <glyph glyph-name="uni021B" unicode="&#x21b;" horiz-adv-x="371" 
d="M112.5 19.5q-33.5 29.5 -33.5 84.5q0 17 3 36l37 214l-81 5l15 87h82l28 143h107l-25 -143h138l-16 -92h-138l-36 -209q-2 -14 -2 -19q0 -36 40 -36q34 0 74 24l27 -86q-61 -38 -131 -38q-55 0 -88.5 29.5zM123 -90h99q-30 -120 -87 -189h-73q43 97 61 189z" />
    <glyph glyph-name="uni0237" unicode="&#x237;" horiz-adv-x="247" 
d="M-113 -141q53 2 82 15.5t42.5 41t22.5 78.5l79 452h110l-82 -463q-14 -81 -42.5 -127.5t-79 -67t-133.5 -20.5z" />
    <glyph glyph-name="circumflex" unicode="&#x2c6;" horiz-adv-x="412" 
d="M124 565l152 106h18l118 -108l-44 -48l-93 67l-113 -67z" />
    <glyph glyph-name="caron" unicode="&#x2c7;" horiz-adv-x="411" 
d="M135 627l44 47l89 -67l115 67l40 -47l-154 -108h-17z" />
    <glyph glyph-name="breve" unicode="&#x2d8;" horiz-adv-x="399" 
d="M171.5 549q-35.5 29 -39.5 80l59 26q11 -57 69 -57q33 0 57.5 16t34.5 41l59 -26q-16 -54 -57.5 -81.5t-93.5 -27.5q-53 0 -88.5 29z" />
    <glyph glyph-name="dotaccent" unicode="&#x2d9;" horiz-adv-x="233" 
d="M135 553.5q-16 16.5 -16 41.5q0 27 19 48t48 21q28 0 44 -17t16 -43q0 -27 -19 -47t-49 -20q-27 0 -43 16.5z" />
    <glyph glyph-name="ring" unicode="&#x2da;" horiz-adv-x="315" 
d="M143 525.5q-28 25.5 -28 66.5q0 49 36 82t86 33q44 0 72 -26t28 -66q0 -49 -35.5 -82t-86.5 -33q-44 0 -72 25.5zM254.5 570q15.5 13 19.5 34q3 20 -8.5 33.5t-31.5 13.5q-24 0 -40 -16t-16 -39q0 -17 11 -28t29 -11q21 0 36.5 13z" />
    <glyph glyph-name="ogonek" unicode="&#x2db;" horiz-adv-x="265" 
d="M1 -199q-23 21 -23 55q0 85 137 174l57 -30q-43 -29 -70.5 -60t-27.5 -53q0 -23 24 -23q22 0 42 13l16 -71q-40 -26 -91 -26q-41 0 -64 21z" />
    <glyph glyph-name="tilde" unicode="&#x2dc;" horiz-adv-x="407" 
d="M124 573q32 75 91 75q25 0 61 -16q28 -11 39 -11q12 0 22.5 7.5t21.5 24.5l56 -38q-35 -72 -89 -72q-23 0 -57 16q-28 12 -42 12t-25 -8t-22 -26z" />
    <glyph glyph-name="hungarumlaut" unicode="&#x2dd;" horiz-adv-x="419" 
d="M104 549l110 149l70 -47l-124 -139zM266 552l124 145l68 -50l-137 -135z" />
    <glyph glyph-name="gravecomb" unicode="&#x300;" 
d="M-177 622l69 70l124 -124l-49 -47z" />
    <glyph glyph-name="acutecomb" unicode="&#x301;" 
d="M-194 575l159 119l51 -78l-171 -95z" />
    <glyph glyph-name="uni0302" unicode="&#x302;" 
d="M-289 565l152 106h18l118 -108l-44 -48l-93 67l-113 -67z" />
    <glyph glyph-name="tildecomb" unicode="&#x303;" 
d="M-284 573q32 75 91 75q25 0 61 -16q28 -11 39 -11q12 0 22.5 7.5t21.5 24.5l56 -38q-35 -72 -89 -72q-23 0 -57 16q-28 12 -42 12t-25 -8t-22 -26z" />
    <glyph glyph-name="uni0304" unicode="&#x304;" 
d="M-270 626h275l-15 -79h-274z" />
    <glyph glyph-name="uni0306" unicode="&#x306;" 
d="M-229.5 549q-35.5 29 -39.5 80l59 26q11 -57 69 -57q33 0 57.5 16t34.5 41l59 -26q-16 -54 -57.5 -81.5t-93.5 -27.5q-53 0 -88.5 29z" />
    <glyph glyph-name="uni0307" unicode="&#x307;" 
d="M-100 553.5q-16 16.5 -16 41.5q0 27 19 48t48 21q28 0 44 -17t16 -43q0 -27 -19 -47t-49 -20q-27 0 -43 16.5z" />
    <glyph glyph-name="uni0308" unicode="&#x308;" 
d="M-294.5 559q-15.5 16 -15.5 39t18 42.5t44 19.5t41 -16t15 -39q0 -25 -17 -43.5t-44 -18.5q-26 0 -41.5 16zM-100.5 559q-15.5 16 -15.5 39l1 11q3 20 20 35.5t40 15.5q26 0 41 -16t15 -39q0 -24 -17.5 -43t-43.5 -19q-25 0 -40.5 16z" />
    <glyph glyph-name="uni030A" unicode="&#x30a;" 
d="M-174 525.5q-28 25.5 -28 66.5q0 49 36 82t86 33q44 0 72 -26t28 -66q0 -49 -35.5 -82t-86.5 -33q-44 0 -72 25.5zM-62.5 570q15.5 13 19.5 34q3 20 -8.5 33.5t-31.5 13.5q-24 0 -40 -16t-16 -39q0 -17 11 -28t29 -11q21 0 36.5 13z" />
    <glyph glyph-name="uni030B" unicode="&#x30b;" 
d="M-316 549l110 149l70 -47l-124 -139zM-154 552l124 145l68 -50l-137 -135z" />
    <glyph glyph-name="uni030C" unicode="&#x30c;" 
d="M-278 627l44 47l89 -67l115 67l40 -47l-154 -108h-17z" />
    <glyph glyph-name="uni0312" unicode="&#x312;" 
d="M-35 718h73q-44 -99 -61 -188h-100q29 119 88 188z" />
    <glyph glyph-name="uni0326" unicode="&#x326;" 
d="M-204 -91h99q-30 -120 -87 -189h-73q43 97 61 189z" />
    <glyph glyph-name="uni0327" unicode="&#x327;" 
d="M-353 -192l33 57q25 -19 64 -19q22 0 38 8t19 25q4 20 -20 29.5t-63 7.5l48 86h73l-33 -52q34 -5 55.5 -25t21.5 -50q0 -46 -36 -71t-92 -25q-63 0 -108 29z" />
    <glyph glyph-name="uni0328" unicode="&#x328;" 
d="M-265 -199q-23 21 -23 55q0 85 137 174l57 -30q-43 -29 -70.5 -60t-27.5 -53q0 -23 24 -23q22 0 42 13l16 -71q-40 -26 -91 -26q-41 0 -64 21z" />
    <glyph glyph-name="pi" unicode="&#x3c0;" horiz-adv-x="594" 
d="M597 352h-79l-63 -355h-106l63 355h-181l-62 -355h-106l62 355h-79l17 94h551z" />
    <glyph glyph-name="uni0400" unicode="&#x400;" horiz-adv-x="560" 
d="M264 576l-32 -181h273l-17 -99h-274l-34 -192h320l-18 -104h-438l120 680h431l-18 -104h-313zM276 851l72 73l129 -129l-51 -49z" />
    <glyph glyph-name="uni0401" unicode="&#x401;" horiz-adv-x="560" 
d="M264 576l-32 -181h273l-17 -99h-274l-34 -192h320l-18 -104h-438l120 680h431l-18 -104h-313zM256.5 782q-16.5 17 -16.5 40q0 7 1 11q5 22 22 37.5t41 15.5q26 0 42 -16.5t16 -40.5t-18 -44t-45 -20q-26 0 -42.5 17zM453.5 782q-15.5 17 -15.5 41q0 7 1 11q3 21 21 36.5
t41 15.5q26 0 41.5 -16.5t15.5 -39.5q0 -25 -17.5 -45t-44.5 -20t-42.5 17z" />
    <glyph glyph-name="uni0402" unicode="&#x402;" horiz-adv-x="687" 
d="M603 375.5q44 -44.5 44 -122.5q0 -23 -5 -55q-16 -89 -72.5 -140t-141.5 -67l-8 99q95 27 110 121q2 10 2 28q0 82 -93 82q-51 0 -105 -18l-53 -303h-118l101 572h-183l19 108h513l-19 -108h-213l-30 -170q61 18 123 18q85 0 129 -44.5z" />
    <glyph glyph-name="uni0403" unicode="&#x403;" horiz-adv-x="531" 
d="M164 680h430l-19 -108h-313l-100 -572h-118zM298 801l167 125l55 -82l-181 -100z" />
    <glyph glyph-name="uni0404" unicode="&#x404;" horiz-adv-x="695" 
d="M489 120q50 25 102 77l64 -78q-63 -66 -137.5 -98.5t-152.5 -32.5q-92 0 -160.5 38t-105 104t-36.5 150q0 35 6 71q17 98 72.5 175.5t140.5 121.5t186 44q154 0 251 -106l-72 -76q-36 40 -79 58t-102 18q-91 0 -163.5 -53.5t-103.5 -141.5h277l-18 -102h-276
q0 -85 51 -139.5t142 -54.5q64 0 114 25z" />
    <glyph glyph-name="uni0405" unicode="&#x405;" horiz-adv-x="573" 
d="M128 12.5q-64 25.5 -114 69.5l65 84q37 -35 85 -54t102 -19q59 0 99 27.5t40 69.5q0 35 -29 59t-95 54q-79 37 -122 81t-43 110q0 62 32 107t86.5 68t121.5 23q121 0 222 -77l-60 -81q-75 55 -159 55q-54 0 -89.5 -23t-35.5 -65q0 -35 28 -58.5t88 -51.5
q85 -39 130.5 -85t45.5 -111q0 -62 -34.5 -109t-94.5 -73t-134 -26q-71 0 -135 25.5z" />
    <glyph glyph-name="uni0406" unicode="&#x406;" horiz-adv-x="285" 
d="M163 680h118l-119 -680h-118z" />
    <glyph glyph-name="uni0407" unicode="&#x407;" horiz-adv-x="285" 
d="M163 680h118l-119 -680h-118zM104.5 782q-16.5 17 -16.5 40q0 7 1 11q5 22 22 37.5t41 15.5q26 0 42 -16.5t16 -40.5t-18 -44t-45 -20q-26 0 -42.5 17zM301.5 782q-15.5 17 -15.5 41q0 7 1 11q3 21 21 36.5t41 15.5q26 0 41.5 -16.5t15.5 -39.5q0 -25 -17.5 -45
t-44.5 -20t-42.5 17z" />
    <glyph glyph-name="uni0408" unicode="&#x408;" horiz-adv-x="498" 
d="M-22 52l67 87q24 -22 55.5 -34.5t65.5 -12.5q61 0 96 33t46 101l80 454h117l-82 -470q-40 -223 -261 -223q-107 0 -184 65z" />
    <glyph glyph-name="uni0409" unicode="&#x409;" horiz-adv-x="994" 
d="M913 370.5q54 -48.5 54 -128.5q0 -23 -4 -43q-17 -91 -83.5 -145t-169.5 -54h-255l101 572h-192l-75 -267q-33 -115 -75.5 -182.5t-95.5 -97t-122 -32.5l-12 100q70 5 116.5 70t86.5 205l91 312h415l-46 -261h126q86 0 140 -48.5zM851 234q0 39 -27 61t-76 22h-119
l-38 -215h119q56 0 92.5 28.5t45.5 78.5q3 14 3 25z" />
    <glyph glyph-name="uni040A" unicode="&#x40a;" horiz-adv-x="998" 
d="M877.5 397q43.5 -23 68.5 -64t25 -93q0 -18 -3 -38q-16 -91 -83 -146.5t-168 -55.5h-258l56 315h-298l-56 -315h-117l120 680h117l-46 -260h298l46 260h118l-46 -260h130q53 0 96.5 -23zM855 231q0 38 -26 62.5t-70 24.5h-126l-38 -216h122q51 0 89 30t47 79q2 14 2 20z
" />
    <glyph glyph-name="uni040B" unicode="&#x40b;" horiz-adv-x="700" 
d="M597 378q48 -41 48 -112q0 -17 -3 -35l-41 -231h-117l41 235q1 6 1 16q0 66 -88 66q-51 0 -105 -18l-52 -299h-117l100 572h-183l19 108h513l-19 -108h-213l-30 -170q62 17 125 17q73 0 121 -41z" />
    <glyph glyph-name="uni040C" unicode="&#x40c;" horiz-adv-x="612" 
d="M662 677l-336 -340l241 -334v-3h-133l-219 303l-53 -303h-118l119 680h118l-52 -298l296 298h137v-3zM356 797l167 125l55 -82l-181 -100z" />
    <glyph glyph-name="uni040D" unicode="&#x40d;" horiz-adv-x="758" 
d="M756 684l-120 -684h-118l65 365q2 14 4 21q5 31 12 63q-11 -11 -61 -56l-458 -397h-37l120 684h118l-64 -358q-8 -48 -19 -91q26 25 74 67l448 386h36zM395 847l72 73l129 -129l-51 -49z" />
    <glyph glyph-name="uni040E" unicode="&#x40e;" horiz-adv-x="625" 
d="M702 680v-3l-301 -471q-70 -111 -141.5 -161.5t-172.5 -51.5l-12 100q60 4 103.5 28t84.5 77l-177 479v3h122l130 -369l233 369h131zM302.5 765.5q-39.5 25.5 -56.5 67.5l60 48q15 -26 38.5 -40t53.5 -14q40 0 68 13.5t52 39.5l53 -46q-59 -94 -174 -94q-55 0 -94.5 25.5
z" />
    <glyph glyph-name="uni040F" unicode="&#x40f;" horiz-adv-x="707" 
d="M584 0h-215l-27 -152h-111l27 152h-214l120 680h117l-100 -572h304l101 572h118z" />
    <glyph glyph-name="uni0410" unicode="&#x410;" horiz-adv-x="688" 
d="M645 3v-3h-118l-34 123h-321l-78 -123h-127v3l440 681h37zM328 372l-98 -156h239l-44 155q-21 79 -29 118q-30 -57 -68 -117z" />
    <glyph glyph-name="uni0411" unicode="&#x411;" horiz-adv-x="627" 
d="M263 575l-29 -163h148q96 0 151.5 -46.5t55.5 -125.5q0 -23 -4 -43q-15 -87 -81 -142t-179 -55h-281l120 680h450l-19 -105h-332zM216 313l-38 -215h144q67 0 108.5 35.5t41.5 98.5q0 40 -27.5 60.5t-78.5 20.5h-150z" />
    <glyph glyph-name="uni0412" unicode="&#x412;" horiz-adv-x="624" 
d="M164 680h255q80 0 130.5 -41t50.5 -112q0 -16 -3 -34q-17 -101 -109 -145q39 -14 61.5 -48.5t22.5 -81.5q0 -17 -3 -37q-15 -87 -78.5 -134t-164.5 -47h-282zM363 396q49 0 84 32.5t35 82.5q0 36 -25 54t-69 18h-124l-33 -187h132zM320 97q54 0 90.5 28t45.5 78
q2 14 2 20q0 38 -26 58t-68 20h-150l-36 -204h142z" />
    <glyph glyph-name="uni0413" unicode="&#x413;" horiz-adv-x="531" 
d="M164 680h430l-19 -108h-313l-100 -572h-118z" />
    <glyph glyph-name="uni0414" unicode="&#x414;" horiz-adv-x="710" 
d="M587 108h82l-46 -260h-111l27 152h-462l-27 -152h-111l46 260h77q33 51 57.5 107t45.5 127l97 338h425zM191 108h280l81 464h-203l-74 -260q-33 -116 -84 -204z" />
    <glyph glyph-name="uni0415" unicode="&#x415;" horiz-adv-x="560" 
d="M264 576l-32 -181h273l-17 -99h-274l-34 -192h320l-18 -104h-438l120 680h431l-18 -104h-313z" />
    <glyph glyph-name="uni0416" unicode="&#x416;" horiz-adv-x="882" 
d="M943 678l-321 -339l215 -337v-2h-128l-193 306l-54 -306h-118l54 304l-288 -304h-143v2l334 354l-203 322v2h128l186 -296l52 296h118l-52 -296l273 296h140v-2z" />
    <glyph glyph-name="uni0417" unicode="&#x417;" horiz-adv-x="574" 
d="M1 90l69 78q58 -74 167 -74q71 0 121.5 34.5t50.5 92.5q0 38 -28 58.5t-77 20.5h-99l18 101h79q57 0 88 30t31 76q0 36 -27 57.5t-77 22.5q-84 0 -165 -53l-34 91q103 67 216 67q59 0 105.5 -21t72.5 -59.5t26 -87.5q0 -16 -3 -34q-8 -45 -35.5 -82.5t-69.5 -55.5
q41 -13 67 -49.5t26 -86.5q0 -16 -3 -34q-15 -86 -89 -139.5t-190 -53.5q-157 0 -240 101z" />
    <glyph glyph-name="uni0418" unicode="&#x418;" horiz-adv-x="758" 
d="M756 684l-120 -684h-118l65 365q2 14 4 21q5 31 12 63q-11 -11 -61 -56l-458 -397h-37l120 684h118l-64 -358q-8 -48 -19 -91q26 25 74 67l448 386h36z" />
    <glyph glyph-name="uni0419" unicode="&#x419;" horiz-adv-x="758" 
d="M756 684l-120 -684h-118l65 365q2 14 4 21q5 31 12 63q-11 -11 -61 -56l-458 -397h-37l120 684h118l-64 -358q-8 -48 -19 -91q26 25 74 67l448 386h36zM390.5 765.5q-39.5 25.5 -56.5 67.5l60 48q15 -26 38.5 -40t53.5 -14q40 0 68 13.5t52 39.5l53 -46q-59 -94 -174 -94
q-55 0 -94.5 25.5z" />
    <glyph glyph-name="uni041A" unicode="&#x41a;" horiz-adv-x="612" 
d="M662 677l-336 -340l241 -334v-3h-133l-219 303l-53 -303h-118l119 680h118l-52 -298l296 298h137v-3z" />
    <glyph glyph-name="uni041B" unicode="&#x41b;" horiz-adv-x="710" 
d="M-16 92q70 6 115.5 70.5t86.5 205.5l90 312h431l-120 -680h-117l100 572h-209l-76 -267q-33 -115 -75 -182.5t-93.5 -97t-120.5 -32.5z" />
    <glyph glyph-name="uni041C" unicode="&#x41c;" horiz-adv-x="855" 
d="M792 684l-20 -684h-116l12 347q2 55 5 86l-56 -69l-189 -227h-24l-104 222l-37 83q-16 -61 -25 -88l-113 -354h-121l222 684h35l137 -294q10 -21 39 -85q20 28 48 59q6 9 20 25l247 295h40z" />
    <glyph glyph-name="uni041D" unicode="&#x41d;" horiz-adv-x="736" 
d="M733 680l-119 -680h-118l50 288h-334l-50 -288h-118l119 680h118l-50 -283h334l50 283h118z" />
    <glyph glyph-name="uni041E" unicode="&#x41e;" horiz-adv-x="799" 
d="M207.5 23.5q-69.5 36.5 -107.5 102.5t-38 151q0 28 7 72q17 99 72 177t141.5 122.5t193.5 44.5q88 0 156.5 -37.5t107 -104t38.5 -152.5q0 -32 -6 -68q-17 -98 -72 -176t-140 -123t-189 -45q-94 0 -163.5 36.5zM506.5 125.5q58.5 31.5 97 87.5t50.5 126q4 23 4 50
q0 57 -23 101.5t-66 70t-102 25.5q-71 0 -130.5 -31.5t-98.5 -87t-52 -126.5q-5 -30 -5 -52q0 -87 52.5 -141t144.5 -54q70 0 128.5 31.5z" />
    <glyph glyph-name="uni041F" unicode="&#x41f;" horiz-adv-x="710" 
d="M163 680h544l-120 -680h-117l100 572h-308l-100 -572h-118z" />
    <glyph glyph-name="uni0420" unicode="&#x420;" horiz-adv-x="596" 
d="M523.5 656.5q43.5 -23.5 67 -65t23.5 -94.5q0 -24 -4 -44q-10 -56 -42 -102.5t-86.5 -74.5t-128.5 -28h-148l-44 -248h-117l120 680h256q60 0 103.5 -23.5zM472 555q-26 23 -74 23h-135l-40 -229h121q49 0 84 20.5t52.5 53t17.5 67.5q0 42 -26 65z" />
    <glyph glyph-name="uni0421" unicode="&#x421;" horiz-adv-x="693" 
d="M204.5 25q-68.5 38 -105 104.5t-36.5 150.5q0 35 6 71q17 98 72.5 176t140.5 122t185 44q80 0 139.5 -27t109.5 -78l-68 -74q-36 37 -79 55t-101 18q-69 0 -128.5 -31.5t-99.5 -88t-52 -127.5q-5 -28 -5 -51q0 -56 22.5 -100t66 -69.5t103.5 -25.5q65 0 116 24.5t98 73.5
l64 -78q-123 -127 -288 -127q-92 0 -160.5 38z" />
    <glyph glyph-name="uni0422" unicode="&#x422;" horiz-adv-x="542" 
d="M584 572h-193l-100 -572h-118l101 572h-193l19 108h503z" />
    <glyph glyph-name="uni0423" unicode="&#x423;" horiz-adv-x="625" 
d="M702 680v-3l-301 -471q-70 -111 -141.5 -161.5t-172.5 -51.5l-12 100q60 4 103.5 28t84.5 77l-177 479v3h122l130 -369l233 369h131z" />
    <glyph glyph-name="uni0424" unicode="&#x424;" horiz-adv-x="832" 
d="M749.5 563q72.5 -68 72.5 -170q0 -22 -5 -52q-21 -120 -117.5 -198t-256.5 -89l-18 -106h-113l19 107q-130 14 -202.5 82t-72.5 171q0 21 5 51q21 121 118 198.5t256 88.5l17 97h113l-17 -98q129 -14 201.5 -82zM705 387q0 67 -45.5 107.5t-132.5 48.5l-69 -385
q106 11 167.5 60.5t75.5 129.5q4 28 4 39zM173 313q0 -67 45.5 -107.5t133.5 -48.5l67 385q-105 -11 -167 -60t-76 -130q-3 -19 -3 -39z" />
    <glyph glyph-name="uni0425" unicode="&#x425;" horiz-adv-x="646" 
d="M-27 2l304 357l-164 319v2h128l93 -183q17 -37 23 -53q17 22 41 51l159 185h142v-2l-283 -325l179 -351v-2h-127l-94 184q-28 55 -38 82q-32 -46 -55 -71l-167 -195h-141v2z" />
    <glyph glyph-name="uni0426" unicode="&#x426;" horiz-adv-x="734" 
d="M604 108h90l-46 -260h-111l27 152h-520l120 680h117l-100 -572h305l101 572h117z" />
    <glyph glyph-name="uni0427" unicode="&#x427;" horiz-adv-x="649" 
d="M646 680l-120 -680h-117l45 254q-72 -23 -155 -23q-96 0 -155 46.5t-59 130.5q0 25 4 46l41 226h117l-39 -222q-3 -18 -3 -32q0 -47 29 -67.5t83 -20.5q75 0 157 32l55 310h117z" />
    <glyph glyph-name="uni0428" unicode="&#x428;" horiz-adv-x="1009" 
d="M1006 680l-120 -680h-842l120 680h117l-101 -572h246l101 572h117l-101 -572h245l101 572h117z" />
    <glyph glyph-name="uni0429" unicode="&#x429;" horiz-adv-x="1038" 
d="M908 108h90l-47 -260h-111l27 152h-823l120 680h117l-101 -572h246l101 572h118l-101 -572h246l101 572h117z" />
    <glyph glyph-name="uni042A" unicode="&#x42a;" horiz-adv-x="726" 
d="M645 372q55 -47 55 -128q0 -25 -4 -46q-17 -89 -84.5 -143.5t-169.5 -54.5h-278l100 572h-184l19 108h302l-46 -261h150q85 0 140 -47zM556 295.5q-27 21.5 -76 21.5h-143l-38 -215h143q62 0 101.5 37t39.5 95q0 40 -27 61.5z" />
    <glyph glyph-name="uni042B" unicode="&#x42b;" horiz-adv-x="887" 
d="M525.5 373q54.5 -47 54.5 -128q0 -26 -4 -47q-17 -89 -84.5 -143.5t-169.5 -54.5h-278l119 680h118l-46 -260h150q86 0 140.5 -47zM436 297q-27 22 -76 22h-143l-38 -217h143q62 0 101.5 37t39.5 96q0 40 -27 62zM765 680h118l-119 -680h-118z" />
    <glyph glyph-name="uni042C" unicode="&#x42c;" horiz-adv-x="606" 
d="M525.5 373q54.5 -47 54.5 -128q0 -26 -4 -47q-17 -89 -84.5 -143.5t-169.5 -54.5h-278l119 680h118l-46 -260h150q86 0 140.5 -47zM436 297q-27 22 -76 22h-143l-38 -217h143q62 0 101.5 37t39.5 96q0 40 -27 62z" />
    <glyph glyph-name="uni042D" unicode="&#x42d;" horiz-adv-x="699" 
d="M533.5 654q68.5 -38 106.5 -104.5t38 -149.5q0 -32 -6 -67q-18 -96 -71.5 -174.5t-137.5 -124.5t-189 -46q-91 0 -160 39.5t-110 97.5l84 67q38 -50 81.5 -73.5t110.5 -23.5q94 0 163 54t98 141h-286l18 101h286q-1 56 -24 100t-67 69t-104 25q-57 0 -106.5 -17
t-98.5 -56l-56 83q60 50 127 73.5t146 23.5q89 0 157.5 -38z" />
    <glyph glyph-name="uni042E" unicode="&#x42e;" horiz-adv-x="1037" 
d="M871.5 654q67.5 -38 105.5 -105t38 -151q0 -32 -6 -67q-17 -98 -71.5 -176t-138.5 -122.5t-186 -44.5q-87 0 -155.5 38.5t-105.5 106.5t-36 154h-104l-50 -287h-118l119 680h118l-50 -284h102q25 87 79 154t133 104.5t175 37.5q84 0 151.5 -38zM897 390q0 55 -23 99.5
t-66 70t-99 25.5q-69 0 -126.5 -31.5t-95.5 -87t-51 -125.5q-5 -28 -5 -50q0 -56 23.5 -100.5t66 -70t98.5 -25.5q69 0 126.5 31.5t95.5 87t51 125.5q5 28 5 51z" />
    <glyph glyph-name="uni042F" unicode="&#x42f;" horiz-adv-x="657" 
d="M654 680l-120 -680h-117l46 264h-98l-247 -264h-138v4l259 275q-55 20 -85 65t-30 101q0 19 3 37q17 91 86 144.5t178 53.5h263zM518 578h-128q-61 0 -100 -26.5t-49 -79.5q-2 -16 -2 -22q0 -41 29.5 -65.5t80.5 -24.5h131z" />
    <glyph glyph-name="uni0430" unicode="&#x430;" horiz-adv-x="573" 
d="M548 446l-79 -446h-82l-3 60q-67 -71 -166 -71q-84 0 -133 53t-49 138q0 31 5 55q18 100 84 161t158 61q50 0 89.5 -21t62.5 -60l33 70h80zM351.5 123q40.5 39 51.5 98q3 18 3 34q0 48 -28.5 77.5t-80.5 29.5q-55 0 -95.5 -37.5t-51.5 -97.5q-4 -24 -4 -35
q0 -49 29 -78.5t78 -29.5q58 0 98.5 39z" />
    <glyph glyph-name="uni0431" unicode="&#x431;" horiz-adv-x="561" 
d="M478.5 401q49.5 -46 49.5 -128q0 -22 -5 -52q-13 -73 -51.5 -125.5t-95 -79.5t-122.5 -27q-97 0 -152 52t-55 153q0 38 9 83l9 49q37 203 187 294q41 25 77 38t84 25q45 13 68 20.5t49 22.5l24 -96q-32 -18 -61 -27.5t-73 -21.5q-42 -12 -67.5 -20.5t-52.5 -24.5
q-91 -51 -125 -166q74 77 178 77q76 0 125.5 -46zM414 250q0 46 -27 74t-76 28q-55 0 -97 -38t-52 -97q-3 -16 -3 -32q0 -47 28 -74t74 -27q60 0 100 38.5t50 97.5q3 15 3 30z" />
    <glyph glyph-name="uni0432" unicode="&#x432;" horiz-adv-x="481" 
d="M371 226q28 -12 44 -35.5t16 -53.5q0 -7 -2 -19q-10 -57 -52.5 -87.5t-111.5 -30.5h-240l78 446h216q55 0 90.5 -29t35.5 -78q0 -84 -74 -113zM329.5 355.5q-12.5 11.5 -38.5 11.5h-94l-18 -104h92q33 0 52 18.5t19 44.5q0 18 -12.5 29.5zM324 145q0 20 -14 31.5
t-40 11.5h-104l-19 -110h102q32 0 50.5 15.5t23.5 41.5q1 4 1 10z" />
    <glyph glyph-name="uni0433" unicode="&#x433;" horiz-adv-x="388" 
d="M103 446h302l-17 -94h-192l-62 -352h-109z" />
    <glyph glyph-name="uni0434" unicode="&#x434;" horiz-adv-x="541" 
d="M499 92l-36 -206h-101l20 114h-303l-20 -114h-101l36 206h53q25 29 39.5 61.5t26.5 79.5l57 213h328l-62 -354h63zM192.5 140q-10.5 -27 -26.5 -50h165l47 266h-126l-39 -149q-10 -40 -20.5 -67z" />
    <glyph glyph-name="uni0435" unicode="&#x435;" horiz-adv-x="479" 
d="M383 203q-74 -40 -184 -40q-31 0 -54 3q7 -43 37.5 -66t78.5 -23q35 0 64 8t59 26l33 -76q-82 -47 -178 -47q-60 0 -106 24.5t-72 69t-26 100.5q0 76 34.5 139.5t94.5 100t135 36.5q73 0 115.5 -35.5t42.5 -95.5q0 -84 -74 -124zM191 240q69 0 117 18.5t48 60.5
q0 24 -16.5 36.5t-44.5 12.5q-54 0 -94 -36t-53 -90q22 -2 43 -2z" />
    <glyph glyph-name="uni0436" unicode="&#x436;" horiz-adv-x="668" 
d="M684 443l-201 -216l138 -225v-2h-115l-121 197l-35 -197h-108l35 199l-180 -199h-129v2l224 238l-128 203v3h114l111 -180l31 180h109l-32 -178l162 178h125v-3z" />
    <glyph glyph-name="uni0437" unicode="&#x437;" horiz-adv-x="415" 
d="M68.5 3.5q-43.5 12.5 -79.5 38.5l49 75q48 -38 116 -38q50 0 77.5 19t27.5 49q0 19 -14.5 30.5t-42.5 11.5h-85l14 80h67q32 0 50.5 16t18.5 39q0 19 -16 30.5t-48 11.5q-44 0 -108 -27l-22 80q80 36 150 36q66 0 109.5 -29.5t43.5 -82.5q0 -8 -2 -24q-5 -27 -24.5 -51.5
t-49.5 -34.5q30 -9 47.5 -33.5t17.5 -58.5q0 -7 -2 -23q-11 -59 -62.5 -93t-131.5 -34q-57 0 -100.5 12.5z" />
    <glyph glyph-name="uni0438" unicode="&#x438;" horiz-adv-x="524" 
d="M500 446l-79 -446h-107l34 195q3 19 13 59q-29 -29 -62 -56l-230 -199h-45l79 447h108l-35 -198q-4 -28 -14 -63q42 42 63 60l230 201h45z" />
    <glyph glyph-name="uni0439" unicode="&#x439;" horiz-adv-x="524" 
d="M500 446l-79 -446h-107l34 195q3 19 13 59q-29 -29 -62 -56l-230 -199h-45l79 447h108l-35 -198q-4 -28 -14 -63q42 42 63 60l230 201h45zM254.5 552q-35.5 22 -49.5 64l62 41q10 -23 30 -35.5t46 -12.5q57 0 99 48l54 -43q-27 -42 -68 -63t-89 -21q-49 0 -84.5 22z" />
    <glyph glyph-name="uni043A" unicode="&#x43a;" horiz-adv-x="465" 
d="M482 441l-214 -214l151 -221v-6h-118l-132 195l-35 -195h-109l78 446h110l-30 -171l169 171h130v-5z" />
    <glyph glyph-name="uni043B" unicode="&#x43b;" horiz-adv-x="517" 
d="M-19 84q52 7 83 41.5t50 105.5l57 215h321l-78 -446h-109l62 352h-116l-40 -156q-27 -101 -79.5 -150t-140.5 -54z" />
    <glyph glyph-name="uni043C" unicode="&#x43c;" horiz-adv-x="613" 
d="M564 446l-36 -446h-107l17 198q4 38 7 57q-42 -47 -52 -57l-93 -97h-28l-61 98q-20 31 -35 59q-7 -35 -13 -59l-49 -199h-107l114 446h40l113 -177q7 -11 27 -46q16 21 41 46l176 177h46z" />
    <glyph glyph-name="uni043D" unicode="&#x43d;" horiz-adv-x="525" 
d="M501 446l-79 -446h-109l31 178h-179l-31 -178h-109l78 446h109l-30 -174h179l30 174h110z" />
    <glyph glyph-name="uni043E" unicode="&#x43e;" horiz-adv-x="553" 
d="M134 13q-47 25 -73 69.5t-26 102.5q0 25 4 46q12 67 48.5 118.5t94 80t129.5 28.5q62 0 109 -25t73 -70t26 -103q0 -25 -4 -45q-18 -103 -90.5 -165t-181.5 -62q-62 0 -109 25zM353.5 122.5q41.5 38.5 52.5 101.5q3 15 3 30q0 49 -28.5 78.5t-78.5 29.5
q-61 0 -102.5 -39.5t-51.5 -100.5q-3 -16 -3 -31q0 -48 28.5 -77.5t77.5 -29.5q61 0 102.5 38.5z" />
    <glyph glyph-name="uni043F" unicode="&#x43f;" horiz-adv-x="526" 
d="M103 446h398l-78 -446h-110l62 351h-179l-61 -351h-110z" />
    <glyph glyph-name="uni0440" unicode="&#x440;" horiz-adv-x="571" 
d="M486 404q50 -53 50 -139q0 -23 -5 -53q-18 -99 -82 -161t-159 -62q-50 0 -89 20t-62 55q-2 -44 -7 -73l-37 -211h-109l117 666h74l8 -61q33 36 76 54t91 18q84 0 134 -53zM425 252q0 50 -28.5 79.5t-78.5 29.5q-59 0 -99 -38t-50 -95q-3 -18 -3 -34q0 -50 28.5 -80
t79.5 -30q55 0 96 37t52 97q3 18 3 34z" />
    <glyph glyph-name="uni0441" unicode="&#x441;" horiz-adv-x="463" 
d="M134.5 10.5q-45.5 23.5 -73 68t-27.5 106.5q0 20 5 50q13 70 51 120t93.5 76.5t119.5 26.5q49 0 86.5 -15t72.5 -49l-62 -71q-21 21 -44 30.5t-52 9.5q-55 0 -100 -37.5t-56 -101.5q-3 -15 -3 -30q0 -49 29.5 -80t79.5 -31q35 0 62 10t57 34l45 -77q-45 -35 -89.5 -49
t-95.5 -14q-53 0 -98.5 23.5z" />
    <glyph glyph-name="uni0442" unicode="&#x442;" horiz-adv-x="399" 
d="M168 352h-128l16 94h365l-16 -94h-128l-62 -352h-109z" />
    <glyph glyph-name="uni0443" unicode="&#x443;" horiz-adv-x="494" 
d="M524 446v-3l-265 -470q-81 -146 -252 -194l-30 95q62 18 109.5 50.5t74.5 76.5l10 15l-122 427v3h111l79 -312l164 312h121z" />
    <glyph glyph-name="uni0444" unicode="&#x444;" horiz-adv-x="662" 
d="M573 391q55 -53 55 -133q0 -22 -4 -42q-18 -97 -91.5 -157.5t-189.5 -67.5l-37 -213h-107l37 214q-93 10 -147 64t-54 135q0 24 4 44q17 94 90 153t190 66l42 245h107l-43 -246q93 -9 148 -62zM521 252q0 46 -30 74.5t-84 34.5l-49 -276q65 7 107.5 42.5t52.5 96.5
q3 15 3 28zM142 196q0 -47 29.5 -76t83.5 -36l49 276q-65 -7 -107 -41t-52 -92q-3 -16 -3 -31z" />
    <glyph glyph-name="uni0445" unicode="&#x445;" horiz-adv-x="464" 
d="M478 443l-176 -213l109 -228v-2h-117l-50 107q-11 28 -20 58q-21 -35 -39 -59l-85 -106h-125v2l191 233l-98 208v3h114l41 -91q13 -27 20 -56q16 26 40 57l71 90h124v-3z" />
    <glyph glyph-name="uni0446" unicode="&#x446;" horiz-adv-x="541" 
d="M437 93h61l-36 -207h-100l19 114h-356l78 446h109l-61 -353h177l61 353h110z" />
    <glyph glyph-name="uni0447" unicode="&#x447;" horiz-adv-x="480" 
d="M455 446l-78 -446h-110l26 148q-45 -12 -93 -12q-71 0 -112.5 34t-41.5 93q0 15 3 31l27 152h110l-27 -150q-1 -5 -1 -15q0 -50 66 -50q46 0 86 13l35 202h110z" />
    <glyph glyph-name="uni0448" unicode="&#x448;" horiz-adv-x="743" 
d="M718 446l-78 -446h-616l79 446h108l-62 -353h146l62 353h108l-62 -353h146l62 353h107z" />
    <glyph glyph-name="uni0449" unicode="&#x449;" horiz-adv-x="760" 
d="M657 93h61l-36 -207h-101l20 114h-576l78 446h108l-62 -353h146l62 353h108l-62 -353h146l62 353h108z" />
    <glyph glyph-name="uni044A" unicode="&#x44a;" horiz-adv-x="534" 
d="M457.5 269.5q41.5 -34.5 41.5 -93.5q0 -14 -3 -29q-13 -71 -62 -109t-129 -38h-217l62 352h-114l17 94h222l-25 -142h103q63 0 104.5 -34.5zM389 168q0 25 -17.5 38.5t-49.5 13.5h-86l-24 -136h81q40 0 64.5 17.5t30.5 52.5q1 5 1 14z" />
    <glyph glyph-name="uni044B" unicode="&#x44b;" horiz-adv-x="693" 
d="M394.5 269q41.5 -35 41.5 -94q0 -14 -3 -29q-13 -71 -62 -108.5t-129 -37.5h-217l78 446h110l-25 -142h101q64 0 105.5 -35zM327 167q0 25 -17.5 39t-49.5 14h-87l-24 -136h82q39 0 64 17.5t31 52.5q1 5 1 13zM559 446h109l-78 -446h-109z" />
    <glyph glyph-name="uni044C" unicode="&#x44c;" horiz-adv-x="471" 
d="M394.5 269q41.5 -35 41.5 -94q0 -14 -3 -29q-13 -71 -62 -108.5t-129 -37.5h-217l78 446h110l-25 -142h101q64 0 105.5 -35zM327 167q0 25 -17.5 39t-49.5 14h-87l-24 -136h82q39 0 64 17.5t31 52.5q1 5 1 13z" />
    <glyph glyph-name="uni044D" unicode="&#x44d;" horiz-adv-x="466" 
d="M330.5 434q46.5 -23 74 -67t27.5 -105q0 -20 -5 -50q-18 -103 -91.5 -163.5t-176.5 -60.5q-55 0 -96.5 17.5t-75.5 54.5l59 69q22 -25 48.5 -36t64.5 -11q53 0 94 28.5t59 75.5h-178l13 81h177q-4 46 -34 71.5t-77 25.5q-35 0 -63.5 -9.5t-56.5 -29.5l-45 72
q79 60 179 60q57 0 103.5 -23z" />
    <glyph glyph-name="uni044E" unicode="&#x44e;" horiz-adv-x="757" 
d="M623.5 433.5q47.5 -24.5 73.5 -68.5t26 -101q0 -21 -5 -49q-18 -103 -90.5 -165t-183.5 -62q-59 0 -105 24t-71.5 67.5t-26.5 99.5h-76l-31 -179h-109l78 446h109l-30 -174h73q28 85 96 135.5t163 50.5q62 0 109.5 -24.5zM612 256q0 48 -28 77t-78 29q-59 0 -101 -39.5
t-53 -100.5q-3 -16 -3 -30q0 -49 28.5 -78.5t77.5 -29.5q60 0 101.5 38t52.5 102q3 17 3 32z" />
    <glyph glyph-name="uni044F" unicode="&#x44f;" horiz-adv-x="494" 
d="M469 446l-78 -446h-108l27 153h-72l-131 -153h-124v5l148 166q-31 16 -48.5 45t-17.5 66q0 18 2 28q11 64 60 100t128 36h214zM346 361h-87q-75 0 -86 -61q-1 -5 -1 -14q0 -25 16 -39.5t46 -14.5h89z" />
    <glyph glyph-name="uni0450" unicode="&#x450;" horiz-adv-x="479" 
d="M383 203q-74 -40 -184 -40q-31 0 -54 3q7 -43 37.5 -66t78.5 -23q35 0 64 8t59 26l33 -76q-82 -47 -178 -47q-60 0 -106 24.5t-72 69t-26 100.5q0 76 34.5 139.5t94.5 100t135 36.5q73 0 115.5 -35.5t42.5 -95.5q0 -84 -74 -124zM191 240q69 0 117 18.5t48 60.5
q0 24 -16.5 36.5t-44.5 12.5q-54 0 -94 -36t-53 -90q22 -2 43 -2zM198 622l69 70l124 -124l-49 -47z" />
    <glyph glyph-name="uni0451" unicode="&#x451;" horiz-adv-x="479" 
d="M383 203q-74 -40 -184 -40q-31 0 -54 3q7 -43 37.5 -66t78.5 -23q35 0 64 8t59 26l33 -76q-82 -47 -178 -47q-60 0 -106 24.5t-72 69t-26 100.5q0 76 34.5 139.5t94.5 100t135 36.5q73 0 115.5 -35.5t42.5 -95.5q0 -84 -74 -124zM191 240q69 0 117 18.5t48 60.5
q0 24 -16.5 36.5t-44.5 12.5q-54 0 -94 -36t-53 -90q22 -2 43 -2zM180.5 559q-15.5 16 -15.5 39t18 42.5t44 19.5t41 -16t15 -39q0 -25 -17 -43.5t-44 -18.5q-26 0 -41.5 16zM374.5 559q-15.5 16 -15.5 39l1 11q3 20 20 35.5t40 15.5q26 0 41 -16t15 -39q0 -24 -17.5 -43
t-43.5 -19q-25 0 -40.5 16z" />
    <glyph glyph-name="uni0452" unicode="&#x452;" horiz-adv-x="522" 
d="M442.5 417.5q34.5 -34.5 34.5 -97.5q0 -20 -5 -48l-56 -318q-16 -90 -64 -132.5t-129 -44.5l-6 98q41 2 63 24.5t30 70.5l53 301q2 14 2 21q0 29 -16.5 45.5t-46.5 16.5q-50 0 -86 -37.5t-45 -91.5l-40 -225h-109l95 539h-57l11 60h56l18 100h109l-17 -100h154l-10 -60
h-154l-13 -75q-4 -19 -18 -79q29 30 66 48t81 19q65 0 99.5 -34.5z" />
    <glyph glyph-name="uni0453" unicode="&#x453;" horiz-adv-x="388" 
d="M103 446h302l-17 -94h-192l-62 -352h-109zM177 575l159 119l51 -78l-171 -95z" />
    <glyph glyph-name="uni0454" unicode="&#x454;" horiz-adv-x="466" 
d="M318.5 92.5q28.5 10.5 58.5 34.5l45 -74q-48 -36 -93.5 -50.5t-94.5 -14.5q-53 0 -99 23.5t-73.5 68t-27.5 105.5q0 22 5 50q13 68 51.5 119t94 77.5t116.5 26.5q50 0 88.5 -16t75.5 -51l-60 -68q-23 23 -46.5 32t-54.5 9q-48 0 -87.5 -26t-59.5 -72h177l-14 -79h-178
q2 -47 32 -76t79 -29q37 0 65.5 10.5z" />
    <glyph glyph-name="uni0455" unicode="&#x455;" horiz-adv-x="400" 
d="M74.5 4q-42.5 14 -73.5 38l46 76q24 -19 55 -29.5t61 -10.5q34 0 56.5 13.5t22.5 36.5q0 18 -15.5 32.5t-52.5 30.5q-53 24 -81 54t-28 75q0 61 46 97t118 36q83 0 151 -45l-42 -71q-51 30 -102 30q-31 0 -47.5 -11.5t-16.5 -30.5q0 -18 16 -31t51 -30q60 -27 86.5 -57.5
t26.5 -72.5q0 -68 -52 -106t-134 -38q-49 0 -91.5 14z" />
    <glyph glyph-name="uni0456" unicode="&#x456;" horiz-adv-x="238" 
d="M137.5 555q-16.5 17 -16.5 42q0 29 19 51t50 22q29 0 45.5 -17t16.5 -43q0 -29 -20 -50.5t-50 -21.5q-28 0 -44.5 17zM104 446h109l-79 -446h-109z" />
    <glyph glyph-name="uni0457" unicode="&#x457;" horiz-adv-x="237" 
d="M103 446h109l-78 -446h-109zM61.5 556.5q-14.5 14.5 -14.5 36.5q0 27 18 46t45 19q24 0 38 -14.5t14 -35.5v-4q0 -6 -1 -9q-4 -23 -20 -38t-40 -15q-25 0 -39.5 14.5zM222 557q-14 15 -14 36q0 26 17.5 45.5t44.5 19.5q24 0 38 -15t14 -36v-4q0 -6 -1 -9
q-4 -22 -20.5 -37t-40.5 -15t-38 15z" />
    <glyph glyph-name="uni0458" unicode="&#x458;" horiz-adv-x="249" 
d="M147.5 555q-16.5 17 -16.5 42q0 29 19 51t50 22q29 0 45.5 -17t16.5 -43q0 -29 -20 -50.5t-50 -21.5q-28 0 -44.5 17zM-114 -141q53 2 82 15.5t42.5 41t22.5 78.5l79 452h110l-82 -463q-14 -81 -42.5 -127.5t-79 -67t-133.5 -20.5z" />
    <glyph glyph-name="uni0459" unicode="&#x459;" horiz-adv-x="721" 
d="M643 252q40 -33 40 -90q0 -14 -3 -29q-11 -65 -57 -99t-121 -34h-207l61 352h-107l-41 -158q-26 -100 -79 -147.5t-139 -55.5l-10 92q51 7 83 42.5t52 111.5l56 209h311l-28 -161h91q58 0 98 -33zM576 154q0 24 -15.5 36t-44.5 12h-77l-20 -119h71q75 0 85 59q1 4 1 12z
" />
    <glyph glyph-name="uni045A" unicode="&#x45a;" horiz-adv-x="734" 
d="M656 252.5q40 -31.5 40 -87.5q0 -14 -3 -29q-11 -67 -57 -101.5t-121 -34.5h-208l34 195h-173l-34 -195h-109l78 446h109l-28 -162h173l28 162h109l-28 -162h91q59 0 99 -31.5zM588 156q0 22 -15 33t-43 11h-79l-20 -116h74q72 0 82 59q1 5 1 13z" />
    <glyph glyph-name="uni045B" unicode="&#x45b;" horiz-adv-x="524" 
d="M443 416q35 -34 35 -97q0 -20 -5 -48l-47 -271h-109l47 268q2 14 2 21q0 30 -16.5 46.5t-47.5 16.5q-50 0 -85.5 -37t-44.5 -91l-39 -224h-110l95 538h-58l11 61h57l18 100h109l-18 -100h156l-10 -61h-156l-11 -61q-12 -63 -20 -94q67 67 148 67q64 0 99 -34z" />
    <glyph glyph-name="uni045C" unicode="&#x45c;" horiz-adv-x="465" 
d="M482 441l-214 -214l151 -221v-6h-118l-132 195l-35 -195h-109l78 446h110l-30 -171l169 171h130v-5zM227 575l159 119l51 -78l-171 -95z" />
    <glyph glyph-name="uni045D" unicode="&#x45d;" horiz-adv-x="524" 
d="M500 446l-79 -446h-107l34 195q3 19 13 59q-29 -29 -62 -56l-230 -199h-45l79 447h108l-35 -198q-4 -28 -14 -63q42 42 63 60l230 201h45zM235 627l69 70l124 -124l-49 -47z" />
    <glyph glyph-name="uni045E" unicode="&#x45e;" horiz-adv-x="494" 
d="M524 446v-3l-265 -470q-81 -146 -252 -194l-30 95q62 18 109.5 50.5t74.5 76.5l10 15l-122 427v3h111l79 -312l164 312h121zM218.5 552q-35.5 22 -49.5 64l62 41q10 -23 30 -35.5t46 -12.5q57 0 99 48l54 -43q-27 -42 -68 -63t-89 -21q-49 0 -84.5 22z" />
    <glyph glyph-name="uni045F" unicode="&#x45f;" horiz-adv-x="524" 
d="M421 0h-148l-20 -114h-101l20 114h-147l78 446h109l-61 -353h177l62 353h109z" />
    <glyph glyph-name="uni0490" unicode="&#x490;" horiz-adv-x="529" 
d="M164 680h321l27 152h107l-46 -260h-311l-101 -572h-117z" />
    <glyph glyph-name="uni0491" unicode="&#x491;" horiz-adv-x="390" 
d="M103 446h202l19 109h102l-35 -203h-195l-61 -352h-110z" />
    <glyph glyph-name="Wgrave" unicode="&#x1e80;" horiz-adv-x="966" 
d="M1032 680v-2l-360 -682h-34l-98 346q-17 63 -21 84q-19 -35 -50 -83l-220 -347h-35l-119 682v2h117l61 -361l12 -81q30 49 50 80l204 322h28l88 -317q11 -37 22 -81q12 25 41 81l187 357h127zM464 851l72 73l129 -129l-51 -49z" />
    <glyph glyph-name="wgrave" unicode="&#x1e81;" horiz-adv-x="685" 
d="M711 446v-3l-251 -447h-33l-80 247l-167 -247h-34l-94 447v3h109l43 -215l6 -39l24 37l128 192h23l61 -193l11 -33q3 8 17 33l118 218h119zM284 622l69 70l124 -124l-49 -47z" />
    <glyph glyph-name="Wacute" unicode="&#x1e82;" horiz-adv-x="966" 
d="M1032 680v-2l-360 -682h-34l-98 346q-17 63 -21 84q-19 -35 -50 -83l-220 -347h-35l-119 682v2h117l61 -361l12 -81q30 49 50 80l204 322h28l88 -317q11 -37 22 -81q12 25 41 81l187 357h127zM483 801l167 125l55 -82l-181 -100z" />
    <glyph glyph-name="wacute" unicode="&#x1e83;" horiz-adv-x="685" 
d="M711 446v-3l-251 -447h-33l-80 247l-167 -247h-34l-94 447v3h109l43 -215l6 -39l24 37l128 192h23l61 -193l11 -33q3 8 17 33l118 218h119zM306 575l159 119l51 -78l-171 -95z" />
    <glyph glyph-name="Wdieresis" unicode="&#x1e84;" horiz-adv-x="966" 
d="M1032 680v-2l-360 -682h-34l-98 346q-17 63 -21 84q-19 -35 -50 -83l-220 -347h-35l-119 682v2h117l61 -361l12 -81q30 49 50 80l204 322h28l88 -317q11 -37 22 -81q12 25 41 81l187 357h127zM445.5 782q-16.5 17 -16.5 40q0 7 1 11q5 22 22 37.5t41 15.5q26 0 42 -16.5
t16 -40.5t-18 -44t-45 -20q-26 0 -42.5 17zM642.5 782q-15.5 17 -15.5 41q0 7 1 11q3 21 21 36.5t41 15.5q26 0 41.5 -16.5t15.5 -39.5q0 -25 -17.5 -45t-44.5 -20t-42.5 17z" />
    <glyph glyph-name="wdieresis" unicode="&#x1e85;" horiz-adv-x="685" 
d="M711 446v-3l-251 -447h-33l-80 247l-167 -247h-34l-94 447v3h109l43 -215l6 -39l24 37l128 192h23l61 -193l11 -33q3 8 17 33l118 218h119zM267.5 559q-15.5 16 -15.5 39t18 42.5t44 19.5t41 -16t15 -39q0 -25 -17 -43.5t-44 -18.5q-26 0 -41.5 16zM461.5 559
q-15.5 16 -15.5 39l1 11q3 20 20 35.5t40 15.5q26 0 41 -16t15 -39q0 -24 -17.5 -43t-43.5 -19q-25 0 -40.5 16z" />
    <glyph glyph-name="uni1E9E" unicode="&#x1e9e;" horiz-adv-x="665" 
d="M656 642l-179 -225q68 -4 110 -50t42 -114q0 -73 -34 -130.5t-94.5 -90t-137.5 -32.5h-116l17 98h98q70 0 109.5 42t39.5 102q0 46 -26 69.5t-72 23.5h-61l13 75l132 172h-109q-60 0 -101.5 -38t-54.5 -107l-77 -437h-115l77 436q22 124 93.5 184.5t194.5 59.5h258z" />
    <glyph glyph-name="Ygrave" unicode="&#x1ef2;" horiz-adv-x="647" 
d="M279 302l-184 378h122l99 -204l9 -20q16 -36 23 -55q24 37 57 74l172 205h136l-317 -378l-53 -302h-118zM298 851l72 73l129 -129l-51 -49z" />
    <glyph glyph-name="ygrave" unicode="&#x1ef3;" horiz-adv-x="490" 
d="M520 446v-3l-374 -663h-118v2l142 239l-122 422v3h111l66 -249q8 -34 12 -57q10 23 28 57l134 249h121zM179 622l69 70l124 -124l-49 -47z" />
    <glyph glyph-name="endash" unicode="&#x2013;" horiz-adv-x="520" 
d="M63 271h411l-15 -86h-411z" />
    <glyph glyph-name="emdash" unicode="&#x2014;" horiz-adv-x="683" 
d="M62 270h575l-15 -85h-575z" />
    <glyph glyph-name="quoteleft" unicode="&#x2018;" horiz-adv-x="213" 
d="M208.5 556q16.5 -17 16.5 -43q0 -35 -21.5 -55.5t-51.5 -20.5q-26 0 -44 18.5t-18 52.5q0 16 4 31q18 87 125 165l26 -29q-57 -48 -79 -102h3q23 0 39.5 -17z" />
    <glyph glyph-name="quoteright" unicode="&#x2019;" horiz-adv-x="213" 
d="M233 680.5q17 -16.5 17 -49.5q0 -14 -3 -31q-20 -95 -130 -168l-24 29q33 26 52.5 49t30.5 51h-5q-24 0 -40.5 17t-16.5 44q0 35 22 55t52 20q28 0 45 -16.5z" />
    <glyph glyph-name="quotesinglbase" unicode="&#x201a;" horiz-adv-x="262" 
d="M150 104q17 -17 17 -49q0 -7 -2 -23q-18 -95 -128 -175l-23 29q60 49 80 102h-5q-23 0 -39 16t-16 42q0 35 21 55t50 20q28 0 45 -17z" />
    <glyph glyph-name="quotedblleft" unicode="&#x201c;" horiz-adv-x="397" 
d="M393.5 556q16.5 -17 16.5 -43q0 -35 -21.5 -55.5t-51.5 -20.5q-26 0 -44 18.5t-18 52.5q0 16 4 31q18 87 125 165l26 -29q-57 -48 -79 -102h3q23 0 39.5 -17zM208.5 556q16.5 -17 16.5 -43q0 -35 -21.5 -55.5t-51.5 -20.5q-26 0 -44 18.5t-18 52.5q0 16 4 31
q18 87 125 165l26 -29q-57 -48 -79 -102h3q23 0 39.5 -17z" />
    <glyph glyph-name="quotedblright" unicode="&#x201d;" horiz-adv-x="388" 
d="M408 680.5q17 -16.5 17 -49.5q0 -14 -3 -31q-20 -95 -130 -168l-24 29q33 26 52.5 49t30.5 51h-5q-24 0 -40.5 17t-16.5 44q0 35 22 55t52 20q28 0 45 -16.5zM233 680.5q17 -16.5 17 -49.5q0 -14 -3 -31q-20 -95 -130 -168l-24 29q33 26 52.5 49t30.5 51h-5
q-24 0 -40.5 17t-16.5 44q0 35 22 55t52 20q28 0 45 -16.5z" />
    <glyph glyph-name="quotedblbase" unicode="&#x201e;" horiz-adv-x="433" 
d="M150 104q17 -17 17 -49q0 -7 -2 -23q-18 -95 -128 -175l-23 29q60 49 80 102h-5q-23 0 -39 16t-16 42q0 35 21 55t50 20q28 0 45 -17zM322 104q17 -17 17 -49q0 -7 -2 -23q-18 -95 -128 -175l-23 29q60 49 80 102h-5q-23 0 -39 16t-16 42q0 35 21 55t50 20q28 0 45 -17z
" />
    <glyph glyph-name="dagger" unicode="&#x2020;" horiz-adv-x="583" 
d="M255 291h-194l16 91h194l53 299h99l-53 -299h192l-16 -91h-193l-102 -585h-99z" />
    <glyph glyph-name="daggerdbl" unicode="&#x2021;" horiz-adv-x="583" 
d="M204 5h-193l16 91h193l35 195h-194l16 91h194l53 299h99l-53 -299h192l-16 -91h-193l-34 -195h193l-16 -91h-193l-52 -299h-99z" />
    <glyph glyph-name="bullet" unicode="&#x2022;" horiz-adv-x="325" 
d="M111.5 275.5q-25.5 22.5 -25.5 60.5q0 50 32.5 80.5t75.5 30.5q39 0 65 -22.5t26 -61.5q0 -49 -32.5 -79.5t-76.5 -30.5q-39 0 -64.5 22.5z" />
    <glyph glyph-name="ellipsis" unicode="&#x2026;" horiz-adv-x="708" 
d="M52.5 4.5q-18.5 16.5 -18.5 45.5q0 36 22 56t53 20q28 0 46.5 -16.5t18.5 -45.5q0 -36 -22 -56t-52 -20q-29 0 -47.5 16.5zM273 4.5q-19 16.5 -19 44.5q0 36 22.5 56.5t52.5 20.5q29 0 47.5 -16.5t18.5 -45.5q0 -36 -22 -56t-53 -20q-28 0 -47 16.5zM493 4.5
q-19 16.5 -19 44.5q0 36 22.5 56.5t52.5 20.5q29 0 47.5 -16.5t18.5 -45.5q0 -36 -22 -56t-53 -20q-28 0 -47 16.5z" />
    <glyph glyph-name="perthousand" unicode="&#x2030;" horiz-adv-x="1128" 
d="M122 423q-36 38 -36 95q0 42 21 82.5t61 66t93 25.5q65 0 101 -39t36 -95q0 -43 -20.5 -83t-60 -65t-93.5 -25q-66 0 -102 38zM613 680h101l-507 -680h-102zM291.5 490q23.5 30 23.5 65q0 26 -14 44t-44 18q-42 0 -65 -30.5t-23 -66.5q0 -25 13.5 -42.5t43.5 -17.5
q42 0 65.5 30zM450 26.5q-36 38.5 -36 94.5q0 42 21 82.5t61 66t93 25.5q65 0 101 -39t36 -95q0 -43 -21 -83t-60.5 -65t-93.5 -25q-65 0 -101 38.5zM806.5 26.5q-36.5 38.5 -36.5 93.5q0 43 21.5 83.5t61.5 66t93 25.5q64 0 100.5 -38.5t36.5 -94.5q0 -43 -21 -83
t-60.5 -65.5t-93.5 -25.5q-65 0 -101.5 38.5zM619.5 93q22.5 30 22.5 66q0 25 -14 43t-43 18q-42 0 -65 -29.5t-23 -65.5q0 -26 13.5 -44t43.5 -18q43 0 65.5 30zM976 93q23 30 23 66q0 25 -14 43t-43 18q-42 0 -65 -29.5t-23 -65.5q0 -26 13 -44t43 -18q43 0 66 30z" />
    <glyph glyph-name="guilsinglleft" unicode="&#x2039;" horiz-adv-x="277" 
d="M30 245l157 197l78 -49l-117 -156l60 -156l-85 -36z" />
    <glyph glyph-name="guilsinglright" unicode="&#x203a;" horiz-adv-x="278" 
d="M20 95l118 160l-60 151l86 36l92 -197l-159 -200z" />
    <glyph glyph-name="fraction" unicode="&#x2044;" horiz-adv-x="136" 
d="M288 680h80l-471 -680h-81z" />
    <glyph glyph-name="Euro" unicode="&#x20ac;" horiz-adv-x="587" 
d="M348 533q-58 -35 -90 -97h221l-38 -70h-208q-6 -22 -8 -56h187l-39 -70h-146q11 -70 53.5 -108.5t119.5 -38.5q57 0 103 23l22 -98q-63 -30 -140 -30q-79 0 -139 32.5t-94.5 90t-41.5 129.5h-85l13 70h71q1 20 7 56h-68l12 70h75q40 110 131 173.5t218 63.5
q42 0 75.5 -7.5t68.5 -23.5l-50 -91q-43 17 -95 17q-77 0 -135 -35z" />
    <glyph glyph-name="uni20BD" unicode="&#x20bd;" horiz-adv-x="618" 
d="M542.5 638q43.5 -23 67 -63t23.5 -89q0 -18 -3 -36q-15 -87 -79.5 -143.5t-183.5 -56.5h-126l-10 -56h250l-13 -75h-251l-21 -119h-118l21 119h-87l13 75h88l10 56h-87l15 89h88l58 322h244q58 0 101.5 -23zM515 469q0 38 -26 64t-73 26h-120l-39 -220h104q69 0 107 32
t46 81q1 6 1 17z" />
    <glyph glyph-name="uni2113" unicode="&#x2113;" horiz-adv-x="448" 
d="M128.5 20q-32.5 32 -32.5 86q0 19 9 69q-7 -3 -46 -20l-22 -9l-26 66q70 28 109 47l40 232q17 96 62.5 148.5t120.5 52.5q62 0 96 -35.5t34 -94.5q0 -198 -277 -344q-7 -36 -11.5 -67.5t-4.5 -40.5q0 -22 15 -35t38 -13q47 0 87 29l33 -62q-27 -19 -61.5 -30t-69.5 -11
q-61 0 -93.5 32zM341.5 420.5q50.5 61.5 50.5 129.5q0 30 -13.5 47t-38.5 17q-74 0 -97 -130l-31 -174q79 49 129.5 110.5z" />
    <glyph glyph-name="uni2116" unicode="&#x2116;" horiz-adv-x="1049" 
d="M1041.5 659q35.5 -33 35.5 -86q0 -44 -21 -80t-58 -56t-82 -20q-57 0 -92.5 33t-35.5 86q0 44 21 80t58 56t82 20q57 0 92.5 -33zM629 680h118l-121 -684h-35l-291 388l-17 22l-42 56q-7 -58 -16 -109l-63 -353h-118l120 684h35l292 -381l18 -24q36 -50 40 -56l15 93z
M996 570q0 24 -14.5 37.5t-37.5 13.5q-28 0 -48 -16.5t-26 -48.5q-2 -10 -2 -16q0 -24 15 -38t37 -14q28 0 48 17t26 49q2 10 2 16zM769 367h263l-12 -70h-263z" />
    <glyph glyph-name="uni2117" unicode="&#x2117;" horiz-adv-x="776" 
d="M204 34q-67 37 -104 102t-37 147q0 32 6 65q16 94 71.5 170t139 120t182.5 44q85 0 151.5 -36t103.5 -100.5t37 -146.5q0 -32 -6 -67q-17 -96 -71.5 -172t-137.5 -119.5t-182 -43.5q-86 0 -153 37zM510 94q70 36 116.5 100t60.5 145q5 32 5 56q0 65 -27.5 116t-80 80
t-122.5 29q-83 0 -153.5 -36t-117 -99t-60.5 -142q-5 -25 -5 -58q0 -66 28 -117.5t80 -80.5t123 -29q83 0 153 36zM319 529h153q54 0 84.5 -29.5t30.5 -75.5q0 -17 -2 -26q-9 -51 -46 -84t-103 -33h-78l-22 -123h-82zM430 348q35 0 52.5 15.5t20.5 40.5q2 10 2 15
q0 41 -53 41h-63l-20 -112h61z" />
    <glyph glyph-name="trademark" unicode="&#x2122;" horiz-adv-x="658" 
d="M193 617h-82l11 63h232l-11 -63h-82l-38 -214h-68zM409 680h15l76 -136l126 136h22l-7 -277h-69l9 144l-82 -88h-15l-51 88l-46 -144h-69z" />
    <glyph glyph-name="uni2126" unicode="&#x2126;" horiz-adv-x="779" 
d="M38 98h118q-44 34 -68.5 90.5t-24.5 120.5q0 26 5 56q17 101 72.5 175t138.5 113t181 39q89 0 157.5 -35.5t106.5 -101t38 -150.5q0 -33 -6 -69q-12 -66 -56 -133t-105 -106h103l-17 -97h-268l15 94q84 29 144 95t76 149q5 32 5 54q0 91 -55.5 143.5t-144.5 52.5
q-65 0 -123 -25.5t-100 -79.5t-56 -133q-4 -23 -4 -50q0 -73 35.5 -129t95.5 -77l-14 -94h-266z" />
    <glyph glyph-name="estimated" unicode="&#x212e;" horiz-adv-x="773" 
d="M207 29q-69 39 -106.5 107t-37.5 150q0 32 6 63q17 99 73.5 181.5t142.5 131t187 48.5q86 0 149.5 -39t97 -106t33.5 -148q0 -25 -3 -49q-3 -25 -7 -41h-556l-28 -164q55 -117 217 -117q69 0 133 32.5t111 88.5l39 -39q-121 -138 -293 -138q-89 0 -158 39zM634 377
l30 172q-28 54 -76.5 80t-122.5 26q-71 0 -135.5 -30t-105.5 -83l-29 -165h439z" />
    <glyph glyph-name="uni2153" unicode="&#x2153;" horiz-adv-x="652" 
d="M165 576l-43 -33l-33 41l119 99h38l-50 -286h-64zM515 680h80l-471 -680h-81zM412 -1q-25 10 -40 28l34 44q23 -23 57 -23q22 0 36.5 9.5t18.5 25.5q1 3 1 8q0 13 -9 21.5t-26 8.5h-38l10 51h23q18 0 31 8t16 24q3 14 -5.5 22t-23.5 8q-26 0 -49 -18l-32 48q41 29 92 29
q34 0 59 -20.5t25 -51.5q0 -25 -13.5 -45t-39.5 -29q17 -5 30.5 -22.5t13.5 -40.5q0 -9 -1 -13q-7 -39 -37.5 -60.5t-76.5 -21.5q-31 0 -56 10z" />
    <glyph glyph-name="uni2154" unicode="&#x2154;" horiz-adv-x="714" 
d="M297 563.5q-10 -20.5 -31 -41.5l-67 -68h92l-9 -57h-203l3 24l132 132q15 15 21.5 26.5t6.5 24.5q0 11 -6.5 18t-18.5 7q-14 0 -26 -9.5t-20 -26.5l-53 28q35 70 106 70q36 0 59.5 -24t23.5 -59q0 -24 -10 -44.5zM577 680h80l-471 -680h-81zM474 -1q-25 10 -40 28l34 44
q23 -23 57 -23q22 0 36.5 9.5t18.5 25.5q1 3 1 8q0 13 -9 21.5t-26 8.5h-38l10 51h23q18 0 31 8t16 24q3 14 -5.5 22t-23.5 8q-26 0 -49 -18l-32 48q41 29 92 29q34 0 59 -20.5t25 -51.5q0 -25 -13.5 -45t-39.5 -29q17 -5 30.5 -22.5t13.5 -40.5q0 -9 -1 -13
q-7 -39 -37.5 -60.5t-76.5 -21.5q-31 0 -56 10z" />
    <glyph glyph-name="oneeighth" unicode="&#x215b;" horiz-adv-x="661" 
d="M165 576l-43 -33l-33 41l119 99h38l-50 -286h-64zM515 680h80l-471 -680h-81zM407 9.5q-28 20.5 -28 56.5q0 29 18.5 54.5t44.5 34.5q-27 17 -27 50q0 40 30 64.5t73 24.5q38 0 61.5 -19.5t23.5 -52.5q0 -51 -49 -73q38 -20 38 -64q0 -46 -33 -71t-82 -25q-42 0 -70 20.5
zM526.5 183q10.5 8 12.5 21q1 4 1 10q0 12 -7 18.5t-19 6.5q-32 0 -37 -32q-3 -15 5 -23.5t23 -8.5q11 0 21.5 8zM515.5 57.5q14.5 12.5 14.5 35.5q0 15 -9.5 23.5t-26.5 8.5q-19 0 -32.5 -11.5t-17.5 -28.5q-1 -3 -1 -9q0 -15 10.5 -23t25.5 -8q22 0 36.5 12.5z" />
    <glyph glyph-name="threeeighths" unicode="&#x215c;" horiz-adv-x="722" 
d="M119 396q-25 10 -40 28l34 44q23 -23 57 -23q22 0 36.5 9.5t18.5 25.5q1 3 1 8q0 13 -9 21.5t-26 8.5h-38l10 51h23q18 0 31 8t16 24q3 14 -5.5 22t-23.5 8q-26 0 -49 -18l-32 48q41 29 92 29q34 0 59 -20.5t25 -51.5q0 -25 -13.5 -45t-39.5 -29q17 -5 30.5 -22.5
t13.5 -40.5q0 -9 -1 -13q-7 -39 -37.5 -60.5t-76.5 -21.5q-31 0 -56 10zM576 680h80l-471 -680h-81zM468 9.5q-28 20.5 -28 56.5q0 29 18.5 54.5t44.5 34.5q-27 17 -27 50q0 40 30 64.5t73 24.5q38 0 61.5 -19.5t23.5 -52.5q0 -51 -49 -73q38 -20 38 -64q0 -46 -33 -71
t-82 -25q-42 0 -70 20.5zM587.5 183q10.5 8 12.5 21q1 4 1 10q0 12 -7 18.5t-19 6.5q-32 0 -37 -32q-3 -15 5 -23.5t23 -8.5q11 0 21.5 8zM576.5 57.5q14.5 12.5 14.5 35.5q0 15 -9.5 23.5t-26.5 8.5q-19 0 -32.5 -11.5t-17.5 -28.5q-1 -3 -1 -9q0 -15 10.5 -23t25.5 -8
q22 0 36.5 12.5z" />
    <glyph glyph-name="fiveeighths" unicode="&#x215d;" horiz-adv-x="718" 
d="M78 422l38 43q18 -21 51 -21q24 0 40.5 13.5t16.5 34.5q0 18 -14.5 29t-38.5 11q-23 0 -47 -10l-8 7l47 151h146l-10 -59h-93l-15 -47q4 1 13 1q35 0 59 -21.5t24 -58.5q0 -48 -33.5 -78.5t-83.5 -30.5q-58 0 -92 36zM572 680h80l-471 -680h-81zM464 9.5
q-28 20.5 -28 56.5q0 29 18.5 54.5t44.5 34.5q-27 17 -27 50q0 40 30 64.5t73 24.5q38 0 61.5 -19.5t23.5 -52.5q0 -51 -49 -73q38 -20 38 -64q0 -46 -33 -71t-82 -25q-42 0 -70 20.5zM583.5 183q10.5 8 12.5 21q1 4 1 10q0 12 -7 18.5t-19 6.5q-32 0 -37 -32
q-3 -15 5 -23.5t23 -8.5q11 0 21.5 8zM572.5 57.5q14.5 12.5 14.5 35.5q0 15 -9.5 23.5t-26.5 8.5q-19 0 -32.5 -11.5t-17.5 -28.5q-1 -3 -1 -9q0 -15 10.5 -23t25.5 -8q22 0 36.5 12.5z" />
    <glyph glyph-name="seveneighths" unicode="&#x215e;" horiz-adv-x="661" 
d="M216 621h-103l10 59h192l-3 -13l-153 -270h-71zM515 680h80l-471 -680h-81zM407 9.5q-28 20.5 -28 56.5q0 29 18.5 54.5t44.5 34.5q-27 17 -27 50q0 40 30 64.5t73 24.5q38 0 61.5 -19.5t23.5 -52.5q0 -51 -49 -73q38 -20 38 -64q0 -46 -33 -71t-82 -25q-42 0 -70 20.5z
M526.5 183q10.5 8 12.5 21q1 4 1 10q0 12 -7 18.5t-19 6.5q-32 0 -37 -32q-3 -15 5 -23.5t23 -8.5q11 0 21.5 8zM515.5 57.5q14.5 12.5 14.5 35.5q0 15 -9.5 23.5t-26.5 8.5q-19 0 -32.5 -11.5t-17.5 -28.5q-1 -3 -1 -9q0 -15 10.5 -23t25.5 -8q22 0 36.5 12.5z" />
    <glyph glyph-name="arrowleft" unicode="&#x2190;" horiz-adv-x="631" 
d="M265 261q-34 0 -54 1q22 -17 38 -35l97 -95l-69 -70l-252 252l253 252l68 -69l-94 -94l-41 -38q38 2 54 2h354v-106h-354z" />
    <glyph glyph-name="arrowup" unicode="&#x2191;" horiz-adv-x="532" 
d="M243 402q0 34 1 55q-12 -16 -35 -39l-96 -96l-69 69l252 252l251 -253l-68 -68l-94 93q-18 18 -39 42q2 -40 2 -55v-354h-105v354z" />
    <glyph glyph-name="arrowright" unicode="&#x2192;" horiz-adv-x="631" 
d="M412 442q33 0 54 -1q-8 7 -39 35l-96 96l69 69l252 -252l-253 -251l-68 68l94 94q11 11 41 38q-38 -2 -55 -2h-354v106h355z" />
    <glyph glyph-name="arrowdown" unicode="&#x2193;" horiz-adv-x="532" 
d="M335 302q0 -34 -1 -54q12 15 35 38l96 97l69 -69l-252 -252l-251 252l68 69l94 -94q18 -18 38 -41q-2 38 -2 54v354h106v-354z" />
    <glyph glyph-name="arrowboth" unicode="&#x2194;" horiz-adv-x="813" 
d="M32 353l253 251l68 -68l-94 -94q-19 -20 -42 -38q21 1 56 1h314q34 0 54 -1q-15 12 -38 35l-97 96l69 69l253 -251l-254 -252l-68 69l94 94l41 37q-18 -1 -54 -1h-315q-33 0 -54 1q8 -7 39 -35l96 -96l-69 -69z" />
    <glyph glyph-name="arrowupdn" unicode="&#x2195;" horiz-adv-x="584" 
d="M63 209l69 68l94 -94q11 -11 38 -41q-2 38 -2 55v314q0 34 1 54q-12 -15 -35 -38l-95 -97l-70 69l252 253l252 -253l-69 -69l-94 94q-10 10 -38 42q2 -42 2 -55v-315q0 -33 -1 -54q16 20 35 39l95 96l70 -69l-252 -252z" />
    <glyph glyph-name="uni2196" unicode="&#x2196;" horiz-adv-x="555" 
d="M205 325q-35 37 -37 40q2 -20 2 -52l1 -136l-98 -1v357l357 -1l-1 -97h-132q-15 0 -57 2q23 -20 40 -37l251 -250l-75 -75z" />
    <glyph glyph-name="uni2197" unicode="&#x2197;" horiz-adv-x="482" 
d="M254 428q11 12 39 38q-19 -2 -52 -2l-135 -1l-1 98h356v-357l-97 1v132q0 15 2 57q-20 -23 -37 -40l-251 -251l-74 75z" />
    <glyph glyph-name="uni2198" unicode="&#x2198;" horiz-adv-x="555" 
d="M389 345q12 -11 38 -39q-3 29 -3 52v135l98 1v-356h-357l1 97h132q16 0 56 -2l-40 37l-250 251l75 75z" />
    <glyph glyph-name="uni2199" unicode="&#x2199;" horiz-adv-x="482" 
d="M268 247q-31 -31 -39 -38q20 3 52 3l136 1v-98l-356 -1l1 357h97v-133q0 -14 -2 -56q39 42 37 40l250 250l75 -74z" />
    <glyph glyph-name="partialdiff" unicode="&#x2202;" horiz-adv-x="496" 
d="M122.5 9.5q-41.5 21.5 -66.5 62t-25 95.5q0 22 2 34q9 65 41 111t79 69.5t100 23.5q71 0 114 -43q-12 87 -64 154.5t-131 100.5l54 86q119 -55 180 -157.5t61 -228.5q0 -51 -8 -94q-19 -104 -80.5 -169.5t-165.5 -65.5q-49 0 -90.5 21.5zM307.5 119q31.5 36 40.5 85
q2 16 2 23q0 39 -24.5 62.5t-62.5 23.5q-46 0 -81 -31.5t-44 -89.5q-2 -14 -2 -20q0 -39 22.5 -64t62.5 -25q55 0 86.5 36z" />
    <glyph glyph-name="emptyset" unicode="&#x2205;" horiz-adv-x="819" 
d="M730 587q30 -36 46 -83.5t16 -101.5q0 -34 -6 -70q-18 -98 -73.5 -176t-141.5 -123t-191 -45q-129 0 -212 66l-65 -62h-79l105 100q-60 75 -60 185q0 35 6 72q18 98 73 176t141 122.5t194 44.5q125 0 208 -66l66 62h79zM151 278q0 -76 37 -130l446 423q-62 46 -154 46
q-85 0 -153 -35.5t-111.5 -98t-58.5 -142.5q-6 -33 -6 -63zM709 401q0 77 -38 130l-445 -422q60 -46 155 -46q83 0 151 35.5t112.5 98t58.5 142.5q6 32 6 62z" />
    <glyph glyph-name="uni2206" unicode="&#x2206;" horiz-adv-x="672" 
d="M400 684h34l194 -684h-662zM489 95l-104 369l-237 -369h341z" />
    <glyph glyph-name="product" unicode="&#x220f;" horiz-adv-x="701" 
d="M163 680h534l-119 -680h-117l101 578h-299l-101 -578h-118z" />
    <glyph glyph-name="summation" unicode="&#x2211;" horiz-adv-x="554" 
d="M4 45l258 295l-149 296l7 44h485l-18 -103h-328l131 -247l-201 -227h311l-18 -103h-485z" />
    <glyph glyph-name="minus" unicode="&#x2212;" horiz-adv-x="515" 
d="M88 386h396l-16 -91h-396z" />
    <glyph glyph-name="radical" unicode="&#x221a;" horiz-adv-x="615" 
d="M732 725l-443 -725h-60l-88 314h-114l17 97h176l62 -250l337 564h113z" />
    <glyph glyph-name="infinity" unicode="&#x221e;" horiz-adv-x="717" 
d="M138.5 211q-30.5 16 -49.5 46.5t-19 70.5q0 15 3 31q12 66 61 106t110 40q45 0 82 -24.5t62 -63.5q45 44 85 66t85 22q35 0 66 -16.5t50 -47t19 -69.5q0 -15 -3 -30q-8 -44 -33.5 -77.5t-62 -51.5t-75.5 -18q-84 0 -144 88q-43 -43 -83 -65.5t-87 -22.5q-36 0 -66.5 16z
M274 302.5q26 17.5 60 52.5q-20 29 -40 44.5t-45 15.5q-27 0 -50.5 -17t-29.5 -49q-1 -4 -1 -12q0 -23 15.5 -37.5t35.5 -14.5q29 0 55 17.5zM564.5 301.5q24.5 16.5 30.5 48.5q1 5 1 13q0 24 -15.5 38t-34.5 14q-29 0 -56 -17.5t-60 -52.5q39 -60 83 -60q27 0 51.5 16.5z
" />
    <glyph glyph-name="integral" unicode="&#x222b;" horiz-adv-x="453" 
d="M-72 -142l50 81q29 -25 62 -25q34 0 58 22t33 68l90 514q16 92 66.5 133t121.5 41q68 0 119 -43l-51 -76q-31 23 -63 23q-33 0 -57 -22t-33 -68l-90 -514q-16 -91 -66.5 -132.5t-119.5 -41.5q-68 0 -120 40z" />
    <glyph glyph-name="approxequal" unicode="&#x2248;" horiz-adv-x="574" 
d="M413 345q-42 0 -95 32q-31 19 -47 26.5t-34 7.5q-27 0 -44 -14t-36 -44l-70 46q25 54 60 82.5t85 28.5q26 0 49 -9.5t47 -25.5q25 -16 43 -23.5t36 -7.5q43 0 71 61l72 -44q-20 -50 -52 -81t-72 -34zM295 187q-6 3 -23 13.5t-31.5 15.5t-27.5 5q-26 0 -43 -14t-37 -45
l-69 47q25 54 60 82.5t84 28.5q43 0 97 -35q25 -16 43 -24t37 -8q24 0 40.5 17.5t29.5 44.5l72 -45q-22 -53 -56.5 -84t-78.5 -31q-47 0 -97 32z" />
    <glyph glyph-name="notequal" unicode="&#x2260;" horiz-adv-x="517" 
d="M345 391l-75 -100h188l-16 -90h-240l-77 -103l-38 24l59 79h-78l16 90h130l75 100h-187l16 90h238l78 104l40 -23l-61 -81h79l-16 -90h-131z" />
    <glyph glyph-name="lessequal" unicode="&#x2264;" horiz-adv-x="430" 
d="M64 370l16 91l364 144l-19 -108l-234 -86l204 -86l-17 -99zM27 161h339l-16 -90h-339z" />
    <glyph glyph-name="greaterequal" unicode="&#x2265;" horiz-adv-x="430" 
d="M73 336l231 85l-201 86l17 98l314 -144l-16 -91l-364 -144zM42 161h339l-16 -90h-339z" />
    <glyph glyph-name="lozenge" unicode="&#x25ca;" horiz-adv-x="555" 
d="M547 343l-290 -343h-34l-173 343l290 344h35zM261 153l169 200l-92 186l-170 -200z" />
    <glyph glyph-name="i.loclTRK" horiz-adv-x="237" 
d="M103 446h109l-78 -446h-109zM138 553.5q-16 16.5 -16 41.5q0 27 19 48t48 21q28 0 44 -17t16 -43q0 -27 -19 -47t-49 -20q-27 0 -43 16.5z" />
    <glyph glyph-name="germandbls.calt" horiz-adv-x="665" 
d="M656 642l-179 -225q68 -4 110 -50t42 -114q0 -73 -34 -130.5t-94.5 -90t-137.5 -32.5h-116l17 98h98q70 0 109.5 42t39.5 102q0 46 -26 69.5t-72 23.5h-61l13 75l132 172h-109q-60 0 -101.5 -38t-54.5 -107l-77 -437h-115l77 436q22 124 93.5 184.5t194.5 59.5h258z" />
    <glyph glyph-name="a.ss01" horiz-adv-x="486" 
d="M399.5 418.5q41.5 -34.5 41.5 -100.5q0 -18 -3 -39l-49 -279h-74l-9 69q-29 -36 -71.5 -57t-93.5 -21q-56 0 -90 29t-34 82q0 86 72.5 129t180.5 43q29 0 56 -3l4 20q2 12 2 16q0 28 -19.5 41.5t-52.5 13.5q-71 0 -151 -35l-24 80q102 46 196 46q77 0 118.5 -34.5z
M268.5 107.5q39.5 34.5 51.5 94.5q-23 3 -51 3q-57 0 -101 -20.5t-44 -64.5q0 -23 14.5 -35t42.5 -12q48 0 87.5 34.5z" />
    <glyph glyph-name="aacute.ss01" horiz-adv-x="486" 
d="M399.5 418.5q41.5 -34.5 41.5 -100.5q0 -18 -3 -39l-49 -279h-74l-9 69q-29 -36 -71.5 -57t-93.5 -21q-56 0 -90 29t-34 82q0 86 72.5 129t180.5 43q29 0 56 -3l4 20q2 12 2 16q0 28 -19.5 41.5t-52.5 13.5q-71 0 -151 -35l-24 80q102 46 196 46q77 0 118.5 -34.5z
M268.5 107.5q39.5 34.5 51.5 94.5q-23 3 -51 3q-57 0 -101 -20.5t-44 -64.5q0 -23 14.5 -35t42.5 -12q48 0 87.5 34.5zM194 575l159 119l51 -78l-171 -95z" />
    <glyph glyph-name="abreve.ss01" horiz-adv-x="486" 
d="M399.5 418.5q41.5 -34.5 41.5 -100.5q0 -18 -3 -39l-49 -279h-74l-9 69q-29 -36 -71.5 -57t-93.5 -21q-56 0 -90 29t-34 82q0 86 72.5 129t180.5 43q29 0 56 -3l4 20q2 12 2 16q0 28 -19.5 41.5t-52.5 13.5q-71 0 -151 -35l-24 80q102 46 196 46q77 0 118.5 -34.5z
M268.5 107.5q39.5 34.5 51.5 94.5q-23 3 -51 3q-57 0 -101 -20.5t-44 -64.5q0 -23 14.5 -35t42.5 -12q48 0 87.5 34.5zM200.5 549q-35.5 29 -39.5 80l59 26q11 -57 69 -57q33 0 57.5 16t34.5 41l59 -26q-16 -54 -57.5 -81.5t-93.5 -27.5q-53 0 -88.5 29z" />
    <glyph glyph-name="acircumflex.ss01" horiz-adv-x="486" 
d="M399.5 418.5q41.5 -34.5 41.5 -100.5q0 -18 -3 -39l-49 -279h-74l-9 69q-29 -36 -71.5 -57t-93.5 -21q-56 0 -90 29t-34 82q0 86 72.5 129t180.5 43q29 0 56 -3l4 20q2 12 2 16q0 28 -19.5 41.5t-52.5 13.5q-71 0 -151 -35l-24 80q102 46 196 46q77 0 118.5 -34.5z
M268.5 107.5q39.5 34.5 51.5 94.5q-23 3 -51 3q-57 0 -101 -20.5t-44 -64.5q0 -23 14.5 -35t42.5 -12q48 0 87.5 34.5zM144 565l152 106h18l118 -108l-44 -48l-93 67l-113 -67z" />
    <glyph glyph-name="adieresis.ss01" horiz-adv-x="486" 
d="M399.5 418.5q41.5 -34.5 41.5 -100.5q0 -18 -3 -39l-49 -279h-74l-9 69q-29 -36 -71.5 -57t-93.5 -21q-56 0 -90 29t-34 82q0 86 72.5 129t180.5 43q29 0 56 -3l4 20q2 12 2 16q0 28 -19.5 41.5t-52.5 13.5q-71 0 -151 -35l-24 80q102 46 196 46q77 0 118.5 -34.5z
M268.5 107.5q39.5 34.5 51.5 94.5q-23 3 -51 3q-57 0 -101 -20.5t-44 -64.5q0 -23 14.5 -35t42.5 -12q48 0 87.5 34.5zM154.5 559q-15.5 16 -15.5 39t18 42.5t44 19.5t41 -16t15 -39q0 -25 -17 -43.5t-44 -18.5q-26 0 -41.5 16zM348.5 559q-15.5 16 -15.5 39l1 11
q3 20 20 35.5t40 15.5q26 0 41 -16t15 -39q0 -24 -17.5 -43t-43.5 -19q-25 0 -40.5 16z" />
    <glyph glyph-name="agrave.ss01" horiz-adv-x="486" 
d="M399.5 418.5q41.5 -34.5 41.5 -100.5q0 -18 -3 -39l-49 -279h-74l-9 69q-29 -36 -71.5 -57t-93.5 -21q-56 0 -90 29t-34 82q0 86 72.5 129t180.5 43q29 0 56 -3l4 20q2 12 2 16q0 28 -19.5 41.5t-52.5 13.5q-71 0 -151 -35l-24 80q102 46 196 46q77 0 118.5 -34.5z
M268.5 107.5q39.5 34.5 51.5 94.5q-23 3 -51 3q-57 0 -101 -20.5t-44 -64.5q0 -23 14.5 -35t42.5 -12q48 0 87.5 34.5zM172 622l69 70l124 -124l-49 -47z" />
    <glyph glyph-name="amacron.ss01" horiz-adv-x="486" 
d="M399.5 418.5q41.5 -34.5 41.5 -100.5q0 -18 -3 -39l-49 -279h-74l-9 69q-29 -36 -71.5 -57t-93.5 -21q-56 0 -90 29t-34 82q0 86 72.5 129t180.5 43q29 0 56 -3l4 20q2 12 2 16q0 28 -19.5 41.5t-52.5 13.5q-71 0 -151 -35l-24 80q102 46 196 46q77 0 118.5 -34.5z
M268.5 107.5q39.5 34.5 51.5 94.5q-23 3 -51 3q-57 0 -101 -20.5t-44 -64.5q0 -23 14.5 -35t42.5 -12q48 0 87.5 34.5zM160 626h275l-15 -79h-274z" />
    <glyph glyph-name="aogonek.ss01" horiz-adv-x="486" 
d="M399.5 418.5q41.5 -34.5 41.5 -100.5q0 -18 -3 -39l-49 -279q-43 -30 -70.5 -60.5t-27.5 -52.5q0 -23 24 -23q23 0 42 13l16 -71q-40 -26 -91 -26q-41 0 -64 21t-23 55q0 9 1 14q7 70 117 147l-7 52q-29 -36 -71.5 -57t-93.5 -21q-56 0 -90 29t-34 82q0 86 72.5 129
t180.5 43q29 0 56 -3l4 20q2 12 2 16q0 28 -19.5 41.5t-52.5 13.5q-71 0 -151 -35l-24 80q102 46 196 46q77 0 118.5 -34.5zM268.5 107.5q39.5 34.5 51.5 94.5q-23 3 -51 3q-57 0 -101 -20.5t-44 -64.5q0 -23 14.5 -35t42.5 -12q48 0 87.5 34.5z" />
    <glyph glyph-name="aring.ss01" horiz-adv-x="486" 
d="M399.5 418.5q41.5 -34.5 41.5 -100.5q0 -18 -3 -39l-49 -279h-74l-9 69q-29 -36 -71.5 -57t-93.5 -21q-56 0 -90 29t-34 82q0 86 72.5 129t180.5 43q29 0 56 -3l4 20q2 12 2 16q0 28 -19.5 41.5t-52.5 13.5q-71 0 -151 -35l-24 80q102 46 196 46q77 0 118.5 -34.5z
M268.5 107.5q39.5 34.5 51.5 94.5q-23 3 -51 3q-57 0 -101 -20.5t-44 -64.5q0 -23 14.5 -35t42.5 -12q48 0 87.5 34.5zM211 525.5q-28 25.5 -28 66.5q0 49 36 82t86 33q44 0 72 -26t28 -66q0 -49 -35.5 -82t-86.5 -33q-44 0 -72 25.5zM322.5 570q15.5 13 19.5 34
q3 20 -8.5 33.5t-31.5 13.5q-24 0 -40 -16t-16 -39q0 -17 11 -28t29 -11q21 0 36.5 13z" />
    <glyph glyph-name="atilde.ss01" horiz-adv-x="486" 
d="M399.5 418.5q41.5 -34.5 41.5 -100.5q0 -18 -3 -39l-49 -279h-74l-9 69q-29 -36 -71.5 -57t-93.5 -21q-56 0 -90 29t-34 82q0 86 72.5 129t180.5 43q29 0 56 -3l4 20q2 12 2 16q0 28 -19.5 41.5t-52.5 13.5q-71 0 -151 -35l-24 80q102 46 196 46q77 0 118.5 -34.5z
M268.5 107.5q39.5 34.5 51.5 94.5q-23 3 -51 3q-57 0 -101 -20.5t-44 -64.5q0 -23 14.5 -35t42.5 -12q48 0 87.5 34.5zM146 573q32 75 91 75q25 0 61 -16q28 -11 39 -11q12 0 22.5 7.5t21.5 24.5l56 -38q-35 -72 -89 -72q-23 0 -57 16q-28 12 -42 12t-25 -8t-22 -26z" />
    <glyph glyph-name="ae.ss01" horiz-adv-x="737" 
d="M411 189v-3q0 -53 27 -81t80 -28q68 0 124 36l35 -72q-38 -26 -81.5 -39.5t-88.5 -13.5q-58 0 -99 25t-61 71q-66 -96 -187 -96q-63 0 -101 32t-38 90q0 86 71 127.5t177 41.5q29 0 57 -4l4 24q1 4 1 13q0 28 -20 41.5t-55 13.5t-74 -10t-74 -25l-23 78q96 46 181 46
q49 0 84.5 -18.5t50.5 -57.5q65 76 165 76q69 0 109.5 -35t40.5 -91q0 -74 -59.5 -113t-149.5 -39q-46 0 -96 11zM471 339q-34 -29 -49 -78q42 -7 78 -7q51 0 83 17t32 51q0 23 -16.5 34.5t-44.5 11.5q-49 0 -83 -29zM266.5 107.5q33.5 34.5 47.5 98.5q-22 2 -40 2
q-61 0 -104 -20t-44 -66q0 -23 14.5 -36t44.5 -13q48 0 81.5 34.5z" />
    <glyph glyph-name="aeacute.ss01" horiz-adv-x="737" 
d="M411 189v-3q0 -53 27 -81t80 -28q68 0 124 36l35 -72q-38 -26 -81.5 -39.5t-88.5 -13.5q-58 0 -99 25t-61 71q-66 -96 -187 -96q-63 0 -101 32t-38 90q0 86 71 127.5t177 41.5q29 0 57 -4l4 24q1 4 1 13q0 28 -20 41.5t-55 13.5t-74 -10t-74 -25l-23 78q96 46 181 46
q49 0 84.5 -18.5t50.5 -57.5q65 76 165 76q69 0 109.5 -35t40.5 -91q0 -74 -59.5 -113t-149.5 -39q-46 0 -96 11zM471 339q-34 -29 -49 -78q42 -7 78 -7q51 0 83 17t32 51q0 23 -16.5 34.5t-44.5 11.5q-49 0 -83 -29zM266.5 107.5q33.5 34.5 47.5 98.5q-22 2 -40 2
q-61 0 -104 -20t-44 -66q0 -23 14.5 -36t44.5 -13q48 0 81.5 34.5zM337 575l159 119l51 -78l-171 -95z" />
    <glyph glyph-name="g.ss01" horiz-adv-x="482" 
d="M485 377l-70 -8q30 -35 30 -77q0 -7 -2 -21q-10 -66 -65.5 -110t-145.5 -44q-46 0 -84 16q-13 -10 -16 -26q-5 -40 50 -44l116 -10q59 -5 91.5 -32.5t32.5 -74.5q0 -50 -30.5 -90.5t-87 -64t-132.5 -23.5q-97 0 -146.5 39t-49.5 100q0 9 2 25q5 29 22.5 56.5t43.5 45.5
q-17 23 -17 54q0 28 14.5 52.5t42.5 42.5q-25 35 -25 83q0 19 2 29q12 70 68 116t147 46q49 0 116 -7q70 -6 105 -6zM341 305q0 29 -18.5 48.5t-51.5 19.5q-40 0 -67.5 -25.5t-34.5 -63.5q-2 -12 -2 -16q0 -30 18.5 -49.5t51.5 -19.5q40 0 67.5 25.5t34.5 63.5q2 12 2 17z
M124 -17q-33 -22 -39 -60q-1 -4 -1 -11q0 -28 24 -45t73 -17q53 0 91.5 21t38.5 56t-53 40l-84 8q-25 1 -50 8z" />
    <glyph glyph-name="gbreve.ss01" horiz-adv-x="482" 
d="M485 377l-70 -8q30 -35 30 -77q0 -7 -2 -21q-10 -66 -65.5 -110t-145.5 -44q-46 0 -84 16q-13 -10 -16 -26q-5 -40 50 -44l116 -10q59 -5 91.5 -32.5t32.5 -74.5q0 -50 -30.5 -90.5t-87 -64t-132.5 -23.5q-97 0 -146.5 39t-49.5 100q0 9 2 25q5 29 22.5 56.5t43.5 45.5
q-17 23 -17 54q0 28 14.5 52.5t42.5 42.5q-25 35 -25 83q0 19 2 29q12 70 68 116t147 46q49 0 116 -7q70 -6 105 -6zM341 305q0 29 -18.5 48.5t-51.5 19.5q-40 0 -67.5 -25.5t-34.5 -63.5q-2 -12 -2 -16q0 -30 18.5 -49.5t51.5 -19.5q40 0 67.5 25.5t34.5 63.5q2 12 2 17z
M124 -17q-33 -22 -39 -60q-1 -4 -1 -11q0 -28 24 -45t73 -17q53 0 91.5 21t38.5 56t-53 40l-84 8q-25 1 -50 8zM219.5 549q-35.5 29 -39.5 80l59 26q11 -57 69 -57q33 0 57.5 16t34.5 41l59 -26q-16 -54 -57.5 -81.5t-93.5 -27.5q-53 0 -88.5 29z" />
    <glyph glyph-name="gcircumflex.ss01" horiz-adv-x="482" 
d="M485 377l-70 -8q30 -35 30 -77q0 -7 -2 -21q-10 -66 -65.5 -110t-145.5 -44q-46 0 -84 16q-13 -10 -16 -26q-5 -40 50 -44l116 -10q59 -5 91.5 -32.5t32.5 -74.5q0 -50 -30.5 -90.5t-87 -64t-132.5 -23.5q-97 0 -146.5 39t-49.5 100q0 9 2 25q5 29 22.5 56.5t43.5 45.5
q-17 23 -17 54q0 28 14.5 52.5t42.5 42.5q-25 35 -25 83q0 19 2 29q12 70 68 116t147 46q49 0 116 -7q70 -6 105 -6zM341 305q0 29 -18.5 48.5t-51.5 19.5q-40 0 -67.5 -25.5t-34.5 -63.5q-2 -12 -2 -16q0 -30 18.5 -49.5t51.5 -19.5q40 0 67.5 25.5t34.5 63.5q2 12 2 17z
M124 -17q-33 -22 -39 -60q-1 -4 -1 -11q0 -28 24 -45t73 -17q53 0 91.5 21t38.5 56t-53 40l-84 8q-25 1 -50 8zM162 565l152 106h18l118 -108l-44 -48l-93 67l-113 -67z" />
    <glyph glyph-name="uni0123.ss01" horiz-adv-x="482" 
d="M485 377l-70 -8q30 -35 30 -77q0 -7 -2 -21q-10 -66 -65.5 -110t-145.5 -44q-46 0 -84 16q-13 -10 -16 -26q-5 -40 50 -44l116 -10q59 -5 91.5 -32.5t32.5 -74.5q0 -50 -30.5 -90.5t-87 -64t-132.5 -23.5q-97 0 -146.5 39t-49.5 100q0 9 2 25q5 29 22.5 56.5t43.5 45.5
q-17 23 -17 54q0 28 14.5 52.5t42.5 42.5q-25 35 -25 83q0 19 2 29q12 70 68 116t147 46q49 0 116 -7q70 -6 105 -6zM341 305q0 29 -18.5 48.5t-51.5 19.5q-40 0 -67.5 -25.5t-34.5 -63.5q-2 -12 -2 -16q0 -30 18.5 -49.5t51.5 -19.5q40 0 67.5 25.5t34.5 63.5q2 12 2 17z
M124 -17q-33 -22 -39 -60q-1 -4 -1 -11q0 -28 24 -45t73 -17q53 0 91.5 21t38.5 56t-53 40l-84 8q-25 1 -50 8zM336 718h73q-44 -99 -61 -188h-100q29 119 88 188z" />
    <glyph glyph-name="gdotaccent.ss01" horiz-adv-x="482" 
d="M485 377l-70 -8q30 -35 30 -77q0 -7 -2 -21q-10 -66 -65.5 -110t-145.5 -44q-46 0 -84 16q-13 -10 -16 -26q-5 -40 50 -44l116 -10q59 -5 91.5 -32.5t32.5 -74.5q0 -50 -30.5 -90.5t-87 -64t-132.5 -23.5q-97 0 -146.5 39t-49.5 100q0 9 2 25q5 29 22.5 56.5t43.5 45.5
q-17 23 -17 54q0 28 14.5 52.5t42.5 42.5q-25 35 -25 83q0 19 2 29q12 70 68 116t147 46q49 0 116 -7q70 -6 105 -6zM341 305q0 29 -18.5 48.5t-51.5 19.5q-40 0 -67.5 -25.5t-34.5 -63.5q-2 -12 -2 -16q0 -30 18.5 -49.5t51.5 -19.5q40 0 67.5 25.5t34.5 63.5q2 12 2 17z
M124 -17q-33 -22 -39 -60q-1 -4 -1 -11q0 -28 24 -45t73 -17q53 0 91.5 21t38.5 56t-53 40l-84 8q-25 1 -50 8zM265 553.5q-16 16.5 -16 41.5q0 27 19 48t48 21q28 0 44 -17t16 -43q0 -27 -19 -47t-49 -20q-27 0 -43 16.5z" />
    <glyph glyph-name="y.ss01" horiz-adv-x="524" 
d="M-6 -163l52 78q48 -49 121 -49q54 0 92.5 30t48.5 86l12 70q-56 -63 -133 -63q-66 0 -104 39.5t-38 102.5q0 12 4 38l49 277h109l-48 -276q-2 -14 -2 -20q0 -28 16 -45.5t47 -17.5q52 0 85.5 36t43.5 91l40 232h110l-84 -474q-18 -104 -84.5 -154t-159.5 -50
q-110 0 -177 69z" />
    <glyph glyph-name="yacute.ss01" horiz-adv-x="524" 
d="M-6 -163l52 78q48 -49 121 -49q54 0 92.5 30t48.5 86l12 70q-56 -63 -133 -63q-66 0 -104 39.5t-38 102.5q0 12 4 38l49 277h109l-48 -276q-2 -14 -2 -20q0 -28 16 -45.5t47 -17.5q52 0 85.5 36t43.5 91l40 232h110l-84 -474q-18 -104 -84.5 -154t-159.5 -50
q-110 0 -177 69zM222 575l159 119l51 -78l-171 -95z" />
    <glyph glyph-name="ycircumflex.ss01" horiz-adv-x="524" 
d="M-6 -163l52 78q48 -49 121 -49q54 0 92.5 30t48.5 86l12 70q-56 -63 -133 -63q-66 0 -104 39.5t-38 102.5q0 12 4 38l49 277h109l-48 -276q-2 -14 -2 -20q0 -28 16 -45.5t47 -17.5q52 0 85.5 36t43.5 91l40 232h110l-84 -474q-18 -104 -84.5 -154t-159.5 -50
q-110 0 -177 69zM172 565l152 106h18l118 -108l-44 -48l-93 67l-113 -67z" />
    <glyph glyph-name="ydieresis.ss01" horiz-adv-x="524" 
d="M-6 -163l52 78q48 -49 121 -49q54 0 92.5 30t48.5 86l12 70q-56 -63 -133 -63q-66 0 -104 39.5t-38 102.5q0 12 4 38l49 277h109l-48 -276q-2 -14 -2 -20q0 -28 16 -45.5t47 -17.5q52 0 85.5 36t43.5 91l40 232h110l-84 -474q-18 -104 -84.5 -154t-159.5 -50
q-110 0 -177 69zM182.5 559q-15.5 16 -15.5 39t18 42.5t44 19.5t41 -16t15 -39q0 -25 -17 -43.5t-44 -18.5q-26 0 -41.5 16zM376.5 559q-15.5 16 -15.5 39l1 11q3 20 20 35.5t40 15.5q26 0 41 -16t15 -39q0 -24 -17.5 -43t-43.5 -19q-25 0 -40.5 16z" />
    <glyph glyph-name="ygrave.ss01" horiz-adv-x="524" 
d="M-6 -163l52 78q48 -49 121 -49q54 0 92.5 30t48.5 86l12 70q-56 -63 -133 -63q-66 0 -104 39.5t-38 102.5q0 12 4 38l49 277h109l-48 -276q-2 -14 -2 -20q0 -28 16 -45.5t47 -17.5q52 0 85.5 36t43.5 91l40 232h110l-84 -474q-18 -104 -84.5 -154t-159.5 -50
q-110 0 -177 69zM200 622l69 70l124 -124l-49 -47z" />
    <glyph glyph-name="f_b" horiz-adv-x="917" 
d="M832 405.5q49 -51.5 49 -136.5q0 -32 -5 -57q-18 -102 -82.5 -162.5t-162.5 -60.5q-52 0 -92 21t-63 59l-30 -69h-76l106 607q-21 15 -45.5 22t-57.5 7q-46 0 -74 -24.5t-36 -68.5l-17 -97h123l-16 -92h-123l-63 -354h-109l62 354h-81l16 92h81l20 112q15 86 65.5 130.5
t132.5 44.5q45 0 79.5 -12t63.5 -36l16 35h92l-47 -268q-4 -24 -12 -51q31 28 70 42t81 14q86 0 135 -51.5zM771 255q0 50 -28 78t-78 28q-59 0 -100 -38.5t-51 -97.5q-3 -16 -3 -31q0 -49 29 -79.5t80 -30.5q56 0 96 37t52 99q3 18 3 35z" />
    <glyph glyph-name="f_f_b" horiz-adv-x="1264" 
d="M1180 405q49 -52 49 -137q0 -24 -5 -56q-18 -102 -82.5 -162.5t-162.5 -60.5q-52 0 -92.5 21.5t-62.5 59.5l-31 -70h-76l107 607q-21 15 -46 22t-59 7q-48 0 -77 -24.5t-37 -68.5l-17 -97h123l-16 -92h-123l-63 -354h-109l62 354h-233l-62 -354h-109l62 354h-81l16 92h81
l21 118q14 82 60.5 125.5t121.5 43.5q34 0 60.5 -7t54.5 -23l-40 -79q-15 7 -28 9.5t-31 2.5q-39 0 -62 -22.5t-29 -62.5l-18 -105h232l20 112q15 86 66 130.5t137 44.5q45 0 79.5 -12t64.5 -36l16 35h92l-47 -268q-4 -25 -12 -50q31 27 70 41t81 14q86 0 135 -52zM1119 255
q0 49 -28.5 77.5t-78.5 28.5q-58 0 -99 -38.5t-51 -97.5q-3 -16 -3 -31q0 -49 28.5 -79.5t80.5 -30.5q56 0 96 37t52 99q3 18 3 35z" />
    <glyph glyph-name="f_f_h" horiz-adv-x="1217" 
d="M1139.5 423q33.5 -35 33.5 -98q0 -25 -4 -48l-49 -277h-110l49 275q2 16 2 22q0 30 -16.5 46.5t-48.5 16.5q-50 0 -84.5 -37.5t-44.5 -92.5l-40 -230h-110l107 606q-21 15 -45.5 22.5t-59.5 7.5q-48 0 -77 -24.5t-37 -68.5l-17 -97h123l-16 -92h-123l-63 -354h-109
l62 354h-233l-62 -354h-109l62 354h-81l16 92h81l21 118q14 82 60.5 125.5t121.5 43.5q34 0 60.5 -7t54.5 -23l-40 -79q-15 7 -28 9.5t-31 2.5q-39 0 -62 -22.5t-29 -62.5l-18 -105h232l20 112q15 86 66 130.5t137 44.5q44 0 79 -12t66 -35l15 34h92l-43 -245
q-6 -35 -19 -86q64 69 149 69q66 0 99.5 -35z" />
    <glyph glyph-name="f_f_j" horiz-adv-x="933" 
d="M818 -63q-28 -163 -170 -163q-58 0 -102 25l39 88q25 -14 50 -14q32 0 51.5 23t25.5 58l71 400h-213l-62 -354h-109l63 354h-233l-62 -354h-109l62 354h-81l16 92h81l21 118q14 82 60.5 125.5t121.5 43.5q34 0 60.5 -7t54.5 -23l-40 -79q-15 7 -28 9.5t-31 2.5
q-39 0 -62 -22.5t-29 -62.5l-18 -105h232l19 108q31 179 216 179q59 0 103 -16t87 -52l-51 -73q-27 23 -56.5 33.5t-66.5 10.5q-58 0 -87.5 -25t-38.5 -72l-16 -93h321z" />
    <glyph glyph-name="f_f_k" horiz-adv-x="1158" 
d="M1174 443l-213 -216l151 -224v-3h-118l-134 195l-34 -195h-109l107 607q-21 15 -46 22t-59 7q-48 0 -77 -24.5t-37 -68.5l-17 -97h123l-16 -92h-123l-63 -354h-109l62 354h-233l-62 -354h-109l62 354h-81l16 92h81l21 118q14 82 60.5 125.5t121.5 43.5q34 0 60.5 -7
t54.5 -23l-40 -79q-15 7 -28 9.5t-31 2.5q-39 0 -62 -22.5t-29 -62.5l-18 -105h232l20 112q15 86 66 130.5t137 44.5q84 0 145 -48l16 35h91l-79 -446l170 172h130v-3z" />
    <glyph glyph-name="f_h" horiz-adv-x="870" 
d="M792 423.5q34 -34.5 34 -97.5q0 -21 -5 -49l-49 -277h-109l48 275q2 8 2 23q0 30 -16.5 46t-48.5 16q-50 0 -85 -37.5t-44 -92.5l-40 -230h-109l107 607q-43 29 -104 29q-46 0 -74 -24.5t-36 -68.5l-17 -97h123l-16 -92h-123l-63 -354h-109l62 354h-81l16 92h81l20 112
q15 86 65.5 130.5t132.5 44.5q45 0 80 -12t64 -36l15 35h92l-43 -245q-9 -49 -18 -86q62 69 148 69q66 0 100 -34.5z" />
    <glyph glyph-name="f_j" horiz-adv-x="590" 
d="M476 -63q-29 -163 -170 -163q-58 0 -102 25l39 88q23 -14 50 -14q32 0 51 23t26 58l71 400h-212l-62 -354h-109l62 354h-81l16 92h82l19 110q31 177 213 177q62 0 109.5 -17t93.5 -51l-51 -75q-61 46 -140 46q-101 0 -119 -97l-16 -93h320z" />
    <glyph glyph-name="f_k" horiz-adv-x="811" 
d="M827 443l-214 -216l151 -224v-3h-118l-133 195l-34 -195h-109l106 607q-21 15 -45.5 22t-57.5 7q-46 0 -74 -24.5t-36 -68.5l-17 -97h123l-16 -92h-123l-63 -354h-109l62 354h-81l16 92h81l20 112q15 86 65 130.5t133 44.5q45 0 79.5 -12t63.5 -36l16 35h93l-79 -446
l170 172h130v-3z" />
    <glyph glyph-name="uni0414.loclBGR" horiz-adv-x="743" 
d="M714 104l-45 -256h-111l27 152h-505l-27 -152h-111l45 256h77l363 577h49l159 -577h79zM383 420q-3 -6 -11 -18l-188 -302h338l-79 302q-11 39 -20 88q-12 -26 -40 -70z" />
    <glyph glyph-name="uni041B.loclBGR" horiz-adv-x="689" 
d="M646 2v-2h-120l-102 364q-19 68 -28 117q-35 -69 -66 -117l-231 -364h-132v2l442 682h36z" />
    <glyph glyph-name="uni0424.loclBGR" horiz-adv-x="894" 
d="M739.5 639q64.5 -40 99 -102t34.5 -139q0 -31 -6 -64q-17 -91 -69.5 -165.5t-138 -121t-196.5 -55.5l-18 -102h-115l19 104q-88 11 -152.5 51t-99 102.5t-34.5 139.5q0 30 6 63q16 92 67.5 166.5t136.5 120.5t199 55l19 104h114l-18 -106q88 -11 152.5 -51zM754 393
q0 79 -49 131.5t-141 63.5l-85 -489q111 15 181.5 81t88.5 164q5 28 5 49zM183 293q0 -79 48 -131.5t140 -63.5l85 488q-112 -15 -182 -81t-87 -163q-4 -23 -4 -49z" />
    <glyph glyph-name="uni0414.ss02" horiz-adv-x="743" 
d="M714 104l-45 -256h-111l27 152h-505l-27 -152h-111l45 256h77l363 577h49l159 -577h79zM383 420q-3 -6 -11 -18l-188 -302h338l-79 302q-11 39 -20 88q-12 -26 -40 -70z" />
    <glyph glyph-name="uni041B.ss02" horiz-adv-x="689" 
d="M646 2v-2h-120l-102 364q-19 68 -28 117q-35 -69 -66 -117l-231 -364h-132v2l442 682h36z" />
    <glyph glyph-name="uni0424.ss02" horiz-adv-x="894" 
d="M739.5 639q64.5 -40 99 -102t34.5 -139q0 -31 -6 -64q-17 -91 -69.5 -165.5t-138 -121t-196.5 -55.5l-18 -102h-115l19 104q-88 11 -152.5 51t-99 102.5t-34.5 139.5q0 30 6 63q16 92 67.5 166.5t136.5 120.5t199 55l19 104h114l-18 -106q88 -11 152.5 -51zM754 393
q0 79 -49 131.5t-141 63.5l-85 -489q111 15 181.5 81t88.5 164q5 28 5 49zM183 293q0 -79 48 -131.5t140 -63.5l85 488q-112 -15 -182 -81t-87 -163q-4 -23 -4 -49z" />
    <glyph glyph-name="uni0414.ss03" horiz-adv-x="743" 
d="M714 104l-45 -256h-111l27 152h-505l-27 -152h-111l45 256h77l363 577h49l159 -577h79zM383 420q-3 -6 -11 -18l-188 -302h338l-79 302q-11 39 -20 88q-12 -26 -40 -70z" />
    <glyph glyph-name="uni041B.ss03" horiz-adv-x="689" 
d="M646 2v-2h-120l-102 364q-19 68 -28 117q-35 -69 -66 -117l-231 -364h-132v2l442 682h36z" />
    <glyph glyph-name="uni0424.ss03" horiz-adv-x="894" 
d="M739.5 639q64.5 -40 99 -102t34.5 -139q0 -31 -6 -64q-17 -91 -69.5 -165.5t-138 -121t-196.5 -55.5l-18 -102h-115l19 104q-88 11 -152.5 51t-99 102.5t-34.5 139.5q0 30 6 63q16 92 67.5 166.5t136.5 120.5t199 55l19 104h114l-18 -106q88 -11 152.5 -51zM754 393
q0 79 -49 131.5t-141 63.5l-85 -489q111 15 181.5 81t88.5 164q5 28 5 49zM183 293q0 -79 48 -131.5t140 -63.5l85 488q-112 -15 -182 -81t-87 -163q-4 -23 -4 -49z" />
    <glyph glyph-name="uni0432.loclBGR" horiz-adv-x="552" 
d="M493.5 451.5q-33.5 -40.5 -84.5 -68.5q50 -14 77.5 -53t27.5 -94q0 -17 -3 -37q-17 -97 -88 -154t-177 -57q-88 0 -140 52.5t-52 151.5q0 38 7 77l25 141q26 150 101 225t187 75q76 0 120 -38t44 -101q0 -16 -3 -33q-8 -46 -41.5 -86.5zM409.5 598.5
q-17.5 16.5 -51.5 16.5q-57 0 -98.5 -48t-58.5 -142l-8 -46l81 24q73 22 113 60t40 88q0 31 -17.5 47.5zM402 234q0 41 -23 64t-64 23q-31 0 -64 -10l-74 -23l-6 -36q-5 -35 -5 -57q0 -109 90 -109q56 0 95 33.5t49 88.5q2 9 2 26z" />
    <glyph glyph-name="uni0433.loclBGR" horiz-adv-x="400" 
d="M57 22q-43 33 -44 89q0 62 42.5 98.5t122.5 61.5q47 15 67.5 29t20.5 36q0 15 -13.5 24t-37.5 9q-51 0 -110 -28l-28 76q67 37 148 37q65 0 105 -32t40 -83q0 -58 -38 -92.5t-110 -56.5q-51 -16 -76 -31.5t-24 -40.5q0 -20 16.5 -30.5t44.5 -10.5q60 0 119 39l34 -79
q-80 -48 -167 -48q-69 0 -112 33z" />
    <glyph glyph-name="uni0434.loclBGR" horiz-adv-x="571" 
d="M545 446l-82 -472q-18 -103 -88 -154.5t-172 -51.5q-117 0 -195 73l52 80q61 -55 139 -55q63 0 104 30.5t52 87.5q7 36 15 66q-65 -58 -154 -58q-84 0 -132.5 51.5t-48.5 135.5q0 22 5 54q18 101 84 162.5t161 61.5q51 0 90.5 -20t62.5 -58l34 67h73zM405 255
q0 47 -27.5 76.5t-79.5 29.5q-57 0 -97.5 -37t-51.5 -101q-3 -18 -3 -33q0 -49 28.5 -77t75.5 -28q60 0 100 38.5t52 101.5q3 15 3 30z" />
    <glyph glyph-name="uni0436.loclBGR" horiz-adv-x="669" 
d="M685 443l-202 -216l139 -225v-2h-116l-120 197l-35 -197h-109l35 199l-180 -199h-129v2l225 238l-129 203v3h115l110 -179l77 432h109l-76 -431l160 178h126v-3z" />
    <glyph glyph-name="uni0437.loclBGR" horiz-adv-x="408" 
d="M-79 -182l47 83q29 -19 60.5 -27.5t72.5 -8.5q65 0 102.5 37t37.5 95q0 41 -26 62.5t-75 21.5h-75l16 89h63q48 0 79 27t39 70q2 12 2 18q0 34 -22 53.5t-62 19.5q-28 0 -52 -6t-54 -20l-21 83q80 40 154 40q78 0 122 -38.5t44 -105.5q0 -18 -3 -38q-10 -49 -35.5 -83.5
t-67.5 -58.5q39 -18 62 -53t23 -84q0 -11 -4 -39q-15 -87 -79.5 -137t-167.5 -50t-180 50z" />
    <glyph glyph-name="uni0438.loclBGR" horiz-adv-x="523" 
d="M499 446l-79 -446h-76l-9 67q-28 -36 -67.5 -56t-86.5 -20q-63 0 -99.5 36.5t-36.5 99.5q0 22 4 41l49 278h109l-48 -274q-2 -14 -2 -21q0 -28 16 -45t47 -17q52 0 85.5 36t43.5 94l40 227h110z" />
    <glyph glyph-name="uni0439.loclBGR" horiz-adv-x="523" 
d="M499 446l-79 -446h-76l-9 67q-28 -36 -67.5 -56t-86.5 -20q-63 0 -99.5 36.5t-36.5 99.5q0 22 4 41l49 278h109l-48 -274q-2 -14 -2 -21q0 -28 16 -45t47 -17q52 0 85.5 36t43.5 94l40 227h110zM224.5 547q-35.5 22 -49.5 64l62 41q10 -23 30 -35.5t46 -12.5q57 0 99 48
l54 -43q-27 -42 -68 -63t-89 -21q-49 0 -84.5 22z" />
    <glyph glyph-name="uni045D.loclBGR" horiz-adv-x="523" 
d="M499 446l-79 -446h-76l-9 67q-28 -36 -67.5 -56t-86.5 -20q-63 0 -99.5 36.5t-36.5 99.5q0 22 4 41l49 278h109l-48 -274q-2 -14 -2 -21q0 -28 16 -45t47 -17q52 0 85.5 36t43.5 94l40 227h110zM201 622l69 70l124 -124l-49 -47z" />
    <glyph glyph-name="uni043A.loclBGR" horiz-adv-x="468" 
d="M483 443l-214 -216l152 -225v-2h-120l-132 195l-34 -195h-110l123 699h110l-75 -423l169 170h131v-3z" />
    <glyph glyph-name="uni043B.loclBGR" horiz-adv-x="480" 
d="M-32 2l291 449h40l134 -449v-2h-113l-56 219q-8 30 -11 56q-12 -30 -30 -58l-133 -217h-122v2z" />
    <glyph glyph-name="uni043F.loclBGR" horiz-adv-x="525" 
d="M446 424.5q35 -33.5 35 -97.5q0 -20 -5 -50l-49 -277h-109l48 272q2 9 2 25q0 63 -65 63q-51 0 -85 -36.5t-44 -94.5l-40 -229h-110l79 446h73l10 -72q30 38 71 61t90 23q64 0 99 -33.5z" />
    <glyph glyph-name="uni0442.loclBGR" horiz-adv-x="793" 
d="M714 423q35 -35 35 -97q0 -23 -4 -43l-50 -283h-108l49 278q2 16 2 21q0 30 -16.5 45.5t-45.5 15.5q-47 0 -79.5 -37.5t-41.5 -90.5l-41 -232h-108l48 278q2 14 2 22q0 27 -14.5 43.5t-42.5 16.5q-49 0 -82.5 -37.5t-42.5 -89.5l-40 -233h-109l78 446h73l10 -71
q28 39 67.5 61t84.5 22q47 0 77.5 -21t41.5 -59q63 80 160 80q62 0 97 -35z" />
    <glyph glyph-name="uni0443.loclBGR" horiz-adv-x="524" 
d="M-6 -163l52 78q48 -49 121 -49q54 0 92.5 30t48.5 86l12 70q-56 -63 -133 -63q-66 0 -104 39.5t-38 102.5q0 12 4 38l49 277h109l-48 -276q-2 -14 -2 -20q0 -28 16 -45.5t47 -17.5q52 0 85.5 36t43.5 91l40 232h110l-84 -474q-18 -104 -84.5 -154t-159.5 -50
q-110 0 -177 69z" />
    <glyph glyph-name="uni0446.loclBGR" horiz-adv-x="544" 
d="M502 93l-37 -206h-99l21 119q-44 14 -51 55q-26 -34 -63.5 -53.5t-85.5 -19.5q-66 0 -103.5 39.5t-37.5 102.5q0 19 3 38l49 278h109l-49 -279q-2 -12 -2 -18q0 -29 17 -46t48 -17q51 0 85.5 36t43.5 91l40 233h110l-55 -315q-1 -5 -1 -12q0 -14 9 -20t30 -6h19z" />
    <glyph glyph-name="uni0448.loclBGR" horiz-adv-x="794" 
d="M769 446l-78 -446h-76l-9 67q-28 -37 -66.5 -56t-82.5 -19q-47 0 -78 21t-42 59q-63 -80 -159 -80q-62 0 -97.5 35t-35.5 97q0 22 4 42l49 280h109l-48 -275q-2 -16 -2 -22q0 -29 16.5 -44.5t44.5 -15.5q47 0 79.5 37.5t41.5 90.5l40 229h109l-48 -275q-2 -14 -2 -22
q0 -27 14.5 -43.5t42.5 -16.5q49 0 82.5 37t42.5 89l40 231h109z" />
    <glyph glyph-name="uni0449.loclBGR" horiz-adv-x="813" 
d="M771 95l-37 -209h-99l22 124q-43 16 -49 57q-30 -36 -69 -55.5t-84 -19.5q-48 0 -78 22.5t-40 58.5q-29 -39 -69 -60t-88 -21q-66 0 -100.5 36t-34.5 97q0 23 4 43l49 278h109l-48 -273q-2 -16 -2 -24q0 -28 15 -44t44 -16q50 0 82.5 38t41.5 89l39 230h109l-48 -275
q-2 -14 -2 -21q0 -27 14.5 -44t41.5 -17q49 0 82 36.5t43 90.5l41 230h109l-55 -314q-1 -5 -1 -13q0 -13 9 -18.5t30 -5.5h19z" />
    <glyph glyph-name="uni044C.loclBGR" horiz-adv-x="479" 
d="M400.5 298.5q44.5 -37.5 44.5 -103.5q0 -12 -4 -38q-14 -82 -70.5 -125.5t-147.5 -43.5q-82 0 -129 42t-47 111q0 18 3 36l48 269h110l-24 -136q43 26 100 26q72 0 116.5 -37.5zM337 182q0 32 -20.5 49t-57.5 17q-42 0 -69 -20.5t-34 -60.5q-2 -8 -2 -22q0 -32 20 -49.5
t56 -17.5q41 0 69.5 22t35.5 64q2 12 2 18z" />
    <glyph glyph-name="uni044A.loclBGR" horiz-adv-x="537" 
d="M459 298.5q44 -37.5 44 -104.5q0 -17 -3 -37q-15 -82 -71 -125.5t-147 -43.5q-83 0 -129.5 42t-46.5 111q0 17 3 36l31 175h-110l16 94h220l-24 -136q45 26 101 26q72 0 116 -37.5zM395 183q0 32 -20 48.5t-57 16.5q-42 0 -69 -20.5t-34 -60.5q-2 -8 -2 -23q0 -32 20 -49
t56 -17q41 0 69 22t35 64q2 14 2 19z" />
    <glyph glyph-name="uni044B.loclBGR" horiz-adv-x="687" 
d="M553 446h109l-78 -446h-109zM400.5 298.5q44.5 -37.5 44.5 -103.5q0 -12 -4 -38q-14 -82 -70.5 -125.5t-147.5 -43.5q-82 0 -129 42t-47 111q0 18 3 36l48 269h110l-24 -136q43 26 100 26q72 0 116.5 -37.5zM337 182q0 32 -20.5 49t-57.5 17q-42 0 -69 -20.5t-34 -60.5
q-2 -8 -2 -22q0 -32 20 -49.5t56 -17.5q41 0 69.5 22t35.5 64q2 12 2 18z" />
    <glyph glyph-name="uni0430.ss01" horiz-adv-x="486" 
d="M399.5 418.5q41.5 -34.5 41.5 -100.5q0 -18 -3 -39l-49 -279h-74l-9 69q-29 -36 -71.5 -57t-93.5 -21q-56 0 -90 29t-34 82q0 86 72.5 129t180.5 43q29 0 56 -3l4 20q2 12 2 16q0 28 -19.5 41.5t-52.5 13.5q-71 0 -151 -35l-24 80q102 46 196 46q77 0 118.5 -34.5z
M268.5 107.5q39.5 34.5 51.5 94.5q-23 3 -51 3q-57 0 -101 -20.5t-44 -64.5q0 -23 14.5 -35t42.5 -12q48 0 87.5 34.5z" />
    <glyph glyph-name="uni0443.ss01" horiz-adv-x="524" 
d="M0 -165l49 81q45 -49 119 -49q54 0 92 30.5t48 87.5l12 67q-56 -63 -133 -63q-66 0 -104 39.5t-38 102.5q0 12 4 38l49 277h109l-48 -276q-2 -14 -2 -20q0 -28 16 -45.5t47 -17.5q52 0 85.5 36t43.5 91l40 232h110l-83 -471q-18 -106 -84.5 -156.5t-160.5 -50.5
q-110 0 -171 67z" />
    <glyph glyph-name="uni0432.ss02" horiz-adv-x="552" 
d="M493.5 451.5q-33.5 -40.5 -84.5 -68.5q50 -14 77.5 -53t27.5 -94q0 -17 -3 -37q-17 -97 -88 -154t-177 -57q-88 0 -140 52.5t-52 151.5q0 38 7 77l25 141q26 150 101 225t187 75q76 0 120 -38t44 -101q0 -16 -3 -33q-8 -46 -41.5 -86.5zM409.5 598.5
q-17.5 16.5 -51.5 16.5q-57 0 -98.5 -48t-58.5 -142l-8 -46l81 24q73 22 113 60t40 88q0 31 -17.5 47.5zM402 234q0 41 -23 64t-64 23q-31 0 -64 -10l-74 -23l-6 -36q-5 -35 -5 -57q0 -109 90 -109q56 0 95 33.5t49 88.5q2 9 2 26z" />
    <glyph glyph-name="uni0433.ss02" horiz-adv-x="400" 
d="M57 22q-43 33 -44 89q0 62 42.5 98.5t122.5 61.5q47 15 67.5 29t20.5 36q0 15 -13.5 24t-37.5 9q-51 0 -110 -28l-28 76q67 37 148 37q65 0 105 -32t40 -83q0 -58 -38 -92.5t-110 -56.5q-51 -16 -76 -31.5t-24 -40.5q0 -20 16.5 -30.5t44.5 -10.5q60 0 119 39l34 -79
q-80 -48 -167 -48q-69 0 -112 33z" />
    <glyph glyph-name="uni0434.ss02" horiz-adv-x="571" 
d="M545 446l-82 -472q-18 -103 -88 -154.5t-172 -51.5q-117 0 -195 73l52 80q61 -55 139 -55q63 0 104 30.5t52 87.5q7 36 15 66q-65 -58 -154 -58q-84 0 -132.5 51.5t-48.5 135.5q0 22 5 54q18 101 84 162.5t161 61.5q51 0 90.5 -20t62.5 -58l34 67h73zM405 255
q0 47 -27.5 76.5t-79.5 29.5q-57 0 -97.5 -37t-51.5 -101q-3 -18 -3 -33q0 -49 28.5 -77t75.5 -28q60 0 100 38.5t52 101.5q3 15 3 30z" />
    <glyph glyph-name="uni0436.ss02" horiz-adv-x="669" 
d="M685 443l-202 -216l139 -225v-2h-116l-120 197l-35 -197h-109l35 199l-180 -199h-129v2l225 238l-129 203v3h115l110 -179l77 432h109l-76 -431l160 178h126v-3z" />
    <glyph glyph-name="uni0437.ss02" horiz-adv-x="408" 
d="M-79 -182l47 83q29 -19 60.5 -27.5t72.5 -8.5q65 0 102.5 37t37.5 95q0 41 -26 62.5t-75 21.5h-75l16 89h63q48 0 79 27t39 70q2 12 2 18q0 34 -22 53.5t-62 19.5q-28 0 -52 -6t-54 -20l-21 83q80 40 154 40q78 0 122 -38.5t44 -105.5q0 -18 -3 -38q-10 -49 -35.5 -83.5
t-67.5 -58.5q39 -18 62 -53t23 -84q0 -11 -4 -39q-15 -87 -79.5 -137t-167.5 -50t-180 50z" />
    <glyph glyph-name="uni0438.ss02" horiz-adv-x="523" 
d="M499 446l-79 -446h-76l-9 67q-28 -36 -67.5 -56t-86.5 -20q-63 0 -99.5 36.5t-36.5 99.5q0 22 4 41l49 278h109l-48 -274q-2 -14 -2 -21q0 -28 16 -45t47 -17q52 0 85.5 36t43.5 94l40 227h110z" />
    <glyph glyph-name="uni0439.ss02" horiz-adv-x="523" 
d="M499 446l-79 -446h-76l-9 67q-28 -36 -67.5 -56t-86.5 -20q-63 0 -99.5 36.5t-36.5 99.5q0 22 4 41l49 278h109l-48 -274q-2 -14 -2 -21q0 -28 16 -45t47 -17q52 0 85.5 36t43.5 94l40 227h110zM224.5 547q-35.5 22 -49.5 64l62 41q10 -23 30 -35.5t46 -12.5q57 0 99 48
l54 -43q-27 -42 -68 -63t-89 -21q-49 0 -84.5 22z" />
    <glyph glyph-name="uni045D.ss02" horiz-adv-x="525" 
d="M499 446l-79 -446h-76l-9 67q-28 -36 -67.5 -56t-86.5 -20q-63 0 -99.5 36.5t-36.5 99.5q0 22 4 41l49 278h109l-48 -274q-2 -14 -2 -21q0 -28 16 -45t47 -17q52 0 85.5 36t43.5 94l40 227h110zM224 627l69 70l124 -124l-49 -47z" />
    <glyph glyph-name="uni043A.ss02" horiz-adv-x="468" 
d="M483 443l-214 -216l152 -225v-2h-120l-132 195l-34 -195h-110l123 699h110l-75 -423l169 170h131v-3z" />
    <glyph glyph-name="uni043B.ss02" horiz-adv-x="480" 
d="M-32 2l291 449h40l134 -449v-2h-113l-56 219q-8 30 -11 56q-12 -30 -30 -58l-133 -217h-122v2z" />
    <glyph glyph-name="uni043F.ss02" horiz-adv-x="525" 
d="M446 424.5q35 -33.5 35 -97.5q0 -20 -5 -50l-49 -277h-109l48 272q2 9 2 25q0 63 -65 63q-51 0 -85 -36.5t-44 -94.5l-40 -229h-110l79 446h73l10 -72q30 38 71 61t90 23q64 0 99 -33.5z" />
    <glyph glyph-name="uni0442.ss02" horiz-adv-x="793" 
d="M714 423q35 -35 35 -97q0 -23 -4 -43l-50 -283h-108l49 278q2 16 2 21q0 30 -16.5 45.5t-45.5 15.5q-47 0 -79.5 -37.5t-41.5 -90.5l-41 -232h-108l48 278q2 14 2 22q0 27 -14.5 43.5t-42.5 16.5q-49 0 -82.5 -37.5t-42.5 -89.5l-40 -233h-109l78 446h73l10 -71
q28 39 67.5 61t84.5 22q47 0 77.5 -21t41.5 -59q63 80 160 80q62 0 97 -35z" />
    <glyph glyph-name="uni0446.ss02" horiz-adv-x="544" 
d="M502 93l-37 -206h-99l21 119q-44 14 -51 55q-26 -34 -63.5 -53.5t-85.5 -19.5q-66 0 -103.5 39.5t-37.5 102.5q0 19 3 38l49 278h109l-49 -279q-2 -12 -2 -18q0 -29 17 -46t48 -17q51 0 85.5 36t43.5 91l40 233h110l-55 -315q-1 -5 -1 -12q0 -14 9 -20t30 -6h19z" />
    <glyph glyph-name="uni0448.ss02" horiz-adv-x="794" 
d="M769 446l-78 -446h-76l-9 67q-28 -37 -66.5 -56t-82.5 -19q-47 0 -78 21t-42 59q-63 -80 -159 -80q-62 0 -97.5 35t-35.5 97q0 22 4 42l49 280h109l-48 -275q-2 -16 -2 -22q0 -29 16.5 -44.5t44.5 -15.5q47 0 79.5 37.5t41.5 90.5l40 229h109l-48 -275q-2 -14 -2 -22
q0 -27 14.5 -43.5t42.5 -16.5q49 0 82.5 37t42.5 89l40 231h109z" />
    <glyph glyph-name="uni0449.ss02" horiz-adv-x="813" 
d="M771 95l-37 -209h-99l22 124q-43 16 -49 57q-30 -36 -69 -55.5t-84 -19.5q-48 0 -78 22.5t-40 58.5q-29 -39 -69 -60t-88 -21q-66 0 -100.5 36t-34.5 97q0 23 4 43l49 278h109l-48 -273q-2 -16 -2 -24q0 -28 15 -44t44 -16q50 0 82.5 38t41.5 89l39 230h109l-48 -275
q-2 -14 -2 -21q0 -27 14.5 -44t41.5 -17q49 0 82 36.5t43 90.5l41 230h109l-55 -314q-1 -5 -1 -13q0 -13 9 -18.5t30 -5.5h19z" />
    <glyph glyph-name="uni044C.ss02" horiz-adv-x="479" 
d="M400.5 298.5q44.5 -37.5 44.5 -103.5q0 -12 -4 -38q-14 -82 -70.5 -125.5t-147.5 -43.5q-82 0 -129 42t-47 111q0 18 3 36l48 269h110l-24 -136q43 26 100 26q72 0 116.5 -37.5zM337 182q0 32 -20.5 49t-57.5 17q-42 0 -69 -20.5t-34 -60.5q-2 -8 -2 -22q0 -32 20 -49.5
t56 -17.5q41 0 69.5 22t35.5 64q2 12 2 18z" />
    <glyph glyph-name="uni044A.ss02" horiz-adv-x="537" 
d="M459 298.5q44 -37.5 44 -104.5q0 -17 -3 -37q-15 -82 -71 -125.5t-147 -43.5q-83 0 -129.5 42t-46.5 111q0 17 3 36l31 175h-110l16 94h220l-24 -136q45 26 101 26q72 0 116 -37.5zM395 183q0 32 -20 48.5t-57 16.5q-42 0 -69 -20.5t-34 -60.5q-2 -8 -2 -23q0 -32 20 -49
t56 -17q41 0 69 22t35 64q2 14 2 19z" />
    <glyph glyph-name="uni044B.ss02" horiz-adv-x="687" 
d="M553 446h109l-78 -446h-109zM400.5 298.5q44.5 -37.5 44.5 -103.5q0 -12 -4 -38q-14 -82 -70.5 -125.5t-147.5 -43.5q-82 0 -129 42t-47 111q0 18 3 36l48 269h110l-24 -136q43 26 100 26q72 0 116.5 -37.5zM337 182q0 32 -20.5 49t-57.5 17q-42 0 -69 -20.5t-34 -60.5
q-2 -8 -2 -22q0 -32 20 -49.5t56 -17.5q41 0 69.5 22t35.5 64q2 12 2 18z" />
    <glyph glyph-name="uni0430.ss03" horiz-adv-x="486" 
d="M399.5 418.5q41.5 -34.5 41.5 -100.5q0 -18 -3 -39l-49 -279h-74l-9 69q-29 -36 -71.5 -57t-93.5 -21q-56 0 -90 29t-34 82q0 86 72.5 129t180.5 43q29 0 56 -3l4 20q2 12 2 16q0 28 -19.5 41.5t-52.5 13.5q-71 0 -151 -35l-24 80q102 46 196 46q77 0 118.5 -34.5z
M268.5 107.5q39.5 34.5 51.5 94.5q-23 3 -51 3q-57 0 -101 -20.5t-44 -64.5q0 -23 14.5 -35t42.5 -12q48 0 87.5 34.5z" />
    <glyph glyph-name="uni0432.ss03" horiz-adv-x="552" 
d="M493.5 451.5q-33.5 -40.5 -84.5 -68.5q50 -14 77.5 -53t27.5 -94q0 -17 -3 -37q-17 -97 -88 -154t-177 -57q-88 0 -140 52.5t-52 151.5q0 38 7 77l25 141q26 150 101 225t187 75q76 0 120 -38t44 -101q0 -16 -3 -33q-8 -46 -41.5 -86.5zM409.5 598.5
q-17.5 16.5 -51.5 16.5q-57 0 -98.5 -48t-58.5 -142l-8 -46l81 24q73 22 113 60t40 88q0 31 -17.5 47.5zM402 234q0 41 -23 64t-64 23q-31 0 -64 -10l-74 -23l-6 -36q-5 -35 -5 -57q0 -109 90 -109q56 0 95 33.5t49 88.5q2 9 2 26z" />
    <glyph glyph-name="uni0433.ss03" horiz-adv-x="400" 
d="M57 22q-43 33 -44 89q0 62 42.5 98.5t122.5 61.5q47 15 67.5 29t20.5 36q0 15 -13.5 24t-37.5 9q-51 0 -110 -28l-28 76q67 37 148 37q65 0 105 -32t40 -83q0 -58 -38 -92.5t-110 -56.5q-51 -16 -76 -31.5t-24 -40.5q0 -20 16.5 -30.5t44.5 -10.5q60 0 119 39l34 -79
q-80 -48 -167 -48q-69 0 -112 33z" />
    <glyph glyph-name="uni0434.ss03" horiz-adv-x="571" 
d="M545 446l-82 -472q-18 -103 -88 -154.5t-172 -51.5q-117 0 -195 73l52 80q61 -55 139 -55q63 0 104 30.5t52 87.5q7 36 15 66q-65 -58 -154 -58q-84 0 -132.5 51.5t-48.5 135.5q0 22 5 54q18 101 84 162.5t161 61.5q51 0 90.5 -20t62.5 -58l34 67h73zM405 255
q0 47 -27.5 76.5t-79.5 29.5q-57 0 -97.5 -37t-51.5 -101q-3 -18 -3 -33q0 -49 28.5 -77t75.5 -28q60 0 100 38.5t52 101.5q3 15 3 30z" />
    <glyph glyph-name="uni0436.ss03" horiz-adv-x="669" 
d="M685 443l-202 -216l139 -225v-2h-116l-120 197l-35 -197h-109l35 199l-180 -199h-129v2l225 238l-129 203v3h115l110 -179l77 432h109l-76 -431l160 178h126v-3z" />
    <glyph glyph-name="uni0437.ss03" horiz-adv-x="408" 
d="M-79 -182l47 83q29 -19 60.5 -27.5t72.5 -8.5q65 0 102.5 37t37.5 95q0 41 -26 62.5t-75 21.5h-75l16 89h63q48 0 79 27t39 70q2 12 2 18q0 34 -22 53.5t-62 19.5q-28 0 -52 -6t-54 -20l-21 83q80 40 154 40q78 0 122 -38.5t44 -105.5q0 -18 -3 -38q-10 -49 -35.5 -83.5
t-67.5 -58.5q39 -18 62 -53t23 -84q0 -11 -4 -39q-15 -87 -79.5 -137t-167.5 -50t-180 50z" />
    <glyph glyph-name="uni0438.ss03" horiz-adv-x="523" 
d="M499 446l-79 -446h-76l-9 67q-28 -36 -67.5 -56t-86.5 -20q-63 0 -99.5 36.5t-36.5 99.5q0 22 4 41l49 278h109l-48 -274q-2 -14 -2 -21q0 -28 16 -45t47 -17q52 0 85.5 36t43.5 94l40 227h110z" />
    <glyph glyph-name="uni0439.ss03" horiz-adv-x="523" 
d="M499 446l-79 -446h-76l-9 67q-28 -36 -67.5 -56t-86.5 -20q-63 0 -99.5 36.5t-36.5 99.5q0 22 4 41l49 278h109l-48 -274q-2 -14 -2 -21q0 -28 16 -45t47 -17q52 0 85.5 36t43.5 94l40 227h110zM224.5 547q-35.5 22 -49.5 64l62 41q10 -23 30 -35.5t46 -12.5q57 0 99 48
l54 -43q-27 -42 -68 -63t-89 -21q-49 0 -84.5 22z" />
    <glyph glyph-name="uni045D.ss03" horiz-adv-x="525" 
d="M499 446l-79 -446h-76l-9 67q-28 -36 -67.5 -56t-86.5 -20q-63 0 -99.5 36.5t-36.5 99.5q0 22 4 41l49 278h109l-48 -274q-2 -14 -2 -21q0 -28 16 -45t47 -17q52 0 85.5 36t43.5 94l40 227h110zM224 627l69 70l124 -124l-49 -47z" />
    <glyph glyph-name="uni043A.ss03" horiz-adv-x="468" 
d="M483 443l-214 -216l152 -225v-2h-120l-132 195l-34 -195h-110l123 699h110l-75 -423l169 170h131v-3z" />
    <glyph glyph-name="uni043B.ss03" horiz-adv-x="480" 
d="M-32 2l291 449h40l134 -449v-2h-113l-56 219q-8 30 -11 56q-12 -30 -30 -58l-133 -217h-122v2z" />
    <glyph glyph-name="uni043F.ss03" horiz-adv-x="525" 
d="M446 424.5q35 -33.5 35 -97.5q0 -20 -5 -50l-49 -277h-109l48 272q2 9 2 25q0 63 -65 63q-51 0 -85 -36.5t-44 -94.5l-40 -229h-110l79 446h73l10 -72q30 38 71 61t90 23q64 0 99 -33.5z" />
    <glyph glyph-name="uni0442.ss03" horiz-adv-x="793" 
d="M714 423q35 -35 35 -97q0 -23 -4 -43l-50 -283h-108l49 278q2 16 2 21q0 30 -16.5 45.5t-45.5 15.5q-47 0 -79.5 -37.5t-41.5 -90.5l-41 -232h-108l48 278q2 14 2 22q0 27 -14.5 43.5t-42.5 16.5q-49 0 -82.5 -37.5t-42.5 -89.5l-40 -233h-109l78 446h73l10 -71
q28 39 67.5 61t84.5 22q47 0 77.5 -21t41.5 -59q63 80 160 80q62 0 97 -35z" />
    <glyph glyph-name="uni0443.ss03" horiz-adv-x="524" 
d="M-6 -163l52 78q48 -49 121 -49q54 0 92.5 30t48.5 86l12 70q-56 -63 -133 -63q-66 0 -104 39.5t-38 102.5q0 12 4 38l49 277h109l-48 -276q-2 -14 -2 -20q0 -28 16 -45.5t47 -17.5q52 0 85.5 36t43.5 91l40 232h110l-84 -474q-18 -104 -84.5 -154t-159.5 -50
q-110 0 -177 69z" />
    <glyph glyph-name="uni0446.ss03" horiz-adv-x="544" 
d="M502 93l-37 -206h-99l21 119q-44 14 -51 55q-26 -34 -63.5 -53.5t-85.5 -19.5q-66 0 -103.5 39.5t-37.5 102.5q0 19 3 38l49 278h109l-49 -279q-2 -12 -2 -18q0 -29 17 -46t48 -17q51 0 85.5 36t43.5 91l40 233h110l-55 -315q-1 -5 -1 -12q0 -14 9 -20t30 -6h19z" />
    <glyph glyph-name="uni0448.ss03" horiz-adv-x="794" 
d="M769 446l-78 -446h-76l-9 67q-28 -37 -66.5 -56t-82.5 -19q-47 0 -78 21t-42 59q-63 -80 -159 -80q-62 0 -97.5 35t-35.5 97q0 22 4 42l49 280h109l-48 -275q-2 -16 -2 -22q0 -29 16.5 -44.5t44.5 -15.5q47 0 79.5 37.5t41.5 90.5l40 229h109l-48 -275q-2 -14 -2 -22
q0 -27 14.5 -43.5t42.5 -16.5q49 0 82.5 37t42.5 89l40 231h109z" />
    <glyph glyph-name="uni0449.ss03" horiz-adv-x="813" 
d="M771 95l-37 -209h-99l22 124q-43 16 -49 57q-30 -36 -69 -55.5t-84 -19.5q-48 0 -78 22.5t-40 58.5q-29 -39 -69 -60t-88 -21q-66 0 -100.5 36t-34.5 97q0 23 4 43l49 278h109l-48 -273q-2 -16 -2 -24q0 -28 15 -44t44 -16q50 0 82.5 38t41.5 89l39 230h109l-48 -275
q-2 -14 -2 -21q0 -27 14.5 -44t41.5 -17q49 0 82 36.5t43 90.5l41 230h109l-55 -314q-1 -5 -1 -13q0 -13 9 -18.5t30 -5.5h19z" />
    <glyph glyph-name="uni044C.ss03" horiz-adv-x="479" 
d="M400.5 298.5q44.5 -37.5 44.5 -103.5q0 -12 -4 -38q-14 -82 -70.5 -125.5t-147.5 -43.5q-82 0 -129 42t-47 111q0 18 3 36l48 269h110l-24 -136q43 26 100 26q72 0 116.5 -37.5zM337 182q0 32 -20.5 49t-57.5 17q-42 0 -69 -20.5t-34 -60.5q-2 -8 -2 -22q0 -32 20 -49.5
t56 -17.5q41 0 69.5 22t35.5 64q2 12 2 18z" />
    <glyph glyph-name="uni044A.ss03" horiz-adv-x="537" 
d="M459 298.5q44 -37.5 44 -104.5q0 -17 -3 -37q-15 -82 -71 -125.5t-147 -43.5q-83 0 -129.5 42t-46.5 111q0 17 3 36l31 175h-110l16 94h220l-24 -136q45 26 101 26q72 0 116 -37.5zM395 183q0 32 -20 48.5t-57 16.5q-42 0 -69 -20.5t-34 -60.5q-2 -8 -2 -23q0 -32 20 -49
t56 -17q41 0 69 22t35 64q2 14 2 19z" />
    <glyph glyph-name="uni044B.ss03" horiz-adv-x="687" 
d="M553 446h109l-78 -446h-109zM400.5 298.5q44.5 -37.5 44.5 -103.5q0 -12 -4 -38q-14 -82 -70.5 -125.5t-147.5 -43.5q-82 0 -129 42t-47 111q0 18 3 36l48 269h110l-24 -136q43 26 100 26q72 0 116.5 -37.5zM337 182q0 32 -20.5 49t-57.5 17q-42 0 -69 -20.5t-34 -60.5
q-2 -8 -2 -22q0 -32 20 -49.5t56 -17.5q41 0 69.5 22t35.5 64q2 12 2 18z" />
    <glyph glyph-name="zero.tf" horiz-adv-x="549" 
d="M91 54q-53 66 -53 183q0 48 9 102q30 172 107 253t191 82q97 0 151 -66t54 -182q0 -41 -10 -103q-29 -159 -105.5 -247t-193.5 -88q-97 0 -150 66zM359.5 154q45.5 64 65.5 178q9 51 9 94q0 69 -24 107.5t-71 38.5q-71 0 -114 -61t-64 -181q-9 -51 -9 -93q0 -69 24 -108
t70 -39q68 0 113.5 64z" />
    <glyph glyph-name="one.tf" horiz-adv-x="549" 
d="M486 100l-17 -100h-419l18 100h160l66 362q5 28 10 47q-22 -14 -33 -20l-133 -76l-47 85l281 170h73l-101 -568h142z" />
    <glyph glyph-name="two.tf" horiz-adv-x="549" 
d="M281 151q-17 -17 -57 -53q50 2 74 2l170 1l-17 -101h-432l8 47l317 316q41 40 56 70.5t15 61.5q0 33 -20 53t-55 20q-74 0 -147 -86l-70 68q94 123 231 123q51 0 92 -21t64.5 -58t23.5 -85q0 -14 -3 -31q-12 -90 -102 -180z" />
    <glyph glyph-name="three.tf" horiz-adv-x="549" 
d="M103.5 9q-51.5 21 -88.5 65l70 74q49 -58 140 -58q68 0 112 33.5t44 90.5q0 42 -31 62t-80 20h-90l17 96h68q42 0 73 17t47 43t16 53q0 32 -23 49.5t-64 17.5q-78 0 -143 -58l-48 75q87 84 208 84q53 0 95.5 -20t66.5 -55.5t24 -79.5q0 -52 -32.5 -100t-88.5 -74
q46 -14 72.5 -52t26.5 -87q0 -15 -3 -30q-10 -55 -46.5 -97.5t-93.5 -66t-126 -23.5q-71 0 -122.5 21z" />
    <glyph glyph-name="four.tf" horiz-adv-x="549" 
d="M440 220h68l-17 -95h-68l-22 -125h-108l22 125h-307l11 62l435 481h65zM363 377q4 29 16 79l-47 -55l-124 -140l-42 -44q20 1 60 1h108z" />
    <glyph glyph-name="five.tf" horiz-adv-x="549" 
d="M276 561l-40 -150q25 3 48 3q60 0 108 -22t75 -63t27 -96q0 -22 -4 -41q-17 -93 -90.5 -149t-181.5 -56q-66 0 -119 23t-87 65l69 76q22 -28 57.5 -43t79.5 -15q69 0 114 36t45 97q0 51 -38 75.5t-97 24.5q-62 0 -126 -23l-14 14l96 344h346l-18 -100h-250z" />
    <glyph glyph-name="six.tf" horiz-adv-x="549" 
d="M416.5 384.5q39.5 -21.5 63 -61.5t23.5 -91q0 -22 -4 -41q-16 -91 -82.5 -147t-159.5 -56q-98 0 -151 59t-53 156q0 37 7 72l3 14q32 171 141 275.5t292 108.5l6 -99q-115 -2 -192 -57t-115 -154q31 23 63 33t72 10q47 0 86.5 -21.5zM390 222q0 39 -24.5 63t-68.5 24
q-56 0 -89.5 -27t-41.5 -77q-2 -16 -2 -23q0 -41 26.5 -66.5t69.5 -25.5q50 0 85 29t43 81q2 16 2 22z" />
    <glyph glyph-name="seven.tf" horiz-adv-x="549" 
d="M584 661l-7 -43l-366 -618h-124l300 504q11 19 35 57q-22 -1 -67 -1h-261l18 101h472z" />
    <glyph glyph-name="eight.tf" horiz-adv-x="549" 
d="M85 32q-56 43 -56 117q0 18 3 36q10 57 50 102.5t97 62.5q-33 14 -53 47t-20 74q0 18 2 27q14 80 80.5 127.5t164.5 47.5q86 0 137 -41t51 -107q0 -14 -3 -31q-9 -51 -42.5 -88t-78.5 -56q41 -19 65 -55.5t24 -86.5q0 -16 -3 -34q-16 -88 -86.5 -136.5t-180.5 -48.5
q-95 0 -151 43zM386 422.5q32 25.5 40 66.5q1 6 1 16q0 33 -24 52.5t-66 19.5q-48 0 -80 -23.5t-39 -64.5q-2 -12 -2 -19q0 -34 24 -53.5t67 -19.5q47 0 79 25.5zM342.5 117.5q37.5 27.5 46.5 75.5q2 16 2 22q0 40 -27 63.5t-76 23.5q-54 0 -92 -30.5t-47 -79.5
q-2 -14 -2 -19q0 -40 29 -61.5t77 -21.5q52 0 89.5 27.5z" />
    <glyph glyph-name="nine.tf" horiz-adv-x="549" 
d="M478.5 615q52.5 -58 52.5 -156q0 -38 -7 -73l-3 -14q-31 -168 -140 -270t-292 -106l-6 100q112 -2 190.5 52.5t116.5 151.5q-31 -25 -64 -35t-74 -10q-47 0 -86.5 21.5t-63 61t-23.5 91.5q0 22 4 41q16 91 82.5 147t160.5 56q100 0 152.5 -58zM377 380q34 27 42 76
q2 14 2 21q0 43 -27.5 69t-72.5 26q-50 -1 -84.5 -30t-43.5 -80q-2 -14 -2 -21q0 -40 25.5 -64.5t71.5 -24.5q55 1 89 28z" />
    <glyph glyph-name="three.sinf" horiz-adv-x="288" 
d="M38 -61q-25 10 -40 28l34 44q23 -23 57 -23q22 0 36.5 9.5t18.5 25.5q1 3 1 8q0 13 -9 21.5t-26 8.5h-38l10 51h23q18 0 31 8t16 24q3 14 -5.5 22t-23.5 8q-26 0 -49 -18l-32 48q41 29 92 29q34 0 59 -20.5t25 -51.5q0 -25 -13.5 -45t-39.5 -29q17 -5 30.5 -22.5
t13.5 -40.5q0 -9 -1 -13q-7 -39 -37.5 -60.5t-76.5 -21.5q-31 0 -56 10z" />
    <glyph glyph-name="four.sinf" horiz-adv-x="306" 
d="M125 -14h-132l4 28l200 212h29l-33 -189h34l-9 -51h-34l-8 -46h-59zM134 37l13 66l-63 -66h50z" />
    <glyph glyph-name="five.sinf" horiz-adv-x="284" 
d="M-3 -35l38 43q18 -21 51 -21q24 0 40.5 13.5t16.5 34.5q0 18 -14.5 29t-38.5 11q-23 0 -47 -10l-8 7l47 151h146l-10 -59h-93l-15 -47q4 1 13 1q35 0 59 -21.5t24 -58.5q0 -48 -33.5 -78.5t-83.5 -30.5q-58 0 -92 36z" />
    <glyph glyph-name="six.sinf" horiz-adv-x="293" 
d="M194 95q22 -21 22 -56q0 -49 -30.5 -79.5t-79.5 -30.5q-46 0 -70.5 27t-24.5 72q0 16 3 32l2 10q12 71 61 116t129 44l5 -58q-46 2 -77 -15.5t-48 -58.5q22 18 56 18q30 0 52 -21zM145.5 55.5q-9.5 9.5 -25.5 9.5q-39 0 -47 -39q-3 -19 7 -31t28 -12q21 0 34 13.5
t13 34.5q0 15 -9.5 24.5z" />
    <glyph glyph-name="seven.sinf" horiz-adv-x="277" 
d="M135 164h-103l10 59h192l-3 -13l-153 -270h-71z" />
    <glyph glyph-name="eight.sinf" horiz-adv-x="297" 
d="M33 -50.5q-28 20.5 -28 56.5q0 29 18.5 54.5t44.5 34.5q-27 17 -27 50q0 40 30 64.5t73 24.5q38 0 61.5 -19.5t23.5 -52.5q0 -51 -49 -73q38 -20 38 -64q0 -46 -33 -71t-82 -25q-42 0 -70 20.5zM152.5 123q10.5 8 12.5 21q1 4 1 10q0 12 -7 18.5t-19 6.5q-32 0 -37 -32
q-3 -15 5 -23.5t23 -8.5q11 0 21.5 8zM141.5 -2.5q14.5 12.5 14.5 35.5q0 15 -9.5 23.5t-26.5 8.5q-19 0 -32.5 -11.5t-17.5 -28.5q-1 -3 -1 -9q0 -15 10.5 -23t25.5 -8q22 0 36.5 12.5z" />
    </font>
</defs>
</svg>
