<?xml version="1.0" standalone="no"?>
<!DOCTYPE svg PUBLIC "-//W3C//DTD SVG 1.1//EN" "http://www.w3.org/Graphics/SVG/1.1/DTD/svg11.dtd" >
<svg xmlns="http://www.w3.org/2000/svg" xmlns:xlink="http://www.w3.org/1999/xlink" version="1.1">
<metadata>
Created by FontForge 20170731 at Wed Feb 13 11:40:52 2019
 By Aleksey,,,
Copyright (c) 2019 by Svet Simov. All rights reserved.
</metadata>
<defs>
<font id="Noah-Bold" horiz-adv-x="0" >
  <font-face 
    font-family="Noah"
    font-weight="700"
    font-stretch="normal"
    units-per-em="1000"
    panose-1="0 0 8 0 0 0 0 0 0 0"
    ascent="800"
    descent="-200"
    x-height="446"
    cap-height="680"
    bbox="-377 -294 1234 967"
    underline-thickness="50"
    underline-position="-150"
    unicode-range="U+0020-FB02"
  />
<missing-glyph horiz-adv-x="467" 
d="M383 -220h-296v933h296v-933zM157 650v-30h60v-35h-61v-31h155v31h-62v35h62v30h-154zM156 530v-97h155v32h-62v65h-93zM217 465h-30v33h30v-33zM156 408v-31h61v-34h-61v-31h93v65h62v31h-155zM280 352v-62h-124v-31h155v93h-31zM217 238v-52h32v21h31v-44h-93v75h-31
v-105h155v105h-94zM156 77v-106h155v106h-155zM280 2h-93v44h93v-44zM156 -50v-31h65l-65 -44v-31h155v31h-95l65 44h30v31h-155z" />
    <glyph glyph-name="fi" unicode="fi" horiz-adv-x="591" 
d="M527 0h-109v353h-212v-353h-109v353h-82v93h82v96q0 93 50 142.5t143 49.5q60 0 109 -17t96 -53l-42 -75q-34 24 -67 35.5t-75 11.5q-49 0 -77 -24.5t-28 -76.5v-89h321v-446z" />
    <glyph glyph-name="fl" unicode="fl" horiz-adv-x="583" 
d="M519 720v-720h-109v600q-50 36 -111 36q-44 0 -68.5 -23.5t-24.5 -70.5v-96h122v-93h-122v-353h-109v353h-82v93h82v104q0 85 48 134.5t133 49.5q82 0 145 -49l9 35h87z" />
    <glyph glyph-name="f_f" unicode="ff" horiz-adv-x="684" 
d="M568 615.5q-19 -20.5 -19 -57.5v-112h122v-93h-121v-353h-109v353h-235v-353h-109v353h-82v93h82v118q0 77 42 123.5t117 46.5q32 0 59 -6t57 -20l-31 -84q-30 12 -63 12t-52.5 -20.5t-19.5 -57.5v-112h235v118q0 77 41.5 123.5t115.5 46.5q37 0 66.5 -9.5t59.5 -29.5
l-39 -78q-17 10 -32 14.5t-34 4.5q-32 0 -51 -20.5z" />
    <glyph glyph-name="f_f_i" unicode="ffi" horiz-adv-x="937" 
d="M873 0h-109v353h-214v-353h-109v353h-235v-353h-109v353h-82v93h82v118q0 77 42 123.5t117 46.5q32 0 58.5 -6t57.5 -20l-31 -84q-30 12 -62 12q-34 0 -53.5 -20t-19.5 -58v-112h235v96q0 93 50 142.5t144 49.5q57 0 103 -17t89 -53l-42 -73q-32 23 -61.5 34t-67.5 11
q-107 0 -107 -100v-90h324v-446z" />
    <glyph glyph-name="f_f_l" unicode="ffl" horiz-adv-x="937" 
d="M873 720v-720h-109v597q-28 20 -57 29.5t-65 9.5q-44 0 -68.5 -24t-24.5 -73v-93h118v-93h-117v-353h-109v353h-235v-353h-109v353h-82v93h82v118q0 77 42 123.5t117 46.5q32 0 59 -6t57 -20l-31 -84q-25 12 -63 12q-33 0 -52.5 -20.5t-19.5 -57.5v-112h235v103
q0 86 47.5 135.5t133.5 49.5q90 0 155 -53l9 39h87z" />
    <glyph glyph-name=".notdef" horiz-adv-x="467" 
d="M383 -220h-296v933h296v-933zM157 650v-30h60v-35h-61v-31h155v31h-62v35h62v30h-154zM156 530v-97h155v32h-62v65h-93zM217 465h-30v33h30v-33zM156 408v-31h61v-34h-61v-31h93v65h62v31h-155zM280 352v-62h-124v-31h155v93h-31zM217 238v-52h32v21h31v-44h-93v75h-31
v-105h155v105h-94zM156 77v-106h155v106h-155zM280 2h-93v44h93v-44zM156 -50v-31h65l-65 -44v-31h155v31h-95l65 44h30v31h-155z" />
    <glyph glyph-name=".null" 
 />
    <glyph glyph-name="nonmarkingreturn" horiz-adv-x="333" 
 />
    <glyph glyph-name="space" unicode=" " horiz-adv-x="225" 
 />
    <glyph glyph-name="exclam" unicode="!" horiz-adv-x="275" 
d="M75 680h125l-13 -492h-99zM88 6q-21 18 -21 51q0 34 21 52t50 18t49.5 -18t20.5 -52q0 -33 -20.5 -51t-49.5 -18t-50 18z" />
    <glyph glyph-name="quotedbl" unicode="&#x22;" horiz-adv-x="358" 
d="M43 680h106l-20 -226h-86v226zM210 680h105l-20 -226h-85v226z" />
    <glyph glyph-name="numbersign" unicode="#" horiz-adv-x="554" 
d="M110 180h-81v86h93l19 126h-84v86h97l30 202h94l-30 -202h108l32 202h93l-31 -202h76v-86h-88l-19 -126h78v-86h-91l-26 -180h-94l26 180h-109l-26 -180h-94zM325 266l19 126h-109l-19 -126h109z" />
    <glyph glyph-name="dollar" unicode="$" horiz-adv-x="538" 
d="M236 -9q-116 10 -206 81l58 85q40 -32 89 -49.5t101 -17.5q51 0 82.5 23t31.5 58q0 32 -20 54.5t-49 37t-82 36.5q-88 36 -137 80t-49 114q0 77 50 124t131 57v91h84v-91q89 -11 166 -64l-48 -89q-75 54 -159 54q-44 0 -75.5 -18.5t-31.5 -58.5q0 -37 35 -60.5t107 -51.5
q62 -25 102.5 -49.5t66.5 -63t26 -93.5q0 -78 -51.5 -129t-137.5 -60v-92h-84v92z" />
    <glyph glyph-name="percent" unicode="%" horiz-adv-x="771" 
d="M102.5 406.5q-35.5 21.5 -53.5 57t-18 75.5t18 75t53.5 56.5t84.5 21.5t84.5 -21.5t53.5 -56.5t18 -75t-18 -75.5t-53.5 -57t-84.5 -21.5t-84.5 21.5zM537 680h94l-391 -680h-95zM240 484.5q17 23.5 17 54.5t-17 54.5t-53 23.5t-53 -23.5t-17 -54.5t17 -54.5t53 -23.5
t53 23.5zM500 9.5q-35 21.5 -53 56.5t-18 75t18 75.5t53 57t84 21.5t84.5 -21.5t53.5 -57t18 -75.5t-18 -75t-53.5 -56.5t-84.5 -21.5t-84 21.5zM637 86.5q17 23.5 17 54.5t-17 54.5t-53 23.5t-53 -23.5t-17 -54.5t17 -54.5t53 -23.5t53 23.5z" />
    <glyph glyph-name="ampersand" unicode="&#x26;" horiz-adv-x="637" 
d="M139 11q-48 23 -72.5 61.5t-24.5 85.5q0 59 34 111.5t101 93.5q-36 41 -54.5 79t-18.5 77q0 47 24 86.5t68.5 63t102.5 23.5q51 0 90 -20.5t60.5 -56t21.5 -78.5q0 -58 -40 -103t-112 -88l131 -134q18 35 28 73t11 71h101q-1 -54 -19 -112t-51 -107l118 -126l-102 -23
l-77 82q-40 -37 -93 -59.5t-113 -22.5q-66 0 -114 23zM340.5 471.5q27.5 25.5 27.5 61.5q0 26 -20.5 45t-54.5 19q-39 0 -61.5 -22.5t-22.5 -55.5q0 -25 12 -49t38 -54q54 30 81.5 55.5zM391 143l-148 150q-44 -24 -66 -57t-22 -67q0 -35 28 -59.5t75 -24.5q73 0 133 58z
" />
    <glyph glyph-name="quotesingle" unicode="'" horiz-adv-x="191" 
d="M43 680h106l-20 -226h-86v226z" />
    <glyph glyph-name="parenleft" unicode="(" horiz-adv-x="318" 
d="M110 18q-43 127 -43 268t43 268t116 211l66 -56q-59 -75 -92.5 -186.5t-33.5 -236.5t33.5 -236.5t92.5 -186.5l-66 -56q-73 84 -116 211z" />
    <glyph glyph-name="parenright" unicode=")" horiz-adv-x="318" 
d="M208.5 553.5q43.5 -126.5 43.5 -267.5t-43.5 -267.5t-116.5 -211.5l-65 56q59 75 92 186.5t33 236.5t-33 236.5t-92 186.5l65 56q73 -85 116.5 -211.5z" />
    <glyph glyph-name="asterisk" unicode="*" horiz-adv-x="354" 
d="M50 420l77 93l-108 28l22 68l105 -40l-5 111h72l-5 -111l105 40l22 -68l-108 -28l77 -93l-57 -43l-70 101l-70 -101z" />
    <glyph glyph-name="plus" unicode="+" horiz-adv-x="532" 
d="M219 294h-157v90h157v159h94v-159h157v-90h-157v-159h-94v159z" />
    <glyph glyph-name="comma" unicode="," horiz-adv-x="269" 
d="M185 105q20 -22 20 -64q0 -55 -27 -103.5t-76 -84.5l-28 29q28 26 44.5 51t22.5 55h-8q-29 0 -49.5 18.5t-20.5 50.5q0 34 21 52t49 18q32 0 52 -22z" />
    <glyph glyph-name="hyphen" unicode="-" horiz-adv-x="389" 
d="M54 274h281v-94h-281v94z" />
    <glyph glyph-name="period" unicode="." horiz-adv-x="268" 
d="M84 6q-21 18 -21 51q0 34 21 52t50 18t50 -18t21 -52q0 -33 -21 -51t-50 -18t-50 18z" />
    <glyph glyph-name="slash" unicode="/" horiz-adv-x="403" 
d="M27 -12l264 704h85l-263 -704h-86z" />
    <glyph glyph-name="zero" unicode="0" horiz-adv-x="584" 
d="M162 29.5q-55 41.5 -84.5 119t-29.5 182.5t29.5 182t84.5 118.5t130 41.5t130 -41.5t84.5 -118.5t29.5 -182t-29.5 -182.5t-84.5 -119t-130 -41.5t-130 41.5zM385.5 155.5q32.5 64.5 32.5 175.5t-32.5 175.5t-93.5 64.5t-93.5 -64.5t-32.5 -175.5t32.5 -175.5t93.5 -64.5
t93.5 64.5z" />
    <glyph glyph-name="one" unicode="1" horiz-adv-x="372" 
d="M289 668v-668h-116v469q0 14 2 46q-8 -6 -23 -14l-90 -52l-47 86l210 133h64z" />
    <glyph glyph-name="two" unicode="2" horiz-adv-x="485" 
d="M453 101v-101h-422v44l234 314q30 42 43 69.5t13 52.5q0 38 -23 62t-62 24q-67 0 -121 -74l-78 60q80 121 208 121q58 0 102.5 -24t68.5 -65.5t24 -91.5q0 -47 -19 -89t-70 -109l-108 -145q-21 -29 -40 -49q23 1 66 1h184z" />
    <glyph glyph-name="three" unicode="3" horiz-adv-x="534" 
d="M124.5 14.5q-56.5 26.5 -98.5 73.5l67 70q64 -67 146 -67q61 0 98 29.5t37 75.5q0 53 -39 76.5t-95 23.5h-85v96h72q58 0 88.5 27.5t30.5 66.5q0 37 -28.5 61.5t-74.5 24.5q-40 0 -73 -16t-63 -46l-65 64q45 51 97 75t116 24q60 0 107 -22.5t73 -62t26 -88.5
q0 -45 -24.5 -85t-68.5 -63q61 -21 92 -66t31 -101q0 -57 -30.5 -101.5t-86.5 -70t-129 -25.5q-64 0 -120.5 26.5z" />
    <glyph glyph-name="four" unicode="4" horiz-adv-x="533" 
d="M512 220v-95h-75v-125h-108v125h-313v61l356 482h65v-448h75zM332 386q0 53 3 83q-22 -36 -42 -61l-102 -140l-38 -49q23 1 68 1h111v166z" />
    <glyph glyph-name="five" unicode="5" horiz-adv-x="490" 
d="M396 361q63 -56 63 -153q0 -65 -30.5 -115t-85.5 -78t-125 -28q-122 0 -201 85l59 81q24 -28 59 -44t78 -16q58 0 93 32t35 86q0 60 -41.5 89t-107.5 29q-59 0 -108 -18l-18 12l39 338h331v-101h-237l-19 -146q27 3 51 3q102 0 165 -56z" />
    <glyph glyph-name="six" unicode="6" horiz-adv-x="534" 
d="M398.5 388.5q46.5 -23.5 73.5 -70t27 -110.5t-28 -114t-78 -78t-116 -28q-113 0 -171.5 72.5t-58.5 187.5v11q0 181 91 290t277 124l13 -97q-114 -9 -181 -64.5t-83 -147.5q47 48 132 48q56 0 102.5 -23.5zM354 122.5q31 31.5 31 82.5q0 54 -31 83t-79 29q-51 0 -82 -30
t-31 -84q0 -50 31.5 -81t81.5 -31q48 0 79 31.5z" />
    <glyph glyph-name="seven" unicode="7" horiz-adv-x="453" 
d="M436 661v-43l-233 -618h-120l187 497q9 25 18 45q2 6 4 10.5t3 8.5q-24 -1 -73 -1h-204v101h418z" />
    <glyph glyph-name="eight" unicode="8" horiz-adv-x="559" 
d="M107 41.5q-64 52.5 -64 142.5q0 59 33 104t89 62q-45 16 -73 53t-28 91q0 53 27 93.5t76.5 63t113.5 22.5t112.5 -22.5t75 -63t26.5 -93.5q0 -51 -27.5 -88.5t-70.5 -55.5q52 -18 85.5 -63.5t33.5 -103.5q0 -90 -64 -142t-172 -52q-109 0 -173 52.5zM356 422.5
q28 25.5 28 66.5q0 40 -28.5 64t-74.5 24q-47 0 -76 -24t-29 -64q0 -42 28 -67t77 -25q47 0 75 25.5zM365.5 117q33.5 27 33.5 76t-32.5 78.5t-88.5 29.5q-53 0 -85.5 -30t-32.5 -78t34 -75.5t86 -27.5t85.5 27z" />
    <glyph glyph-name="nine" unicode="9" horiz-adv-x="536" 
d="M431.5 598q58.5 -75 58.5 -192q0 -182 -91 -293t-278 -125l-14 98q114 8 181 63t84 147q-48 -47 -134 -47q-55 0 -100.5 24t-72.5 70t-27 111q0 64 27.5 113.5t77.5 77.5t115 28q115 0 173.5 -75zM343 374q31 30 31 84q0 50 -31.5 81t-81.5 31q-47 0 -78.5 -31t-31.5 -83
q0 -54 31 -83t79 -29q51 0 82 30z" />
    <glyph glyph-name="colon" unicode=":" horiz-adv-x="265" 
d="M83.5 328.5q-20.5 17.5 -20.5 50.5q0 32 20.5 49.5t48.5 17.5q29 0 49.5 -17.5t20.5 -49.5q0 -33 -20.5 -50.5t-49.5 -17.5q-28 0 -48.5 17.5zM83.5 5.5q-20.5 17.5 -20.5 50.5q0 32 20.5 50t48.5 18q29 0 49.5 -18t20.5 -50q0 -33 -20.5 -50.5t-49.5 -17.5
q-28 0 -48.5 17.5z" />
    <glyph glyph-name="semicolon" unicode=";" horiz-adv-x="269" 
d="M84 329.5q-20 17.5 -20 49.5q0 33 20 50.5t49 17.5q28 0 48.5 -17.5t20.5 -50.5q0 -32 -20.5 -49.5t-48.5 -17.5q-29 0 -49 17.5zM185 103.5q20 -21.5 20 -62.5q0 -55 -27 -103.5t-76 -84.5l-28 29q28 26 44.5 51t22.5 55h-8q-29 0 -49.5 18.5t-20.5 50.5t21 50t49 18
q32 0 52 -21.5z" />
    <glyph glyph-name="less" unicode="&#x3c;" horiz-adv-x="429" 
d="M37 304v92l340 150v-104l-223 -92l223 -92v-104z" />
    <glyph glyph-name="equal" unicode="=" horiz-adv-x="499" 
d="M62 481h375v-91h-375v91zM62 290h375v-91h-375v91z" />
    <glyph glyph-name="greater" unicode="&#x3e;" horiz-adv-x="429" 
d="M52 258l224 92l-224 92v104l340 -150v-92l-340 -150v104z" />
    <glyph glyph-name="question" unicode="?" horiz-adv-x="486" 
d="M157 225q0 46 12 79.5t28.5 56t44.5 50.5q37 36 53.5 59t16.5 51t-23 49t-64 21q-69 0 -117 -57l-66 73q42 44 89 64.5t107 20.5q58 0 101.5 -22t67 -58.5t23.5 -78.5q0 -35 -13.5 -64t-32 -50t-57.5 -60q-33 -32 -49.5 -63t-16.5 -79q0 -9 2 -29h-104q-2 26 -2 37z
M162.5 6q-20.5 18 -20.5 51q0 34 20.5 52t49.5 18t50 -18t21 -52q0 -33 -21 -51t-50 -18t-49.5 18z" />
    <glyph glyph-name="at" unicode="@" horiz-adv-x="829" 
d="M208 -101q-76 43 -119 120.5t-43 177.5q0 123 53.5 222.5t148.5 156.5t213 57q86 0 159.5 -35t118 -106.5t44.5 -173.5q0 -70 -20 -128t-60 -93t-97 -35q-34 0 -56 17t-31 45q-17 -29 -53.5 -49t-81.5 -20q-65 0 -102.5 42.5t-37.5 107.5q0 63 26.5 115t76 82t114.5 30
q37 0 67.5 -9t65.5 -30l-19 -203l-1 -14q0 -48 36 -48q48 0 72.5 55t24.5 127q0 124 -69 187t-177 63q-96 0 -173.5 -48t-121 -130t-43.5 -181q0 -81 33.5 -143.5t92.5 -96.5t134 -34t146 31l27 -64q-87 -38 -176 -38q-96 0 -172 43zM469.5 152q31.5 33 37.5 91l10 108
q-29 13 -64 13q-38 0 -68.5 -20.5t-48 -56t-17.5 -77.5q0 -39 20.5 -65t55.5 -26q43 0 74.5 33z" />
    <glyph glyph-name="A" unicode="A" horiz-adv-x="687" 
d="M682 3v-3h-123l-56 123h-319l-55 -123h-124v2l321 682h36zM298 378l-74 -162h240l-74 162q-28 62 -46 116q-22 -60 -46 -116z" />
    <glyph glyph-name="B" unicode="B" horiz-adv-x="629" 
d="M557 289.5q29 -44.5 29 -101.5q0 -56 -27 -98.5t-75.5 -66t-110.5 -23.5h-290v680h271q59 0 105.5 -22.5t73 -63t26.5 -92.5q0 -47 -21.5 -84.5t-59.5 -61.5q50 -22 79 -66.5zM200 398h136q50 0 77 25t27 70q0 42 -29 66t-77 24h-134v-185zM436 125q31 28 31 75
q0 46 -30 74t-79 28h-158v-205h154q51 0 82 28z" />
    <glyph glyph-name="C" unicode="C" horiz-adv-x="692" 
d="M213.5 34q-79.5 47 -123.5 128t-44 179q0 101 45.5 181t125.5 125.5t182 45.5q77 0 138 -24t118 -76l-61 -80q-79 73 -192 73q-69 0 -122 -31.5t-83 -87t-30 -126.5q0 -69 29 -125.5t81.5 -89t120.5 -32.5q63 0 113 25t85 71l74 -76q-50 -62 -119 -94.5t-155 -32.5
q-103 0 -182.5 47z" />
    <glyph glyph-name="D" unicode="D" horiz-adv-x="719" 
d="M83 680h243q101 0 180 -44t123 -121.5t44 -175.5t-43 -175t-121.5 -120.5t-181.5 -43.5h-244v680zM322 102q70 0 122.5 30t80.5 84t28 123t-28.5 123.5t-81 85t-122.5 30.5h-120v-476h121z" />
    <glyph glyph-name="E" unicode="E" horiz-adv-x="561" 
d="M520 104v-104h-437v680h428v-104h-310v-180h271v-101h-271v-191h319z" />
    <glyph glyph-name="F" unicode="F" horiz-adv-x="542" 
d="M83 680h425v-109h-307v-196h275v-106h-275v-269h-118v680z" />
    <glyph glyph-name="G" unicode="G" horiz-adv-x="732" 
d="M681 381v-269q-50 -61 -122 -93t-160 -32q-103 0 -183 46t-125 127t-45 181q0 99 44 179t124.5 126.5t186.5 46.5q157 0 263 -109l-65 -78q-42 41 -89 61t-105 20q-72 0 -126 -31.5t-83.5 -87.5t-29.5 -128q0 -74 30.5 -130t86 -87t126.5 -31q102 0 167 65v126h-182v98
h287z" />
    <glyph glyph-name="H" unicode="H" horiz-adv-x="733" 
d="M83 680h118v-283h331v283h118v-680h-118v288h-331v-288h-118v680z" />
    <glyph glyph-name="I" unicode="I" horiz-adv-x="284" 
d="M83 680h118v-680h-118v680z" />
    <glyph glyph-name="J" unicode="J" horiz-adv-x="498" 
d="M7 50l55 90q61 -48 131 -48q114 0 114 128v460h118v-460q0 -115 -57.5 -174t-166.5 -59q-111 0 -194 63z" />
    <glyph glyph-name="K" unicode="K" horiz-adv-x="606" 
d="M600 4v-4h-139l-260 304v-304h-118v680h118v-305l244 305h134v-3l-268 -334z" />
    <glyph glyph-name="L" unicode="L" horiz-adv-x="521" 
d="M83 680h118v-571h295v-109h-413v680z" />
    <glyph glyph-name="M" unicode="M" horiz-adv-x="854" 
d="M812 0h-116l-54 368q-7 53 -8 69q-12 -22 -40 -64l-155 -236h-24l-154 236q-22 31 -42 66q-1 -19 -4 -41t-4 -31l-52 -367h-116l100 685h35l205 -314q24 -38 44 -71q20 33 44 71l206 314h35z" />
    <glyph glyph-name="N" unicode="N" horiz-adv-x="749" 
d="M666 680v-684h-46l-367 401q-40 43 -57 62q4 -50 4 -74v-385h-117v684h45l356 -391q46 -48 68 -73q-3 50 -3 91v369h117z" />
    <glyph glyph-name="O" unicode="O" horiz-adv-x="800" 
d="M217.5 33.5q-80.5 46.5 -126 127.5t-45.5 180q0 101 45 181t125.5 125.5t183.5 45.5t183.5 -45.5t125.5 -125.5t45 -181q0 -99 -45 -180t-125.5 -127.5t-183.5 -46.5q-102 0 -182.5 46.5zM523 127q53 33 82 89t29 125q0 70 -29 126t-82 87.5t-123 31.5t-122.5 -31.5
t-81.5 -87.5t-29 -126q0 -69 29 -125t82 -89t122 -33q70 0 123 33z" />
    <glyph glyph-name="P" unicode="P" horiz-adv-x="598" 
d="M83 680h261q70 0 122 -30.5t79 -81t27 -107.5t-27 -105.5t-79 -78t-124 -29.5h-141v-248h-118v680zM329 349q61 0 92.5 33t31.5 80q0 49 -33 82t-88 33h-131v-228h128z" />
    <glyph glyph-name="Q" unicode="Q" horiz-adv-x="800" 
d="M683 -103l-146 114q-66 -24 -137 -24q-102 0 -182.5 46.5t-126 127.5t-45.5 180q0 101 45 181t125.5 125.5t183.5 45.5t183.5 -45.5t125.5 -125.5t45 -181q0 -81 -30.5 -151t-86.5 -118l118 -94zM196 216q29 -56 82 -89t122 -33q70 0 123 33t82 89t29 125q0 70 -29 126
t-82 87.5t-123 31.5t-122.5 -31.5t-81.5 -87.5t-29 -126q0 -69 29 -125z" />
    <glyph glyph-name="R" unicode="R" horiz-adv-x="625" 
d="M598 3v-3h-134l-160 258h-103v-258h-118v680h267q66 0 119 -27.5t82.5 -76t29.5 -108.5q0 -71 -42 -123.5t-115 -73.5zM338 356q58 0 91 29.5t33 80.5q0 49 -34 80.5t-88 31.5h-139v-222h137z" />
    <glyph glyph-name="S" unicode="S" horiz-adv-x="572" 
d="M157.5 8.5q-64.5 21.5 -114.5 61.5l55 92q39 -33 88 -51.5t102 -18.5q54 0 90.5 24t36.5 67t-37.5 68t-109.5 48q-203 66 -203 207q0 58 30.5 100.5t82.5 64.5t114 22q60 0 113 -16t108 -53l-51 -88q-43 28 -82.5 40.5t-81.5 12.5q-48 0 -80.5 -20t-32.5 -57
q0 -42 35.5 -65.5t103.5 -46.5q99 -32 154.5 -81t55.5 -130q0 -62 -32 -107.5t-87 -70t-123 -24.5q-70 0 -134.5 21.5z" />
    <glyph glyph-name="T" unicode="T" horiz-adv-x="542" 
d="M522 571h-192v-571h-118v571h-193v109h503v-109z" />
    <glyph glyph-name="U" unicode="U" horiz-adv-x="691" 
d="M204.5 17q-61.5 30 -96.5 87t-35 137v439h118v-431q0 -76 41.5 -115.5t113.5 -39.5q71 0 112.5 39.5t41.5 115.5v431h118v-439q0 -80 -35 -137t-96.5 -87t-140.5 -30q-80 0 -141.5 30z" />
    <glyph glyph-name="V" unicode="V" horiz-adv-x="694" 
d="M687 680v-2l-322 -682h-36l-322 682v2h129l173 -378q26 -57 38 -93q21 57 39 95l171 376h130z" />
    <glyph glyph-name="W" unicode="W" horiz-adv-x="965" 
d="M950 680v-3l-239 -681h-35l-165 361q-20 46 -30 76q-11 -37 -28 -76l-165 -361h-35l-238 681v3h124l119 -354l7 -21q15 -47 23 -81q19 54 39 101l140 314h29l135 -300q31 -70 46 -114q5 17 25 83l9 26l116 346h123z" />
    <glyph glyph-name="X" unicode="X" horiz-adv-x="643" 
d="M11 2l240 350l-220 326v2h136l95 -144q35 -52 61 -98q27 48 61 100l93 142h135v-2l-219 -326l239 -350v-2h-137l-113 170q-36 54 -60 96q-32 -56 -60 -96l-114 -170h-137v2z" />
    <glyph glyph-name="Y" unicode="Y" horiz-adv-x="644" 
d="M629 680v-3l-248 -382v-295h-118v295l-248 382v3h134l122 -192q25 -40 52 -94q17 39 51 94l121 192h134z" />
    <glyph glyph-name="Z" unicode="Z" horiz-adv-x="577" 
d="M36 35l287 466l20 31q22 35 25 40q-25 -1 -74 -1h-241v109h485v-35l-293 -475q-21 -35 -39 -62q23 1 65 1h270v-109h-505v35z" />
    <glyph glyph-name="bracketleft" unicode="[" horiz-adv-x="275" 
d="M64 759h180v-90h-81v-766h81v-90h-180v946z" />
    <glyph glyph-name="backslash" unicode="\" horiz-adv-x="403" 
d="M27 692h85l264 -704h-86z" />
    <glyph glyph-name="bracketright" unicode="]" horiz-adv-x="275" 
d="M31 -187v90h81v766h-81v90h180v-946h-180z" />
    <glyph glyph-name="asciicircum" unicode="^" horiz-adv-x="480" 
d="M198 680h79l174 -344h-111l-102 212l-99 -212h-110z" />
    <glyph glyph-name="underscore" unicode="_" horiz-adv-x="492" 
d="M42 -25h407v-84h-407v84z" />
    <glyph glyph-name="grave" unicode="`" horiz-adv-x="296" 
d="M48 622l62 72l143 -122l-45 -51z" />
    <glyph glyph-name="a" unicode="a" horiz-adv-x="484" 
d="M377.5 411q48.5 -43 48.5 -123v-288h-73l-20 67q-25 -36 -65.5 -56t-93.5 -20q-63 0 -101.5 33.5t-38.5 91.5q0 75 61 116.5t165 41.5q24 0 56 -2v20q0 34 -24 51.5t-67 17.5q-64 0 -139 -36l-31 83q101 46 187 46q87 0 135.5 -43zM286.5 107q31.5 34 32.5 94
q-27 3 -52 3q-59 0 -92 -20t-33 -57q0 -26 17 -40t47 -14q49 0 80.5 34z" />
    <glyph glyph-name="b" unicode="b" horiz-adv-x="572" 
d="M430 427.5q49 -29.5 76.5 -82.5t27.5 -119q0 -70 -27 -123.5t-76 -83.5t-112 -30q-50 0 -91.5 20t-69.5 56l-18 -65h-76v720h109v-199q0 -66 -3 -129q28 31 66.5 48t82.5 17q62 0 111 -29.5zM389.5 122.5q34.5 38.5 34.5 100.5t-35 100t-91 38q-58 0 -93.5 -38
t-35.5 -100q0 -63 35 -101t94 -38q57 0 91.5 38.5z" />
    <glyph glyph-name="c" unicode="c" horiz-adv-x="461" 
d="M154.5 14.5q-52.5 27.5 -85.5 81t-33 127.5q0 71 31.5 124.5t85.5 82t118 28.5q97 0 166 -60l-53 -73q-24 20 -48.5 29t-56.5 9q-57 0 -95 -38.5t-38 -101.5q0 -64 37.5 -102t93.5 -38q35 0 62 11t52 35l55 -73q-39 -36 -80.5 -52.5t-99.5 -16.5q-59 0 -111.5 27.5z" />
    <glyph glyph-name="d" unicode="d" horiz-adv-x="572" 
d="M508 720v-720h-75l-19 67q-28 -37 -68.5 -57.5t-92.5 -20.5q-63 0 -112 30t-76 83.5t-27 123.5q0 66 27.5 119t76.5 82.5t111 29.5q45 0 84 -17t65 -47q-3 62 -3 128v199h109zM368 122q35 38 35 101q0 62 -35 100t-93 38q-57 0 -92 -38t-35 -100t35 -100.5t92 -38.5
q58 0 93 38z" />
    <glyph glyph-name="e" unicode="e" horiz-adv-x="502" 
d="M414.5 399q54.5 -59 54.5 -160q0 -16 -4 -52h-320q10 -53 48.5 -81.5t93.5 -28.5q37 0 65.5 10.5t52.5 31.5l46 -70q-39 -31 -81 -46.5t-93 -15.5q-71 0 -125.5 30t-85 84t-30.5 123q0 65 29.5 118.5t82 84.5t118.5 31q94 0 148.5 -59zM187 340.5q-32 -28.5 -42 -79.5
h221q-2 52 -30 80t-72 28q-45 0 -77 -28.5z" />
    <glyph glyph-name="f" unicode="f" horiz-adv-x="341" 
d="M98 353h-83v93h83v118q0 77 42 123.5t116 46.5q36 0 65.5 -9.5t59.5 -29.5l-39 -78q-17 10 -31.5 14.5t-33.5 4.5q-32 0 -51.5 -20.5t-19.5 -57.5v-112h123v-93h-122v-353h-109v353z" />
    <glyph glyph-name="g" unicode="g" horiz-adv-x="572" 
d="M508 446v-464q0 -104 -64 -159t-170 -55q-119 0 -202 68l42 82q65 -52 151 -52q62 0 97.5 29t35.5 85q0 47 2 72q-28 -30 -66.5 -45t-81.5 -15q-63 0 -111.5 29.5t-75.5 82.5t-27 120t27 120t75 83t110 30q51 0 93.5 -19t70.5 -57l22 65h72zM369 124.5q34 38.5 34 99.5
t-33.5 99.5t-94.5 38.5q-58 0 -92 -38t-34 -100q0 -61 34 -99.5t91 -38.5q61 0 95 38.5z" />
    <glyph glyph-name="h" unicode="h" horiz-adv-x="526" 
d="M426.5 411q40.5 -47 40.5 -131v-280h-109v271q0 42 -19 65.5t-58 23.5q-51 0 -79.5 -37t-28.5 -93v-230h-109v720h109v-266q0 -41 -1 -68q46 72 137 72q77 0 117.5 -47z" />
    <glyph glyph-name="i" unicode="i" horiz-adv-x="237" 
d="M69.5 557.5q-18.5 18.5 -18.5 46.5t18.5 46.5t49.5 18.5t49.5 -19t18.5 -47q0 -27 -19 -45.5t-49 -18.5q-31 0 -49.5 18.5zM64 446h109v-446h-109v446z" />
    <glyph glyph-name="j" unicode="j" horiz-adv-x="241" 
d="M73.5 557.5q-18.5 18.5 -18.5 45.5q0 28 18.5 47t48.5 19q32 0 50.5 -18.5t18.5 -47.5q0 -28 -19 -46t-50 -18q-30 0 -48.5 18.5zM-46 -139q46 3 70.5 18t34 42.5t9.5 73.5v451h109v-451q0 -76 -19.5 -124t-65 -73.5t-124.5 -29.5z" />
    <glyph glyph-name="k" unicode="k" horiz-adv-x="465" 
d="M459 6v-6h-126l-160 190v-190h-109v720h109v-451l148 177h123v-5l-177 -211z" />
    <glyph glyph-name="l" unicode="l" horiz-adv-x="238" 
d="M64 720h109l1 -720h-110v720z" />
    <glyph glyph-name="m" unicode="m" horiz-adv-x="792" 
d="M694 412.5q40 -45.5 40 -125.5v-287h-109v275q0 40 -19.5 62.5t-52.5 22.5q-49 0 -74.5 -36t-25.5 -85v-239h-108v276q0 36 -19 60t-54 24q-48 0 -73.5 -36t-25.5 -85v-239h-109v446h74l22 -71q23 40 59 61.5t83 21.5t81.5 -21t52.5 -58q22 37 59 58t86 21
q73 0 113 -45.5z" />
    <glyph glyph-name="n" unicode="n" horiz-adv-x="526" 
d="M426.5 411.5q40.5 -46.5 40.5 -132.5v-279h-109v269q0 91 -76 91q-50 0 -79.5 -32t-29.5 -83v-245h-109v446h74l22 -70q24 37 61.5 59.5t88.5 22.5q76 0 116.5 -46.5z" />
    <glyph glyph-name="o" unicode="o" horiz-adv-x="551" 
d="M151.5 17q-54.5 30 -85 84t-30.5 122t30.5 121.5t85 83.5t123.5 30t124 -30t85.5 -83.5t30.5 -121.5t-30.5 -122t-85.5 -84t-124 -30t-123.5 30zM368.5 122.5q35.5 38.5 35.5 100.5t-35.5 100.5t-93.5 38.5q-57 0 -93 -39t-36 -100t36 -100t93 -39q58 0 93.5 38.5z" />
    <glyph glyph-name="p" unicode="p" horiz-adv-x="572" 
d="M430.5 427q48.5 -30 76 -83t27.5 -119q0 -69 -27.5 -122.5t-76 -83.5t-109.5 -30q-45 0 -83.5 16.5t-66.5 45.5q2 -31 2 -106v-165h-109v666h74l21 -68q28 38 69.5 58.5t92.5 20.5q61 0 109.5 -30zM388.5 122.5q34.5 38.5 34.5 99.5q0 62 -34.5 100.5t-90.5 38.5
q-58 0 -93.5 -38t-35.5 -99q0 -63 36 -101.5t93 -38.5q56 0 90.5 38.5z" />
    <glyph glyph-name="q" unicode="q" horiz-adv-x="572" 
d="M508 446v-666h-110v165q0 60 3 108q-27 -30 -65.5 -47t-84.5 -17q-62 0 -110.5 30t-75.5 83.5t-27 122.5q0 66 27.5 119t76 83t109.5 30q51 0 92 -21t69 -59l22 69h74zM367 122.5q36 38.5 36 101.5q0 62 -36 99.5t-94 37.5q-56 0 -90.5 -38.5t-34.5 -100.5
q0 -61 35 -99.5t90 -38.5q58 0 94 38.5z" />
    <glyph glyph-name="r" unicode="r" horiz-adv-x="371" 
d="M365 437l-28 -92q-28 10 -58 10q-48 0 -77 -30t-29 -82v-243h-109v446h74l21 -66q19 37 52 56.5t77 19.5t77 -19z" />
    <glyph glyph-name="s" unicode="s" horiz-adv-x="398" 
d="M30 39l43 77q59 -37 122 -37q30 0 48 12.5t18 33.5q0 22 -21 35.5t-65 30.5q-60 23 -93 54.5t-33 82.5q0 59 45.5 92t112.5 33q77 0 146 -40l-38 -73q-50 26 -99 26q-28 0 -45.5 -9t-17.5 -29t20.5 -34.5t60.5 -28.5q65 -24 99.5 -56t34.5 -84q0 -62 -45.5 -98.5
t-119.5 -36.5q-96 0 -173 49z" />
    <glyph glyph-name="t" unicode="t" horiz-adv-x="373" 
d="M132.5 26.5q-35.5 36.5 -35.5 109.5v217l-79 6v87h79l3 143h106v-143h138v-93h-138v-206q0 -31 12.5 -44t36.5 -13q39 0 75 23l35 -82q-65 -41 -135 -41q-62 0 -97.5 36.5z" />
    <glyph glyph-name="u" unicode="u" horiz-adv-x="523" 
d="M459 446v-446h-76l-22 68q-23 -36 -59.5 -56.5t-82.5 -20.5q-79 0 -120 47.5t-41 131.5v276h110v-266q0 -91 78 -91q49 0 76.5 36t27.5 90v231h109z" />
    <glyph glyph-name="v" unicode="v" horiz-adv-x="485" 
d="M478 446v-3l-212 -447h-47l-211 447v3h120l87 -200q18 -41 28 -84q13 50 28 84l87 200h120z" />
    <glyph glyph-name="w" unicode="w" horiz-adv-x="675" 
d="M663 446v-3l-167 -447h-34l-124 249l-125 -249h-33l-167 447v3h116l69 -198q10 -30 16 -54q14 36 25 55l87 175h23l87 -175q13 -23 26 -56q6 23 17 55l69 198h115z" />
    <glyph glyph-name="x" unicode="x" horiz-adv-x="473" 
d="M17 2l150 230l-137 211v3h122l56 -92q12 -19 28 -53l30 54l57 91h119v-3l-136 -211l150 -230v-2h-123l-65 104q-11 18 -32 60q-14 -31 -32 -60l-66 -104h-121v2z" />
    <glyph glyph-name="y" unicode="y" horiz-adv-x="489" 
d="M480 446v-3l-263 -663h-116v2l99 229l-191 432v3h118l95 -228q18 -44 30 -86q10 38 27 86l87 228h114z" />
    <glyph glyph-name="z" unicode="z" horiz-adv-x="418" 
d="M386 94v-94h-353v31l166 273q17 29 30 49q-26 -1 -55 -1h-132v94h341v-31l-155 -256q-22 -37 -42 -66q28 1 71 1h129z" />
    <glyph glyph-name="braceleft" unicode="{" horiz-adv-x="328" 
d="M271 -191q-73 0 -108 34t-35 107v200q0 48 -18 69.5t-64 20.5v91q46 0 64 21.5t18 68.5v200q0 74 35 108t108 34q19 0 29 -1v-91q-42 2 -58 -11.5t-16 -52.5v-202q0 -50 -18.5 -78.5t-56.5 -40.5q38 -12 56.5 -40.5t18.5 -78.5v-202q0 -39 16 -53t58 -11v-91
q-10 -1 -29 -1z" />
    <glyph glyph-name="bar" unicode="|" horiz-adv-x="230" 
d="M66 739h99v-905h-99v905z" />
    <glyph glyph-name="braceright" unicode="}" horiz-adv-x="328" 
d="M27 -99q43 -3 59 11t16 53v202q0 49 18.5 78t55.5 41q-37 12 -55.5 41t-18.5 78v202q0 39 -16 52.5t-59 11.5v91q10 1 29 1q73 0 108.5 -34t35.5 -108v-200q0 -48 18 -69t64 -21v-91q-46 1 -64 -20.5t-18 -69.5v-200q0 -73 -35.5 -107t-108.5 -34q-19 0 -29 1v91z" />
    <glyph glyph-name="asciitilde" unicode="~" horiz-adv-x="562" 
d="M56 311q17 53 50.5 83.5t84.5 30.5q25 0 47 -8.5t49 -23.5q31 -19 47 -27t33 -8q41 0 60 61l79 -39q-15 -55 -47.5 -87.5t-83.5 -32.5q-24 0 -45.5 8t-47.5 23q-5 3 -23 13.5t-33 16t-28 5.5q-26 0 -40 -14t-25 -42z" />
    <glyph glyph-name="uni00A0" unicode="&#xa0;" horiz-adv-x="225" 
 />
    <glyph glyph-name="exclamdown" unicode="&#xa1;" horiz-adv-x="274" 
d="M186.5 394q20.5 -18 20.5 -51q0 -34 -20.5 -52t-49.5 -18t-50 18t-21 52q0 33 21 51t50 18t49.5 -18zM186 212l13 -492h-125l13 492h99z" />
    <glyph glyph-name="cent" unicode="&#xa2;" horiz-adv-x="451" 
d="M298 75v-83h-75v84q-79 13 -129.5 73t-50.5 152q0 91 50.5 152.5t129.5 74.5v83h75v-82q71 -10 121 -60l-49 -74q-39 41 -94 41q-52 0 -87 -37t-35 -98q0 -60 34.5 -96t87.5 -36q32 0 56 10.5t46 32.5l47 -77q-52 -51 -127 -60z" />
    <glyph glyph-name="sterling" unicode="&#xa3;" horiz-adv-x="490" 
d="M466 102v-102h-410l-26 64q58 45 90 100t32 108v6h-98v77h77l-13 26q-20 37 -29.5 63.5t-9.5 59.5q0 47 25 85.5t68.5 60.5t98.5 22q104 0 177 -72l-64 -67q-40 37 -96 37q-41 0 -66 -21.5t-25 -56.5q0 -23 8 -44.5t24 -51.5q12 -22 20 -41h145v-77h-127v-5
q0 -44 -19.5 -88.5t-52.5 -82.5h271z" />
    <glyph glyph-name="currency" unicode="&#xa4;" horiz-adv-x="531" 
d="M43 183l63 63q-27 46 -27 104t27 104l-63 63l55 56l62 -61q45 32 106 32q60 0 105 -32l62 61l55 -56l-62 -63q27 -46 27 -104t-27 -104l62 -63l-55 -56l-62 61q-46 -33 -105 -33q-60 0 -106 33l-62 -61zM332.5 274.5q25.5 28.5 25.5 75.5t-25.5 75.5t-66.5 28.5
q-42 0 -67.5 -28.5t-25.5 -75.5t25.5 -75.5t67.5 -28.5q41 0 66.5 28.5z" />
    <glyph glyph-name="yen" unicode="&#xa5;" horiz-adv-x="598" 
d="M239 153h-153v74h153v55h-153v74h123l-199 305h132l156 -261l157 261h132l-199 -305h123v-74h-153v-55h153v-74h-153v-153h-119v153z" />
    <glyph glyph-name="brokenbar" unicode="&#xa6;" horiz-adv-x="230" 
d="M66 739h99v-386h-99v386zM66 238h99v-404h-99v404z" />
    <glyph glyph-name="section" unicode="&#xa7;" horiz-adv-x="534" 
d="M157 -41q-49 17 -89 48l52 84q28 -26 65 -40t76 -14q86 0 86 62q0 28 -26.5 46t-83.5 39q-85 31 -133 67t-48 95q0 35 16.5 63.5t46.5 44.5q-38 36 -38 90q0 71 53 109.5t132 38.5q94 0 171 -51l-46 -81q-26 18 -59 28.5t-64 10.5q-36 0 -58 -13.5t-22 -39.5
q0 -25 24 -41t71 -34q88 -34 141 -74t53 -99q0 -65 -59 -106q37 -37 37 -90q0 -77 -54.5 -118.5t-141.5 -41.5q-53 0 -102 17zM372 290q0 22 -17.5 39t-35.5 25.5t-59 24.5q-46 18 -69 29q-34 -25 -34 -51q0 -20 18 -35.5t34 -23t59 -25.5q44 -17 75 -31q29 20 29 48z" />
    <glyph glyph-name="dieresis" unicode="&#xa8;" horiz-adv-x="419" 
d="M81.5 560q-16.5 17 -16.5 41t16 41.5t43 17.5q25 0 42 -17.5t17 -40.5q0 -24 -16.5 -41.5t-42.5 -17.5t-42.5 17zM253 560.5q-17 17.5 -17 40.5t17 41t43 18t42.5 -17.5t16.5 -41.5q0 -23 -17 -40.5t-42 -17.5q-26 0 -43 17.5z" />
    <glyph glyph-name="copyright" unicode="&#xa9;" horiz-adv-x="776" 
d="M210 42.5q-78 45.5 -121 123.5t-43 174t43 174t121 123t178 45q99 0 177 -45t121 -123t43 -174t-43 -174t-121 -123.5t-177 -45.5q-100 0 -178 45.5zM533 95q63 37 97.5 101t34.5 144q0 79 -34.5 143t-97.5 100.5t-145 36.5q-81 0 -144.5 -36.5t-98.5 -100.5t-35 -143
q0 -80 35 -144t98.5 -101t144.5 -37q82 0 145 37zM310.5 176q-41.5 21 -68 63t-26.5 102q0 56 24.5 98t66.5 64.5t91 22.5q74 0 127 -50l-41 -59q-34 31 -81 31q-44 0 -72 -30t-28 -78t29 -77t74 -29q49 0 87 37l42 -60q-56 -56 -136 -56q-47 0 -88.5 21z" />
    <glyph glyph-name="ordfeminine" unicode="&#xaa;" horiz-adv-x="307" 
d="M60 467.5q-21 19.5 -21 52.5q0 42 37.5 63.5t89.5 22.5q9 0 23 -2v15q0 33 -44 33q-36 0 -73 -20l-23 52q54 28 108 28q45 0 73 -24t28 -73v-160h-51l-10 33q-10 -16 -31 -28t-51 -12q-34 0 -55 19.5zM175.5 515.5q14.5 16.5 14.5 43.5q-7 2 -23 2q-24 0 -42 -8.5
t-18 -27.5q0 -26 32 -26q22 0 36.5 16.5zM46 404h212v-61h-212v61z" />
    <glyph glyph-name="guillemotleft" unicode="&#xab;" horiz-adv-x="455" 
d="M26 245l124 197l82 -45l-86 -152l87 -156l-81 -45zM205 245l125 197l81 -45l-86 -152l88 -156l-82 -45z" />
    <glyph glyph-name="logicalnot" unicode="&#xac;" horiz-adv-x="533" 
d="M383 323h-327v94h418v-225h-91v131z" />
    <glyph glyph-name="registered" unicode="&#xae;" horiz-adv-x="540" 
d="M155.5 266.5q-51.5 29.5 -80.5 81t-29 115.5q0 63 29.5 114t80.5 80.5t114 29.5t114 -29.5t80.5 -80.5t29.5 -114q0 -64 -29 -115.5t-80.5 -81t-114.5 -29.5t-114.5 29.5zM357.5 309q39.5 23 62 63.5t22.5 90.5q0 49 -22.5 88.5t-62 62.5t-87.5 23t-87.5 -23t-62 -62.5
t-22.5 -88.5q0 -50 22.5 -90.5t62 -63.5t87.5 -23t87.5 23zM189 573h101q31 0 52 -19.5t21 -48.5q0 -23 -14 -40t-36 -22l57 -87h-56l-52 83h-25v-83h-48v217zM282 477q15 0 24 8t9 20t-9 20t-24 8h-45v-56h45z" />
    <glyph glyph-name="macron" unicode="&#xaf;" horiz-adv-x="394" 
d="M64 626h268v-79h-268v79z" />
    <glyph glyph-name="degree" unicode="&#xb0;" horiz-adv-x="353" 
d="M73.5 453q-41.5 37 -41.5 101t41.5 100.5t103.5 36.5t103 -36.5t41 -100.5t-41 -101t-103 -37t-103.5 37zM222 505.5q18 18.5 18 48.5t-17.5 48t-45.5 18t-46 -18t-18 -48t18 -48.5t46 -18.5q27 0 45 18.5z" />
    <glyph glyph-name="plusminus" unicode="&#xb1;" horiz-adv-x="488" 
d="M197 381h-138v89h138v137h93v-137h139v-89h-139v-138h-93v138zM59 179h370v-88h-370v88z" />
    <glyph glyph-name="acute" unicode="&#xb4;" horiz-adv-x="307" 
d="M53 572l142 122l61 -71l-158 -102z" />
    <glyph glyph-name="uni00B5" unicode="&#xb5;" horiz-adv-x="529" 
d="M465 446v-446h-88l-9 69q-44 -75 -125 -75q-46 0 -78 27q6 -77 6 -161v-74h-107v660h109v-243q0 -113 82 -113q49 0 75 37.5t26 90.5v228h109z" />
    <glyph glyph-name="paragraph" unicode="&#xb6;" horiz-adv-x="626" 
d="M233 283q-62 0 -107.5 26.5t-69.5 71.5t-24 100q0 56 24 101.5t69.5 71.5t107.5 26h311v-778h-98v683h-115v-683h-98v381z" />
    <glyph glyph-name="periodcentered" unicode="&#xb7;" horiz-adv-x="268" 
d="M84 298.5q-21 17.5 -21 51.5t21 51.5t50 17.5t50 -17.5t21 -51.5t-21 -51.5t-50 -17.5t-50 17.5z" />
    <glyph glyph-name="cedilla" unicode="&#xb8;" horiz-adv-x="323" 
d="M53 -190l25 57q32 -20 67 -20q46 0 46 30q0 22 -25.5 31t-63.5 8l35 86h71l-22 -53q37 -6 60.5 -26t23.5 -54q0 -40 -32 -62.5t-82 -22.5q-60 0 -103 26z" />
    <glyph glyph-name="ordmasculine" unicode="&#xba;" horiz-adv-x="318" 
d="M72.5 487q-30.5 38 -30.5 94q0 55 30.5 93t86.5 38t86.5 -38t30.5 -93q0 -56 -30.5 -94t-86.5 -38t-86.5 38zM195.5 533.5q12.5 20.5 12.5 47.5t-12.5 47.5t-36.5 20.5q-25 0 -36.5 -20.5t-11.5 -47.5q0 -28 11.5 -48t36.5 -20q24 0 36.5 20.5zM54 404h214v-61h-214v61z
" />
    <glyph glyph-name="guillemotright" unicode="&#xbb;" horiz-adv-x="455" 
d="M42 89l88 156l-86 152l81 45l125 -197l-126 -201zM222 89l87 156l-86 152l82 45l124 -197l-126 -201z" />
    <glyph glyph-name="onequarter" unicode="&#xbc;" horiz-adv-x="623" 
d="M101 576l-38 -33l-38 41l104 99h36v-286h-64v179zM435 680h75l-352 -680h-76zM485 46h-132v29l160 211h31v-189h34v-51h-34v-46h-59v46zM485 97v69l-51 -69h51z" />
    <glyph glyph-name="onehalf" unicode="&#xbd;" horiz-adv-x="644" 
d="M101 576l-38 -33l-38 41l104 99h36v-286h-64v179zM435 680h75l-352 -680h-76zM607 58v-58h-203v27l106 129q21 28 21 47q0 14 -8 22.5t-24 8.5q-25 0 -43 -37l-50 25q12 36 37.5 54t59.5 18q42 0 68 -25.5t26 -61.5q0 -20 -7.5 -39.5t-26.5 -44.5l-52 -65h96z" />
    <glyph glyph-name="threequarters" unicode="&#xbe;" horiz-adv-x="684" 
d="M41 422l34 45q11 -10 27 -15.5t32 -5.5q21 0 33 10t12 27q0 35 -46 35h-32v51h26q17 0 28 8t11 24q0 14 -10 21.5t-24 7.5q-25 0 -46 -16l-36 43q38 33 92 33q37 0 63 -22t26 -56q0 -22 -10.5 -39.5t-28.5 -24.5q22 -6 38 -26t16 -46q0 -40 -29 -65t-76 -25
q-61 0 -100 36zM496 680h75l-352 -680h-76zM546 46h-132v29l160 211h31v-189h34v-51h-34v-46h-59v46zM546 97v69l-51 -69h51z" />
    <glyph glyph-name="questiondown" unicode="&#xbf;" horiz-adv-x="443" 
d="M310.5 394q20.5 -18 20.5 -51q0 -34 -20.5 -52t-49.5 -18t-50 18t-21 52q0 33 21 51t50 18t49.5 -18zM316 175q0 -46 -12 -79.5t-29 -56t-45 -50.5q-37 -37 -53 -59.5t-16 -50.5t23 -49t64 -21q36 0 64 14t53 43l65 -73q-41 -44 -87.5 -64.5t-107.5 -20.5
q-58 0 -101.5 22t-67 58.5t-23.5 78.5q0 35 13.5 64t33 51t56.5 59q33 33 49 63.5t16 78.5q0 19 -1 29h104q2 -26 2 -37z" />
    <glyph glyph-name="Agrave" unicode="&#xc0;" horiz-adv-x="687" 
d="M682 3v-3h-123l-56 123h-319l-55 -123h-124v2l321 682h36zM298 378l-74 -162h240l-74 162q-28 62 -46 116q-22 -60 -46 -116zM220 851l66 76l148 -127l-47 -54z" />
    <glyph glyph-name="Aacute" unicode="&#xc1;" horiz-adv-x="687" 
d="M682 3v-3h-123l-56 123h-319l-55 -123h-124v2l321 682h36zM298 378l-74 -162h240l-74 162q-28 62 -46 116q-22 -60 -46 -116zM243 800l148 127l65 -75l-166 -106z" />
    <glyph glyph-name="Acircumflex" unicode="&#xc2;" horiz-adv-x="687" 
d="M682 3v-3h-123l-56 123h-319l-55 -123h-124v2l321 682h36zM298 378l-74 -162h240l-74 162q-28 62 -46 116q-22 -60 -46 -116zM193 790l141 110h18l140 -111l-41 -51l-108 69l-108 -69z" />
    <glyph glyph-name="Atilde" unicode="&#xc3;" horiz-adv-x="687" 
d="M682 3v-3h-123l-56 123h-319l-55 -123h-124v2l321 682h36zM298 378l-74 -162h240l-74 162q-28 62 -46 116q-22 -60 -46 -116zM188 797q17 45 40 67.5t56 22.5q28 0 68 -20q30 -14 44 -14q22 0 38 34l65 -35q-34 -89 -96 -89q-27 0 -59 16q-3 1 -14.5 7t-20.5 8.5t-16 2.5
q-12 0 -22 -8.5t-19 -28.5z" />
    <glyph glyph-name="Adieresis" unicode="&#xc4;" horiz-adv-x="687" 
d="M682 3v-3h-123l-56 123h-319l-55 -123h-124v2l321 682h36zM298 378l-74 -162h240l-74 162q-28 62 -46 116q-22 -60 -46 -116zM199.5 782q-17.5 18 -17.5 44t17.5 45t45.5 19q27 0 45 -19t18 -44t-17.5 -44t-45.5 -19t-45.5 18zM396.5 782.5q-17.5 18.5 -17.5 44.5
q0 25 18 44t45 19t45 -19t18 -44q0 -26 -17.5 -44.5t-45.5 -18.5t-45.5 18.5z" />
    <glyph glyph-name="Aring" unicode="&#xc5;" horiz-adv-x="687" 
d="M682 3v-3h-123l-56 123h-319l-55 -123h-124v2l321 682h36zM298 378l-74 -162h240l-74 162q-28 62 -46 116q-22 -60 -46 -116zM260 751.5q-34 29.5 -34 78.5q0 50 33.5 79.5t82.5 29.5q50 0 84 -29.5t34 -79.5t-33 -79t-83 -29t-84 29.5zM377.5 795.5q13.5 12.5 13.5 35.5
q0 22 -14 35t-34 13t-34 -13t-14 -35t14 -35t34 -13q21 0 34.5 12.5z" />
    <glyph glyph-name="AE" unicode="&#xc6;" horiz-adv-x="886" 
d="M844 104v-104h-404v125h-234l-81 -125h-132v3l447 677h395v-104h-283v-179h249v-100h-249v-193h292zM440 216v185v103q-11 -24 -24.5 -46.5t-17.5 -29.5l-137 -212h179z" />
    <glyph glyph-name="Ccedilla" unicode="&#xc7;" horiz-adv-x="692" 
d="M444 -10l-17 -41q38 -6 63.5 -27t25.5 -57q0 -44 -34.5 -68.5t-89.5 -24.5q-66 0 -112 28l28 63q31 -22 72 -22q21 0 34 7t14 22q2 25 -26 35.5t-68 9.5l30 73q-94 7 -166.5 55.5t-112 126.5t-39.5 171q0 101 45.5 181t125.5 125.5t182 45.5q77 0 138 -24t118 -76
l-61 -80q-79 73 -192 73q-69 0 -122 -31.5t-83 -87t-30 -126.5q0 -69 29 -125.5t81.5 -89t120.5 -32.5q63 0 113 25t85 71l74 -76q-88 -108 -226 -124z" />
    <glyph glyph-name="Egrave" unicode="&#xc8;" horiz-adv-x="561" 
d="M520 104v-104h-437v680h428v-104h-310v-180h271v-101h-271v-191h319zM175 851l66 76l148 -127l-47 -54z" />
    <glyph glyph-name="Eacute" unicode="&#xc9;" horiz-adv-x="561" 
d="M520 104v-104h-437v680h428v-104h-310v-180h271v-101h-271v-191h319zM199 800l148 127l65 -75l-166 -106z" />
    <glyph glyph-name="Ecircumflex" unicode="&#xca;" horiz-adv-x="561" 
d="M520 104v-104h-437v680h428v-104h-310v-180h271v-101h-271v-191h319zM149 790l141 110h18l140 -111l-41 -51l-108 69l-108 -69z" />
    <glyph glyph-name="Edieresis" unicode="&#xcb;" horiz-adv-x="561" 
d="M520 104v-104h-437v680h428v-104h-310v-180h271v-101h-271v-191h319zM155.5 782q-17.5 18 -17.5 44t17.5 45t45.5 19q27 0 45 -19t18 -44t-17.5 -44t-45.5 -19t-45.5 18zM352.5 782.5q-17.5 18.5 -17.5 44.5q0 25 18 44t45 19t45 -19t18 -44q0 -26 -17.5 -44.5
t-45.5 -18.5t-45.5 18.5z" />
    <glyph glyph-name="Igrave" unicode="&#xcc;" horiz-adv-x="284" 
d="M83 680h118v-680h-118v680zM18 851l66 76l148 -127l-47 -54z" />
    <glyph glyph-name="Iacute" unicode="&#xcd;" horiz-adv-x="284" 
d="M83 680h118v-680h-118v680zM41 800l148 127l65 -75l-166 -106z" />
    <glyph glyph-name="Icircumflex" unicode="&#xce;" horiz-adv-x="284" 
d="M83 680h118v-680h-118v680zM-9 790l141 110h18l140 -111l-41 -51l-108 69l-108 -69z" />
    <glyph glyph-name="Idieresis" unicode="&#xcf;" horiz-adv-x="284" 
d="M83 680h118v-680h-118v680zM-2.5 782q-17.5 18 -17.5 44t17.5 45t45.5 19q27 0 45 -19t18 -44t-17.5 -44t-45.5 -19t-45.5 18zM194.5 782.5q-17.5 18.5 -17.5 44.5q0 25 18 44t45 19t45 -19t18 -44q0 -26 -17.5 -44.5t-45.5 -18.5t-45.5 18.5z" />
    <glyph glyph-name="Eth" unicode="&#xd0;" horiz-adv-x="727" 
d="M514 636q79 -44 123 -121.5t44 -175.5t-43 -175t-121.5 -120.5t-181.5 -43.5h-244v305h-70v84h70v291h243q101 0 180 -44zM453.5 132q52.5 30 80.5 84t28 123t-28.5 123.5t-81.5 85t-123 30.5h-120v-189h164v-84h-164v-203h121q71 0 123.5 30z" />
    <glyph glyph-name="Ntilde" unicode="&#xd1;" horiz-adv-x="749" 
d="M666 680v-684h-46l-367 401q-40 43 -57 62q4 -50 4 -74v-385h-117v684h45l356 -391q46 -48 68 -73q-3 50 -3 91v369h117zM213 797q17 45 40 67.5t56 22.5q28 0 68 -20q30 -14 44 -14q22 0 38 34l65 -35q-34 -89 -96 -89q-27 0 -59 16q-3 1 -14.5 7t-20.5 8.5t-16 2.5
q-12 0 -22 -8.5t-19 -28.5z" />
    <glyph glyph-name="Ograve" unicode="&#xd2;" horiz-adv-x="800" 
d="M217.5 33.5q-80.5 46.5 -126 127.5t-45.5 180q0 101 45 181t125.5 125.5t183.5 45.5t183.5 -45.5t125.5 -125.5t45 -181q0 -99 -45 -180t-125.5 -127.5t-183.5 -46.5q-102 0 -182.5 46.5zM523 127q53 33 82 89t29 125q0 70 -29 126t-82 87.5t-123 31.5t-122.5 -31.5
t-81.5 -87.5t-29 -126q0 -69 29 -125t82 -89t122 -33q70 0 123 33zM276 851l66 76l148 -127l-47 -54z" />
    <glyph glyph-name="Oacute" unicode="&#xd3;" horiz-adv-x="800" 
d="M217.5 33.5q-80.5 46.5 -126 127.5t-45.5 180q0 101 45 181t125.5 125.5t183.5 45.5t183.5 -45.5t125.5 -125.5t45 -181q0 -99 -45 -180t-125.5 -127.5t-183.5 -46.5q-102 0 -182.5 46.5zM523 127q53 33 82 89t29 125q0 70 -29 126t-82 87.5t-123 31.5t-122.5 -31.5
t-81.5 -87.5t-29 -126q0 -69 29 -125t82 -89t122 -33q70 0 123 33zM300 800l148 127l65 -75l-166 -106z" />
    <glyph glyph-name="Ocircumflex" unicode="&#xd4;" horiz-adv-x="800" 
d="M217.5 33.5q-80.5 46.5 -126 127.5t-45.5 180q0 101 45 181t125.5 125.5t183.5 45.5t183.5 -45.5t125.5 -125.5t45 -181q0 -99 -45 -180t-125.5 -127.5t-183.5 -46.5q-102 0 -182.5 46.5zM523 127q53 33 82 89t29 125q0 70 -29 126t-82 87.5t-123 31.5t-122.5 -31.5
t-81.5 -87.5t-29 -126q0 -69 29 -125t82 -89t122 -33q70 0 123 33zM250 790l141 110h18l140 -111l-41 -51l-108 69l-108 -69z" />
    <glyph glyph-name="Otilde" unicode="&#xd5;" horiz-adv-x="800" 
d="M217.5 33.5q-80.5 46.5 -126 127.5t-45.5 180q0 101 45 181t125.5 125.5t183.5 45.5t183.5 -45.5t125.5 -125.5t45 -181q0 -99 -45 -180t-125.5 -127.5t-183.5 -46.5q-102 0 -182.5 46.5zM523 127q53 33 82 89t29 125q0 70 -29 126t-82 87.5t-123 31.5t-122.5 -31.5
t-81.5 -87.5t-29 -126q0 -69 29 -125t82 -89t122 -33q70 0 123 33zM244 797q17 45 40 67.5t56 22.5q28 0 68 -20q30 -14 44 -14q22 0 38 34l65 -35q-34 -89 -96 -89q-27 0 -59 16q-3 1 -14.5 7t-20.5 8.5t-16 2.5q-12 0 -22 -8.5t-19 -28.5z" />
    <glyph glyph-name="Odieresis" unicode="&#xd6;" horiz-adv-x="800" 
d="M217.5 33.5q-80.5 46.5 -126 127.5t-45.5 180q0 101 45 181t125.5 125.5t183.5 45.5t183.5 -45.5t125.5 -125.5t45 -181q0 -99 -45 -180t-125.5 -127.5t-183.5 -46.5q-102 0 -182.5 46.5zM523 127q53 33 82 89t29 125q0 70 -29 126t-82 87.5t-123 31.5t-122.5 -31.5
t-81.5 -87.5t-29 -126q0 -69 29 -125t82 -89t122 -33q70 0 123 33zM256.5 782q-17.5 18 -17.5 44t17.5 45t45.5 19q27 0 45 -19t18 -44t-17.5 -44t-45.5 -19t-45.5 18zM453.5 782.5q-17.5 18.5 -17.5 44.5q0 25 18 44t45 19t45 -19t18 -44q0 -26 -17.5 -44.5t-45.5 -18.5
t-45.5 18.5z" />
    <glyph glyph-name="multiply" unicode="&#xd7;" horiz-adv-x="487" 
d="M68 227l113 113l-113 113l63 62l113 -113l113 113l62 -62l-114 -113l114 -113l-62 -62l-113 113l-113 -113z" />
    <glyph glyph-name="Oslash" unicode="&#xd8;" horiz-adv-x="800" 
d="M723 495q31 -70 31 -154q0 -99 -45 -180t-125.5 -127.5t-183.5 -46.5q-93 0 -172 41l-55 -79l-61 43l55 77q-58 49 -89.5 119.5t-31.5 152.5q0 101 45 181t125.5 125.5t183.5 45.5q97 0 174 -40l67 98l61 -42l-67 -96q57 -48 88 -118zM277.5 556.5q-52.5 -31.5 -81.5 -88
t-29 -127.5q0 -53 17.5 -99.5t49.5 -80.5l280 401q-50 26 -114 26q-70 0 -122.5 -31.5zM523 126q53 33 82 89.5t29 125.5q0 55 -17.5 101.5t-49.5 79.5l-279 -402q51 -27 112 -27q70 0 123 33z" />
    <glyph glyph-name="Ugrave" unicode="&#xd9;" horiz-adv-x="691" 
d="M204.5 17q-61.5 30 -96.5 87t-35 137v439h118v-431q0 -76 41.5 -115.5t113.5 -39.5q71 0 112.5 39.5t41.5 115.5v431h118v-439q0 -80 -35 -137t-96.5 -87t-140.5 -30q-80 0 -141.5 30zM222 851l66 76l148 -127l-47 -54z" />
    <glyph glyph-name="Uacute" unicode="&#xda;" horiz-adv-x="691" 
d="M204.5 17q-61.5 30 -96.5 87t-35 137v439h118v-431q0 -76 41.5 -115.5t113.5 -39.5q71 0 112.5 39.5t41.5 115.5v431h118v-439q0 -80 -35 -137t-96.5 -87t-140.5 -30q-80 0 -141.5 30zM246 800l148 127l65 -75l-166 -106z" />
    <glyph glyph-name="Ucircumflex" unicode="&#xdb;" horiz-adv-x="691" 
d="M204.5 17q-61.5 30 -96.5 87t-35 137v439h118v-431q0 -76 41.5 -115.5t113.5 -39.5q71 0 112.5 39.5t41.5 115.5v431h118v-439q0 -80 -35 -137t-96.5 -87t-140.5 -30q-80 0 -141.5 30zM196 790l141 110h18l140 -111l-41 -51l-108 69l-108 -69z" />
    <glyph glyph-name="Udieresis" unicode="&#xdc;" horiz-adv-x="691" 
d="M204.5 17q-61.5 30 -96.5 87t-35 137v439h118v-431q0 -76 41.5 -115.5t113.5 -39.5q71 0 112.5 39.5t41.5 115.5v431h118v-439q0 -80 -35 -137t-96.5 -87t-140.5 -30q-80 0 -141.5 30zM202.5 782q-17.5 18 -17.5 44t17.5 45t45.5 19q27 0 45 -19t18 -44t-17.5 -44
t-45.5 -19t-45.5 18zM399.5 782.5q-17.5 18.5 -17.5 44.5q0 25 18 44t45 19t45 -19t18 -44q0 -26 -17.5 -44.5t-45.5 -18.5t-45.5 18.5z" />
    <glyph glyph-name="Yacute" unicode="&#xdd;" horiz-adv-x="644" 
d="M629 680v-3l-248 -382v-295h-118v295l-248 382v3h134l122 -192q25 -40 52 -94q17 39 51 94l121 192h134zM222 800l148 127l65 -75l-166 -106z" />
    <glyph glyph-name="Thorn" unicode="&#xde;" horiz-adv-x="592" 
d="M83 680h119v-114h138q71 0 122.5 -32.5t77.5 -83t26 -104.5t-25.5 -103.5t-77.5 -81t-126 -31.5h-135v-130h-119v680zM324 232q60 0 91.5 33t31.5 82q0 50 -33 83.5t-88 33.5h-124v-232h122z" />
    <glyph glyph-name="germandbls" unicode="&#xdf;" horiz-adv-x="529" 
d="M225 11l21 93q25 -14 59 -14q40 0 66 17.5t26 47.5q0 23 -13 40t-40 40q-33 28 -51 54t-18 66q0 34 10 55t29 44q19 25 28 44.5t9 49.5q0 39 -21.5 61t-61.5 22q-48 0 -71.5 -34t-23.5 -96v-501h-109v501q0 112 52.5 171t153.5 59q57 0 100 -22.5t66 -61t23 -86.5
q0 -45 -12.5 -71.5t-35.5 -54.5q-17 -21 -25 -36.5t-8 -37.5q0 -24 13 -41.5t41 -41.5q36 -32 55.5 -61t19.5 -76q0 -69 -51.5 -108.5t-125.5 -39.5q-57 0 -105 18z" />
    <glyph glyph-name="agrave" unicode="&#xe0;" horiz-adv-x="484" 
d="M377.5 411q48.5 -43 48.5 -123v-288h-73l-20 67q-25 -36 -65.5 -56t-93.5 -20q-63 0 -101.5 33.5t-38.5 91.5q0 75 61 116.5t165 41.5q24 0 56 -2v20q0 34 -24 51.5t-67 17.5q-64 0 -139 -36l-31 83q101 46 187 46q87 0 135.5 -43zM286.5 107q31.5 34 32.5 94
q-27 3 -52 3q-59 0 -92 -20t-33 -57q0 -26 17 -40t47 -14q49 0 80.5 34zM129 622l62 72l143 -122l-45 -51z" />
    <glyph glyph-name="aacute" unicode="&#xe1;" horiz-adv-x="484" 
d="M377.5 411q48.5 -43 48.5 -123v-288h-73l-20 67q-25 -36 -65.5 -56t-93.5 -20q-63 0 -101.5 33.5t-38.5 91.5q0 75 61 116.5t165 41.5q24 0 56 -2v20q0 34 -24 51.5t-67 17.5q-64 0 -139 -36l-31 83q101 46 187 46q87 0 135.5 -43zM286.5 107q31.5 34 32.5 94
q-27 3 -52 3q-59 0 -92 -20t-33 -57q0 -26 17 -40t47 -14q49 0 80.5 34zM143 572l142 122l61 -71l-158 -102z" />
    <glyph glyph-name="acircumflex" unicode="&#xe2;" horiz-adv-x="484" 
d="M377.5 411q48.5 -43 48.5 -123v-288h-73l-20 67q-25 -36 -65.5 -56t-93.5 -20q-63 0 -101.5 33.5t-38.5 91.5q0 75 61 116.5t165 41.5q24 0 56 -2v20q0 34 -24 51.5t-67 17.5q-64 0 -139 -36l-31 83q101 46 187 46q87 0 135.5 -43zM286.5 107q31.5 34 32.5 94
q-27 3 -52 3q-59 0 -92 -20t-33 -57q0 -26 17 -40t47 -14q49 0 80.5 34zM103 563l127 106h17l125 -107l-39 -49l-95 67l-95 -67z" />
    <glyph glyph-name="atilde" unicode="&#xe3;" horiz-adv-x="484" 
d="M377.5 411q48.5 -43 48.5 -123v-288h-73l-20 67q-25 -36 -65.5 -56t-93.5 -20q-63 0 -101.5 33.5t-38.5 91.5q0 75 61 116.5t165 41.5q24 0 56 -2v20q0 34 -24 51.5t-67 17.5q-64 0 -139 -36l-31 83q101 46 187 46q87 0 135.5 -43zM286.5 107q31.5 34 32.5 94
q-27 3 -52 3q-59 0 -92 -20t-33 -57q0 -26 17 -40t47 -14q49 0 80.5 34zM96 574q16 40 37.5 60.5t50.5 20.5q30 0 59 -16q13 -7 24.5 -11.5t19.5 -4.5q19 0 33 31l61 -33q-31 -80 -87 -80q-27 0 -55 14q-32 17 -46 17q-23 0 -36 -32z" />
    <glyph glyph-name="adieresis" unicode="&#xe4;" horiz-adv-x="484" 
d="M377.5 411q48.5 -43 48.5 -123v-288h-73l-20 67q-25 -36 -65.5 -56t-93.5 -20q-63 0 -101.5 33.5t-38.5 91.5q0 75 61 116.5t165 41.5q24 0 56 -2v20q0 34 -24 51.5t-67 17.5q-64 0 -139 -36l-31 83q101 46 187 46q87 0 135.5 -43zM286.5 107q31.5 34 32.5 94
q-27 3 -52 3q-59 0 -92 -20t-33 -57q0 -26 17 -40t47 -14q49 0 80.5 34zM109.5 560q-16.5 17 -16.5 41t16 41.5t43 17.5q25 0 42 -17.5t17 -40.5q0 -24 -16.5 -41.5t-42.5 -17.5t-42.5 17zM281 560.5q-17 17.5 -17 40.5t17 41t43 18t42.5 -17.5t16.5 -41.5q0 -23 -17 -40.5
t-42 -17.5q-26 0 -43 17.5z" />
    <glyph glyph-name="aring" unicode="&#xe5;" horiz-adv-x="484" 
d="M377.5 411q48.5 -43 48.5 -123v-288h-73l-20 67q-25 -36 -65.5 -56t-93.5 -20q-63 0 -101.5 33.5t-38.5 91.5q0 75 61 116.5t165 41.5q24 0 56 -2v20q0 34 -24 51.5t-67 17.5q-64 0 -139 -36l-31 83q101 46 187 46q87 0 135.5 -43zM286.5 107q31.5 34 32.5 94
q-27 3 -52 3q-59 0 -92 -20t-33 -57q0 -26 17 -40t47 -14q49 0 80.5 34zM159.5 528.5q-32.5 27.5 -32.5 74.5q0 48 32 76t79 28t79 -28t32 -76q0 -47 -31.5 -74.5t-78.5 -27.5t-79.5 27.5zM270.5 570q12.5 12 12.5 34q0 21 -13 33.5t-32 12.5t-32 -12.5t-13 -33.5
q0 -22 13 -34t32 -12q20 0 32.5 12z" />
    <glyph glyph-name="ae" unicode="&#xe6;" horiz-adv-x="746" 
d="M662.5 394.5q49.5 -59.5 49.5 -156.5q0 -23 -3 -47h-301q7 -55 42 -85t89 -30q63 0 111 41l45 -68q-73 -61 -166 -61q-58 0 -102 24.5t-70 71.5q-30 -49 -73.5 -71.5t-104.5 -22.5q-64 0 -104.5 34t-40.5 95q0 77 64.5 114t161.5 37q30 0 47 -2v24q0 69 -84 69
q-33 0 -70 -10.5t-67 -25.5l-31 83q94 46 178 46q48 0 83.5 -17t52.5 -53q50 70 155 70q89 0 138.5 -59.5zM609 265q-1 47 -24.5 74t-66.5 27q-47 0 -74 -26t-35 -75h200zM278 106q30 32 31 91q-17 3 -47 3q-53 0 -86.5 -17t-33.5 -56q0 -25 16.5 -39t44.5 -14q45 0 75 32z
" />
    <glyph glyph-name="ccedilla" unicode="&#xe7;" horiz-adv-x="461" 
d="M336.5 -77q23.5 -20 23.5 -54q0 -40 -32 -62.5t-82 -22.5q-60 0 -103 26l25 57q32 -20 67 -20q46 0 46 30q0 22 -25.5 31t-63.5 8l31 75q-79 15 -133 75t-54 157q0 71 31.5 124.5t85.5 82t118 28.5q97 0 166 -60l-53 -73q-24 20 -48.5 29t-56.5 9q-57 0 -95 -38.5
t-38 -101.5q0 -64 37.5 -102t93.5 -38q35 0 62 11t52 35l55 -73q-34 -32 -70 -48t-84 -20l-16 -39q37 -6 60.5 -26z" />
    <glyph glyph-name="egrave" unicode="&#xe8;" horiz-adv-x="502" 
d="M414.5 399q54.5 -59 54.5 -160q0 -16 -4 -52h-320q10 -53 48.5 -81.5t93.5 -28.5q37 0 65.5 10.5t52.5 31.5l46 -70q-39 -31 -81 -46.5t-93 -15.5q-71 0 -125.5 30t-85 84t-30.5 123q0 65 29.5 118.5t82 84.5t118.5 31q94 0 148.5 -59zM187 340.5q-32 -28.5 -42 -79.5
h221q-2 52 -30 80t-72 28q-45 0 -77 -28.5zM149 622l62 72l143 -122l-45 -51z" />
    <glyph glyph-name="eacute" unicode="&#xe9;" horiz-adv-x="502" 
d="M414.5 399q54.5 -59 54.5 -160q0 -16 -4 -52h-320q10 -53 48.5 -81.5t93.5 -28.5q37 0 65.5 10.5t52.5 31.5l46 -70q-39 -31 -81 -46.5t-93 -15.5q-71 0 -125.5 30t-85 84t-30.5 123q0 65 29.5 118.5t82 84.5t118.5 31q94 0 148.5 -59zM187 340.5q-32 -28.5 -42 -79.5
h221q-2 52 -30 80t-72 28q-45 0 -77 -28.5zM163 572l142 122l61 -71l-158 -102z" />
    <glyph glyph-name="ecircumflex" unicode="&#xea;" horiz-adv-x="502" 
d="M414.5 399q54.5 -59 54.5 -160q0 -16 -4 -52h-320q10 -53 48.5 -81.5t93.5 -28.5q37 0 65.5 10.5t52.5 31.5l46 -70q-39 -31 -81 -46.5t-93 -15.5q-71 0 -125.5 30t-85 84t-30.5 123q0 65 29.5 118.5t82 84.5t118.5 31q94 0 148.5 -59zM187 340.5q-32 -28.5 -42 -79.5
h221q-2 52 -30 80t-72 28q-45 0 -77 -28.5zM123 563l127 106h17l125 -107l-39 -49l-95 67l-95 -67z" />
    <glyph glyph-name="edieresis" unicode="&#xeb;" horiz-adv-x="502" 
d="M414.5 399q54.5 -59 54.5 -160q0 -16 -4 -52h-320q10 -53 48.5 -81.5t93.5 -28.5q37 0 65.5 10.5t52.5 31.5l46 -70q-39 -31 -81 -46.5t-93 -15.5q-71 0 -125.5 30t-85 84t-30.5 123q0 65 29.5 118.5t82 84.5t118.5 31q94 0 148.5 -59zM187 340.5q-32 -28.5 -42 -79.5
h221q-2 52 -30 80t-72 28q-45 0 -77 -28.5zM129.5 560q-16.5 17 -16.5 41t16 41.5t43 17.5q25 0 42 -17.5t17 -40.5q0 -24 -16.5 -41.5t-42.5 -17.5t-42.5 17zM301 560.5q-17 17.5 -17 40.5t17 41t43 18t42.5 -17.5t16.5 -41.5q0 -23 -17 -40.5t-42 -17.5q-26 0 -43 17.5z
" />
    <glyph glyph-name="igrave" unicode="&#xec;" horiz-adv-x="237" 
d="M64 446h109v-446h-109v446zM9 622l62 72l143 -122l-45 -51z" />
    <glyph glyph-name="iacute" unicode="&#xed;" horiz-adv-x="237" 
d="M64 446h109v-446h-109v446zM24 580l142 122l61 -71l-158 -102z" />
    <glyph glyph-name="icircumflex" unicode="&#xee;" horiz-adv-x="237" 
d="M64 446h109v-446h-109v446zM-17 571l127 106h17l125 -107l-39 -49l-95 67l-95 -67z" />
    <glyph glyph-name="idieresis" unicode="&#xef;" horiz-adv-x="237" 
d="M64 446h109v-446h-109v446zM-4.5 557q-16.5 17 -16.5 43t16.5 43.5t42.5 17.5t42 -17.5t16 -43.5t-16 -43t-42 -17t-42.5 17zM155.5 557q-16.5 17 -16.5 43t16.5 43.5t42.5 17.5t42.5 -17.5t16.5 -43.5t-16.5 -43t-42.5 -17t-42.5 17z" />
    <glyph glyph-name="eth" unicode="&#xf0;" horiz-adv-x="517" 
d="M446.5 437.5q31.5 -85.5 31.5 -187.5q0 -118 -58 -190.5t-163 -72.5q-60 0 -110 25t-79.5 74.5t-29.5 118.5q0 64 26.5 113t71.5 75.5t99 26.5q40 0 71 -11.5t59 -38.5q-23 93 -89 162l-92 -65l-47 62l78 56q-50 34 -110 57l42 84q83 -31 150 -83l67 48l47 -62l-56 -40
q60 -66 91.5 -151.5zM341.5 121q27.5 39 27.5 95q0 51 -32.5 82.5t-81.5 31.5q-48 0 -79 -34.5t-31 -88.5q0 -55 30 -90t81 -35q58 0 85.5 39z" />
    <glyph glyph-name="ntilde" unicode="&#xf1;" horiz-adv-x="526" 
d="M426.5 411.5q40.5 -46.5 40.5 -132.5v-279h-109v269q0 91 -76 91q-50 0 -79.5 -32t-29.5 -83v-245h-109v446h74l22 -70q24 37 61.5 59.5t88.5 22.5q76 0 116.5 -46.5zM119 574q16 40 37.5 60.5t50.5 20.5q30 0 59 -16q13 -7 24.5 -11.5t19.5 -4.5q19 0 33 31l61 -33
q-31 -80 -87 -80q-27 0 -55 14q-32 17 -46 17q-23 0 -36 -32z" />
    <glyph glyph-name="ograve" unicode="&#xf2;" horiz-adv-x="551" 
d="M151.5 17q-54.5 30 -85 84t-30.5 122t30.5 121.5t85 83.5t123.5 30t124 -30t85.5 -83.5t30.5 -121.5t-30.5 -122t-85.5 -84t-124 -30t-123.5 30zM368.5 122.5q35.5 38.5 35.5 100.5t-35.5 100.5t-93.5 38.5q-57 0 -93 -39t-36 -100t36 -100t93 -39q58 0 93.5 38.5z
M166 622l62 72l143 -122l-45 -51z" />
    <glyph glyph-name="oacute" unicode="&#xf3;" horiz-adv-x="551" 
d="M151.5 17q-54.5 30 -85 84t-30.5 122t30.5 121.5t85 83.5t123.5 30t124 -30t85.5 -83.5t30.5 -121.5t-30.5 -122t-85.5 -84t-124 -30t-123.5 30zM368.5 122.5q35.5 38.5 35.5 100.5t-35.5 100.5t-93.5 38.5q-57 0 -93 -39t-36 -100t36 -100t93 -39q58 0 93.5 38.5z
M179 572l142 122l61 -71l-158 -102z" />
    <glyph glyph-name="ocircumflex" unicode="&#xf4;" horiz-adv-x="551" 
d="M151.5 17q-54.5 30 -85 84t-30.5 122t30.5 121.5t85 83.5t123.5 30t124 -30t85.5 -83.5t30.5 -121.5t-30.5 -122t-85.5 -84t-124 -30t-123.5 30zM368.5 122.5q35.5 38.5 35.5 100.5t-35.5 100.5t-93.5 38.5q-57 0 -93 -39t-36 -100t36 -100t93 -39q58 0 93.5 38.5z
M139 563l127 106h17l125 -107l-39 -49l-95 67l-95 -67z" />
    <glyph glyph-name="otilde" unicode="&#xf5;" horiz-adv-x="551" 
d="M151.5 17q-54.5 30 -85 84t-30.5 122t30.5 121.5t85 83.5t123.5 30t124 -30t85.5 -83.5t30.5 -121.5t-30.5 -122t-85.5 -84t-124 -30t-123.5 30zM368.5 122.5q35.5 38.5 35.5 100.5t-35.5 100.5t-93.5 38.5q-57 0 -93 -39t-36 -100t36 -100t93 -39q58 0 93.5 38.5z
M132 574q16 40 37.5 60.5t50.5 20.5q30 0 59 -16q13 -7 24.5 -11.5t19.5 -4.5q19 0 33 31l61 -33q-31 -80 -87 -80q-27 0 -55 14q-32 17 -46 17q-23 0 -36 -32z" />
    <glyph glyph-name="odieresis" unicode="&#xf6;" horiz-adv-x="551" 
d="M151.5 17q-54.5 30 -85 84t-30.5 122t30.5 121.5t85 83.5t123.5 30t124 -30t85.5 -83.5t30.5 -121.5t-30.5 -122t-85.5 -84t-124 -30t-123.5 30zM368.5 122.5q35.5 38.5 35.5 100.5t-35.5 100.5t-93.5 38.5q-57 0 -93 -39t-36 -100t36 -100t93 -39q58 0 93.5 38.5z
M146.5 560q-16.5 17 -16.5 41t16 41.5t43 17.5q25 0 42 -17.5t17 -40.5q0 -24 -16.5 -41.5t-42.5 -17.5t-42.5 17zM318 560.5q-17 17.5 -17 40.5t17 41t43 18t42.5 -17.5t16.5 -41.5q0 -23 -17 -40.5t-42 -17.5q-26 0 -43 17.5z" />
    <glyph glyph-name="divide" unicode="&#xf7;" horiz-adv-x="535" 
d="M216.5 464q-19.5 19 -19.5 50t19.5 50t51.5 19t51 -19t19 -50t-19 -50t-51 -19t-51.5 19zM59 384h417v-90h-417v90zM216.5 113q-19.5 19 -19.5 50q0 32 19.5 51t51.5 19t51 -19t19 -51q0 -31 -19 -50t-51 -19t-51.5 19z" />
    <glyph glyph-name="oslash" unicode="&#xf8;" horiz-adv-x="551" 
d="M492.5 328.5q22.5 -47.5 22.5 -105.5q0 -68 -30.5 -122t-85.5 -84t-124 -30q-65 0 -115 26l-37 -53l-40 27l36 52q-39 32 -61 79.5t-22 104.5q0 68 30.5 121.5t85 83.5t123.5 30q62 0 114 -25l38 55l40 -27l-37 -54q40 -31 62.5 -78.5zM181 324q-36 -39 -36 -101
q0 -60 35 -100l153 228q-25 12 -58 12q-58 0 -94 -39zM369 122q36 39 36 101q0 60 -34 100l-155 -227q28 -13 59 -13q58 0 94 39z" />
    <glyph glyph-name="ugrave" unicode="&#xf9;" horiz-adv-x="523" 
d="M459 446v-446h-76l-22 68q-23 -36 -59.5 -56.5t-82.5 -20.5q-79 0 -120 47.5t-41 131.5v276h110v-266q0 -91 78 -91q49 0 76.5 36t27.5 90v231h109zM150 622l62 72l143 -122l-45 -51z" />
    <glyph glyph-name="uacute" unicode="&#xfa;" horiz-adv-x="523" 
d="M459 446v-446h-76l-22 68q-23 -36 -59.5 -56.5t-82.5 -20.5q-79 0 -120 47.5t-41 131.5v276h110v-266q0 -91 78 -91q49 0 76.5 36t27.5 90v231h109zM164 572l142 122l61 -71l-158 -102z" />
    <glyph glyph-name="ucircumflex" unicode="&#xfb;" horiz-adv-x="523" 
d="M459 446v-446h-76l-22 68q-23 -36 -59.5 -56.5t-82.5 -20.5q-79 0 -120 47.5t-41 131.5v276h110v-266q0 -91 78 -91q49 0 76.5 36t27.5 90v231h109zM124 563l127 106h17l125 -107l-39 -49l-95 67l-95 -67z" />
    <glyph glyph-name="udieresis" unicode="&#xfc;" horiz-adv-x="523" 
d="M459 446v-446h-76l-22 68q-23 -36 -59.5 -56.5t-82.5 -20.5q-79 0 -120 47.5t-41 131.5v276h110v-266q0 -91 78 -91q49 0 76.5 36t27.5 90v231h109zM131.5 560q-16.5 17 -16.5 41t16 41.5t43 17.5q25 0 42 -17.5t17 -40.5q0 -24 -16.5 -41.5t-42.5 -17.5t-42.5 17z
M303 560.5q-17 17.5 -17 40.5t17 41t43 18t42.5 -17.5t16.5 -41.5q0 -23 -17 -40.5t-42 -17.5q-26 0 -43 17.5z" />
    <glyph glyph-name="yacute" unicode="&#xfd;" horiz-adv-x="489" 
d="M480 446v-3l-263 -663h-116v2l99 229l-191 432v3h118l95 -228q18 -44 30 -86q10 38 27 86l87 228h114zM149 572l142 122l61 -71l-158 -102z" />
    <glyph glyph-name="thorn" unicode="&#xfe;" horiz-adv-x="571" 
d="M430 426.5q49 -30.5 76.5 -83.5t27.5 -120q0 -68 -27.5 -121t-76 -83t-109.5 -30q-45 0 -84.5 16.5t-65.5 46.5q2 -62 2 -102v-170h-109v940h109v-199q0 -62 -3 -130q27 32 66 49t84 17q61 0 110 -30.5zM388.5 122.5q34.5 38.5 34.5 100.5t-34.5 100.5t-91.5 38.5
q-58 0 -93.5 -38.5t-35.5 -100.5q0 -63 35.5 -101t94.5 -38q56 0 90.5 38.5z" />
    <glyph glyph-name="ydieresis" unicode="&#xff;" horiz-adv-x="489" 
d="M480 446v-3l-263 -663h-116v2l99 229l-191 432v3h118l95 -228q18 -44 30 -86q10 38 27 86l87 228h114zM116.5 560q-16.5 17 -16.5 41t16 41.5t43 17.5q25 0 42 -17.5t17 -40.5q0 -24 -16.5 -41.5t-42.5 -17.5t-42.5 17zM288 560.5q-17 17.5 -17 40.5t17 41t43 18
t42.5 -17.5t16.5 -41.5q0 -23 -17 -40.5t-42 -17.5q-26 0 -43 17.5z" />
    <glyph glyph-name="Amacron" unicode="&#x100;" horiz-adv-x="687" 
d="M682 3v-3h-123l-56 123h-319l-55 -123h-124v2l321 682h36zM298 378l-74 -162h240l-74 162q-28 62 -46 116q-22 -60 -46 -116zM200 856h284v-85h-284v85z" />
    <glyph glyph-name="amacron" unicode="&#x101;" horiz-adv-x="484" 
d="M377.5 411q48.5 -43 48.5 -123v-288h-73l-20 67q-25 -36 -65.5 -56t-93.5 -20q-63 0 -101.5 33.5t-38.5 91.5q0 75 61 116.5t165 41.5q24 0 56 -2v20q0 34 -24 51.5t-67 17.5q-64 0 -139 -36l-31 83q101 46 187 46q87 0 135.5 -43zM286.5 107q31.5 34 32.5 94
q-27 3 -52 3q-59 0 -92 -20t-33 -57q0 -26 17 -40t47 -14q49 0 80.5 34zM104 626h268v-79h-268v79z" />
    <glyph glyph-name="Abreve" unicode="&#x102;" horiz-adv-x="687" 
d="M682 3v-3h-123l-56 123h-319l-55 -123h-124v2l321 682h36zM298 378l-74 -162h240l-74 162q-28 62 -46 116q-22 -60 -46 -116zM251.5 771.5q-39.5 29.5 -54.5 87.5l68 24q7 -27 29 -43t50 -16t50 16t29 43l68 -24q-15 -57 -54.5 -87t-92.5 -30t-92.5 29.5z" />
    <glyph glyph-name="abreve" unicode="&#x103;" horiz-adv-x="484" 
d="M377.5 411q48.5 -43 48.5 -123v-288h-73l-20 67q-25 -36 -65.5 -56t-93.5 -20q-63 0 -101.5 33.5t-38.5 91.5q0 75 61 116.5t165 41.5q24 0 56 -2v20q0 34 -24 51.5t-67 17.5q-64 0 -139 -36l-31 83q101 46 187 46q87 0 135.5 -43zM286.5 107q31.5 34 32.5 94
q-27 3 -52 3q-59 0 -92 -20t-33 -57q0 -26 17 -40t47 -14q49 0 80.5 34zM154 547.5q-36 27.5 -50 81.5l62 27q7 -27 27 -42.5t45 -15.5t45 15.5t27 42.5l62 -27q-14 -54 -49.5 -81.5t-84.5 -27.5q-48 0 -84 27.5z" />
    <glyph glyph-name="Aogonek" unicode="&#x104;" horiz-adv-x="687" 
d="M688 -200q-42 -28 -96 -28q-52 0 -80 25t-28 67q0 67 75 137l-56 122h-319l-55 -123h-124v2l321 682h36l320 -681v-3h-14q-39 -28 -59.5 -56.5t-20.5 -51.5q0 -14 9 -22t25 -8q22 0 42 14zM298 378l-74 -162h240l-74 162q-28 62 -46 116q-22 -60 -46 -116z" />
    <glyph glyph-name="aogonek" unicode="&#x105;" horiz-adv-x="484" 
d="M446 -191q-37 -26 -90 -26q-50 0 -76 25t-26 63q0 69 94 146l-15 50q-25 -36 -65.5 -56t-93.5 -20q-63 0 -101.5 33.5t-38.5 91.5q0 75 61 116.5t165 41.5q24 0 56 -2v20q0 34 -24 51.5t-67 17.5q-64 0 -139 -36l-31 83q101 46 187 46q87 0 135.5 -43t48.5 -123v-288
q-78 -62 -78 -109q0 -29 32 -29q22 0 42 14zM286.5 107q31.5 34 32.5 94q-27 3 -52 3q-59 0 -92 -20t-33 -57q0 -26 17 -40t47 -14q49 0 80.5 34z" />
    <glyph glyph-name="Cacute" unicode="&#x106;" horiz-adv-x="692" 
d="M213.5 34q-79.5 47 -123.5 128t-44 179q0 101 45.5 181t125.5 125.5t182 45.5q77 0 138 -24t118 -76l-61 -80q-79 73 -192 73q-69 0 -122 -31.5t-83 -87t-30 -126.5q0 -69 29 -125.5t81.5 -89t120.5 -32.5q63 0 113 25t85 71l74 -76q-50 -62 -119 -94.5t-155 -32.5
q-103 0 -182.5 47zM298 800l148 127l65 -75l-166 -106z" />
    <glyph glyph-name="cacute" unicode="&#x107;" horiz-adv-x="461" 
d="M154.5 14.5q-52.5 27.5 -85.5 81t-33 127.5q0 71 31.5 124.5t85.5 82t118 28.5q97 0 166 -60l-53 -73q-24 20 -48.5 29t-56.5 9q-57 0 -95 -38.5t-38 -101.5q0 -64 37.5 -102t93.5 -38q35 0 62 11t52 35l55 -73q-39 -36 -80.5 -52.5t-99.5 -16.5q-59 0 -111.5 27.5z
M173 572l142 122l61 -71l-158 -102z" />
    <glyph glyph-name="Ccircumflex" unicode="&#x108;" horiz-adv-x="692" 
d="M213.5 34q-79.5 47 -123.5 128t-44 179q0 101 45.5 181t125.5 125.5t182 45.5q77 0 138 -24t118 -76l-61 -80q-79 73 -192 73q-69 0 -122 -31.5t-83 -87t-30 -126.5q0 -69 29 -125.5t81.5 -89t120.5 -32.5q63 0 113 25t85 71l74 -76q-50 -62 -119 -94.5t-155 -32.5
q-103 0 -182.5 47zM248 790l141 110h18l140 -111l-41 -51l-108 69l-108 -69z" />
    <glyph glyph-name="ccircumflex" unicode="&#x109;" horiz-adv-x="461" 
d="M154.5 14.5q-52.5 27.5 -85.5 81t-33 127.5q0 71 31.5 124.5t85.5 82t118 28.5q97 0 166 -60l-53 -73q-24 20 -48.5 29t-56.5 9q-57 0 -95 -38.5t-38 -101.5q0 -64 37.5 -102t93.5 -38q35 0 62 11t52 35l55 -73q-39 -36 -80.5 -52.5t-99.5 -16.5q-59 0 -111.5 27.5z
M133 563l127 106h17l125 -107l-39 -49l-95 67l-95 -67z" />
    <glyph glyph-name="Cdotaccent" unicode="&#x10a;" horiz-adv-x="692" 
d="M213.5 34q-79.5 47 -123.5 128t-44 179q0 101 45.5 181t125.5 125.5t182 45.5q77 0 138 -24t118 -76l-61 -80q-79 73 -192 73q-69 0 -122 -31.5t-83 -87t-30 -126.5q0 -69 29 -125.5t81.5 -89t120.5 -32.5q63 0 113 25t85 71l74 -76q-50 -62 -119 -94.5t-155 -32.5
q-103 0 -182.5 47zM351.5 780q-18.5 19 -18.5 46t18 47t48 20t48.5 -20t18.5 -48q0 -26 -19 -45t-48 -19t-47.5 19z" />
    <glyph glyph-name="cdotaccent" unicode="&#x10b;" horiz-adv-x="461" 
d="M154.5 14.5q-52.5 27.5 -85.5 81t-33 127.5q0 71 31.5 124.5t85.5 82t118 28.5q97 0 166 -60l-53 -73q-24 20 -48.5 29t-56.5 9q-57 0 -95 -38.5t-38 -101.5q0 -64 37.5 -102t93.5 -38q35 0 62 11t52 35l55 -73q-39 -36 -80.5 -52.5t-99.5 -16.5q-59 0 -111.5 27.5z
M222 554.5q-18 18.5 -18 44.5q0 28 18 46.5t46 18.5t46 -18.5t18 -46.5q0 -26 -18.5 -44.5t-45.5 -18.5q-28 0 -46 18.5z" />
    <glyph glyph-name="Ccaron" unicode="&#x10c;" horiz-adv-x="692" 
d="M213.5 34q-79.5 47 -123.5 128t-44 179q0 101 45.5 181t125.5 125.5t182 45.5q77 0 138 -24t118 -76l-61 -80q-79 73 -192 73q-69 0 -122 -31.5t-83 -87t-30 -126.5q0 -69 29 -125.5t81.5 -89t120.5 -32.5q63 0 113 25t85 71l74 -76q-50 -62 -119 -94.5t-155 -32.5
q-103 0 -182.5 47zM250 852l41 51l107 -69l108 69l42 -52l-141 -110h-18z" />
    <glyph glyph-name="ccaron" unicode="&#x10d;" horiz-adv-x="461" 
d="M154.5 14.5q-52.5 27.5 -85.5 81t-33 127.5q0 71 31.5 124.5t85.5 82t118 28.5q97 0 166 -60l-53 -73q-24 20 -48.5 29t-56.5 9q-57 0 -95 -38.5t-38 -101.5q0 -64 37.5 -102t93.5 -38q35 0 62 11t52 35l55 -73q-39 -36 -80.5 -52.5t-99.5 -16.5q-59 0 -111.5 27.5z
M135 626l38 48l95 -67l96 67l40 -49l-127 -107h-17z" />
    <glyph glyph-name="Dcaron" unicode="&#x10e;" horiz-adv-x="719" 
d="M83 680h243q101 0 180 -44t123 -121.5t44 -175.5t-43 -175t-121.5 -120.5t-181.5 -43.5h-244v680zM322 102q70 0 122.5 30t80.5 84t28 123t-28.5 123.5t-81 85t-122.5 30.5h-120v-476h121zM177 852l41 51l107 -69l108 69l42 -52l-141 -110h-18z" />
    <glyph glyph-name="dcaron" unicode="&#x10f;" horiz-adv-x="590" 
d="M399 720h109v-720h-76l-19 67q-28 -38 -68 -58t-92 -20q-63 0 -112 30t-76 83.5t-27 123.5q0 66 27.5 119t76.5 82.5t111 29.5q44 0 83 -17.5t66 -47.5q-3 63 -3 129v199zM679 720q-10 -108 -51 -184h-75q21 95 22 184h104zM368 122q35 38 35 101q0 62 -35 100t-93 38
q-57 0 -92 -38t-35 -100t35 -100.5t92 -38.5q58 0 93 38z" />
    <glyph glyph-name="Dcroat" unicode="&#x110;" horiz-adv-x="727" 
d="M514 636q79 -44 123 -121.5t44 -175.5t-43 -175t-121.5 -120.5t-181.5 -43.5h-244v305h-70v84h70v291h243q101 0 180 -44zM453.5 132q52.5 30 80.5 84t28 123t-28.5 123.5t-81.5 85t-123 30.5h-120v-189h164v-84h-164v-203h121q71 0 123.5 30z" />
    <glyph glyph-name="dcroat" unicode="&#x111;" horiz-adv-x="572" 
d="M565 538h-57v-538h-76l-18 65q-28 -37 -69.5 -56.5t-92.5 -19.5q-63 0 -112 29.5t-76 83t-27 121.5q0 66 27.5 118t76.5 81.5t111 29.5q45 0 84 -17t65 -47q-3 62 -3 127v23h-136v67h136v115h110v-115h57v-67zM367.5 122q35.5 38 35.5 99q0 60 -35.5 97.5t-93.5 37.5
q-57 0 -92 -37.5t-35 -97.5q0 -61 35 -99t92 -38q58 0 93.5 38z" />
    <glyph glyph-name="Emacron" unicode="&#x112;" horiz-adv-x="561" 
d="M520 104v-104h-437v680h428v-104h-310v-180h271v-101h-271v-191h319zM155 856h284v-85h-284v85z" />
    <glyph glyph-name="emacron" unicode="&#x113;" horiz-adv-x="502" 
d="M414.5 399q54.5 -59 54.5 -160q0 -16 -4 -52h-320q10 -53 48.5 -81.5t93.5 -28.5q37 0 65.5 10.5t52.5 31.5l46 -70q-39 -31 -81 -46.5t-93 -15.5q-71 0 -125.5 30t-85 84t-30.5 123q0 65 29.5 118.5t82 84.5t118.5 31q94 0 148.5 -59zM187 340.5q-32 -28.5 -42 -79.5
h221q-2 52 -30 80t-72 28q-45 0 -77 -28.5zM124 626h268v-79h-268v79z" />
    <glyph glyph-name="Ebreve" unicode="&#x114;" horiz-adv-x="561" 
d="M520 104v-104h-437v680h428v-104h-310v-180h271v-101h-271v-191h319zM206.5 771.5q-39.5 29.5 -54.5 87.5l68 24q7 -27 29 -43t50 -16t50 16t29 43l68 -24q-15 -57 -54.5 -87t-92.5 -30t-92.5 29.5z" />
    <glyph glyph-name="ebreve" unicode="&#x115;" horiz-adv-x="502" 
d="M414.5 399q54.5 -59 54.5 -160q0 -16 -4 -52h-320q10 -53 48.5 -81.5t93.5 -28.5q37 0 65.5 10.5t52.5 31.5l46 -70q-39 -31 -81 -46.5t-93 -15.5q-71 0 -125.5 30t-85 84t-30.5 123q0 65 29.5 118.5t82 84.5t118.5 31q94 0 148.5 -59zM187 340.5q-32 -28.5 -42 -79.5
h221q-2 52 -30 80t-72 28q-45 0 -77 -28.5zM174 547.5q-36 27.5 -50 81.5l62 27q7 -27 27 -42.5t45 -15.5t45 15.5t27 42.5l62 -27q-14 -54 -49.5 -81.5t-84.5 -27.5q-48 0 -84 27.5z" />
    <glyph glyph-name="Edotaccent" unicode="&#x116;" horiz-adv-x="561" 
d="M520 104v-104h-437v680h428v-104h-310v-180h271v-101h-271v-191h319zM251.5 780q-18.5 19 -18.5 46t18 47t48 20t48.5 -20t18.5 -48q0 -26 -19 -45t-48 -19t-47.5 19z" />
    <glyph glyph-name="edotaccent" unicode="&#x117;" horiz-adv-x="502" 
d="M414.5 399q54.5 -59 54.5 -160q0 -16 -4 -52h-320q10 -53 48.5 -81.5t93.5 -28.5q37 0 65.5 10.5t52.5 31.5l46 -70q-39 -31 -81 -46.5t-93 -15.5q-71 0 -125.5 30t-85 84t-30.5 123q0 65 29.5 118.5t82 84.5t118.5 31q94 0 148.5 -59zM187 340.5q-32 -28.5 -42 -79.5
h221q-2 52 -30 80t-72 28q-45 0 -77 -28.5zM212 554.5q-18 18.5 -18 44.5q0 28 18 46.5t46 18.5t46 -18.5t18 -46.5q0 -26 -18.5 -44.5t-45.5 -18.5q-28 0 -46 18.5z" />
    <glyph glyph-name="Eogonek" unicode="&#x118;" horiz-adv-x="561" 
d="M533 -200q-42 -28 -96 -28q-52 0 -80 25t-28 67q0 63 81 136h-327v680h428v-104h-310v-180h271v-101h-271v-191h319v-104q-85 -65 -85 -109q0 -29 32 -29q22 0 42 14z" />
    <glyph glyph-name="eogonek" unicode="&#x119;" horiz-adv-x="502" 
d="M413.5 399.5q54.5 -58.5 54.5 -159.5q0 -17 -4 -53h-319q10 -53 48 -81.5t94 -28.5q69 0 118 41l45 -69l-11 -9q-59 -52 -84 -87t-25 -61q0 -30 33 -30q22 0 42 14l24 -67q-38 -26 -90 -26q-50 0 -76.5 24.5t-26.5 62.5q0 59 68 119q-9 -1 -28 -1q-72 0 -126.5 29.5
t-84 83t-29.5 123.5q0 65 28.5 118.5t80 84.5t116.5 31q98 0 152.5 -58.5zM185.5 340q-30.5 -28 -40.5 -79h219q0 53 -27.5 80t-75.5 27q-45 0 -75.5 -28z" />
    <glyph glyph-name="Ecaron" unicode="&#x11a;" horiz-adv-x="561" 
d="M520 104v-104h-437v680h428v-104h-310v-180h271v-101h-271v-191h319zM150 852l41 51l107 -69l108 69l42 -52l-141 -110h-18z" />
    <glyph glyph-name="ecaron" unicode="&#x11b;" horiz-adv-x="502" 
d="M414.5 399q54.5 -59 54.5 -160q0 -16 -4 -52h-320q10 -53 48.5 -81.5t93.5 -28.5q37 0 65.5 10.5t52.5 31.5l46 -70q-39 -31 -81 -46.5t-93 -15.5q-71 0 -125.5 30t-85 84t-30.5 123q0 65 29.5 118.5t82 84.5t118.5 31q94 0 148.5 -59zM187 340.5q-32 -28.5 -42 -79.5
h221q-2 52 -30 80t-72 28q-45 0 -77 -28.5zM125 626l38 48l95 -67l96 67l40 -49l-127 -107h-17z" />
    <glyph glyph-name="Gcircumflex" unicode="&#x11c;" horiz-adv-x="732" 
d="M681 381v-269q-50 -61 -122 -93t-160 -32q-103 0 -183 46t-125 127t-45 181q0 99 44 179t124.5 126.5t186.5 46.5q157 0 263 -109l-65 -78q-42 41 -89 61t-105 20q-72 0 -126 -31.5t-83.5 -87.5t-29.5 -128q0 -74 30.5 -130t86 -87t126.5 -31q102 0 167 65v126h-182v98
h287zM248 790l141 110h18l140 -111l-41 -51l-108 69l-108 -69z" />
    <glyph glyph-name="gcircumflex" unicode="&#x11d;" horiz-adv-x="572" 
d="M508 446v-464q0 -104 -64 -159t-170 -55q-119 0 -202 68l42 82q65 -52 151 -52q62 0 97.5 29t35.5 85q0 47 2 72q-28 -30 -66.5 -45t-81.5 -15q-63 0 -111.5 29.5t-75.5 82.5t-27 120t27 120t75 83t110 30q51 0 93.5 -19t70.5 -57l22 65h72zM369 124.5q34 38.5 34 99.5
t-33.5 99.5t-94.5 38.5q-58 0 -92 -38t-34 -100q0 -61 34 -99.5t91 -38.5q61 0 95 38.5zM139 563l127 106h17l125 -107l-39 -49l-95 67l-95 -67z" />
    <glyph glyph-name="Gbreve" unicode="&#x11e;" horiz-adv-x="732" 
d="M681 381v-269q-50 -61 -122 -93t-160 -32q-103 0 -183 46t-125 127t-45 181q0 99 44 179t124.5 126.5t186.5 46.5q157 0 263 -109l-65 -78q-42 41 -89 61t-105 20q-72 0 -126 -31.5t-83.5 -87.5t-29.5 -128q0 -74 30.5 -130t86 -87t126.5 -31q102 0 167 65v126h-182v98
h287zM305.5 771.5q-39.5 29.5 -54.5 87.5l68 24q7 -27 29 -43t50 -16t50 16t29 43l68 -24q-15 -57 -54.5 -87t-92.5 -30t-92.5 29.5z" />
    <glyph glyph-name="gbreve" unicode="&#x11f;" horiz-adv-x="572" 
d="M508 446v-464q0 -104 -64 -159t-170 -55q-119 0 -202 68l42 82q65 -52 151 -52q62 0 97.5 29t35.5 85q0 47 2 72q-28 -30 -66.5 -45t-81.5 -15q-63 0 -111.5 29.5t-75.5 82.5t-27 120t27 120t75 83t110 30q51 0 93.5 -19t70.5 -57l22 65h72zM369 124.5q34 38.5 34 99.5
t-33.5 99.5t-94.5 38.5q-58 0 -92 -38t-34 -100q0 -61 34 -99.5t91 -38.5q61 0 95 38.5zM190 547.5q-36 27.5 -50 81.5l62 27q7 -27 27 -42.5t45 -15.5t45 15.5t27 42.5l62 -27q-14 -54 -49.5 -81.5t-84.5 -27.5q-48 0 -84 27.5z" />
    <glyph glyph-name="Gdotaccent" unicode="&#x120;" horiz-adv-x="732" 
d="M681 381v-269q-50 -61 -122 -93t-160 -32q-103 0 -183 46t-125 127t-45 181q0 99 44 179t124.5 126.5t186.5 46.5q157 0 263 -109l-65 -78q-42 41 -89 61t-105 20q-72 0 -126 -31.5t-83.5 -87.5t-29.5 -128q0 -74 30.5 -130t86 -87t126.5 -31q102 0 167 65v126h-182v98
h287zM350.5 780q-18.5 19 -18.5 46t18 47t48 20t48.5 -20t18.5 -48q0 -26 -19 -45t-48 -19t-47.5 19z" />
    <glyph glyph-name="gdotaccent" unicode="&#x121;" horiz-adv-x="572" 
d="M508 446v-464q0 -104 -64 -159t-170 -55q-119 0 -202 68l42 82q65 -52 151 -52q62 0 97.5 29t35.5 85q0 47 2 72q-28 -30 -66.5 -45t-81.5 -15q-63 0 -111.5 29.5t-75.5 82.5t-27 120t27 120t75 83t110 30q51 0 93.5 -19t70.5 -57l22 65h72zM369 124.5q34 38.5 34 99.5
t-33.5 99.5t-94.5 38.5q-58 0 -92 -38t-34 -100q0 -61 34 -99.5t91 -38.5q61 0 95 38.5zM228 554.5q-18 18.5 -18 44.5q0 28 18 46.5t46 18.5t46 -18.5t18 -46.5q0 -26 -18.5 -44.5t-45.5 -18.5q-28 0 -46 18.5z" />
    <glyph glyph-name="uni0122" unicode="&#x122;" horiz-adv-x="732" 
d="M681 381v-269q-50 -61 -122 -93t-160 -32q-103 0 -183 46t-125 127t-45 181q0 99 44 179t124.5 126.5t186.5 46.5q157 0 263 -109l-65 -78q-42 41 -89 61t-105 20q-72 0 -126 -31.5t-83.5 -87.5t-29.5 -128q0 -74 30.5 -130t86 -87t126.5 -31q102 0 167 65v126h-182v98
h287zM364 -95h103q-9 -112 -57 -192h-73q27 91 27 192z" />
    <glyph glyph-name="uni0123" unicode="&#x123;" horiz-adv-x="572" 
d="M508 446v-464q0 -104 -64 -159t-170 -55q-119 0 -202 68l42 82q65 -52 151 -52q62 0 97.5 29t35.5 85q0 47 2 72q-28 -30 -66.5 -45t-81.5 -15q-63 0 -111.5 29.5t-75.5 82.5t-27 120t27 120t75 83t110 30q51 0 93.5 -19t70.5 -57l22 65h72zM369 124.5q34 38.5 34 99.5
t-33.5 99.5t-94.5 38.5q-58 0 -92 -38t-34 -100q0 -61 34 -99.5t91 -38.5q61 0 95 38.5zM278 718h71q-26 -86 -26 -188h-101q9 111 56 188z" />
    <glyph glyph-name="Hcircumflex" unicode="&#x124;" horiz-adv-x="733" 
d="M83 680h118v-283h331v283h118v-680h-118v288h-331v-288h-118v680zM215 790l141 110h18l140 -111l-41 -51l-108 69l-108 -69z" />
    <glyph glyph-name="hcircumflex" unicode="&#x125;" horiz-adv-x="526" 
d="M426.5 411q40.5 -47 40.5 -131v-280h-109v271q0 42 -19 65.5t-58 23.5q-51 0 -79.5 -37t-28.5 -93v-230h-109v720h109v-266q0 -41 -1 -68q46 72 137 72q77 0 117.5 -47zM-32 830l141 110h18l140 -111l-41 -51l-108 69l-108 -69z" />
    <glyph glyph-name="Hbar" unicode="&#x126;" horiz-adv-x="745" 
d="M718 513h-62v-513h-118v288h-331v-288h-118v513h-62v64h62v103h118v-103h331v103h118v-103h62v-64zM538 513h-331v-118h331v118z" />
    <glyph glyph-name="hbar" unicode="&#x127;" horiz-adv-x="526" 
d="M427 403q40 -47 40 -127v-276h-109v267q0 40 -19.5 62.5t-58.5 22.5q-50 0 -78.5 -37t-28.5 -92v-223h-109v538h-60v67h60v115h109v-115h160v-67h-160v-90q0 -41 -2 -66q48 68 139 68q77 0 117 -47z" />
    <glyph glyph-name="Itilde" unicode="&#x128;" horiz-adv-x="284" 
d="M83 680h118v-680h-118v680zM-14 797q17 45 40 67.5t56 22.5q28 0 68 -20q30 -14 44 -14q22 0 38 34l65 -35q-34 -89 -96 -89q-27 0 -59 16q-3 1 -14.5 7t-20.5 8.5t-16 2.5q-12 0 -22 -8.5t-19 -28.5z" />
    <glyph glyph-name="itilde" unicode="&#x129;" horiz-adv-x="237" 
d="M64 446h109v-446h-109v446zM-24 582q16 40 37.5 60.5t50.5 20.5q30 0 59 -16q13 -7 24.5 -11.5t19.5 -4.5q19 0 33 31l61 -33q-31 -80 -87 -80q-27 0 -55 14q-32 17 -46 17q-23 0 -36 -32z" />
    <glyph glyph-name="Imacron" unicode="&#x12a;" horiz-adv-x="284" 
d="M83 680h118v-680h-118v680zM-2 856h284v-85h-284v85z" />
    <glyph glyph-name="imacron" unicode="&#x12b;" horiz-adv-x="237" 
d="M64 446h109v-446h-109v446zM8 627h220v-81h-220v81z" />
    <glyph glyph-name="Ibreve" unicode="&#x12c;" horiz-adv-x="284" 
d="M83 680h118v-680h-118v680zM49.5 771.5q-39.5 29.5 -54.5 87.5l68 24q7 -27 29 -43t50 -16t50 16t29 43l68 -24q-15 -57 -54.5 -87t-92.5 -30t-92.5 29.5z" />
    <glyph glyph-name="ibreve" unicode="&#x12d;" horiz-adv-x="237" 
d="M64 446h109v-446h-109v446zM35 547.5q-36 27.5 -50 81.5l62 27q7 -27 27 -42.5t45 -15.5t45 15.5t27 42.5l62 -27q-14 -54 -49.5 -81.5t-84.5 -27.5q-48 0 -84 27.5z" />
    <glyph glyph-name="Iogonek" unicode="&#x12e;" horiz-adv-x="284" 
d="M241 -200q-42 -28 -96 -28q-53 0 -81 25.5t-28 67.5q0 62 57 135h-10v680h118v-680q-58 -66 -58 -109q0 -29 33 -29q21 0 41 14z" />
    <glyph glyph-name="iogonek" unicode="&#x12f;" horiz-adv-x="237" 
d="M71 557q-19 19 -19 47t19 47.5t48 19.5t48 -19.5t19 -48.5q0 -28 -19 -46.5t-48 -18.5t-48 19zM213 -191q-18 -13 -41.5 -19.5t-48.5 -6.5q-51 0 -77 23.5t-26 62.5q0 30 15.5 64t42.5 67h-14v446h109v-446q-28 -30 -43 -58t-15 -50q0 -30 32 -30q22 0 42 14z" />
    <glyph glyph-name="Idotaccent" unicode="&#x130;" horiz-adv-x="284" 
d="M83 680h118v-680h-118v680zM94.5 780q-18.5 19 -18.5 46t18 47t48 20t48.5 -20t18.5 -48q0 -26 -19 -45t-48 -19t-47.5 19z" />
    <glyph glyph-name="dotlessi" unicode="&#x131;" horiz-adv-x="237" 
d="M64 446h109v-446h-109v446z" />
    <glyph glyph-name="IJ" unicode="&#x132;" horiz-adv-x="783" 
d="M83 680h118v-680h-118v680zM291 50l55 90q61 -48 131 -48q114 0 114 128v460h118v-460q0 -115 -57.5 -174t-166.5 -59q-111 0 -194 63z" />
    <glyph glyph-name="ij" unicode="&#x133;" horiz-adv-x="479" 
d="M69.5 557.5q-18.5 18.5 -18.5 46.5t18.5 46.5t49.5 18.5t49.5 -19t18.5 -47q0 -27 -19 -45.5t-49 -18.5q-31 0 -49.5 18.5zM64 446h109v-446h-109v446zM310.5 557.5q-18.5 18.5 -18.5 45.5q0 28 18.5 47t48.5 19q32 0 50.5 -18.5t18.5 -47.5q0 -28 -19 -46t-50 -18
q-30 0 -48.5 18.5zM191 -139q46 3 70.5 18t34 42.5t9.5 73.5v451h109v-451q0 -76 -19.5 -124t-65 -73.5t-124.5 -29.5z" />
    <glyph glyph-name="Jcircumflex" unicode="&#x134;" horiz-adv-x="499" 
d="M7 50l55 90q61 -48 131 -48q114 0 114 128v460h118v-460q0 -115 -57.5 -174t-166.5 -59q-111 0 -194 63zM215 790l141 110h18l140 -111l-41 -51l-108 69l-108 -69z" />
    <glyph glyph-name="jcircumflex" unicode="&#x135;" horiz-adv-x="241" 
d="M-46 -139q46 3 70.5 18t34 42.5t9.5 73.5v451h109v-451q0 -76 -19.5 -124t-65 -73.5t-124.5 -29.5zM-13 563l127 106h17l125 -107l-39 -49l-95 67l-95 -67z" />
    <glyph glyph-name="uni0136" unicode="&#x136;" horiz-adv-x="606" 
d="M600 4v-4h-139l-260 304v-304h-118v680h118v-305l244 305h134v-3l-268 -334zM274 -95h103q-9 -112 -57 -192h-73q27 91 27 192z" />
    <glyph glyph-name="uni0137" unicode="&#x137;" horiz-adv-x="465" 
d="M459 6v-6h-126l-160 190v-190h-109v720h109v-451l148 177h123v-5l-177 -211zM207 -91h100q-9 -112 -55 -188h-72q27 88 27 188z" />
    <glyph glyph-name="kgreenlandic" unicode="&#x138;" horiz-adv-x="465" 
d="M459 5v-5h-125l-161 190v-190h-109v446h109v-177l147 177h124v-4l-177 -212z" />
    <glyph glyph-name="Lacute" unicode="&#x139;" horiz-adv-x="521" 
d="M83 680h118v-571h295v-109h-413v680zM43 800l148 127l65 -75l-166 -106z" />
    <glyph glyph-name="lacute" unicode="&#x13a;" horiz-adv-x="238" 
d="M64 720h109l1 -720h-110v720zM19 840l148 127l65 -75l-166 -106z" />
    <glyph glyph-name="uni013B" unicode="&#x13b;" horiz-adv-x="521" 
d="M83 680h118v-571h295v-109h-413v680zM237 -95h103q-9 -112 -57 -192h-73q27 91 27 192z" />
    <glyph glyph-name="uni013C" unicode="&#x13c;" horiz-adv-x="238" 
d="M64 720h109l1 -720h-110v720zM73 -91h100q-9 -112 -55 -188h-72q27 88 27 188z" />
    <glyph glyph-name="Lcaron" unicode="&#x13d;" horiz-adv-x="521" 
d="M83 680h118v-571h295v-109h-413v680zM340 680h103q-8 -108 -56 -179h-74q27 81 27 179z" />
    <glyph glyph-name="lcaron" unicode="&#x13e;" horiz-adv-x="254" 
d="M64 720h109v-720h-109v720zM239 720h105q-10 -108 -51 -184h-75q21 97 21 184z" />
    <glyph glyph-name="Ldot" unicode="&#x13f;" horiz-adv-x="521" 
d="M83 680h118v-571h295v-109h-413v680zM343 319.5q-20 17.5 -20 49.5t20 49.5t48 17.5t48 -17.5t20 -49.5t-20 -49.5t-48 -17.5t-48 17.5z" />
    <glyph glyph-name="ldot" unicode="&#x140;" horiz-adv-x="382" 
d="M64 720h109v-720h-109v720zM254 301q-20 17 -20 49t20 49t47 17q28 0 47.5 -17t19.5 -49t-19.5 -49t-47.5 -17q-27 0 -47 17z" />
    <glyph glyph-name="Lslash" unicode="&#x141;" horiz-adv-x="526" 
d="M502 109v-109h-414v264l-57 -20l-29 79l86 29v328h118v-287l130 44l28 -79l-158 -54v-195h296z" />
    <glyph glyph-name="lslash" unicode="&#x142;" horiz-adv-x="298" 
d="M204 331v-331h-110v290l-61 -22l-26 75l87 32v345h110v-305l61 22l25 -75z" />
    <glyph glyph-name="Nacute" unicode="&#x143;" horiz-adv-x="749" 
d="M666 680v-684h-46l-367 401q-40 43 -57 62q4 -50 4 -74v-385h-117v684h45l356 -391q46 -48 68 -73q-3 50 -3 91v369h117zM269 800l148 127l65 -75l-166 -106z" />
    <glyph glyph-name="nacute" unicode="&#x144;" horiz-adv-x="526" 
d="M426.5 411.5q40.5 -46.5 40.5 -132.5v-279h-109v269q0 91 -76 91q-50 0 -79.5 -32t-29.5 -83v-245h-109v446h74l22 -70q24 37 61.5 59.5t88.5 22.5q76 0 116.5 -46.5zM166 572l142 122l61 -71l-158 -102z" />
    <glyph glyph-name="uni0145" unicode="&#x145;" horiz-adv-x="749" 
d="M666 680v-684h-46l-367 401q-40 43 -57 62q4 -50 4 -74v-385h-117v684h45l356 -391q46 -48 68 -73q-3 50 -3 91v369h117zM337 -95h103q-9 -112 -57 -192h-73q27 91 27 192z" />
    <glyph glyph-name="uni0146" unicode="&#x146;" horiz-adv-x="526" 
d="M426.5 411.5q40.5 -46.5 40.5 -132.5v-279h-109v269q0 91 -76 91q-50 0 -79.5 -32t-29.5 -83v-245h-109v446h74l22 -70q24 37 61.5 59.5t88.5 22.5q76 0 116.5 -46.5zM220 -91h100q-9 -112 -55 -188h-72q27 88 27 188z" />
    <glyph glyph-name="Ncaron" unicode="&#x147;" horiz-adv-x="749" 
d="M666 680v-684h-46l-367 401q-40 43 -57 62q4 -50 4 -74v-385h-117v684h45l356 -391q46 -48 68 -73q-3 50 -3 91v369h117zM220 852l41 51l107 -69l108 69l42 -52l-141 -110h-18z" />
    <glyph glyph-name="ncaron" unicode="&#x148;" horiz-adv-x="526" 
d="M426.5 411.5q40.5 -46.5 40.5 -132.5v-279h-109v269q0 91 -76 91q-50 0 -79.5 -32t-29.5 -83v-245h-109v446h74l22 -70q24 37 61.5 59.5t88.5 22.5q76 0 116.5 -46.5zM128 626l38 48l95 -67l96 67l40 -49l-127 -107h-17z" />
    <glyph glyph-name="napostrophe" unicode="&#x149;" horiz-adv-x="551" 
d="M-2 650h103q-9 -111 -56 -192h-74q27 86 27 192zM89 446h84l15 -71q21 38 57.5 60.5t88.5 22.5q77 0 117.5 -46.5t40.5 -131.5v-280h-109v270q0 42 -18.5 66t-57.5 24q-52 0 -80.5 -37t-28.5 -92v-231h-109v446z" />
    <glyph glyph-name="Eng" unicode="&#x14a;" horiz-adv-x="750" 
d="M667 680v-671q0 -113 -57.5 -174t-164.5 -61l-14 105q57 0 88 32.5t31 95.5v62l-305 335q-31 33 -47 53q2 -26 2 -66v-391h-117v684h45l366 -401q47 -52 59 -67q-3 42 -3 72v392h117z" />
    <glyph glyph-name="eng" unicode="&#x14b;" horiz-adv-x="526" 
d="M268 -131q50 1 70 24t20 75v301q0 91 -76 91q-50 0 -79.5 -32t-29.5 -83v-245h-109v446h74l21 -71q24 38 61.5 60.5t89.5 22.5q76 0 116.5 -46.5t40.5 -132.5v-308q0 -95 -47.5 -144.5t-138.5 -49.5z" />
    <glyph glyph-name="Omacron" unicode="&#x14c;" horiz-adv-x="800" 
d="M217.5 33.5q-80.5 46.5 -126 127.5t-45.5 180q0 101 45 181t125.5 125.5t183.5 45.5t183.5 -45.5t125.5 -125.5t45 -181q0 -99 -45 -180t-125.5 -127.5t-183.5 -46.5q-102 0 -182.5 46.5zM523 127q53 33 82 89t29 125q0 70 -29 126t-82 87.5t-123 31.5t-122.5 -31.5
t-81.5 -87.5t-29 -126q0 -69 29 -125t82 -89t122 -33q70 0 123 33zM256 856h284v-85h-284v85z" />
    <glyph glyph-name="omacron" unicode="&#x14d;" horiz-adv-x="551" 
d="M151.5 17q-54.5 30 -85 84t-30.5 122t30.5 121.5t85 83.5t123.5 30t124 -30t85.5 -83.5t30.5 -121.5t-30.5 -122t-85.5 -84t-124 -30t-123.5 30zM368.5 122.5q35.5 38.5 35.5 100.5t-35.5 100.5t-93.5 38.5q-57 0 -93 -39t-36 -100t36 -100t93 -39q58 0 93.5 38.5z
M141 626h268v-79h-268v79z" />
    <glyph glyph-name="Obreve" unicode="&#x14e;" horiz-adv-x="800" 
d="M217.5 33.5q-80.5 46.5 -126 127.5t-45.5 180q0 101 45 181t125.5 125.5t183.5 45.5t183.5 -45.5t125.5 -125.5t45 -181q0 -99 -45 -180t-125.5 -127.5t-183.5 -46.5q-102 0 -182.5 46.5zM523 127q53 33 82 89t29 125q0 70 -29 126t-82 87.5t-123 31.5t-122.5 -31.5
t-81.5 -87.5t-29 -126q0 -69 29 -125t82 -89t122 -33q70 0 123 33zM307.5 771.5q-39.5 29.5 -54.5 87.5l68 24q7 -27 29 -43t50 -16t50 16t29 43l68 -24q-15 -57 -54.5 -87t-92.5 -30t-92.5 29.5z" />
    <glyph glyph-name="obreve" unicode="&#x14f;" horiz-adv-x="551" 
d="M151.5 17q-54.5 30 -85 84t-30.5 122t30.5 121.5t85 83.5t123.5 30t124 -30t85.5 -83.5t30.5 -121.5t-30.5 -122t-85.5 -84t-124 -30t-123.5 30zM368.5 122.5q35.5 38.5 35.5 100.5t-35.5 100.5t-93.5 38.5q-57 0 -93 -39t-36 -100t36 -100t93 -39q58 0 93.5 38.5z
M191 547.5q-36 27.5 -50 81.5l62 27q7 -27 27 -42.5t45 -15.5t45 15.5t27 42.5l62 -27q-14 -54 -49.5 -81.5t-84.5 -27.5q-48 0 -84 27.5z" />
    <glyph glyph-name="Ohungarumlaut" unicode="&#x150;" horiz-adv-x="800" 
d="M217.5 33.5q-80.5 46.5 -126 127.5t-45.5 180q0 101 45 181t125.5 125.5t183.5 45.5t183.5 -45.5t125.5 -125.5t45 -181q0 -99 -45 -180t-125.5 -127.5t-183.5 -46.5q-102 0 -182.5 46.5zM523 127q53 33 82 89t29 125q0 70 -29 126t-82 87.5t-123 31.5t-122.5 -31.5
t-81.5 -87.5t-29 -126q0 -69 29 -125t82 -89t122 -33q70 0 123 33zM247 775l94 151l78 -48l-111 -141zM412 778l102 148l76 -52l-117 -137z" />
    <glyph glyph-name="ohungarumlaut" unicode="&#x151;" horiz-adv-x="551" 
d="M151.5 17q-54.5 30 -85 84t-30.5 122t30.5 121.5t85 83.5t123.5 30t124 -30t85.5 -83.5t30.5 -121.5t-30.5 -122t-85.5 -84t-124 -30t-123.5 30zM368.5 122.5q35.5 38.5 35.5 100.5t-35.5 100.5t-93.5 38.5q-57 0 -93 -39t-36 -100t36 -100t93 -39q58 0 93.5 38.5z
M127 549l93 148l75 -47l-108 -138zM290 552l100 145l75 -50l-116 -135z" />
    <glyph glyph-name="OE" unicode="&#x152;" horiz-adv-x="922" 
d="M880 104v-104h-387q-49 -13 -100 -13q-100 0 -179.5 47t-123.5 127.5t-44 178.5q0 99 44 179.5t123 127t180 46.5q55 0 100 -13h378v-104h-273v-181h241v-99h-241v-192h282zM486 572q-40 15 -86 15q-69 0 -122 -32.5t-82 -88.5t-29 -126t29.5 -126t82.5 -88.5t121 -32.5
q42 -1 86 15v464z" />
    <glyph glyph-name="oe" unicode="&#x153;" horiz-adv-x="847" 
d="M756 400q57 -58 57 -164q0 -23 -3 -49h-317q9 -53 44.5 -81.5t89.5 -28.5q37 0 65.5 9.5t57.5 31.5l45 -69q-76 -61 -172 -61q-62 0 -109 24t-73 68q-26 -44 -71.5 -68t-106.5 -24q-67 0 -118.5 30.5t-80 84.5t-28.5 122q0 67 28.5 120t80.5 83t120 30q59 0 104.5 -24
t71.5 -67q23 41 66 66t98 25q94 0 151 -58zM530 340.5q-29 -28.5 -37 -78.5h214q2 47 -26 77t-75 30t-76 -28.5zM361 122.5q33 38.5 33 101.5q0 62 -33 99.5t-90 37.5t-91 -37.5t-34 -99.5q0 -63 33.5 -101.5t91.5 -38.5q57 0 90 38.5z" />
    <glyph glyph-name="Racute" unicode="&#x154;" horiz-adv-x="625" 
d="M598 3v-3h-134l-160 258h-103v-258h-118v680h267q66 0 119 -27.5t82.5 -76t29.5 -108.5q0 -71 -42 -123.5t-115 -73.5zM338 356q58 0 91 29.5t33 80.5q0 49 -34 80.5t-88 31.5h-139v-222h137zM208 800l148 127l65 -75l-166 -106z" />
    <glyph glyph-name="racute" unicode="&#x155;" horiz-adv-x="371" 
d="M365 437l-28 -92q-28 10 -58 10q-48 0 -77 -30t-29 -82v-243h-109v446h74l21 -66q19 37 52 56.5t77 19.5t77 -19zM111 572l142 122l61 -71l-158 -102z" />
    <glyph glyph-name="uni0156" unicode="&#x156;" horiz-adv-x="625" 
d="M598 3v-3h-134l-160 258h-103v-258h-118v680h267q66 0 119 -27.5t82.5 -76t29.5 -108.5q0 -71 -42 -123.5t-115 -73.5zM338 356q58 0 91 29.5t33 80.5q0 49 -34 80.5t-88 31.5h-139v-222h137zM275 -95h103q-9 -112 -57 -192h-73q27 91 27 192z" />
    <glyph glyph-name="uni0157" unicode="&#x157;" horiz-adv-x="371" 
d="M365 437l-28 -92q-28 10 -58 10q-48 0 -77 -30t-29 -82v-243h-109v446h74l21 -66q19 37 52 56.5t77 19.5t77 -19zM67 -91h100q-9 -112 -55 -188h-72q27 88 27 188z" />
    <glyph glyph-name="Rcaron" unicode="&#x158;" horiz-adv-x="625" 
d="M598 3v-3h-134l-160 258h-103v-258h-118v680h267q66 0 119 -27.5t82.5 -76t29.5 -108.5q0 -71 -42 -123.5t-115 -73.5zM338 356q58 0 91 29.5t33 80.5q0 49 -34 80.5t-88 31.5h-139v-222h137zM160 852l41 51l107 -69l108 69l42 -52l-141 -110h-18z" />
    <glyph glyph-name="rcaron" unicode="&#x159;" horiz-adv-x="371" 
d="M365 437l-28 -92q-28 10 -58 10q-48 0 -77 -30t-29 -82v-243h-109v446h74l21 -66q19 37 52 56.5t77 19.5t77 -19zM72 626l38 48l95 -67l96 67l40 -49l-127 -107h-17z" />
    <glyph glyph-name="Sacute" unicode="&#x15a;" horiz-adv-x="572" 
d="M157.5 8.5q-64.5 21.5 -114.5 61.5l55 92q39 -33 88 -51.5t102 -18.5q54 0 90.5 24t36.5 67t-37.5 68t-109.5 48q-203 66 -203 207q0 58 30.5 100.5t82.5 64.5t114 22q60 0 113 -16t108 -53l-51 -88q-43 28 -82.5 40.5t-81.5 12.5q-48 0 -80.5 -20t-32.5 -57
q0 -42 35.5 -65.5t103.5 -46.5q99 -32 154.5 -81t55.5 -130q0 -62 -32 -107.5t-87 -70t-123 -24.5q-70 0 -134.5 21.5zM197 800l148 127l65 -75l-166 -106z" />
    <glyph glyph-name="sacute" unicode="&#x15b;" horiz-adv-x="398" 
d="M30 39l43 77q59 -37 122 -37q30 0 48 12.5t18 33.5q0 22 -21 35.5t-65 30.5q-60 23 -93 54.5t-33 82.5q0 59 45.5 92t112.5 33q77 0 146 -40l-38 -73q-50 26 -99 26q-28 0 -45.5 -9t-17.5 -29t20.5 -34.5t60.5 -28.5q65 -24 99.5 -56t34.5 -84q0 -62 -45.5 -98.5
t-119.5 -36.5q-96 0 -173 49zM107 572l142 122l61 -71l-158 -102z" />
    <glyph glyph-name="Scircumflex" unicode="&#x15c;" horiz-adv-x="572" 
d="M157.5 8.5q-64.5 21.5 -114.5 61.5l55 92q39 -33 88 -51.5t102 -18.5q54 0 90.5 24t36.5 67t-37.5 68t-109.5 48q-203 66 -203 207q0 58 30.5 100.5t82.5 64.5t114 22q60 0 113 -16t108 -53l-51 -88q-43 28 -82.5 40.5t-81.5 12.5q-48 0 -80.5 -20t-32.5 -57
q0 -42 35.5 -65.5t103.5 -46.5q99 -32 154.5 -81t55.5 -130q0 -62 -32 -107.5t-87 -70t-123 -24.5q-70 0 -134.5 21.5zM147 790l141 110h18l140 -111l-41 -51l-108 69l-108 -69z" />
    <glyph glyph-name="scircumflex" unicode="&#x15d;" horiz-adv-x="398" 
d="M30 39l43 77q59 -37 122 -37q30 0 48 12.5t18 33.5q0 22 -21 35.5t-65 30.5q-60 23 -93 54.5t-33 82.5q0 59 45.5 92t112.5 33q77 0 146 -40l-38 -73q-50 26 -99 26q-28 0 -45.5 -9t-17.5 -29t20.5 -34.5t60.5 -28.5q65 -24 99.5 -56t34.5 -84q0 -62 -45.5 -98.5
t-119.5 -36.5q-96 0 -173 49zM67 563l127 106h17l125 -107l-39 -49l-95 67l-95 -67z" />
    <glyph glyph-name="Scedilla" unicode="&#x15e;" horiz-adv-x="572" 
d="M481 55.5q-53 -52.5 -139 -64.5l-17 -42q38 -6 63.5 -27t25.5 -57q0 -44 -34.5 -68.5t-89.5 -24.5q-66 0 -112 28l28 63q31 -22 72 -22q21 0 34 7t14 22q2 25 -26 35.5t-68 9.5l30 73q-61 4 -117.5 25.5t-101.5 56.5l55 92q39 -33 88 -51.5t102 -18.5q54 0 90.5 24
t36.5 67t-37.5 68t-109.5 48q-203 66 -203 207q0 58 30.5 100.5t82.5 64.5t114 22q60 0 113 -16t108 -53l-51 -88q-43 28 -82.5 40.5t-81.5 12.5q-48 0 -80.5 -20t-32.5 -57q0 -42 35.5 -65.5t103.5 -46.5q99 -32 154.5 -81t55.5 -130t-53 -133.5z" />
    <glyph glyph-name="scedilla" unicode="&#x15f;" horiz-adv-x="398" 
d="M333 36.5q-35 -35.5 -94 -43.5l-18 -44q37 -6 60.5 -26t23.5 -54q0 -40 -32 -62.5t-82 -22.5q-60 0 -103 26l25 57q32 -20 67 -20q46 0 46 30q0 22 -25.5 31t-63.5 8l31 76q-74 6 -138 47l43 77q59 -37 122 -37q30 0 48 12.5t18 33.5q0 22 -21 35.5t-65 30.5
q-60 23 -93 54.5t-33 82.5q0 59 45.5 92t112.5 33q77 0 146 -40l-38 -73q-50 26 -99 26q-28 0 -45.5 -9t-17.5 -29t20.5 -34.5t60.5 -28.5q65 -24 99.5 -56t34.5 -84q0 -53 -35 -88.5z" />
    <glyph glyph-name="Scaron" unicode="&#x160;" horiz-adv-x="572" 
d="M157.5 8.5q-64.5 21.5 -114.5 61.5l55 92q39 -33 88 -51.5t102 -18.5q54 0 90.5 24t36.5 67t-37.5 68t-109.5 48q-203 66 -203 207q0 58 30.5 100.5t82.5 64.5t114 22q60 0 113 -16t108 -53l-51 -88q-43 28 -82.5 40.5t-81.5 12.5q-48 0 -80.5 -20t-32.5 -57
q0 -42 35.5 -65.5t103.5 -46.5q99 -32 154.5 -81t55.5 -130q0 -62 -32 -107.5t-87 -70t-123 -24.5q-70 0 -134.5 21.5zM149 852l41 51l107 -69l108 69l42 -52l-141 -110h-18z" />
    <glyph glyph-name="scaron" unicode="&#x161;" horiz-adv-x="398" 
d="M30 39l43 77q59 -37 122 -37q30 0 48 12.5t18 33.5q0 22 -21 35.5t-65 30.5q-60 23 -93 54.5t-33 82.5q0 59 45.5 92t112.5 33q77 0 146 -40l-38 -73q-50 26 -99 26q-28 0 -45.5 -9t-17.5 -29t20.5 -34.5t60.5 -28.5q65 -24 99.5 -56t34.5 -84q0 -62 -45.5 -98.5
t-119.5 -36.5q-96 0 -173 49zM69 626l38 48l95 -67l96 67l40 -49l-127 -107h-17z" />
    <glyph glyph-name="uni0162" unicode="&#x162;" horiz-adv-x="542" 
d="M313 0l-22 -51q38 -5 64.5 -26.5t26.5 -56.5q0 -44 -35 -69t-91 -25q-67 0 -111 28l28 63q31 -22 72 -22q48 0 48 32q0 23 -27.5 33t-66.5 9l34 85h-21v571h-193v109h503v-109h-192v-571h-17z" />
    <glyph glyph-name="uni0163" unicode="&#x163;" horiz-adv-x="373" 
d="M307 -76.5q23 -19.5 23 -53.5q0 -40 -32 -63t-83 -23q-59 0 -103 27l26 56q29 -19 67 -19q45 0 45 30q0 39 -88 39l31 77q-46 9 -71 45t-25 97v217l-79 6v87h79l3 143h106v-143h138v-93h-138v-206q0 -31 12.5 -44t36.5 -13q39 0 75 23l35 -82q-51 -32 -102 -39l-17 -42
q38 -7 61 -26.5z" />
    <glyph glyph-name="Tcaron" unicode="&#x164;" horiz-adv-x="542" 
d="M522 571h-192v-571h-118v571h-193v109h503v-109zM123 852l41 51l107 -69l108 69l42 -52l-141 -110h-18z" />
    <glyph glyph-name="tcaron" unicode="&#x165;" horiz-adv-x="369" 
d="M281 685h98q-9 -103 -50 -172h-70q22 81 22 172zM132 26.5q-35 36.5 -35 109.5v216l-79 6v88h79l3 143h107v-143h138v-94h-138v-205q0 -58 47 -58q36 2 70 24l36 -82q-65 -41 -133 -41q-60 0 -95 36.5z" />
    <glyph glyph-name="Tbar" unicode="&#x166;" horiz-adv-x="542" 
d="M330 571v-207h119v-82h-119v-282h-118v282h-119v82h119v207h-193v109h503v-109h-192z" />
    <glyph glyph-name="tbar" unicode="&#x167;" horiz-adv-x="369" 
d="M360 31q-63 -41 -133 -41q-60 0 -95 36.5t-35 109.5v61h-45v64h45v97l-79 6v82h79l3 143h107v-143h138v-88h-138v-97h100v-64h-100v-54q0 -57 47 -57q34 0 71 24z" />
    <glyph glyph-name="Utilde" unicode="&#x168;" horiz-adv-x="691" 
d="M204.5 17q-61.5 30 -96.5 87t-35 137v439h118v-431q0 -76 41.5 -115.5t113.5 -39.5q71 0 112.5 39.5t41.5 115.5v431h118v-439q0 -80 -35 -137t-96.5 -87t-140.5 -30q-80 0 -141.5 30zM190 797q17 45 40 67.5t56 22.5q28 0 68 -20q30 -14 44 -14q22 0 38 34l65 -35
q-34 -89 -96 -89q-27 0 -59 16q-3 1 -14.5 7t-20.5 8.5t-16 2.5q-12 0 -22 -8.5t-19 -28.5z" />
    <glyph glyph-name="utilde" unicode="&#x169;" horiz-adv-x="523" 
d="M459 446v-446h-76l-22 68q-23 -36 -59.5 -56.5t-82.5 -20.5q-79 0 -120 47.5t-41 131.5v276h110v-266q0 -91 78 -91q49 0 76.5 36t27.5 90v231h109zM117 574q16 40 37.5 60.5t50.5 20.5q30 0 59 -16q13 -7 24.5 -11.5t19.5 -4.5q19 0 33 31l61 -33q-31 -80 -87 -80
q-27 0 -55 14q-32 17 -46 17q-23 0 -36 -32z" />
    <glyph glyph-name="Umacron" unicode="&#x16a;" horiz-adv-x="691" 
d="M204.5 17q-61.5 30 -96.5 87t-35 137v439h118v-431q0 -76 41.5 -115.5t113.5 -39.5q71 0 112.5 39.5t41.5 115.5v431h118v-439q0 -80 -35 -137t-96.5 -87t-140.5 -30q-80 0 -141.5 30zM203 856h284v-85h-284v85z" />
    <glyph glyph-name="umacron" unicode="&#x16b;" horiz-adv-x="523" 
d="M459 446v-446h-76l-22 68q-23 -36 -59.5 -56.5t-82.5 -20.5q-79 0 -120 47.5t-41 131.5v276h110v-266q0 -91 78 -91q49 0 76.5 36t27.5 90v231h109zM126 626h268v-79h-268v79z" />
    <glyph glyph-name="Ubreve" unicode="&#x16c;" horiz-adv-x="691" 
d="M204.5 17q-61.5 30 -96.5 87t-35 137v439h118v-431q0 -76 41.5 -115.5t113.5 -39.5q71 0 112.5 39.5t41.5 115.5v431h118v-439q0 -80 -35 -137t-96.5 -87t-140.5 -30q-80 0 -141.5 30zM253.5 771.5q-39.5 29.5 -54.5 87.5l68 24q7 -27 29 -43t50 -16t50 16t29 43l68 -24
q-15 -57 -54.5 -87t-92.5 -30t-92.5 29.5z" />
    <glyph glyph-name="ubreve" unicode="&#x16d;" horiz-adv-x="523" 
d="M459 446v-446h-76l-22 68q-23 -36 -59.5 -56.5t-82.5 -20.5q-79 0 -120 47.5t-41 131.5v276h110v-266q0 -91 78 -91q49 0 76.5 36t27.5 90v231h109zM175 547.5q-36 27.5 -50 81.5l62 27q7 -27 27 -42.5t45 -15.5t45 15.5t27 42.5l62 -27q-14 -54 -49.5 -81.5t-84.5 -27.5
q-48 0 -84 27.5z" />
    <glyph glyph-name="Uring" unicode="&#x16e;" horiz-adv-x="691" 
d="M204.5 17q-61.5 30 -96.5 87t-35 137v439h118v-431q0 -76 41.5 -115.5t113.5 -39.5q71 0 112.5 39.5t41.5 115.5v431h118v-439q0 -80 -35 -137t-96.5 -87t-140.5 -30q-80 0 -141.5 30zM263 751.5q-34 29.5 -34 78.5q0 50 33.5 79.5t82.5 29.5q50 0 84 -29.5t34 -79.5
t-33 -79t-83 -29t-84 29.5zM380.5 795.5q13.5 12.5 13.5 35.5q0 22 -14 35t-34 13t-34 -13t-14 -35t14 -35t34 -13q21 0 34.5 12.5z" />
    <glyph glyph-name="uring" unicode="&#x16f;" horiz-adv-x="523" 
d="M459 446v-446h-76l-22 68q-23 -36 -59.5 -56.5t-82.5 -20.5q-79 0 -120 47.5t-41 131.5v276h110v-266q0 -91 78 -91q49 0 76.5 36t27.5 90v231h109zM180.5 528.5q-32.5 27.5 -32.5 74.5q0 48 32 76t79 28t79 -28t32 -76q0 -47 -31.5 -74.5t-78.5 -27.5t-79.5 27.5z
M291.5 570q12.5 12 12.5 34q0 21 -13 33.5t-32 12.5t-32 -12.5t-13 -33.5q0 -22 13 -34t32 -12q20 0 32.5 12z" />
    <glyph glyph-name="Uhungarumlaut" unicode="&#x170;" horiz-adv-x="691" 
d="M204.5 17q-61.5 30 -96.5 87t-35 137v439h118v-431q0 -76 41.5 -115.5t113.5 -39.5q71 0 112.5 39.5t41.5 115.5v431h118v-439q0 -80 -35 -137t-96.5 -87t-140.5 -30q-80 0 -141.5 30zM193 775l94 151l78 -48l-111 -141zM358 778l102 148l76 -52l-117 -137z" />
    <glyph glyph-name="uhungarumlaut" unicode="&#x171;" horiz-adv-x="523" 
d="M459 446v-446h-76l-22 68q-23 -36 -59.5 -56.5t-82.5 -20.5q-79 0 -120 47.5t-41 131.5v276h110v-266q0 -91 78 -91q49 0 76.5 36t27.5 90v231h109zM112 549l93 148l75 -47l-108 -138zM275 552l100 145l75 -50l-116 -135z" />
    <glyph glyph-name="Uogonek" unicode="&#x172;" horiz-adv-x="691" 
d="M618 680v-439q0 -68 -25 -119.5t-71 -83.5q-62 -54 -84 -87.5t-22 -59.5q0 -29 33 -29q22 0 42 14l24 -76q-42 -28 -96 -28q-53 0 -81.5 25.5t-28.5 67.5q0 57 58 123q-7 -1 -21 -1q-80 0 -141.5 30t-96.5 87t-35 137v439h118v-431q0 -76 41.5 -115.5t113.5 -39.5
q71 0 112.5 39.5t41.5 115.5v431h118z" />
    <glyph glyph-name="uogonek" unicode="&#x173;" horiz-adv-x="523" 
d="M479 -191q-37 -26 -90 -26q-50 0 -76 25t-26 63q0 68 91 143l-17 54q-23 -36 -59.5 -56.5t-82.5 -20.5q-79 0 -120 47.5t-41 131.5v276h110v-266q0 -91 78 -91q49 0 76.5 36t27.5 90v231h109v-446q-78 -62 -78 -109q0 -29 32 -29q22 0 42 14z" />
    <glyph glyph-name="Wcircumflex" unicode="&#x174;" horiz-adv-x="965" 
d="M950 680v-3l-239 -681h-35l-165 361q-20 46 -30 76q-11 -37 -28 -76l-165 -361h-35l-238 681v3h124l119 -354l7 -21q15 -47 23 -81q19 54 39 101l140 314h29l135 -300q31 -70 46 -114q5 17 25 83l9 26l116 346h123zM331 790l141 110h18l140 -111l-41 -51l-108 69
l-108 -69z" />
    <glyph glyph-name="wcircumflex" unicode="&#x175;" horiz-adv-x="675" 
d="M663 446v-3l-167 -447h-34l-124 249l-125 -249h-33l-167 447v3h116l69 -198q10 -30 16 -54q14 36 25 55l87 175h23l87 -175q13 -23 26 -56q6 23 17 55l69 198h115zM202 563l127 106h17l125 -107l-39 -49l-95 67l-95 -67z" />
    <glyph glyph-name="Ycircumflex" unicode="&#x176;" horiz-adv-x="644" 
d="M629 680v-3l-248 -382v-295h-118v295l-248 382v3h134l122 -192q25 -40 52 -94q17 39 51 94l121 192h134zM172 790l141 110h18l140 -111l-41 -51l-108 69l-108 -69z" />
    <glyph glyph-name="ycircumflex" unicode="&#x177;" horiz-adv-x="489" 
d="M480 446v-3l-263 -663h-116v2l99 229l-191 432v3h118l95 -228q18 -44 30 -86q10 38 27 86l87 228h114zM109 563l127 106h17l125 -107l-39 -49l-95 67l-95 -67z" />
    <glyph glyph-name="Ydieresis" unicode="&#x178;" horiz-adv-x="644" 
d="M629 680v-3l-248 -382v-295h-118v295l-248 382v3h134l122 -192q25 -40 52 -94q17 39 51 94l121 192h134zM177.5 782q-17.5 18 -17.5 44t17.5 45t45.5 19q27 0 45 -19t18 -44t-17.5 -44t-45.5 -19t-45.5 18zM374.5 782.5q-17.5 18.5 -17.5 44.5q0 25 18 44t45 19t45 -19
t18 -44q0 -26 -17.5 -44.5t-45.5 -18.5t-45.5 18.5z" />
    <glyph glyph-name="Zacute" unicode="&#x179;" horiz-adv-x="577" 
d="M36 35l287 466l20 31q22 35 25 40q-25 -1 -74 -1h-241v109h485v-35l-293 -475q-21 -35 -39 -62q23 1 65 1h270v-109h-505v35zM191 800l148 127l65 -75l-166 -106z" />
    <glyph glyph-name="zacute" unicode="&#x17a;" horiz-adv-x="418" 
d="M386 94v-94h-353v31l166 273q17 29 30 49q-26 -1 -55 -1h-132v94h341v-31l-155 -256q-22 -37 -42 -66q28 1 71 1h129zM116 572l142 122l61 -71l-158 -102z" />
    <glyph glyph-name="Zdotaccent" unicode="&#x17b;" horiz-adv-x="577" 
d="M36 35l287 466l20 31q22 35 25 40q-25 -1 -74 -1h-241v109h485v-35l-293 -475q-21 -35 -39 -62q23 1 65 1h270v-109h-505v35zM244.5 780q-18.5 19 -18.5 46t18 47t48 20t48.5 -20t18.5 -48q0 -26 -19 -45t-48 -19t-47.5 19z" />
    <glyph glyph-name="zdotaccent" unicode="&#x17c;" horiz-adv-x="418" 
d="M386 94v-94h-353v31l166 273q17 29 30 49q-26 -1 -55 -1h-132v94h341v-31l-155 -256q-22 -37 -42 -66q28 1 71 1h129zM166 554.5q-18 18.5 -18 44.5q0 28 18 46.5t46 18.5t46 -18.5t18 -46.5q0 -26 -18.5 -44.5t-45.5 -18.5q-28 0 -46 18.5z" />
    <glyph glyph-name="Zcaron" unicode="&#x17d;" horiz-adv-x="577" 
d="M36 35l287 466l20 31q22 35 25 40q-25 -1 -74 -1h-241v109h485v-35l-293 -475q-21 -35 -39 -62q23 1 65 1h270v-109h-505v35zM143 852l41 51l107 -69l108 69l42 -52l-141 -110h-18z" />
    <glyph glyph-name="zcaron" unicode="&#x17e;" horiz-adv-x="418" 
d="M386 94v-94h-353v31l166 273q17 29 30 49q-26 -1 -55 -1h-132v94h341v-31l-155 -256q-22 -37 -42 -66q28 1 71 1h129zM78 626l38 48l95 -67l96 67l40 -49l-127 -107h-17z" />
    <glyph glyph-name="florin" unicode="&#x192;" horiz-adv-x="491" 
d="M320 481l-8 -81h119l-10 -102h-120l-29 -287q-9 -92 -58 -137.5t-124 -45.5q-69 0 -119 41l46 88q26 -21 61 -21q69 0 78 90l28 273l-111 3l9 98h113l10 96q9 88 58.5 135.5t123.5 47.5q68 0 118 -41l-45 -88q-27 21 -62 21q-68 0 -78 -90z" />
    <glyph glyph-name="AEacute" unicode="&#x1fc;" horiz-adv-x="886" 
d="M844 104v-104h-404v125h-234l-81 -125h-132v3l447 677h395v-104h-283v-179h249v-100h-249v-193h292zM440 216v185v103q-11 -24 -24.5 -46.5t-17.5 -29.5l-137 -212h179zM467 800l148 127l65 -75l-166 -106z" />
    <glyph glyph-name="aeacute" unicode="&#x1fd;" horiz-adv-x="746" 
d="M662.5 394.5q49.5 -59.5 49.5 -156.5q0 -23 -3 -47h-301q7 -55 42 -85t89 -30q63 0 111 41l45 -68q-73 -61 -166 -61q-58 0 -102 24.5t-70 71.5q-30 -49 -73.5 -71.5t-104.5 -22.5q-64 0 -104.5 34t-40.5 95q0 77 64.5 114t161.5 37q30 0 47 -2v24q0 69 -84 69
q-33 0 -70 -10.5t-67 -25.5l-31 83q94 46 178 46q48 0 83.5 -17t52.5 -53q50 70 155 70q89 0 138.5 -59.5zM609 265q-1 47 -24.5 74t-66.5 27q-47 0 -74 -26t-35 -75h200zM278 106q30 32 31 91q-17 3 -47 3q-53 0 -86.5 -17t-33.5 -56q0 -25 16.5 -39t44.5 -14q45 0 75 32z
M275 572l142 122l61 -71l-158 -102z" />
    <glyph glyph-name="Oslashacute" unicode="&#x1fe;" horiz-adv-x="800" 
d="M723 495q31 -70 31 -154q0 -99 -45 -180t-125.5 -127.5t-183.5 -46.5q-93 0 -172 41l-55 -79l-61 43l55 77q-58 49 -89.5 119.5t-31.5 152.5q0 101 45 181t125.5 125.5t183.5 45.5q97 0 174 -40l67 98l61 -42l-67 -96q57 -48 88 -118zM277.5 556.5q-52.5 -31.5 -81.5 -88
t-29 -127.5q0 -53 17.5 -99.5t49.5 -80.5l280 401q-50 26 -114 26q-70 0 -122.5 -31.5zM523 126q53 33 82 89.5t29 125.5q0 55 -17.5 101.5t-49.5 79.5l-279 -402q51 -27 112 -27q70 0 123 33zM300 800l148 127l65 -75l-166 -106z" />
    <glyph glyph-name="oslashacute" unicode="&#x1ff;" horiz-adv-x="551" 
d="M492.5 328.5q22.5 -47.5 22.5 -105.5q0 -68 -30.5 -122t-85.5 -84t-124 -30q-65 0 -115 26l-37 -53l-40 27l36 52q-39 32 -61 79.5t-22 104.5q0 68 30.5 121.5t85 83.5t123.5 30q62 0 114 -25l38 55l40 -27l-37 -54q40 -31 62.5 -78.5zM181 324q-36 -39 -36 -101
q0 -60 35 -100l153 228q-25 12 -58 12q-58 0 -94 -39zM369 122q36 39 36 101q0 60 -34 100l-155 -227q28 -13 59 -13q58 0 94 39zM180 572l142 122l61 -71l-158 -102z" />
    <glyph glyph-name="uni0218" unicode="&#x218;" horiz-adv-x="572" 
d="M157.5 8.5q-64.5 21.5 -114.5 61.5l55 92q39 -33 88 -51.5t102 -18.5q54 0 90.5 24t36.5 67t-37.5 68t-109.5 48q-203 66 -203 207q0 58 30.5 100.5t82.5 64.5t114 22q60 0 113 -16t108 -53l-51 -88q-43 28 -82.5 40.5t-81.5 12.5q-48 0 -80.5 -20t-32.5 -57
q0 -42 35.5 -65.5t103.5 -46.5q99 -32 154.5 -81t55.5 -130q0 -62 -32 -107.5t-87 -70t-123 -24.5q-70 0 -134.5 21.5zM246 -95h103q-9 -112 -57 -192h-73q27 91 27 192z" />
    <glyph glyph-name="uni0219" unicode="&#x219;" horiz-adv-x="398" 
d="M30 39l43 77q59 -37 122 -37q30 0 48 12.5t18 33.5q0 22 -21 35.5t-65 30.5q-60 23 -93 54.5t-33 82.5q0 59 45.5 92t112.5 33q77 0 146 -40l-38 -73q-50 26 -99 26q-28 0 -45.5 -9t-17.5 -29t20.5 -34.5t60.5 -28.5q65 -24 99.5 -56t34.5 -84q0 -62 -45.5 -98.5
t-119.5 -36.5q-96 0 -173 49zM156 -91h100q-9 -112 -55 -188h-72q27 88 27 188z" />
    <glyph glyph-name="uni021A" unicode="&#x21a;" horiz-adv-x="542" 
d="M522 571h-192v-571h-118v571h-193v109h503v-109zM221 -95h103q-9 -112 -57 -192h-73q27 91 27 192z" />
    <glyph glyph-name="uni021B" unicode="&#x21b;" horiz-adv-x="373" 
d="M132.5 26.5q-35.5 36.5 -35.5 109.5v217l-79 6v87h79l3 143h106v-143h138v-93h-138v-206q0 -31 12.5 -44t36.5 -13q39 0 75 23l35 -82q-65 -41 -135 -41q-62 0 -97.5 36.5zM179 -90h100q-9 -112 -55 -188h-72q27 88 27 188z" />
    <glyph glyph-name="uni0237" unicode="&#x237;" horiz-adv-x="241" 
d="M-46 -139q46 3 70.5 18t34 42.5t9.5 73.5v451h109v-451q0 -76 -19.5 -124t-65 -73.5t-124.5 -29.5z" />
    <glyph glyph-name="circumflex" unicode="&#x2c6;" horiz-adv-x="391" 
d="M63 563l127 106h17l125 -107l-39 -49l-95 67l-95 -67z" />
    <glyph glyph-name="caron" unicode="&#x2c7;" horiz-adv-x="392" 
d="M64 626l38 48l95 -67l96 67l40 -49l-127 -107h-17z" />
    <glyph glyph-name="breve" unicode="&#x2d8;" horiz-adv-x="388" 
d="M110 547.5q-36 27.5 -50 81.5l62 27q7 -27 27 -42.5t45 -15.5t45 15.5t27 42.5l62 -27q-14 -54 -49.5 -81.5t-84.5 -27.5q-48 0 -84 27.5z" />
    <glyph glyph-name="dotaccent" unicode="&#x2d9;" horiz-adv-x="234" 
d="M70 554.5q-18 18.5 -18 44.5q0 28 18 46.5t46 18.5t46 -18.5t18 -46.5q0 -26 -18.5 -44.5t-45.5 -18.5q-28 0 -46 18.5z" />
    <glyph glyph-name="ring" unicode="&#x2da;" horiz-adv-x="316" 
d="M80.5 528.5q-32.5 27.5 -32.5 74.5q0 48 32 76t79 28t79 -28t32 -76q0 -47 -31.5 -74.5t-78.5 -27.5t-79.5 27.5zM191.5 570q12.5 12 12.5 34q0 21 -13 33.5t-32 12.5t-32 -12.5t-13 -33.5q0 -22 13 -34t32 -12q20 0 32.5 12z" />
    <glyph glyph-name="ogonek" unicode="&#x2db;" horiz-adv-x="268" 
d="M66 -192q-26 25 -26 63q0 77 114 161l58 -32q-78 -62 -78 -109q0 -29 32 -29q22 0 42 14l24 -67q-37 -26 -90 -26q-50 0 -76 25z" />
    <glyph glyph-name="tilde" unicode="&#x2dc;" horiz-adv-x="408" 
d="M62 574q16 40 37.5 60.5t50.5 20.5q30 0 59 -16q13 -7 24.5 -11.5t19.5 -4.5q19 0 33 31l61 -33q-31 -80 -87 -80q-27 0 -55 14q-32 17 -46 17q-23 0 -36 -32z" />
    <glyph glyph-name="hungarumlaut" unicode="&#x2dd;" horiz-adv-x="420" 
d="M47 549l93 148l75 -47l-108 -138zM210 552l100 145l75 -50l-116 -135z" />
    <glyph glyph-name="gravecomb" unicode="&#x300;" 
d="M-250 622l62 72l143 -122l-45 -51z" />
    <glyph glyph-name="acutecomb" unicode="&#x301;" 
d="M-256 572l142 122l61 -71l-158 -102z" />
    <glyph glyph-name="uni0302" unicode="&#x302;" 
d="M-330 563l127 106h17l125 -107l-39 -49l-95 67l-95 -67z" />
    <glyph glyph-name="tildecomb" unicode="&#x303;" 
d="M-348 574q16 40 37.5 60.5t50.5 20.5q30 0 59 -16q13 -7 24.5 -11.5t19.5 -4.5q19 0 33 31l61 -33q-31 -80 -87 -80q-27 0 -55 14q-32 17 -46 17q-23 0 -36 -32z" />
    <glyph glyph-name="uni0304" unicode="&#x304;" 
d="M-332 626h268v-79h-268v79z" />
    <glyph glyph-name="uni0306" unicode="&#x306;" 
d="M-280 547.5q-36 27.5 -50 81.5l62 27q7 -27 27 -42.5t45 -15.5t45 15.5t27 42.5l62 -27q-14 -54 -49.5 -81.5t-84.5 -27.5q-48 0 -84 27.5z" />
    <glyph glyph-name="uni0307" unicode="&#x307;" 
d="M-165 554.5q-18 18.5 -18 44.5q0 28 18 46.5t46 18.5t46 -18.5t18 -46.5q0 -26 -18.5 -44.5t-45.5 -18.5q-28 0 -46 18.5z" />
    <glyph glyph-name="uni0308" unicode="&#x308;" 
d="M-338.5 560q-16.5 17 -16.5 41t16 41.5t43 17.5q25 0 42 -17.5t17 -40.5q0 -24 -16.5 -41.5t-42.5 -17.5t-42.5 17zM-167 560.5q-17 17.5 -17 40.5t17 41t43 18t42.5 -17.5t16.5 -41.5q0 -23 -17 -40.5t-42 -17.5q-26 0 -43 17.5z" />
    <glyph glyph-name="uni030A" unicode="&#x30a;" 
d="M-236.5 528.5q-32.5 27.5 -32.5 74.5q0 48 32 76t79 28t79 -28t32 -76q0 -47 -31.5 -74.5t-78.5 -27.5t-79.5 27.5zM-125.5 570q12.5 12 12.5 34q0 21 -13 33.5t-32 12.5t-32 -12.5t-13 -33.5q0 -22 13 -34t32 -12q20 0 32.5 12z" />
    <glyph glyph-name="uni030B" unicode="&#x30b;" 
d="M-374 549l93 148l75 -47l-108 -138zM-211 552l100 145l75 -50l-116 -135z" />
    <glyph glyph-name="uni030C" unicode="&#x30c;" 
d="M-330 626l38 48l95 -67l96 67l40 -49l-127 -107h-17z" />
    <glyph glyph-name="uni0312" unicode="&#x312;" 
d="M-121 718h71q-26 -86 -26 -188h-101q9 111 56 188z" />
    <glyph glyph-name="uni0326" unicode="&#x326;" 
d="M-150 -91h100q-9 -112 -55 -188h-72q27 88 27 188z" />
    <glyph glyph-name="uni0327" unicode="&#x327;" 
d="M-271 -190l25 57q32 -20 67 -20q46 0 46 30q0 22 -25.5 31t-63.5 8l35 86h71l-22 -53q37 -6 60.5 -26t23.5 -54q0 -40 -32 -62.5t-82 -22.5q-60 0 -103 26z" />
    <glyph glyph-name="uni0328" unicode="&#x328;" 
d="M-203 -192q-26 25 -26 63q0 77 114 161l58 -32q-78 -62 -78 -109q0 -29 32 -29q22 0 42 14l24 -67q-37 -26 -90 -26q-50 0 -76 25z" />
    <glyph glyph-name="pi" unicode="&#x3c0;" horiz-adv-x="594" 
d="M102 352h-79v94h551v-94h-79v-354h-106v354h-180v-354h-107v354z" />
    <glyph glyph-name="uni0400" unicode="&#x400;" horiz-adv-x="561" 
d="M520 104v-104h-437v680h428v-104h-310v-180h271v-101h-271v-191h319zM175 851l66 76l148 -127l-47 -54z" />
    <glyph glyph-name="uni0401" unicode="&#x401;" horiz-adv-x="561" 
d="M520 104v-104h-437v680h428v-104h-310v-180h271v-101h-271v-191h319zM155.5 782q-17.5 18 -17.5 44t17.5 45t45.5 19q27 0 45 -19t18 -44t-17.5 -44t-45.5 -19t-45.5 18zM352.5 782.5q-17.5 18.5 -17.5 44.5q0 25 18 44t45 19t45 -19t18 -44q0 -26 -17.5 -44.5
t-45.5 -18.5t-45.5 18.5z" />
    <glyph glyph-name="uni0402" unicode="&#x402;" horiz-adv-x="689" 
d="M591 366.5q55 -54.5 55 -156.5q0 -47 -20.5 -94t-61.5 -82t-101 -46l-21 98q87 27 87 128q0 54 -26.5 81t-80.5 27t-102 -19v-303h-118v571h-183v109h513v-109h-212v-169q55 19 117 19q99 0 154 -54.5z" />
    <glyph glyph-name="uni0403" unicode="&#x403;" horiz-adv-x="528" 
d="M83 680h427v-109h-309v-571h-118v680zM207 800l148 127l65 -75l-166 -106z" />
    <glyph glyph-name="uni0404" unicode="&#x404;" horiz-adv-x="693" 
d="M672 106q-59 -57 -124.5 -87.5t-151.5 -30.5q-102 0 -181.5 47.5t-124 128t-44.5 177.5q0 101 45 181t125 125t181 45q81 0 141 -24.5t117 -75.5l-63 -79q-43 37 -86 54.5t-101 17.5q-94 0 -157.5 -53t-78.5 -141h276v-102h-275q15 -86 77 -140t149 -54q119 0 207 91z
" />
    <glyph glyph-name="uni0405" unicode="&#x405;" horiz-adv-x="572" 
d="M157.5 8.5q-64.5 21.5 -114.5 61.5l55 92q39 -33 88 -51.5t102 -18.5q54 0 90.5 24t36.5 67t-37.5 68t-109.5 48q-203 66 -203 207q0 58 30.5 100.5t82.5 64.5t114 22q60 0 113 -16t108 -53l-51 -88q-43 28 -82.5 40.5t-81.5 12.5q-48 0 -80.5 -20t-32.5 -57
q0 -42 35.5 -65.5t103.5 -46.5q99 -32 154.5 -81t55.5 -130q0 -62 -32 -107.5t-87 -70t-123 -24.5q-70 0 -134.5 21.5z" />
    <glyph glyph-name="uni0406" unicode="&#x406;" horiz-adv-x="284" 
d="M83 680h118v-680h-118v680z" />
    <glyph glyph-name="uni0407" unicode="&#x407;" horiz-adv-x="284" 
d="M83 680h118v-680h-118v680zM-2.5 773q-17.5 18 -17.5 44t17.5 45t45.5 19q27 0 45 -19t18 -44t-17.5 -44t-45.5 -19t-45.5 18zM194.5 773.5q-17.5 18.5 -17.5 44.5q0 25 18 44t45 19t45 -19t18 -44q0 -26 -17.5 -44.5t-45.5 -18.5t-45.5 18.5z" />
    <glyph glyph-name="uni0408" unicode="&#x408;" horiz-adv-x="498" 
d="M7 50l55 90q61 -48 131 -48q114 0 114 128v460h118v-460q0 -115 -57.5 -174t-166.5 -59q-111 0 -194 63z" />
    <glyph glyph-name="uni0409" unicode="&#x409;" horiz-adv-x="982" 
d="M846.5 393q50.5 -27 79.5 -75t29 -108t-29 -108t-79.5 -75t-112.5 -27h-252v571h-179l-29 -262q-19 -167 -81 -241t-172 -76l-13 100q47 1 77 30t48 87.5t29 155.5l36 315h402v-260h134q62 0 112.5 -27zM805 131q32 29 32 79t-32 79t-83 29h-122v-216h122q51 0 83 29z
" />
    <glyph glyph-name="uni040A" unicode="&#x40a;" horiz-adv-x="988" 
d="M854 382q51 -27 79.5 -73.5t28.5 -104.5t-28.5 -104.5t-79 -73t-114.5 -26.5h-252v304h-287v-304h-118v680h118v-271h287v271h119v-271h133q63 0 114 -27zM811 131.5q33 29.5 33 72.5q0 44 -32.5 73.5t-83.5 29.5h-121v-205h121q50 0 83 29.5z" />
    <glyph glyph-name="uni040B" unicode="&#x40b;" horiz-adv-x="700" 
d="M587.5 372q52.5 -50 52.5 -134v-238h-118v233q0 40 -25.5 63t-72.5 23q-52 0 -104 -19v-300h-118v571h-183v109h513v-109h-212v-168q59 19 128 19q87 0 139.5 -50z" />
    <glyph glyph-name="uni040C" unicode="&#x40c;" horiz-adv-x="606" 
d="M600 4v-4h-139l-260 304v-304h-118v680h118v-305l244 305h134v-3l-268 -334zM250 800l148 127l65 -75l-166 -106z" />
    <glyph glyph-name="uni040D" unicode="&#x40d;" horiz-adv-x="749" 
d="M666 684v-684h-118v366q0 48 3 97q-24 -27 -78 -86l-355 -381h-35v684h118v-366q0 -48 -3 -96q42 50 79 89l354 377h35zM273 851l66 76l148 -127l-47 -54z" />
    <glyph glyph-name="uni040E" unicode="&#x40e;" horiz-adv-x="628" 
d="M624 680l-215 -466q-40 -85 -77 -130.5t-87.5 -66t-132.5 -24.5l-10 102q66 2 105 21.5t66 60.5l-268 503h128l199 -380l167 380h125zM215.5 764.5q-43.5 25.5 -69.5 72.5l68 46q38 -57 103 -57q67 0 105 57l66 -46q-24 -47 -68.5 -72.5t-102.5 -25.5t-101.5 25.5z" />
    <glyph glyph-name="uni040F" unicode="&#x40f;" horiz-adv-x="707" 
d="M624 0h-215v-152h-111v152h-215v680h118v-571h305v571h118v-680z" />
    <glyph glyph-name="uni0410" unicode="&#x410;" horiz-adv-x="687" 
d="M682 3v-3h-123l-56 123h-319l-55 -123h-124v2l321 682h36zM298 378l-74 -162h240l-74 162q-28 62 -46 116q-22 -60 -46 -116z" />
    <glyph glyph-name="uni0411" unicode="&#x411;" horiz-adv-x="622" 
d="M83 680h443v-105h-325v-164h155q69 0 121.5 -28.5t80 -75.5t27.5 -101q0 -55 -27.5 -102.5t-79.5 -75.5t-122 -28h-273v680zM343 99q58 0 91 28.5t33 78.5t-33 78.5t-91 28.5h-142v-214h142z" />
    <glyph glyph-name="uni0412" unicode="&#x412;" horiz-adv-x="629" 
d="M557 289.5q29 -44.5 29 -101.5q0 -56 -27 -98.5t-75.5 -66t-110.5 -23.5h-290v680h271q59 0 105.5 -22.5t73 -63t26.5 -92.5q0 -47 -21.5 -84.5t-59.5 -61.5q50 -22 79 -66.5zM200 398h136q50 0 77 25t27 70q0 42 -29 66t-77 24h-134v-185zM436 125q31 28 31 75
q0 46 -30 74t-79 28h-158v-205h154q51 0 82 28z" />
    <glyph glyph-name="uni0413" unicode="&#x413;" horiz-adv-x="528" 
d="M83 680h427v-109h-309v-571h-118v680z" />
    <glyph glyph-name="uni0414" unicode="&#x414;" horiz-adv-x="709" 
d="M689 109v-261h-112v152h-461v-152h-111v261h79q27 53 42.5 108.5t22.5 125.5l35 337h422v-571h83zM209 109h281v462h-200l-27 -250q-13 -115 -54 -212z" />
    <glyph glyph-name="uni0415" unicode="&#x415;" horiz-adv-x="561" 
d="M520 104v-104h-437v680h428v-104h-310v-180h271v-101h-271v-191h319z" />
    <glyph glyph-name="uni0416" unicode="&#x416;" horiz-adv-x="873" 
d="M867 4v-4h-138l-233 303v-303h-118v303l-234 -303h-138v4l269 340l-257 333l1 3h134l225 -303v303h118v-302l225 302h133v-4l-255 -332z" />
    <glyph glyph-name="uni0417" unicode="&#x417;" horiz-adv-x="566" 
d="M138.5 11q-62.5 22 -113.5 70l55 84q36 -32 85.5 -51.5t108.5 -19.5q55 0 92.5 29.5t37.5 77.5t-33.5 74.5t-90.5 26.5h-91v97h87q46 0 71.5 26t25.5 67q0 44 -32.5 69t-87.5 25q-84 0 -153 -55l-51 82q98 79 215 79q64 0 116 -24.5t82 -67t30 -95.5q0 -50 -26 -89.5
t-66 -56.5q57 -21 89.5 -64.5t32.5 -104.5q0 -55 -30 -101t-85 -73t-126 -27q-80 0 -142.5 22z" />
    <glyph glyph-name="uni0418" unicode="&#x418;" horiz-adv-x="749" 
d="M666 684v-684h-118v366q0 48 3 97q-24 -27 -78 -86l-355 -381h-35v684h118v-366q0 -48 -3 -96q42 50 79 89l354 377h35z" />
    <glyph glyph-name="uni0419" unicode="&#x419;" horiz-adv-x="749" 
d="M666 684v-684h-118v366q0 48 3 97q-24 -27 -78 -86l-355 -381h-35v684h118v-366q0 -48 -3 -96q42 50 79 89l354 377h35zM294.5 764.5q-43.5 25.5 -69.5 72.5l68 46q38 -57 103 -57q67 0 105 57l66 -46q-24 -47 -68.5 -72.5t-102.5 -25.5t-101.5 25.5z" />
    <glyph glyph-name="uni041A" unicode="&#x41a;" horiz-adv-x="606" 
d="M600 4v-4h-139l-260 304v-304h-118v680h118v-305l244 305h134v-3l-268 -334z" />
    <glyph glyph-name="uni041B" unicode="&#x41b;" horiz-adv-x="709" 
d="M8 91q50 4 79.5 29.5t46.5 79t28 148.5l37 332h427v-680h-118v571h-207l-29 -261q-13 -113 -43 -181t-80 -100.5t-125 -36.5z" />
    <glyph glyph-name="uni041C" unicode="&#x41c;" horiz-adv-x="854" 
d="M812 0h-116l-54 368q-7 53 -8 69q-12 -22 -40 -64l-155 -236h-24l-154 236q-22 31 -42 66q-1 -19 -4 -41t-4 -31l-52 -367h-116l100 685h35l205 -314q24 -38 44 -71q20 33 44 71l206 314h35z" />
    <glyph glyph-name="uni041D" unicode="&#x41d;" horiz-adv-x="733" 
d="M83 680h118v-283h331v283h118v-680h-118v288h-331v-288h-118v680z" />
    <glyph glyph-name="uni041E" unicode="&#x41e;" horiz-adv-x="800" 
d="M217.5 33.5q-80.5 46.5 -126 127.5t-45.5 180q0 101 45 181t125.5 125.5t183.5 45.5t183.5 -45.5t125.5 -125.5t45 -181q0 -99 -45 -180t-125.5 -127.5t-183.5 -46.5q-102 0 -182.5 46.5zM523 127q53 33 82 89t29 125q0 70 -29 126t-82 87.5t-123 31.5t-122.5 -31.5
t-81.5 -87.5t-29 -126q0 -69 29 -125t82 -89t122 -33q70 0 123 33z" />
    <glyph glyph-name="uni041F" unicode="&#x41f;" horiz-adv-x="709" 
d="M83 680h544v-680h-119v571h-307v-571h-118v680z" />
    <glyph glyph-name="uni0420" unicode="&#x420;" horiz-adv-x="598" 
d="M83 680h261q70 0 122 -30.5t79 -81t27 -107.5t-27 -105.5t-79 -78t-124 -29.5h-141v-248h-118v680zM329 349q61 0 92.5 33t31.5 80q0 49 -33 82t-88 33h-131v-228h128z" />
    <glyph glyph-name="uni0421" unicode="&#x421;" horiz-adv-x="692" 
d="M213.5 34q-79.5 47 -123.5 128t-44 179q0 101 45.5 181t125.5 125.5t182 45.5q77 0 138 -24t118 -76l-61 -80q-79 73 -192 73q-69 0 -122 -31.5t-83 -87t-30 -126.5q0 -69 29 -125.5t81.5 -89t120.5 -32.5q63 0 113 25t85 71l74 -76q-50 -62 -119 -94.5t-155 -32.5
q-103 0 -182.5 47z" />
    <glyph glyph-name="uni0422" unicode="&#x422;" horiz-adv-x="542" 
d="M522 571h-192v-571h-118v571h-193v109h503v-109z" />
    <glyph glyph-name="uni0423" unicode="&#x423;" horiz-adv-x="628" 
d="M624 680l-215 -466q-40 -85 -77 -130.5t-87.5 -66t-132.5 -24.5l-10 102q66 2 105 21.5t66 60.5l-268 503h128l199 -380l167 380h125z" />
    <glyph glyph-name="uni0424" unicode="&#x424;" horiz-adv-x="833" 
d="M758.5 204.5q-37.5 -64.5 -110.5 -105.5t-175 -50v-105h-113v105q-102 9 -175 50t-111 105.5t-38 145.5t38 146t111 105.5t175 49.5v105h113v-105q102 -9 175 -49.5t110.5 -105.5t37.5 -146t-37.5 -145.5zM208 217q54 -52 155 -63v393q-101 -11 -155 -63.5t-54 -133.5
t54 -133zM624.5 217q53.5 52 53.5 133t-53.5 133.5t-154.5 63.5v-393q101 11 154.5 63z" />
    <glyph glyph-name="uni0425" unicode="&#x425;" horiz-adv-x="643" 
d="M11 2l240 350l-220 326v2h136l95 -144q35 -52 61 -98q27 48 61 100l93 142h135v-2l-219 -326l239 -350v-2h-137l-113 170q-36 54 -60 96q-32 -56 -60 -96l-114 -170h-137v2z" />
    <glyph glyph-name="uni0426" unicode="&#x426;" horiz-adv-x="731" 
d="M711 109v-261h-111v152h-517v680h118v-571h305v571h118v-571h87z" />
    <glyph glyph-name="uni0427" unicode="&#x427;" horiz-adv-x="650" 
d="M567 680v-680h-118v257q-75 -26 -158 -26q-113 0 -177 56t-64 169v224h118v-212q0 -70 34 -100t102 -30q75 0 145 32v310h118z" />
    <glyph glyph-name="uni0428" unicode="&#x428;" horiz-adv-x="1008" 
d="M925 680v-680h-842v680h118v-571h245v571h116v-571h245v571h118z" />
    <glyph glyph-name="uni0429" unicode="&#x429;" horiz-adv-x="1033" 
d="M1012 109v-261h-111v152h-818v680h118v-571h245v571h116v-571h245v571h118v-571h87z" />
    <glyph glyph-name="uni042A" unicode="&#x42a;" horiz-adv-x="715" 
d="M579.5 393q50.5 -27 80 -75t29.5 -108t-29.5 -108t-80 -75t-112.5 -27h-275v571h-173v109h291v-260h157q62 0 112.5 -27zM539 131q32 29 32 79t-32 79t-83 29h-146v-216h146q51 0 83 29z" />
    <glyph glyph-name="uni042B" unicode="&#x42b;" horiz-adv-x="886" 
d="M83 680h118v-260h157q62 0 112.5 -27t80 -75t29.5 -108t-29.5 -108t-80 -75t-112.5 -27h-275v680zM685 680h118v-680h-118v680zM346 102q51 0 83.5 29t32.5 79t-32.5 79t-83.5 29h-145v-216h145z" />
    <glyph glyph-name="uni042C" unicode="&#x42c;" horiz-adv-x="606" 
d="M470.5 393q50.5 -27 80 -75t29.5 -108t-29.5 -108t-80 -75t-112.5 -27h-275v680h118v-260h157q62 0 112.5 -27zM429.5 131q32.5 29 32.5 79t-32.5 79t-83.5 29h-145v-216h145q51 0 83.5 29z" />
    <glyph glyph-name="uni042D" unicode="&#x42d;" horiz-adv-x="694" 
d="M478 647q80 -45 125 -125t45 -181q0 -97 -44 -177.5t-124 -128t-182 -47.5q-86 0 -151.5 30.5t-123.5 87.5l68 80q88 -91 203 -91q91 0 153.5 54t77.5 140h-286v102h287q-15 88 -77.5 141t-155.5 53q-60 0 -103.5 -17.5t-87.5 -53.5l-61 79q107 99 257 99q100 0 180 -45z
" />
    <glyph glyph-name="uni042E" unicode="&#x42e;" horiz-adv-x="1047" 
d="M831.5 647q79.5 -45 124 -125t44.5 -181q0 -98 -44.5 -179t-124.5 -127.5t-181 -46.5q-91 0 -165.5 39t-122 107t-58.5 153h-103v-287h-118v680h118v-284h103q11 87 58 154t121.5 104.5t166.5 37.5q102 0 181.5 -45zM770.5 128q52.5 33 81 89t28.5 124q0 70 -28.5 125.5
t-80.5 87t-121 31.5q-68 0 -120.5 -31.5t-81 -87t-28.5 -125.5q0 -68 28.5 -124t81 -89t120.5 -33t120.5 33z" />
    <glyph glyph-name="uni042F" unicode="&#x42f;" horiz-adv-x="634" 
d="M551 680v-680h-118v261h-117l-166 -261h-131v4l175 268q-70 20 -108.5 74.5t-38.5 122.5q0 59 28 107t80 76t123 28h273zM433 578h-144q-57 0 -90.5 -30t-33.5 -80q0 -51 33.5 -81t90.5 -30h144v221z" />
    <glyph glyph-name="uni0430" unicode="&#x430;" horiz-adv-x="484" 
d="M377.5 411q48.5 -43 48.5 -123v-288h-73l-20 67q-25 -36 -65.5 -56t-93.5 -20q-63 0 -101.5 33.5t-38.5 91.5q0 75 61 116.5t165 41.5q24 0 56 -2v20q0 34 -24 51.5t-67 17.5q-64 0 -139 -36l-31 83q101 46 187 46q87 0 135.5 -43zM286.5 107q31.5 34 32.5 94
q-27 3 -52 3q-59 0 -92 -20t-33 -57q0 -26 17 -40t47 -14q49 0 80.5 34z" />
    <glyph glyph-name="uni0431" unicode="&#x431;" horiz-adv-x="562" 
d="M423.5 420.5q47.5 -26.5 75.5 -77t28 -120.5q0 -74 -31 -127t-84.5 -80t-121.5 -27q-111 0 -175.5 74t-64.5 211v52q0 87 33.5 167t100.5 125q37 25 70.5 38.5t80.5 26.5q39 11 63 20t48 24l36 -97q-29 -19 -57.5 -29.5t-66.5 -21.5q-40 -12 -64 -20.5t-49 -25.5
q-38 -23 -61.5 -66t-30.5 -101q64 81 166 81q57 0 104.5 -26.5zM382.5 122.5q33.5 38.5 33.5 97.5q0 57 -33.5 94.5t-91.5 37.5q-54 0 -89 -38t-35 -97q0 -61 34.5 -97t88.5 -36q59 0 92.5 38.5z" />
    <glyph glyph-name="uni0432" unicode="&#x432;" horiz-adv-x="481" 
d="M426.5 190.5q19.5 -26.5 19.5 -66.5q0 -58 -40 -91t-106 -33h-236v446h219q64 0 103.5 -32.5t39.5 -86.5q0 -67 -54 -98q35 -12 54.5 -38.5zM170 367v-104h91q31 0 46 15.5t15 38.5q0 22 -15 36t-46 14h-91zM321 93.5q16 14.5 16 39.5t-16 40t-48 15h-103v-109h103
q32 0 48 14.5z" />
    <glyph glyph-name="uni0433" unicode="&#x433;" horiz-adv-x="388" 
d="M64 446h303v-94h-193v-352h-110v446z" />
    <glyph glyph-name="uni0434" unicode="&#x434;" horiz-adv-x="539" 
d="M519 92v-206h-100v114h-304v-114h-100v206h56q18 28 26.5 59.5t12.5 77.5l20 217h327v-354h62zM212 211q-4 -42 -10.5 -69t-18.5 -52h169v265h-126z" />
    <glyph glyph-name="uni0435" unicode="&#x435;" horiz-adv-x="502" 
d="M414.5 399q54.5 -59 54.5 -160q0 -16 -4 -52h-320q10 -53 48.5 -81.5t93.5 -28.5q37 0 65.5 10.5t52.5 31.5l46 -70q-39 -31 -81 -46.5t-93 -15.5q-71 0 -125.5 30t-85 84t-30.5 123q0 65 29.5 118.5t82 84.5t118.5 31q94 0 148.5 -59zM187 340.5q-32 -28.5 -42 -79.5
h221q-2 52 -30 80t-72 28q-45 0 -77 -28.5z" />
    <glyph glyph-name="uni0436" unicode="&#x436;" horiz-adv-x="659" 
d="M652 6v-6h-121l-147 198v-198h-109v198l-148 -198h-120v6l172 224l-156 211v5h121l131 -187v187h109v-186l130 186h122v-5l-157 -210z" />
    <glyph glyph-name="uni0437" unicode="&#x437;" horiz-adv-x="418" 
d="M21 38l38 79q58 -38 130 -38q42 0 63 15.5t21 41.5q0 24 -17 38t-51 14h-86v81h77q27 0 42 13t15 34q0 20 -18.5 34t-53.5 14q-49 0 -107 -28l-32 78q77 40 156 40q70 0 116.5 -33.5t46.5 -92.5q0 -31 -16 -56.5t-43 -35.5q40 -12 60.5 -41t20.5 -68q0 -62 -49.5 -99.5
t-132.5 -37.5q-103 0 -180 48z" />
    <glyph glyph-name="uni0438" unicode="&#x438;" horiz-adv-x="524" 
d="M460 446v-446h-108v204q0 34 2 52q-17 -21 -40 -44l-208 -213h-42v447h108v-200q0 -37 -2 -55q15 18 45 50l203 205h42z" />
    <glyph glyph-name="uni0439" unicode="&#x439;" horiz-adv-x="524" 
d="M460 446v-446h-108v204q0 34 2 52q-17 -21 -40 -44l-208 -213h-42v447h108v-200q0 -37 -2 -55q15 18 45 50l203 205h42zM181 546.5q-38 22.5 -60 63.5l59 44q15 -25 38.5 -38.5t48.5 -13.5t48 13.5t38 38.5l60 -43q-22 -42 -60 -64.5t-86 -22.5t-86 22.5z" />
    <glyph glyph-name="uni043A" unicode="&#x43a;" horiz-adv-x="465" 
d="M459 5v-5h-125l-161 190v-190h-109v446h109v-177l147 177h124v-4l-177 -212z" />
    <glyph glyph-name="uni043B" unicode="&#x43b;" horiz-adv-x="520" 
d="M7 88q55 6 77.5 37.5t28.5 100.5l19 220h324v-446h-109v352h-119l-10 -133q-7 -78 -28.5 -125.5t-62.5 -71.5t-108 -29z" />
    <glyph glyph-name="uni043C" unicode="&#x43c;" horiz-adv-x="616" 
d="M571 0h-108l-17 199q-1 8 -2 20t-1 29l-40 -50l-83 -103h-23l-80 98l-43 56q0 -13 -1 -29.5t-2 -25.5l-18 -194h-107l41 446h34l154 -183q24 -28 34 -42q9 14 33 42l154 183h34z" />
    <glyph glyph-name="uni043D" unicode="&#x43d;" horiz-adv-x="527" 
d="M463 446v-446h-110v178h-180v-178h-109v446h109v-174h180v174h110z" />
    <glyph glyph-name="uni043E" unicode="&#x43e;" horiz-adv-x="551" 
d="M151.5 17q-54.5 30 -85 84t-30.5 122t30.5 121.5t85 83.5t123.5 30t124 -30t85.5 -83.5t30.5 -121.5t-30.5 -122t-85.5 -84t-124 -30t-123.5 30zM368.5 122.5q35.5 38.5 35.5 100.5t-35.5 100.5t-93.5 38.5q-57 0 -93 -39t-36 -100t36 -100t93 -39q58 0 93.5 38.5z" />
    <glyph glyph-name="uni043F" unicode="&#x43f;" horiz-adv-x="526" 
d="M64 446h398v-446h-109v351h-180v-351h-109v446z" />
    <glyph glyph-name="uni0440" unicode="&#x440;" horiz-adv-x="572" 
d="M430.5 427q48.5 -30 76 -83t27.5 -119q0 -69 -27.5 -122.5t-76 -83.5t-109.5 -30q-45 0 -83.5 16.5t-66.5 45.5q2 -31 2 -106v-165h-109v666h74l21 -68q28 38 69.5 58.5t92.5 20.5q61 0 109.5 -30zM388.5 122.5q34.5 38.5 34.5 99.5q0 62 -34.5 100.5t-90.5 38.5
q-58 0 -93.5 -38t-35.5 -99q0 -63 36 -101.5t93 -38.5q56 0 90.5 38.5z" />
    <glyph glyph-name="uni0441" unicode="&#x441;" horiz-adv-x="461" 
d="M154.5 14.5q-52.5 27.5 -85.5 81t-33 127.5q0 71 31.5 124.5t85.5 82t118 28.5q97 0 166 -60l-53 -73q-24 20 -48.5 29t-56.5 9q-57 0 -95 -38.5t-38 -101.5q0 -64 37.5 -102t93.5 -38q35 0 62 11t52 35l55 -73q-39 -36 -80.5 -52.5t-99.5 -16.5q-59 0 -111.5 27.5z" />
    <glyph glyph-name="uni0442" unicode="&#x442;" horiz-adv-x="399" 
d="M145 352h-128v94h365v-94h-127v-352h-110v352z" />
    <glyph glyph-name="uni0443" unicode="&#x443;" horiz-adv-x="489" 
d="M480 446v-3l-177 -455q-27 -70 -56 -112.5t-73 -68t-112 -33.5l-17 90q63 8 96.5 39t59.5 93l2 5l-194 442v3h118l78 -192q27 -63 47 -127q15 54 42 127l71 192h115z" />
    <glyph glyph-name="uni0444" unicode="&#x444;" horiz-adv-x="665" 
d="M599 106.5q-30 -51.5 -85 -82.5t-128 -35v-211h-108v211q-75 4 -129.5 34.5t-83.5 82t-29 117.5t29 117.5t83.5 82t129.5 34.5v242h108v-242q73 -4 128 -34.5t85 -82.5t30 -117t-30 -116.5zM179.5 124q36.5 -37 101.5 -42v282q-65 -5 -101.5 -42t-36.5 -99t36.5 -99z
M485 124q36 37 36 99t-36 99t-101 42v-282q65 5 101 42z" />
    <glyph glyph-name="uni0445" unicode="&#x445;" horiz-adv-x="473" 
d="M17 2l150 230l-137 211v3h122l56 -92q12 -19 28 -53l30 54l57 91h119v-3l-136 -211l150 -230v-2h-123l-65 104q-11 18 -32 60q-14 -31 -32 -60l-66 -104h-121v2z" />
    <glyph glyph-name="uni0446" unicode="&#x446;" horiz-adv-x="542" 
d="M523 94v-208h-100v114h-359v446h109v-352h178v352h109v-352h63z" />
    <glyph glyph-name="uni0447" unicode="&#x447;" horiz-adv-x="479" 
d="M415 446v-446h-109v165q-53 -29 -112 -29q-77 0 -117.5 38.5t-40.5 117.5v154h109v-144q0 -38 19 -54.5t60 -16.5q49 0 82 19v196h109z" />
    <glyph glyph-name="uni0448" unicode="&#x448;" horiz-adv-x="743" 
d="M679 446v-446h-615v446h108v-352h145v352h108v-352h146v352h108z" />
    <glyph glyph-name="uni0449" unicode="&#x449;" horiz-adv-x="761" 
d="M742 94v-208h-101v114h-577v446h108v-352h145v352h108v-352h146v352h108v-352h63z" />
    <glyph glyph-name="uni044A" unicode="&#x44a;" horiz-adv-x="534" 
d="M463.5 263q45.5 -41 45.5 -111q0 -71 -45.5 -111.5t-122.5 -40.5h-215v352h-112v94h222v-142h105q77 0 122.5 -41zM379 101.5q21 17.5 21 50.5t-21 50.5t-60 17.5h-83v-136h83q39 0 60 17.5z" />
    <glyph glyph-name="uni044B" unicode="&#x44b;" horiz-adv-x="694" 
d="M401 263q45 -41 45 -111q0 -71 -45 -111.5t-122 -40.5h-215v446h110v-142h105q77 0 122 -41zM630 446v-446h-109v446h109zM316 101.5q21 17.5 21 50.5t-20.5 50.5t-59.5 17.5h-83v-136h83q38 0 59 17.5z" />
    <glyph glyph-name="uni044C" unicode="&#x44c;" horiz-adv-x="471" 
d="M401 263q45 -41 45 -111q0 -71 -45 -111.5t-122 -40.5h-215v446h110v-142h105q77 0 122 -41zM316 101.5q21 17.5 21 50.5t-20.5 50.5t-59.5 17.5h-83v-136h83q38 0 59 17.5z" />
    <glyph glyph-name="uni044D" unicode="&#x44d;" horiz-adv-x="466" 
d="M312.5 429.5q53.5 -28.5 85 -81.5t31.5 -123q0 -72 -31.5 -125.5t-85 -82.5t-118.5 -29q-105 0 -177 72l54 69q27 -26 54.5 -37.5t60.5 -11.5q51 0 86 29t45 78h-182v79h181q-11 47 -46.5 73.5t-82.5 26.5q-30 0 -56 -10.5t-51 -32.5l-53 68q72 67 168 67
q64 0 117.5 -28.5z" />
    <glyph glyph-name="uni044E" unicode="&#x44e;" horiz-adv-x="755" 
d="M604 428q54 -30 84.5 -83.5t30.5 -121.5t-30.5 -121.5t-84.5 -83.5t-124 -30q-93 0 -155.5 52.5t-76.5 138.5h-75v-179h-109v446h109v-174h76q15 84 77.5 135t153.5 51q70 0 124 -30zM572.5 122.5q35.5 38.5 35.5 100.5q0 61 -35.5 99.5t-92.5 38.5q-56 0 -91 -38
t-35 -100t35 -100.5t91 -38.5q57 0 92.5 38.5z" />
    <glyph glyph-name="uni044F" unicode="&#x44f;" horiz-adv-x="494" 
d="M430 446v-446h-108v153h-77l-103 -153h-121v5l117 162q-41 17 -63.5 51t-22.5 81q0 67 44 107t119 40h215zM322 232v129h-90q-36 0 -53.5 -17.5t-17.5 -47.5t17.5 -47t53.5 -17h90z" />
    <glyph glyph-name="uni0450" unicode="&#x450;" horiz-adv-x="502" 
d="M414.5 399q54.5 -59 54.5 -160q0 -16 -4 -52h-320q10 -53 48.5 -81.5t93.5 -28.5q37 0 65.5 10.5t52.5 31.5l46 -70q-39 -31 -81 -46.5t-93 -15.5q-71 0 -125.5 30t-85 84t-30.5 123q0 65 29.5 118.5t82 84.5t118.5 31q94 0 148.5 -59zM187 340.5q-32 -28.5 -42 -79.5
h221q-2 52 -30 80t-72 28q-45 0 -77 -28.5zM149 622l62 72l143 -122l-45 -51z" />
    <glyph glyph-name="uni0451" unicode="&#x451;" horiz-adv-x="502" 
d="M414.5 399q54.5 -59 54.5 -160q0 -16 -4 -52h-320q10 -53 48.5 -81.5t93.5 -28.5q37 0 65.5 10.5t52.5 31.5l46 -70q-39 -31 -81 -46.5t-93 -15.5q-71 0 -125.5 30t-85 84t-30.5 123q0 65 29.5 118.5t82 84.5t118.5 31q94 0 148.5 -59zM187 340.5q-32 -28.5 -42 -79.5
h221q-2 52 -30 80t-72 28q-45 0 -77 -28.5zM129.5 560q-16.5 17 -16.5 41t16 41.5t43 17.5q25 0 42 -17.5t17 -40.5q0 -24 -16.5 -41.5t-42.5 -17.5t-42.5 17zM301 560.5q-17 17.5 -17 40.5t17 41t43 18t42.5 -17.5t16.5 -41.5q0 -23 -17 -40.5t-42 -17.5q-26 0 -43 17.5z
" />
    <glyph glyph-name="uni0452" unicode="&#x452;" horiz-adv-x="526" 
d="M426.5 398q40.5 -47 40.5 -129v-307q0 -97 -49.5 -145.5t-140.5 -48.5l-9 92q50 1 70 25t20 80v297q0 38 -19.5 61.5t-57.5 23.5q-52 0 -80 -37t-28 -93v-217h-109v538h-60v61h60v100h109v-100h156v-61h-156v-96q0 -41 -1 -67q20 32 55 51t81 19q78 0 118.5 -47z" />
    <glyph glyph-name="uni0453" unicode="&#x453;" horiz-adv-x="388" 
d="M64 446h303v-94h-193v-352h-110v446zM127 572l142 122l61 -71l-158 -102z" />
    <glyph glyph-name="uni0454" unicode="&#x454;" horiz-adv-x="460" 
d="M445 56q-38 -35 -80 -51.5t-99 -16.5q-59 0 -111.5 27.5t-85.5 80.5t-33 127q0 71 31.5 124.5t85 82t117.5 28.5q89 0 159 -61l-53 -70q-23 20 -47 29t-54 9q-46 0 -80.5 -26.5t-46.5 -72.5h175v-79h-177q10 -50 46 -78t85 -28q37 0 63.5 11t51.5 34z" />
    <glyph glyph-name="uni0455" unicode="&#x455;" horiz-adv-x="398" 
d="M30 39l43 77q59 -37 122 -37q30 0 48 12.5t18 33.5q0 22 -21 35.5t-65 30.5q-60 23 -93 54.5t-33 82.5q0 59 45.5 92t112.5 33q77 0 146 -40l-38 -73q-50 26 -99 26q-28 0 -45.5 -9t-17.5 -29t20.5 -34.5t60.5 -28.5q65 -24 99.5 -56t34.5 -84q0 -62 -45.5 -98.5
t-119.5 -36.5q-96 0 -173 49z" />
    <glyph glyph-name="uni0456" unicode="&#x456;" horiz-adv-x="237" 
d="M69.5 557.5q-18.5 18.5 -18.5 46.5t18.5 46.5t49.5 18.5t49.5 -19t18.5 -47q0 -27 -19 -45.5t-49 -18.5q-31 0 -49.5 18.5zM64 446h109v-446h-109v446z" />
    <glyph glyph-name="uni0457" unicode="&#x457;" horiz-adv-x="237" 
d="M64 446h109v-446h-109v446zM-4.5 557q-16.5 17 -16.5 43t16.5 43.5t42.5 17.5t42 -17.5t16 -43.5t-16 -43t-42 -17t-42.5 17zM155.5 557q-16.5 17 -16.5 43t16.5 43.5t42.5 17.5t42.5 -17.5t16.5 -43.5t-16.5 -43t-42.5 -17t-42.5 17z" />
    <glyph glyph-name="uni0458" unicode="&#x458;" horiz-adv-x="241" 
d="M73.5 557.5q-18.5 18.5 -18.5 45.5q0 28 18.5 47t48.5 19q32 0 50.5 -18.5t18.5 -47.5q0 -28 -19 -46t-50 -18q-30 0 -48.5 18.5zM-46 -139q46 3 70.5 18t34 42.5t9.5 73.5v451h109v-451q0 -76 -19.5 -124t-65 -73.5t-124.5 -29.5z" />
    <glyph glyph-name="uni0459" unicode="&#x459;" horiz-adv-x="726" 
d="M658 247q43 -37 43 -104q0 -68 -43 -105.5t-115 -37.5h-206v352h-107l-14 -150q-9 -101 -57.5 -152.5t-139.5 -56.5l-12 92q48 3 74.5 39.5t33.5 108.5l19 213h313v-162h96q72 0 115 -37zM574 97.5q18 14.5 18 45.5q0 30 -18 44.5t-51 14.5h-76v-119h76q33 0 51 14.5z
" />
    <glyph glyph-name="uni045A" unicode="&#x45a;" horiz-adv-x="728" 
d="M660.5 247.5q42.5 -36.5 42.5 -104.5q0 -67 -43 -105t-114 -38h-207v195h-166v-195h-109v446h109v-161h166v161h110v-162h97q72 0 114.5 -36.5zM577 98.5q18 14.5 18 44.5q0 57 -69 57h-77v-116h77q33 0 51 14.5z" />
    <glyph glyph-name="uni045B" unicode="&#x45b;" horiz-adv-x="526" 
d="M427 397.5q40 -47.5 40 -129.5v-268h-109v262q0 38 -19 61.5t-58 23.5q-52 0 -80 -37t-28 -93v-217h-109v538h-60v61h60v100h109v-100h160v-61h-160v-96q0 -41 -1 -67q20 32 55.5 51t81.5 19q78 0 118 -47.5z" />
    <glyph glyph-name="uni045C" unicode="&#x45c;" horiz-adv-x="465" 
d="M459 5v-5h-125l-161 190v-190h-109v446h109v-177l147 177h124v-4l-177 -212zM181 572l142 122l61 -71l-158 -102z" />
    <glyph glyph-name="uni045D" unicode="&#x45d;" horiz-adv-x="524" 
d="M460 446v-446h-108v204q0 34 2 52q-17 -21 -40 -44l-208 -213h-42v447h108v-200q0 -37 -2 -55q15 18 45 50l203 205h42zM150 627l62 72l143 -122l-45 -51z" />
    <glyph glyph-name="uni045E" unicode="&#x45e;" horiz-adv-x="489" 
d="M480 446v-3l-177 -455q-27 -70 -56 -112.5t-73 -68t-112 -33.5l-17 90q63 8 96.5 39t59.5 93l2 5l-194 442v3h118l78 -192q27 -63 47 -127q15 54 42 127l71 192h115zM159 546.5q-38 22.5 -60 63.5l59 44q15 -25 38.5 -38.5t48.5 -13.5t48 13.5t38 38.5l60 -43
q-22 -42 -60 -64.5t-86 -22.5t-86 22.5z" />
    <glyph glyph-name="uni045F" unicode="&#x45f;" horiz-adv-x="524" 
d="M460 0h-148v-114h-100v114h-148v446h109v-352h178v352h109v-446z" />
    <glyph glyph-name="uni0490" unicode="&#x490;" horiz-adv-x="526" 
d="M83 680h318v152h107v-261h-307v-571h-118v680z" />
    <glyph glyph-name="uni0491" unicode="&#x491;" horiz-adv-x="388" 
d="M64 446h204v109h99v-203h-193v-352h-110v446z" />
    <glyph glyph-name="Wgrave" unicode="&#x1e80;" horiz-adv-x="965" 
d="M950 680v-3l-239 -681h-35l-165 361q-20 46 -30 76q-11 -37 -28 -76l-165 -361h-35l-238 681v3h124l119 -354l7 -21q15 -47 23 -81q19 54 39 101l140 314h29l135 -300q31 -70 46 -114q5 17 25 83l9 26l116 346h123zM358 851l66 76l148 -127l-47 -54z" />
    <glyph glyph-name="wgrave" unicode="&#x1e81;" horiz-adv-x="675" 
d="M663 446v-3l-167 -447h-34l-124 249l-125 -249h-33l-167 447v3h116l69 -198q10 -30 16 -54q14 36 25 55l87 175h23l87 -175q13 -23 26 -56q6 23 17 55l69 198h115zM228 622l62 72l143 -122l-45 -51z" />
    <glyph glyph-name="Wacute" unicode="&#x1e82;" horiz-adv-x="965" 
d="M950 680v-3l-239 -681h-35l-165 361q-20 46 -30 76q-11 -37 -28 -76l-165 -361h-35l-238 681v3h124l119 -354l7 -21q15 -47 23 -81q19 54 39 101l140 314h29l135 -300q31 -70 46 -114q5 17 25 83l9 26l116 346h123zM381 800l148 127l65 -75l-166 -106z" />
    <glyph glyph-name="wacute" unicode="&#x1e83;" horiz-adv-x="675" 
d="M663 446v-3l-167 -447h-34l-124 249l-125 -249h-33l-167 447v3h116l69 -198q10 -30 16 -54q14 36 25 55l87 175h23l87 -175q13 -23 26 -56q6 23 17 55l69 198h115zM242 572l142 122l61 -71l-158 -102z" />
    <glyph glyph-name="Wdieresis" unicode="&#x1e84;" horiz-adv-x="965" 
d="M950 680v-3l-239 -681h-35l-165 361q-20 46 -30 76q-11 -37 -28 -76l-165 -361h-35l-238 681v3h124l119 -354l7 -21q15 -47 23 -81q19 54 39 101l140 314h29l135 -300q31 -70 46 -114q5 17 25 83l9 26l116 346h123zM337.5 782q-17.5 18 -17.5 44t17.5 45t45.5 19
q27 0 45 -19t18 -44t-17.5 -44t-45.5 -19t-45.5 18zM534.5 782.5q-17.5 18.5 -17.5 44.5q0 25 18 44t45 19t45 -19t18 -44q0 -26 -17.5 -44.5t-45.5 -18.5t-45.5 18.5z" />
    <glyph glyph-name="wdieresis" unicode="&#x1e85;" horiz-adv-x="675" 
d="M663 446v-3l-167 -447h-34l-124 249l-125 -249h-33l-167 447v3h116l69 -198q10 -30 16 -54q14 36 25 55l87 175h23l87 -175q13 -23 26 -56q6 23 17 55l69 198h115zM209.5 560q-16.5 17 -16.5 41t16 41.5t43 17.5q25 0 42 -17.5t17 -40.5q0 -24 -16.5 -41.5t-42.5 -17.5
t-42.5 17zM381 560.5q-17 17.5 -17 40.5t17 41t43 18t42.5 -17.5t16.5 -41.5q0 -23 -17 -40.5t-42 -17.5q-26 0 -43 17.5z" />
    <glyph glyph-name="uni1E9E" unicode="&#x1e9e;" horiz-adv-x="665" 
d="M578 354q50 -56 50 -137q0 -63 -28 -112.5t-77.5 -77t-113.5 -27.5h-123v99h100q58 0 92 32.5t34 85.5t-34.5 85t-91.5 32h-69v59l118 188h-114q-61 0 -93.5 -37.5t-32.5 -106.5v-437h-116v436q0 118 63.5 181t181.5 63h259v-41l-137 -220q82 -9 132 -65z" />
    <glyph glyph-name="Ygrave" unicode="&#x1ef2;" horiz-adv-x="644" 
d="M629 680v-3l-248 -382v-295h-118v295l-248 382v3h134l122 -192q25 -40 52 -94q17 39 51 94l121 192h134zM198 851l66 76l148 -127l-47 -54z" />
    <glyph glyph-name="ygrave" unicode="&#x1ef3;" horiz-adv-x="489" 
d="M480 446v-3l-263 -663h-116v2l99 229l-191 432v3h118l95 -228q18 -44 30 -86q10 38 27 86l87 228h114zM136 622l62 72l143 -122l-45 -51z" />
    <glyph glyph-name="endash" unicode="&#x2013;" horiz-adv-x="519" 
d="M54 271h411v-86h-411v86z" />
    <glyph glyph-name="emdash" unicode="&#x2014;" horiz-adv-x="683" 
d="M54 270h575v-85h-575v85z" />
    <glyph glyph-name="quoteleft" unicode="&#x2018;" horiz-adv-x="207" 
d="M150 552q19 -18 19 -48q0 -32 -19.5 -49t-45.5 -17q-27 0 -46.5 21.5t-19.5 61.5q0 50 26.5 98t71.5 85l28 -30q-54 -50 -66 -104h7q26 0 45 -18z" />
    <glyph glyph-name="quoteright" unicode="&#x2019;" horiz-adv-x="207" 
d="M154.5 676.5q19.5 -21.5 19.5 -61.5q0 -50 -26 -98t-71 -85l-29 29q54 50 66 105h-6q-26 0 -45.5 18t-19.5 48q0 31 20 48.5t45 17.5q27 0 46.5 -21.5z" />
    <glyph glyph-name="quotesinglbase" unicode="&#x201a;" horiz-adv-x="259" 
d="M177 100.5q19 -20.5 19 -62.5q0 -50 -26.5 -97t-76.5 -85l-24 30q56 50 66 103h-6q-26 0 -45.5 18t-19.5 48q0 32 19.5 49t45.5 17q29 0 48 -20.5z" />
    <glyph glyph-name="quotedblleft" unicode="&#x201c;" horiz-adv-x="376" 
d="M150 552q19 -18 19 -48q0 -31 -19.5 -48.5t-44.5 -17.5q-28 0 -47.5 21.5t-19.5 61.5q0 50 26.5 98t71.5 85l28 -29q-54 -51 -66 -105h7q26 0 45 -18zM318 552q19 -18 19 -48q0 -32 -19.5 -49t-45.5 -17q-27 0 -46.5 21.5t-19.5 61.5q0 50 26.5 98t71.5 85l28 -29
q-54 -51 -66 -105h7q26 0 45 -18z" />
    <glyph glyph-name="quotedblright" unicode="&#x201d;" horiz-adv-x="376" 
d="M155.5 676.5q19.5 -21.5 19.5 -61.5q0 -50 -26.5 -97.5t-71.5 -85.5l-28 30q55 49 65 104h-6q-26 0 -45.5 18t-19.5 48q0 31 20 48.5t45 17.5q28 0 47.5 -21.5zM323.5 676.5q19.5 -21.5 19.5 -61.5q0 -50 -26.5 -97.5t-71.5 -85.5l-28 30q54 50 66 104h-7q-26 0 -45 18
t-19 48q0 31 19.5 48.5t44.5 17.5q28 0 47.5 -21.5z" />
    <glyph glyph-name="quotedblbase" unicode="&#x201e;" horiz-adv-x="428" 
d="M177 100.5q19 -20.5 19 -62.5q0 -50 -26.5 -97t-76.5 -85l-24 30q56 50 66 103h-6q-26 0 -45.5 18t-19.5 48q0 32 19.5 49t45.5 17q29 0 48 -20.5zM346 100.5q19 -20.5 19 -62.5q0 -50 -26.5 -97t-76.5 -85l-24 30q56 50 66 103h-6q-26 0 -45.5 18t-19.5 48q0 32 19.5 49
t45.5 17q29 0 48 -20.5z" />
    <glyph glyph-name="dagger" unicode="&#x2020;" horiz-adv-x="584" 
d="M242 291h-193v91h193v299h99v-299h194v-91h-194v-585h-99v585z" />
    <glyph glyph-name="daggerdbl" unicode="&#x2021;" horiz-adv-x="584" 
d="M242 5h-193v91h193v195h-193v91h193v299h99v-299h194v-91h-194v-195h194v-91h-194v-299h-99v299z" />
    <glyph glyph-name="bullet" unicode="&#x2022;" horiz-adv-x="325" 
d="M92.5 278q-29.5 25 -29.5 72t29.5 72t70.5 25q40 0 69.5 -25t29.5 -72t-29.5 -72t-69.5 -25q-41 0 -70.5 25z" />
    <glyph glyph-name="ellipsis" unicode="&#x2026;" horiz-adv-x="708" 
d="M84 6q-21 18 -21 51q0 34 21 52t50 18t50 -18t21 -52q0 -33 -21 -51t-50 -18t-50 18zM304.5 6q-20.5 18 -20.5 51q0 34 20.5 52t49.5 18t50 -18t21 -52q0 -33 -21 -51t-50 -18t-49.5 18zM524.5 6q-20.5 18 -20.5 51q0 34 20.5 52t49.5 18t50 -18t21 -52q0 -33 -21 -51
t-50 -18t-49.5 18z" />
    <glyph glyph-name="perthousand" unicode="&#x2030;" horiz-adv-x="1127" 
d="M102.5 406.5q-35.5 21.5 -53.5 57t-18 75.5t18 75t53.5 56.5t84.5 21.5t84 -21.5t53 -56.5t18 -75t-18 -75.5t-53 -57t-84 -21.5t-84.5 21.5zM537 680h96l-391 -680h-97zM240 484.5q17 23.5 17 54.5t-17 54.5t-53 23.5t-53 -23.5t-17 -54.5t17 -54.5t53 -23.5t53 23.5z
M500 9.5q-35 21.5 -53 56.5t-18 75t18 75.5t53 57t84 21.5t84.5 -21.5t53.5 -57t18 -75.5t-18 -75t-53.5 -56.5t-84.5 -21.5t-84 21.5zM856.5 9.5q-35.5 21.5 -53.5 56.5t-18 75t18 75.5t53.5 57t84.5 21.5t84 -21.5t53 -57t18 -75.5t-18 -75t-53 -56.5t-84 -21.5
t-84.5 21.5zM637 86.5q17 23.5 17 54.5t-17 54.5t-53 23.5t-53 -23.5t-17 -54.5t17 -54.5t53 -23.5t53 23.5zM994 86.5q17 23.5 17 54.5t-17 54.5t-53 23.5t-53 -23.5t-17 -54.5t17 -54.5t53 -23.5t53 23.5z" />
    <glyph glyph-name="guilsinglleft" unicode="&#x2039;" horiz-adv-x="276" 
d="M26 245l124 197l82 -45l-86 -152l87 -156l-81 -45z" />
    <glyph glyph-name="guilsinglright" unicode="&#x203a;" horiz-adv-x="276" 
d="M42 89l88 156l-86 152l81 45l125 -197l-126 -201z" />
    <glyph glyph-name="fraction" unicode="&#x2044;" horiz-adv-x="132" 
d="M208 680h75l-352 -680h-76z" />
    <glyph glyph-name="Euro" unicode="&#x20ac;" horiz-adv-x="585" 
d="M269 20q-66 32 -108.5 88t-57.5 128h-81v70h71l-1 23q0 11 2 33h-72v69h83q30 111 111.5 176t201.5 65q76 0 137 -29l-37 -94q-38 19 -98 19q-73 0 -121.5 -35t-70.5 -102h212l-26 -69h-200q-2 -10 -2 -32q0 -17 1 -24h182l-27 -70h-141q16 -64 67.5 -103.5t134.5 -39.5
q53 0 96 21l35 -94q-67 -32 -141 -32q-84 0 -150 32z" />
    <glyph glyph-name="uni20BD" unicode="&#x20bd;" horiz-adv-x="617" 
d="M234 249v-55h252v-76h-252v-118h-118v118h-86v76h86v55h-86v89h86v323h248q70 0 121 -28.5t77.5 -76t26.5 -104.5q0 -53 -26 -99.5t-78 -75t-127 -28.5h-124zM234 338h106q68 0 99.5 32t31.5 83q0 48 -33 77t-89 29h-115v-221z" />
    <glyph glyph-name="uni2113" unicode="&#x2113;" horiz-adv-x="446" 
d="M145.5 30q-35.5 42 -35.5 116v22l-66 -31l-31 67q67 30 97 46v249q0 88 41 140.5t120 52.5q50 0 82.5 -25t47 -63t14.5 -77q0 -102 -57 -177.5t-162 -136.5v-60q0 -36 17 -61t51 -25q22 0 42.5 8.5t37.5 24.5l40 -66q-51 -46 -127 -46t-111.5 42zM296.5 401
q36.5 55 36.5 127q0 32 -16 58.5t-47 26.5q-35 0 -54.5 -30t-19.5 -83v-198q64 44 100.5 99z" />
    <glyph glyph-name="uni2116" unicode="&#x2116;" horiz-adv-x="1063" 
d="M785 453q-41 37 -41 101t41 100.5t103 36.5t103 -36.5t41 -100.5t-41 -101t-103 -37t-103 37zM549 680h117v-684h-46l-367 401q-40 43 -57 62q4 -50 4 -74v-385h-117v684h45l356 -391q46 -48 68 -73q-3 50 -3 91v369zM842.5 602q-17.5 -18 -17.5 -48t17.5 -48.5
t45.5 -18.5t45.5 18.5t17.5 48.5t-17.5 48t-45.5 18t-45.5 -18zM754 363h265v-68h-265v68z" />
    <glyph glyph-name="uni2117" unicode="&#x2117;" horiz-adv-x="776" 
d="M210 42.5q-78 45.5 -121 123.5t-43 174t43 174t121 123t178 45q99 0 177 -45t121 -123t43 -174t-43 -174t-121 -123.5t-177 -45.5q-100 0 -178 45.5zM533 95q63 37 97.5 101t34.5 144q0 79 -34.5 143t-97.5 100.5t-145 36.5q-81 0 -144.5 -36.5t-98.5 -100.5t-35 -143
q0 -80 35 -144t98.5 -101t144.5 -37q82 0 145 37zM269 529h158q57 0 90.5 -36.5t33.5 -85.5q0 -54 -33.5 -90t-92.5 -36h-77v-123h-79v371zM409 348q33 0 48 16t15 43q0 24 -16 38.5t-46 14.5h-62v-112h61z" />
    <glyph glyph-name="trademark" unicode="&#x2122;" horiz-adv-x="658" 
d="M124 617h-83v63h232v-63h-82v-214h-67v214zM328 680h19l101 -136l101 136h19l41 -277h-69l-18 144l-66 -89h-16l-67 89l-18 -144h-69z" />
    <glyph glyph-name="uni2126" unicode="&#x2126;" horiz-adv-x="779" 
d="M60 99h105q-60 42 -91.5 107.5t-31.5 143.5q0 93 44 171.5t123 124.5t180 46t180.5 -46t123 -124.5t43.5 -171.5q0 -78 -31 -143.5t-91 -107.5h105v-99h-266v94q80 27 127 94t47 155q0 71 -30.5 126.5t-84.5 87t-123 31.5t-123 -31.5t-84 -87t-30 -126.5q0 -88 47 -155
t127 -94v-94h-266v99z" />
    <glyph glyph-name="estimated" unicode="&#x212e;" horiz-adv-x="772" 
d="M211.5 37.5q-78.5 47.5 -122 130t-43.5 183.5q0 99 44 181.5t122.5 130t178.5 47.5t175.5 -47.5t116.5 -129.5t41 -182l-1 -24h-556v-170q38 -53 96 -82t128 -29q67 0 127.5 33t101.5 89l45 -34q-50 -69 -120.5 -106.5t-153.5 -37.5q-101 0 -179.5 47.5zM607 377v174
q-37 50 -92.5 77t-123.5 27q-70 0 -128 -28.5t-96 -80.5v-169h440z" />
    <glyph glyph-name="uni2153" unicode="&#x2153;" horiz-adv-x="647" 
d="M101 576l-38 -33l-38 41l104 99h36v-286h-64v179zM435 680h75l-352 -680h-76zM400 25l34 45q11 -10 27 -15.5t32 -5.5q21 0 33 10t12 27q0 35 -46 35h-32v51h26q17 0 28 8t11 24q0 14 -10 21.5t-24 7.5q-25 0 -46 -16l-36 43q38 33 92 33q37 0 63 -22t26 -56
q0 -22 -10.5 -39.5t-28.5 -24.5q22 -6 38 -26t16 -46q0 -40 -29 -65t-76 -25q-61 0 -100 36z" />
    <glyph glyph-name="uni2154" unicode="&#x2154;" horiz-adv-x="705" 
d="M248 455v-58h-203v27l106 129q21 28 21 47q0 14 -8 22.5t-24 8.5q-25 0 -43 -37l-50 25q12 36 37.5 54t59.5 18q42 0 68 -25.5t26 -61.5q0 -20 -7.5 -39.5t-26.5 -44.5l-52 -65h96zM493 680h75l-352 -680h-76zM458 25l34 45q11 -10 27 -15.5t32 -5.5q21 0 33 10t12 27
q0 35 -46 35h-32v51h26q17 0 28 8t11 24q0 14 -10 21.5t-24 7.5q-25 0 -46 -16l-36 43q38 33 92 33q37 0 63 -22t26 -56q0 -22 -10.5 -39.5t-28.5 -24.5q22 -6 38 -26t16 -46q0 -40 -29 -65t-76 -25q-61 0 -100 36z" />
    <glyph glyph-name="oneeighth" unicode="&#x215b;" horiz-adv-x="656" 
d="M101 576l-38 -33l-38 41l104 99h36v-286h-64v179zM435 680h75l-352 -680h-76zM430.5 12.5q-29.5 23.5 -29.5 67.5q0 23 12 42t33 29q-32 24 -32 63q0 37 26.5 58.5t67.5 21.5t67 -21.5t26 -57.5q0 -22 -9.5 -38t-23.5 -25q22 -11 34 -30t12 -42q0 -44 -29 -67.5
t-77 -23.5t-77.5 23.5zM529.5 185q8.5 9 8.5 22q0 14 -8.5 23t-21.5 9q-14 0 -22.5 -9t-8.5 -23q0 -13 9 -22t22 -9t21.5 9zM537.5 56q11.5 11 11.5 29t-12 29.5t-30 11.5q-19 0 -30 -11.5t-11 -29.5t11.5 -29t30.5 -11q18 0 29.5 11z" />
    <glyph glyph-name="threeeighths" unicode="&#x215c;" horiz-adv-x="717" 
d="M41 422l34 45q11 -10 27 -15.5t32 -5.5q21 0 33 10t12 27q0 35 -46 35h-32v51h26q17 0 28 8t11 24q0 14 -10 21.5t-24 7.5q-25 0 -46 -16l-36 43q38 33 92 33q37 0 63 -22t26 -56q0 -22 -10.5 -39.5t-28.5 -24.5q22 -6 38 -26t16 -46q0 -40 -29 -65t-76 -25
q-61 0 -100 36zM496 680h75l-352 -680h-76zM491.5 12.5q-29.5 23.5 -29.5 67.5q0 23 12 42t33 29q-32 24 -32 63q0 37 26.5 58.5t67.5 21.5t67 -21.5t26 -57.5q0 -22 -9.5 -38t-23.5 -25q22 -11 34 -30t12 -42q0 -44 -29 -67.5t-77 -23.5t-77.5 23.5zM590.5 185
q8.5 9 8.5 22q0 14 -8.5 23t-21.5 9q-14 0 -22.5 -9t-8.5 -23q0 -13 9 -22t22 -9t21.5 9zM598.5 56q11.5 11 11.5 29t-12 29.5t-30 11.5q-19 0 -30 -11.5t-11 -29.5t11.5 -29t30.5 -11q18 0 29.5 11z" />
    <glyph glyph-name="fiveeighths" unicode="&#x215d;" horiz-adv-x="714" 
d="M43 422l36 44q21 -21 52 -21q20 0 32 11.5t12 30.5q0 21 -15.5 32t-42.5 11q-23 0 -47 -7l-6 6l18 151h147v-59h-95l-5 -47l16 1q41 0 69 -23.5t28 -66.5q0 -45 -29 -72t-76 -27q-56 0 -94 36zM493 680h75l-352 -680h-76zM488.5 12.5q-29.5 23.5 -29.5 67.5q0 23 12 42
t33 29q-32 24 -32 63q0 37 26.5 58.5t67.5 21.5t67 -21.5t26 -57.5q0 -22 -9.5 -38t-23.5 -25q22 -11 34 -30t12 -42q0 -44 -29 -67.5t-77 -23.5t-77.5 23.5zM587.5 185q8.5 9 8.5 22q0 14 -8.5 23t-21.5 9q-14 0 -22.5 -9t-8.5 -23q0 -13 9 -22t22 -9t21.5 9zM595.5 56
q11.5 11 11.5 29t-12 29.5t-30 11.5q-19 0 -30 -11.5t-11 -29.5t11.5 -29t30.5 -11q18 0 29.5 11z" />
    <glyph glyph-name="seveneighths" unicode="&#x215e;" horiz-adv-x="654" 
d="M148 621h-105v59h190v-13l-107 -270h-68zM433 680h75l-352 -680h-76zM428.5 12.5q-29.5 23.5 -29.5 67.5q0 23 12 42t33 29q-32 24 -32 63q0 37 26.5 58.5t67.5 21.5t67 -21.5t26 -57.5q0 -22 -9.5 -38t-23.5 -25q22 -11 34 -30t12 -42q0 -44 -29 -67.5t-77 -23.5
t-77.5 23.5zM527.5 185q8.5 9 8.5 22q0 14 -8.5 23t-21.5 9q-14 0 -22.5 -9t-8.5 -23q0 -13 9 -22t22 -9t21.5 9zM535.5 56q11.5 11 11.5 29t-12 29.5t-30 11.5q-19 0 -30 -11.5t-11 -29.5t11.5 -29t30.5 -11q18 0 29.5 11z" />
    <glyph glyph-name="arrowleft" unicode="&#x2190;" horiz-adv-x="622" 
d="M249 278q-33 0 -54 1q20 -16 39 -35l96 -95l-69 -70l-252 252l253 252l68 -69l-94 -94q-17 -17 -41 -38q40 2 55 2h353v-106h-354z" />
    <glyph glyph-name="arrowup" unicode="&#x2191;" horiz-adv-x="532" 
d="M213 402q0 34 1 54q-17 -22 -35 -38l-95 -97l-70 70l252 252l252 -253l-69 -69l-94 94l-38 41q2 -38 2 -54v-354h-106v354z" />
    <glyph glyph-name="arrowright" unicode="&#x2192;" horiz-adv-x="622" 
d="M372 425q34 0 55 -1q-16 12 -39 35l-96 95l69 70l252 -252l-253 -252l-68 69l93 94l42 38q-40 -2 -55 -2h-354v106h354z" />
    <glyph glyph-name="arrowdown" unicode="&#x2193;" horiz-adv-x="532" 
d="M319 302q0 -33 -1 -54q7 8 35 39l95 96l70 -69l-252 -253l-252 253l69 69l94 -94q17 -17 38 -41q-2 40 -2 55v353h106v-354z" />
    <glyph glyph-name="arrowboth" unicode="&#x2194;" horiz-adv-x="813" 
d="M9 353l253 251l68 -69l-93 -93q-21 -21 -42 -38q21 1 55 1h313q34 0 55 -1q-19 14 -39 36l-96 95l69 69l252 -251l-253 -252l-68 69l93 93q21 21 42 38q-20 -1 -55 -1h-313q-34 0 -55 1q16 -12 39 -35l96 -96l-69 -69z" />
    <glyph glyph-name="arrowupdn" unicode="&#x2195;" horiz-adv-x="532" 
d="M266 752l252 -253l-69 -68l-94 93q-23 25 -37 42q1 -21 1 -55v-314q0 -33 -1 -54q12 16 35 39l95 96l70 -69l-252 -253l-252 253l69 69l94 -93q10 -10 38 -42q-1 19 -1 55v313q0 34 1 55q-19 -23 -36 -39l-95 -96l-70 69z" />
    <glyph glyph-name="uni2196" unicode="&#x2196;" horiz-adv-x="488" 
d="M151 337q-24 24 -37 39q2 -19 2 -52l1 -135l-98 -1l-1 357l357 -1v-97h-132q-15 0 -57 2q22 -19 40 -37l251 -251l-75 -75z" />
    <glyph glyph-name="uni2197" unicode="&#x2197;" horiz-adv-x="488" 
d="M262 416l39 38q-19 -3 -52 -3l-135 -1l-1 99h357l-1 -357h-97v133q0 14 2 56q-20 -23 -37 -40l-251 -250l-74 75z" />
    <glyph glyph-name="uni2198" unicode="&#x2198;" horiz-adv-x="488" 
d="M336 333q21 -19 38 -39q-2 20 -2 52l-1 136h98v-356h-357l1 98h132q14 0 56 -2q-42 39 -40 37l-250 250l75 75z" />
    <glyph glyph-name="uni2199" unicode="&#x2199;" horiz-adv-x="488" 
d="M226 259l-39 -37q19 2 52 2l135 1l1 -98l-357 -1l1 357h97v-132q0 -15 -2 -57l37 41l250 250l75 -75z" />
    <glyph glyph-name="partialdiff" unicode="&#x2202;" horiz-adv-x="504" 
d="M142 12q-48 24 -77 70.5t-29 110.5q0 69 28 120t73.5 77t96.5 26q69 0 115 -43q-31 84 -98.5 147.5t-153.5 94.5l47 90q103 -42 176 -113t110.5 -161.5t37.5 -189.5q0 -70 -25.5 -127.5t-75.5 -91.5t-120 -34q-57 0 -105 24zM332 124.5q27 40.5 27 96.5q0 45 -29 73.5
t-76 28.5t-79 -33.5t-32 -93.5q0 -47 29 -79.5t78 -32.5q55 0 82 40.5z" />
    <glyph glyph-name="emptyset" unicode="&#x2205;" horiz-adv-x="809" 
d="M665 585q43 -47 66.5 -109.5t23.5 -134.5q0 -98 -44.5 -179t-124.5 -127.5t-181 -46.5q-126 0 -220 73l-63 -69h-76l98 107q-43 48 -66 110t-23 132q0 101 44.5 181t124.5 125t181 45q127 0 219 -70l60 66h76zM150 240.5q16 -47.5 46 -84.5l377 411q-70 51 -168 51
q-82 0 -143.5 -35.5t-94.5 -98.5t-33 -143q0 -53 16 -100.5zM660 444q-16 48 -46 84l-378 -411q69 -55 169 -55q82 0 143.5 37t94.5 100.5t33 141.5q0 55 -16 103z" />
    <glyph glyph-name="uni2206" unicode="&#x2206;" horiz-adv-x="669" 
d="M5 4l313 680h33l313 -681v-3h-659v4zM502 95l-168 367l-169 -367h337z" />
    <glyph glyph-name="product" unicode="&#x220f;" horiz-adv-x="700" 
d="M83 680h534v-680h-118v578h-298v-578h-118v680z" />
    <glyph glyph-name="summation" unicode="&#x2211;" horiz-adv-x="551" 
d="M36 45l204 295l-204 295v45h486v-103h-314l167 -237l-167 -237h314v-103h-486v45z" />
    <glyph glyph-name="minus" unicode="&#x2212;" horiz-adv-x="514" 
d="M59 384h396v-90h-396v90z" />
    <glyph glyph-name="radical" unicode="&#x221a;" horiz-adv-x="612" 
d="M641 725l-317 -725h-54l-144 314h-115v97h176l108 -249l235 563h111z" />
    <glyph glyph-name="infinity" unicode="&#x221e;" horiz-adv-x="717" 
d="M126 214q-35 19 -56 54.5t-21 81.5t21 81.5t56 54.5t76 19q47 0 84.5 -23t72.5 -65q36 42 72.5 65t84.5 23q41 0 76 -19t56 -54.5t21 -81.5t-21 -81.5t-56 -54.5t-76 -19q-48 0 -84.5 23t-72.5 65q-35 -42 -72.5 -65t-84.5 -23q-41 0 -76 19zM259.5 301q22.5 16 50.5 49
q-28 33 -50.5 49t-48.5 16q-24 0 -44 -17t-20 -48t20 -48t44 -17q26 0 48.5 16zM550.5 302q19.5 17 19.5 48t-19.5 48t-43.5 17q-27 0 -49.5 -16t-50.5 -49q28 -33 50.5 -49t49.5 -16q24 0 43.5 17z" />
    <glyph glyph-name="integral" unicode="&#x222b;" horiz-adv-x="459" 
d="M51 -171q-31 11 -59 31l43 80q36 -25 69 -25q69 0 69 85v513q0 87 47 133t120 46q30 0 61 -11t58 -31l-42 -80q-37 25 -69 25q-69 0 -69 -85v-513q0 -87 -47 -133t-120 -46q-30 0 -61 11z" />
    <glyph glyph-name="approxequal" unicode="&#x2248;" horiz-adv-x="572" 
d="M56 395q17 54 50.5 84.5t84.5 30.5q25 0 47.5 -8.5t48.5 -24.5l22.5 -13.5t31.5 -15.5t26 -5q41 0 60 60l79 -39q-15 -55 -47.5 -87t-83.5 -32q-24 0 -45.5 8t-47.5 23q-5 3 -23 13.5t-33 16t-28 5.5q-26 0 -40 -14t-25 -42zM66 205q17 53 50.5 83.5t84.5 30.5
q25 0 47 -8.5t49 -23.5q7 -4 24 -14.5t30.5 -15.5t25.5 -5q41 0 60 61l79 -39q-15 -55 -47.5 -87t-83.5 -32q-24 0 -45.5 8t-47.5 23q-32 19 -48.5 26.5t-35.5 7.5q-26 0 -40 -13.5t-25 -42.5z" />
    <glyph glyph-name="notequal" unicode="&#x2260;" horiz-adv-x="517" 
d="M327 391l-59 -100h180v-91h-233l-63 -109l-57 36l42 73h-63v91h116l59 100h-175v91h228l63 109l59 -33l-44 -76h68v-91h-121z" />
    <glyph glyph-name="lessequal" unicode="&#x2264;" horiz-adv-x="429" 
d="M37 369v93l340 144v-105l-217 -85l217 -86v-105zM37 91v88h340v-88h-340z" />
    <glyph glyph-name="greaterequal" unicode="&#x2265;" horiz-adv-x="429" 
d="M52 330l217 86l-217 85v105l340 -144v-93l-340 -144v105zM52 179h340v-88h-340v88z" />
    <glyph glyph-name="lozenge" unicode="&#x25ca;" horiz-adv-x="555" 
d="M29 340l231 340h35l231 -340l-231 -340h-35zM402 340l-125 181l-124 -181l124 -184z" />
    <glyph glyph-name="i.loclTRK" horiz-adv-x="237" 
d="M71.5 562q-18.5 19 -18.5 46q0 28 18.5 47t46.5 19q30 0 48.5 -19t18.5 -48q0 -27 -19 -45.5t-48 -18.5q-28 0 -46.5 19zM64 446h109v-446h-109v446z" />
    <glyph glyph-name="germandbls.calt" horiz-adv-x="665" 
d="M578 354q50 -56 50 -137q0 -63 -28 -112.5t-77.5 -77t-113.5 -27.5h-123v99h100q58 0 92 32.5t34 85.5t-34.5 85t-91.5 32h-69v59l118 188h-114q-61 0 -93.5 -37.5t-32.5 -106.5v-437h-116v436q0 118 63.5 181t181.5 63h259v-41l-137 -220q82 -9 132 -65z" />
    <glyph glyph-name="a.ss01" horiz-adv-x="572" 
d="M508 446v-446h-81l-15 63q-29 -36 -70 -55t-91 -19q-62 0 -110.5 29t-75.5 82t-27 123q0 68 27.5 121.5t76.5 83t111 29.5q47 0 87.5 -19t69.5 -56l18 64h80zM367.5 121.5q35.5 37.5 35.5 101.5q0 63 -35.5 100.5t-93.5 37.5q-56 0 -91 -37.5t-35 -100.5q0 -64 35 -101.5
t91 -37.5q58 0 93.5 37.5z" />
    <glyph glyph-name="aacute.ss01" horiz-adv-x="572" 
d="M508 446v-446h-81l-15 63q-29 -36 -70 -55t-91 -19q-62 0 -110.5 29t-75.5 82t-27 123q0 68 27.5 121.5t76.5 83t111 29.5q47 0 87.5 -19t69.5 -56l18 64h80zM367.5 121.5q35.5 37.5 35.5 101.5q0 63 -35.5 100.5t-93.5 37.5q-56 0 -91 -37.5t-35 -100.5q0 -64 35 -101.5
t91 -37.5q58 0 93.5 37.5zM178 572l142 122l61 -71l-158 -102z" />
    <glyph glyph-name="abreve.ss01" horiz-adv-x="572" 
d="M508 446v-446h-81l-15 63q-29 -36 -70 -55t-91 -19q-62 0 -110.5 29t-75.5 82t-27 123q0 68 27.5 121.5t76.5 83t111 29.5q47 0 87.5 -19t69.5 -56l18 64h80zM367.5 121.5q35.5 37.5 35.5 101.5q0 63 -35.5 100.5t-93.5 37.5q-56 0 -91 -37.5t-35 -100.5q0 -64 35 -101.5
t91 -37.5q58 0 93.5 37.5zM189 547.5q-36 27.5 -50 81.5l62 27q7 -27 27 -42.5t45 -15.5t45 15.5t27 42.5l62 -27q-14 -54 -49.5 -81.5t-84.5 -27.5q-48 0 -84 27.5z" />
    <glyph glyph-name="acircumflex.ss01" horiz-adv-x="572" 
d="M508 446v-446h-81l-15 63q-29 -36 -70 -55t-91 -19q-62 0 -110.5 29t-75.5 82t-27 123q0 68 27.5 121.5t76.5 83t111 29.5q47 0 87.5 -19t69.5 -56l18 64h80zM367.5 121.5q35.5 37.5 35.5 101.5q0 63 -35.5 100.5t-93.5 37.5q-56 0 -91 -37.5t-35 -100.5q0 -64 35 -101.5
t91 -37.5q58 0 93.5 37.5zM138 563l127 106h17l125 -107l-39 -49l-95 67l-95 -67z" />
    <glyph glyph-name="adieresis.ss01" horiz-adv-x="572" 
d="M508 446v-446h-81l-15 63q-29 -36 -70 -55t-91 -19q-62 0 -110.5 29t-75.5 82t-27 123q0 68 27.5 121.5t76.5 83t111 29.5q47 0 87.5 -19t69.5 -56l18 64h80zM367.5 121.5q35.5 37.5 35.5 101.5q0 63 -35.5 100.5t-93.5 37.5q-56 0 -91 -37.5t-35 -100.5q0 -64 35 -101.5
t91 -37.5q58 0 93.5 37.5zM144.5 560q-16.5 17 -16.5 41t16 41.5t43 17.5q25 0 42 -17.5t17 -40.5q0 -24 -16.5 -41.5t-42.5 -17.5t-42.5 17zM316 560.5q-17 17.5 -17 40.5t17 41t43 18t42.5 -17.5t16.5 -41.5q0 -23 -17 -40.5t-42 -17.5q-26 0 -43 17.5z" />
    <glyph glyph-name="agrave.ss01" horiz-adv-x="572" 
d="M508 446v-446h-81l-15 63q-29 -36 -70 -55t-91 -19q-62 0 -110.5 29t-75.5 82t-27 123q0 68 27.5 121.5t76.5 83t111 29.5q47 0 87.5 -19t69.5 -56l18 64h80zM367.5 121.5q35.5 37.5 35.5 101.5q0 63 -35.5 100.5t-93.5 37.5q-56 0 -91 -37.5t-35 -100.5q0 -64 35 -101.5
t91 -37.5q58 0 93.5 37.5zM164 622l62 72l143 -122l-45 -51z" />
    <glyph glyph-name="amacron.ss01" horiz-adv-x="572" 
d="M508 446v-446h-81l-15 63q-29 -36 -70 -55t-91 -19q-62 0 -110.5 29t-75.5 82t-27 123q0 68 27.5 121.5t76.5 83t111 29.5q47 0 87.5 -19t69.5 -56l18 64h80zM367.5 121.5q35.5 37.5 35.5 101.5q0 63 -35.5 100.5t-93.5 37.5q-56 0 -91 -37.5t-35 -100.5q0 -64 35 -101.5
t91 -37.5q58 0 93.5 37.5zM139 626h268v-79h-268v79z" />
    <glyph glyph-name="aogonek.ss01" horiz-adv-x="580" 
d="M537 -191q-37 -26 -90 -26q-50 0 -76 25t-26 63q0 67 87 140l-12 52q-29 -36 -70 -55t-91 -19q-62 0 -110.5 29t-75.5 82t-27 123q0 68 27.5 121.5t76.5 83t111 29.5q47 0 87.5 -19t69.5 -56l18 64h80v-445l1 -1q-78 -62 -78 -109q0 -29 32 -29q22 0 42 14zM375.5 121.5
q35.5 37.5 35.5 101.5q0 63 -35.5 100.5t-93.5 37.5q-56 0 -91 -37.5t-35 -100.5q0 -64 35 -101.5t91 -37.5q58 0 93.5 37.5z" />
    <glyph glyph-name="atilde.ss01" horiz-adv-x="572" 
d="M508 446v-446h-81l-15 63q-29 -36 -70 -55t-91 -19q-62 0 -110.5 29t-75.5 82t-27 123q0 68 27.5 121.5t76.5 83t111 29.5q47 0 87.5 -19t69.5 -56l18 64h80zM367.5 121.5q35.5 37.5 35.5 101.5q0 63 -35.5 100.5t-93.5 37.5q-56 0 -91 -37.5t-35 -100.5q0 -64 35 -101.5
t91 -37.5q58 0 93.5 37.5zM130 574q16 40 37.5 60.5t50.5 20.5q30 0 59 -16q13 -7 24.5 -11.5t19.5 -4.5q19 0 33 31l61 -33q-31 -80 -87 -80q-27 0 -55 14q-32 17 -46 17q-23 0 -36 -32z" />
    <glyph glyph-name="ae.ss01" horiz-adv-x="840" 
d="M763 118l43 -70q-69 -58 -163 -58q-107 0 -156 73l-6 -63h-75l-6 58q-27 -32 -67 -50t-86 -18q-60 0 -107.5 29t-74.5 82t-27 121t27 121.5t75 83t109 29.5q45 0 83.5 -17t64.5 -49l9 56h73l10 -62q22 35 61.5 54.5t92.5 19.5q46 0 84.5 -18.5t61 -52.5t22.5 -81
q0 -134 -192 -134q-60 0 -111 7q11 -49 46.5 -75t86.5 -26q73 0 122 40zM546 339q-32 -31 -40 -85q49 -7 103 -7q49 0 76 13t27 47q0 29 -23.5 46t-61.5 17q-49 0 -81 -31zM362.5 123q31.5 38 31.5 99t-31 99.5t-93 38.5q-55 0 -88.5 -38t-33.5 -100q0 -63 33.5 -100
t88.5 -37q61 0 92.5 38z" />
    <glyph glyph-name="aeacute.ss01" horiz-adv-x="840" 
d="M763 118l43 -70q-69 -58 -163 -58q-107 0 -156 73l-6 -63h-75l-6 58q-27 -32 -67 -50t-86 -18q-60 0 -107.5 29t-74.5 82t-27 121t27 121.5t75 83t109 29.5q45 0 83.5 -17t64.5 -49l9 56h73l10 -62q22 35 61.5 54.5t92.5 19.5q46 0 84.5 -18.5t61 -52.5t22.5 -81
q0 -134 -192 -134q-60 0 -111 7q11 -49 46.5 -75t86.5 -26q73 0 122 40zM546 339q-32 -31 -40 -85q49 -7 103 -7q49 0 76 13t27 47q0 29 -23.5 46t-61.5 17q-49 0 -81 -31zM362.5 123q31.5 38 31.5 99t-31 99.5t-93 38.5q-55 0 -88.5 -38t-33.5 -100q0 -63 33.5 -100
t88.5 -37q61 0 92.5 38zM349 572l142 122l61 -71l-158 -102z" />
    <glyph glyph-name="e.ss01" horiz-adv-x="484" 
d="M353 86.5q28 10.5 55 32.5l42 -72q-74 -60 -176 -60q-71 0 -125 30t-83.5 84t-29.5 122q0 65 28 118.5t80.5 85t122.5 31.5q56 0 98 -20t65.5 -55t23.5 -80q0 -65 -50 -98t-139 -33q-61 0 -117 7q12 -49 49 -76t90 -27q38 0 66 10.5zM185.5 340q-32.5 -31 -40.5 -86
q46 -6 104 -6q54 0 80 13t26 44q0 29 -24 47.5t-62 18.5q-51 0 -83.5 -31z" />
    <glyph glyph-name="eacute.ss01" horiz-adv-x="484" 
d="M353 86.5q28 10.5 55 32.5l42 -72q-74 -60 -176 -60q-71 0 -125 30t-83.5 84t-29.5 122q0 65 28 118.5t80.5 85t122.5 31.5q56 0 98 -20t65.5 -55t23.5 -80q0 -65 -50 -98t-139 -33q-61 0 -117 7q12 -49 49 -76t90 -27q38 0 66 10.5zM185.5 340q-32.5 -31 -40.5 -86
q46 -6 104 -6q54 0 80 13t26 44q0 29 -24 47.5t-62 18.5q-51 0 -83.5 -31zM166 572l142 122l61 -71l-158 -102z" />
    <glyph glyph-name="ebreve.ss01" horiz-adv-x="484" 
d="M353 86.5q28 10.5 55 32.5l42 -72q-74 -60 -176 -60q-71 0 -125 30t-83.5 84t-29.5 122q0 65 28 118.5t80.5 85t122.5 31.5q56 0 98 -20t65.5 -55t23.5 -80q0 -65 -50 -98t-139 -33q-61 0 -117 7q12 -49 49 -76t90 -27q38 0 66 10.5zM185.5 340q-32.5 -31 -40.5 -86
q46 -6 104 -6q54 0 80 13t26 44q0 29 -24 47.5t-62 18.5q-51 0 -83.5 -31zM177 547.5q-36 27.5 -50 81.5l62 27q7 -27 27 -42.5t45 -15.5t45 15.5t27 42.5l62 -27q-14 -54 -49.5 -81.5t-84.5 -27.5q-48 0 -84 27.5z" />
    <glyph glyph-name="ecaron.ss01" horiz-adv-x="484" 
d="M353 86.5q28 10.5 55 32.5l42 -72q-74 -60 -176 -60q-71 0 -125 30t-83.5 84t-29.5 122q0 65 28 118.5t80.5 85t122.5 31.5q56 0 98 -20t65.5 -55t23.5 -80q0 -65 -50 -98t-139 -33q-61 0 -117 7q12 -49 49 -76t90 -27q38 0 66 10.5zM185.5 340q-32.5 -31 -40.5 -86
q46 -6 104 -6q54 0 80 13t26 44q0 29 -24 47.5t-62 18.5q-51 0 -83.5 -31zM127 626l38 48l95 -67l96 67l40 -49l-127 -107h-17z" />
    <glyph glyph-name="ecircumflex.ss01" horiz-adv-x="484" 
d="M353 86.5q28 10.5 55 32.5l42 -72q-74 -60 -176 -60q-71 0 -125 30t-83.5 84t-29.5 122q0 65 28 118.5t80.5 85t122.5 31.5q56 0 98 -20t65.5 -55t23.5 -80q0 -65 -50 -98t-139 -33q-61 0 -117 7q12 -49 49 -76t90 -27q38 0 66 10.5zM185.5 340q-32.5 -31 -40.5 -86
q46 -6 104 -6q54 0 80 13t26 44q0 29 -24 47.5t-62 18.5q-51 0 -83.5 -31zM126 563l127 106h17l125 -107l-39 -49l-95 67l-95 -67z" />
    <glyph glyph-name="edieresis.ss01" horiz-adv-x="484" 
d="M353 86.5q28 10.5 55 32.5l42 -72q-74 -60 -176 -60q-71 0 -125 30t-83.5 84t-29.5 122q0 65 28 118.5t80.5 85t122.5 31.5q56 0 98 -20t65.5 -55t23.5 -80q0 -65 -50 -98t-139 -33q-61 0 -117 7q12 -49 49 -76t90 -27q38 0 66 10.5zM185.5 340q-32.5 -31 -40.5 -86
q46 -6 104 -6q54 0 80 13t26 44q0 29 -24 47.5t-62 18.5q-51 0 -83.5 -31zM132.5 560q-16.5 17 -16.5 41t16 41.5t43 17.5q25 0 42 -17.5t17 -40.5q0 -24 -16.5 -41.5t-42.5 -17.5t-42.5 17zM304 560.5q-17 17.5 -17 40.5t17 41t43 18t42.5 -17.5t16.5 -41.5
q0 -23 -17 -40.5t-42 -17.5q-26 0 -43 17.5z" />
    <glyph glyph-name="edotaccent.ss01" horiz-adv-x="484" 
d="M353 86.5q28 10.5 55 32.5l42 -72q-74 -60 -176 -60q-71 0 -125 30t-83.5 84t-29.5 122q0 65 28 118.5t80.5 85t122.5 31.5q56 0 98 -20t65.5 -55t23.5 -80q0 -65 -50 -98t-139 -33q-61 0 -117 7q12 -49 49 -76t90 -27q38 0 66 10.5zM185.5 340q-32.5 -31 -40.5 -86
q46 -6 104 -6q54 0 80 13t26 44q0 29 -24 47.5t-62 18.5q-51 0 -83.5 -31zM215 554.5q-18 18.5 -18 44.5q0 28 18 46.5t46 18.5t46 -18.5t18 -46.5q0 -26 -18.5 -44.5t-45.5 -18.5q-28 0 -46 18.5z" />
    <glyph glyph-name="egrave.ss01" horiz-adv-x="484" 
d="M353 86.5q28 10.5 55 32.5l42 -72q-74 -60 -176 -60q-71 0 -125 30t-83.5 84t-29.5 122q0 65 28 118.5t80.5 85t122.5 31.5q56 0 98 -20t65.5 -55t23.5 -80q0 -65 -50 -98t-139 -33q-61 0 -117 7q12 -49 49 -76t90 -27q38 0 66 10.5zM185.5 340q-32.5 -31 -40.5 -86
q46 -6 104 -6q54 0 80 13t26 44q0 29 -24 47.5t-62 18.5q-51 0 -83.5 -31zM152 622l62 72l143 -122l-45 -51z" />
    <glyph glyph-name="emacron.ss01" horiz-adv-x="484" 
d="M353 86.5q28 10.5 55 32.5l42 -72q-74 -60 -176 -60q-71 0 -125 30t-83.5 84t-29.5 122q0 65 28 118.5t80.5 85t122.5 31.5q56 0 98 -20t65.5 -55t23.5 -80q0 -65 -50 -98t-139 -33q-61 0 -117 7q12 -49 49 -76t90 -27q38 0 66 10.5zM185.5 340q-32.5 -31 -40.5 -86
q46 -6 104 -6q54 0 80 13t26 44q0 29 -24 47.5t-62 18.5q-51 0 -83.5 -31zM127 626h268v-79h-268v79z" />
    <glyph glyph-name="eogonek.ss01" horiz-adv-x="484" 
d="M368 -46q-24 -37 -24 -64q0 -30 33 -30q18 0 41 14l24 -66q-38 -27 -90 -27q-50 0 -76.5 24.5t-26.5 63.5q0 56 62 121q-24 -2 -36 -2q-71 0 -125 30t-83.5 83.5t-29.5 121.5q0 64 28 118t80.5 85.5t122.5 31.5q55 0 97.5 -20t66 -55t23.5 -79q0 -65 -50 -98.5
t-140 -33.5q-60 0 -116 7q12 -49 49.5 -75.5t91.5 -26.5q37 0 65.5 10t54.5 30l45 -69q-63 -57 -87 -94zM186.5 339q-32.5 -31 -40.5 -85q46 -6 104 -6q54 0 80 13t26 45q0 28 -24.5 46t-63.5 18q-49 0 -81.5 -31z" />
    <glyph glyph-name="g.ss01" horiz-adv-x="472" 
d="M424 18q38 -30 38 -86q0 -45 -28 -82.5t-78.5 -59.5t-115.5 -22q-71 0 -118.5 20.5t-70 55t-22.5 74.5q0 30 12.5 57.5t34.5 46.5q-29 29 -29 70q0 50 41 84q-42 45 -42 111q0 47 22.5 86t67 62t105.5 23q36 0 108 -6q63 -7 108 -7v-67l-66 -5q42 -40 42 -96
q0 -44 -22.5 -80.5t-66 -58t-103.5 -21.5q-45 0 -80 12q-8 -9 -8 -25q0 -19 15.5 -31.5t47.5 -13.5l103 -7q67 -4 105 -34zM178.5 348.5q-22.5 -24.5 -22.5 -62.5t22.5 -62.5t62.5 -24.5q41 0 63 24.5t22 62.5t-22 62.5t-63 24.5q-40 0 -62.5 -24.5zM321.5 -130
q33.5 20 33.5 50q0 21 -16 32.5t-44 13.5l-80 5q-22 1 -53 7q-23 -20 -23 -57q0 -30 26.5 -50.5t79.5 -20.5q43 0 76.5 20z" />
    <glyph glyph-name="gbreve.ss01" horiz-adv-x="472" 
d="M424 18q38 -30 38 -86q0 -45 -28 -82.5t-78.5 -59.5t-115.5 -22q-71 0 -118.5 20.5t-70 55t-22.5 74.5q0 30 12.5 57.5t34.5 46.5q-29 29 -29 70q0 50 41 84q-42 45 -42 111q0 47 22.5 86t67 62t105.5 23q36 0 108 -6q63 -7 108 -7v-67l-66 -5q42 -40 42 -96
q0 -44 -22.5 -80.5t-66 -58t-103.5 -21.5q-45 0 -80 12q-8 -9 -8 -25q0 -19 15.5 -31.5t47.5 -13.5l103 -7q67 -4 105 -34zM178.5 348.5q-22.5 -24.5 -22.5 -62.5t22.5 -62.5t62.5 -24.5q41 0 63 24.5t22 62.5t-22 62.5t-63 24.5q-40 0 -62.5 -24.5zM321.5 -130
q33.5 20 33.5 50q0 21 -16 32.5t-44 13.5l-80 5q-22 1 -53 7q-23 -20 -23 -57q0 -30 26.5 -50.5t79.5 -20.5q43 0 76.5 20zM158 547.5q-36 27.5 -50 81.5l62 27q7 -27 27 -42.5t45 -15.5t45 15.5t27 42.5l62 -27q-14 -54 -49.5 -81.5t-84.5 -27.5q-48 0 -84 27.5z" />
    <glyph glyph-name="gcircumflex.ss01" horiz-adv-x="472" 
d="M424 18q38 -30 38 -86q0 -45 -28 -82.5t-78.5 -59.5t-115.5 -22q-71 0 -118.5 20.5t-70 55t-22.5 74.5q0 30 12.5 57.5t34.5 46.5q-29 29 -29 70q0 50 41 84q-42 45 -42 111q0 47 22.5 86t67 62t105.5 23q36 0 108 -6q63 -7 108 -7v-67l-66 -5q42 -40 42 -96
q0 -44 -22.5 -80.5t-66 -58t-103.5 -21.5q-45 0 -80 12q-8 -9 -8 -25q0 -19 15.5 -31.5t47.5 -13.5l103 -7q67 -4 105 -34zM178.5 348.5q-22.5 -24.5 -22.5 -62.5t22.5 -62.5t62.5 -24.5q41 0 63 24.5t22 62.5t-22 62.5t-63 24.5q-40 0 -62.5 -24.5zM321.5 -130
q33.5 20 33.5 50q0 21 -16 32.5t-44 13.5l-80 5q-22 1 -53 7q-23 -20 -23 -57q0 -30 26.5 -50.5t79.5 -20.5q43 0 76.5 20zM106 563l127 106h17l125 -107l-39 -49l-95 67l-95 -67z" />
    <glyph glyph-name="uni0123.ss01" horiz-adv-x="472" 
d="M424 18q38 -30 38 -86q0 -45 -28 -82.5t-78.5 -59.5t-115.5 -22q-71 0 -118.5 20.5t-70 55t-22.5 74.5q0 30 12.5 57.5t34.5 46.5q-29 29 -29 70q0 50 41 84q-42 45 -42 111q0 47 22.5 86t67 62t105.5 23q36 0 108 -6q63 -7 108 -7v-67l-66 -5q42 -40 42 -96
q0 -44 -22.5 -80.5t-66 -58t-103.5 -21.5q-45 0 -80 12q-8 -9 -8 -25q0 -19 15.5 -31.5t47.5 -13.5l103 -7q67 -4 105 -34zM178.5 348.5q-22.5 -24.5 -22.5 -62.5t22.5 -62.5t62.5 -24.5q41 0 63 24.5t22 62.5t-22 62.5t-63 24.5q-40 0 -62.5 -24.5zM321.5 -130
q33.5 20 33.5 50q0 21 -16 32.5t-44 13.5l-80 5q-22 1 -53 7q-23 -20 -23 -57q0 -30 26.5 -50.5t79.5 -20.5q43 0 76.5 20zM245 718h71q-26 -86 -26 -188h-101q9 111 56 188z" />
    <glyph glyph-name="gdotaccent.ss01" horiz-adv-x="472" 
d="M424 18q38 -30 38 -86q0 -45 -28 -82.5t-78.5 -59.5t-115.5 -22q-71 0 -118.5 20.5t-70 55t-22.5 74.5q0 30 12.5 57.5t34.5 46.5q-29 29 -29 70q0 50 41 84q-42 45 -42 111q0 47 22.5 86t67 62t105.5 23q36 0 108 -6q63 -7 108 -7v-67l-66 -5q42 -40 42 -96
q0 -44 -22.5 -80.5t-66 -58t-103.5 -21.5q-45 0 -80 12q-8 -9 -8 -25q0 -19 15.5 -31.5t47.5 -13.5l103 -7q67 -4 105 -34zM178.5 348.5q-22.5 -24.5 -22.5 -62.5t22.5 -62.5t62.5 -24.5q41 0 63 24.5t22 62.5t-22 62.5t-63 24.5q-40 0 -62.5 -24.5zM321.5 -130
q33.5 20 33.5 50q0 21 -16 32.5t-44 13.5l-80 5q-22 1 -53 7q-23 -20 -23 -57q0 -30 26.5 -50.5t79.5 -20.5q43 0 76.5 20zM196 554.5q-18 18.5 -18 44.5q0 28 18 46.5t46 18.5t46 -18.5t18 -46.5q0 -26 -18.5 -44.5t-45.5 -18.5q-28 0 -46 18.5z" />
    <glyph glyph-name="y.ss01" horiz-adv-x="523" 
d="M459 446v-469q0 -102 -61 -155.5t-155 -53.5q-112 0 -182 65l42 82q52 -49 132 -49q50 0 82 29t32 82v78q-20 -30 -53.5 -47t-79.5 -17q-75 0 -116 47.5t-41 128.5v279h109v-274q0 -38 19.5 -60.5t58.5 -22.5q49 0 76.5 36t27.5 94v227h109z" />
    <glyph glyph-name="yacute.ss01" horiz-adv-x="523" 
d="M459 446v-469q0 -102 -61 -155.5t-155 -53.5q-112 0 -182 65l42 82q52 -49 132 -49q50 0 82 29t32 82v78q-20 -30 -53.5 -47t-79.5 -17q-75 0 -116 47.5t-41 128.5v279h109v-274q0 -38 19.5 -60.5t58.5 -22.5q49 0 76.5 36t27.5 94v227h109zM163 572l142 122l61 -71
l-158 -102z" />
    <glyph glyph-name="ycircumflex.ss01" horiz-adv-x="523" 
d="M459 446v-469q0 -102 -61 -155.5t-155 -53.5q-112 0 -182 65l42 82q52 -49 132 -49q50 0 82 29t32 82v78q-20 -30 -53.5 -47t-79.5 -17q-75 0 -116 47.5t-41 128.5v279h109v-274q0 -38 19.5 -60.5t58.5 -22.5q49 0 76.5 36t27.5 94v227h109zM123 563l127 106h17l125 -107
l-39 -49l-95 67l-95 -67z" />
    <glyph glyph-name="ydieresis.ss01" horiz-adv-x="523" 
d="M459 446v-469q0 -102 -61 -155.5t-155 -53.5q-112 0 -182 65l42 82q52 -49 132 -49q50 0 82 29t32 82v78q-20 -30 -53.5 -47t-79.5 -17q-75 0 -116 47.5t-41 128.5v279h109v-274q0 -38 19.5 -60.5t58.5 -22.5q49 0 76.5 36t27.5 94v227h109zM129.5 560q-16.5 17 -16.5 41
t16 41.5t43 17.5q25 0 42 -17.5t17 -40.5q0 -24 -16.5 -41.5t-42.5 -17.5t-42.5 17zM301 560.5q-17 17.5 -17 40.5t17 41t43 18t42.5 -17.5t16.5 -41.5q0 -23 -17 -40.5t-42 -17.5q-26 0 -43 17.5z" />
    <glyph glyph-name="ygrave.ss01" horiz-adv-x="523" 
d="M459 446v-469q0 -102 -61 -155.5t-155 -53.5q-112 0 -182 65l42 82q52 -49 132 -49q50 0 82 29t32 82v78q-20 -30 -53.5 -47t-79.5 -17q-75 0 -116 47.5t-41 128.5v279h109v-274q0 -38 19.5 -60.5t58.5 -22.5q49 0 76.5 36t27.5 94v227h109zM149 622l62 72l143 -122
l-45 -51z" />
    <glyph glyph-name="f_b" horiz-adv-x="918" 
d="M777 427.5q49 -29.5 76.5 -82.5t27.5 -119q0 -70 -27 -123.5t-76 -83.5t-112 -30q-52 0 -92.5 20.5t-68.5 57.5l-19 -67h-75v600q-26 19 -52 27.5t-60 8.5q-44 0 -68.5 -24t-24.5 -73v-93h122v-93h-121v-353h-109v353h-83v93h83v103q0 86 47.5 135.5t132.5 49.5
q43 0 78.5 -12t67.5 -37l9 35h87v-199q0 -66 -3 -128q26 30 65 47t84 17q62 0 111 -29.5zM736 122.5q35 38.5 35 100.5t-35 100t-92 38q-58 0 -93.5 -38t-35.5 -100t35.5 -100.5t93.5 -38.5q57 0 92 38.5z" />
    <glyph glyph-name="f_f_b" horiz-adv-x="1271" 
d="M1130 427.5q49 -29.5 76.5 -82.5t27.5 -119q0 -70 -27 -123.5t-76 -83.5t-112 -30q-52 0 -93.5 20.5t-68.5 57.5l-17 -67h-76v597q-31 20 -58.5 29.5t-63.5 9.5q-44 0 -68.5 -24t-24.5 -73v-93h119v-93h-118v-353h-109v353h-235v-353h-109v353h-82v93h82v118
q0 77 42 123.5t117 46.5q33 0 59.5 -6t56.5 -20l-31 -84q-28 12 -63 12q-33 0 -52.5 -20.5t-19.5 -57.5v-112h235v103q0 86 47.5 135.5t132.5 49.5q46 0 83.5 -13t72.5 -39l9 38h87v-199q0 -69 -3 -129q27 30 66 47.5t83 17.5q62 0 111 -29.5zM1089 122.5q35 38.5 35 100.5
t-35 100t-92 38q-58 0 -93 -38t-35 -100q0 -63 35 -101t93 -38q57 0 92 38.5z" />
    <glyph glyph-name="f_f_h" horiz-adv-x="1225" 
d="M1124 410q43 -48 43 -127v-283h-109v276q0 38 -21 61t-60 23q-49 0 -76.5 -37t-27.5 -93v-230h-109v594q-31 22 -58.5 32t-63.5 10q-44 0 -68.5 -24t-24.5 -73v-93h119v-93h-118v-353h-109v353h-235v-353h-109v353h-82v93h82v118q0 77 42 123.5t117 46.5q32 0 59 -6
t57 -20l-31 -84q-29 12 -63 12q-33 0 -52.5 -20.5t-19.5 -57.5v-112h235v103q0 86 47.5 135.5t133.5 49.5q46 0 83.5 -14t71.5 -43l11 43h85v-266q0 -40 -2 -66q22 33 56 51.5t78 18.5q76 0 119 -48z" />
    <glyph glyph-name="f_f_j" horiz-adv-x="937" 
d="M873 -10q0 -110 -47 -163t-162 -59l-14 93q46 3 70.5 18.5t34 42.5t9.5 73v358h-214v-353h-109v353h-235v-353h-109v353h-82v93h82v118q0 77 42 123.5t117 46.5q32 0 58.5 -6t57.5 -20l-31 -84q-27 12 -63 12q-33 0 -52.5 -20.5t-19.5 -57.5v-112h235v96q0 93 50 142.5
t142 49.5q55 0 100.5 -17t89.5 -53l-42 -73q-33 23 -61.5 34t-65.5 11q-49 0 -77 -24t-28 -76v-90h324v-456z" />
    <glyph glyph-name="f_f_k" horiz-adv-x="1165" 
d="M1159 6v-6h-126l-160 190v-190h-109v597q-28 20 -57 29.5t-65 9.5q-44 0 -68.5 -24t-24.5 -73v-93h118v-93h-117v-353h-109v353h-235v-353h-109v353h-82v93h82v118q0 77 42 123.5t117 46.5q32 0 59 -6t57 -20l-31 -84q-27 12 -63 12q-33 0 -52.5 -20.5t-19.5 -57.5v-112
h235v103q0 86 47.5 135.5t133.5 49.5q88 0 155 -52l9 38h87v-451l148 177h123v-5l-177 -211z" />
    <glyph glyph-name="f_h" horiz-adv-x="872" 
d="M771 410q43 -48 43 -127v-283h-110v276q0 38 -20.5 61t-59.5 23q-49 0 -76.5 -37t-27.5 -93v-230h-109v600q-26 19 -52 27.5t-60 8.5q-44 0 -68.5 -24t-24.5 -73v-93h122v-93h-122v-353h-109v353h-82v93h82v103q0 86 47.5 135.5t132.5 49.5t147 -49l8 35h88v-263
q0 -42 -1 -69q21 33 54.5 51.5t78.5 18.5q76 0 119 -48z" />
    <glyph glyph-name="f_j" horiz-adv-x="591" 
d="M527 -10q0 -110 -47 -163t-162 -59l-14 93q46 3 70.5 18.5t34 42.5t9.5 73v358h-212v-353h-109v353h-82v93h82v96q0 93 50 142.5t143 49.5q60 0 109 -17t96 -53l-42 -75q-34 24 -67 35.5t-75 11.5q-49 0 -77 -24.5t-28 -76.5v-89h321v-456z" />
    <glyph glyph-name="f_k" horiz-adv-x="811" 
d="M805 6v-6h-126l-160 190v-190h-109v600q-27 19 -52.5 27.5t-58.5 8.5q-44 0 -68.5 -24t-24.5 -73v-93h122v-93h-122v-353h-109v353h-82v93h82v103q0 86 47.5 135.5t132.5 49.5q43 0 78.5 -12t68.5 -37l8 35h87v-451l148 177h123v-5l-177 -211z" />
    <glyph glyph-name="uni0414.loclBGR" horiz-adv-x="747" 
d="M737 106v-258h-111v152h-505v-152h-111v258h76l263 575h49l263 -575h76zM207 101h331l-143 328q-13 30 -22 62q-7 -30 -21 -62z" />
    <glyph glyph-name="uni041B.loclBGR" horiz-adv-x="689" 
d="M684 3v-3h-126l-182 398q-21 48 -31 89q-11 -41 -32 -88l-182 -399h-126v2l322 682h36z" />
    <glyph glyph-name="uni0424.loclBGR" horiz-adv-x="889" 
d="M802 167.5q-41 -78.5 -118 -125.5t-182 -52v-103h-115v104q-101 4 -178.5 50t-120 123.5t-42.5 175.5q0 97 41 175t118 124.5t182 51.5v104h115v-104q100 -4 177.5 -50t120.5 -123.5t43 -174.5t-41 -175.5zM663 169.5q59 68.5 59 173.5q0 66 -27 120.5t-78 87.5t-118 36
v-492q105 6 164 74.5zM194 219.5q27 -54.5 78 -88t118 -36.5v491q-69 -4 -119.5 -36.5t-77 -87t-26.5 -122.5q0 -66 27 -120.5z" />
    <glyph glyph-name="uni0414.ss02" horiz-adv-x="747" 
d="M737 106v-258h-111v152h-505v-152h-111v258h76l263 575h49l263 -575h76zM207 101h331l-143 328q-13 30 -22 62q-7 -30 -21 -62z" />
    <glyph glyph-name="uni041B.ss02" horiz-adv-x="689" 
d="M684 3v-3h-126l-182 398q-21 48 -31 89q-11 -41 -32 -88l-182 -399h-126v2l322 682h36z" />
    <glyph glyph-name="uni0424.ss02" horiz-adv-x="889" 
d="M802 167.5q-41 -78.5 -118 -125.5t-182 -52v-103h-115v104q-101 4 -178.5 50t-120 123.5t-42.5 175.5q0 97 41 175t118 124.5t182 51.5v104h115v-104q100 -4 177.5 -50t120.5 -123.5t43 -174.5t-41 -175.5zM663 169.5q59 68.5 59 173.5q0 66 -27 120.5t-78 87.5t-118 36
v-492q105 6 164 74.5zM194 219.5q27 -54.5 78 -88t118 -36.5v491q-69 -4 -119.5 -36.5t-77 -87t-26.5 -122.5q0 -66 27 -120.5z" />
    <glyph glyph-name="uni0414.ss03" horiz-adv-x="747" 
d="M737 106v-258h-111v152h-505v-152h-111v258h76l263 575h49l263 -575h76zM207 101h331l-143 328q-13 30 -22 62q-7 -30 -21 -62z" />
    <glyph glyph-name="uni041B.ss03" horiz-adv-x="689" 
d="M684 3v-3h-126l-182 398q-21 48 -31 89q-11 -41 -32 -88l-182 -399h-126v2l322 682h36z" />
    <glyph glyph-name="uni0424.ss03" horiz-adv-x="889" 
d="M802 167.5q-41 -78.5 -118 -125.5t-182 -52v-103h-115v104q-101 4 -178.5 50t-120 123.5t-42.5 175.5q0 97 41 175t118 124.5t182 51.5v104h115v-104q100 -4 177.5 -50t120.5 -123.5t43 -174.5t-41 -175.5zM663 169.5q59 68.5 59 173.5q0 66 -27 120.5t-78 87.5t-118 36
v-492q105 6 164 74.5zM194 219.5q27 -54.5 78 -88t118 -36.5v491q-69 -4 -119.5 -36.5t-77 -87t-26.5 -122.5q0 -66 27 -120.5z" />
    <glyph glyph-name="uni0432.loclBGR" horiz-adv-x="553" 
d="M481.5 319.5q35.5 -48.5 35.5 -115.5q0 -64 -29 -113t-82.5 -76t-124.5 -27q-104 0 -165 71t-61 211v130q0 156 66.5 233t180.5 77q82 0 131 -44t49 -116q0 -103 -97 -165q61 -17 96.5 -65.5zM202 563.5q-34 -49.5 -34 -140.5v-44l79 24q125 39 125 134q0 36 -20 56
t-57 20q-59 0 -93 -49.5zM371 119q32 33 32 89q0 49 -27.5 80.5t-73.5 31.5q-32 0 -64 -10l-70 -22v-36q0 -84 30.5 -125t86.5 -41q54 0 86 33z" />
    <glyph glyph-name="uni0433.loclBGR" horiz-adv-x="398" 
d="M75.5 20q-45.5 32 -45.5 96q0 53 34.5 89t102.5 59q45 16 63 29.5t18 32.5q0 20 -16.5 30.5t-40.5 10.5q-50 0 -108 -32l-35 76q73 43 156 43q66 0 108 -33t42 -92q0 -52 -30 -83.5t-103 -57.5q-39 -13 -58 -28t-19 -38t18 -34t47 -11q60 0 119 39l40 -79
q-80 -49 -173 -49q-74 0 -119.5 32z" />
    <glyph glyph-name="uni0434.loclBGR" horiz-adv-x="572" 
d="M508 446v-464q0 -104 -64 -159t-170 -55q-119 0 -202 68l42 82q65 -52 151 -52q62 0 97.5 29t35.5 85q0 47 2 72q-28 -30 -66.5 -45t-81.5 -15q-63 0 -111.5 29.5t-75.5 82.5t-27 120t27 120t75 83t110 30q51 0 93.5 -19t70.5 -57l22 65h72zM369 124.5q34 38.5 34 99.5
t-33.5 99.5t-94.5 38.5q-58 0 -92 -38t-34 -100q0 -61 34 -99.5t91 -38.5q61 0 95 38.5z" />
    <glyph glyph-name="uni0436.loclBGR" horiz-adv-x="658" 
d="M652 5v-5h-122l-147 198v-198h-108v198l-148 -198h-121v5l172 225l-156 213v3h122l131 -187l-1 440h109v-440l130 187h122v-3l-157 -212z" />
    <glyph glyph-name="uni0437.loclBGR" horiz-adv-x="412" 
d="M72 -219q-46 13 -84 39l38 85q31 -21 62.5 -30.5t69.5 -9.5q62 0 96 29t34 80q0 50 -32.5 78.5t-90.5 28.5h-69v90h63q46 0 74 27t28 70q0 42 -26.5 65t-74.5 23q-29 0 -54 -6.5t-56 -22.5l-34 83q80 44 159 44q89 0 141 -46.5t52 -126.5q0 -48 -21.5 -86.5t-60.5 -62.5
q51 -17 82 -62.5t31 -104.5q0 -91 -62 -144t-170 -53q-49 0 -95 13z" />
    <glyph glyph-name="uni0438.loclBGR" horiz-adv-x="523" 
d="M459 446v-446h-76l-22 68q-23 -36 -59.5 -56.5t-82.5 -20.5q-79 0 -120 47.5t-41 131.5v276h110v-266q0 -91 78 -91q49 0 76.5 36t27.5 90v231h109z" />
    <glyph glyph-name="uni0439.loclBGR" horiz-adv-x="523" 
d="M459 446v-446h-76l-22 68q-23 -36 -59.5 -56.5t-82.5 -20.5q-79 0 -120 47.5t-41 131.5v276h110v-266q0 -91 78 -91q49 0 76.5 36t27.5 90v231h109zM174 546.5q-38 22.5 -60 63.5l59 44q15 -25 38.5 -38.5t48.5 -13.5t48 13.5t38 38.5l60 -43q-22 -42 -60 -64.5
t-86 -22.5t-86 22.5z" />
    <glyph glyph-name="uni045D.loclBGR" horiz-adv-x="526" 
d="M459 446v-446h-76l-22 68q-23 -36 -59.5 -56.5t-82.5 -20.5q-79 0 -120 47.5t-41 131.5v276h110v-266q0 -91 78 -91q49 0 76.5 36t27.5 90v231h109zM141 630l62 72l143 -122l-45 -51z" />
    <glyph glyph-name="uni043A.loclBGR" horiz-adv-x="465" 
d="M459 4v-4h-125l-161 190v-190h-109v699h109v-430l148 177h123v-4l-177 -212z" />
    <glyph glyph-name="uni043B.loclBGR" horiz-adv-x="480" 
d="M473 2v-2h-120l-86 200q-3 9 -11.5 33t-15.5 49q-8 -32 -27 -82l-85 -200h-120v2l207 447h50z" />
    <glyph glyph-name="uni043F.loclBGR" horiz-adv-x="526" 
d="M426.5 411.5q40.5 -46.5 40.5 -132.5v-279h-109v269q0 91 -76 91q-50 0 -79.5 -32t-29.5 -83v-245h-109v446h74l22 -70q24 37 61.5 59.5t88.5 22.5q76 0 116.5 -46.5z" />
    <glyph glyph-name="uni0442.loclBGR" horiz-adv-x="792" 
d="M694 412.5q40 -45.5 40 -125.5v-287h-109v275q0 40 -19.5 62.5t-52.5 22.5q-49 0 -74.5 -36t-25.5 -85v-239h-108v276q0 36 -19 60t-54 24q-48 0 -73.5 -36t-25.5 -85v-239h-109v446h74l22 -71q23 40 59 61.5t83 21.5t81.5 -21t52.5 -58q22 37 59 58t86 21
q73 0 113 -45.5z" />
    <glyph glyph-name="uni0446.loclBGR" horiz-adv-x="543" 
d="M523 94v-208h-99v121q-48 16 -60 63q-49 -79 -147 -79q-76 0 -117.5 47.5t-41.5 127.5v280h110v-272q0 -39 19 -62t58 -23q51 0 78 36.5t27 90.5v230h110v-310q0 -22 11 -32t37 -10h15z" />
    <glyph glyph-name="uni0448.loclBGR" horiz-adv-x="790" 
d="M726 446v-446h-75l-23 71q-22 -36 -58.5 -57.5t-81.5 -21.5q-47 0 -81 21t-52 58q-23 -37 -58.5 -58t-83.5 -21q-73 0 -114 45.5t-41 124.5v284h110v-274q0 -39 19 -60.5t53 -21.5q47 0 72.5 37t25.5 87v232h109v-275q0 -35 19 -58t53 -23q47 0 72.5 37t25.5 87v232h109z
" />
    <glyph glyph-name="uni0449.loclBGR" horiz-adv-x="810" 
d="M790 94v-208h-99v122q-46 15 -60 62q-24 -36 -59.5 -57t-80.5 -21q-48 0 -82.5 20.5t-53.5 58.5q-22 -37 -57.5 -58t-84.5 -21q-74 0 -114.5 46t-40.5 123v285h110v-275q0 -37 18.5 -59t52.5 -22q48 0 73.5 37t25.5 87v232h109v-275q0 -35 18.5 -58t52.5 -23
q48 0 73.5 37t25.5 87v232h109v-309q0 -23 12 -33t38 -10h14z" />
    <glyph glyph-name="uni044C.loclBGR" horiz-adv-x="477" 
d="M404 290q47 -46 47 -124q0 -82 -53 -129.5t-143 -47.5q-92 0 -144.5 48t-52.5 133v276h109v-144q46 34 111 34q79 0 126 -46zM319.5 101q23.5 23 23.5 63q0 39 -23.5 61t-63.5 22q-43 0 -67.5 -22t-24.5 -60q0 -42 24 -64.5t68 -22.5q40 0 63.5 23z" />
    <glyph glyph-name="uni044A.loclBGR" horiz-adv-x="539" 
d="M465.5 291q47.5 -46 47.5 -126q0 -82 -53 -129t-143 -47q-91 0 -144 48.5t-53 131.5v183h-111v94h220v-144q44 35 111 35q78 0 125.5 -46zM381 101q24 23 24 64q0 39 -24 61t-62 22q-41 0 -66 -21t-25 -62q0 -42 24.5 -64.5t66.5 -22.5q38 0 62 23z" />
    <glyph glyph-name="uni044B.loclBGR" horiz-adv-x="703" 
d="M404 290q47 -46 47 -124q0 -82 -53 -129.5t-143 -47.5q-92 0 -144.5 48t-52.5 133v276h109v-144q46 34 111 34q79 0 126 -46zM319.5 101q23.5 23 23.5 63q0 39 -23.5 61t-63.5 22q-43 0 -67.5 -22t-24.5 -60q0 -42 24 -64.5t68 -22.5q40 0 63.5 23zM530 446h109v-446
h-109v446z" />
    <glyph glyph-name="uni0430.ss01" horiz-adv-x="572" 
d="M508 446v-446h-81l-15 63q-29 -36 -70 -55t-91 -19q-62 0 -110.5 29t-75.5 82t-27 123q0 68 27.5 121.5t76.5 83t111 29.5q47 0 87.5 -19t69.5 -56l18 64h80zM367.5 121.5q35.5 37.5 35.5 101.5q0 63 -35.5 100.5t-93.5 37.5q-56 0 -91 -37.5t-35 -100.5q0 -64 35 -101.5
t91 -37.5q58 0 93.5 37.5z" />
    <glyph glyph-name="uni0435.ss01" horiz-adv-x="484" 
d="M353 86.5q28 10.5 55 32.5l42 -72q-74 -60 -176 -60q-71 0 -125 30t-83.5 84t-29.5 122q0 65 28 118.5t80.5 85t122.5 31.5q56 0 98 -20t65.5 -55t23.5 -80q0 -65 -50 -98t-139 -33q-61 0 -117 7q12 -49 49 -76t90 -27q38 0 66 10.5zM185.5 340q-32.5 -31 -40.5 -86
q46 -6 104 -6q54 0 80 13t26 44q0 29 -24 47.5t-62 18.5q-51 0 -83.5 -31z" />
    <glyph glyph-name="uni0443.ss01" horiz-adv-x="523" 
d="M459 446v-469q0 -102 -61 -155.5t-155 -53.5q-112 0 -182 65l42 82q52 -49 132 -49q50 0 82 29t32 82v78q-20 -30 -53.5 -47t-79.5 -17q-75 0 -116 47.5t-41 128.5v279h109v-274q0 -38 19.5 -60.5t58.5 -22.5q49 0 76.5 36t27.5 94v227h109z" />
    <glyph glyph-name="uni0432.ss02" horiz-adv-x="553" 
d="M481.5 319.5q35.5 -48.5 35.5 -115.5q0 -64 -29 -113t-82.5 -76t-124.5 -27q-104 0 -165 71t-61 211v130q0 156 66.5 233t180.5 77q82 0 131 -44t49 -116q0 -103 -97 -165q61 -17 96.5 -65.5zM202 563.5q-34 -49.5 -34 -140.5v-44l79 24q125 39 125 134q0 36 -20 56
t-57 20q-59 0 -93 -49.5zM371 119q32 33 32 89q0 49 -27.5 80.5t-73.5 31.5q-32 0 -64 -10l-70 -22v-36q0 -84 30.5 -125t86.5 -41q54 0 86 33z" />
    <glyph glyph-name="uni0433.ss02" horiz-adv-x="398" 
d="M75.5 20q-45.5 32 -45.5 96q0 53 34.5 89t102.5 59q45 16 63 29.5t18 32.5q0 20 -16.5 30.5t-40.5 10.5q-50 0 -108 -32l-35 76q73 43 156 43q66 0 108 -33t42 -92q0 -52 -30 -83.5t-103 -57.5q-39 -13 -58 -28t-19 -38t18 -34t47 -11q60 0 119 39l40 -79
q-80 -49 -173 -49q-74 0 -119.5 32z" />
    <glyph glyph-name="uni0434.ss02" horiz-adv-x="572" 
d="M508 446v-464q0 -104 -64 -159t-170 -55q-119 0 -202 68l42 82q65 -52 151 -52q62 0 97.5 29t35.5 85q0 47 2 72q-28 -30 -66.5 -45t-81.5 -15q-63 0 -111.5 29.5t-75.5 82.5t-27 120t27 120t75 83t110 30q51 0 93.5 -19t70.5 -57l22 65h72zM369 124.5q34 38.5 34 99.5
t-33.5 99.5t-94.5 38.5q-58 0 -92 -38t-34 -100q0 -61 34 -99.5t91 -38.5q61 0 95 38.5z" />
    <glyph glyph-name="uni0436.ss02" horiz-adv-x="658" 
d="M652 5v-5h-122l-147 198v-198h-108v198l-148 -198h-121v5l172 225l-156 213v3h122l131 -187l-1 440h109v-440l130 187h122v-3l-157 -212z" />
    <glyph glyph-name="uni0437.ss02" horiz-adv-x="412" 
d="M72 -219q-46 13 -84 39l38 85q31 -21 62.5 -30.5t69.5 -9.5q62 0 96 29t34 80q0 50 -32.5 78.5t-90.5 28.5h-69v90h63q46 0 74 27t28 70q0 42 -26.5 65t-74.5 23q-29 0 -54 -6.5t-56 -22.5l-34 83q80 44 159 44q89 0 141 -46.5t52 -126.5q0 -48 -21.5 -86.5t-60.5 -62.5
q51 -17 82 -62.5t31 -104.5q0 -91 -62 -144t-170 -53q-49 0 -95 13z" />
    <glyph glyph-name="uni0438.ss02" horiz-adv-x="523" 
d="M459 446v-446h-76l-22 68q-23 -36 -59.5 -56.5t-82.5 -20.5q-79 0 -120 47.5t-41 131.5v276h110v-266q0 -91 78 -91q49 0 76.5 36t27.5 90v231h109z" />
    <glyph glyph-name="uni0439.ss02" horiz-adv-x="523" 
d="M459 446v-446h-76l-22 68q-23 -36 -59.5 -56.5t-82.5 -20.5q-79 0 -120 47.5t-41 131.5v276h110v-266q0 -91 78 -91q49 0 76.5 36t27.5 90v231h109zM174 546.5q-38 22.5 -60 63.5l59 44q15 -25 38.5 -38.5t48.5 -13.5t48 13.5t38 38.5l60 -43q-22 -42 -60 -64.5
t-86 -22.5t-86 22.5z" />
    <glyph glyph-name="uni045D.ss02" horiz-adv-x="523" 
d="M459 446v-446h-76l-22 68q-23 -36 -59.5 -56.5t-82.5 -20.5q-79 0 -120 47.5t-41 131.5v276h110v-266q0 -91 78 -91q49 0 76.5 36t27.5 90v231h109zM150 622l62 72l143 -122l-45 -51z" />
    <glyph glyph-name="uni043A.ss02" horiz-adv-x="465" 
d="M459 4v-4h-125l-161 190v-190h-109v699h109v-430l148 177h123v-4l-177 -212z" />
    <glyph glyph-name="uni043B.ss02" horiz-adv-x="480" 
d="M473 2v-2h-120l-86 200q-3 9 -11.5 33t-15.5 49q-8 -32 -27 -82l-85 -200h-120v2l207 447h50z" />
    <glyph glyph-name="uni043F.ss02" horiz-adv-x="526" 
d="M426.5 411.5q40.5 -46.5 40.5 -132.5v-279h-109v269q0 91 -76 91q-50 0 -79.5 -32t-29.5 -83v-245h-109v446h74l22 -70q24 37 61.5 59.5t88.5 22.5q76 0 116.5 -46.5z" />
    <glyph glyph-name="uni0442.ss02" horiz-adv-x="792" 
d="M694 412.5q40 -45.5 40 -125.5v-287h-109v275q0 40 -19.5 62.5t-52.5 22.5q-49 0 -74.5 -36t-25.5 -85v-239h-108v276q0 36 -19 60t-54 24q-48 0 -73.5 -36t-25.5 -85v-239h-109v446h74l22 -71q23 40 59 61.5t83 21.5t81.5 -21t52.5 -58q22 37 59 58t86 21
q73 0 113 -45.5z" />
    <glyph glyph-name="uni0446.ss02" horiz-adv-x="543" 
d="M523 94v-208h-99v121q-48 16 -60 63q-49 -79 -147 -79q-76 0 -117.5 47.5t-41.5 127.5v280h110v-272q0 -39 19 -62t58 -23q51 0 78 36.5t27 90.5v230h110v-310q0 -22 11 -32t37 -10h15z" />
    <glyph glyph-name="uni0448.ss02" horiz-adv-x="790" 
d="M726 446v-446h-75l-23 71q-22 -36 -58.5 -57.5t-81.5 -21.5q-47 0 -81 21t-52 58q-23 -37 -58.5 -58t-83.5 -21q-73 0 -114 45.5t-41 124.5v284h110v-274q0 -39 19 -60.5t53 -21.5q47 0 72.5 37t25.5 87v232h109v-275q0 -35 19 -58t53 -23q47 0 72.5 37t25.5 87v232h109z
" />
    <glyph glyph-name="uni0449.ss02" horiz-adv-x="810" 
d="M790 94v-208h-99v122q-46 15 -60 62q-24 -36 -59.5 -57t-80.5 -21q-48 0 -82.5 20.5t-53.5 58.5q-22 -37 -57.5 -58t-84.5 -21q-74 0 -114.5 46t-40.5 123v285h110v-275q0 -37 18.5 -59t52.5 -22q48 0 73.5 37t25.5 87v232h109v-275q0 -35 18.5 -58t52.5 -23
q48 0 73.5 37t25.5 87v232h109v-309q0 -23 12 -33t38 -10h14z" />
    <glyph glyph-name="uni044C.ss02" horiz-adv-x="483" 
d="M410 290q47 -46 47 -124q0 -82 -53 -129.5t-143 -47.5q-92 0 -144.5 48t-52.5 133v276h109v-144q46 34 111 34q79 0 126 -46zM325.5 101q23.5 23 23.5 63q0 39 -23.5 61t-63.5 22q-43 0 -67.5 -22t-24.5 -60q0 -42 24 -64.5t68 -22.5q40 0 63.5 23z" />
    <glyph glyph-name="uni044A.ss02" horiz-adv-x="539" 
d="M465.5 291q47.5 -46 47.5 -126q0 -82 -53 -129t-143 -47q-91 0 -144 48.5t-53 131.5v183h-111v94h220v-144q44 35 111 35q78 0 125.5 -46zM381 101q24 23 24 64q0 39 -24 61t-62 22q-41 0 -66 -21t-25 -62q0 -42 24.5 -64.5t66.5 -22.5q38 0 62 23z" />
    <glyph glyph-name="uni044B.ss02" horiz-adv-x="703" 
d="M404 290q47 -46 47 -124q0 -82 -53 -129.5t-143 -47.5q-92 0 -144.5 48t-52.5 133v276h109v-144q46 34 111 34q79 0 126 -46zM319.5 101q23.5 23 23.5 63q0 39 -23.5 61t-63.5 22q-43 0 -67.5 -22t-24.5 -60q0 -42 24 -64.5t68 -22.5q40 0 63.5 23zM530 446h109v-446
h-109v446z" />
    <glyph glyph-name="uni0430.ss03" horiz-adv-x="572" 
d="M508 446v-446h-81l-15 63q-29 -36 -70 -55t-91 -19q-62 0 -110.5 29t-75.5 82t-27 123q0 68 27.5 121.5t76.5 83t111 29.5q47 0 87.5 -19t69.5 -56l18 64h80zM367.5 121.5q35.5 37.5 35.5 101.5q0 63 -35.5 100.5t-93.5 37.5q-56 0 -91 -37.5t-35 -100.5q0 -64 35 -101.5
t91 -37.5q58 0 93.5 37.5z" />
    <glyph glyph-name="uni0432.ss03" horiz-adv-x="553" 
d="M481.5 319.5q35.5 -48.5 35.5 -115.5q0 -64 -29 -113t-82.5 -76t-124.5 -27q-104 0 -165 71t-61 211v130q0 156 66.5 233t180.5 77q82 0 131 -44t49 -116q0 -103 -97 -165q61 -17 96.5 -65.5zM202 563.5q-34 -49.5 -34 -140.5v-44l79 24q125 39 125 134q0 36 -20 56
t-57 20q-59 0 -93 -49.5zM371 119q32 33 32 89q0 49 -27.5 80.5t-73.5 31.5q-32 0 -64 -10l-70 -22v-36q0 -84 30.5 -125t86.5 -41q54 0 86 33z" />
    <glyph glyph-name="uni0433.ss03" horiz-adv-x="398" 
d="M75.5 20q-45.5 32 -45.5 96q0 53 34.5 89t102.5 59q45 16 63 29.5t18 32.5q0 20 -16.5 30.5t-40.5 10.5q-50 0 -108 -32l-35 76q73 43 156 43q66 0 108 -33t42 -92q0 -52 -30 -83.5t-103 -57.5q-39 -13 -58 -28t-19 -38t18 -34t47 -11q60 0 119 39l40 -79
q-80 -49 -173 -49q-74 0 -119.5 32z" />
    <glyph glyph-name="uni0434.ss03" horiz-adv-x="572" 
d="M508 446v-464q0 -104 -64 -159t-170 -55q-119 0 -202 68l42 82q65 -52 151 -52q62 0 97.5 29t35.5 85q0 47 2 72q-28 -30 -66.5 -45t-81.5 -15q-63 0 -111.5 29.5t-75.5 82.5t-27 120t27 120t75 83t110 30q51 0 93.5 -19t70.5 -57l22 65h72zM369 124.5q34 38.5 34 99.5
t-33.5 99.5t-94.5 38.5q-58 0 -92 -38t-34 -100q0 -61 34 -99.5t91 -38.5q61 0 95 38.5z" />
    <glyph glyph-name="uni0435.ss03" horiz-adv-x="484" 
d="M353 86.5q28 10.5 55 32.5l42 -72q-74 -60 -176 -60q-71 0 -125 30t-83.5 84t-29.5 122q0 65 28 118.5t80.5 85t122.5 31.5q56 0 98 -20t65.5 -55t23.5 -80q0 -65 -50 -98t-139 -33q-61 0 -117 7q12 -49 49 -76t90 -27q38 0 66 10.5zM185.5 340q-32.5 -31 -40.5 -86
q46 -6 104 -6q54 0 80 13t26 44q0 29 -24 47.5t-62 18.5q-51 0 -83.5 -31z" />
    <glyph glyph-name="uni0436.ss03" horiz-adv-x="658" 
d="M652 5v-5h-122l-147 198v-198h-108v198l-148 -198h-121v5l172 225l-156 213v3h122l131 -187l-1 440h109v-440l130 187h122v-3l-157 -212z" />
    <glyph glyph-name="uni0437.ss03" horiz-adv-x="412" 
d="M72 -219q-46 13 -84 39l38 85q31 -21 62.5 -30.5t69.5 -9.5q62 0 96 29t34 80q0 50 -32.5 78.5t-90.5 28.5h-69v90h63q46 0 74 27t28 70q0 42 -26.5 65t-74.5 23q-29 0 -54 -6.5t-56 -22.5l-34 83q80 44 159 44q89 0 141 -46.5t52 -126.5q0 -48 -21.5 -86.5t-60.5 -62.5
q51 -17 82 -62.5t31 -104.5q0 -91 -62 -144t-170 -53q-49 0 -95 13z" />
    <glyph glyph-name="uni0438.ss03" horiz-adv-x="523" 
d="M459 446v-446h-76l-22 68q-23 -36 -59.5 -56.5t-82.5 -20.5q-79 0 -120 47.5t-41 131.5v276h110v-266q0 -91 78 -91q49 0 76.5 36t27.5 90v231h109z" />
    <glyph glyph-name="uni0439.ss03" horiz-adv-x="523" 
d="M459 446v-446h-76l-22 68q-23 -36 -59.5 -56.5t-82.5 -20.5q-79 0 -120 47.5t-41 131.5v276h110v-266q0 -91 78 -91q49 0 76.5 36t27.5 90v231h109zM174 546.5q-38 22.5 -60 63.5l59 44q15 -25 38.5 -38.5t48.5 -13.5t48 13.5t38 38.5l60 -43q-22 -42 -60 -64.5
t-86 -22.5t-86 22.5z" />
    <glyph glyph-name="uni045D.ss03" horiz-adv-x="526" 
d="M459 446v-446h-76l-22 68q-23 -36 -59.5 -56.5t-82.5 -20.5q-79 0 -120 47.5t-41 131.5v276h110v-266q0 -91 78 -91q49 0 76.5 36t27.5 90v231h109zM141 630l62 72l143 -122l-45 -51z" />
    <glyph glyph-name="uni043A.ss03" horiz-adv-x="465" 
d="M459 4v-4h-125l-161 190v-190h-109v699h109v-430l148 177h123v-4l-177 -212z" />
    <glyph glyph-name="uni043B.ss03" horiz-adv-x="480" 
d="M473 2v-2h-120l-86 200q-3 9 -11.5 33t-15.5 49q-8 -32 -27 -82l-85 -200h-120v2l207 447h50z" />
    <glyph glyph-name="uni043F.ss03" horiz-adv-x="526" 
d="M426.5 411.5q40.5 -46.5 40.5 -132.5v-279h-109v269q0 91 -76 91q-50 0 -79.5 -32t-29.5 -83v-245h-109v446h74l22 -70q24 37 61.5 59.5t88.5 22.5q76 0 116.5 -46.5z" />
    <glyph glyph-name="uni0442.ss03" horiz-adv-x="792" 
d="M694 412.5q40 -45.5 40 -125.5v-287h-109v275q0 40 -19.5 62.5t-52.5 22.5q-49 0 -74.5 -36t-25.5 -85v-239h-108v276q0 36 -19 60t-54 24q-48 0 -73.5 -36t-25.5 -85v-239h-109v446h74l22 -71q23 40 59 61.5t83 21.5t81.5 -21t52.5 -58q22 37 59 58t86 21
q73 0 113 -45.5z" />
    <glyph glyph-name="uni0443.ss03" horiz-adv-x="523" 
d="M459 446v-469q0 -102 -61 -155.5t-155 -53.5q-112 0 -182 65l42 82q52 -49 132 -49q50 0 82 29t32 82v78q-20 -30 -53.5 -47t-79.5 -17q-75 0 -116 47.5t-41 128.5v279h109v-274q0 -38 19.5 -60.5t58.5 -22.5q49 0 76.5 36t27.5 94v227h109z" />
    <glyph glyph-name="uni0446.ss03" horiz-adv-x="543" 
d="M523 94v-208h-99v121q-48 16 -60 63q-49 -79 -147 -79q-76 0 -117.5 47.5t-41.5 127.5v280h110v-272q0 -39 19 -62t58 -23q51 0 78 36.5t27 90.5v230h110v-310q0 -22 11 -32t37 -10h15z" />
    <glyph glyph-name="uni0448.ss03" horiz-adv-x="790" 
d="M726 446v-446h-75l-23 71q-22 -36 -58.5 -57.5t-81.5 -21.5q-47 0 -81 21t-52 58q-23 -37 -58.5 -58t-83.5 -21q-73 0 -114 45.5t-41 124.5v284h110v-274q0 -39 19 -60.5t53 -21.5q47 0 72.5 37t25.5 87v232h109v-275q0 -35 19 -58t53 -23q47 0 72.5 37t25.5 87v232h109z
" />
    <glyph glyph-name="uni0449.ss03" horiz-adv-x="810" 
d="M790 94v-208h-99v122q-46 15 -60 62q-24 -36 -59.5 -57t-80.5 -21q-48 0 -82.5 20.5t-53.5 58.5q-22 -37 -57.5 -58t-84.5 -21q-74 0 -114.5 46t-40.5 123v285h110v-275q0 -37 18.5 -59t52.5 -22q48 0 73.5 37t25.5 87v232h109v-275q0 -35 18.5 -58t52.5 -23
q48 0 73.5 37t25.5 87v232h109v-309q0 -23 12 -33t38 -10h14z" />
    <glyph glyph-name="uni044C.ss03" horiz-adv-x="483" 
d="M410 290q47 -46 47 -124q0 -82 -53 -129.5t-143 -47.5q-92 0 -144.5 48t-52.5 133v276h109v-144q46 34 111 34q79 0 126 -46zM325.5 101q23.5 23 23.5 63q0 39 -23.5 61t-63.5 22q-43 0 -67.5 -22t-24.5 -60q0 -42 24 -64.5t68 -22.5q40 0 63.5 23z" />
    <glyph glyph-name="uni044A.ss03" horiz-adv-x="539" 
d="M465.5 291q47.5 -46 47.5 -126q0 -82 -53 -129t-143 -47q-91 0 -144 48.5t-53 131.5v183h-111v94h220v-144q44 35 111 35q78 0 125.5 -46zM381 101q24 23 24 64q0 39 -24 61t-62 22q-41 0 -66 -21t-25 -62q0 -42 24.5 -64.5t66.5 -22.5q38 0 62 23z" />
    <glyph glyph-name="uni044B.ss03" horiz-adv-x="703" 
d="M404 290q47 -46 47 -124q0 -82 -53 -129.5t-143 -47.5q-92 0 -144.5 48t-52.5 133v276h109v-144q46 34 111 34q79 0 126 -46zM319.5 101q23.5 23 23.5 63q0 39 -23.5 61t-63.5 22q-43 0 -67.5 -22t-24.5 -60q0 -42 24 -64.5t68 -22.5q40 0 63.5 23zM530 446h109v-446
h-109v446z" />
    <glyph glyph-name="zero.sinf" horiz-adv-x="314" 
d="M70 -25.5q-28 45.5 -28 107.5q0 61 28 106.5t87 45.5q58 0 86 -45.5t28 -106.5q0 -62 -27.5 -107.5t-86.5 -45.5t-87 45.5zM194 17.5q11 25.5 11 64.5q0 37 -11 63t-37 26q-27 0 -37.5 -25.5t-10.5 -63.5q0 -90 48 -90q26 0 37 25.5z" />
    <glyph glyph-name="one.sinf" horiz-adv-x="227" 
d="M101 119l-38 -33l-38 41l104 99h36v-286h-64v179z" />
    <glyph glyph-name="two.sinf" horiz-adv-x="285" 
d="M248 -2v-58h-203v27l106 129q21 28 21 47q0 14 -8 22.5t-24 8.5q-25 0 -43 -37l-50 25q12 36 37.5 54t59.5 18q42 0 68 -25.5t26 -61.5q0 -20 -7.5 -39.5t-26.5 -44.5l-52 -65h96z" />
    <glyph glyph-name="three.sinf" horiz-adv-x="288" 
d="M41 -35l34 45q11 -10 27 -15.5t32 -5.5q21 0 33 10t12 27q0 35 -46 35h-32v51h26q17 0 28 8t11 24q0 14 -10 21.5t-24 7.5q-25 0 -46 -16l-36 43q38 33 92 33q37 0 63 -22t26 -56q0 -22 -10.5 -39.5t-28.5 -24.5q22 -6 38 -26t16 -46q0 -40 -29 -65t-76 -25
q-61 0 -100 36z" />
    <glyph glyph-name="four.sinf" horiz-adv-x="304" 
d="M166 -14h-132v29l160 211h31v-189h34v-51h-34v-46h-59v46zM166 37v69l-51 -69h51z" />
    <glyph glyph-name="five.sinf" horiz-adv-x="285" 
d="M43 -35l36 44q21 -21 52 -21q20 0 32 11.5t12 30.5q0 21 -15.5 32t-42.5 11q-23 0 -47 -7l-6 6l18 151h147v-59h-95l-5 -47l16 1q41 0 69 -23.5t28 -66.5q0 -45 -29 -72t-76 -27q-56 0 -94 36z" />
    <glyph glyph-name="six.sinf" horiz-adv-x="293" 
d="M225.5 93q24.5 -24 24.5 -67t-27.5 -70t-72.5 -27q-52 0 -79.5 34.5t-27.5 87.5v9q0 75 42.5 122t123.5 48l10 -57q-45 2 -71 -16t-36 -58q21 18 52 18q37 0 61.5 -24zM178 -6q10 11 10 29q0 20 -11 30t-29 10q-17 0 -27.5 -11t-10.5 -29q0 -17 10.5 -28.5t29.5 -11.5
q18 0 28 11z" />
    <glyph glyph-name="seven.sinf" horiz-adv-x="275" 
d="M148 164h-105v59h190v-13l-107 -270h-68z" />
    <glyph glyph-name="eight.sinf" horiz-adv-x="298" 
d="M71.5 -47.5q-29.5 23.5 -29.5 67.5q0 23 12 42t33 29q-32 24 -32 63q0 37 26.5 58.5t67.5 21.5t67 -21.5t26 -57.5q0 -22 -9.5 -38t-23.5 -25q22 -11 34 -30t12 -42q0 -44 -29 -67.5t-77 -23.5t-77.5 23.5zM170.5 125q8.5 9 8.5 22q0 14 -8.5 23t-21.5 9q-14 0 -22.5 -9
t-8.5 -23q0 -13 9 -22t22 -9t21.5 9zM178.5 -4q11.5 11 11.5 29t-12 29.5t-30 11.5q-19 0 -30 -11.5t-11 -29.5t11.5 -29t30.5 -11q18 0 29.5 11z" />
    <glyph glyph-name="nine.sinf" horiz-adv-x="292" 
d="M222 199.5q28 -34.5 28 -87.5v-9q0 -75 -42.5 -122t-123.5 -48l-10 57q45 -2 71 16.5t36 58.5q-20 -19 -52 -19q-38 0 -62.5 24t-24.5 67q0 42 27.5 69.5t72.5 27.5q52 0 80 -34.5zM172.5 111q10.5 11 10.5 29q0 17 -10.5 28.5t-29.5 11.5q-18 0 -28 -11t-10 -29
q0 -20 10.5 -30t28.5 -10t28.5 11z" />
    <glyph glyph-name="zero.tf" horiz-adv-x="549" 
d="M143 30q-56 42 -86 119.5t-30 181.5t30 181t86 119t131 42q76 0 132 -42t86 -119t30 -181t-30 -181.5t-86 -119.5t-132 -42q-75 0 -131 42zM370 156q34 65 34 175q0 109 -34 174.5t-96 65.5q-61 0 -95 -65.5t-34 -174.5q0 -110 34 -175t95 -65q62 0 96 65z" />
    <glyph glyph-name="one.tf" horiz-adv-x="549" 
d="M505 100v-100h-420v100h160v344q0 38 4 74q-13 -10 -41 -28l-128 -79l-52 85l262 172h72v-568h143z" />
    <glyph glyph-name="two.tf" horiz-adv-x="549" 
d="M478 101v-101h-433v47l249 312q31 39 44 66.5t13 53.5q0 39 -24 63t-68 24q-41 0 -71 -19t-56 -56l-78 60q38 60 90.5 91t124.5 31q61 0 107 -23.5t70 -65t24 -92.5q0 -50 -18 -93t-68 -104l-120 -150q-19 -24 -39 -45q19 1 58 1h195z" />
    <glyph glyph-name="three.tf" horiz-adv-x="549" 
d="M132 8.5q-54 20.5 -96 62.5l62 79q56 -59 151 -59q56 0 91.5 29t35.5 76q0 54 -39.5 77t-103.5 23h-71v96h65q59 0 89 28t30 67q0 37 -29 61t-74 24q-38 0 -72.5 -16t-58.5 -44l-58 75q81 86 199 86q61 0 108 -23t73.5 -64t26.5 -93q0 -41 -24.5 -80t-68.5 -60
q61 -19 93.5 -64.5t32.5 -102.5q0 -58 -30.5 -103t-85 -70t-122.5 -25q-70 0 -124 20.5z" />
    <glyph glyph-name="four.tf" horiz-adv-x="549" 
d="M515 220v-95h-72v-125h-109v125h-310v61l354 482h65v-448h72zM336 386q0 49 2 76q-21 -31 -39 -55l-101 -140q-20 -29 -37 -48q23 1 66 1h109v166z" />
    <glyph glyph-name="five.tf" horiz-adv-x="549" 
d="M430 357.5q67 -54.5 67 -148.5q0 -64 -30.5 -114t-86.5 -78t-130 -28q-66 0 -118 20t-95 63l61 82q54 -59 143 -59q62 0 100 32.5t38 82.5q0 56 -41.5 84t-111.5 28q-57 0 -128 -19l-14 11l38 347h346v-101h-252l-15 -151q27 3 54 3q108 0 175 -54.5z" />
    <glyph glyph-name="six.tf" horiz-adv-x="549" 
d="M409.5 388.5q47.5 -23.5 75 -70t27.5 -110.5q0 -65 -28 -114.5t-79 -77.5t-118 -28q-117 0 -176 72t-59 190v11q0 179 91 288.5t280 123.5l15 -97q-115 -9 -182.5 -64t-84.5 -147q48 47 133 47q58 0 105.5 -23.5zM367.5 122q32.5 31 32.5 83q0 53 -32.5 82.5t-82.5 29.5
q-53 0 -85 -30.5t-32 -82.5q0 -51 32.5 -82t84.5 -31q50 0 82.5 31z" />
    <glyph glyph-name="seven.tf" horiz-adv-x="549" 
d="M507 661v-43l-257 -618h-120l205 490l30 71l-73 -1h-258v101h473z" />
    <glyph glyph-name="eight.tf" horiz-adv-x="549" 
d="M102 41.5q-64 52.5 -64 142.5q0 59 33 104t89 62q-45 16 -73 53t-28 91q0 53 27 93.5t76.5 63t113.5 22.5t112.5 -22.5t75 -63t26.5 -93.5q0 -51 -27.5 -88.5t-70.5 -55.5q52 -18 85.5 -63.5t33.5 -103.5q0 -90 -64 -142t-172 -52q-109 0 -173 52.5zM350.5 422.5
q27.5 25.5 27.5 66.5q0 39 -28 63.5t-74 24.5q-47 0 -76 -24.5t-29 -63.5q0 -42 28 -67t77 -25q47 0 74.5 25.5zM360.5 117q33.5 27 33.5 76t-32.5 78.5t-88.5 29.5q-53 0 -85.5 -30t-32.5 -78t34 -75.5t85 -27.5q53 0 86.5 27z" />
    <glyph glyph-name="nine.tf" horiz-adv-x="549" 
d="M436.5 601.5q58.5 -71.5 58.5 -189.5v-11q0 -179 -91 -288.5t-279 -124.5l-17 98q117 8 185 63.5t85 148.5q-49 -49 -135 -49q-58 0 -105 24t-75 70.5t-28 110.5t28 113.5t79 77.5t118 28q118 0 176.5 -71.5zM347.5 375q32.5 31 32.5 83q0 50 -32.5 81t-85.5 31
q-50 0 -82 -31t-32 -83q0 -53 32 -82.5t82 -29.5q53 0 85.5 31z" />
    <glyph glyph-name="zero.dnom" horiz-adv-x="314" 
d="M70 34.5q-28 45.5 -28 107.5q0 61 28 106.5t87 45.5q58 0 86 -45.5t28 -106.5q0 -62 -27.5 -107.5t-86.5 -45.5t-87 45.5zM194 77.5q11 25.5 11 64.5q0 37 -11 63t-37 26q-27 0 -37.5 -25.5t-10.5 -63.5q0 -90 48 -90q26 0 37 25.5z" />
    <glyph glyph-name="one.dnom" horiz-adv-x="227" 
d="M101 179l-38 -33l-38 41l104 99h36v-286h-64v179z" />
    <glyph glyph-name="two.dnom" horiz-adv-x="285" 
d="M248 58v-58h-203v27l106 129q21 28 21 47q0 14 -8 22.5t-24 8.5q-25 0 -43 -37l-50 25q12 36 37.5 54t59.5 18q42 0 68 -25.5t26 -61.5q0 -20 -7.5 -39.5t-26.5 -44.5l-52 -65h96z" />
    <glyph glyph-name="three.dnom" horiz-adv-x="288" 
d="M41 25l34 45q11 -10 27 -15.5t32 -5.5q21 0 33 10t12 27q0 35 -46 35h-32v51h26q17 0 28 8t11 24q0 14 -10 21.5t-24 7.5q-25 0 -46 -16l-36 43q38 33 92 33q37 0 63 -22t26 -56q0 -22 -10.5 -39.5t-28.5 -24.5q22 -6 38 -26t16 -46q0 -40 -29 -65t-76 -25q-61 0 -100 36
z" />
    <glyph glyph-name="four.dnom" horiz-adv-x="304" 
d="M166 46h-132v29l160 211h31v-189h34v-51h-34v-46h-59v46zM166 97v69l-51 -69h51z" />
    <glyph glyph-name="five.dnom" horiz-adv-x="285" 
d="M43 25l36 44q21 -21 52 -21q20 0 32 11.5t12 30.5q0 21 -15.5 32t-42.5 11q-23 0 -47 -7l-6 6l18 151h147v-59h-95l-5 -47l16 1q41 0 69 -23.5t28 -66.5q0 -45 -29 -72t-76 -27q-56 0 -94 36z" />
    <glyph glyph-name="six.dnom" horiz-adv-x="293" 
d="M225.5 153q24.5 -24 24.5 -67t-27.5 -70t-72.5 -27q-52 0 -79.5 34.5t-27.5 87.5v9q0 75 42.5 122t123.5 48l10 -57q-45 2 -71 -16t-36 -58q21 18 52 18q37 0 61.5 -24zM178 54q10 11 10 29q0 20 -11 30t-29 10q-17 0 -27.5 -11t-10.5 -29q0 -17 10.5 -28.5t29.5 -11.5
q18 0 28 11z" />
    <glyph glyph-name="seven.dnom" horiz-adv-x="275" 
d="M148 224h-105v59h190v-13l-107 -270h-68z" />
    <glyph glyph-name="eight.dnom" horiz-adv-x="298" 
d="M71.5 12.5q-29.5 23.5 -29.5 67.5q0 23 12 42t33 29q-32 24 -32 63q0 37 26.5 58.5t67.5 21.5t67 -21.5t26 -57.5q0 -22 -9.5 -38t-23.5 -25q22 -11 34 -30t12 -42q0 -44 -29 -67.5t-77 -23.5t-77.5 23.5zM170.5 185q8.5 9 8.5 22q0 14 -8.5 23t-21.5 9q-14 0 -22.5 -9
t-8.5 -23q0 -13 9 -22t22 -9t21.5 9zM178.5 56q11.5 11 11.5 29t-12 29.5t-30 11.5q-19 0 -30 -11.5t-11 -29.5t11.5 -29t30.5 -11q18 0 29.5 11z" />
    <glyph glyph-name="nine.dnom" horiz-adv-x="292" 
d="M222 259.5q28 -34.5 28 -87.5v-9q0 -75 -42.5 -122t-123.5 -48l-10 57q45 -2 71 16.5t36 58.5q-20 -19 -52 -19q-38 0 -62.5 24t-24.5 67q0 42 27.5 69.5t72.5 27.5q52 0 80 -34.5zM172.5 171q10.5 11 10.5 29q0 17 -10.5 28.5t-29.5 11.5q-18 0 -28 -11t-10 -29
q0 -20 10.5 -30t28.5 -10t28.5 11z" />
    <glyph glyph-name="zero.numr" horiz-adv-x="314" 
d="M70 431.5q-28 45.5 -28 107.5q0 61 28 106.5t87 45.5q58 0 86 -45.5t28 -106.5q0 -62 -27.5 -107.5t-86.5 -45.5t-87 45.5zM194 474.5q11 25.5 11 64.5q0 37 -11 63t-37 26q-27 0 -37.5 -25.5t-10.5 -63.5q0 -90 48 -90q26 0 37 25.5z" />
    <glyph glyph-name="one.numr" horiz-adv-x="227" 
d="M101 576l-38 -33l-38 41l104 99h36v-286h-64v179z" />
    <glyph glyph-name="two.numr" horiz-adv-x="285" 
d="M248 455v-58h-203v27l106 129q21 28 21 47q0 14 -8 22.5t-24 8.5q-25 0 -43 -37l-50 25q12 36 37.5 54t59.5 18q42 0 68 -25.5t26 -61.5q0 -20 -7.5 -39.5t-26.5 -44.5l-52 -65h96z" />
    <glyph glyph-name="three.numr" horiz-adv-x="288" 
d="M41 422l34 45q11 -10 27 -15.5t32 -5.5q21 0 33 10t12 27q0 35 -46 35h-32v51h26q17 0 28 8t11 24q0 14 -10 21.5t-24 7.5q-25 0 -46 -16l-36 43q38 33 92 33q37 0 63 -22t26 -56q0 -22 -10.5 -39.5t-28.5 -24.5q22 -6 38 -26t16 -46q0 -40 -29 -65t-76 -25
q-61 0 -100 36z" />
    <glyph glyph-name="four.numr" horiz-adv-x="304" 
d="M166 443h-132v29l160 211h31v-189h34v-51h-34v-46h-59v46zM166 494v69l-51 -69h51z" />
    <glyph glyph-name="five.numr" horiz-adv-x="285" 
d="M43 422l36 44q21 -21 52 -21q20 0 32 11.5t12 30.5q0 21 -15.5 32t-42.5 11q-23 0 -47 -7l-6 6l18 151h147v-59h-95l-5 -47l16 1q41 0 69 -23.5t28 -66.5q0 -45 -29 -72t-76 -27q-56 0 -94 36z" />
    <glyph glyph-name="six.numr" horiz-adv-x="293" 
d="M225.5 555q24.5 -24 24.5 -67t-27.5 -70t-72.5 -27q-52 0 -79.5 34.5t-27.5 87.5v9q0 75 42.5 122t123.5 48l10 -57q-45 2 -71 -16t-36 -58q21 18 52 18q37 0 61.5 -24zM178 456q10 11 10 29q0 20 -11 30t-29 10q-17 0 -27.5 -11t-10.5 -29q0 -17 10.5 -28.5t29.5 -11.5
q18 0 28 11z" />
    <glyph glyph-name="seven.numr" horiz-adv-x="275" 
d="M148 621h-105v59h190v-13l-107 -270h-68z" />
    <glyph glyph-name="eight.numr" horiz-adv-x="298" 
d="M71.5 409.5q-29.5 23.5 -29.5 67.5q0 23 12 42t33 29q-32 24 -32 63q0 37 26.5 58.5t67.5 21.5t67 -21.5t26 -57.5q0 -22 -9.5 -38t-23.5 -25q22 -11 34 -30t12 -42q0 -44 -29 -67.5t-77 -23.5t-77.5 23.5zM170.5 582q8.5 9 8.5 22q0 14 -8.5 23t-21.5 9q-14 0 -22.5 -9
t-8.5 -23q0 -13 9 -22t22 -9t21.5 9zM178.5 453q11.5 11 11.5 29t-12 29.5t-30 11.5q-19 0 -30 -11.5t-11 -29.5t11.5 -29t30.5 -11q18 0 29.5 11z" />
    <glyph glyph-name="nine.numr" horiz-adv-x="292" 
d="M222 656.5q28 -34.5 28 -87.5v-9q0 -75 -42.5 -122t-123.5 -48l-10 57q45 -2 71 16.5t36 58.5q-20 -19 -52 -19q-38 0 -62.5 24t-24.5 67q0 42 27.5 69.5t72.5 27.5q52 0 80 -34.5zM172.5 568q10.5 11 10.5 29q0 17 -10.5 28.5t-29.5 11.5q-18 0 -28 -11t-10 -29
q0 -20 10.5 -30t28.5 -10t28.5 11z" />
    <glyph glyph-name="zero.sups" horiz-adv-x="314" 
d="M70 431.5q-28 45.5 -28 107.5q0 61 28 106.5t87 45.5q58 0 86 -45.5t28 -106.5q0 -62 -27.5 -107.5t-86.5 -45.5t-87 45.5zM194 474.5q11 25.5 11 64.5q0 37 -11 63t-37 26q-27 0 -37.5 -25.5t-10.5 -63.5q0 -90 48 -90q26 0 37 25.5z" />
    <glyph glyph-name="one.sups" horiz-adv-x="227" 
d="M101 578l-38 -33l-38 41l104 99h36v-286h-64v179z" />
    <glyph glyph-name="two.sups" horiz-adv-x="285" 
d="M248 455v-58h-203v27l106 129q21 28 21 47q0 14 -8 22.5t-24 8.5q-25 0 -43 -37l-50 25q12 36 37.5 54t59.5 18q42 0 68 -25.5t26 -61.5q0 -20 -7.5 -39.5t-26.5 -44.5l-52 -65h96z" />
    <glyph glyph-name="three.sups" horiz-adv-x="288" 
d="M41 422l34 45q11 -10 27 -15.5t32 -5.5q21 0 33 10t12 27q0 35 -46 35h-32v51h26q17 0 28 8t11 24q0 14 -10 21.5t-24 7.5q-25 0 -46 -16l-36 43q38 33 92 33q37 0 63 -22t26 -56q0 -22 -10.5 -39.5t-28.5 -24.5q22 -6 38 -26t16 -46q0 -40 -29 -65t-76 -25
q-61 0 -100 36z" />
    <glyph glyph-name="four.sups" horiz-adv-x="304" 
d="M166 443h-132v29l160 211h31v-189h34v-51h-34v-46h-59v46zM166 494v69l-51 -69h51z" />
    <glyph glyph-name="five.sups" horiz-adv-x="285" 
d="M43 422l36 44q21 -21 52 -21q20 0 32 11.5t12 30.5q0 21 -15.5 32t-42.5 11q-23 0 -47 -7l-6 6l18 151h147v-59h-95l-5 -47l16 1q41 0 69 -23.5t28 -66.5q0 -45 -29 -72t-76 -27q-56 0 -94 36z" />
    <glyph glyph-name="six.sups" horiz-adv-x="293" 
d="M225.5 553q24.5 -24 24.5 -67t-27.5 -70t-72.5 -27q-52 0 -79.5 34.5t-27.5 87.5v9q0 75 42.5 122t123.5 48l10 -57q-45 2 -71 -16t-36 -58q21 18 52 18q37 0 61.5 -24zM178 454q10 11 10 29q0 20 -11 30t-29 10q-17 0 -27.5 -11t-10.5 -29q0 -17 10.5 -28.5t29.5 -11.5
q18 0 28 11z" />
    <glyph glyph-name="seven.sups" horiz-adv-x="275" 
d="M148 621h-105v59h190v-13l-107 -270h-68z" />
    <glyph glyph-name="eight.sups" horiz-adv-x="298" 
d="M71.5 409.5q-29.5 23.5 -29.5 67.5q0 23 12 42t33 29q-32 24 -32 63q0 37 26.5 58.5t67.5 21.5t67 -21.5t26 -57.5q0 -22 -9.5 -38t-23.5 -25q22 -11 34 -30t12 -42q0 -44 -29 -67.5t-77 -23.5t-77.5 23.5zM170.5 582q8.5 9 8.5 22q0 14 -8.5 23t-21.5 9q-14 0 -22.5 -9
t-8.5 -23q0 -13 9 -22t22 -9t21.5 9zM178.5 453q11.5 11 11.5 29t-12 29.5t-30 11.5q-19 0 -30 -11.5t-11 -29.5t11.5 -29t30.5 -11q18 0 29.5 11z" />
    <glyph glyph-name="nine.sups" horiz-adv-x="292" 
d="M222 656.5q28 -34.5 28 -87.5v-9q0 -75 -42.5 -122t-123.5 -48l-10 57q45 -2 71 16.5t36 58.5q-20 -19 -52 -19q-38 0 -62.5 24t-24.5 67q0 42 27.5 69.5t72.5 27.5q52 0 80 -34.5zM172.5 568q10.5 11 10.5 29q0 17 -10.5 28.5t-29.5 11.5q-18 0 -28 -11t-10 -29
q0 -20 10.5 -30t28.5 -10t28.5 11z" />
    <glyph glyph-name="colon.case" horiz-adv-x="265" 
d="M83.5 431.5q-20.5 17.5 -20.5 50.5q0 32 20.5 50t48.5 18q29 0 49.5 -17.5t20.5 -50.5t-20.5 -50.5t-49.5 -17.5q-28 0 -48.5 17.5zM83.5 109q-20.5 18 -20.5 50q0 33 20.5 50.5t48.5 17.5q29 0 49.5 -17.5t20.5 -50.5q0 -32 -20.5 -50t-49.5 -18q-28 0 -48.5 18z" />
    <glyph glyph-name="parenleft.case" horiz-adv-x="342" 
d="M123.5 82q-43.5 127 -43.5 268t43.5 268t116.5 211l65 -56q-59 -76 -92.5 -187.5t-33.5 -235.5t33.5 -235.5t92.5 -187.5l-65 -56q-73 84 -116.5 211z" />
    <glyph glyph-name="parenright.case" horiz-adv-x="342" 
d="M218.5 617.5q43.5 -126.5 43.5 -267.5t-43.5 -267.5t-116.5 -211.5l-65 56q59 76 92.5 187.5t33.5 235.5t-33.5 235.5t-92.5 187.5l65 56q73 -85 116.5 -211.5z" />
    <glyph glyph-name="braceleft.case" horiz-adv-x="344" 
d="M279 -127q-73 0 -108.5 34t-35.5 107v200q0 48 -18 69.5t-64 20.5v91q46 0 64 21t18 69v200q0 74 35.5 108t108.5 34q19 0 29 -1v-91q-43 2 -59 -11.5t-16 -52.5v-202q0 -50 -18.5 -78.5t-56.5 -40.5q38 -12 56.5 -40.5t18.5 -78.5v-202q0 -39 16 -53t59 -11v-91
q-10 -1 -29 -1z" />
    <glyph glyph-name="braceright.case" horiz-adv-x="344" 
d="M37 -35q42 -3 58 11t16 53v202q0 50 18.5 78.5t56.5 40.5q-38 12 -56.5 40.5t-18.5 78.5v202q0 39 -15.5 52.5t-58.5 11.5v91q10 1 29 1q73 0 108 -34t35 -108v-200q0 -47 18 -68.5t65 -21.5v-91q-46 1 -64.5 -20.5t-18.5 -69.5v-200q0 -73 -35 -107t-108 -34
q-19 0 -29 1v91z" />
    <glyph glyph-name="bracketleft.case" horiz-adv-x="307" 
d="M85 823h180v-90h-81v-766h81v-90h-180v946z" />
    <glyph glyph-name="bracketright.case" horiz-adv-x="307" 
d="M41 -123v90h82v766h-82v90h181v-946h-181z" />
    <glyph glyph-name="hyphen.case" horiz-adv-x="409" 
d="M64 397h281v-95h-281v95z" />
    <glyph glyph-name="endash.case" horiz-adv-x="539" 
d="M64 394h411v-86h-411v86z" />
    <glyph glyph-name="emdash.case" horiz-adv-x="703" 
d="M64 394h575v-86h-575v86z" />
    </font>
</defs>
</svg>
