<svg height="50px" viewBox="-1 0 511 511.59803" width="50px" xmlns="http://www.w3.org/2000/svg"><path d="m360.574219 255.597656c0 58.910156-47.757813 106.667969-106.667969 106.667969s-106.664062-47.757813-106.664062-106.667969 47.753906-106.667968 106.664062-106.667968 106.667969 47.757812 106.667969 106.667968zm0 0" fill="#f44336"/><path d="m253.90625 511.597656c-5.566406 0-11.113281-.171875-16.574219-.53125-11.753906-.769531-20.671875-10.902344-19.925781-22.65625.746094-11.757812 10.367188-20.695312 22.65625-19.925781 19.15625 1.257813 38.996094-.148437 57.878906-4.097656 11.5625-2.390625 22.824219 4.972656 25.257813 16.511719 2.429687 11.542968-4.972657 22.847656-16.492188 25.257812-17.257812 3.605469-35.027343 5.441406-52.800781 5.441406zm-107.113281-25.792968c-3.265625 0-6.613281-.746094-9.726563-2.34375-20.695312-10.625-39.851562-24.042969-56.984375-39.917969-8.660156-8-9.191406-21.503907-1.191406-30.140625 8-8.664063 21.503906-9.175782 30.140625-1.175782 14.296875 13.226563 30.296875 24.40625 47.53125 33.257813 10.476562 5.378906 14.613281 18.242187 9.238281 28.738281-3.816406 7.339844-11.261719 11.582032-19.007812 11.582032zm242.835937-17.386719c-6.65625 0-13.246094-3.113281-17.40625-8.957031-6.804687-9.601563-4.566406-22.933594 5.035156-29.761719 15.851563-11.265625 30.078126-24.640625 42.324219-39.703125 7.46875-9.128906 20.886719-10.535156 30.015625-3.089844 9.152344 7.421875 10.519532 20.863281 3.117188 30.015625-14.679688 18.046875-31.746094 34.066406-50.753906 47.550781-3.734376 2.667969-8.0625 3.945313-12.332032 3.945313zm-350.441406-96.746094c-8.191406 0-16-4.757813-19.519531-12.714844-9.429688-21.289062-15.871094-43.816406-19.15625-66.921875-1.644531-11.667968 6.460937-22.464844 18.132812-24.128906 11.625-1.640625 22.464844 6.445312 24.128907 18.113281 2.730468 19.242188 8.105468 37.972657 15.914062 55.699219 4.777344 10.773438-.109375 23.363281-10.882812 28.140625-2.8125 1.214844-5.757813 1.8125-8.617188 1.8125zm440.8125-31.53125c-1.898438 0-3.839844-.253906-5.761719-.789063-11.347656-3.15625-17.984375-14.933593-14.804687-26.28125 5.183594-18.625 7.808594-37.953124 7.808594-57.472656.019531-10.667968-.769532-21.332031-2.328126-31.765625-1.746093-11.648437 6.296876-22.527343 17.941407-24.253906 11.90625-1.835937 22.550781 6.292969 24.277343 17.917969 1.878907 12.542968 2.816407 25.367187 2.796876 38.144531 0 23.339844-3.15625 46.550781-9.386719 68.886719-2.644531 9.429687-11.222657 15.613281-20.542969 15.613281zm-452.523438-124.925781c-1.855468 0-3.753906-.257813-5.613281-.769532-11.367187-3.070312-18.089843-14.785156-14.996093-26.152343 6.101562-22.488281 15.296874-44.035157 27.285156-64.066407 6.058594-10.109374 19.136718-13.398437 29.25-7.335937 10.109375 6.058594 13.394531 19.15625 7.335937 29.265625-9.984375 16.664062-17.621093 34.605469-22.695312 53.3125-2.582031 9.496094-11.203125 15.746094-20.566407 15.746094zm425.492188-62.613282c-7.125 0-14.058594-3.5625-18.132812-10.027343-10.238282-16.425781-22.71875-31.402344-37.121094-44.542969-8.683594-7.9375-9.320313-21.441406-1.34375-30.144531 7.957031-8.703125 21.460937-9.300781 30.144531-1.367188 17.238281 15.746094 32.214844 33.730469 44.542969 53.441407 6.230468 9.984374 3.179687 23.144531-6.804688 29.398437-3.519531 2.21875-7.421875 3.242187-11.285156 3.242187zm-335.976562-66.261718c-6.636719 0-13.164063-3.074219-17.324219-8.875-6.890625-9.535156-4.714844-22.871094 4.84375-29.761719 18.964843-13.652344 39.636719-24.617187 61.503906-32.597656 11.027344-3.988281 23.292969 1.644531 27.347656 12.714843 4.03125 11.074219-1.640625 23.320313-12.734375 27.371094-18.175781 6.636719-35.394531 15.765625-51.199218 27.136719-3.777344 2.710937-8.128907 4.011719-12.4375 4.011719zm213.183593-31.382813c-2.285156 0-4.652343-.382812-6.933593-1.171875-18.285157-6.292968-37.441407-10.046875-56.875-11.15625-11.753907-.683594-20.757813-10.753906-20.054688-22.53125.660156-11.773437 10.921875-20.628906 22.527344-20.0742185 23.339844 1.3437505 46.292968 5.8476565 68.289062 13.3984375 11.136719 3.839844 17.066406 15.980469 13.226563 27.113281-3.050781 8.855469-11.328125 14.421875-20.179688 14.421875zm0 0" fill="#b0bec5"/></svg>
